<?xml version="1.0" encoding="us-ascii" standalone="no"?><svg xmlns="http://www.w3.org/2000/svg" xmlns:xlink="http://www.w3.org/1999/xlink" contentStyleType="text/css" height="644px" preserveAspectRatio="none" style="width:994px;height:644px;background:#FFFFFF;" version="1.1" viewBox="0 0 994 644" width="994px" zoomAndPan="magnify"><defs/><g><rect fill="#FFFFFF" height="519.9766" style="stroke:#181818;stroke-width:1.0;" width="10" x="213" y="69.9609"/><rect fill="#FFFFFF" height="459.2734" style="stroke:#181818;stroke-width:1.0;" width="10" x="331" y="100.3125"/><rect fill="#FFFFFF" height="398.5703" style="stroke:#181818;stroke-width:1.0;" width="10" x="483" y="130.6641"/><rect fill="#FFFFFF" height="30.3516" style="stroke:#181818;stroke-width:1.0;" width="10" x="593" y="161.0156"/><rect fill="#FFFFFF" height="30.3516" style="stroke:#181818;stroke-width:1.0;" width="10" x="593" y="247.0703"/><rect fill="#FFFFFF" height="184.1094" style="stroke:#181818;stroke-width:1.0;" width="10" x="676.5" y="314.7734"/><rect fill="#FFFFFF" height="30.3516" style="stroke:#181818;stroke-width:1.0;" width="10" x="799.5" y="370.4766"/><rect fill="#FFFFFF" height="30.3516" style="stroke:#181818;stroke-width:1.0;" width="10" x="862.5" y="431.1797"/><rect fill="none" height="79.0547" style="stroke:#000000;stroke-width:1.5;" width="203" x="447.5" y="206.3672"/><rect fill="none" height="139.7578" style="stroke:#000000;stroke-width:1.5;" width="259" x="640.5" y="329.7734"/><line style="stroke:#181818;stroke-width:0.5;stroke-dasharray:5.0,5.0;" x1="217.5" x2="217.5" y1="37.6094" y2="607.9375"/><line style="stroke:#181818;stroke-width:0.5;stroke-dasharray:5.0,5.0;" x1="336" x2="336" y1="37.6094" y2="607.9375"/><line style="stroke:#181818;stroke-width:0.5;stroke-dasharray:5.0,5.0;" x1="487.5" x2="487.5" y1="37.6094" y2="607.9375"/><line style="stroke:#181818;stroke-width:0.5;stroke-dasharray:5.0,5.0;" x1="597.5" x2="597.5" y1="37.6094" y2="607.9375"/><line style="stroke:#181818;stroke-width:0.5;stroke-dasharray:5.0,5.0;" x1="681.5" x2="681.5" y1="37.6094" y2="607.9375"/><line style="stroke:#181818;stroke-width:0.5;stroke-dasharray:5.0,5.0;" x1="804.5" x2="804.5" y1="37.6094" y2="607.9375"/><line style="stroke:#181818;stroke-width:0.5;stroke-dasharray:5.0,5.0;" x1="867.5" x2="867.5" y1="37.6094" y2="607.9375"/><line style="stroke:#181818;stroke-width:0.5;stroke-dasharray:5.0,5.0;" x1="943.5" x2="943.5" y1="37.6094" y2="607.9375"/><rect fill="#E2E2F0" height="31.6094" rx="2.5" ry="2.5" style="stroke:#181818;stroke-width:0.5;" width="63" x="186.5" y="5"/><text fill="#000000" font-family="sans-serif" font-size="14" lengthAdjust="spacing" textLength="49" x="193.5" y="26.5332">Routing</text><rect fill="#E2E2F0" height="31.6094" rx="2.5" ry="2.5" style="stroke:#181818;stroke-width:0.5;" width="63" x="186.5" y="606.9375"/><text fill="#000000" font-family="sans-serif" font-size="14" lengthAdjust="spacing" textLength="49" x="193.5" y="628.4707">Routing</text><rect fill="#E2E2F0" height="31.6094" rx="2.5" ry="2.5" style="stroke:#181818;stroke-width:0.5;" width="76" x="298" y="5"/><text fill="#000000" font-family="sans-serif" font-size="14" lengthAdjust="spacing" textLength="62" x="305" y="26.5332">Controller</text><rect fill="#E2E2F0" height="31.6094" rx="2.5" ry="2.5" style="stroke:#181818;stroke-width:0.5;" width="76" x="298" y="606.9375"/><text fill="#000000" font-family="sans-serif" font-size="14" lengthAdjust="spacing" textLength="62" x="305" y="628.4707">Controller</text><rect fill="#E2E2F0" height="31.6094" rx="2.5" ry="2.5" style="stroke:#181818;stroke-width:0.5;" width="61" x="457.5" y="5"/><text fill="#000000" font-family="sans-serif" font-size="14" lengthAdjust="spacing" textLength="47" x="464.5" y="26.5332">Service</text><rect fill="#E2E2F0" height="31.6094" rx="2.5" ry="2.5" style="stroke:#181818;stroke-width:0.5;" width="61" x="457.5" y="606.9375"/><text fill="#000000" font-family="sans-serif" font-size="14" lengthAdjust="spacing" textLength="47" x="464.5" y="628.4707">Service</text><rect fill="#E2E2F0" height="31.6094" rx="2.5" ry="2.5" style="stroke:#181818;stroke-width:0.5;" width="85" x="555.5" y="5"/><text fill="#000000" font-family="sans-serif" font-size="14" lengthAdjust="spacing" textLength="71" x="562.5" y="26.5332">IRepository</text><rect fill="#E2E2F0" height="31.6094" rx="2.5" ry="2.5" style="stroke:#181818;stroke-width:0.5;" width="85" x="555.5" y="606.9375"/><text fill="#000000" font-family="sans-serif" font-size="14" lengthAdjust="spacing" textLength="71" x="562.5" y="628.4707">IRepository</text><rect fill="#E2E2F0" height="31.6094" rx="2.5" ry="2.5" style="stroke:#181818;stroke-width:0.5;" width="62" x="650.5" y="5"/><text fill="#000000" font-family="sans-serif" font-size="14" lengthAdjust="spacing" textLength="48" x="657.5" y="26.5332">Mapper</text><rect fill="#E2E2F0" height="31.6094" rx="2.5" ry="2.5" style="stroke:#181818;stroke-width:0.5;" width="62" x="650.5" y="606.9375"/><text fill="#000000" font-family="sans-serif" font-size="14" lengthAdjust="spacing" textLength="48" x="657.5" y="628.4707">Mapper</text><rect fill="#E2E2F0" height="31.6094" rx="2.5" ry="2.5" style="stroke:#181818;stroke-width:0.5;" width="62" x="773.5" y="5"/><text fill="#000000" font-family="sans-serif" font-size="14" lengthAdjust="spacing" textLength="48" x="780.5" y="26.5332">Domain</text><rect fill="#E2E2F0" height="31.6094" rx="2.5" ry="2.5" style="stroke:#181818;stroke-width:0.5;" width="62" x="773.5" y="606.9375"/><text fill="#000000" font-family="sans-serif" font-size="14" lengthAdjust="spacing" textLength="48" x="780.5" y="628.4707">Domain</text><rect fill="#E2E2F0" height="31.6094" rx="2.5" ry="2.5" style="stroke:#181818;stroke-width:0.5;" width="44" x="845.5" y="5"/><text fill="#000000" font-family="sans-serif" font-size="14" lengthAdjust="spacing" textLength="30" x="852.5" y="26.5332">DTO</text><rect fill="#E2E2F0" height="31.6094" rx="2.5" ry="2.5" style="stroke:#181818;stroke-width:0.5;" width="44" x="845.5" y="606.9375"/><text fill="#000000" font-family="sans-serif" font-size="14" lengthAdjust="spacing" textLength="30" x="852.5" y="628.4707">DTO</text><rect fill="#E2E2F0" height="31.6094" rx="2.5" ry="2.5" style="stroke:#181818;stroke-width:0.5;" width="89" x="899.5" y="5"/><text fill="#000000" font-family="sans-serif" font-size="14" lengthAdjust="spacing" textLength="75" x="906.5" y="26.5332">IUnitOfWork</text><rect fill="#E2E2F0" height="31.6094" rx="2.5" ry="2.5" style="stroke:#181818;stroke-width:0.5;" width="89" x="899.5" y="606.9375"/><text fill="#000000" font-family="sans-serif" font-size="14" lengthAdjust="spacing" textLength="75" x="906.5" y="628.4707">IUnitOfWork</text><rect fill="#FFFFFF" height="519.9766" style="stroke:#181818;stroke-width:1.0;" width="10" x="213" y="69.9609"/><rect fill="#FFFFFF" height="459.2734" style="stroke:#181818;stroke-width:1.0;" width="10" x="331" y="100.3125"/><rect fill="#FFFFFF" height="398.5703" style="stroke:#181818;stroke-width:1.0;" width="10" x="483" y="130.6641"/><rect fill="#FFFFFF" height="30.3516" style="stroke:#181818;stroke-width:1.0;" width="10" x="593" y="161.0156"/><rect fill="#FFFFFF" height="30.3516" style="stroke:#181818;stroke-width:1.0;" width="10" x="593" y="247.0703"/><rect fill="#FFFFFF" height="184.1094" style="stroke:#181818;stroke-width:1.0;" width="10" x="676.5" y="314.7734"/><rect fill="#FFFFFF" height="30.3516" style="stroke:#181818;stroke-width:1.0;" width="10" x="799.5" y="370.4766"/><rect fill="#FFFFFF" height="30.3516" style="stroke:#181818;stroke-width:1.0;" width="10" x="862.5" y="431.1797"/><polygon fill="#181818" points="201,65.9609,211,69.9609,201,73.9609,205,69.9609" style="stroke:#181818;stroke-width:1.0;"/><line style="stroke:#181818;stroke-width:1.0;" x1="0" x2="207" y1="69.9609" y2="69.9609"/><text fill="#000000" font-family="sans-serif" font-size="13" lengthAdjust="spacing" textLength="194" x="7" y="65.1045">HTTP GET /api/...?filters=filter&amp;...</text><polygon fill="#181818" points="319,96.3125,329,100.3125,319,104.3125,323,100.3125" style="stroke:#181818;stroke-width:1.0;"/><line style="stroke:#181818;stroke-width:1.0;" x1="223" x2="325" y1="100.3125" y2="100.3125"/><text fill="#000000" font-family="sans-serif" font-size="13" lengthAdjust="spacing" textLength="89" x="230" y="95.4561">Read(filters, ...)</text><polygon fill="#181818" points="471,126.6641,481,130.6641,471,134.6641,475,130.6641" style="stroke:#181818;stroke-width:1.0;"/><line style="stroke:#181818;stroke-width:1.0;" x1="341" x2="477" y1="130.6641" y2="130.6641"/><text fill="#000000" font-family="sans-serif" font-size="13" lengthAdjust="spacing" textLength="123" x="348" y="125.8076">GetFiltered(filters, ...)</text><polygon fill="#181818" points="581,157.0156,591,161.0156,581,165.0156,585,161.0156" style="stroke:#181818;stroke-width:1.0;"/><line style="stroke:#181818;stroke-width:1.0;" x1="493" x2="587" y1="161.0156" y2="161.0156"/><text fill="#000000" font-family="sans-serif" font-size="13" lengthAdjust="spacing" textLength="81" x="500" y="156.1592">GetAllAsync()</text><polygon fill="#181818" points="504,187.3672,494,191.3672,504,195.3672,500,191.3672" style="stroke:#181818;stroke-width:1.0;"/><line style="stroke:#181818;stroke-width:1.0;stroke-dasharray:2.0,2.0;" x1="498" x2="597" y1="191.3672" y2="191.3672"/><text fill="#000000" font-family="sans-serif" font-size="13" lengthAdjust="spacing" textLength="12" x="510" y="186.5107">...</text><path d="M447.5,206.3672 L520.5,206.3672 L520.5,214.7188 L510.5,224.7188 L447.5,224.7188 L447.5,206.3672 " fill="#EEEEEE" style="stroke:#000000;stroke-width:1.5;"/><rect fill="none" height="79.0547" style="stroke:#000000;stroke-width:1.5;" width="203" x="447.5" y="206.3672"/><text fill="#000000" font-family="sans-serif" font-size="13" font-weight="bold" lengthAdjust="spacing" textLength="28" x="462.5" y="220.8623">loop</text><text fill="#000000" font-family="sans-serif" font-size="11" font-weight="bold" lengthAdjust="spacing" textLength="85" x="535.5" y="219.7861">[for each filter:]</text><polygon fill="#181818" points="581,243.0703,591,247.0703,581,251.0703,585,247.0703" style="stroke:#181818;stroke-width:1.0;"/><line style="stroke:#181818;stroke-width:1.0;" x1="493" x2="587" y1="247.0703" y2="247.0703"/><text fill="#000000" font-family="sans-serif" font-size="13" lengthAdjust="spacing" textLength="49" x="500" y="242.2139">Filter(...)</text><polygon fill="#181818" points="504,273.4219,494,277.4219,504,281.4219,500,277.4219" style="stroke:#181818;stroke-width:1.0;"/><line style="stroke:#181818;stroke-width:1.0;stroke-dasharray:2.0,2.0;" x1="498" x2="597" y1="277.4219" y2="277.4219"/><text fill="#000000" font-family="sans-serif" font-size="13" lengthAdjust="spacing" textLength="12" x="510" y="272.5654">...</text><polygon fill="#181818" points="664.5,310.7734,674.5,314.7734,664.5,318.7734,668.5,314.7734" style="stroke:#181818;stroke-width:1.0;"/><line style="stroke:#181818;stroke-width:1.0;" x1="493" x2="670.5" y1="314.7734" y2="314.7734"/><text fill="#000000" font-family="sans-serif" font-size="13" lengthAdjust="spacing" textLength="60" x="500" y="309.917">ToDTO(...)</text><path d="M640.5,329.7734 L713.5,329.7734 L713.5,338.125 L703.5,348.125 L640.5,348.125 L640.5,329.7734 " fill="#EEEEEE" style="stroke:#000000;stroke-width:1.5;"/><rect fill="none" height="139.7578" style="stroke:#000000;stroke-width:1.5;" width="259" x="640.5" y="329.7734"/><text fill="#000000" font-family="sans-serif" font-size="13" font-weight="bold" lengthAdjust="spacing" textLength="28" x="655.5" y="344.2686">loop</text><text fill="#000000" font-family="sans-serif" font-size="11" font-weight="bold" lengthAdjust="spacing" textLength="106" x="728.5" y="343.1924">[for each attribute:]</text><polygon fill="#181818" points="787.5,366.4766,797.5,370.4766,787.5,374.4766,791.5,370.4766" style="stroke:#181818;stroke-width:1.0;"/><line style="stroke:#181818;stroke-width:1.0;" x1="686.5" x2="793.5" y1="370.4766" y2="370.4766"/><text fill="#000000" font-family="sans-serif" font-size="13" lengthAdjust="spacing" textLength="72" x="693.5" y="365.6201">Get attribute</text><polygon fill="#181818" points="697.5,396.8281,687.5,400.8281,697.5,404.8281,693.5,400.8281" style="stroke:#181818;stroke-width:1.0;"/><line style="stroke:#181818;stroke-width:1.0;stroke-dasharray:2.0,2.0;" x1="691.5" x2="803.5" y1="400.8281" y2="400.8281"/><text fill="#000000" font-family="sans-serif" font-size="13" lengthAdjust="spacing" textLength="89" x="703.5" y="395.9717">Return attribute</text><polygon fill="#181818" points="850.5,427.1797,860.5,431.1797,850.5,435.1797,854.5,431.1797" style="stroke:#181818;stroke-width:1.0;"/><line style="stroke:#181818;stroke-width:1.0;" x1="686.5" x2="856.5" y1="431.1797" y2="431.1797"/><text fill="#000000" font-family="sans-serif" font-size="13" lengthAdjust="spacing" textLength="71" x="693.5" y="426.3232">Set attribute</text><polygon fill="#181818" points="697.5,457.5313,687.5,461.5313,697.5,465.5313,693.5,461.5313" style="stroke:#181818;stroke-width:1.0;"/><line style="stroke:#181818;stroke-width:1.0;stroke-dasharray:2.0,2.0;" x1="691.5" x2="866.5" y1="461.5313" y2="461.5313"/><text fill="#000000" font-family="sans-serif" font-size="13" lengthAdjust="spacing" textLength="89" x="703.5" y="456.6748">Return attribute</text><polygon fill="#181818" points="504,494.8828,494,498.8828,504,502.8828,500,498.8828" style="stroke:#181818;stroke-width:1.0;"/><line style="stroke:#181818;stroke-width:1.0;stroke-dasharray:2.0,2.0;" x1="498" x2="680.5" y1="498.8828" y2="498.8828"/><text fill="#000000" font-family="sans-serif" font-size="13" lengthAdjust="spacing" textLength="18" x="510" y="494.0264">dto</text><polygon fill="#181818" points="352,525.2344,342,529.2344,352,533.2344,348,529.2344" style="stroke:#181818;stroke-width:1.0;"/><line style="stroke:#181818;stroke-width:1.0;stroke-dasharray:2.0,2.0;" x1="346" x2="487" y1="529.2344" y2="529.2344"/><text fill="#000000" font-family="sans-serif" font-size="13" lengthAdjust="spacing" textLength="18" x="358" y="524.3779">dto</text><polygon fill="#181818" points="234,555.5859,224,559.5859,234,563.5859,230,559.5859" style="stroke:#181818;stroke-width:1.0;"/><line style="stroke:#181818;stroke-width:1.0;stroke-dasharray:2.0,2.0;" x1="228" x2="335" y1="559.5859" y2="559.5859"/><text fill="#000000" font-family="sans-serif" font-size="13" lengthAdjust="spacing" textLength="43" x="240" y="554.7295">Ok(dto)</text><polygon fill="#181818" points="11,585.9375,1,589.9375,11,593.9375,7,589.9375" style="stroke:#181818;stroke-width:1.0;"/><line style="stroke:#181818;stroke-width:1.0;stroke-dasharray:2.0,2.0;" x1="5" x2="217" y1="589.9375" y2="589.9375"/><text fill="#000000" font-family="sans-serif" font-size="13" lengthAdjust="spacing" textLength="42" x="17" y="585.0811">200 Ok</text><!--SRC=[fPJ9RiCW48RlVWgKG-L8THBr67LHr2NjeNBbkEgPsgH5SG5X4Ybltp5W6xmqYiebEFFppGOZi5Gqem8pXIO9tolAlYO8byZk0-4AxZbJaXS5aLhJVlgo3P47cX6jiNjVy98GmKkgk3mQPysdhtl5GbXVPkkR7_WFfaoRpRPZJcDZI-EE-tT6LRpzu7Ad1Urd44ItTUfeYPxJz0sj7rCqnuBEPxFPtPOMYiZonlnUm5y1pXGzO4MQaWK8LWq1NbicG2O4vw6bN28uFzNo1kBKL1kgvG00PoiAh3LHJvf4Xf0Ujcv3OwbMJQfoRZfWkAkYM9L7beLJxqIRQzinJw1JRrcH5szLBLUOavEyWdE1jbmYa7uZa-GIzLoEPMBA4terEIkNi_8PpybL49QFji7SSa2d76vjF-w6RPz3pxrVBwoKf9zxHGPALYth3XoRzsDwtnuRFDJ4OD_SeAXQbXcvUIL4xIKxuS6fuLy-dEZJ6DYRCqA7aJ0UDz3-5pJGk-PUrzqCl5kLApxsIeQwtjoUxgHnEGwZDmdSwU9DltWN0iDSG0VGdL3NKUGSkbeiu63WFWCx5dy1]--></g></svg>