<?xml version="1.0" encoding="us-ascii" standalone="no"?><svg xmlns="http://www.w3.org/2000/svg" xmlns:xlink="http://www.w3.org/1999/xlink" contentStyleType="text/css" height="671px" preserveAspectRatio="none" style="width:1301px;height:671px;background:#FFFFFF;" version="1.1" viewBox="0 0 1301 671" width="1301px" zoomAndPan="magnify"><defs/><g><text fill="#000000" font-family="sans-serif" font-size="14" font-weight="bold" lengthAdjust="spacing" textLength="190" x="548.5" y="24.5332">Class Diagram (CD) - UC018</text><!--class OperationRequestController--><g id="elem_OperationRequestController"><rect codeLine="8" fill="#F1F1F1" height="100.8281" id="OperationRequestController" rx="2.5" ry="2.5" style="stroke:#181818;stroke-width:0.5;" width="535" x="617" y="45.6094"/><ellipse cx="791.25" cy="61.6094" fill="#ADD1B2" rx="11" ry="11" style="stroke:#181818;stroke-width:1.0;"/><path d="M794.0156,57.4844 Q794.1719,57.2656 794.3594,57.1563 Q794.5469,57.0469 794.7656,57.0469 Q795.1406,57.0469 795.375,57.3125 Q795.6094,57.5625 795.6094,58.1719 L795.6094,59.625 Q795.6094,60.2344 795.375,60.5 Q795.1406,60.7656 794.7656,60.7656 Q794.4219,60.7656 794.2188,60.5625 Q794.0156,60.375 793.9063,59.8594 Q793.8594,59.5 793.6719,59.3125 Q793.3438,58.9375 792.7344,58.7188 Q792.125,58.5 791.5,58.5 Q790.7344,58.5 790.0938,58.8281 Q789.4688,59.1563 788.9688,59.9063 Q788.4844,60.6563 788.4844,61.6875 L788.4844,62.7813 Q788.4844,64.0156 789.375,64.8438 Q790.2656,65.6563 791.8594,65.6563 Q792.7969,65.6563 793.4531,65.4063 Q793.8438,65.25 794.2656,64.8125 Q794.5313,64.5469 794.6719,64.4688 Q794.8281,64.3906 795.0313,64.3906 Q795.3594,64.3906 795.6094,64.6563 Q795.875,64.9063 795.875,65.25 Q795.875,65.5938 795.5313,66 Q795.0313,66.5781 794.2344,66.9063 Q793.1563,67.3594 791.8594,67.3594 Q790.3438,67.3594 789.1406,66.7344 Q788.1563,66.2344 787.4688,65.1719 Q786.7813,64.0938 786.7813,62.8125 L786.7813,61.6563 Q786.7813,60.3281 787.3906,59.1875 Q788.0156,58.0313 789.1094,57.4219 Q790.2031,56.7969 791.4375,56.7969 Q792.1719,56.7969 792.8125,56.9688 Q793.4688,57.125 794.0156,57.4844 Z " fill="#000000"/><text fill="#000000" font-family="sans-serif" font-size="14" lengthAdjust="spacing" textLength="178" x="811.75" y="67.3379">OperationRequestController</text><line style="stroke:#181818;stroke-width:0.5;" x1="618" x2="1151" y1="77.6094" y2="77.6094"/><text fill="#000000" font-family="sans-serif" font-size="14" lengthAdjust="spacing" textLength="332" x="623" y="96.1426">-OperationRequestService operationRequestService</text><line style="stroke:#181818;stroke-width:0.5;" x1="618" x2="1151" y1="103.2188" y2="103.2188"/><text fill="#000000" font-family="sans-serif" font-size="14" lengthAdjust="spacing" textLength="523" x="623" y="121.752">+OperationRequestController(OperationRequestService operationRequestService)</text><text fill="#000000" font-family="sans-serif" font-size="14" lengthAdjust="spacing" textLength="433" x="623" y="139.3613">+DeleteAsync(operationRequestDTO: OperationRequestDTO): Task</text></g><!--class OperationRequestService--><g id="elem_OperationRequestService"><rect codeLine="14" fill="#F1F1F1" height="118.4375" id="OperationRequestService" rx="2.5" ry="2.5" style="stroke:#181818;stroke-width:0.5;" width="766" x="225.5" y="224.6094"/><ellipse cx="522.75" cy="240.6094" fill="#ADD1B2" rx="11" ry="11" style="stroke:#181818;stroke-width:1.0;"/><path d="M525.5156,236.4844 Q525.6719,236.2656 525.8594,236.1563 Q526.0469,236.0469 526.2656,236.0469 Q526.6406,236.0469 526.875,236.3125 Q527.1094,236.5625 527.1094,237.1719 L527.1094,238.625 Q527.1094,239.2344 526.875,239.5 Q526.6406,239.7656 526.2656,239.7656 Q525.9219,239.7656 525.7188,239.5625 Q525.5156,239.375 525.4063,238.8594 Q525.3594,238.5 525.1719,238.3125 Q524.8438,237.9375 524.2344,237.7188 Q523.625,237.5 523,237.5 Q522.2344,237.5 521.5938,237.8281 Q520.9688,238.1563 520.4688,238.9063 Q519.9844,239.6563 519.9844,240.6875 L519.9844,241.7813 Q519.9844,243.0156 520.875,243.8438 Q521.7656,244.6563 523.3594,244.6563 Q524.2969,244.6563 524.9531,244.4063 Q525.3438,244.25 525.7656,243.8125 Q526.0313,243.5469 526.1719,243.4688 Q526.3281,243.3906 526.5313,243.3906 Q526.8594,243.3906 527.1094,243.6563 Q527.375,243.9063 527.375,244.25 Q527.375,244.5938 527.0313,245 Q526.5313,245.5781 525.7344,245.9063 Q524.6563,246.3594 523.3594,246.3594 Q521.8438,246.3594 520.6406,245.7344 Q519.6563,245.2344 518.9688,244.1719 Q518.2813,243.0938 518.2813,241.8125 L518.2813,240.6563 Q518.2813,239.3281 518.8906,238.1875 Q519.5156,237.0313 520.6094,236.4219 Q521.7031,235.7969 522.9375,235.7969 Q523.6719,235.7969 524.3125,235.9688 Q524.9688,236.125 525.5156,236.4844 Z " fill="#000000"/><text fill="#000000" font-family="sans-serif" font-size="14" lengthAdjust="spacing" textLength="163" x="543.25" y="246.3379">OperationRequestService</text><line style="stroke:#181818;stroke-width:0.5;" x1="226.5" x2="990.5" y1="256.6094" y2="256.6094"/><text fill="#000000" font-family="sans-serif" font-size="14" lengthAdjust="spacing" textLength="374" x="231.5" y="275.1426">-OperationRequestRepository operationRequestRepository</text><text fill="#000000" font-family="sans-serif" font-size="14" lengthAdjust="spacing" textLength="201" x="231.5" y="292.752">-StaffRepository staffRepository</text><line style="stroke:#181818;stroke-width:0.5;" x1="226.5" x2="990.5" y1="299.8281" y2="299.8281"/><text fill="#000000" font-family="sans-serif" font-size="14" lengthAdjust="spacing" textLength="754" x="231.5" y="318.3613">+OperationRequestService(OperationRequestRepository operationRequestRepository, StaffRepository staffRepository)</text><text fill="#000000" font-family="sans-serif" font-size="14" lengthAdjust="spacing" textLength="305" x="231.5" y="335.9707">+DeleteAsync(operationRequestID: string): Task</text></g><!--class OperationRequestDTO--><g id="elem_OperationRequestDTO"><rect codeLine="21" fill="#F1F1F1" height="83.2188" id="OperationRequestDTO" rx="2.5" ry="2.5" style="stroke:#181818;stroke-width:0.5;" width="345" x="7" y="420.6094"/><ellipse cx="102.25" cy="436.6094" fill="#ADD1B2" rx="11" ry="11" style="stroke:#181818;stroke-width:1.0;"/><path d="M105.0156,432.4844 Q105.1719,432.2656 105.3594,432.1563 Q105.5469,432.0469 105.7656,432.0469 Q106.1406,432.0469 106.375,432.3125 Q106.6094,432.5625 106.6094,433.1719 L106.6094,434.625 Q106.6094,435.2344 106.375,435.5 Q106.1406,435.7656 105.7656,435.7656 Q105.4219,435.7656 105.2188,435.5625 Q105.0156,435.375 104.9063,434.8594 Q104.8594,434.5 104.6719,434.3125 Q104.3438,433.9375 103.7344,433.7188 Q103.125,433.5 102.5,433.5 Q101.7344,433.5 101.0938,433.8281 Q100.4688,434.1563 99.9688,434.9063 Q99.4844,435.6563 99.4844,436.6875 L99.4844,437.7813 Q99.4844,439.0156 100.375,439.8438 Q101.2656,440.6563 102.8594,440.6563 Q103.7969,440.6563 104.4531,440.4063 Q104.8438,440.25 105.2656,439.8125 Q105.5313,439.5469 105.6719,439.4688 Q105.8281,439.3906 106.0313,439.3906 Q106.3594,439.3906 106.6094,439.6563 Q106.875,439.9063 106.875,440.25 Q106.875,440.5938 106.5313,441 Q106.0313,441.5781 105.2344,441.9063 Q104.1563,442.3594 102.8594,442.3594 Q101.3438,442.3594 100.1406,441.7344 Q99.1563,441.2344 98.4688,440.1719 Q97.7813,439.0938 97.7813,437.8125 L97.7813,436.6563 Q97.7813,435.3281 98.3906,434.1875 Q99.0156,433.0313 100.1094,432.4219 Q101.2031,431.7969 102.4375,431.7969 Q103.1719,431.7969 103.8125,431.9688 Q104.4688,432.125 105.0156,432.4844 Z " fill="#000000"/><text fill="#000000" font-family="sans-serif" font-size="14" lengthAdjust="spacing" textLength="146" x="122.75" y="442.3379">OperationRequestDTO</text><line style="stroke:#181818;stroke-width:0.5;" x1="8" x2="351" y1="452.6094" y2="452.6094"/><text fill="#000000" font-family="sans-serif" font-size="14" lengthAdjust="spacing" textLength="174" x="13" y="471.1426">-operationRequestID: string</text><line style="stroke:#181818;stroke-width:0.5;" x1="8" x2="351" y1="478.2188" y2="478.2188"/><text fill="#000000" font-family="sans-serif" font-size="14" lengthAdjust="spacing" textLength="333" x="13" y="496.752">+OperationRequestDTO(operationRequestID: string)</text></g><!--class OperationRequestRepository--><g id="elem_OperationRequestRepository"><rect codeLine="26" fill="#F1F1F1" height="83.2188" id="OperationRequestRepository" rx="2.5" ry="2.5" style="stroke:#181818;stroke-width:0.5;" width="442" x="387.5" y="420.6094"/><ellipse cx="512.25" cy="436.6094" fill="#ADD1B2" rx="11" ry="11" style="stroke:#181818;stroke-width:1.0;"/><path d="M515.0156,432.4844 Q515.1719,432.2656 515.3594,432.1563 Q515.5469,432.0469 515.7656,432.0469 Q516.1406,432.0469 516.375,432.3125 Q516.6094,432.5625 516.6094,433.1719 L516.6094,434.625 Q516.6094,435.2344 516.375,435.5 Q516.1406,435.7656 515.7656,435.7656 Q515.4219,435.7656 515.2188,435.5625 Q515.0156,435.375 514.9063,434.8594 Q514.8594,434.5 514.6719,434.3125 Q514.3438,433.9375 513.7344,433.7188 Q513.125,433.5 512.5,433.5 Q511.7344,433.5 511.0938,433.8281 Q510.4688,434.1563 509.9688,434.9063 Q509.4844,435.6563 509.4844,436.6875 L509.4844,437.7813 Q509.4844,439.0156 510.375,439.8438 Q511.2656,440.6563 512.8594,440.6563 Q513.7969,440.6563 514.4531,440.4063 Q514.8438,440.25 515.2656,439.8125 Q515.5313,439.5469 515.6719,439.4688 Q515.8281,439.3906 516.0313,439.3906 Q516.3594,439.3906 516.6094,439.6563 Q516.875,439.9063 516.875,440.25 Q516.875,440.5938 516.5313,441 Q516.0313,441.5781 515.2344,441.9063 Q514.1563,442.3594 512.8594,442.3594 Q511.3438,442.3594 510.1406,441.7344 Q509.1563,441.2344 508.4688,440.1719 Q507.7813,439.0938 507.7813,437.8125 L507.7813,436.6563 Q507.7813,435.3281 508.3906,434.1875 Q509.0156,433.0313 510.1094,432.4219 Q511.2031,431.7969 512.4375,431.7969 Q513.1719,431.7969 513.8125,431.9688 Q514.4688,432.125 515.0156,432.4844 Z " fill="#000000"/><text fill="#000000" font-family="sans-serif" font-size="14" lengthAdjust="spacing" textLength="184" x="532.75" y="442.3379">OperationRequestRepository</text><line style="stroke:#181818;stroke-width:0.5;" x1="388.5" x2="828.5" y1="452.6094" y2="452.6094"/><line style="stroke:#181818;stroke-width:0.5;" x1="388.5" x2="828.5" y1="460.6094" y2="460.6094"/><text fill="#000000" font-family="sans-serif" font-size="14" lengthAdjust="spacing" textLength="430" x="393.5" y="479.1426">+GetOperationRequestAsync(staff: Staff): Task&lt;OperationRequest&gt;</text><text fill="#000000" font-family="sans-serif" font-size="14" lengthAdjust="spacing" textLength="373" x="393.5" y="496.752">+DeleteAsync(operationRequest: OperationRequest): Task</text></g><!--class StaffRepository--><g id="elem_StaffRepository"><rect codeLine="31" fill="#F1F1F1" height="65.6094" id="StaffRepository" rx="2.5" ry="2.5" style="stroke:#181818;stroke-width:0.5;" width="285" x="865" y="429.1094"/><ellipse cx="954.75" cy="445.1094" fill="#ADD1B2" rx="11" ry="11" style="stroke:#181818;stroke-width:1.0;"/><path d="M957.5156,440.9844 Q957.6719,440.7656 957.8594,440.6563 Q958.0469,440.5469 958.2656,440.5469 Q958.6406,440.5469 958.875,440.8125 Q959.1094,441.0625 959.1094,441.6719 L959.1094,443.125 Q959.1094,443.7344 958.875,444 Q958.6406,444.2656 958.2656,444.2656 Q957.9219,444.2656 957.7188,444.0625 Q957.5156,443.875 957.4063,443.3594 Q957.3594,443 957.1719,442.8125 Q956.8438,442.4375 956.2344,442.2188 Q955.625,442 955,442 Q954.2344,442 953.5938,442.3281 Q952.9688,442.6563 952.4688,443.4063 Q951.9844,444.1563 951.9844,445.1875 L951.9844,446.2813 Q951.9844,447.5156 952.875,448.3438 Q953.7656,449.1563 955.3594,449.1563 Q956.2969,449.1563 956.9531,448.9063 Q957.3438,448.75 957.7656,448.3125 Q958.0313,448.0469 958.1719,447.9688 Q958.3281,447.8906 958.5313,447.8906 Q958.8594,447.8906 959.1094,448.1563 Q959.375,448.4063 959.375,448.75 Q959.375,449.0938 959.0313,449.5 Q958.5313,450.0781 957.7344,450.4063 Q956.6563,450.8594 955.3594,450.8594 Q953.8438,450.8594 952.6406,450.2344 Q951.6563,449.7344 950.9688,448.6719 Q950.2813,447.5938 950.2813,446.3125 L950.2813,445.1563 Q950.2813,443.8281 950.8906,442.6875 Q951.5156,441.5313 952.6094,440.9219 Q953.7031,440.2969 954.9375,440.2969 Q955.6719,440.2969 956.3125,440.4688 Q956.9688,440.625 957.5156,440.9844 Z " fill="#000000"/><text fill="#000000" font-family="sans-serif" font-size="14" lengthAdjust="spacing" textLength="97" x="975.25" y="450.8379">StaffRepository</text><line style="stroke:#181818;stroke-width:0.5;" x1="866" x2="1149" y1="461.1094" y2="461.1094"/><line style="stroke:#181818;stroke-width:0.5;" x1="866" x2="1149" y1="469.1094" y2="469.1094"/><text fill="#000000" font-family="sans-serif" font-size="14" lengthAdjust="spacing" textLength="273" x="871" y="487.6426">+GetStaffAsync(staffId: string): Task&lt;Staff&gt;</text></g><!--class Staff--><g id="elem_Staff"><rect codeLine="35" fill="#F1F1F1" height="83.2188" id="Staff" rx="2.5" ry="2.5" style="stroke:#181818;stroke-width:0.5;" width="140" x="869.5" y="581.6094"/><ellipse cx="920.75" cy="597.6094" fill="#ADD1B2" rx="11" ry="11" style="stroke:#181818;stroke-width:1.0;"/><path d="M923.5156,593.4844 Q923.6719,593.2656 923.8594,593.1563 Q924.0469,593.0469 924.2656,593.0469 Q924.6406,593.0469 924.875,593.3125 Q925.1094,593.5625 925.1094,594.1719 L925.1094,595.625 Q925.1094,596.2344 924.875,596.5 Q924.6406,596.7656 924.2656,596.7656 Q923.9219,596.7656 923.7188,596.5625 Q923.5156,596.375 923.4063,595.8594 Q923.3594,595.5 923.1719,595.3125 Q922.8438,594.9375 922.2344,594.7188 Q921.625,594.5 921,594.5 Q920.2344,594.5 919.5938,594.8281 Q918.9688,595.1563 918.4688,595.9063 Q917.9844,596.6563 917.9844,597.6875 L917.9844,598.7813 Q917.9844,600.0156 918.875,600.8438 Q919.7656,601.6563 921.3594,601.6563 Q922.2969,601.6563 922.9531,601.4063 Q923.3438,601.25 923.7656,600.8125 Q924.0313,600.5469 924.1719,600.4688 Q924.3281,600.3906 924.5313,600.3906 Q924.8594,600.3906 925.1094,600.6563 Q925.375,600.9063 925.375,601.25 Q925.375,601.5938 925.0313,602 Q924.5313,602.5781 923.7344,602.9063 Q922.6563,603.3594 921.3594,603.3594 Q919.8438,603.3594 918.6406,602.7344 Q917.6563,602.2344 916.9688,601.1719 Q916.2813,600.0938 916.2813,598.8125 L916.2813,597.6563 Q916.2813,596.3281 916.8906,595.1875 Q917.5156,594.0313 918.6094,593.4219 Q919.7031,592.7969 920.9375,592.7969 Q921.6719,592.7969 922.3125,592.9688 Q922.9688,593.125 923.5156,593.4844 Z " fill="#000000"/><text fill="#000000" font-family="sans-serif" font-size="14" lengthAdjust="spacing" textLength="29" x="941.25" y="603.3379">Staff</text><line style="stroke:#181818;stroke-width:0.5;" x1="870.5" x2="1008.5" y1="613.6094" y2="613.6094"/><text fill="#000000" font-family="sans-serif" font-size="14" lengthAdjust="spacing" textLength="86" x="875.5" y="632.1426">-staffId: string</text><line style="stroke:#181818;stroke-width:0.5;" x1="870.5" x2="1008.5" y1="639.2188" y2="639.2188"/><text fill="#000000" font-family="sans-serif" font-size="14" lengthAdjust="spacing" textLength="128" x="875.5" y="657.752">+Staff(staffId: string)</text></g><!--class OperationRequest--><g id="elem_OperationRequest"><rect codeLine="40" fill="#F1F1F1" height="83.2188" id="OperationRequest" rx="2.5" ry="2.5" style="stroke:#181818;stroke-width:0.5;" width="315" x="451" y="581.6094"/><ellipse cx="546.25" cy="597.6094" fill="#ADD1B2" rx="11" ry="11" style="stroke:#181818;stroke-width:1.0;"/><path d="M549.0156,593.4844 Q549.1719,593.2656 549.3594,593.1563 Q549.5469,593.0469 549.7656,593.0469 Q550.1406,593.0469 550.375,593.3125 Q550.6094,593.5625 550.6094,594.1719 L550.6094,595.625 Q550.6094,596.2344 550.375,596.5 Q550.1406,596.7656 549.7656,596.7656 Q549.4219,596.7656 549.2188,596.5625 Q549.0156,596.375 548.9063,595.8594 Q548.8594,595.5 548.6719,595.3125 Q548.3438,594.9375 547.7344,594.7188 Q547.125,594.5 546.5,594.5 Q545.7344,594.5 545.0938,594.8281 Q544.4688,595.1563 543.9688,595.9063 Q543.4844,596.6563 543.4844,597.6875 L543.4844,598.7813 Q543.4844,600.0156 544.375,600.8438 Q545.2656,601.6563 546.8594,601.6563 Q547.7969,601.6563 548.4531,601.4063 Q548.8438,601.25 549.2656,600.8125 Q549.5313,600.5469 549.6719,600.4688 Q549.8281,600.3906 550.0313,600.3906 Q550.3594,600.3906 550.6094,600.6563 Q550.875,600.9063 550.875,601.25 Q550.875,601.5938 550.5313,602 Q550.0313,602.5781 549.2344,602.9063 Q548.1563,603.3594 546.8594,603.3594 Q545.3438,603.3594 544.1406,602.7344 Q543.1563,602.2344 542.4688,601.1719 Q541.7813,600.0938 541.7813,598.8125 L541.7813,597.6563 Q541.7813,596.3281 542.3906,595.1875 Q543.0156,594.0313 544.1094,593.4219 Q545.2031,592.7969 546.4375,592.7969 Q547.1719,592.7969 547.8125,592.9688 Q548.4688,593.125 549.0156,593.4844 Z " fill="#000000"/><text fill="#000000" font-family="sans-serif" font-size="14" lengthAdjust="spacing" textLength="116" x="566.75" y="603.3379">OperationRequest</text><line style="stroke:#181818;stroke-width:0.5;" x1="452" x2="765" y1="613.6094" y2="613.6094"/><text fill="#000000" font-family="sans-serif" font-size="14" lengthAdjust="spacing" textLength="174" x="457" y="632.1426">-operationRequestID: string</text><line style="stroke:#181818;stroke-width:0.5;" x1="452" x2="765" y1="639.2188" y2="639.2188"/><text fill="#000000" font-family="sans-serif" font-size="14" lengthAdjust="spacing" textLength="303" x="457" y="657.752">+OperationRequest(operationRequestID: string)</text></g><!--class AuthenticationService--><g id="elem_AuthenticationService"><rect codeLine="45" fill="#F1F1F1" height="65.6094" id="AuthenticationService" rx="2.5" ry="2.5" style="stroke:#181818;stroke-width:0.5;" width="267" x="1027" y="250.6094"/><ellipse cx="1087.75" cy="266.6094" fill="#ADD1B2" rx="11" ry="11" style="stroke:#181818;stroke-width:1.0;"/><path d="M1090.5156,262.4844 Q1090.6719,262.2656 1090.8594,262.1563 Q1091.0469,262.0469 1091.2656,262.0469 Q1091.6406,262.0469 1091.875,262.3125 Q1092.1094,262.5625 1092.1094,263.1719 L1092.1094,264.625 Q1092.1094,265.2344 1091.875,265.5 Q1091.6406,265.7656 1091.2656,265.7656 Q1090.9219,265.7656 1090.7188,265.5625 Q1090.5156,265.375 1090.4063,264.8594 Q1090.3594,264.5 1090.1719,264.3125 Q1089.8438,263.9375 1089.2344,263.7188 Q1088.625,263.5 1088,263.5 Q1087.2344,263.5 1086.5938,263.8281 Q1085.9688,264.1563 1085.4688,264.9063 Q1084.9844,265.6563 1084.9844,266.6875 L1084.9844,267.7813 Q1084.9844,269.0156 1085.875,269.8438 Q1086.7656,270.6563 1088.3594,270.6563 Q1089.2969,270.6563 1089.9531,270.4063 Q1090.3438,270.25 1090.7656,269.8125 Q1091.0313,269.5469 1091.1719,269.4688 Q1091.3281,269.3906 1091.5313,269.3906 Q1091.8594,269.3906 1092.1094,269.6563 Q1092.375,269.9063 1092.375,270.25 Q1092.375,270.5938 1092.0313,271 Q1091.5313,271.5781 1090.7344,271.9063 Q1089.6563,272.3594 1088.3594,272.3594 Q1086.8438,272.3594 1085.6406,271.7344 Q1084.6563,271.2344 1083.9688,270.1719 Q1083.2813,269.0938 1083.2813,267.8125 L1083.2813,266.6563 Q1083.2813,265.3281 1083.8906,264.1875 Q1084.5156,263.0313 1085.6094,262.4219 Q1086.7031,261.7969 1087.9375,261.7969 Q1088.6719,261.7969 1089.3125,261.9688 Q1089.9688,262.125 1090.5156,262.4844 Z " fill="#000000"/><text fill="#000000" font-family="sans-serif" font-size="14" lengthAdjust="spacing" textLength="137" x="1108.25" y="272.3379">AuthenticationService</text><line style="stroke:#181818;stroke-width:0.5;" x1="1028" x2="1293" y1="282.6094" y2="282.6094"/><line style="stroke:#181818;stroke-width:0.5;" x1="1028" x2="1293" y1="290.6094" y2="290.6094"/><text fill="#000000" font-family="sans-serif" font-size="14" lengthAdjust="spacing" textLength="255" x="1033" y="309.1426">+AuthenticateAsync(staffId: string): Task</text></g><!--link OperationRequestController to OperationRequestService--><g id="link_OperationRequestController_OperationRequestService"><path codeLine="49" d="M810.54,146.8194 C774.93,170.7494 736.9901,196.2529 699.8901,221.1829 " fill="none" id="OperationRequestController-to-OperationRequestService" style="stroke:#181818;stroke-width:1.0;"/><polygon fill="#181818" points="694.91,224.5294,704.6111,222.8297,699.0601,221.7407,700.1492,216.1896,694.91,224.5294" style="stroke:#181818;stroke-width:1.0;"/><text fill="#000000" font-family="sans-serif" font-size="13" lengthAdjust="spacing" textLength="42" x="764.5" y="191.1045">&#171;uses&#187;</text></g><!--link OperationRequestController to AuthenticationService--><g id="link_OperationRequestController_AuthenticationService"><path codeLine="50" d="M958.46,146.8194 C1007.48,179.7694 1065.3804,218.6723 1107.8704,247.2323 " fill="none" id="OperationRequestController-to-AuthenticationService" style="stroke:#181818;stroke-width:1.0;"/><polygon fill="#181818" points="1112.85,250.5794,1107.6119,242.2389,1108.7003,247.7901,1103.1491,248.8785,1112.85,250.5794" style="stroke:#181818;stroke-width:1.0;"/><text fill="#000000" font-family="sans-serif" font-size="13" lengthAdjust="spacing" textLength="42" x="1023.5" y="191.1045">&#171;uses&#187;</text></g><!--link OperationRequestService to OperationRequestRepository--><g id="link_OperationRequestService_OperationRequestRepository"><path codeLine="51" d="M608.5,342.8894 C608.5,368.2994 608.5,391.4594 608.5,414.4594 " fill="none" id="OperationRequestService-to-OperationRequestRepository" style="stroke:#181818;stroke-width:1.0;"/><polygon fill="#181818" points="608.5,420.4594,612.5,411.4594,608.5,415.4594,604.5,411.4594,608.5,420.4594" style="stroke:#181818;stroke-width:1.0;"/><text fill="#000000" font-family="sans-serif" font-size="13" lengthAdjust="spacing" textLength="42" x="609.5" y="387.1045">&#171;uses&#187;</text></g><!--link OperationRequestService to StaffRepository--><g id="link_OperationRequestService_StaffRepository"><path codeLine="52" d="M739.7,342.6494 C804.66,371.3794 875.1229,402.5521 929.5129,426.6121 " fill="none" id="OperationRequestService-to-StaffRepository" style="stroke:#181818;stroke-width:1.0;"/><polygon fill="#181818" points="935,429.0394,928.3875,421.7404,930.4274,427.0166,925.1512,429.0565,935,429.0394" style="stroke:#181818;stroke-width:1.0;"/><text fill="#000000" font-family="sans-serif" font-size="13" lengthAdjust="spacing" textLength="42" x="845.5" y="387.1045">&#171;uses&#187;</text></g><!--link OperationRequestService to OperationRequestDTO--><g id="link_OperationRequestService_OperationRequestDTO"><path codeLine="53" d="M467.44,342.6494 C405.53,368.1194 339.8889,395.1269 283.7789,418.2069 " fill="none" id="OperationRequestService-to-OperationRequestDTO" style="stroke:#181818;stroke-width:1.0;"/><polygon fill="#181818" points="278.23,420.4894,288.075,420.765,282.8541,418.5873,285.0317,413.3664,278.23,420.4894" style="stroke:#181818;stroke-width:1.0;"/><text fill="#000000" font-family="sans-serif" font-size="13" lengthAdjust="spacing" textLength="42" x="395.5" y="387.1045">&#171;uses&#187;</text></g><!--link OperationRequestRepository to Staff--><g id="link_OperationRequestRepository_Staff"><path codeLine="54" d="M692.88,503.6394 C747.47,529.8694 812.2917,561.0012 863.8317,585.7612 " fill="none" id="OperationRequestRepository-to-Staff" style="stroke:#181818;stroke-width:1.0;"/><polygon fill="#181818" points="869.24,588.3594,862.8597,580.8566,864.7331,586.1942,859.3955,588.0677,869.24,588.3594" style="stroke:#181818;stroke-width:1.0;"/><text fill="#000000" font-family="sans-serif" font-size="13" lengthAdjust="spacing" textLength="42" x="785.5" y="548.1045">&#171;uses&#187;</text></g><!--link OperationRequestRepository to OperationRequest--><g id="link_OperationRequestRepository_OperationRequest"><path codeLine="55" d="M608.5,503.6394 C608.5,527.4694 608.5,551.5094 608.5,575.3694 " fill="none" id="OperationRequestRepository-to-OperationRequest" style="stroke:#181818;stroke-width:1.0;"/><polygon fill="#181818" points="608.5,581.3694,612.5,572.3694,608.5,576.3694,604.5,572.3694,608.5,581.3694" style="stroke:#181818;stroke-width:1.0;"/><text fill="#000000" font-family="sans-serif" font-size="13" lengthAdjust="spacing" textLength="42" x="609.5" y="548.1045">&#171;uses&#187;</text></g><!--link StaffRepository to Staff--><g id="link_StaffRepository_Staff"><path codeLine="56" d="M993.74,495.2894 C983.11,520.1494 970.6795,549.2028 959.2295,575.9728 " fill="none" id="StaffRepository-to-Staff" style="stroke:#181818;stroke-width:1.0;"/><polygon fill="#181818" points="956.87,581.4894,964.087,574.7875,958.8363,576.8922,956.7316,571.6415,956.87,581.4894" style="stroke:#181818;stroke-width:1.0;"/><text fill="#000000" font-family="sans-serif" font-size="13" lengthAdjust="spacing" textLength="42" x="977.5" y="548.1045">&#171;uses&#187;</text></g><!--SRC=[dLJTRe8m5BxlK_GIuqZStK88YO5aySf4t0DqU6IDh6NjOOjRzkv34CL2WSaTFTzFpzVJwWCNELFidUOiER0KOZncG1Kao4IQ0T4NW7vZE_d5HKhtBDD0MgKaOrel4HL_BH1MYHGn_mQw80GvbdBXgKuZpj8JsWcZ6NNfIxXuV2Aauj9r3eeXbs837mLe3AL09RCC5FqXjFnS4n63-kG9KDc_Nf7cTbdddtgpMZ22312M-YWInqH6sxNNQQHSd7bqo_I1_DgQRQmjdMuWbvgZLCVEvgwbcXeZs-zRU7txtn_AsTwvo_U1ZdXE26uLUILBbQCr6bKPPnEJNQM_pP8wv6ptRFLMMy-V0KrGtLdLkrT7Skx5Dv71U23TCUe4OwP-tLbLQMrdjJFIzIj4O6WriHgSMhP2TEJiaTrxHjCEQ5dW6mZaIOMylJtpLX66KZZ93RmwhXlOxgb7VR_Ge8DWJA1_etH0eC7qsLzFUwA0CIDtsbRFcfNP6i6BvNJukZFu5wOvu7tgVm00]--></g></svg>