<?xml version="1.0" encoding="us-ascii" standalone="no"?><svg xmlns="http://www.w3.org/2000/svg" xmlns:xlink="http://www.w3.org/1999/xlink" contentStyleType="text/css" height="864px" preserveAspectRatio="none" style="width:2126px;height:864px;background:#FFFFFF;" version="1.1" viewBox="0 0 2126 864" width="2126px" zoomAndPan="magnify"><defs/><g><text fill="#000000" font-family="sans-serif" font-size="14" font-weight="bold" lengthAdjust="spacing" textLength="231" x="946.5" y="29.5332">Sequence Diagram (SSD) - UC018</text><rect fill="#FFFFFF" height="575.625" style="stroke:#181818;stroke-width:1.0;" width="10" x="272" y="173.5313"/><rect fill="#FFFFFF" height="30.3516" style="stroke:#181818;stroke-width:1.0;" width="10" x="584" y="203.8828"/><rect fill="#FFFFFF" height="454.2188" style="stroke:#181818;stroke-width:1.0;" width="10" x="729.5" y="264.5859"/><rect fill="#FFFFFF" height="30.3516" style="stroke:#181818;stroke-width:1.0;" width="10" x="1141.5" y="658.1016"/><rect fill="#FFFFFF" height="90.7031" style="stroke:#181818;stroke-width:1.0;" width="10" x="1326.5" y="415.9922"/><rect fill="#FFFFFF" height="90.7031" style="stroke:#181818;stroke-width:1.0;" width="10" x="1326.5" y="537.0469"/><rect fill="#FFFFFF" height="30" style="stroke:#181818;stroke-width:1.0;" width="10" x="1558" y="446.3438"/><rect fill="#FFFFFF" height="30" style="stroke:#181818;stroke-width:1.0;" width="10" x="1558" y="567.3984"/><rect fill="#FFFFFF" height="90.7031" style="stroke:#181818;stroke-width:1.0;" width="10" x="1746" y="294.9375"/><rect fill="#FFFFFF" height="30" style="stroke:#181818;stroke-width:1.0;" width="10" x="2032" y="325.2891"/><line style="stroke:#181818;stroke-width:0.5;stroke-dasharray:5.0,5.0;" x1="277" x2="277" y1="124.8281" y2="767.1563"/><line style="stroke:#181818;stroke-width:0.5;stroke-dasharray:5.0,5.0;" x1="589" x2="589" y1="124.8281" y2="767.1563"/><line style="stroke:#181818;stroke-width:0.5;stroke-dasharray:5.0,5.0;" x1="734" x2="734" y1="124.8281" y2="767.1563"/><line style="stroke:#181818;stroke-width:0.5;stroke-dasharray:5.0,5.0;" x1="1146.5" x2="1146.5" y1="124.8281" y2="767.1563"/><line style="stroke:#181818;stroke-width:0.5;stroke-dasharray:5.0,5.0;" x1="1331.5" x2="1331.5" y1="124.8281" y2="767.1563"/><line style="stroke:#181818;stroke-width:0.5;stroke-dasharray:5.0,5.0;" x1="1562.5" x2="1562.5" y1="124.8281" y2="767.1563"/><line style="stroke:#181818;stroke-width:0.5;stroke-dasharray:5.0,5.0;" x1="1750.5" x2="1750.5" y1="124.8281" y2="767.1563"/><line style="stroke:#181818;stroke-width:0.5;stroke-dasharray:5.0,5.0;" x1="2037" x2="2037" y1="124.8281" y2="767.1563"/><rect fill="#E3E3E3" height="49.2188" rx="2.5" ry="2.5" style="stroke:#181818;stroke-width:0.5;" width="192" x="181" y="74.6094"/><text fill="#000000" font-family="sans-serif" font-size="14" font-style="italic" lengthAdjust="spacing" textLength="75" x="239.5" y="96.1426">&#171;controller&#187;</text><text fill="#000000" font-family="sans-serif" font-size="14" lengthAdjust="spacing" textLength="178" x="188" y="113.752">OperationRequestController</text><rect fill="#E3E3E3" height="49.2188" rx="2.5" ry="2.5" style="stroke:#181818;stroke-width:0.5;" width="192" x="181" y="766.1563"/><text fill="#000000" font-family="sans-serif" font-size="14" font-style="italic" lengthAdjust="spacing" textLength="75" x="239.5" y="787.6895">&#171;controller&#187;</text><text fill="#000000" font-family="sans-serif" font-size="14" lengthAdjust="spacing" textLength="178" x="188" y="805.2988">OperationRequestController</text><rect fill="#E3E3E3" height="49.2188" rx="2.5" ry="2.5" style="stroke:#181818;stroke-width:0.5;" width="94" x="542" y="74.6094"/><text fill="#000000" font-family="sans-serif" font-size="14" font-style="italic" lengthAdjust="spacing" textLength="60" x="559" y="96.1426">&#171;service&#187;</text><text fill="#000000" font-family="sans-serif" font-size="14" lengthAdjust="spacing" textLength="80" x="549" y="113.752">:AuthService</text><rect fill="#E3E3E3" height="49.2188" rx="2.5" ry="2.5" style="stroke:#181818;stroke-width:0.5;" width="94" x="542" y="766.1563"/><text fill="#000000" font-family="sans-serif" font-size="14" font-style="italic" lengthAdjust="spacing" textLength="60" x="559" y="787.6895">&#171;service&#187;</text><text fill="#000000" font-family="sans-serif" font-size="14" lengthAdjust="spacing" textLength="80" x="549" y="805.2988">:AuthService</text><rect fill="#E3E3E3" height="49.2188" rx="2.5" ry="2.5" style="stroke:#181818;stroke-width:0.5;" width="177" x="646" y="74.6094"/><text fill="#000000" font-family="sans-serif" font-size="14" font-style="italic" lengthAdjust="spacing" textLength="60" x="704.5" y="96.1426">&#171;service&#187;</text><text fill="#000000" font-family="sans-serif" font-size="14" lengthAdjust="spacing" textLength="163" x="653" y="113.752">OperationRequestService</text><rect fill="#E3E3E3" height="49.2188" rx="2.5" ry="2.5" style="stroke:#181818;stroke-width:0.5;" width="177" x="646" y="766.1563"/><text fill="#000000" font-family="sans-serif" font-size="14" font-style="italic" lengthAdjust="spacing" textLength="60" x="704.5" y="787.6895">&#171;service&#187;</text><text fill="#000000" font-family="sans-serif" font-size="14" lengthAdjust="spacing" textLength="163" x="653" y="805.2988">OperationRequestService</text><rect fill="#E3E3E3" height="49.2188" rx="2.5" ry="2.5" style="stroke:#181818;stroke-width:0.5;" width="160" x="1066.5" y="74.6094"/><text fill="#000000" font-family="sans-serif" font-size="14" font-style="italic" lengthAdjust="spacing" textLength="36" x="1128.5" y="96.1426">&#171;dto&#187;</text><text fill="#000000" font-family="sans-serif" font-size="14" lengthAdjust="spacing" textLength="146" x="1073.5" y="113.752">OperationRequestDTO</text><rect fill="#E3E3E3" height="49.2188" rx="2.5" ry="2.5" style="stroke:#181818;stroke-width:0.5;" width="160" x="1066.5" y="766.1563"/><text fill="#000000" font-family="sans-serif" font-size="14" font-style="italic" lengthAdjust="spacing" textLength="36" x="1128.5" y="787.6895">&#171;dto&#187;</text><text fill="#000000" font-family="sans-serif" font-size="14" lengthAdjust="spacing" textLength="146" x="1073.5" y="805.2988">OperationRequestDTO</text><text fill="#000000" font-family="sans-serif" font-size="14" font-style="italic" lengthAdjust="spacing" textLength="79" x="1289" y="104.1426">&#171;repository&#187;</text><text fill="#000000" font-family="sans-serif" font-size="14" lengthAdjust="spacing" textLength="184" x="1236.5" y="121.752">OperationRequestRepository</text><path d="M1313.5,53.6094 C1313.5,43.6094 1331.5,43.6094 1331.5,43.6094 C1331.5,43.6094 1349.5,43.6094 1349.5,53.6094 L1349.5,79.6094 C1349.5,89.6094 1331.5,89.6094 1331.5,89.6094 C1331.5,89.6094 1313.5,89.6094 1313.5,79.6094 L1313.5,53.6094 " fill="#E3E3E3" style="stroke:#181818;stroke-width:1.5;"/><path d="M1313.5,53.6094 C1313.5,63.6094 1331.5,63.6094 1331.5,63.6094 C1331.5,63.6094 1349.5,63.6094 1349.5,53.6094 " fill="none" style="stroke:#181818;stroke-width:1.5;"/><text fill="#000000" font-family="sans-serif" font-size="14" font-style="italic" lengthAdjust="spacing" textLength="79" x="1289" y="780.6895">&#171;repository&#187;</text><text fill="#000000" font-family="sans-serif" font-size="14" lengthAdjust="spacing" textLength="184" x="1236.5" y="798.2988">OperationRequestRepository</text><path d="M1313.5,811.375 C1313.5,801.375 1331.5,801.375 1331.5,801.375 C1331.5,801.375 1349.5,801.375 1349.5,811.375 L1349.5,837.375 C1349.5,847.375 1331.5,847.375 1331.5,847.375 C1331.5,847.375 1313.5,847.375 1313.5,837.375 L1313.5,811.375 " fill="#E3E3E3" style="stroke:#181818;stroke-width:1.5;"/><path d="M1313.5,811.375 C1313.5,821.375 1331.5,821.375 1331.5,821.375 C1331.5,821.375 1349.5,821.375 1349.5,811.375 " fill="none" style="stroke:#181818;stroke-width:1.5;"/><rect fill="#E3E3E3" height="49.2188" rx="2.5" ry="2.5" style="stroke:#181818;stroke-width:0.5;" width="253" x="1436.5" y="74.6094"/><text fill="#000000" font-family="sans-serif" font-size="14" font-style="italic" lengthAdjust="spacing" textLength="71" x="1527.5" y="96.1426">&#171;interface&#187;</text><text fill="#000000" font-family="sans-serif" font-size="14" lengthAdjust="spacing" textLength="239" x="1443.5" y="113.752">OperationRequestRepositoryInterface</text><rect fill="#E3E3E3" height="49.2188" rx="2.5" ry="2.5" style="stroke:#181818;stroke-width:0.5;" width="253" x="1436.5" y="766.1563"/><text fill="#000000" font-family="sans-serif" font-size="14" font-style="italic" lengthAdjust="spacing" textLength="71" x="1527.5" y="787.6895">&#171;interface&#187;</text><text fill="#000000" font-family="sans-serif" font-size="14" lengthAdjust="spacing" textLength="239" x="1443.5" y="805.2988">OperationRequestRepositoryInterface</text><text fill="#000000" font-family="sans-serif" font-size="14" font-style="italic" lengthAdjust="spacing" textLength="79" x="1708.5" y="104.1426">&#171;repository&#187;</text><text fill="#000000" font-family="sans-serif" font-size="14" lengthAdjust="spacing" textLength="97" x="1699.5" y="121.752">StaffRepository</text><path d="M1733,53.6094 C1733,43.6094 1751,43.6094 1751,43.6094 C1751,43.6094 1769,43.6094 1769,53.6094 L1769,79.6094 C1769,89.6094 1751,89.6094 1751,89.6094 C1751,89.6094 1733,89.6094 1733,79.6094 L1733,53.6094 " fill="#E3E3E3" style="stroke:#181818;stroke-width:1.5;"/><path d="M1733,53.6094 C1733,63.6094 1751,63.6094 1751,63.6094 C1751,63.6094 1769,63.6094 1769,53.6094 " fill="none" style="stroke:#181818;stroke-width:1.5;"/><text fill="#000000" font-family="sans-serif" font-size="14" font-style="italic" lengthAdjust="spacing" textLength="79" x="1708.5" y="780.6895">&#171;repository&#187;</text><text fill="#000000" font-family="sans-serif" font-size="14" lengthAdjust="spacing" textLength="97" x="1699.5" y="798.2988">StaffRepository</text><path d="M1733,811.375 C1733,801.375 1751,801.375 1751,801.375 C1751,801.375 1769,801.375 1769,811.375 L1769,837.375 C1769,847.375 1751,847.375 1751,847.375 C1751,847.375 1733,847.375 1733,837.375 L1733,811.375 " fill="#E3E3E3" style="stroke:#181818;stroke-width:1.5;"/><path d="M1733,811.375 C1733,821.375 1751,821.375 1751,821.375 C1751,821.375 1769,821.375 1769,811.375 " fill="none" style="stroke:#181818;stroke-width:1.5;"/><rect fill="#E3E3E3" height="49.2188" rx="2.5" ry="2.5" style="stroke:#181818;stroke-width:0.5;" width="166" x="1954" y="74.6094"/><text fill="#000000" font-family="sans-serif" font-size="14" font-style="italic" lengthAdjust="spacing" textLength="71" x="2001.5" y="96.1426">&#171;interface&#187;</text><text fill="#000000" font-family="sans-serif" font-size="14" lengthAdjust="spacing" textLength="152" x="1961" y="113.752">StaffRepositoryInterface</text><rect fill="#E3E3E3" height="49.2188" rx="2.5" ry="2.5" style="stroke:#181818;stroke-width:0.5;" width="166" x="1954" y="766.1563"/><text fill="#000000" font-family="sans-serif" font-size="14" font-style="italic" lengthAdjust="spacing" textLength="71" x="2001.5" y="787.6895">&#171;interface&#187;</text><text fill="#000000" font-family="sans-serif" font-size="14" lengthAdjust="spacing" textLength="152" x="1961" y="805.2988">StaffRepositoryInterface</text><rect fill="#FFFFFF" height="575.625" style="stroke:#181818;stroke-width:1.0;" width="10" x="272" y="173.5313"/><rect fill="#FFFFFF" height="30.3516" style="stroke:#181818;stroke-width:1.0;" width="10" x="584" y="203.8828"/><rect fill="#FFFFFF" height="454.2188" style="stroke:#181818;stroke-width:1.0;" width="10" x="729.5" y="264.5859"/><rect fill="#FFFFFF" height="30.3516" style="stroke:#181818;stroke-width:1.0;" width="10" x="1141.5" y="658.1016"/><rect fill="#FFFFFF" height="90.7031" style="stroke:#181818;stroke-width:1.0;" width="10" x="1326.5" y="415.9922"/><rect fill="#FFFFFF" height="90.7031" style="stroke:#181818;stroke-width:1.0;" width="10" x="1326.5" y="537.0469"/><rect fill="#FFFFFF" height="30" style="stroke:#181818;stroke-width:1.0;" width="10" x="1558" y="446.3438"/><rect fill="#FFFFFF" height="30" style="stroke:#181818;stroke-width:1.0;" width="10" x="1558" y="567.3984"/><rect fill="#FFFFFF" height="90.7031" style="stroke:#181818;stroke-width:1.0;" width="10" x="1746" y="294.9375"/><rect fill="#FFFFFF" height="30" style="stroke:#181818;stroke-width:1.0;" width="10" x="2032" y="325.2891"/><polygon fill="#181818" points="260,169.5313,270,173.5313,260,177.5313,264,173.5313" style="stroke:#181818;stroke-width:1.0;"/><line style="stroke:#181818;stroke-width:1.0;stroke-dasharray:2.0,2.0;" x1="0" x2="266" y1="173.5313" y2="173.5313"/><text fill="#000000" font-family="sans-serif" font-size="13" lengthAdjust="spacing" textLength="253" x="7" y="152.3232">DELETE /api/staff/operation-requests/delete</text><text fill="#000000" font-family="sans-serif" font-size="13" lengthAdjust="spacing" textLength="197" x="7" y="168.6748">Body: {staffId,operationRequestID}</text><polygon fill="#181818" points="572,199.8828,582,203.8828,572,207.8828,576,203.8828" style="stroke:#181818;stroke-width:1.0;"/><line style="stroke:#181818;stroke-width:1.0;" x1="282" x2="578" y1="203.8828" y2="203.8828"/><text fill="#000000" font-family="sans-serif" font-size="13" lengthAdjust="spacing" textLength="283" x="289" y="199.0264">AuthenticateAsync(operationRequestDTO.staffId)</text><polygon fill="#181818" points="293,230.2344,283,234.2344,293,238.2344,289,234.2344" style="stroke:#181818;stroke-width:1.0;"/><line style="stroke:#181818;stroke-width:1.0;stroke-dasharray:2.0,2.0;" x1="287" x2="588" y1="234.2344" y2="234.2344"/><text fill="#000000" font-family="sans-serif" font-size="13" lengthAdjust="spacing" textLength="90" x="299" y="229.3779">IsAuthenticated</text><polygon fill="#181818" points="717.5,260.5859,727.5,264.5859,717.5,268.5859,721.5,264.5859" style="stroke:#181818;stroke-width:1.0;"/><line style="stroke:#181818;stroke-width:1.0;" x1="282" x2="723.5" y1="264.5859" y2="264.5859"/><text fill="#000000" font-family="sans-serif" font-size="13" lengthAdjust="spacing" textLength="326" x="289" y="259.7295">DeleteAsync(operationRequestDTO.operationRequestID)</text><polygon fill="#181818" points="1734,290.9375,1744,294.9375,1734,298.9375,1738,294.9375" style="stroke:#181818;stroke-width:1.0;"/><line style="stroke:#181818;stroke-width:1.0;" x1="739.5" x2="1740" y1="294.9375" y2="294.9375"/><text fill="#000000" font-family="sans-serif" font-size="13" lengthAdjust="spacing" textLength="257" x="746.5" y="290.0811">GetStaffAsync(operationRequestDTO.staffId)</text><polygon fill="#181818" points="2020,321.2891,2030,325.2891,2020,329.2891,2024,325.2891" style="stroke:#181818;stroke-width:1.0;"/><line style="stroke:#181818;stroke-width:1.0;" x1="1756" x2="2026" y1="325.2891" y2="325.2891"/><text fill="#000000" font-family="sans-serif" font-size="13" lengthAdjust="spacing" textLength="257" x="1763" y="320.4326">GetStaffAsync(operationRequestDTO.staffId)</text><polygon fill="#181818" points="750.5,381.6406,740.5,385.6406,750.5,389.6406,746.5,385.6406" style="stroke:#181818;stroke-width:1.0;"/><line style="stroke:#181818;stroke-width:1.0;stroke-dasharray:2.0,2.0;" x1="744.5" x2="1750" y1="385.6406" y2="385.6406"/><text fill="#000000" font-family="sans-serif" font-size="13" lengthAdjust="spacing" textLength="24" x="756.5" y="380.7842">staff</text><polygon fill="#181818" points="1314.5,411.9922,1324.5,415.9922,1314.5,419.9922,1318.5,415.9922" style="stroke:#181818;stroke-width:1.0;"/><line style="stroke:#181818;stroke-width:1.0;" x1="739.5" x2="1320.5" y1="415.9922" y2="415.9922"/><text fill="#000000" font-family="sans-serif" font-size="13" lengthAdjust="spacing" textLength="194" x="746.5" y="411.1357">GetOperationRequestAsync(staff)</text><polygon fill="#181818" points="1546,442.3438,1556,446.3438,1546,450.3438,1550,446.3438" style="stroke:#181818;stroke-width:1.0;"/><line style="stroke:#181818;stroke-width:1.0;" x1="1336.5" x2="1552" y1="446.3438" y2="446.3438"/><text fill="#000000" font-family="sans-serif" font-size="13" lengthAdjust="spacing" textLength="194" x="1343.5" y="441.4873">GetOperationRequestAsync(staff)</text><polygon fill="#181818" points="750.5,502.6953,740.5,506.6953,750.5,510.6953,746.5,506.6953" style="stroke:#181818;stroke-width:1.0;"/><line style="stroke:#181818;stroke-width:1.0;stroke-dasharray:2.0,2.0;" x1="744.5" x2="1330.5" y1="506.6953" y2="506.6953"/><text fill="#000000" font-family="sans-serif" font-size="13" lengthAdjust="spacing" textLength="101" x="756.5" y="501.8389">operationRequest</text><polygon fill="#181818" points="1314.5,533.0469,1324.5,537.0469,1314.5,541.0469,1318.5,537.0469" style="stroke:#181818;stroke-width:1.0;"/><line style="stroke:#181818;stroke-width:1.0;" x1="739.5" x2="1320.5" y1="537.0469" y2="537.0469"/><text fill="#000000" font-family="sans-serif" font-size="13" lengthAdjust="spacing" textLength="183" x="746.5" y="532.1904">DeleteAsync(operationRequest)</text><polygon fill="#181818" points="1546,563.3984,1556,567.3984,1546,571.3984,1550,567.3984" style="stroke:#181818;stroke-width:1.0;"/><line style="stroke:#181818;stroke-width:1.0;" x1="1336.5" x2="1552" y1="567.3984" y2="567.3984"/><text fill="#000000" font-family="sans-serif" font-size="13" lengthAdjust="spacing" textLength="183" x="1343.5" y="562.542">DeleteAsync(operationRequest)</text><polygon fill="#181818" points="750.5,623.75,740.5,627.75,750.5,631.75,746.5,627.75" style="stroke:#181818;stroke-width:1.0;"/><line style="stroke:#181818;stroke-width:1.0;stroke-dasharray:2.0,2.0;" x1="744.5" x2="1330.5" y1="627.75" y2="627.75"/><text fill="#000000" font-family="sans-serif" font-size="13" lengthAdjust="spacing" textLength="101" x="756.5" y="622.8936">operationRequest</text><polygon fill="#181818" points="1129.5,654.1016,1139.5,658.1016,1129.5,662.1016,1133.5,658.1016" style="stroke:#181818;stroke-width:1.0;"/><line style="stroke:#181818;stroke-width:1.0;" x1="739.5" x2="1135.5" y1="658.1016" y2="658.1016"/><text fill="#000000" font-family="sans-serif" font-size="13" lengthAdjust="spacing" textLength="383" x="746.5" y="653.2451">new OperationRequestDTO(operationRequest.operationRequestID)</text><polygon fill="#181818" points="750.5,684.4531,740.5,688.4531,750.5,692.4531,746.5,688.4531" style="stroke:#181818;stroke-width:1.0;"/><line style="stroke:#181818;stroke-width:1.0;stroke-dasharray:2.0,2.0;" x1="744.5" x2="1145.5" y1="688.4531" y2="688.4531"/><text fill="#000000" font-family="sans-serif" font-size="13" lengthAdjust="spacing" textLength="127" x="756.5" y="683.5967">operationRequestDTO</text><polygon fill="#181818" points="293,714.8047,283,718.8047,293,722.8047,289,718.8047" style="stroke:#181818;stroke-width:1.0;"/><line style="stroke:#181818;stroke-width:1.0;stroke-dasharray:2.0,2.0;" x1="287" x2="733.5" y1="718.8047" y2="718.8047"/><text fill="#000000" font-family="sans-serif" font-size="13" lengthAdjust="spacing" textLength="127" x="299" y="713.9482">operationRequestDTO</text><polygon fill="#181818" points="11,745.1563,1,749.1563,11,753.1563,7,749.1563" style="stroke:#181818;stroke-width:1.0;"/><line style="stroke:#181818;stroke-width:1.0;stroke-dasharray:2.0,2.0;" x1="5" x2="276" y1="749.1563" y2="749.1563"/><text fill="#000000" font-family="sans-serif" font-size="13" lengthAdjust="spacing" textLength="134" x="17" y="744.2998">return 200 OK={BODY}</text><!--SRC=[pLLTQzim57tNhn1zQc5UiZqDumNQEeomGQ3k7WPxqUoRHDIHFEcc9PJ-zydAeaZoHxEnX_aXiQnpxZdtIBBr0nSDKsnBjrB8SgFa5YYg7H3jPXfMFh0r5BYlWIeeaObrxGFqXbNoYOirNR5Q0o78qK0B-Ba3KGBDELktkCkYoAzeGh_UJjzz88QBlEGD4qYN3IY6N8gxbgFnLWfKigv1KQQfDygoqWrciw36HNgzmqq1wf6NSD7olB4XwiDTn8gLZtX3_rDgVhziQUrVbbKe3RnYo7um3Hti7JHISvHgtrAyKPOfDtX5xyHQ20IrOWVRfq6MyUEzxwL0jbg51k978ouYQ21jvuRq2KcIcRUMAStdN-RtSpfX3P_ebZgHnnOJTUXHJoge0U6xk97LFgNF5hUetiWeZ4N-GbY9_94XU2A4cil-U9l8sF2sHce784o7XdkjzwAybDsbVVjR-SfMSr9U8JlHNlw-YtjUQ5-jSfmAUalsM7UsSvlCiE5kH97teqTdmfcUnSkSqa-0zjcP0OL2OJ47i9hHrZjgkstqLz9TULSlm4JHZo0xFlsbiFfahAZ797rvHr77P_tGkfNfoNSWsZ3LCD2p10AHimBi1mt55Y_bK89UVwzbDtOe_a5ovvN_3tFhYSqSd9GAUEhxa7MQ6toR1BqQPk2b_HQEEey9ddb_QkXjEbREFu7-spHBag260jmfGTzFftJv-UFppJB_zaAY0YVyBm00]--></g></svg>