<?xml version="1.0" encoding="us-ascii" standalone="no"?><svg xmlns="http://www.w3.org/2000/svg" xmlns:xlink="http://www.w3.org/1999/xlink" contentStyleType="text/css" height="580px" preserveAspectRatio="none" style="width:1683px;height:580px;background:#FFFFFF;" version="1.1" viewBox="0 0 1683 580" width="1683px" zoomAndPan="magnify"><defs/><g><text fill="#000000" font-family="sans-serif" font-size="14" font-weight="bold" lengthAdjust="spacing" textLength="194" x="737.5" y="24.5332">Domain Model (DM) - UC022</text><!--cluster OperationTypeAggregate--><g id="cluster_OperationTypeAggregate"><rect fill="none" height="355" rx="2.5" ry="2.5" style="stroke:#000000;stroke-width:1.5;" width="923" x="203" y="45.6094"/><text fill="#000000" font-family="sans-serif" font-size="14" font-weight="bold" lengthAdjust="spacing" textLength="176" x="576.5" y="62.1426">OperationTypeAggregate</text></g><!--class OperationType--><g id="elem_OperationType"><rect codeLine="16" fill="#F1F1F1" height="50.7031" id="OperationType" rx="2.5" ry="2.5" style="stroke:#181818;stroke-width:0.5;" width="101" x="219" y="284.1094"/><text fill="#000000" font-family="sans-serif" font-size="12" font-style="italic" lengthAdjust="spacing" textLength="67" x="236" y="301.5664">&#171;root entity&#187;</text><text fill="#000000" font-family="sans-serif" font-size="14" lengthAdjust="spacing" textLength="95" x="222" y="318.7363">OperationType</text><line style="stroke:#181818;stroke-width:0.5;" x1="220" x2="319" y1="326.8125" y2="326.8125"/></g><!--class OperationTypeID--><g id="elem_OperationTypeID"><rect codeLine="17" fill="#F1F1F1" height="50.7031" id="OperationTypeID" rx="2.5" ry="2.5" style="stroke:#181818;stroke-width:0.5;" width="114" x="464" y="247.1094"/><text fill="#000000" font-family="sans-serif" font-size="12" font-style="italic" lengthAdjust="spacing" textLength="81" x="480.5" y="264.5664">&#171;value object&#187;</text><text fill="#000000" font-family="sans-serif" font-size="14" lengthAdjust="spacing" textLength="108" x="467" y="281.7363">OperationTypeID</text><line style="stroke:#181818;stroke-width:0.5;" x1="465" x2="577" y1="289.8125" y2="289.8125"/></g><g id="elem_GMN5"><path d="M836.5,271.6094 L836.5,278.8294 L578.04,274.4294 L836.5,286.8294 L836.5,297.9609 A0,0 0 0 0 836.5,297.9609 L947.5,297.9609 A0,0 0 0 0 947.5,297.9609 L947.5,281.6094 L937.5,271.6094 L836.5,271.6094 A0,0 0 0 0 836.5,271.6094 " fill="#FEFFDD" style="stroke:#181818;stroke-width:0.5;"/><path d="M937.5,271.6094 L937.5,281.6094 L947.5,281.6094 L937.5,271.6094 " fill="#FEFFDD" style="stroke:#181818;stroke-width:0.5;"/><text fill="#000000" font-family="sans-serif" font-size="13" lengthAdjust="spacing" textLength="90" x="842.5" y="290.1045">unique identifier</text></g><!--class RequiredStaff--><g id="elem_RequiredStaff"><rect codeLine="19" fill="#F1F1F1" height="50.7031" id="RequiredStaff" rx="2.5" ry="2.5" style="stroke:#181818;stroke-width:0.5;" width="93" x="474.5" y="333.1094"/><text fill="#000000" font-family="sans-serif" font-size="12" font-style="italic" lengthAdjust="spacing" textLength="81" x="480.5" y="350.5664">&#171;value object&#187;</text><text fill="#000000" font-family="sans-serif" font-size="14" lengthAdjust="spacing" textLength="87" x="477.5" y="367.7363">RequiredStaff</text><line style="stroke:#181818;stroke-width:0.5;" x1="475.5" x2="566.5" y1="375.8125" y2="375.8125"/></g><!--class Quantity--><g id="elem_Quantity"><rect codeLine="20" fill="#F1F1F1" height="50.7031" id="Quantity" rx="2.5" ry="2.5" style="stroke:#181818;stroke-width:0.5;" width="83" x="850.5" y="333.1094"/><text fill="#000000" font-family="sans-serif" font-size="12" font-style="italic" lengthAdjust="spacing" textLength="81" x="851.5" y="350.5664">&#171;value object&#187;</text><text fill="#000000" font-family="sans-serif" font-size="14" lengthAdjust="spacing" textLength="53" x="865.5" y="367.7363">Quantity</text><line style="stroke:#181818;stroke-width:0.5;" x1="851.5" x2="932.5" y1="375.8125" y2="375.8125"/></g><!--class PhaseDetails--><g id="elem_PhaseDetails"><rect codeLine="21" fill="#F1F1F1" height="50.7031" id="PhaseDetails" rx="2.5" ry="2.5" style="stroke:#181818;stroke-width:0.5;" width="89" x="476.5" y="161.1094"/><text fill="#000000" font-family="sans-serif" font-size="12" font-style="italic" lengthAdjust="spacing" textLength="81" x="480.5" y="178.5664">&#171;value object&#187;</text><text fill="#000000" font-family="sans-serif" font-size="14" lengthAdjust="spacing" textLength="83" x="479.5" y="195.7363">PhaseDetails</text><line style="stroke:#181818;stroke-width:0.5;" x1="477.5" x2="564.5" y1="203.8125" y2="203.8125"/></g><!--class Phase--><g id="elem_Phase"><rect codeLine="22" fill="#F1F1F1" height="68.3125" id="Phase" rx="2.5" ry="2.5" style="stroke:#181818;stroke-width:0.5;" width="436" x="674" y="168.6094"/><text fill="#000000" font-family="sans-serif" font-size="12" font-style="italic" lengthAdjust="spacing" textLength="81" x="851.5" y="186.0664">&#171;value object&#187;</text><text fill="#000000" font-family="sans-serif" font-size="14" lengthAdjust="spacing" textLength="40" x="872" y="203.2363">Phase</text><line style="stroke:#181818;stroke-width:0.5;" x1="675" x2="1109" y1="211.3125" y2="211.3125"/><text fill="#000000" font-family="sans-serif" font-size="14" lengthAdjust="spacing" textLength="424" x="680" y="229.8457">ANAESTHESIA_PREPARATION, SURGERY_PROCESS, CLEANING</text></g><!--class Duration--><g id="elem_Duration"><rect codeLine="25" fill="#F1F1F1" height="50.7031" id="Duration" rx="2.5" ry="2.5" style="stroke:#181818;stroke-width:0.5;" width="83" x="850.5" y="82.1094"/><text fill="#000000" font-family="sans-serif" font-size="12" font-style="italic" lengthAdjust="spacing" textLength="81" x="851.5" y="99.5664">&#171;value object&#187;</text><text fill="#000000" font-family="sans-serif" font-size="14" lengthAdjust="spacing" textLength="54" x="865" y="116.7363">Duration</text><line style="stroke:#181818;stroke-width:0.5;" x1="851.5" x2="932.5" y1="124.8125" y2="124.8125"/></g><!--class Admin--><g id="elem_Admin"><rect codeLine="28" fill="#F1F1F1" height="50.7031" id="Admin" rx="2.5" ry="2.5" style="stroke:#181818;stroke-width:0.5;" width="107" x="7" y="284.1094"/><text fill="#000000" font-family="sans-serif" font-size="12" font-style="italic" lengthAdjust="spacing" textLength="105" x="8" y="301.5664">&#171;conceptual class&#187;</text><text fill="#000000" font-family="sans-serif" font-size="14" lengthAdjust="spacing" textLength="39" x="41" y="318.7363">Admin</text><line style="stroke:#181818;stroke-width:0.5;" x1="8" x2="113" y1="326.8125" y2="326.8125"/></g><!--class Name--><g id="elem_Name"><rect codeLine="29" fill="#F1F1F1" height="50.7031" id="Name" rx="2.5" ry="2.5" style="stroke:#181818;stroke-width:0.5;" width="83" x="479.5" y="419.1094"/><text fill="#000000" font-family="sans-serif" font-size="12" font-style="italic" lengthAdjust="spacing" textLength="81" x="480.5" y="436.5664">&#171;value object&#187;</text><text fill="#000000" font-family="sans-serif" font-size="14" lengthAdjust="spacing" textLength="36" x="503" y="453.7363">Name</text><line style="stroke:#181818;stroke-width:0.5;" x1="480.5" x2="561.5" y1="461.8125" y2="461.8125"/></g><!--class Specialization--><g id="elem_Specialization"><rect codeLine="30" fill="#F1F1F1" height="50.7031" id="Specialization" rx="2.5" ry="2.5" style="stroke:#181818;stroke-width:0.5;" width="92" x="846" y="419.1094"/><text fill="#000000" font-family="sans-serif" font-size="12" font-style="italic" lengthAdjust="spacing" textLength="81" x="851.5" y="436.5664">&#171;value object&#187;</text><text fill="#000000" font-family="sans-serif" font-size="14" lengthAdjust="spacing" textLength="86" x="849" y="453.7363">Specialization</text><line style="stroke:#181818;stroke-width:0.5;" x1="847" x2="937" y1="461.8125" y2="461.8125"/></g><!--class Role--><g id="elem_Role"><rect codeLine="31" fill="#F1F1F1" height="68.3125" id="Role" rx="2.5" ry="2.5" style="stroke:#181818;stroke-width:0.5;" width="330" x="727" y="505.6094"/><text fill="#000000" font-family="sans-serif" font-size="12" font-style="italic" lengthAdjust="spacing" textLength="81" x="851.5" y="523.0664">&#171;value object&#187;</text><text fill="#000000" font-family="sans-serif" font-size="14" lengthAdjust="spacing" textLength="29" x="877.5" y="540.2363">Role</text><line style="stroke:#181818;stroke-width:0.5;" x1="728" x2="1056" y1="548.3125" y2="548.3125"/><text fill="#000000" font-family="sans-serif" font-size="14" lengthAdjust="spacing" textLength="318" x="733" y="566.8457">ADMIN, DOCTOR, NURSE, TECHNICIAN, PATIENT</text></g><g id="elem_GMN17"><path d="M1173,526.6094 L1173,535.6094 L1057.22,539.6094 L1173,543.6094 L1173,552.9609 A0,0 0 0 0 1173,552.9609 L1676,552.9609 A0,0 0 0 0 1676,552.9609 L1676,536.6094 L1666,526.6094 L1173,526.6094 A0,0 0 0 0 1173,526.6094 " fill="#FEFFDD" style="stroke:#181818;stroke-width:0.5;"/><path d="M1666,526.6094 L1666,536.6094 L1676,536.6094 L1666,526.6094 " fill="#FEFFDD" style="stroke:#181818;stroke-width:0.5;"/><text fill="#000000" font-family="sans-serif" font-size="13" lengthAdjust="spacing" textLength="482" x="1179" y="545.1045">in this Use Case, only Staff roles are considered (DOCTOR, NURSE, TECHNICIAN)</text></g><!--link Admin to OperationType--><g id="link_Admin_OperationType"><path codeLine="36" d="M114,309.6094 C146.22,309.6094 187.23,309.6094 218.9,309.6094 " fill="none" id="Admin-OperationType" style="stroke:#181818;stroke-width:1.0;"/><polygon fill="#000000" points="154,300.7852,144.9549,297.8462,144.9549,303.7241,154,300.7852" style="stroke:#000000;stroke-width:1.0;"/><text fill="#000000" font-family="sans-serif" font-size="13" lengthAdjust="spacing" textLength="28" x="158" y="306.1045">edits</text><text fill="#000000" font-family="sans-serif" font-size="13" lengthAdjust="spacing" textLength="7" x="122.0156" y="324.2751">1</text><text fill="#000000" font-family="sans-serif" font-size="13" lengthAdjust="spacing" textLength="5" x="206.1009" y="324.3271">*</text></g><!--link OperationType to OperationTypeID--><g id="link_OperationType_OperationTypeID"><path codeLine="38" d="M320.09,302.2594 C361.59,296.0994 420.77,287.3194 463.98,280.9194 " fill="none" id="OperationType-OperationTypeID" style="stroke:#181818;stroke-width:1.0;"/><polygon fill="#000000" points="359.9459,277.0516,350.5675,275.4715,351.4298,281.2857,359.9459,277.0516" style="stroke:#000000;stroke-width:1.0;"/><text fill="#000000" font-family="sans-serif" font-size="13" lengthAdjust="spacing" textLength="69" x="364" y="283.1045">identified by</text><text fill="#000000" font-family="sans-serif" font-size="13" lengthAdjust="spacing" textLength="7" x="328.0345" y="315.8976">1</text><text fill="#000000" font-family="sans-serif" font-size="13" lengthAdjust="spacing" textLength="7" x="448.8476" y="296.6497">1</text></g><!--link OperationType to Name--><g id="link_OperationType_Name"><path codeLine="39" d="M302.35,335.1594 C316.49,345.8894 333.62,358.0594 350,367.6094 C392.41,392.3294 444.16,414.7594 479.34,428.9494 " fill="none" id="OperationType-Name" style="stroke:#181818;stroke-width:1.0;"/><polygon fill="#000000" points="383.418,361.1263,376.8019,354.2943,374.0496,359.4879,383.418,361.1263" style="stroke:#000000;stroke-width:1.0;"/><text fill="#000000" font-family="sans-serif" font-size="13" lengthAdjust="spacing" textLength="21" x="388" y="364.1045">has</text><text fill="#000000" font-family="sans-serif" font-size="13" lengthAdjust="spacing" textLength="7" x="302.1372" y="356.4879">1</text><text fill="#000000" font-family="sans-serif" font-size="13" lengthAdjust="spacing" textLength="7" x="464.5781" y="441.1837">1</text></g><!--link OperationType to RequiredStaff--><g id="link_OperationType_RequiredStaff"><path codeLine="40" d="M320.09,319.3494 C365,328.1694 430.62,341.0594 474.29,349.6294 " fill="none" id="OperationType-RequiredStaff" style="stroke:#181818;stroke-width:1.0;"/><polygon fill="#000000" points="376.9063,317.7486,368.597,313.1219,367.4644,318.8896,376.9063,317.7486" style="stroke:#000000;stroke-width:1.0;"/><text fill="#000000" font-family="sans-serif" font-size="13" lengthAdjust="spacing" textLength="35" x="381" y="322.1045">needs</text><text fill="#000000" font-family="sans-serif" font-size="13" lengthAdjust="spacing" textLength="7" x="328.0345" y="335.4977">1</text><text fill="#000000" font-family="sans-serif" font-size="13" lengthAdjust="spacing" textLength="7" x="459.6016" y="363.0241">1</text></g><!--link OperationType to PhaseDetails--><g id="link_OperationType_PhaseDetails"><path codeLine="41" d="M309.49,284.0594 C322.19,276.1494 336.49,267.6694 350,260.6094 C391.8,238.7694 441.43,217.6994 476.24,203.6594 " fill="none" id="OperationType-PhaseDetails" style="stroke:#181818;stroke-width:1.0;"/><polygon fill="#000000" points="383.5038,211.6136,374.0799,212.8947,376.6327,218.1893,383.5038,211.6136" style="stroke:#000000;stroke-width:1.0;"/><text fill="#000000" font-family="sans-serif" font-size="13" lengthAdjust="spacing" textLength="21" x="388" y="219.1045">has</text><text fill="#000000" font-family="sans-serif" font-size="13" lengthAdjust="spacing" textLength="7" x="311.3844" y="273.4557">1</text><text fill="#000000" font-family="sans-serif" font-size="13" lengthAdjust="spacing" textLength="20" x="448.5394" y="220.7227">1..*</text></g><!--link RequiredStaff to Role--><g id="link_RequiredStaff_Role"><path codeLine="42" d="M556.08,384.1294 C563.4,389.7794 571.02,395.8194 578,401.6094 C622.08,438.1894 623.27,461.0094 674,487.6094 C690.56,496.2894 708.58,503.5394 726.93,509.5994 " fill="none" id="RequiredStaff-Role" style="stroke:#181818;stroke-width:1.0;"/><polygon fill="#000000" points="617.03,424.7447,611.4793,417.022,608.0001,421.7596,617.03,424.7447" style="stroke:#000000;stroke-width:1.0;"/><text fill="#000000" font-family="sans-serif" font-size="13" lengthAdjust="spacing" textLength="21" x="622" y="427.1045">has</text><text fill="#000000" font-family="sans-serif" font-size="13" lengthAdjust="spacing" textLength="5" x="558.6141" y="405.451">*</text><text fill="#000000" font-family="sans-serif" font-size="13" lengthAdjust="spacing" textLength="7" x="711.7649" y="522.0293">1</text></g><!--link RequiredStaff to Specialization--><g id="link_RequiredStaff_Specialization"><path codeLine="43" d="M567.83,372.9794 C580.78,376.8994 594.91,381.0494 608,384.6094 C690.87,407.1594 789.3,426.3594 845.53,436.6194 " fill="none" id="RequiredStaff-Specialization" style="stroke:#181818;stroke-width:1.0;"/><polygon fill="#000000" points="617.8737,376.902,609.7136,372.0169,608.4006,377.7462,617.8737,376.902" style="stroke:#000000;stroke-width:1.0;"/><text fill="#000000" font-family="sans-serif" font-size="13" lengthAdjust="spacing" textLength="21" x="622" y="381.1045">has</text><text fill="#000000" font-family="sans-serif" font-size="13" lengthAdjust="spacing" textLength="5" x="575.3837" y="389.9495">*</text><text fill="#000000" font-family="sans-serif" font-size="13" lengthAdjust="spacing" textLength="7" x="830.8783" y="450.1657">1</text></g><!--link RequiredStaff to Quantity--><g id="link_RequiredStaff_Quantity"><path codeLine="44" d="M567.62,358.6094 C640.22,358.6094 780.91,358.6094 850.29,358.6094 " fill="none" id="RequiredStaff-Quantity" style="stroke:#181818;stroke-width:1.0;"/><polygon fill="#000000" points="618,349.7852,608.9549,346.8462,608.9549,352.7241,618,349.7852" style="stroke:#000000;stroke-width:1.0;"/><text fill="#000000" font-family="sans-serif" font-size="13" lengthAdjust="spacing" textLength="21" x="622" y="355.1045">has</text><text fill="#000000" font-family="sans-serif" font-size="13" lengthAdjust="spacing" textLength="7" x="575.6079" y="354.8812">1</text><text fill="#000000" font-family="sans-serif" font-size="13" lengthAdjust="spacing" textLength="7" x="835.5195" y="373.5352">1</text></g><!--link PhaseDetails to Phase--><g id="link_PhaseDetails_Phase"><path codeLine="45" d="M565.78,188.5094 C593.84,189.7294 632.6,191.4094 673.6,193.1794 " fill="none" id="PhaseDetails-Phase" style="stroke:#181818;stroke-width:1.0;"/><polygon fill="#000000" points="617.9953,182.0015,609.0859,178.6739,608.8315,184.5463,617.9953,182.0015" style="stroke:#000000;stroke-width:1.0;"/><text fill="#000000" font-family="sans-serif" font-size="13" lengthAdjust="spacing" textLength="21" x="622" y="187.1045">has</text><text fill="#000000" font-family="sans-serif" font-size="13" lengthAdjust="spacing" textLength="7" x="573.4746" y="203.634">1</text><text fill="#000000" font-family="sans-serif" font-size="13" lengthAdjust="spacing" textLength="7" x="659.3189" y="206.6282">1</text></g><!--link PhaseDetails to Duration--><g id="link_PhaseDetails_Duration"><path codeLine="46" d="M565.66,175.0694 C579.2,171.5894 594.19,167.8394 608,164.6094 C693.65,144.5794 794.87,125.2194 850.06,115.0294 " fill="none" id="PhaseDetails-Duration" style="stroke:#181818;stroke-width:1.0;"/><polygon fill="#000000" points="617.8922,148.7524,608.4351,147.7452,609.6492,153.4962,617.8922,148.7524" style="stroke:#000000;stroke-width:1.0;"/><text fill="#000000" font-family="sans-serif" font-size="13" lengthAdjust="spacing" textLength="21" x="622" y="155.1045">has</text><text fill="#000000" font-family="sans-serif" font-size="13" lengthAdjust="spacing" textLength="7" x="573.6365" y="169.3819">1</text><text fill="#000000" font-family="sans-serif" font-size="13" lengthAdjust="spacing" textLength="7" x="835.534" y="131.1321">1</text></g><!--SRC=[XPF1Rfj048Rl-nGZJarbHqcELcG90KgGQko2VSYfMiC0somiOPTMJfLtxs2mO-nISqBCDpF_pFpeLr5MlEO5L3n-vHb6PYSHQemDBpE9J1y1dVD4_HPb1YcN6jb9A9PSQzkOMcmRWtwioaYy8zmnPbG5Hi5M6QCAI4HRMAYIIKnD6wX5bfkJxomN2K8iwfXwxzyBDBbAD9KIXfIvgk2YX8LAKC8NTt43KzWuTmyFZFKJWBMiiEPjkVMkGZlBQiouGGl-CA1dBnO633m-raePm9AQxERpCSvtYVp5POEWjZz9Se-Moc0_YahFKsRGbEADKcWQgfyAh4_gX_ZMqFH9P7YQ_hjw1tvl-5xT_vXLpZMwQBYG-Yft0VJxQHyxiBre_Un5llrZ5NehExJN_ZAOGBG9dxpmXJuk7I-A9k1yy-p03vxsgHydFTocMyAbZW_6EiHE2j76oIynLgRXiiibfWC2NbpAx6DHXR7WKhoFTEdNg-JeeBQxy6aaT-cib-44WaqOUHDOUyvpu3k-JQ4LJUq5Qr8yl71RTGQatUH2muPswT129w1AkOFkaZKX6dXDPbQbfjFJZSclOxrk6EksOTrRC9s2zTKwi-WCC156mvonOU2GSMzTc7K6yq_N9R3TZQVkLztoP8rnQkZM5YyHaz64sriQOs3AGuTXeNRQGuVsO5Ufi-EFy9-wZp_FWHo8EW6xF-CQTVJs0VmB]--></g></svg>