<?xml version="1.0" encoding="us-ascii" standalone="no"?><svg xmlns="http://www.w3.org/2000/svg" xmlns:xlink="http://www.w3.org/1999/xlink" contentStyleType="text/css" height="1681px" preserveAspectRatio="none" style="width:502px;height:1681px;background:#FFFFFF;" version="1.1" viewBox="0 0 502 1681" width="502px" zoomAndPan="magnify"><defs/><g><!--cluster Healthcare Management System--><g id="cluster_Healthcare Management System"><rect fill="none" height="1668" rx="2.5" ry="2.5" style="stroke:#181818;stroke-width:1.0;" width="308" x="188" y="7"/><text fill="#000000" font-family="sans-serif" font-size="14" font-weight="bold" lengthAdjust="spacing" textLength="225" x="229.5" y="23.5332">Healthcare Management System</text></g><g id="elem_Register Backoffice Users"><ellipse cx="342.0042" cy="66.0008" fill="#F1F1F1" rx="100.5042" ry="22.5008" style="stroke:#181818;stroke-width:0.5;"/><text fill="#000000" font-family="sans-serif" font-size="14" lengthAdjust="spacing" textLength="162" x="261.0042" y="69.7293">Register Backoffice Users</text></g><g id="elem_Create Patient Profile"><ellipse cx="342.1756" cy="144.1351" fill="#F1F1F1" rx="88.6756" ry="20.1351" style="stroke:#181818;stroke-width:0.5;"/><text fill="#000000" font-family="sans-serif" font-size="14" lengthAdjust="spacing" textLength="135" x="274.6756" y="147.8636">Create Patient Profile</text></g><g id="elem_Edit Patient Profile"><ellipse cx="342.1887" cy="218.0377" fill="#F1F1F1" rx="80.6887" ry="18.5377" style="stroke:#181818;stroke-width:0.5;"/><text fill="#000000" font-family="sans-serif" font-size="14" lengthAdjust="spacing" textLength="116" x="283.5015" y="221.9661">Edit Patient Profile</text></g><g id="elem_Delete Patient Profile"><ellipse cx="341.8193" cy="291.9639" fill="#F1F1F1" rx="87.8193" ry="19.9639" style="stroke:#181818;stroke-width:0.5;"/><text fill="#000000" font-family="sans-serif" font-size="14" lengthAdjust="spacing" textLength="133" x="275.3193" y="295.6924">Delete Patient Profile</text></g><g id="elem_List/Search Patient Profiles"><ellipse cx="342.0894" cy="370.2179" fill="#F1F1F1" rx="104.0894" ry="23.2179" style="stroke:#181818;stroke-width:0.5;"/><text fill="#000000" font-family="sans-serif" font-size="14" lengthAdjust="spacing" textLength="170" x="257.0894" y="373.9464">List/Search Patient Profiles</text></g><g id="elem_Create Staff Profile"><ellipse cx="341.8351" cy="446.867" fill="#F1F1F1" rx="82.3351" ry="18.867" style="stroke:#181818;stroke-width:0.5;"/><text fill="#000000" font-family="sans-serif" font-size="14" lengthAdjust="spacing" textLength="120" x="281.8351" y="450.5955">Create Staff Profile</text></g><g id="elem_Edit Staff Profile"><ellipse cx="341.8525" cy="518.8705" fill="#F1F1F1" rx="74.8525" ry="17.3705" style="stroke:#181818;stroke-width:0.5;"/><text fill="#000000" font-family="sans-serif" font-size="14" lengthAdjust="spacing" textLength="101" x="288.3525" y="523.3871">Edit Staff Profile</text></g><g id="elem_Deactivate Staff Profile"><ellipse cx="342.066" cy="592.9132" fill="#F1F1F1" rx="92.566" ry="20.9132" style="stroke:#181818;stroke-width:0.5;"/><text fill="#000000" font-family="sans-serif" font-size="14" lengthAdjust="spacing" textLength="144" x="270.066" y="596.6417">Deactivate Staff Profile</text></g><g id="elem_List/Search Staff Profiles"><ellipse cx="341.8945" cy="670.8789" fill="#F1F1F1" rx="97.3945" ry="21.8789" style="stroke:#181818;stroke-width:0.5;"/><text fill="#000000" font-family="sans-serif" font-size="14" lengthAdjust="spacing" textLength="155" x="264.3945" y="674.6074">List/Search Staff Profiles</text></g><g id="elem_Manage Operation Types"><ellipse cx="342.0583" cy="750.9117" fill="#F1F1F1" rx="100.0583" ry="22.4117" style="stroke:#181818;stroke-width:0.5;"/><text fill="#000000" font-family="sans-serif" font-size="14" lengthAdjust="spacing" textLength="161" x="261.5583" y="754.6402">Manage Operation Types</text></g><g id="elem_List/Search Operation Types"><ellipse cx="342.0675" cy="833.2135" fill="#F1F1F1" rx="109.0675" ry="24.2135" style="stroke:#181818;stroke-width:0.5;"/><text fill="#000000" font-family="sans-serif" font-size="14" lengthAdjust="spacing" textLength="181" x="251.5675" y="836.942">List/Search Operation Types</text></g><g id="elem_Login to the System"><ellipse cx="341.9267" cy="911.7853" fill="#F1F1F1" rx="84.4267" ry="19.2853" style="stroke:#181818;stroke-width:0.5;"/><text fill="#000000" font-family="sans-serif" font-size="14" lengthAdjust="spacing" textLength="125" x="279.4267" y="915.5139">Login to the System</text></g><g id="elem_Reset Password"><ellipse cx="342.2256" cy="983.9451" fill="#F1F1F1" rx="75.2256" ry="17.4451" style="stroke:#181818;stroke-width:0.5;"/><text fill="#000000" font-family="sans-serif" font-size="14" lengthAdjust="spacing" textLength="102" x="288.2256" y="988.4617">Reset Password</text></g><g id="elem_Request an Operation"><ellipse cx="341.8297" cy="1378.0659" fill="#F1F1F1" rx="90.8297" ry="20.5659" style="stroke:#181818;stroke-width:0.5;"/><text fill="#000000" font-family="sans-serif" font-size="14" lengthAdjust="spacing" textLength="140" x="271.8297" y="1381.7945">Request an Operation</text></g><g id="elem_Update Operation Requisition"><ellipse cx="341.847" cy="1458.1694" fill="#F1F1F1" rx="111.347" ry="24.6694" style="stroke:#181818;stroke-width:0.5;"/><text fill="#000000" font-family="sans-serif" font-size="14" lengthAdjust="spacing" textLength="186" x="248.847" y="1461.8979">Update Operation Requisition</text></g><g id="elem_Remove Operation Requisition"><ellipse cx="342.0541" cy="1542.8108" fill="#F1F1F1" rx="114.5541" ry="25.3108" style="stroke:#181818;stroke-width:0.5;"/><text fill="#000000" font-family="sans-serif" font-size="14" lengthAdjust="spacing" textLength="193" x="245.5541" y="1546.5393">Remove Operation Requisition</text></g><g id="elem_List/Search Operation Requisitions"><ellipse cx="342.1055" cy="1631.2211" fill="#F1F1F1" rx="126.6055" ry="27.7211" style="stroke:#181818;stroke-width:0.5;"/><text fill="#000000" font-family="sans-serif" font-size="14" lengthAdjust="spacing" textLength="219" x="232.6055" y="1634.9496">List/Search Operation Requisitions</text></g><g id="elem_Register for the Healthcare Application"><ellipse cx="341.8863" cy="1066.9773" fill="#F1F1F1" rx="137.8863" ry="29.9773" style="stroke:#181818;stroke-width:0.5;"/><text fill="#000000" font-family="sans-serif" font-size="14" lengthAdjust="spacing" textLength="243" x="220.3863" y="1070.7058">Register for the Healthcare Application</text></g><g id="elem_Update User Profile"><ellipse cx="342.169" cy="1151.0338" fill="#F1F1F1" rx="83.169" ry="19.0338" style="stroke:#181818;stroke-width:0.5;"/><text fill="#000000" font-family="sans-serif" font-size="14" lengthAdjust="spacing" textLength="122" x="281.169" y="1154.7623">Update User Profile</text></g><g id="elem_Delete Account"><ellipse cx="342.0109" cy="1222.0022" fill="#F1F1F1" rx="73.0109" ry="17.0022" style="stroke:#181818;stroke-width:0.5;"/><text fill="#000000" font-family="sans-serif" font-size="14" lengthAdjust="spacing" textLength="96" x="291.0109" y="1226.5188">Delete Account</text></g><g id="elem_Login using IAM Credentials"><ellipse cx="341.7982" cy="1297.7596" fill="#F1F1F1" rx="106.7982" ry="23.7596" style="stroke:#181818;stroke-width:0.5;"/><text fill="#000000" font-family="sans-serif" font-size="14" lengthAdjust="spacing" textLength="176" x="253.7982" y="1301.4882">Login using IAM Credentials</text></g><!--entity Admin--><g id="elem_Admin"><ellipse cx="55" cy="416.5" fill="#F1F1F1" rx="8" ry="8" style="stroke:#181818;stroke-width:0.5;"/><path d="M55,424.5 L55,451.5 M42,432.5 L68,432.5 M55,451.5 L42,466.5 M55,451.5 L68,466.5 " fill="none" style="stroke:#181818;stroke-width:0.5;"/><text fill="#000000" font-family="sans-serif" font-size="14" lengthAdjust="spacing" textLength="39" x="35.5" y="482.5332">Admin</text></g><!--entity BackofficeUser--><g id="elem_BackofficeUser"><ellipse cx="55" cy="918.5" fill="#F1F1F1" rx="8" ry="8" style="stroke:#181818;stroke-width:0.5;"/><path d="M55,926.5 L55,953.5 M42,934.5 L68,934.5 M55,953.5 L42,968.5 M55,953.5 L68,968.5 " fill="none" style="stroke:#181818;stroke-width:0.5;"/><text fill="#000000" font-family="sans-serif" font-size="14" lengthAdjust="spacing" textLength="98" x="6" y="984.5332">Backoffice User</text></g><!--entity Patient--><g id="elem_Patient"><ellipse cx="55" cy="1156.5" fill="#F1F1F1" rx="8" ry="8" style="stroke:#181818;stroke-width:0.5;"/><path d="M55,1164.5 L55,1191.5 M42,1172.5 L68,1172.5 M55,1191.5 L42,1206.5 M55,1191.5 L68,1206.5 " fill="none" style="stroke:#181818;stroke-width:0.5;"/><text fill="#000000" font-family="sans-serif" font-size="14" lengthAdjust="spacing" textLength="44" x="33" y="1222.5332">Patient</text></g><!--entity Doctor--><g id="elem_Doctor"><ellipse cx="55" cy="1482.5" fill="#F1F1F1" rx="8" ry="8" style="stroke:#181818;stroke-width:0.5;"/><path d="M55,1490.5 L55,1517.5 M42,1498.5 L68,1498.5 M55,1517.5 L42,1532.5 M55,1517.5 L68,1532.5 " fill="none" style="stroke:#181818;stroke-width:0.5;"/><text fill="#000000" font-family="sans-serif" font-size="14" lengthAdjust="spacing" textLength="42" x="34" y="1548.5332">Doctor</text></g><!--link Admin to Register Backoffice Users--><g id="link_Admin_Register Backoffice Users"><path d="M56.29,407.82 C59.24,333.24 77.78,172.4 180,106 C201.86,91.8 222.5385,84.0098 247.6985,78.1098 " fill="none" id="Admin-to-Register Backoffice Users" style="stroke:#181818;stroke-width:1.0;"/><polygon fill="#181818" points="253.54,76.74,243.8645,74.9004,248.6721,77.8815,245.6909,82.6891,253.54,76.74" style="stroke:#181818;stroke-width:1.0;"/><text fill="#000000" font-family="sans-serif" font-size="13" lengthAdjust="spacing" textLength="29" x="138.5" y="114.4951">5.1.1</text></g><!--link Admin to Create Patient Profile--><g id="link_Admin_Create Patient Profile"><path d="M60.85,407.88 C70.8,346.73 99.81,230.49 180,182 C204.58,167.14 228.6381,159.2746 255.9981,153.7646 " fill="none" id="Admin-to-Create Patient Profile" style="stroke:#181818;stroke-width:1.0;"/><polygon fill="#181818" points="261.88,152.58,252.2674,150.4356,256.9784,153.5671,253.8468,158.2781,261.88,152.58" style="stroke:#181818;stroke-width:1.0;"/><text fill="#000000" font-family="sans-serif" font-size="13" lengthAdjust="spacing" textLength="29" x="138.5" y="187.4951">5.1.8</text></g><!--link Admin to Edit Patient Profile--><g id="link_Admin_Edit Patient Profile"><path d="M69.21,407.9 C86.79,362.51 122.5,289.37 180,254 C205.74,238.17 231.6894,230.302 260.2694,225.312 " fill="none" id="Admin-to-Edit Patient Profile" style="stroke:#181818;stroke-width:1.0;"/><polygon fill="#181818" points="266.18,224.28,256.6261,221.8876,261.2545,225.14,258.0021,229.7684,266.18,224.28" style="stroke:#181818;stroke-width:1.0;"/><text fill="#000000" font-family="sans-serif" font-size="13" lengthAdjust="spacing" textLength="29" x="138.5" y="257.4951">5.1.9</text></g><!--link Admin to Delete Patient Profile--><g id="link_Admin_Delete Patient Profile"><path d="M74.69,422.65 C96.84,395.55 136.29,352.5 180,329 C205.51,315.28 230.0744,307.796 257.5844,302.346 " fill="none" id="Admin-to-Delete Patient Profile" style="stroke:#181818;stroke-width:1.0;"/><polygon fill="#181818" points="263.47,301.18,253.8642,299.0053,258.5653,302.1517,255.4189,306.8527,263.47,301.18" style="stroke:#181818;stroke-width:1.0;"/><text fill="#000000" font-family="sans-serif" font-size="13" lengthAdjust="spacing" textLength="36" x="135" y="332.4951">5.1.10</text></g><!--link Admin to List/Search Patient Profiles--><g id="link_Admin_List/Search Patient Profiles"><path d="M74.78,440.27 C90.5,434.75 113.57,426.91 134,421 C178.26,408.19 222.5892,397.153 262.4492,387.783 " fill="none" id="Admin-to-List/Search Patient Profiles" style="stroke:#181818;stroke-width:1.0;"/><polygon fill="#181818" points="268.29,386.41,258.6135,384.5757,263.4227,387.5542,260.4442,392.3634,268.29,386.41" style="stroke:#181818;stroke-width:1.0;"/><text fill="#000000" font-family="sans-serif" font-size="13" lengthAdjust="spacing" textLength="36" x="135" y="408.4951">5.1.11</text></g><!--link Admin to Create Staff Profile--><g id="link_Admin_Create Staff Profile"><path d="M74.7,447 C111.54,447 189.48,447 253.34,447 " fill="none" id="Admin-to-Create Staff Profile" style="stroke:#181818;stroke-width:1.0;"/><polygon fill="#181818" points="259.34,447,250.34,443,254.34,447,250.34,451,259.34,447" style="stroke:#181818;stroke-width:1.0;"/><text fill="#000000" font-family="sans-serif" font-size="13" lengthAdjust="spacing" textLength="36" x="135" y="443.4951">5.1.12</text></g><!--link Admin to Edit Staff Profile--><g id="link_Admin_Edit Staff Profile"><path d="M74.75,453.85 C90.44,459.45 113.5,467.32 134,473 C184.02,486.86 235.86,498.206 277.62,506.686 " fill="none" id="Admin-to-Edit Staff Profile" style="stroke:#181818;stroke-width:1.0;"/><polygon fill="#181818" points="283.5,507.88,275.476,502.169,278.6,506.885,273.884,510.009,283.5,507.88" style="stroke:#181818;stroke-width:1.0;"/><text fill="#000000" font-family="sans-serif" font-size="13" lengthAdjust="spacing" textLength="36" x="135" y="469.4951">5.1.13</text></g><!--link Admin to Deactivate Staff Profile--><g id="link_Admin_Deactivate Staff Profile"><path d="M74.82,468.5 C97.39,492.9 137.51,532.16 180,554 C205.58,567.15 229.8749,574.7049 257.1349,580.5849 " fill="none" id="Admin-to-Deactivate Staff Profile" style="stroke:#181818;stroke-width:1.0;"/><polygon fill="#181818" points="263,581.85,255.0457,576.0423,258.1124,580.7957,253.3589,583.8624,263,581.85" style="stroke:#181818;stroke-width:1.0;"/><text fill="#000000" font-family="sans-serif" font-size="13" lengthAdjust="spacing" textLength="36" x="135" y="521.4951">5.1.14</text></g><!--link Admin to List/Search Staff Profiles--><g id="link_Admin_List/Search Staff Profiles"><path d="M71.04,486.1 C89.73,529.05 125.92,596.52 180,631 C202.58,645.4 224.1614,653.2805 249.9214,659.1805 " fill="none" id="Admin-to-List/Search Staff Profiles" style="stroke:#181818;stroke-width:1.0;"/><polygon fill="#181818" points="255.77,660.52,247.8902,654.6117,250.8962,659.4037,246.1041,662.4097,255.77,660.52" style="stroke:#181818;stroke-width:1.0;"/><text fill="#000000" font-family="sans-serif" font-size="13" lengthAdjust="spacing" textLength="36" x="135" y="588.4951">5.1.15</text></g><!--link Admin to Manage Operation Types--><g id="link_Admin_Manage Operation Types"><path d="M61.55,486.14 C72.37,546.16 102.47,659.32 180,710 C202.21,724.52 223.4122,732.5143 248.9422,738.5743 " fill="none" id="Admin-to-Manage Operation Types" style="stroke:#181818;stroke-width:1.0;"/><polygon fill="#181818" points="254.78,739.96,246.9471,733.9896,249.9152,738.8052,245.0995,741.7733,254.78,739.96" style="stroke:#181818;stroke-width:1.0;"/><text fill="#000000" font-family="sans-serif" font-size="13" lengthAdjust="spacing" textLength="36" x="135" y="665.4951">5.1.20</text></g><!--link Admin to List/Search Operation Types--><g id="link_Admin_List/Search Operation Types"><path d="M56.45,486.07 C59.7,560.53 78.71,721.5 180,791 C200.25,804.89 218.9956,812.6705 242.7556,818.8905 " fill="none" id="Admin-to-List/Search Operation Types" style="stroke:#181818;stroke-width:1.0;"/><polygon fill="#181818" points="248.56,820.41,240.8664,814.2611,243.723,819.1437,238.8404,822.0003,248.56,820.41" style="stroke:#181818;stroke-width:1.0;"/><text fill="#000000" font-family="sans-serif" font-size="13" lengthAdjust="spacing" textLength="36" x="135" y="748.4951">5.1.23</text></g><!--link BackofficeUser to Login to the System--><g id="link_BackofficeUser_Login to the System"><path d="M104.02,942.77 C148.84,936.95 210.3898,928.9515 261.9098,922.2715 " fill="none" id="BackofficeUser-to-Login to the System" style="stroke:#181818;stroke-width:1.0;"/><polygon fill="#181818" points="267.86,921.5,258.4204,918.6904,262.9015,922.1429,259.449,926.624,267.86,921.5" style="stroke:#181818;stroke-width:1.0;"/><text fill="#000000" font-family="sans-serif" font-size="13" lengthAdjust="spacing" textLength="29" x="138.5" y="931.4951">5.1.6</text></g><!--link BackofficeUser to Reset Password--><g id="link_BackofficeUser_Reset Password"><path d="M104.28,971.28 C113.93,974.85 124.14,978.01 134,980 C178.57,988.98 223.6427,990.2388 263.9027,989.0388 " fill="none" id="BackofficeUser-to-Reset Password" style="stroke:#181818;stroke-width:1.0;"/><polygon fill="#181818" points="269.9,988.86,260.7848,985.1299,264.9022,989.009,261.0232,993.1264,269.9,988.86" style="stroke:#181818;stroke-width:1.0;"/><text fill="#000000" font-family="sans-serif" font-size="13" lengthAdjust="spacing" textLength="29" x="138.5" y="976.4951">5.1.2</text></g><!--link Doctor to Request an Operation--><g id="link_Doctor_Request an Operation"><path d="M76.04,1492.75 C99.11,1470.6 139.1,1435.65 180,1416 C206.41,1403.32 231.4565,1395.9357 259.1065,1390.1657 " fill="none" id="Doctor-to-Request an Operation" style="stroke:#181818;stroke-width:1.0;"/><polygon fill="#181818" points="264.98,1388.94,255.3527,1386.8629,260.0854,1389.9614,256.9869,1394.6942,264.98,1388.94" style="stroke:#181818;stroke-width:1.0;"/><text fill="#000000" font-family="sans-serif" font-size="13" lengthAdjust="spacing" textLength="36" x="135" y="1418.4951">5.1.16</text></g><!--link Doctor to Update Operation Requisition--><g id="link_Doctor_Update Operation Requisition"><path d="M76.04,1509.13 C113.23,1501.96 188.9586,1487.3363 251.8486,1475.2063 " fill="none" id="Doctor-to-Update Operation Requisition" style="stroke:#181818;stroke-width:1.0;"/><polygon fill="#181818" points="257.74,1474.07,248.1453,1471.8469,252.8305,1475.0169,249.6604,1479.7021,257.74,1474.07" style="stroke:#181818;stroke-width:1.0;"/><text fill="#000000" font-family="sans-serif" font-size="13" lengthAdjust="spacing" textLength="36" x="135" y="1489.4951">5.1.17</text></g><!--link Doctor to Remove Operation Requisition--><g id="link_Doctor_Remove Operation Requisition"><path d="M76.32,1519.05 C91.95,1523.43 114.14,1529.08 134,1532 C164.26,1536.45 191.2585,1538.8405 221.8285,1540.4705 " fill="none" id="Doctor-to-Remove Operation Requisition" style="stroke:#181818;stroke-width:1.0;"/><polygon fill="#181818" points="227.82,1540.79,219.0457,1536.3165,222.8271,1540.5238,218.6198,1544.3051,227.82,1540.79" style="stroke:#181818;stroke-width:1.0;"/><text fill="#000000" font-family="sans-serif" font-size="13" lengthAdjust="spacing" textLength="36" x="135" y="1528.4951">5.1.18</text></g><!--link Doctor to List/Search Operation Requisitions--><g id="link_Doctor_List/Search Operation Requisitions"><path d="M76.16,1526.76 C91.7,1537.16 113.86,1551.55 134,1563 C153.87,1574.29 158.67,1577.77 180,1586 C204.37,1595.4 225.7159,1602.155 250.6659,1609.035 " fill="none" id="Doctor-to-List/Search Operation Requisitions" style="stroke:#181818;stroke-width:1.0;"/><polygon fill="#181818" points="256.45,1610.63,248.8371,1604.3815,251.6299,1609.3009,246.7105,1612.0936,256.45,1610.63" style="stroke:#181818;stroke-width:1.0;"/><text fill="#000000" font-family="sans-serif" font-size="13" lengthAdjust="spacing" textLength="36" x="135" y="1559.4951">5.1.19</text></g><!--link Patient to Register for the Healthcare Application--><g id="link_Patient_Register for the Healthcare Application"><path d="M77.09,1172.38 C101.1,1156.26 141.94,1130.46 180,1114 C202.05,1104.47 220.855,1097.8972 244.015,1091.0672 " fill="none" id="Patient-to-Register for the Healthcare Application" style="stroke:#181818;stroke-width:1.0;"/><polygon fill="#181818" points="249.77,1089.37,240.0061,1088.0791,244.9742,1090.7843,242.269,1095.7524,249.77,1089.37" style="stroke:#181818;stroke-width:1.0;"/><text fill="#000000" font-family="sans-serif" font-size="13" lengthAdjust="spacing" textLength="29" x="138.5" y="1115.4951">5.1.3</text></g><!--link Patient to Update User Profile--><g id="link_Patient_Update User Profile"><path d="M77.42,1184.29 C117.55,1179.23 199.7573,1168.8421 263.0773,1160.8421 " fill="none" id="Patient-to-Update User Profile" style="stroke:#181818;stroke-width:1.0;"/><polygon fill="#181818" points="269.03,1160.09,259.5996,1157.2497,264.0694,1160.7167,260.6024,1165.1866,269.03,1160.09" style="stroke:#181818;stroke-width:1.0;"/><text fill="#000000" font-family="sans-serif" font-size="13" lengthAdjust="spacing" textLength="29" x="138.5" y="1170.4951">5.1.4</text></g><!--link Patient to Delete Account--><g id="link_Patient_Delete Account"><path d="M77.21,1197.84 C92.55,1205.08 114,1213.97 134,1218 C179.28,1227.12 225.263,1228.2808 265.803,1226.9908 " fill="none" id="Patient-to-Delete Account" style="stroke:#181818;stroke-width:1.0;"/><polygon fill="#181818" points="271.8,1226.8,262.6773,1223.0883,266.8025,1226.959,262.9318,1231.0842,271.8,1226.8" style="stroke:#181818;stroke-width:1.0;"/><text fill="#000000" font-family="sans-serif" font-size="13" lengthAdjust="spacing" textLength="29" x="138.5" y="1214.4951">5.1.5</text></g><!--link Patient to Login using IAM Credentials--><g id="link_Patient_Login using IAM Credentials"><path d="M77.32,1208.71 C92.04,1222.49 112.72,1239.63 134,1250 C169.81,1267.46 206.3599,1277.5869 243.4599,1284.7869 " fill="none" id="Patient-to-Login using IAM Credentials" style="stroke:#181818;stroke-width:1.0;"/><polygon fill="#181818" points="249.35,1285.93,241.2769,1280.2886,244.4416,1284.9774,239.7528,1288.1421,249.35,1285.93" style="stroke:#181818;stroke-width:1.0;"/><text fill="#000000" font-family="sans-serif" font-size="13" lengthAdjust="spacing" textLength="29" x="138.5" y="1246.4951">5.1.7</text></g><!--SRC=[XPDTJy8m58RlzojEUgKNe20eU64onKGJYGJa1pJTsTQujRCj66ByxtPGsCO-tCs-tkUSlgTl4mmD60cAHx61W2jaXalXUPGPgS0FKYxSCtcax5E68MS8QusA0DLGVCi_EUM26ex2kBUPp6-UbvUc8aeGo0lInCICAeGv5JJ2rCfXjTC6Km8_7jXhtnfwlGUuM6B4xIy5PolGbt0FPDmVz0Vad7bII0qUbm8B9KEUu0cOr83dW9jM-RGcds627VK7rpNYpNguMY5LB3x7IaPQdQmC3SDwds6paHRrJOCFkqjysz5XrEca0fLyZ6lKOQVXFKD5yup1nouh4SFkYRLYrjAUgoRH5P2HhMNZRM9qyJg1jwGLMwB6F0jQVqiL5ArSfqEWZzAl3Me3L1GhB8RWUfI1THRaioxiv1MuvbNmZZHqIkNsNt1I1vkdMA9BkpPr5e_vh1w_q9RC9rawldwM9PnLRRkGLMeus_iPdoTirA1tnyjdJ6w4EKd73TB39cyq5n6y-dEmvoMmFpbD2cDsdh_U7m00]--></g></svg>