<?xml version="1.0" encoding="us-ascii" standalone="no"?><svg xmlns="http://www.w3.org/2000/svg" xmlns:xlink="http://www.w3.org/1999/xlink" contentStyleType="text/css" height="826px" preserveAspectRatio="none" style="width:857px;height:826px;background:#FFFFFF;" version="1.1" viewBox="0 0 857 826" width="857px" zoomAndPan="magnify"><defs/><g><rect fill="#FFFFFF" height="702.0859" style="stroke:#181818;stroke-width:1.0;" width="10" x="131" y="69.9609"/><rect fill="#FFFFFF" height="641.3828" style="stroke:#181818;stroke-width:1.0;" width="10" x="224" y="100.3125"/><rect fill="#FFFFFF" height="580.6797" style="stroke:#181818;stroke-width:1.0;" width="10" x="317" y="130.6641"/><rect fill="#FFFFFF" height="30.3516" style="stroke:#181818;stroke-width:1.0;" width="10" x="456" y="375.4766"/><rect fill="#FFFFFF" height="184.1094" style="stroke:#181818;stroke-width:1.0;" width="10" x="539.5" y="161.0156"/><rect fill="#FFFFFF" height="184.1094" style="stroke:#181818;stroke-width:1.0;" width="10" x="539.5" y="496.8828"/><rect fill="#FFFFFF" height="30.3516" style="stroke:#181818;stroke-width:1.0;" width="10" x="662.5" y="277.4219"/><rect fill="#FFFFFF" height="30.3516" style="stroke:#181818;stroke-width:1.0;" width="10" x="662.5" y="552.5859"/><rect fill="#FFFFFF" height="30.3516" style="stroke:#181818;stroke-width:1.0;" width="10" x="725.5" y="216.7188"/><rect fill="#FFFFFF" height="30.3516" style="stroke:#181818;stroke-width:1.0;" width="10" x="725.5" y="613.2891"/><rect fill="#FFFFFF" height="30.3516" style="stroke:#181818;stroke-width:1.0;" width="10" x="802" y="436.1797"/><rect fill="none" height="139.7578" style="stroke:#000000;stroke-width:1.5;" width="259" x="503.5" y="176.0156"/><rect fill="none" height="139.7578" style="stroke:#000000;stroke-width:1.5;" width="259" x="503.5" y="511.8828"/><line style="stroke:#181818;stroke-width:0.5;stroke-dasharray:5.0,5.0;" x1="135.5" x2="135.5" y1="37.6094" y2="790.0469"/><line style="stroke:#181818;stroke-width:0.5;stroke-dasharray:5.0,5.0;" x1="229" x2="229" y1="37.6094" y2="790.0469"/><line style="stroke:#181818;stroke-width:0.5;stroke-dasharray:5.0,5.0;" x1="321.5" x2="321.5" y1="37.6094" y2="790.0469"/><line style="stroke:#181818;stroke-width:0.5;stroke-dasharray:5.0,5.0;" x1="460.5" x2="460.5" y1="37.6094" y2="790.0469"/><line style="stroke:#181818;stroke-width:0.5;stroke-dasharray:5.0,5.0;" x1="544.5" x2="544.5" y1="37.6094" y2="790.0469"/><line style="stroke:#181818;stroke-width:0.5;stroke-dasharray:5.0,5.0;" x1="667.5" x2="667.5" y1="37.6094" y2="790.0469"/><line style="stroke:#181818;stroke-width:0.5;stroke-dasharray:5.0,5.0;" x1="730.5" x2="730.5" y1="37.6094" y2="790.0469"/><line style="stroke:#181818;stroke-width:0.5;stroke-dasharray:5.0,5.0;" x1="806.5" x2="806.5" y1="37.6094" y2="790.0469"/><rect fill="#E2E2F0" height="31.6094" rx="2.5" ry="2.5" style="stroke:#181818;stroke-width:0.5;" width="63" x="104.5" y="5"/><text fill="#000000" font-family="sans-serif" font-size="14" lengthAdjust="spacing" textLength="49" x="111.5" y="26.5332">Routing</text><rect fill="#E2E2F0" height="31.6094" rx="2.5" ry="2.5" style="stroke:#181818;stroke-width:0.5;" width="63" x="104.5" y="789.0469"/><text fill="#000000" font-family="sans-serif" font-size="14" lengthAdjust="spacing" textLength="49" x="111.5" y="810.5801">Routing</text><rect fill="#E2E2F0" height="31.6094" rx="2.5" ry="2.5" style="stroke:#181818;stroke-width:0.5;" width="76" x="191" y="5"/><text fill="#000000" font-family="sans-serif" font-size="14" lengthAdjust="spacing" textLength="62" x="198" y="26.5332">Controller</text><rect fill="#E2E2F0" height="31.6094" rx="2.5" ry="2.5" style="stroke:#181818;stroke-width:0.5;" width="76" x="191" y="789.0469"/><text fill="#000000" font-family="sans-serif" font-size="14" lengthAdjust="spacing" textLength="62" x="198" y="810.5801">Controller</text><rect fill="#E2E2F0" height="31.6094" rx="2.5" ry="2.5" style="stroke:#181818;stroke-width:0.5;" width="61" x="291.5" y="5"/><text fill="#000000" font-family="sans-serif" font-size="14" lengthAdjust="spacing" textLength="47" x="298.5" y="26.5332">Service</text><rect fill="#E2E2F0" height="31.6094" rx="2.5" ry="2.5" style="stroke:#181818;stroke-width:0.5;" width="61" x="291.5" y="789.0469"/><text fill="#000000" font-family="sans-serif" font-size="14" lengthAdjust="spacing" textLength="47" x="298.5" y="810.5801">Service</text><rect fill="#E2E2F0" height="31.6094" rx="2.5" ry="2.5" style="stroke:#181818;stroke-width:0.5;" width="85" x="418.5" y="5"/><text fill="#000000" font-family="sans-serif" font-size="14" lengthAdjust="spacing" textLength="71" x="425.5" y="26.5332">IRepository</text><rect fill="#E2E2F0" height="31.6094" rx="2.5" ry="2.5" style="stroke:#181818;stroke-width:0.5;" width="85" x="418.5" y="789.0469"/><text fill="#000000" font-family="sans-serif" font-size="14" lengthAdjust="spacing" textLength="71" x="425.5" y="810.5801">IRepository</text><rect fill="#E2E2F0" height="31.6094" rx="2.5" ry="2.5" style="stroke:#181818;stroke-width:0.5;" width="62" x="513.5" y="5"/><text fill="#000000" font-family="sans-serif" font-size="14" lengthAdjust="spacing" textLength="48" x="520.5" y="26.5332">Mapper</text><rect fill="#E2E2F0" height="31.6094" rx="2.5" ry="2.5" style="stroke:#181818;stroke-width:0.5;" width="62" x="513.5" y="789.0469"/><text fill="#000000" font-family="sans-serif" font-size="14" lengthAdjust="spacing" textLength="48" x="520.5" y="810.5801">Mapper</text><rect fill="#E2E2F0" height="31.6094" rx="2.5" ry="2.5" style="stroke:#181818;stroke-width:0.5;" width="62" x="636.5" y="5"/><text fill="#000000" font-family="sans-serif" font-size="14" lengthAdjust="spacing" textLength="48" x="643.5" y="26.5332">Domain</text><rect fill="#E2E2F0" height="31.6094" rx="2.5" ry="2.5" style="stroke:#181818;stroke-width:0.5;" width="62" x="636.5" y="789.0469"/><text fill="#000000" font-family="sans-serif" font-size="14" lengthAdjust="spacing" textLength="48" x="643.5" y="810.5801">Domain</text><rect fill="#E2E2F0" height="31.6094" rx="2.5" ry="2.5" style="stroke:#181818;stroke-width:0.5;" width="44" x="708.5" y="5"/><text fill="#000000" font-family="sans-serif" font-size="14" lengthAdjust="spacing" textLength="30" x="715.5" y="26.5332">DTO</text><rect fill="#E2E2F0" height="31.6094" rx="2.5" ry="2.5" style="stroke:#181818;stroke-width:0.5;" width="44" x="708.5" y="789.0469"/><text fill="#000000" font-family="sans-serif" font-size="14" lengthAdjust="spacing" textLength="30" x="715.5" y="810.5801">DTO</text><rect fill="#E2E2F0" height="31.6094" rx="2.5" ry="2.5" style="stroke:#181818;stroke-width:0.5;" width="89" x="762.5" y="5"/><text fill="#000000" font-family="sans-serif" font-size="14" lengthAdjust="spacing" textLength="75" x="769.5" y="26.5332">IUnitOfWork</text><rect fill="#E2E2F0" height="31.6094" rx="2.5" ry="2.5" style="stroke:#181818;stroke-width:0.5;" width="89" x="762.5" y="789.0469"/><text fill="#000000" font-family="sans-serif" font-size="14" lengthAdjust="spacing" textLength="75" x="769.5" y="810.5801">IUnitOfWork</text><rect fill="#FFFFFF" height="702.0859" style="stroke:#181818;stroke-width:1.0;" width="10" x="131" y="69.9609"/><rect fill="#FFFFFF" height="641.3828" style="stroke:#181818;stroke-width:1.0;" width="10" x="224" y="100.3125"/><rect fill="#FFFFFF" height="580.6797" style="stroke:#181818;stroke-width:1.0;" width="10" x="317" y="130.6641"/><rect fill="#FFFFFF" height="30.3516" style="stroke:#181818;stroke-width:1.0;" width="10" x="456" y="375.4766"/><rect fill="#FFFFFF" height="184.1094" style="stroke:#181818;stroke-width:1.0;" width="10" x="539.5" y="161.0156"/><rect fill="#FFFFFF" height="184.1094" style="stroke:#181818;stroke-width:1.0;" width="10" x="539.5" y="496.8828"/><rect fill="#FFFFFF" height="30.3516" style="stroke:#181818;stroke-width:1.0;" width="10" x="662.5" y="277.4219"/><rect fill="#FFFFFF" height="30.3516" style="stroke:#181818;stroke-width:1.0;" width="10" x="662.5" y="552.5859"/><rect fill="#FFFFFF" height="30.3516" style="stroke:#181818;stroke-width:1.0;" width="10" x="725.5" y="216.7188"/><rect fill="#FFFFFF" height="30.3516" style="stroke:#181818;stroke-width:1.0;" width="10" x="725.5" y="613.2891"/><rect fill="#FFFFFF" height="30.3516" style="stroke:#181818;stroke-width:1.0;" width="10" x="802" y="436.1797"/><polygon fill="#181818" points="119,65.9609,129,69.9609,119,73.9609,123,69.9609" style="stroke:#181818;stroke-width:1.0;"/><line style="stroke:#181818;stroke-width:1.0;" x1="0" x2="125" y1="69.9609" y2="69.9609"/><text fill="#000000" font-family="sans-serif" font-size="13" lengthAdjust="spacing" textLength="112" x="7" y="65.1045">HTTP POST /api/...</text><polygon fill="#181818" points="212,96.3125,222,100.3125,212,104.3125,216,100.3125" style="stroke:#181818;stroke-width:1.0;"/><line style="stroke:#181818;stroke-width:1.0;" x1="141" x2="218" y1="100.3125" y2="100.3125"/><text fill="#000000" font-family="sans-serif" font-size="13" lengthAdjust="spacing" textLength="64" x="148" y="95.4561">Create(dto)</text><polygon fill="#181818" points="305,126.6641,315,130.6641,305,134.6641,309,130.6641" style="stroke:#181818;stroke-width:1.0;"/><line style="stroke:#181818;stroke-width:1.0;" x1="234" x2="311" y1="130.6641" y2="130.6641"/><text fill="#000000" font-family="sans-serif" font-size="13" lengthAdjust="spacing" textLength="64" x="241" y="125.8076">Create(dto)</text><polygon fill="#181818" points="527.5,157.0156,537.5,161.0156,527.5,165.0156,531.5,161.0156" style="stroke:#181818;stroke-width:1.0;"/><line style="stroke:#181818;stroke-width:1.0;" x1="327" x2="533.5" y1="161.0156" y2="161.0156"/><text fill="#000000" font-family="sans-serif" font-size="13" lengthAdjust="spacing" textLength="84" x="334" y="156.1592">ToDomain(dto)</text><path d="M503.5,176.0156 L576.5,176.0156 L576.5,184.3672 L566.5,194.3672 L503.5,194.3672 L503.5,176.0156 " fill="#EEEEEE" style="stroke:#000000;stroke-width:1.5;"/><rect fill="none" height="139.7578" style="stroke:#000000;stroke-width:1.5;" width="259" x="503.5" y="176.0156"/><text fill="#000000" font-family="sans-serif" font-size="13" font-weight="bold" lengthAdjust="spacing" textLength="28" x="518.5" y="190.5107">loop</text><text fill="#000000" font-family="sans-serif" font-size="11" font-weight="bold" lengthAdjust="spacing" textLength="106" x="591.5" y="189.4346">[for each attribute:]</text><polygon fill="#181818" points="713.5,212.7188,723.5,216.7188,713.5,220.7188,717.5,216.7188" style="stroke:#181818;stroke-width:1.0;"/><line style="stroke:#181818;stroke-width:1.0;" x1="549.5" x2="719.5" y1="216.7188" y2="216.7188"/><text fill="#000000" font-family="sans-serif" font-size="13" lengthAdjust="spacing" textLength="72" x="556.5" y="211.8623">Get attribute</text><polygon fill="#181818" points="560.5,243.0703,550.5,247.0703,560.5,251.0703,556.5,247.0703" style="stroke:#181818;stroke-width:1.0;"/><line style="stroke:#181818;stroke-width:1.0;stroke-dasharray:2.0,2.0;" x1="554.5" x2="729.5" y1="247.0703" y2="247.0703"/><text fill="#000000" font-family="sans-serif" font-size="13" lengthAdjust="spacing" textLength="89" x="566.5" y="242.2139">Return attribute</text><polygon fill="#181818" points="650.5,273.4219,660.5,277.4219,650.5,281.4219,654.5,277.4219" style="stroke:#181818;stroke-width:1.0;"/><line style="stroke:#181818;stroke-width:1.0;" x1="549.5" x2="656.5" y1="277.4219" y2="277.4219"/><text fill="#000000" font-family="sans-serif" font-size="13" lengthAdjust="spacing" textLength="71" x="556.5" y="272.5654">Set attribute</text><polygon fill="#181818" points="560.5,303.7734,550.5,307.7734,560.5,311.7734,556.5,307.7734" style="stroke:#181818;stroke-width:1.0;"/><line style="stroke:#181818;stroke-width:1.0;stroke-dasharray:2.0,2.0;" x1="554.5" x2="666.5" y1="307.7734" y2="307.7734"/><text fill="#000000" font-family="sans-serif" font-size="13" lengthAdjust="spacing" textLength="89" x="566.5" y="302.917">Return attribute</text><polygon fill="#181818" points="338,341.125,328,345.125,338,349.125,334,345.125" style="stroke:#181818;stroke-width:1.0;"/><line style="stroke:#181818;stroke-width:1.0;stroke-dasharray:2.0,2.0;" x1="332" x2="543.5" y1="345.125" y2="345.125"/><text fill="#000000" font-family="sans-serif" font-size="13" lengthAdjust="spacing" textLength="42" x="344" y="340.2686">domain</text><polygon fill="#181818" points="444,371.4766,454,375.4766,444,379.4766,448,375.4766" style="stroke:#181818;stroke-width:1.0;"/><line style="stroke:#181818;stroke-width:1.0;" x1="327" x2="450" y1="375.4766" y2="375.4766"/><text fill="#000000" font-family="sans-serif" font-size="13" lengthAdjust="spacing" textLength="110" x="334" y="370.6201">AddAsync(domain)</text><polygon fill="#181818" points="338,401.8281,328,405.8281,338,409.8281,334,405.8281" style="stroke:#181818;stroke-width:1.0;"/><line style="stroke:#181818;stroke-width:1.0;stroke-dasharray:2.0,2.0;" x1="332" x2="460" y1="405.8281" y2="405.8281"/><text fill="#000000" font-family="sans-serif" font-size="13" lengthAdjust="spacing" textLength="12" x="344" y="400.9717">...</text><polygon fill="#181818" points="790,432.1797,800,436.1797,790,440.1797,794,436.1797" style="stroke:#181818;stroke-width:1.0;"/><line style="stroke:#181818;stroke-width:1.0;" x1="327" x2="796" y1="436.1797" y2="436.1797"/><text fill="#000000" font-family="sans-serif" font-size="13" lengthAdjust="spacing" textLength="90" x="334" y="431.3232">CommitAsync()</text><polygon fill="#181818" points="338,462.5313,328,466.5313,338,470.5313,334,466.5313" style="stroke:#181818;stroke-width:1.0;"/><line style="stroke:#181818;stroke-width:1.0;stroke-dasharray:2.0,2.0;" x1="332" x2="806" y1="466.5313" y2="466.5313"/><text fill="#000000" font-family="sans-serif" font-size="13" lengthAdjust="spacing" textLength="12" x="344" y="461.6748">...</text><polygon fill="#181818" points="527.5,492.8828,537.5,496.8828,527.5,500.8828,531.5,496.8828" style="stroke:#181818;stroke-width:1.0;"/><line style="stroke:#181818;stroke-width:1.0;" x1="327" x2="533.5" y1="496.8828" y2="496.8828"/><text fill="#000000" font-family="sans-serif" font-size="13" lengthAdjust="spacing" textLength="90" x="334" y="492.0264">ToDTO(domain)</text><path d="M503.5,511.8828 L576.5,511.8828 L576.5,520.2344 L566.5,530.2344 L503.5,530.2344 L503.5,511.8828 " fill="#EEEEEE" style="stroke:#000000;stroke-width:1.5;"/><rect fill="none" height="139.7578" style="stroke:#000000;stroke-width:1.5;" width="259" x="503.5" y="511.8828"/><text fill="#000000" font-family="sans-serif" font-size="13" font-weight="bold" lengthAdjust="spacing" textLength="28" x="518.5" y="526.3779">loop</text><text fill="#000000" font-family="sans-serif" font-size="11" font-weight="bold" lengthAdjust="spacing" textLength="106" x="591.5" y="525.3018">[for each attribute:]</text><polygon fill="#181818" points="650.5,548.5859,660.5,552.5859,650.5,556.5859,654.5,552.5859" style="stroke:#181818;stroke-width:1.0;"/><line style="stroke:#181818;stroke-width:1.0;" x1="549.5" x2="656.5" y1="552.5859" y2="552.5859"/><text fill="#000000" font-family="sans-serif" font-size="13" lengthAdjust="spacing" textLength="72" x="556.5" y="547.7295">Get attribute</text><polygon fill="#181818" points="560.5,578.9375,550.5,582.9375,560.5,586.9375,556.5,582.9375" style="stroke:#181818;stroke-width:1.0;"/><line style="stroke:#181818;stroke-width:1.0;stroke-dasharray:2.0,2.0;" x1="554.5" x2="666.5" y1="582.9375" y2="582.9375"/><text fill="#000000" font-family="sans-serif" font-size="13" lengthAdjust="spacing" textLength="89" x="566.5" y="578.0811">Return attribute</text><polygon fill="#181818" points="713.5,609.2891,723.5,613.2891,713.5,617.2891,717.5,613.2891" style="stroke:#181818;stroke-width:1.0;"/><line style="stroke:#181818;stroke-width:1.0;" x1="549.5" x2="719.5" y1="613.2891" y2="613.2891"/><text fill="#000000" font-family="sans-serif" font-size="13" lengthAdjust="spacing" textLength="71" x="556.5" y="608.4326">Set attribute</text><polygon fill="#181818" points="560.5,639.6406,550.5,643.6406,560.5,647.6406,556.5,643.6406" style="stroke:#181818;stroke-width:1.0;"/><line style="stroke:#181818;stroke-width:1.0;stroke-dasharray:2.0,2.0;" x1="554.5" x2="729.5" y1="643.6406" y2="643.6406"/><text fill="#000000" font-family="sans-serif" font-size="13" lengthAdjust="spacing" textLength="89" x="566.5" y="638.7842">Return attribute</text><polygon fill="#181818" points="338,676.9922,328,680.9922,338,684.9922,334,680.9922" style="stroke:#181818;stroke-width:1.0;"/><line style="stroke:#181818;stroke-width:1.0;stroke-dasharray:2.0,2.0;" x1="332" x2="543.5" y1="680.9922" y2="680.9922"/><text fill="#000000" font-family="sans-serif" font-size="13" lengthAdjust="spacing" textLength="18" x="344" y="676.1357">dto</text><polygon fill="#181818" points="245,707.3438,235,711.3438,245,715.3438,241,711.3438" style="stroke:#181818;stroke-width:1.0;"/><line style="stroke:#181818;stroke-width:1.0;stroke-dasharray:2.0,2.0;" x1="239" x2="321" y1="711.3438" y2="711.3438"/><text fill="#000000" font-family="sans-serif" font-size="13" lengthAdjust="spacing" textLength="18" x="251" y="706.4873">dto</text><polygon fill="#181818" points="152,737.6953,142,741.6953,152,745.6953,148,741.6953" style="stroke:#181818;stroke-width:1.0;"/><line style="stroke:#181818;stroke-width:1.0;stroke-dasharray:2.0,2.0;" x1="146" x2="228" y1="741.6953" y2="741.6953"/><text fill="#000000" font-family="sans-serif" font-size="13" lengthAdjust="spacing" textLength="43" x="158" y="736.8389">Ok(dto)</text><polygon fill="#181818" points="11,768.0469,1,772.0469,11,776.0469,7,772.0469" style="stroke:#181818;stroke-width:1.0;"/><line style="stroke:#181818;stroke-width:1.0;stroke-dasharray:2.0,2.0;" x1="5" x2="135" y1="772.0469" y2="772.0469"/><text fill="#000000" font-family="sans-serif" font-size="13" lengthAdjust="spacing" textLength="42" x="17" y="767.1904">200 Ok</text><!--SRC=[pLLBRy8m3BxtLqISsA60TaJJ9CGajiDKH3ljdBLXYu2a2WQ9Vxyy-d3w66piW4-9_Fdp5zUkSwg0fpod0iXW9G_0nUU0q3qfpa6E0NCfGCdjbYcBgQy-B6Rgo5DcCSNP1xoiM2xt7AGwkMJLrSUzqZmlShcZxtwIEyg5TRjZmvr4pfT4ZVHlWaEqVfTgOm7rDGZ2n_BfP4gUasH9bb6Sa37D-NWq6f60fi2F55XLeO1eAsDqU5qLpJ1NJ6E76SWxYwkYKUsimnYAr3n5vJf8FAAom9N7M1chQLpXD4iYNP5y7e-hABBdDBQLCYThgGYZwHUX08f_781DIGjfhCYeS-lAwyGB1dLCPqGbm7ogJeGnmnRY5wqO79Gumvsny-n8iIsHvev_8ThrNhzkntcTT9UZYM0YQ-SjN-FrKDOcGFHT7nxrK3sVcccMPRFzIQH3HzdJIcYaMm8HdIzI3rYVmZu-fB8UOpCpShVZu8JsICHZtvI8k2wMsCVNCun9z7C5_tqOozPUt6HhN_GhYM_fLtB5C8ByqoGsjmlcGHojbO0NYxVWeasz3H11SpazX24AkfzCTA1r17X2Yttu3G00]--></g></svg>