<?xml version="1.0" encoding="us-ascii" standalone="no"?><svg xmlns="http://www.w3.org/2000/svg" xmlns:xlink="http://www.w3.org/1999/xlink" contentStyleType="text/css" height="716px" preserveAspectRatio="none" style="width:440px;height:716px;background:#FFFFFF;" version="1.1" viewBox="0 0 440 716" width="440px" zoomAndPan="magnify"><defs/><g><text fill="#000000" font-family="sans-serif" font-size="14" font-weight="bold" lengthAdjust="spacing" textLength="285" x="76.5" y="29.5332">System Sequence Diagram (SSD) - UC007</text><rect fill="#FFFFFF" height="494.625" style="stroke:#181818;stroke-width:1.0;" width="10" x="40" y="131.2188"/><rect fill="#FFFFFF" height="30.3516" style="stroke:#181818;stroke-width:1.0;" width="10" x="267" y="153.5703"/><rect fill="#FFFFFF" height="30.3516" style="stroke:#181818;stroke-width:1.0;" width="10" x="267" y="214.2734"/><rect fill="#FFFFFF" height="91.0547" style="stroke:#181818;stroke-width:1.0;" width="10" x="267" y="372.0313"/><rect fill="#FFFFFF" height="30.3516" style="stroke:#181818;stroke-width:1.0;" width="10" x="267" y="493.4375"/><rect fill="#FFFFFF" height="30.3516" style="stroke:#181818;stroke-width:1.0;" width="10" x="267" y="579.4922"/><rect fill="#FFFFFF" height="66.7031" style="stroke:#181818;stroke-width:1.0;" width="10" x="382" y="274.9766"/><rect fill="#FFFFFF" height="30.3516" style="stroke:#181818;stroke-width:1.0;" width="10" x="382" y="402.3828"/><rect fill="none" height="79.0547" style="stroke:#000000;stroke-width:1.5;" width="304" x="10" y="538.7891"/><line style="stroke:#181818;stroke-width:0.5;stroke-dasharray:5.0,5.0;" x1="45" x2="45" y1="121.2188" y2="634.8438"/><line style="stroke:#181818;stroke-width:0.5;stroke-dasharray:5.0,5.0;" x1="272" x2="272" y1="121.2188" y2="634.8438"/><line style="stroke:#181818;stroke-width:0.5;stroke-dasharray:5.0,5.0;" x1="387" x2="387" y1="121.2188" y2="634.8438"/><text fill="#000000" font-family="sans-serif" font-size="14" lengthAdjust="spacing" textLength="44" x="20" y="118.1426">Patient</text><ellipse cx="45" cy="52.1094" fill="#E3E3E3" rx="8" ry="8" style="stroke:#181818;stroke-width:0.5;"/><path d="M45,60.1094 L45,87.1094 M32,68.1094 L58,68.1094 M45,87.1094 L32,102.1094 M45,87.1094 L58,102.1094 " fill="none" style="stroke:#181818;stroke-width:0.5;"/><text fill="#000000" font-family="sans-serif" font-size="14" lengthAdjust="spacing" textLength="44" x="20" y="648.377">Patient</text><ellipse cx="45" cy="659.9531" fill="#E3E3E3" rx="8" ry="8" style="stroke:#181818;stroke-width:0.5;"/><path d="M45,667.9531 L45,694.9531 M32,675.9531 L58,675.9531 M45,694.9531 L32,709.9531 M45,694.9531 L58,709.9531 " fill="none" style="stroke:#181818;stroke-width:0.5;"/><rect fill="#E3E3E3" height="31.6094" rx="2.5" ry="2.5" style="stroke:#181818;stroke-width:0.5;" width="64" x="240" y="88.6094"/><text fill="#000000" font-family="sans-serif" font-size="14" lengthAdjust="spacing" textLength="50" x="247" y="110.1426">:System</text><rect fill="#E3E3E3" height="31.6094" rx="2.5" ry="2.5" style="stroke:#181818;stroke-width:0.5;" width="64" x="240" y="633.8438"/><text fill="#000000" font-family="sans-serif" font-size="14" lengthAdjust="spacing" textLength="50" x="247" y="655.377">:System</text><rect fill="#E3E3E3" height="31.6094" rx="2.5" ry="2.5" style="stroke:#181818;stroke-width:0.5;" width="94" x="340" y="88.6094"/><text fill="#000000" font-family="sans-serif" font-size="14" lengthAdjust="spacing" textLength="80" x="347" y="110.1426">IAM Provider</text><rect fill="#E3E3E3" height="31.6094" rx="2.5" ry="2.5" style="stroke:#181818;stroke-width:0.5;" width="94" x="340" y="633.8438"/><text fill="#000000" font-family="sans-serif" font-size="14" lengthAdjust="spacing" textLength="80" x="347" y="655.377">IAM Provider</text><rect fill="#FFFFFF" height="494.625" style="stroke:#181818;stroke-width:1.0;" width="10" x="40" y="131.2188"/><rect fill="#FFFFFF" height="30.3516" style="stroke:#181818;stroke-width:1.0;" width="10" x="267" y="153.5703"/><rect fill="#FFFFFF" height="30.3516" style="stroke:#181818;stroke-width:1.0;" width="10" x="267" y="214.2734"/><rect fill="#FFFFFF" height="91.0547" style="stroke:#181818;stroke-width:1.0;" width="10" x="267" y="372.0313"/><rect fill="#FFFFFF" height="30.3516" style="stroke:#181818;stroke-width:1.0;" width="10" x="267" y="493.4375"/><rect fill="#FFFFFF" height="30.3516" style="stroke:#181818;stroke-width:1.0;" width="10" x="267" y="579.4922"/><rect fill="#FFFFFF" height="66.7031" style="stroke:#181818;stroke-width:1.0;" width="10" x="382" y="274.9766"/><rect fill="#FFFFFF" height="30.3516" style="stroke:#181818;stroke-width:1.0;" width="10" x="382" y="402.3828"/><polygon fill="#181818" points="255,149.5703,265,153.5703,255,157.5703,259,153.5703" style="stroke:#181818;stroke-width:1.0;"/><line style="stroke:#181818;stroke-width:1.0;" x1="50" x2="261" y1="153.5703" y2="153.5703"/><text fill="#000000" font-family="sans-serif" font-size="13" lengthAdjust="spacing" textLength="84" x="57" y="148.7139">Wants to login</text><polygon fill="#181818" points="61,179.9219,51,183.9219,61,187.9219,57,183.9219" style="stroke:#181818;stroke-width:1.0;"/><line style="stroke:#181818;stroke-width:1.0;stroke-dasharray:2.0,2.0;" x1="55" x2="271" y1="183.9219" y2="183.9219"/><text fill="#000000" font-family="sans-serif" font-size="13" lengthAdjust="spacing" textLength="126" x="67" y="179.0654">Provides IAM Provider</text><polygon fill="#181818" points="255,210.2734,265,214.2734,255,218.2734,259,214.2734" style="stroke:#181818;stroke-width:1.0;"/><line style="stroke:#181818;stroke-width:1.0;" x1="50" x2="261" y1="214.2734" y2="214.2734"/><text fill="#000000" font-family="sans-serif" font-size="13" lengthAdjust="spacing" textLength="114" x="57" y="209.417">Select IAM Provider</text><polygon fill="#181818" points="61,240.625,51,244.625,61,248.625,57,244.625" style="stroke:#181818;stroke-width:1.0;"/><line style="stroke:#181818;stroke-width:1.0;stroke-dasharray:2.0,2.0;" x1="55" x2="271" y1="244.625" y2="244.625"/><text fill="#000000" font-family="sans-serif" font-size="13" lengthAdjust="spacing" textLength="140" x="67" y="239.7686">Redirect to IAM Provider</text><polygon fill="#181818" points="370,270.9766,380,274.9766,370,278.9766,374,274.9766" style="stroke:#181818;stroke-width:1.0;"/><line style="stroke:#181818;stroke-width:1.0;" x1="50" x2="376" y1="274.9766" y2="274.9766"/><text fill="#000000" font-family="sans-serif" font-size="13" lengthAdjust="spacing" textLength="109" x="57" y="270.1201">Provide credentials</text><path d="M153,287.9766 L153,313.9766 L377,313.9766 L377,297.9766 L367,287.9766 L153,287.9766 " fill="#FAFAFA" style="stroke:#181818;stroke-width:0.5;"/><path d="M367,287.9766 L367,297.9766 L377,297.9766 L367,287.9766 " fill="#FAFAFA" style="stroke:#181818;stroke-width:0.5;"/><text fill="#000000" font-family="sans-serif" font-size="13" lengthAdjust="spacing" textLength="203" x="159" y="306.4717">credentials : {username, password}</text><polygon fill="#181818" points="61,337.6797,51,341.6797,61,345.6797,57,341.6797" style="stroke:#181818;stroke-width:1.0;"/><line style="stroke:#181818;stroke-width:1.0;stroke-dasharray:2.0,2.0;" x1="55" x2="386" y1="341.6797" y2="341.6797"/><text fill="#000000" font-family="sans-serif" font-size="13" lengthAdjust="spacing" textLength="198" x="67" y="336.8232">Authentication Successful (Token)</text><polygon fill="#181818" points="255,368.0313,265,372.0313,255,376.0313,259,372.0313" style="stroke:#181818;stroke-width:1.0;"/><line style="stroke:#181818;stroke-width:1.0;" x1="50" x2="261" y1="372.0313" y2="372.0313"/><text fill="#000000" font-family="sans-serif" font-size="13" lengthAdjust="spacing" textLength="114" x="57" y="367.1748">Redirect with Token</text><polygon fill="#181818" points="370,398.3828,380,402.3828,370,406.3828,374,402.3828" style="stroke:#181818;stroke-width:1.0;"/><line style="stroke:#181818;stroke-width:1.0;" x1="277" x2="376" y1="402.3828" y2="402.3828"/><text fill="#000000" font-family="sans-serif" font-size="13" lengthAdjust="spacing" textLength="86" x="284" y="397.5264">Validate Token</text><polygon fill="#181818" points="288,428.7344,278,432.7344,288,436.7344,284,432.7344" style="stroke:#181818;stroke-width:1.0;"/><line style="stroke:#181818;stroke-width:1.0;" x1="282" x2="386" y1="432.7344" y2="432.7344"/><text fill="#000000" font-family="sans-serif" font-size="13" lengthAdjust="spacing" textLength="68" x="294" y="427.8779">Token Valid</text><polygon fill="#181818" points="61,459.0859,51,463.0859,61,467.0859,57,463.0859" style="stroke:#181818;stroke-width:1.0;"/><line style="stroke:#181818;stroke-width:1.0;stroke-dasharray:2.0,2.0;" x1="55" x2="271" y1="463.0859" y2="463.0859"/><text fill="#000000" font-family="sans-serif" font-size="13" lengthAdjust="spacing" textLength="68" x="67" y="458.2295">Token Valid</text><polygon fill="#181818" points="255,489.4375,265,493.4375,255,497.4375,259,493.4375" style="stroke:#181818;stroke-width:1.0;"/><line style="stroke:#181818;stroke-width:1.0;" x1="50" x2="261" y1="493.4375" y2="493.4375"/><text fill="#000000" font-family="sans-serif" font-size="13" lengthAdjust="spacing" textLength="198" x="57" y="488.5811">Create Session and Grant Access</text><polygon fill="#181818" points="61,519.7891,51,523.7891,61,527.7891,57,523.7891" style="stroke:#181818;stroke-width:1.0;"/><line style="stroke:#181818;stroke-width:1.0;stroke-dasharray:2.0,2.0;" x1="55" x2="271" y1="523.7891" y2="523.7891"/><text fill="#000000" font-family="sans-serif" font-size="13" lengthAdjust="spacing" textLength="127" x="67" y="518.9326">Access Patient's data</text><path d="M10,538.7891 L71,538.7891 L71,547.1406 L61,557.1406 L10,557.1406 L10,538.7891 " fill="#EEEEEE" style="stroke:#000000;stroke-width:1.5;"/><rect fill="none" height="79.0547" style="stroke:#000000;stroke-width:1.5;" width="304" x="10" y="538.7891"/><text fill="#000000" font-family="sans-serif" font-size="13" font-weight="bold" lengthAdjust="spacing" textLength="16" x="25" y="553.2842">alt</text><text fill="#000000" font-family="sans-serif" font-size="11" font-weight="bold" lengthAdjust="spacing" textLength="158" x="86" y="552.208">[max inactivity time reached]</text><polygon fill="#181818" points="255,575.4922,265,579.4922,255,583.4922,259,579.4922" style="stroke:#181818;stroke-width:1.0;"/><line style="stroke:#181818;stroke-width:1.0;" x1="50" x2="261" y1="579.4922" y2="579.4922"/><text fill="#000000" font-family="sans-serif" font-size="13" lengthAdjust="spacing" textLength="178" x="57" y="574.6357">Session Expired after inactivity</text><polygon fill="#181818" points="61,605.8438,51,609.8438,61,613.8438,57,609.8438" style="stroke:#181818;stroke-width:1.0;"/><line style="stroke:#181818;stroke-width:1.0;stroke-dasharray:2.0,2.0;" x1="55" x2="271" y1="609.8438" y2="609.8438"/><text fill="#000000" font-family="sans-serif" font-size="13" lengthAdjust="spacing" textLength="151" x="67" y="604.9873">Re-authentication required</text><!--SRC=[dLHDRzim3BtxLn2zj0KMeBS1EGm8scBOeK0nx-DCIBGjH9OoYMuQ3Flle-IFn6dIjVD9bXuV-HufnRLn6mpOGkkTLqtmBG67ZeeudMnGhR6cadUM891YTBKz1CG6jTyQLqE5Db9Hi661bhl8r499lpfoYk3EO9tWLsLvTmqB-7vxS_EnA52n3_28RCWnO1oNXP2pKMQ3idsnxDak4g1Vpi-_h1xWCVWdeobaa6naRlE4J1Cdo3UcMdmQc9RmKpWYi0VhQ-CoQWeTii7m3QeM4ZqGBSV4EUbKnHIXwPZhN1abMR7t9SjxQlbAsgGc9JN_MOw4JPf01TAoRwIp6UUy15gg67oLJHvv3u2mXDzTfE2mfGyoFp5kVT1_CfISpXnpOOT4gUgPf5N7JM9Mik4Tb9rI56FLMRZwvjVahazfo_q_u_FaqTPm0vdZJJuFrln0QtI2xIFFYfa4xRFdg9va1Zig_hKcdw9u-vZT1ieeCJ7vYTAHpo7TebKszjqZruUD_vSHn1o4VnM6bg75Pp0k7nlU0PislJ2e6jhhEdbF-ihldpVIHmrOCOK3efSjEL9n_l8iS3viGLwlbECLDSDK_mK0]--></g></svg>