<?xml version="1.0" encoding="us-ascii" standalone="no"?><svg xmlns="http://www.w3.org/2000/svg" xmlns:xlink="http://www.w3.org/1999/xlink" contentStyleType="text/css" height="529px" preserveAspectRatio="none" style="width:3400px;height:529px;background:#FFFFFF;" version="1.1" viewBox="0 0 3400 529" width="3400px" zoomAndPan="magnify"><defs/><g><text fill="#000000" font-family="sans-serif" font-size="14" font-weight="bold" lengthAdjust="spacing" textLength="194" x="1596" y="24.5332">Domain Model (DM) - UC016</text><!--cluster UserAggregate--><g id="cluster_UserAggregate"><rect fill="#66CDAA" height="247" rx="2.5" ry="2.5" style="stroke:#000000;stroke-width:1.5;" width="505" x="192.5" y="45.6094"/><text fill="#000000" font-family="sans-serif" font-size="14" font-weight="bold" lengthAdjust="spacing" textLength="106" x="392" y="62.1426">UserAggregate</text></g><!--cluster PatientAggregate--><g id="cluster_PatientAggregate"><rect fill="#FFA07A" height="350.5" rx="2.5" ry="2.5" style="stroke:#000000;stroke-width:1.5;" width="432" x="780.5" y="173.1094"/><text fill="#000000" font-family="sans-serif" font-size="14" font-weight="bold" lengthAdjust="spacing" textLength="122" x="935.5" y="189.6426">PatientAggregate</text></g><!--cluster StaffAggregate--><g id="cluster_StaffAggregate"><rect fill="#FFC0CB" height="239.5" rx="2.5" ry="2.5" style="stroke:#000000;stroke-width:1.5;" width="530" x="1502.5" y="173.1094"/><text fill="#000000" font-family="sans-serif" font-size="14" font-weight="bold" lengthAdjust="spacing" textLength="105" x="1715" y="189.6426">StaffAggregate</text></g><!--cluster OperationRequestAggregate--><g id="cluster_OperationRequestAggregate"><rect fill="#FAFAD2" height="231" rx="2.5" ry="2.5" style="stroke:#000000;stroke-width:1.5;" width="662" x="2056.5" y="53.6094"/><text fill="#000000" font-family="sans-serif" font-size="14" font-weight="bold" lengthAdjust="spacing" textLength="202" x="2286.5" y="70.1426">OperationRequestAggregate</text></g><!--cluster OperationTypeAggregate--><g id="cluster_OperationTypeAggregate"><rect fill="#98FB98" height="338" rx="2.5" ry="2.5" style="stroke:#000000;stroke-width:1.5;" width="192" x="2742.5" y="173.1094"/><text fill="#000000" font-family="sans-serif" font-size="14" font-weight="bold" lengthAdjust="spacing" textLength="176" x="2750.5" y="189.6426">OperationTypeAggregate</text></g><!--class User--><g id="elem_User"><rect codeLine="16" fill="#F1F1F1" height="50.7031" id="User" rx="2.5" ry="2.5" style="stroke:#181818;stroke-width:0.5;" width="69" x="604" y="89.6094"/><text fill="#000000" font-family="sans-serif" font-size="12" font-style="italic" lengthAdjust="spacing" textLength="67" x="605" y="107.0664">&#171;root entity&#187;</text><text fill="#000000" font-family="sans-serif" font-size="14" lengthAdjust="spacing" textLength="29" x="624" y="124.2363">User</text><line style="stroke:#181818;stroke-width:0.5;" x1="605" x2="672" y1="132.3125" y2="132.3125"/></g><!--class Username--><g id="elem_Username"><rect codeLine="17" fill="#F1F1F1" height="50.7031" id="Username" rx="2.5" ry="2.5" style="stroke:#181818;stroke-width:0.5;" width="83" x="225" y="209.1094"/><text fill="#000000" font-family="sans-serif" font-size="12" font-style="italic" lengthAdjust="spacing" textLength="81" x="226" y="226.5664">&#171;value object&#187;</text><text fill="#000000" font-family="sans-serif" font-size="14" lengthAdjust="spacing" textLength="64" x="234.5" y="243.7363">Username</text><line style="stroke:#181818;stroke-width:0.5;" x1="226" x2="307" y1="251.8125" y2="251.8125"/></g><!--class Role--><g id="elem_Role"><rect codeLine="18" fill="#F1F1F1" height="68.3125" id="Role" rx="2.5" ry="2.5" style="stroke:#181818;stroke-width:0.5;" width="330" x="343.5" y="200.6094"/><text fill="#000000" font-family="sans-serif" font-size="12" font-style="italic" lengthAdjust="spacing" textLength="81" x="468" y="218.0664">&#171;value object&#187;</text><text fill="#000000" font-family="sans-serif" font-size="14" lengthAdjust="spacing" textLength="29" x="494" y="235.2363">Role</text><line style="stroke:#181818;stroke-width:0.5;" x1="344.5" x2="672.5" y1="243.3125" y2="243.3125"/><text fill="#000000" font-family="sans-serif" font-size="14" lengthAdjust="spacing" textLength="318" x="349.5" y="261.8457">ADMIN, DOCTOR, NURSE, TECHNICIAN, PATIENT</text></g><!--class Patient--><g id="elem_Patient"><rect codeLine="25" fill="#F1F1F1" height="50.7031" id="Patient" rx="2.5" ry="2.5" style="stroke:#181818;stroke-width:0.5;" width="69" x="797" y="209.1094"/><text fill="#000000" font-family="sans-serif" font-size="12" font-style="italic" lengthAdjust="spacing" textLength="67" x="798" y="226.5664">&#171;root entity&#187;</text><text fill="#000000" font-family="sans-serif" font-size="14" lengthAdjust="spacing" textLength="44" x="809.5" y="243.7363">Patient</text><line style="stroke:#181818;stroke-width:0.5;" x1="798" x2="865" y1="251.8125" y2="251.8125"/></g><!--class MedicalRecordNumber--><g id="elem_MedicalRecordNumber"><rect codeLine="26" fill="#F1F1F1" height="50.7031" id="MedicalRecordNumber" rx="2.5" ry="2.5" style="stroke:#181818;stroke-width:0.5;" width="149" x="901" y="209.1094"/><text fill="#000000" font-family="sans-serif" font-size="12" font-style="italic" lengthAdjust="spacing" textLength="81" x="935" y="226.5664">&#171;value object&#187;</text><text fill="#000000" font-family="sans-serif" font-size="14" lengthAdjust="spacing" textLength="143" x="904" y="243.7363">MedicalRecordNumber</text><line style="stroke:#181818;stroke-width:0.5;" x1="902" x2="1049" y1="251.8125" y2="251.8125"/></g><g id="elem_GMN12"><path d="M1085,221.6094 L1085,230.6094 L1050.28,234.6094 L1085,238.6094 L1085,247.9609 A0,0 0 0 0 1085,247.9609 L1196,247.9609 A0,0 0 0 0 1196,247.9609 L1196,231.6094 L1186,221.6094 L1085,221.6094 A0,0 0 0 0 1085,221.6094 " fill="#FEFFDD" style="stroke:#181818;stroke-width:0.5;"/><path d="M1186,221.6094 L1186,231.6094 L1196,231.6094 L1186,221.6094 " fill="#FEFFDD" style="stroke:#181818;stroke-width:0.5;"/><text fill="#000000" font-family="sans-serif" font-size="13" lengthAdjust="spacing" textLength="90" x="1091" y="240.1045">unique identifier</text></g><!--class AppointmentHistory--><g id="elem_AppointmentHistory"><rect codeLine="28" fill="#F1F1F1" height="50.7031" id="AppointmentHistory" rx="2.5" ry="2.5" style="stroke:#181818;stroke-width:0.5;" width="128" x="796.5" y="456.6094"/><text fill="#000000" font-family="sans-serif" font-size="12" font-style="italic" lengthAdjust="spacing" textLength="81" x="820" y="474.0664">&#171;value object&#187;</text><text fill="#000000" font-family="sans-serif" font-size="14" lengthAdjust="spacing" textLength="122" x="799.5" y="491.2363">AppointmentHistory</text><line style="stroke:#181818;stroke-width:0.5;" x1="797.5" x2="923.5" y1="499.3125" y2="499.3125"/></g><!--class Staff--><g id="elem_Staff"><rect codeLine="32" fill="#F1F1F1" height="50.7031" id="Staff" rx="2.5" ry="2.5" style="stroke:#181818;stroke-width:0.5;" width="69" x="1737" y="209.1094"/><text fill="#000000" font-family="sans-serif" font-size="12" font-style="italic" lengthAdjust="spacing" textLength="67" x="1738" y="226.5664">&#171;root entity&#187;</text><text fill="#000000" font-family="sans-serif" font-size="14" lengthAdjust="spacing" textLength="29" x="1757" y="243.7363">Staff</text><line style="stroke:#181818;stroke-width:0.5;" x1="1738" x2="1805" y1="251.8125" y2="251.8125"/></g><!--class LicenseNumber--><g id="elem_LicenseNumber"><rect codeLine="33" fill="#F1F1F1" height="50.7031" id="LicenseNumber" rx="2.5" ry="2.5" style="stroke:#181818;stroke-width:0.5;" width="104" x="1912.5" y="337.1094"/><text fill="#000000" font-family="sans-serif" font-size="12" font-style="italic" lengthAdjust="spacing" textLength="81" x="1924" y="354.5664">&#171;value object&#187;</text><text fill="#000000" font-family="sans-serif" font-size="14" lengthAdjust="spacing" textLength="98" x="1915.5" y="371.7363">LicenseNumber</text><line style="stroke:#181818;stroke-width:0.5;" x1="1913.5" x2="2015.5" y1="379.8125" y2="379.8125"/></g><g id="elem_GMN19"><path d="M1519,349.6094 L1519,375.9609 L1630,375.9609 L1630,359.6094 L1620,349.6094 L1519,349.6094 " fill="#FEFFDD" style="stroke:#181818;stroke-width:0.5;"/><path d="M1620,349.6094 L1620,359.6094 L1630,359.6094 L1620,349.6094 " fill="#FEFFDD" style="stroke:#181818;stroke-width:1.0;"/><text fill="#000000" font-family="sans-serif" font-size="13" lengthAdjust="spacing" textLength="90" x="1525" y="368.1045">unique identifier</text></g><!--class Specialization--><g id="elem_Specialization"><rect codeLine="35" fill="#F1F1F1" height="68.3125" id="Specialization" rx="2.5" ry="2.5" style="stroke:#181818;stroke-width:0.5;" width="212" x="1665.5" y="328.6094"/><text fill="#000000" font-family="sans-serif" font-size="12" font-style="italic" lengthAdjust="spacing" textLength="81" x="1731" y="346.0664">&#171;value object&#187;</text><text fill="#000000" font-family="sans-serif" font-size="14" lengthAdjust="spacing" textLength="86" x="1728.5" y="363.2363">Specialization</text><line style="stroke:#181818;stroke-width:0.5;" x1="1666.5" x2="1876.5" y1="371.3125" y2="371.3125"/><text fill="#000000" font-family="sans-serif" font-size="14" lengthAdjust="spacing" textLength="200" x="1671.5" y="389.8457">CARDIOLOGY, ORTHOPEDICS</text></g><!--class OperationRequest--><g id="elem_OperationRequest"><rect codeLine="41" fill="#F1F1F1" height="50.7031" id="OperationRequest" rx="2.5" ry="2.5" style="stroke:#181818;stroke-width:0.5;" width="122" x="2164.5" y="89.6094"/><text fill="#000000" font-family="sans-serif" font-size="12" font-style="italic" lengthAdjust="spacing" textLength="67" x="2192" y="107.0664">&#171;root entity&#187;</text><text fill="#000000" font-family="sans-serif" font-size="14" lengthAdjust="spacing" textLength="116" x="2167.5" y="124.2363">OperationRequest</text><line style="stroke:#181818;stroke-width:0.5;" x1="2165.5" x2="2285.5" y1="132.3125" y2="132.3125"/></g><!--class RequestID--><g id="elem_RequestID"><rect codeLine="42" fill="#F1F1F1" height="50.7031" id="RequestID" rx="2.5" ry="2.5" style="stroke:#181818;stroke-width:0.5;" width="83" x="2473" y="209.1094"/><text fill="#000000" font-family="sans-serif" font-size="12" font-style="italic" lengthAdjust="spacing" textLength="81" x="2474" y="226.5664">&#171;value object&#187;</text><text fill="#000000" font-family="sans-serif" font-size="14" lengthAdjust="spacing" textLength="66" x="2481.5" y="243.7363">RequestID</text><line style="stroke:#181818;stroke-width:0.5;" x1="2474" x2="2555" y1="251.8125" y2="251.8125"/></g><g id="elem_GMN26"><path d="M2591,221.6094 L2591,230.6094 L2556.27,234.6094 L2591,238.6094 L2591,247.9609 A0,0 0 0 0 2591,247.9609 L2702,247.9609 A0,0 0 0 0 2702,247.9609 L2702,231.6094 L2692,221.6094 L2591,221.6094 A0,0 0 0 0 2591,221.6094 " fill="#FEFFDD" style="stroke:#181818;stroke-width:0.5;"/><path d="M2692,221.6094 L2692,231.6094 L2702,231.6094 L2692,221.6094 " fill="#FEFFDD" style="stroke:#181818;stroke-width:0.5;"/><text fill="#000000" font-family="sans-serif" font-size="13" lengthAdjust="spacing" textLength="90" x="2597" y="240.1045">unique identifier</text></g><!--class DeadlineDate--><g id="elem_DeadlineDate"><rect codeLine="44" fill="#F1F1F1" height="50.7031" id="DeadlineDate" rx="2.5" ry="2.5" style="stroke:#181818;stroke-width:0.5;" width="92" x="2072.5" y="209.1094"/><text fill="#000000" font-family="sans-serif" font-size="12" font-style="italic" lengthAdjust="spacing" textLength="81" x="2078" y="226.5664">&#171;value object&#187;</text><text fill="#000000" font-family="sans-serif" font-size="14" lengthAdjust="spacing" textLength="86" x="2075.5" y="243.7363">DeadlineDate</text><line style="stroke:#181818;stroke-width:0.5;" x1="2073.5" x2="2163.5" y1="251.8125" y2="251.8125"/></g><!--class OperationPriority--><g id="elem_OperationPriority"><rect codeLine="45" fill="#F1F1F1" height="68.3125" id="OperationPriority" rx="2.5" ry="2.5" style="stroke:#181818;stroke-width:0.5;" width="238" x="2199.5" y="200.6094"/><text fill="#000000" font-family="sans-serif" font-size="12" font-style="italic" lengthAdjust="spacing" textLength="81" x="2278" y="218.0664">&#171;value object&#187;</text><text fill="#000000" font-family="sans-serif" font-size="14" lengthAdjust="spacing" textLength="107" x="2265" y="235.2363">OperationPriority</text><line style="stroke:#181818;stroke-width:0.5;" x1="2200.5" x2="2436.5" y1="243.3125" y2="243.3125"/><text fill="#000000" font-family="sans-serif" font-size="14" lengthAdjust="spacing" textLength="226" x="2205.5" y="261.8457">ELECTIVE, URGENT, EMERGENCY</text></g><!--class OperationType--><g id="elem_OperationType"><rect codeLine="51" fill="#F1F1F1" height="50.7031" id="OperationType" rx="2.5" ry="2.5" style="stroke:#181818;stroke-width:0.5;" width="101" x="2788" y="209.1094"/><text fill="#000000" font-family="sans-serif" font-size="12" font-style="italic" lengthAdjust="spacing" textLength="67" x="2805" y="226.5664">&#171;root entity&#187;</text><text fill="#000000" font-family="sans-serif" font-size="14" lengthAdjust="spacing" textLength="95" x="2791" y="243.7363">OperationType</text><line style="stroke:#181818;stroke-width:0.5;" x1="2789" x2="2888" y1="251.8125" y2="251.8125"/></g><!--class OperationTypeID--><g id="elem_OperationTypeID"><rect codeLine="52" fill="#F1F1F1" height="50.7031" id="OperationTypeID" rx="2.5" ry="2.5" style="stroke:#181818;stroke-width:0.5;" width="114" x="2781.5" y="337.1094"/><text fill="#000000" font-family="sans-serif" font-size="12" font-style="italic" lengthAdjust="spacing" textLength="81" x="2798" y="354.5664">&#171;value object&#187;</text><text fill="#000000" font-family="sans-serif" font-size="14" lengthAdjust="spacing" textLength="108" x="2784.5" y="371.7363">OperationTypeID</text><line style="stroke:#181818;stroke-width:0.5;" x1="2782.5" x2="2894.5" y1="379.8125" y2="379.8125"/></g><g id="elem_GMN34"><path d="M2783,469.1094 L2783,495.4609 A0,0 0 0 0 2783,495.4609 L2894,495.4609 A0,0 0 0 0 2894,495.4609 L2894,479.1094 L2884,469.1094 L2842.5,469.1094 L2838.5,388.2494 L2834.5,469.1094 L2783,469.1094 A0,0 0 0 0 2783,469.1094 " fill="#FEFFDD" style="stroke:#181818;stroke-width:0.5;"/><path d="M2884,469.1094 L2884,479.1094 L2894,479.1094 L2884,469.1094 " fill="#FEFFDD" style="stroke:#181818;stroke-width:0.5;"/><text fill="#000000" font-family="sans-serif" font-size="13" lengthAdjust="spacing" textLength="90" x="2789" y="487.6045">unique identifier</text></g><g id="elem_GMN6"><path d="M6,93.6094 L6,136.3125 L165,136.3125 L165,103.6094 L155,93.6094 L6,93.6094 " fill="#FEFFDD" style="stroke:#181818;stroke-width:0.5;"/><path d="M155,93.6094 L155,103.6094 L165,103.6094 L155,93.6094 " fill="#FEFFDD" style="stroke:#181818;stroke-width:1.0;"/><text fill="#000000" font-family="sans-serif" font-size="13" lengthAdjust="spacing" textLength="133" x="12" y="112.1045">managed using an IAM</text><text fill="#000000" font-family="sans-serif" font-size="13" lengthAdjust="spacing" textLength="138" x="12" y="128.4561">(external to the system)</text></g><!--class DateTime--><g id="elem_DateTime"><rect codeLine="56" fill="#F1F1F1" height="50.7031" id="DateTime" rx="2.5" ry="2.5" style="stroke:#181818;stroke-width:0.5;" width="83" x="3138" y="337.1094"/><text fill="#000000" font-family="sans-serif" font-size="12" font-style="italic" lengthAdjust="spacing" textLength="81" x="3139" y="354.5664">&#171;value object&#187;</text><text fill="#000000" font-family="sans-serif" font-size="14" lengthAdjust="spacing" textLength="61" x="3149" y="371.7363">DateTime</text><line style="stroke:#181818;stroke-width:0.5;" x1="3139" x2="3220" y1="379.8125" y2="379.8125"/></g><!--class Date--><g id="elem_Date"><rect codeLine="57" fill="#F1F1F1" height="50.7031" id="Date" rx="2.5" ry="2.5" style="stroke:#181818;stroke-width:0.5;" width="83" x="3223" y="456.6094"/><text fill="#000000" font-family="sans-serif" font-size="12" font-style="italic" lengthAdjust="spacing" textLength="81" x="3224" y="474.0664">&#171;value object&#187;</text><text fill="#000000" font-family="sans-serif" font-size="14" lengthAdjust="spacing" textLength="30" x="3249.5" y="491.2363">Date</text><line style="stroke:#181818;stroke-width:0.5;" x1="3224" x2="3305" y1="499.3125" y2="499.3125"/></g><!--class Time--><g id="elem_Time"><rect codeLine="58" fill="#F1F1F1" height="50.7031" id="Time" rx="2.5" ry="2.5" style="stroke:#181818;stroke-width:0.5;" width="83" x="3105" y="456.6094"/><text fill="#000000" font-family="sans-serif" font-size="12" font-style="italic" lengthAdjust="spacing" textLength="81" x="3106" y="474.0664">&#171;value object&#187;</text><text fill="#000000" font-family="sans-serif" font-size="14" lengthAdjust="spacing" textLength="31" x="3131" y="491.2363">Time</text><line style="stroke:#181818;stroke-width:0.5;" x1="3106" x2="3187" y1="499.3125" y2="499.3125"/></g><!--class Email--><g id="elem_Email"><rect fill="#F1F1F1" height="35.6094" id="Email" rx="2.5" ry="2.5" style="stroke:#181818;stroke-width:0.5;" width="40" x="721.5" y="216.6094"/><text fill="#000000" font-family="sans-serif" font-size="14" lengthAdjust="spacing" textLength="34" x="724.5" y="236.1426">Email</text><line style="stroke:#181818;stroke-width:0.5;" x1="722.5" x2="760.5" y1="244.2188" y2="244.2188"/></g><!--class ContactInformation--><g id="elem_ContactInformation"><rect fill="#F1F1F1" height="35.6094" id="ContactInformation" rx="2.5" ry="2.5" style="stroke:#181818;stroke-width:0.5;" width="125" x="2052" y="344.6094"/><text fill="#000000" font-family="sans-serif" font-size="14" lengthAdjust="spacing" textLength="119" x="2055" y="364.1426">ContactInformation</text><line style="stroke:#181818;stroke-width:0.5;" x1="2053" x2="2176" y1="372.2188" y2="372.2188"/></g><!--class AvailabilitySlots--><g id="elem_AvailabilitySlots"><rect fill="#F1F1F1" height="35.6094" id="AvailabilitySlots" rx="2.5" ry="2.5" style="stroke:#181818;stroke-width:0.5;" width="103" x="1229" y="344.6094"/><text fill="#000000" font-family="sans-serif" font-size="14" lengthAdjust="spacing" textLength="97" x="1232" y="364.1426">AvailabilitySlots</text><line style="stroke:#181818;stroke-width:0.5;" x1="1230" x2="1331" y1="372.2188" y2="372.2188"/></g><!--class AppointmentSlots--><g id="elem_AppointmentSlots"><rect fill="#F1F1F1" height="35.6094" id="AppointmentSlots" rx="2.5" ry="2.5" style="stroke:#181818;stroke-width:0.5;" width="116" x="1367.5" y="344.6094"/><text fill="#000000" font-family="sans-serif" font-size="14" lengthAdjust="spacing" textLength="110" x="1370.5" y="364.1426">AppointmentSlots</text><line style="stroke:#181818;stroke-width:0.5;" x1="1368.5" x2="1482.5" y1="372.2188" y2="372.2188"/></g><!--class OperationTypeName--><g id="elem_OperationTypeName"><rect fill="#F1F1F1" height="35.6094" id="OperationTypeName" rx="2.5" ry="2.5" style="stroke:#181818;stroke-width:0.5;" width="137" x="3256" y="344.6094"/><text fill="#000000" font-family="sans-serif" font-size="14" lengthAdjust="spacing" textLength="131" x="3259" y="364.1426">OperationTypeName</text><line style="stroke:#181818;stroke-width:0.5;" x1="3257" x2="3392" y1="372.2188" y2="372.2188"/></g><!--class RequiredStaff--><g id="elem_RequiredStaff"><rect fill="#F1F1F1" height="35.6094" id="RequiredStaff" rx="2.5" ry="2.5" style="stroke:#181818;stroke-width:0.5;" width="93" x="2633" y="344.6094"/><text fill="#000000" font-family="sans-serif" font-size="14" lengthAdjust="spacing" textLength="87" x="2636" y="364.1426">RequiredStaff</text><line style="stroke:#181818;stroke-width:0.5;" x1="2634" x2="2725" y1="372.2188" y2="372.2188"/></g><!--class OperationPhaseDetails--><g id="elem_OperationPhaseDetails"><rect fill="#F1F1F1" height="35.6094" id="OperationPhaseDetails" rx="2.5" ry="2.5" style="stroke:#181818;stroke-width:0.5;" width="152" x="2950.5" y="344.6094"/><text fill="#000000" font-family="sans-serif" font-size="14" lengthAdjust="spacing" textLength="146" x="2953.5" y="364.1426">OperationPhaseDetails</text><line style="stroke:#181818;stroke-width:0.5;" x1="2951.5" x2="3101.5" y1="372.2188" y2="372.2188"/></g><!--class OperationPhase--><g id="elem_OperationPhase"><rect fill="#F1F1F1" height="35.6094" id="OperationPhase" rx="2.5" ry="2.5" style="stroke:#181818;stroke-width:0.5;" width="109" x="2961" y="464.1094"/><text fill="#000000" font-family="sans-serif" font-size="14" lengthAdjust="spacing" textLength="103" x="2964" y="483.6426">OperationPhase</text><line style="stroke:#181818;stroke-width:0.5;" x1="2962" x2="3069" y1="491.7188" y2="491.7188"/></g><!--link GMN6 to UserAggregate--><g id="link_GMN6_UserAggregate"><path d="M165.06,115.6094 C174.635,115.6094 183.25,115.6094 189.5875,115.6094 C190.3797,115.6094 191.1363,115.6094 191.8547,115.6094 C192.0343,115.6094 192.2116,115.6094 192.3864,115.6094 " fill="none" id="GMN6-UserAggregate" style="stroke:#181818;stroke-width:1.0;stroke-dasharray:7.0,7.0;"/></g><!--link GMN19 to LicenseNumber--><g id="link_GMN19_LicenseNumber"><path d="M1574.5,349.3494 C1574.5,330.5994 1574.5,298.6094 1574.5,298.6094 C1574.5,298.6094 1947.17,298.6094 1947.17,298.6094 C1947.17,298.6094 1947.17,319.1394 1947.17,336.9494 " fill="none" id="GMN19-LicenseNumber" style="stroke:#181818;stroke-width:1.0;stroke-dasharray:7.0,7.0;"/></g><!--link DateTime to Date--><g id="link_DateTime_Date"><path codeLine="62" d="M3221.17,384.6094 C3231.41,384.6094 3239.5,384.6094 3239.5,384.6094 C3239.5,384.6094 3239.5,427.6094 3239.5,456.4894 " fill="none" id="DateTime-Date" style="stroke:#181818;stroke-width:1.0;"/><polygon fill="#000000" points="3209.7355,407.4101,3210.3482,397.9193,3204.6527,399.3717,3209.7355,407.4101" style="stroke:#000000;stroke-width:1.0;"/><text fill="#000000" font-family="sans-serif" font-size="13" lengthAdjust="spacing" textLength="21" x="3217.5" y="407.8845">has</text><text fill="#000000" font-family="sans-serif" font-size="13" lengthAdjust="spacing" textLength="7" x="3228.9336" y="384.5665">1</text><text fill="#000000" font-family="sans-serif" font-size="13" lengthAdjust="spacing" textLength="7" x="3225.5531" y="445.8686">1</text></g><!--link DateTime to Time--><g id="link_DateTime_Time"><path codeLine="63" d="M3163,388.2494 C3163,408.4094 3163,436.3694 3163,456.5194 " fill="none" id="DateTime-Time" style="stroke:#181818;stroke-width:1.0;"/><polygon fill="#000000" points="3132,418.5552,3134.9389,409.5101,3129.0611,409.5101,3132,418.5552" style="stroke:#000000;stroke-width:1.0;"/><text fill="#000000" font-family="sans-serif" font-size="13" lengthAdjust="spacing" textLength="21" x="3141" y="418.8745">has</text><text fill="#000000" font-family="sans-serif" font-size="13" lengthAdjust="spacing" textLength="7" x="3151.625" y="409.1742">1</text><text fill="#000000" font-family="sans-serif" font-size="13" lengthAdjust="spacing" textLength="7" x="3159.1688" y="445.906">1</text></g><!--link User to Username--><g id="link_User_Username"><path codeLine="65" d="M603.84,126.6094 C511.49,126.6094 266.5,126.6094 266.5,126.6094 C266.5,126.6094 266.5,177.0794 266.5,209.0194 " fill="none" id="User-Username" style="stroke:#181818;stroke-width:1.0;"/><polygon fill="#000000" points="310.1128,118.9717,319.597,119.6802,318.2021,113.9702,310.1128,118.9717" style="stroke:#000000;stroke-width:1.0;"/><text fill="#000000" font-family="sans-serif" font-size="13" lengthAdjust="spacing" textLength="69" x="323.97" y="123.1045">identified by</text><text fill="#000000" font-family="sans-serif" font-size="13" lengthAdjust="spacing" textLength="7" x="588.9695" y="124.8932">1</text><text fill="#000000" font-family="sans-serif" font-size="13" lengthAdjust="spacing" textLength="7" x="258.6469" y="198.406">1</text></g><!--link User to Email--><g id="link_User_Email"><path codeLine="66" d="M673.08,132.6094 C703.01,132.6094 741.5,132.6094 741.5,132.6094 C741.5,132.6094 741.5,187.0394 741.5,216.3694 " fill="none" id="User-Email" style="stroke:#181818;stroke-width:1.0;"/><polygon fill="#000000" points="713.6631,135.3275,710.2171,126.4632,705.6649,130.1816,713.6631,135.3275" style="stroke:#000000;stroke-width:1.0;"/><text fill="#000000" font-family="sans-serif" font-size="13" lengthAdjust="spacing" textLength="21" x="719.5" y="136.7745">has</text><text fill="#000000" font-family="sans-serif" font-size="13" lengthAdjust="spacing" textLength="7" x="680.934" y="132.1307">1</text><text fill="#000000" font-family="sans-serif" font-size="13" lengthAdjust="spacing" textLength="7" x="733.3844" y="205.6188">1</text></g><!--link User to Role--><g id="link_User_Role"><path codeLine="67" d="M638.5,140.7494 C638.5,158.1694 638.5,181.3994 638.5,200.3994 " fill="none" id="User-Role" style="stroke:#181818;stroke-width:1.0;"/><polygon fill="#000000" points="643.5,166.7452,646.4389,157.7001,640.5611,157.7001,643.5,166.7452" style="stroke:#000000;stroke-width:1.0;"/><text fill="#000000" font-family="sans-serif" font-size="13" lengthAdjust="spacing" textLength="77" x="652.5" y="167.0645">has assigned</text><text fill="#000000" font-family="sans-serif" font-size="13" lengthAdjust="spacing" textLength="5" x="632.9531" y="161.6742">*</text><text fill="#000000" font-family="sans-serif" font-size="13" lengthAdjust="spacing" textLength="7" x="655.6141" y="189.8519">1</text></g><!--reverse link User to Staff--><g id="link_User_Staff"><path codeLine="69" d="M679.29,106.6094 C868.59,106.6094 1760,106.6094 1760,106.6094 C1760,106.6094 1760,171.6594 1760,209.0094 " fill="none" id="User-backto-Staff" style="stroke:#181818;stroke-width:1.0;"/><polygon fill="#181818" points="673.29,106.6094,682.29,110.6094,678.29,106.6094,682.29,102.6094,673.29,106.6094" style="stroke:#181818;stroke-width:1.0;"/><polygon fill="#000000" points="1192.8723,97.3135,1201.5998,101.0926,1202.1543,95.2409,1192.8723,97.3135" style="stroke:#000000;stroke-width:1.0;"/><text fill="#000000" font-family="sans-serif" font-size="13" lengthAdjust="spacing" textLength="60" x="1206.85" y="103.1045">references</text><text fill="#000000" font-family="sans-serif" font-size="13" lengthAdjust="spacing" textLength="22" x="680.874" y="101.4254">0..1</text><text fill="#000000" font-family="sans-serif" font-size="13" lengthAdjust="spacing" textLength="22" x="1732.5156" y="198.3935">0..1</text></g><!--reverse link User to Patient--><g id="link_User_Patient"><path codeLine="70" d="M679.07,123.6094 C731.73,123.6094 820,123.6094 820,123.6094 C820,123.6094 820,176.0694 820,208.8694 " fill="none" id="User-backto-Patient" style="stroke:#181818;stroke-width:1.0;"/><polygon fill="#181818" points="673.07,123.6094,682.07,127.6094,678.07,123.6094,682.07,119.6094,673.07,123.6094" style="stroke:#181818;stroke-width:1.0;"/><polygon fill="#000000" points="789.882,112.197,796.0997,119.3936,799.1423,114.3644,789.882,112.197" style="stroke:#000000;stroke-width:1.0;"/><text fill="#000000" font-family="sans-serif" font-size="13" lengthAdjust="spacing" textLength="60" x="803.16" y="120.1045">references</text><text fill="#000000" font-family="sans-serif" font-size="13" lengthAdjust="spacing" textLength="22" x="680.9023" y="121.2462">0..1</text><text fill="#000000" font-family="sans-serif" font-size="13" lengthAdjust="spacing" textLength="7" x="809.3438" y="198.2194">1</text></g><!--link Patient to AppointmentHistory--><g id="link_Patient_AppointmentHistory"><path codeLine="72" d="M831.5,260.1594 C831.5,307.5894 831.5,408.7194 831.5,456.3194 " fill="none" id="Patient-AppointmentHistory" style="stroke:#181818;stroke-width:1.0;"/><polygon fill="#000000" points="800.5,354.4152,803.4389,345.3701,797.5611,345.3701,800.5,354.4152" style="stroke:#000000;stroke-width:1.0;"/><text fill="#000000" font-family="sans-serif" font-size="13" lengthAdjust="spacing" textLength="21" x="809.5" y="354.7345">has</text><text fill="#000000" font-family="sans-serif" font-size="13" lengthAdjust="spacing" textLength="7" x="823.6906" y="281.4879">1</text><text fill="#000000" font-family="sans-serif" font-size="13" lengthAdjust="spacing" textLength="7" x="816.5781" y="445.6572">1</text></g><!--link Staff to LicenseNumber--><g id="link_Staff_LicenseNumber"><path codeLine="74" d="M1806.23,243.6094 C1865.97,243.6094 1981.83,243.6094 1981.83,243.6094 C1981.83,243.6094 1981.83,302.1194 1981.83,337.0794 " fill="none" id="Staff-LicenseNumber" style="stroke:#181818;stroke-width:1.0;"/><polygon fill="#000000" points="1866.1837,237.1345,1859.5802,230.2902,1856.8183,235.4788,1866.1837,237.1345" style="stroke:#000000;stroke-width:1.0;"/><text fill="#000000" font-family="sans-serif" font-size="13" lengthAdjust="spacing" textLength="69" x="1870.77" y="240.1045">identified by</text><text fill="#000000" font-family="sans-serif" font-size="13" lengthAdjust="spacing" textLength="7" x="1814.1149" y="241.3776">1</text><text fill="#000000" font-family="sans-serif" font-size="13" lengthAdjust="spacing" textLength="7" x="1978.3739" y="326.0655">1</text></g><!--link Staff to Specialization--><g id="link_Staff_Specialization"><path codeLine="75" d="M1771.5,260.2094 C1771.5,279.7594 1771.5,306.8994 1771.5,328.3294 " fill="none" id="Staff-Specialization" style="stroke:#181818;stroke-width:1.0;"/><polygon fill="#000000" points="1740.5,290.4452,1743.4389,281.4001,1737.5611,281.4001,1740.5,290.4452" style="stroke:#000000;stroke-width:1.0;"/><text fill="#000000" font-family="sans-serif" font-size="13" lengthAdjust="spacing" textLength="21" x="1749.5" y="290.7645">has</text><text fill="#000000" font-family="sans-serif" font-size="13" lengthAdjust="spacing" textLength="5" x="1765.9531" y="281.1254">*</text><text fill="#000000" font-family="sans-serif" font-size="13" lengthAdjust="spacing" textLength="7" x="1763.8328" y="317.7686">1</text></g><!--link Staff to ContactInformation--><g id="link_Staff_ContactInformation"><path codeLine="76" d="M1806.28,226.6094 C1883.46,226.6094 2062.25,226.6094 2062.25,226.6094 C2062.25,226.6094 2062.25,307.5594 2062.25,344.5494 " fill="none" id="Staff-ContactInformation" style="stroke:#181818;stroke-width:1.0;"/><polygon fill="#000000" points="1966.7811,219.8775,1959.796,213.4232,1957.3363,218.7616,1966.7811,219.8775" style="stroke:#000000;stroke-width:1.0;"/><text fill="#000000" font-family="sans-serif" font-size="13" lengthAdjust="spacing" textLength="21" x="1971.24" y="223.1045">has</text><text fill="#000000" font-family="sans-serif" font-size="13" lengthAdjust="spacing" textLength="7" x="1814.1753" y="220.8714">1</text><text fill="#000000" font-family="sans-serif" font-size="13" lengthAdjust="spacing" textLength="7" x="2037.4797" y="333.8562">1</text></g><!--link Staff to AvailabilitySlots--><g id="link_Staff_AvailabilitySlots"><path codeLine="77" d="M1736.97,252.6094 C1625.21,252.6094 1280.5,252.6094 1280.5,252.6094 C1280.5,252.6094 1280.5,313.1994 1280.5,344.4494 " fill="none" id="Staff-AvailabilitySlots" style="stroke:#181818;stroke-width:1.0;"/><polygon fill="#000000" points="1426.9182,244.7714,1436.3653,245.8685,1435.2059,240.1061,1426.9182,244.7714" style="stroke:#000000;stroke-width:1.0;"/><text fill="#000000" font-family="sans-serif" font-size="13" lengthAdjust="spacing" textLength="21" x="1440.82" y="249.1045">has</text><text fill="#000000" font-family="sans-serif" font-size="13" lengthAdjust="spacing" textLength="7" x="1722.1263" y="252.2339">1</text><text fill="#000000" font-family="sans-serif" font-size="13" lengthAdjust="spacing" textLength="5" x="1274.7031" y="333.7243">*</text></g><!--link Staff to AppointmentSlots--><g id="link_Staff_AppointmentSlots"><path codeLine="78" d="M1736.74,256.6094 C1649,256.6094 1425.5,256.6094 1425.5,256.6094 C1425.5,256.6094 1425.5,313.7794 1425.5,344.1494 " fill="none" id="Staff-AppointmentSlots" style="stroke:#181818;stroke-width:1.0;"/><polygon fill="#000000" points="1501.5368,249.1389,1511.0397,249.5191,1509.4483,243.8608,1501.5368,249.1389" style="stroke:#000000;stroke-width:1.0;"/><text fill="#000000" font-family="sans-serif" font-size="13" lengthAdjust="spacing" textLength="21" x="1515.35" y="253.1045">has</text><text fill="#000000" font-family="sans-serif" font-size="13" lengthAdjust="spacing" textLength="7" x="1721.8489" y="276.3589">1</text><text fill="#000000" font-family="sans-serif" font-size="13" lengthAdjust="spacing" textLength="5" x="1419.7344" y="333.6548">*</text></g><!--link OperationRequest to RequestID--><g id="link_OperationRequest_RequestID"><path codeLine="80" d="M2286.79,123.6094 C2371.62,123.6094 2514.5,123.6094 2514.5,123.6094 C2514.5,123.6094 2514.5,176.0694 2514.5,208.8694 " fill="none" id="OperationRequest-RequestID" style="stroke:#181818;stroke-width:1.0;"/><polygon fill="#000000" points="2368.9525,116.5384,2361.5123,110.6144,2359.4512,116.1191,2368.9525,116.5384" style="stroke:#000000;stroke-width:1.0;"/><text fill="#000000" font-family="sans-serif" font-size="13" lengthAdjust="spacing" textLength="69" x="2373.27" y="120.1045">identified by</text><text fill="#000000" font-family="sans-serif" font-size="13" lengthAdjust="spacing" textLength="7" x="2294.6863" y="121.2049">1</text><text fill="#000000" font-family="sans-serif" font-size="13" lengthAdjust="spacing" textLength="7" x="2506.6469" y="198.2194">1</text></g><!--link OperationRequest to Patient--><g id="link_OperationRequest_Patient"><path codeLine="81" d="M2164.31,98.6094 C1896.76,98.6094 843,98.6094 843,98.6094 C843,98.6094 843,169.6294 843,209.0294 " fill="none" id="OperationRequest-Patient" style="stroke:#181818;stroke-width:1.0;"/><polygon fill="#000000" points="1412.4674,90.2015,1421.7258,92.377,1421.2363,86.5196,1412.4674,90.2015" style="stroke:#000000;stroke-width:1.0;"/><text fill="#000000" font-family="sans-serif" font-size="13" lengthAdjust="spacing" textLength="21" x="1426.45" y="95.1045">has</text><text fill="#000000" font-family="sans-serif" font-size="13" lengthAdjust="spacing" textLength="5" x="2151.5478" y="93.1581">*</text><text fill="#000000" font-family="sans-serif" font-size="13" lengthAdjust="spacing" textLength="7" x="837.95" y="198.4184">1</text></g><!--link OperationRequest to Staff--><g id="link_OperationRequest_Staff"><path codeLine="82" d="M2164.44,115.6094 C2043.05,115.6094 1783,115.6094 1783,115.6094 C1783,115.6094 1783,174.1194 1783,209.0794 " fill="none" id="OperationRequest-Staff" style="stroke:#181818;stroke-width:1.0;"/><polygon fill="#000000" points="1837.1237,107.9752,1846.6083,108.6769,1845.2094,102.9679,1837.1237,107.9752" style="stroke:#000000;stroke-width:1.0;"/><text fill="#000000" font-family="sans-serif" font-size="13" lengthAdjust="spacing" textLength="75" x="1850.98" y="112.1045">requested by</text><text fill="#000000" font-family="sans-serif" font-size="13" lengthAdjust="spacing" textLength="5" x="2151.6936" y="112.2299">*</text><text fill="#000000" font-family="sans-serif" font-size="13" lengthAdjust="spacing" textLength="7" x="1778.05" y="198.0655">1</text></g><!--link OperationRequest to OperationType--><g id="link_OperationRequest_OperationType"><path codeLine="83" d="M2286.52,106.6094 C2441.57,106.6094 2838.5,106.6094 2838.5,106.6094 C2838.5,106.6094 2838.5,171.6594 2838.5,209.0094 " fill="none" id="OperationRequest-OperationType" style="stroke:#181818;stroke-width:1.0;"/><polygon fill="#000000" points="2587.6261,98.6972,2579.2688,94.1577,2578.1967,99.9369,2587.6261,98.6972" style="stroke:#000000;stroke-width:1.0;"/><text fill="#000000" font-family="sans-serif" font-size="13" lengthAdjust="spacing" textLength="21" x="2591.71" y="103.1045">has</text><text fill="#000000" font-family="sans-serif" font-size="13" lengthAdjust="spacing" textLength="5" x="2294.6585" y="102.032">*</text><text fill="#000000" font-family="sans-serif" font-size="13" lengthAdjust="spacing" textLength="7" x="2830.6469" y="198.3935">1</text></g><!--link OperationRequest to DeadlineDate--><g id="link_OperationRequest_DeadlineDate"><path codeLine="84" d="M2170.75,140.7494 C2170.75,175.8594 2170.75,234.6094 2170.75,234.6094 C2170.75,234.6094 2168.43,234.6094 2164.76,234.6094 " fill="none" id="OperationRequest-DeadlineDate" style="stroke:#181818;stroke-width:1.0;"/><polygon fill="#000000" points="2139.4316,186.835,2142.9406,177.9955,2137.0747,177.6211,2139.4316,186.835" style="stroke:#000000;stroke-width:1.0;"/><text fill="#000000" font-family="sans-serif" font-size="13" lengthAdjust="spacing" textLength="21" x="2148.75" y="187.1645">has</text><text fill="#000000" font-family="sans-serif" font-size="13" lengthAdjust="spacing" textLength="5" x="2153.2266" y="161.6742">*</text><text fill="#000000" font-family="sans-serif" font-size="13" lengthAdjust="spacing" textLength="7" x="2172.3795" y="230.9291">1</text></g><!--link OperationRequest to OperationPriority--><g id="link_OperationRequest_OperationPriority"><path codeLine="85" d="M2243,140.7494 C2243,158.1694 2243,181.3994 2243,200.3994 " fill="none" id="OperationRequest-OperationPriority" style="stroke:#181818;stroke-width:1.0;"/><polygon fill="#000000" points="2248,166.7452,2250.9389,157.7001,2245.0611,157.7001,2248,166.7452" style="stroke:#000000;stroke-width:1.0;"/><text fill="#000000" font-family="sans-serif" font-size="13" lengthAdjust="spacing" textLength="21" x="2257" y="167.0645">has</text><text fill="#000000" font-family="sans-serif" font-size="13" lengthAdjust="spacing" textLength="5" x="2241.2813" y="161.6742">*</text><text fill="#000000" font-family="sans-serif" font-size="13" lengthAdjust="spacing" textLength="7" x="2220.9406" y="189.8519">1</text></g><!--link OperationType to OperationTypeID--><g id="link_OperationType_OperationTypeID"><path codeLine="87" d="M2838.5,260.2094 C2838.5,282.5294 2838.5,314.7494 2838.5,337.0594 " fill="none" id="OperationType-OperationTypeID" style="stroke:#181818;stroke-width:1.0;"/><polygon fill="#000000" points="2759.5,294.8052,2762.4389,285.7601,2756.5611,285.7601,2759.5,294.8052" style="stroke:#000000;stroke-width:1.0;"/><text fill="#000000" font-family="sans-serif" font-size="13" lengthAdjust="spacing" textLength="69" x="2768.5" y="295.1245">identified by</text><text fill="#000000" font-family="sans-serif" font-size="13" lengthAdjust="spacing" textLength="7" x="2830.7344" y="281.1254">1</text><text fill="#000000" font-family="sans-serif" font-size="13" lengthAdjust="spacing" textLength="7" x="2830.6469" y="326.4557">1</text></g><!--link OperationType to OperationTypeName--><g id="link_OperationType_OperationTypeName"><path codeLine="88" d="M2889.14,226.6094 C3013.61,226.6094 3324.5,226.6094 3324.5,226.6094 C3324.5,226.6094 3324.5,307.5594 3324.5,344.5494 " fill="none" id="OperationType-OperationTypeName" style="stroke:#181818;stroke-width:1.0;"/><polygon fill="#000000" points="3139.616,219.0925,3131.6541,213.8908,3130.1172,219.5641,3139.616,219.0925" style="stroke:#000000;stroke-width:1.0;"/><text fill="#000000" font-family="sans-serif" font-size="13" lengthAdjust="spacing" textLength="21" x="3143.79" y="223.1045">has</text><text fill="#000000" font-family="sans-serif" font-size="13" lengthAdjust="spacing" textLength="7" x="2897.0918" y="221.8021">1</text><text fill="#000000" font-family="sans-serif" font-size="13" lengthAdjust="spacing" textLength="7" x="3316.3844" y="333.8562">1</text></g><!--link OperationType to RequiredStaff--><g id="link_OperationType_RequiredStaff"><path codeLine="89" d="M2787.86,254.6094 C2753.39,254.6094 2714,254.6094 2714,254.6094 C2714,254.6094 2714,313.4794 2714,344.2894 " fill="none" id="OperationType-RequiredStaff" style="stroke:#181818;stroke-width:1.0;"/><polygon fill="#000000" points="2665.8213,275.5547,2673.8402,270.4411,2669.303,266.7043,2665.8213,275.5547" style="stroke:#000000;stroke-width:1.0;"/><text fill="#000000" font-family="sans-serif" font-size="13" lengthAdjust="spacing" textLength="35" x="2678" y="277.0145">needs</text><text fill="#000000" font-family="sans-serif" font-size="13" lengthAdjust="spacing" textLength="7" x="2772.9082" y="253.9146">1</text><text fill="#000000" font-family="sans-serif" font-size="13" lengthAdjust="spacing" textLength="7" x="2716.4938" y="333.8376">1</text></g><!--link OperationType to OperationPhaseDetails--><g id="link_OperationType_OperationPhaseDetails"><path codeLine="90" d="M2889.38,243.6094 C2945.05,243.6094 3026.5,243.6094 3026.5,243.6094 C3026.5,243.6094 3026.5,311.2494 3026.5,344.5394 " fill="none" id="OperationType-OperationPhaseDetails" style="stroke:#181818;stroke-width:1.0;"/><polygon fill="#000000" points="2981.4268,237.7491,2975.8845,230.0204,2972.4001,234.7541,2981.4268,237.7491" style="stroke:#000000;stroke-width:1.0;"/><text fill="#000000" font-family="sans-serif" font-size="13" lengthAdjust="spacing" textLength="21" x="2986.4" y="240.1045">has</text><text fill="#000000" font-family="sans-serif" font-size="13" lengthAdjust="spacing" textLength="7" x="2897.0272" y="241.2907">1</text><text fill="#000000" font-family="sans-serif" font-size="13" lengthAdjust="spacing" textLength="20" x="3003.3125" y="333.843">1..*</text></g><!--link OperationPhaseDetails to OperationPhase--><g id="link_OperationPhaseDetails_OperationPhase"><path codeLine="91" d="M3015.5,380.7594 C3015.5,403.2194 3015.5,441.2494 3015.5,463.7894 " fill="none" id="OperationPhaseDetails-OperationPhase" style="stroke:#181818;stroke-width:1.0;"/><polygon fill="#000000" points="2984.5,418.4452,2987.4389,409.4001,2981.5611,409.4001,2984.5,418.4452" style="stroke:#000000;stroke-width:1.0;"/><text fill="#000000" font-family="sans-serif" font-size="13" lengthAdjust="spacing" textLength="21" x="2993.5" y="418.7645">has</text><text fill="#000000" font-family="sans-serif" font-size="13" lengthAdjust="spacing" textLength="7" x="3004.4219" y="401.7135">1</text><text fill="#000000" font-family="sans-serif" font-size="13" lengthAdjust="spacing" textLength="7" x="3007.4281" y="453.3376">1</text></g><!--link OperationPhaseDetails to Time--><g id="link_OperationPhaseDetails_Time"><path codeLine="92" d="M3086.25,381.0394 C3086.25,409.4294 3086.25,460.6094 3086.25,460.6094 C3086.25,460.6094 3094.55,460.6094 3104.98,460.6094 " fill="none" id="OperationPhaseDetails-Time" style="stroke:#181818;stroke-width:1.0;"/><polygon fill="#000000" points="3056.3956,426.2321,3057.1839,416.7543,3051.4624,418.1011,3056.3956,426.2321" style="stroke:#000000;stroke-width:1.0;"/><text fill="#000000" font-family="sans-serif" font-size="13" lengthAdjust="spacing" textLength="21" x="3064.25" y="426.6845">has</text><text fill="#000000" font-family="sans-serif" font-size="13" lengthAdjust="spacing" textLength="7" x="3094.3672" y="401.7373">1</text><text fill="#000000" font-family="sans-serif" font-size="13" lengthAdjust="spacing" textLength="7" x="3089.9608" y="452.9076">1</text></g><!--SRC=[ZLPDJ-Cm4BtdLupO2w22uB87X92Y9898z4DfMGbfBsuoRRquTh5TsBBYl-yaQVFH98LUscRUpBptnfxMl72vPfgbi6Rn2rlYr6u5WiROChaKw9WIO5OiKUzSBc71XAb7Oi6CSQtLVBwn6CPAJla7mbKD8hX4krqZA6rNod44BYnO1PelLnOIdZNaIZfMhRF7SsMjIclFdHLF45AavCGKNsAkOoBeM6w9iQzInYKCLO82JltX6Lp0atTr_TDnTihWoQ1sbqkDIsOHVWmnuPlKVTsm8TD43_uvK4Z9aN1xgvMoW98QRE_k6a79KYJ06nCRaZJ_GonhY4Y9TZGl3-3wmt0q07_ipSRH04PFqJGOm2pm7aQX5xeKchYpC1ZD2FtfV3fI4TVSBRLeAhY1b4dIbS36P5DX4a9t-5kUub-RCHIPaNQ5OBR6OdfM6J5XbfEicXUFsHYcJAHArcpOuNgTo1oCcOWmLZePRT9vxbhBb5n2CMZIq95q0nl9Noc9naez5XnrsSDThnMNDgN00pTMwMsxnMSbRMhPOb4JDk7ofQOe3_VgUUGnIeDVADaFeu4-9c6wnfWpmJzOTfJx3eRdHduuVXpVFmzW7CqUnfF03xtfxXYK0iThr7cT2AcTQGtnNWbY4Ada6OLGxpNjXvczDkpYeV_rC4leCVq-iYIx_tx6ilVIbFGccYjDZFgC2Xu3RnR-eblp5DtJHHb0C0ooJzvphrapMZtrKy44tcj4sMLFXktrfe4wuj1kWP551nbTHX7ZdLF4RiQxLaiLxujrvz6hB7foVG8N5_bRNkW6xc35J2SW_xu7EFa-h4NB5PWXIY49pBSjQ41hMPILYkXv6SqtvIu8f88l9IRxVbUNbmIvpQ35n-Bsti0j_JujKAECqRInzBvVN0TGP_-yu5TWEnPCgRjeM5FJt11jzRk4Ik31tTzNRXNsbBGijg5SA9qUmr9fzuqiPNCkw6XEXRBc2BGIrqGwhMrG8rCjWBR2TbubjhAzQ78Ckv_b7Gqe3tvTldb3lzEaiNc-az1UGct3ykurjmvNmX7FZgQEMDf1yZ0b8qt_YfBAFucOz2PSNfxNLL5fzD7I-J7jLere5yiSyFsynWxv3m00]--></g></svg>