<?xml version="1.0" encoding="us-ascii" standalone="no"?><svg xmlns="http://www.w3.org/2000/svg" xmlns:xlink="http://www.w3.org/1999/xlink" contentStyleType="text/css" height="836px" preserveAspectRatio="none" style="width:2019px;height:836px;background:#FFFFFF;" version="1.1" viewBox="0 0 2019 836" width="2019px" zoomAndPan="magnify"><defs/><g><text fill="#000000" font-family="sans-serif" font-size="14" font-weight="bold" lengthAdjust="spacing" textLength="222" x="897.75" y="29.5332">Sequence Diagram (SD) - UC016</text><rect fill="#FFFFFF" height="547.625" style="stroke:#181818;stroke-width:1.0;" width="10" x="422" y="173.5313"/><rect fill="#FFFFFF" height="486.9219" style="stroke:#181818;stroke-width:1.0;" width="10" x="756" y="203.8828"/><rect fill="#FFFFFF" height="30.3516" style="stroke:#181818;stroke-width:1.0;" width="10" x="1127" y="266.9375"/><rect fill="#FFFFFF" height="90.7031" style="stroke:#181818;stroke-width:1.0;" width="10" x="1297" y="327.6406"/><rect fill="#FFFFFF" height="30" style="stroke:#181818;stroke-width:1.0;" width="10" x="1528.5" y="357.9922"/><rect fill="#FFFFFF" height="90.7031" style="stroke:#181818;stroke-width:1.0;" width="10" x="1724" y="448.6953"/><rect fill="#FFFFFF" height="90.7031" style="stroke:#181818;stroke-width:1.0;" width="10" x="1724" y="569.75"/><rect fill="#FFFFFF" height="30" style="stroke:#181818;stroke-width:1.0;" width="10" x="1918" y="479.0469"/><rect fill="#FFFFFF" height="30" style="stroke:#181818;stroke-width:1.0;" width="10" x="1918" y="600.1016"/><line style="stroke:#181818;stroke-width:0.5;stroke-dasharray:5.0,5.0;" x1="427" x2="427" y1="124.8281" y2="739.1563"/><line style="stroke:#181818;stroke-width:0.5;stroke-dasharray:5.0,5.0;" x1="760.5" x2="760.5" y1="124.8281" y2="739.1563"/><line style="stroke:#181818;stroke-width:0.5;stroke-dasharray:5.0,5.0;" x1="939.5" x2="939.5" y1="124.8281" y2="739.1563"/><line style="stroke:#181818;stroke-width:0.5;stroke-dasharray:5.0,5.0;" x1="1132" x2="1132" y1="124.8281" y2="739.1563"/><line style="stroke:#181818;stroke-width:0.5;stroke-dasharray:5.0,5.0;" x1="1302" x2="1302" y1="124.8281" y2="739.1563"/><line style="stroke:#181818;stroke-width:0.5;stroke-dasharray:5.0,5.0;" x1="1533" x2="1533" y1="124.8281" y2="739.1563"/><line style="stroke:#181818;stroke-width:0.5;stroke-dasharray:5.0,5.0;" x1="1729" x2="1729" y1="124.8281" y2="739.1563"/><line style="stroke:#181818;stroke-width:0.5;stroke-dasharray:5.0,5.0;" x1="1922.5" x2="1922.5" y1="124.8281" y2="739.1563"/><rect fill="#E2E2F0" height="49.2188" rx="2.5" ry="2.5" style="stroke:#181818;stroke-width:0.5;" width="192" x="331" y="74.6094"/><text fill="#000000" font-family="sans-serif" font-size="14" font-style="italic" lengthAdjust="spacing" textLength="84" x="385" y="96.1426">&#171;application&#187;</text><text fill="#000000" font-family="sans-serif" font-size="14" lengthAdjust="spacing" textLength="178" x="338" y="113.752">OperationRequestController</text><rect fill="#E2E2F0" height="49.2188" rx="2.5" ry="2.5" style="stroke:#181818;stroke-width:0.5;" width="192" x="331" y="738.1563"/><text fill="#000000" font-family="sans-serif" font-size="14" font-style="italic" lengthAdjust="spacing" textLength="84" x="385" y="759.6895">&#171;application&#187;</text><text fill="#000000" font-family="sans-serif" font-size="14" lengthAdjust="spacing" textLength="178" x="338" y="777.2988">OperationRequestController</text><rect fill="#E2E2F0" height="49.2188" rx="2.5" ry="2.5" style="stroke:#181818;stroke-width:0.5;" width="177" x="672.5" y="74.6094"/><text fill="#000000" font-family="sans-serif" font-size="14" font-style="italic" lengthAdjust="spacing" textLength="89" x="716.5" y="96.1426">&#171;persistence&#187;</text><text fill="#000000" font-family="sans-serif" font-size="14" lengthAdjust="spacing" textLength="163" x="679.5" y="113.752">OperationRequestService</text><rect fill="#E2E2F0" height="49.2188" rx="2.5" ry="2.5" style="stroke:#181818;stroke-width:0.5;" width="177" x="672.5" y="738.1563"/><text fill="#000000" font-family="sans-serif" font-size="14" font-style="italic" lengthAdjust="spacing" textLength="89" x="716.5" y="759.6895">&#171;persistence&#187;</text><text fill="#000000" font-family="sans-serif" font-size="14" lengthAdjust="spacing" textLength="163" x="679.5" y="777.2988">OperationRequestService</text><rect fill="#E2E2F0" height="49.2188" rx="2.5" ry="2.5" style="stroke:#181818;stroke-width:0.5;" width="160" x="859.5" y="74.6094"/><text fill="#000000" font-family="sans-serif" font-size="14" font-style="italic" lengthAdjust="spacing" textLength="44" x="917.5" y="96.1426">&#171;data&#187;</text><text fill="#000000" font-family="sans-serif" font-size="14" lengthAdjust="spacing" textLength="146" x="866.5" y="113.752">OperationRequestDTO</text><rect fill="#E2E2F0" height="49.2188" rx="2.5" ry="2.5" style="stroke:#181818;stroke-width:0.5;" width="160" x="859.5" y="738.1563"/><text fill="#000000" font-family="sans-serif" font-size="14" font-style="italic" lengthAdjust="spacing" textLength="44" x="917.5" y="759.6895">&#171;data&#187;</text><text fill="#000000" font-family="sans-serif" font-size="14" lengthAdjust="spacing" textLength="146" x="866.5" y="777.2988">OperationRequestDTO</text><rect fill="#E2E2F0" height="49.2188" rx="2.5" ry="2.5" style="stroke:#181818;stroke-width:0.5;" width="130" x="1067" y="74.6094"/><text fill="#000000" font-family="sans-serif" font-size="14" font-style="italic" lengthAdjust="spacing" textLength="62" x="1101" y="96.1426">&#171;domain&#187;</text><text fill="#000000" font-family="sans-serif" font-size="14" lengthAdjust="spacing" textLength="116" x="1074" y="113.752">OperationRequest</text><rect fill="#E2E2F0" height="49.2188" rx="2.5" ry="2.5" style="stroke:#181818;stroke-width:0.5;" width="130" x="1067" y="738.1563"/><text fill="#000000" font-family="sans-serif" font-size="14" font-style="italic" lengthAdjust="spacing" textLength="62" x="1101" y="759.6895">&#171;domain&#187;</text><text fill="#000000" font-family="sans-serif" font-size="14" lengthAdjust="spacing" textLength="116" x="1074" y="777.2988">OperationRequest</text><text fill="#000000" font-family="sans-serif" font-size="14" font-style="italic" lengthAdjust="spacing" textLength="79" x="1259.5" y="104.1426">&#171;repository&#187;</text><text fill="#000000" font-family="sans-serif" font-size="14" lengthAdjust="spacing" textLength="184" x="1207" y="121.752">OperationRequestRepository</text><path d="M1284,53.6094 C1284,43.6094 1302,43.6094 1302,43.6094 C1302,43.6094 1320,43.6094 1320,53.6094 L1320,79.6094 C1320,89.6094 1302,89.6094 1302,89.6094 C1302,89.6094 1284,89.6094 1284,79.6094 L1284,53.6094 " fill="#E2E2F0" style="stroke:#181818;stroke-width:1.5;"/><path d="M1284,53.6094 C1284,63.6094 1302,63.6094 1302,63.6094 C1302,63.6094 1320,63.6094 1320,53.6094 " fill="none" style="stroke:#181818;stroke-width:1.5;"/><text fill="#000000" font-family="sans-serif" font-size="14" font-style="italic" lengthAdjust="spacing" textLength="79" x="1259.5" y="752.6895">&#171;repository&#187;</text><text fill="#000000" font-family="sans-serif" font-size="14" lengthAdjust="spacing" textLength="184" x="1207" y="770.2988">OperationRequestRepository</text><path d="M1284,783.375 C1284,773.375 1302,773.375 1302,773.375 C1302,773.375 1320,773.375 1320,783.375 L1320,809.375 C1320,819.375 1302,819.375 1302,819.375 C1302,819.375 1284,819.375 1284,809.375 L1284,783.375 " fill="#E2E2F0" style="stroke:#181818;stroke-width:1.5;"/><path d="M1284,783.375 C1284,793.375 1302,793.375 1302,793.375 C1302,793.375 1320,793.375 1320,783.375 " fill="none" style="stroke:#181818;stroke-width:1.5;"/><rect fill="#E2E2F0" height="49.2188" rx="2.5" ry="2.5" style="stroke:#181818;stroke-width:0.5;" width="253" x="1407" y="74.6094"/><text fill="#000000" font-family="sans-serif" font-size="14" font-style="italic" lengthAdjust="spacing" textLength="71" x="1498" y="96.1426">&#171;interface&#187;</text><text fill="#000000" font-family="sans-serif" font-size="14" lengthAdjust="spacing" textLength="239" x="1414" y="113.752">InterfaceOperationRequestRepository</text><rect fill="#E2E2F0" height="49.2188" rx="2.5" ry="2.5" style="stroke:#181818;stroke-width:0.5;" width="253" x="1407" y="738.1563"/><text fill="#000000" font-family="sans-serif" font-size="14" font-style="italic" lengthAdjust="spacing" textLength="71" x="1498" y="759.6895">&#171;interface&#187;</text><text fill="#000000" font-family="sans-serif" font-size="14" lengthAdjust="spacing" textLength="239" x="1414" y="777.2988">InterfaceOperationRequestRepository</text><text fill="#000000" font-family="sans-serif" font-size="14" font-style="italic" lengthAdjust="spacing" textLength="79" x="1686.5" y="104.1426">&#171;repository&#187;</text><text fill="#000000" font-family="sans-serif" font-size="14" lengthAdjust="spacing" textLength="112" x="1670" y="121.752">PatientRepository</text><path d="M1711,53.6094 C1711,43.6094 1729,43.6094 1729,43.6094 C1729,43.6094 1747,43.6094 1747,53.6094 L1747,79.6094 C1747,89.6094 1729,89.6094 1729,89.6094 C1729,89.6094 1711,89.6094 1711,79.6094 L1711,53.6094 " fill="#E2E2F0" style="stroke:#181818;stroke-width:1.5;"/><path d="M1711,53.6094 C1711,63.6094 1729,63.6094 1729,63.6094 C1729,63.6094 1747,63.6094 1747,53.6094 " fill="none" style="stroke:#181818;stroke-width:1.5;"/><text fill="#000000" font-family="sans-serif" font-size="14" font-style="italic" lengthAdjust="spacing" textLength="79" x="1686.5" y="752.6895">&#171;repository&#187;</text><text fill="#000000" font-family="sans-serif" font-size="14" lengthAdjust="spacing" textLength="112" x="1670" y="770.2988">PatientRepository</text><path d="M1711,783.375 C1711,773.375 1729,773.375 1729,773.375 C1729,773.375 1747,773.375 1747,783.375 L1747,809.375 C1747,819.375 1729,819.375 1729,819.375 C1729,819.375 1711,819.375 1711,809.375 L1711,783.375 " fill="#E2E2F0" style="stroke:#181818;stroke-width:1.5;"/><path d="M1711,783.375 C1711,793.375 1729,793.375 1729,793.375 C1729,793.375 1747,793.375 1747,783.375 " fill="none" style="stroke:#181818;stroke-width:1.5;"/><rect fill="#E2E2F0" height="49.2188" rx="2.5" ry="2.5" style="stroke:#181818;stroke-width:0.5;" width="181" x="1832.5" y="74.6094"/><text fill="#000000" font-family="sans-serif" font-size="14" font-style="italic" lengthAdjust="spacing" textLength="71" x="1887.5" y="96.1426">&#171;interface&#187;</text><text fill="#000000" font-family="sans-serif" font-size="14" lengthAdjust="spacing" textLength="167" x="1839.5" y="113.752">InterfacePatientRepository</text><rect fill="#E2E2F0" height="49.2188" rx="2.5" ry="2.5" style="stroke:#181818;stroke-width:0.5;" width="181" x="1832.5" y="738.1563"/><text fill="#000000" font-family="sans-serif" font-size="14" font-style="italic" lengthAdjust="spacing" textLength="71" x="1887.5" y="759.6895">&#171;interface&#187;</text><text fill="#000000" font-family="sans-serif" font-size="14" lengthAdjust="spacing" textLength="167" x="1839.5" y="777.2988">InterfacePatientRepository</text><rect fill="#FFFFFF" height="547.625" style="stroke:#181818;stroke-width:1.0;" width="10" x="422" y="173.5313"/><rect fill="#FFFFFF" height="486.9219" style="stroke:#181818;stroke-width:1.0;" width="10" x="756" y="203.8828"/><rect fill="#FFFFFF" height="30.3516" style="stroke:#181818;stroke-width:1.0;" width="10" x="1127" y="266.9375"/><rect fill="#FFFFFF" height="90.7031" style="stroke:#181818;stroke-width:1.0;" width="10" x="1297" y="327.6406"/><rect fill="#FFFFFF" height="30" style="stroke:#181818;stroke-width:1.0;" width="10" x="1528.5" y="357.9922"/><rect fill="#FFFFFF" height="90.7031" style="stroke:#181818;stroke-width:1.0;" width="10" x="1724" y="448.6953"/><rect fill="#FFFFFF" height="90.7031" style="stroke:#181818;stroke-width:1.0;" width="10" x="1724" y="569.75"/><rect fill="#FFFFFF" height="30" style="stroke:#181818;stroke-width:1.0;" width="10" x="1918" y="479.0469"/><rect fill="#FFFFFF" height="30" style="stroke:#181818;stroke-width:1.0;" width="10" x="1918" y="600.1016"/><polygon fill="#181818" points="410,169.5313,420,173.5313,410,177.5313,414,173.5313" style="stroke:#181818;stroke-width:1.0;"/><line style="stroke:#181818;stroke-width:1.0;stroke-dasharray:2.0,2.0;" x1="0" x2="416" y1="173.5313" y2="173.5313"/><text fill="#000000" font-family="sans-serif" font-size="13" lengthAdjust="spacing" textLength="164" x="7" y="152.3232">POST /api/operation-request</text><text fill="#000000" font-family="sans-serif" font-size="13" lengthAdjust="spacing" textLength="403" x="7" y="168.6748">Body: {doctorId, patientId, operationType, priority, suggestedDeadline}</text><polygon fill="#181818" points="744,199.8828,754,203.8828,744,207.8828,748,203.8828" style="stroke:#181818;stroke-width:1.0;"/><line style="stroke:#181818;stroke-width:1.0;" x1="432" x2="750" y1="203.8828" y2="203.8828"/><text fill="#000000" font-family="sans-serif" font-size="13" lengthAdjust="spacing" textLength="86" x="439" y="199.0264">AddAsync(dto)</text><polygon fill="#181818" points="1115,262.9375,1125,266.9375,1115,270.9375,1119,266.9375" style="stroke:#181818;stroke-width:1.0;"/><line style="stroke:#181818;stroke-width:1.0;" x1="766" x2="1121" y1="266.9375" y2="266.9375"/><text fill="#000000" font-family="sans-serif" font-size="13" lengthAdjust="spacing" textLength="342" x="773" y="229.3779">new OperationRequest(dto.getDoctorId(), dto.getPatientId(),</text><text fill="#000000" font-family="sans-serif" font-size="13" lengthAdjust="spacing" textLength="233" x="773" y="245.7295">dto.getOperationType(), dto.getPriority(),</text><text fill="#000000" font-family="sans-serif" font-size="13" lengthAdjust="spacing" textLength="164" x="773" y="262.0811">dot.getSuggestedDeadline())</text><polygon fill="#181818" points="777,293.2891,767,297.2891,777,301.2891,773,297.2891" style="stroke:#181818;stroke-width:1.0;"/><line style="stroke:#181818;stroke-width:1.0;stroke-dasharray:2.0,2.0;" x1="771" x2="1131" y1="297.2891" y2="297.2891"/><text fill="#000000" font-family="sans-serif" font-size="13" lengthAdjust="spacing" textLength="101" x="783" y="292.4326">operationRequest</text><polygon fill="#181818" points="1285,323.6406,1295,327.6406,1285,331.6406,1289,327.6406" style="stroke:#181818;stroke-width:1.0;"/><line style="stroke:#181818;stroke-width:1.0;" x1="766" x2="1291" y1="327.6406" y2="327.6406"/><text fill="#000000" font-family="sans-serif" font-size="13" lengthAdjust="spacing" textLength="169" x="773" y="322.7842">AddAsync(operationRequest)</text><polygon fill="#181818" points="1516.5,353.9922,1526.5,357.9922,1516.5,361.9922,1520.5,357.9922" style="stroke:#181818;stroke-width:1.0;"/><line style="stroke:#181818;stroke-width:1.0;" x1="1307" x2="1522.5" y1="357.9922" y2="357.9922"/><text fill="#000000" font-family="sans-serif" font-size="13" lengthAdjust="spacing" textLength="169" x="1314" y="353.1357">AddAsync(operationRequest)</text><polygon fill="#181818" points="777,414.3438,767,418.3438,777,422.3438,773,418.3438" style="stroke:#181818;stroke-width:1.0;"/><line style="stroke:#181818;stroke-width:1.0;stroke-dasharray:2.0,2.0;" x1="771" x2="1301" y1="418.3438" y2="418.3438"/><text fill="#000000" font-family="sans-serif" font-size="13" lengthAdjust="spacing" textLength="101" x="783" y="413.4873">operationRequest</text><polygon fill="#181818" points="1712,444.6953,1722,448.6953,1712,452.6953,1716,448.6953" style="stroke:#181818;stroke-width:1.0;"/><line style="stroke:#181818;stroke-width:1.0;" x1="766" x2="1718" y1="448.6953" y2="448.6953"/><text fill="#000000" font-family="sans-serif" font-size="13" lengthAdjust="spacing" textLength="165" x="773" y="443.8389">GetAsync(dto.getPatientId())</text><polygon fill="#181818" points="1906,475.0469,1916,479.0469,1906,483.0469,1910,479.0469" style="stroke:#181818;stroke-width:1.0;"/><line style="stroke:#181818;stroke-width:1.0;" x1="1734" x2="1912" y1="479.0469" y2="479.0469"/><text fill="#000000" font-family="sans-serif" font-size="13" lengthAdjust="spacing" textLength="165" x="1741" y="474.1904">GetAsync(dto.getPatientId())</text><polygon fill="#181818" points="777,535.3984,767,539.3984,777,543.3984,773,539.3984" style="stroke:#181818;stroke-width:1.0;"/><line style="stroke:#181818;stroke-width:1.0;stroke-dasharray:2.0,2.0;" x1="771" x2="1728" y1="539.3984" y2="539.3984"/><text fill="#000000" font-family="sans-serif" font-size="13" lengthAdjust="spacing" textLength="39" x="783" y="534.542">patient</text><polygon fill="#181818" points="1712,565.75,1722,569.75,1712,573.75,1716,569.75" style="stroke:#181818;stroke-width:1.0;"/><line style="stroke:#181818;stroke-width:1.0;" x1="766" x2="1718" y1="569.75" y2="569.75"/><text fill="#000000" font-family="sans-serif" font-size="13" lengthAdjust="spacing" textLength="525" x="773" y="564.8936">UpdateAsync(patient.AddOperationRequestToMedicalHistory(operationRequest.ToString()))</text><polygon fill="#181818" points="1906,596.1016,1916,600.1016,1906,604.1016,1910,600.1016" style="stroke:#181818;stroke-width:1.0;"/><line style="stroke:#181818;stroke-width:1.0;" x1="1734" x2="1912" y1="600.1016" y2="600.1016"/><text fill="#000000" font-family="sans-serif" font-size="13" lengthAdjust="spacing" textLength="125" x="1741" y="595.2451">UpdateAsync(patient)</text><polygon fill="#181818" points="777,656.4531,767,660.4531,777,664.4531,773,660.4531" style="stroke:#181818;stroke-width:1.0;"/><line style="stroke:#181818;stroke-width:1.0;stroke-dasharray:2.0,2.0;" x1="771" x2="1728" y1="660.4531" y2="660.4531"/><text fill="#000000" font-family="sans-serif" font-size="13" lengthAdjust="spacing" textLength="39" x="783" y="655.5967">patient</text><polygon fill="#181818" points="443,686.8047,433,690.8047,443,694.8047,439,690.8047" style="stroke:#181818;stroke-width:1.0;"/><line style="stroke:#181818;stroke-width:1.0;stroke-dasharray:2.0,2.0;" x1="437" x2="760" y1="690.8047" y2="690.8047"/><text fill="#000000" font-family="sans-serif" font-size="13" lengthAdjust="spacing" textLength="300" x="449" y="685.9482">new OperationRequestDto(operationRequest.getId())</text><polygon fill="#181818" points="11,717.1563,1,721.1563,11,725.1563,7,721.1563" style="stroke:#181818;stroke-width:1.0;"/><line style="stroke:#181818;stroke-width:1.0;stroke-dasharray:2.0,2.0;" x1="5" x2="426" y1="721.1563" y2="721.1563"/><text fill="#000000" font-family="sans-serif" font-size="13" lengthAdjust="spacing" textLength="70" x="17" y="716.2998">201 Created</text><!--SRC=[tLOzRzim4DtrApZQWEKu7JeOWW7N1beFXOt8sR8muaKbef0gUKwW5ltlFTgoIdrOKJrqg1QBvBjtxtYFekspL3at_8NbF7dcASHOPC0C9CXLca5WAu3zneL-aofbJpop_aec5M2H0yjrLhX1u2qc6RTsYMZaum5XasWLon_0Pa604YbL3DyFe19WQybJ5p2ArsCMillLxFPZ4109oaJcN27Rvc0uIgtkN8p5bLPeT9Q1OTmoRnH5FCypcHp1YqKlIGpcLL9wOZY_HX5XhBJeTBqJljvlNQZxYIB1aR-3FuBr2vVAuOyl5E427xc55lmEScqbQbEum9xLA3BLe25Xen3C4q-Wdtm8B8ha6UMhtX4SL8ElFJb4OoTLpsfTKH262zy8SxRRndjsmtDveyzbXUPKruFwf4KnPp-5JeXh8oPq28xyxhM2xydPj6AaDXAB2RE7DALe46lWmhdzLy0JbAySmKiT18mUJme9A_qrPqiXbhPGoKYW7X-15KE9EOMxvsnAYZ_vPiuKlBMiuAYcAU2wh6Kqdh1oQdSkYkOUL3cvzSlpmMMT9wn6DnStAnwDnvM-Ilb9NJNldjgWT7teRuHkL54B4D3axjgKosxrzhcPfqF-PPxB9VMS558su40DabYJEUIKNfBRsDG1LDULVas7UpHqTRtr8PYppu3LeMhOlgFTBOAWfgpzeV4RUctsxawsfGnfsjyNuBUb_D1TwaOFUNyJxdEw5E2q4sMEALcysTsz_Wg2xkVi2zso5DXo_tIlO_hBe5BQld_GlGxP_sdNQlTZzrMoHjtk1rcwxcKlR-tEYiAmVWD_cDsobG42Yg0H-0Vt6m00]--></g></svg>