<?xml version="1.0" encoding="us-ascii" standalone="no"?><svg xmlns="http://www.w3.org/2000/svg" xmlns:xlink="http://www.w3.org/1999/xlink" contentStyleType="text/css" height="655px" preserveAspectRatio="none" style="width:2168px;height:655px;background:#FFFFFF;" version="1.1" viewBox="0 0 2168 655" width="2168px" zoomAndPan="magnify"><defs/><g><text fill="#000000" font-family="sans-serif" font-size="14" font-weight="bold" lengthAdjust="spacing" textLength="190" x="982.25" y="24.5332">Class Diagram (CD) - UC016</text><!--class OperationRequestController--><g id="elem_OperationRequestController"><rect codeLine="8" fill="#F1F1F1" height="65.6094" id="OperationRequestController" rx="2.5" ry="2.5" style="stroke:#181818;stroke-width:0.5;" width="306" x="741" y="45.6094"/><ellipse cx="800.75" cy="61.6094" fill="#ADD1B2" rx="11" ry="11" style="stroke:#181818;stroke-width:1.0;"/><path d="M803.5156,57.4844 Q803.6719,57.2656 803.8594,57.1563 Q804.0469,57.0469 804.2656,57.0469 Q804.6406,57.0469 804.875,57.3125 Q805.1094,57.5625 805.1094,58.1719 L805.1094,59.625 Q805.1094,60.2344 804.875,60.5 Q804.6406,60.7656 804.2656,60.7656 Q803.9219,60.7656 803.7188,60.5625 Q803.5156,60.375 803.4063,59.8594 Q803.3594,59.5 803.1719,59.3125 Q802.8438,58.9375 802.2344,58.7188 Q801.625,58.5 801,58.5 Q800.2344,58.5 799.5938,58.8281 Q798.9688,59.1563 798.4688,59.9063 Q797.9844,60.6563 797.9844,61.6875 L797.9844,62.7813 Q797.9844,64.0156 798.875,64.8438 Q799.7656,65.6563 801.3594,65.6563 Q802.2969,65.6563 802.9531,65.4063 Q803.3438,65.25 803.7656,64.8125 Q804.0313,64.5469 804.1719,64.4688 Q804.3281,64.3906 804.5313,64.3906 Q804.8594,64.3906 805.1094,64.6563 Q805.375,64.9063 805.375,65.25 Q805.375,65.5938 805.0313,66 Q804.5313,66.5781 803.7344,66.9063 Q802.6563,67.3594 801.3594,67.3594 Q799.8438,67.3594 798.6406,66.7344 Q797.6563,66.2344 796.9688,65.1719 Q796.2813,64.0938 796.2813,62.8125 L796.2813,61.6563 Q796.2813,60.3281 796.8906,59.1875 Q797.5156,58.0313 798.6094,57.4219 Q799.7031,56.7969 800.9375,56.7969 Q801.6719,56.7969 802.3125,56.9688 Q802.9688,57.125 803.5156,57.4844 Z " fill="#000000"/><text fill="#000000" font-family="sans-serif" font-size="14" lengthAdjust="spacing" textLength="178" x="821.25" y="67.3379">OperationRequestController</text><line style="stroke:#181818;stroke-width:0.5;" x1="742" x2="1046" y1="77.6094" y2="77.6094"/><line style="stroke:#181818;stroke-width:0.5;" x1="742" x2="1046" y1="85.6094" y2="85.6094"/><text fill="#000000" font-family="sans-serif" font-size="14" lengthAdjust="spacing" textLength="294" x="747" y="104.1426">+AddAsync(dto: OperationRequestDTO): Task</text></g><!--class OperationRequestService--><g id="elem_OperationRequestService"><rect codeLine="12" fill="#F1F1F1" height="65.6094" id="OperationRequestService" rx="2.5" ry="2.5" style="stroke:#181818;stroke-width:0.5;" width="306" x="741" y="189.6094"/><ellipse cx="808.25" cy="205.6094" fill="#ADD1B2" rx="11" ry="11" style="stroke:#181818;stroke-width:1.0;"/><path d="M811.0156,201.4844 Q811.1719,201.2656 811.3594,201.1563 Q811.5469,201.0469 811.7656,201.0469 Q812.1406,201.0469 812.375,201.3125 Q812.6094,201.5625 812.6094,202.1719 L812.6094,203.625 Q812.6094,204.2344 812.375,204.5 Q812.1406,204.7656 811.7656,204.7656 Q811.4219,204.7656 811.2188,204.5625 Q811.0156,204.375 810.9063,203.8594 Q810.8594,203.5 810.6719,203.3125 Q810.3438,202.9375 809.7344,202.7188 Q809.125,202.5 808.5,202.5 Q807.7344,202.5 807.0938,202.8281 Q806.4688,203.1563 805.9688,203.9063 Q805.4844,204.6563 805.4844,205.6875 L805.4844,206.7813 Q805.4844,208.0156 806.375,208.8438 Q807.2656,209.6563 808.8594,209.6563 Q809.7969,209.6563 810.4531,209.4063 Q810.8438,209.25 811.2656,208.8125 Q811.5313,208.5469 811.6719,208.4688 Q811.8281,208.3906 812.0313,208.3906 Q812.3594,208.3906 812.6094,208.6563 Q812.875,208.9063 812.875,209.25 Q812.875,209.5938 812.5313,210 Q812.0313,210.5781 811.2344,210.9063 Q810.1563,211.3594 808.8594,211.3594 Q807.3438,211.3594 806.1406,210.7344 Q805.1563,210.2344 804.4688,209.1719 Q803.7813,208.0938 803.7813,206.8125 L803.7813,205.6563 Q803.7813,204.3281 804.3906,203.1875 Q805.0156,202.0313 806.1094,201.4219 Q807.2031,200.7969 808.4375,200.7969 Q809.1719,200.7969 809.8125,200.9688 Q810.4688,201.125 811.0156,201.4844 Z " fill="#000000"/><text fill="#000000" font-family="sans-serif" font-size="14" lengthAdjust="spacing" textLength="163" x="828.75" y="211.3379">OperationRequestService</text><line style="stroke:#181818;stroke-width:0.5;" x1="742" x2="1046" y1="221.6094" y2="221.6094"/><line style="stroke:#181818;stroke-width:0.5;" x1="742" x2="1046" y1="229.6094" y2="229.6094"/><text fill="#000000" font-family="sans-serif" font-size="14" lengthAdjust="spacing" textLength="294" x="747" y="248.1426">+AddAsync(dto: OperationRequestDTO): Task</text></g><!--class OperationRequestDTO--><g id="elem_OperationRequestDTO"><rect codeLine="16" fill="#F1F1F1" height="136.0469" id="OperationRequestDTO" rx="2.5" ry="2.5" style="stroke:#181818;stroke-width:0.5;" width="248" x="7" y="333.6094"/><ellipse cx="53.75" cy="349.6094" fill="#ADD1B2" rx="11" ry="11" style="stroke:#181818;stroke-width:1.0;"/><path d="M56.5156,345.4844 Q56.6719,345.2656 56.8594,345.1563 Q57.0469,345.0469 57.2656,345.0469 Q57.6406,345.0469 57.875,345.3125 Q58.1094,345.5625 58.1094,346.1719 L58.1094,347.625 Q58.1094,348.2344 57.875,348.5 Q57.6406,348.7656 57.2656,348.7656 Q56.9219,348.7656 56.7188,348.5625 Q56.5156,348.375 56.4063,347.8594 Q56.3594,347.5 56.1719,347.3125 Q55.8438,346.9375 55.2344,346.7188 Q54.625,346.5 54,346.5 Q53.2344,346.5 52.5938,346.8281 Q51.9688,347.1563 51.4688,347.9063 Q50.9844,348.6563 50.9844,349.6875 L50.9844,350.7813 Q50.9844,352.0156 51.875,352.8438 Q52.7656,353.6563 54.3594,353.6563 Q55.2969,353.6563 55.9531,353.4063 Q56.3438,353.25 56.7656,352.8125 Q57.0313,352.5469 57.1719,352.4688 Q57.3281,352.3906 57.5313,352.3906 Q57.8594,352.3906 58.1094,352.6563 Q58.375,352.9063 58.375,353.25 Q58.375,353.5938 58.0313,354 Q57.5313,354.5781 56.7344,354.9063 Q55.6563,355.3594 54.3594,355.3594 Q52.8438,355.3594 51.6406,354.7344 Q50.6563,354.2344 49.9688,353.1719 Q49.2813,352.0938 49.2813,350.8125 L49.2813,349.6563 Q49.2813,348.3281 49.8906,347.1875 Q50.5156,346.0313 51.6094,345.4219 Q52.7031,344.7969 53.9375,344.7969 Q54.6719,344.7969 55.3125,344.9688 Q55.9688,345.125 56.5156,345.4844 Z " fill="#000000"/><text fill="#000000" font-family="sans-serif" font-size="14" lengthAdjust="spacing" textLength="146" x="74.25" y="355.3379">OperationRequestDTO</text><line style="stroke:#181818;stroke-width:0.5;" x1="8" x2="254" y1="365.6094" y2="365.6094"/><line style="stroke:#181818;stroke-width:0.5;" x1="8" x2="254" y1="373.6094" y2="373.6094"/><text fill="#000000" font-family="sans-serif" font-size="14" lengthAdjust="spacing" textLength="129" x="13" y="392.1426">+getDoctorId(): Guid</text><text fill="#000000" font-family="sans-serif" font-size="14" lengthAdjust="spacing" textLength="131" x="13" y="409.752">+getPatientId(): Guid</text><text fill="#000000" font-family="sans-serif" font-size="14" lengthAdjust="spacing" textLength="236" x="13" y="427.3613">+getOperationType(): OperationType</text><text fill="#000000" font-family="sans-serif" font-size="14" lengthAdjust="spacing" textLength="134" x="13" y="444.9707">+getPriority(): Priority</text><text fill="#000000" font-family="sans-serif" font-size="14" lengthAdjust="spacing" textLength="231" x="13" y="462.5801">+getSuggestedDeadline(): DateTime</text></g><!--class OperationRequest--><g id="elem_OperationRequest"><rect codeLine="24" fill="#F1F1F1" height="83.2188" id="OperationRequest" rx="2.5" ry="2.5" style="stroke:#181818;stroke-width:0.5;" width="840" x="827" y="360.1094"/><ellipse cx="1184.75" cy="376.1094" fill="#ADD1B2" rx="11" ry="11" style="stroke:#181818;stroke-width:1.0;"/><path d="M1187.5156,371.9844 Q1187.6719,371.7656 1187.8594,371.6563 Q1188.0469,371.5469 1188.2656,371.5469 Q1188.6406,371.5469 1188.875,371.8125 Q1189.1094,372.0625 1189.1094,372.6719 L1189.1094,374.125 Q1189.1094,374.7344 1188.875,375 Q1188.6406,375.2656 1188.2656,375.2656 Q1187.9219,375.2656 1187.7188,375.0625 Q1187.5156,374.875 1187.4063,374.3594 Q1187.3594,374 1187.1719,373.8125 Q1186.8438,373.4375 1186.2344,373.2188 Q1185.625,373 1185,373 Q1184.2344,373 1183.5938,373.3281 Q1182.9688,373.6563 1182.4688,374.4063 Q1181.9844,375.1563 1181.9844,376.1875 L1181.9844,377.2813 Q1181.9844,378.5156 1182.875,379.3438 Q1183.7656,380.1563 1185.3594,380.1563 Q1186.2969,380.1563 1186.9531,379.9063 Q1187.3438,379.75 1187.7656,379.3125 Q1188.0313,379.0469 1188.1719,378.9688 Q1188.3281,378.8906 1188.5313,378.8906 Q1188.8594,378.8906 1189.1094,379.1563 Q1189.375,379.4063 1189.375,379.75 Q1189.375,380.0938 1189.0313,380.5 Q1188.5313,381.0781 1187.7344,381.4063 Q1186.6563,381.8594 1185.3594,381.8594 Q1183.8438,381.8594 1182.6406,381.2344 Q1181.6563,380.7344 1180.9688,379.6719 Q1180.2813,378.5938 1180.2813,377.3125 L1180.2813,376.1563 Q1180.2813,374.8281 1180.8906,373.6875 Q1181.5156,372.5313 1182.6094,371.9219 Q1183.7031,371.2969 1184.9375,371.2969 Q1185.6719,371.2969 1186.3125,371.4688 Q1186.9688,371.625 1187.5156,371.9844 Z " fill="#000000"/><text fill="#000000" font-family="sans-serif" font-size="14" lengthAdjust="spacing" textLength="116" x="1205.25" y="381.8379">OperationRequest</text><line style="stroke:#181818;stroke-width:0.5;" x1="828" x2="1666" y1="392.1094" y2="392.1094"/><line style="stroke:#181818;stroke-width:0.5;" x1="828" x2="1666" y1="400.1094" y2="400.1094"/><text fill="#000000" font-family="sans-serif" font-size="14" lengthAdjust="spacing" textLength="828" x="833" y="418.6426">+OperationRequest(doctorId: Guid, patientId: Guid, operationType: OperationType, priority: Priority, suggestedDeadline: DateTime)</text><text fill="#000000" font-family="sans-serif" font-size="14" lengthAdjust="spacing" textLength="115" x="833" y="436.252">+ToString(): string</text></g><!--class OperationRequestRepository--><g id="elem_OperationRequestRepository"><rect codeLine="29" fill="#F1F1F1" height="65.6094" id="OperationRequestRepository" rx="2.5" ry="2.5" style="stroke:#181818;stroke-width:0.5;" width="501" x="290.5" y="368.6094"/><ellipse cx="444.75" cy="384.6094" fill="#ADD1B2" rx="11" ry="11" style="stroke:#181818;stroke-width:1.0;"/><path d="M447.5156,380.4844 Q447.6719,380.2656 447.8594,380.1563 Q448.0469,380.0469 448.2656,380.0469 Q448.6406,380.0469 448.875,380.3125 Q449.1094,380.5625 449.1094,381.1719 L449.1094,382.625 Q449.1094,383.2344 448.875,383.5 Q448.6406,383.7656 448.2656,383.7656 Q447.9219,383.7656 447.7188,383.5625 Q447.5156,383.375 447.4063,382.8594 Q447.3594,382.5 447.1719,382.3125 Q446.8438,381.9375 446.2344,381.7188 Q445.625,381.5 445,381.5 Q444.2344,381.5 443.5938,381.8281 Q442.9688,382.1563 442.4688,382.9063 Q441.9844,383.6563 441.9844,384.6875 L441.9844,385.7813 Q441.9844,387.0156 442.875,387.8438 Q443.7656,388.6563 445.3594,388.6563 Q446.2969,388.6563 446.9531,388.4063 Q447.3438,388.25 447.7656,387.8125 Q448.0313,387.5469 448.1719,387.4688 Q448.3281,387.3906 448.5313,387.3906 Q448.8594,387.3906 449.1094,387.6563 Q449.375,387.9063 449.375,388.25 Q449.375,388.5938 449.0313,389 Q448.5313,389.5781 447.7344,389.9063 Q446.6563,390.3594 445.3594,390.3594 Q443.8438,390.3594 442.6406,389.7344 Q441.6563,389.2344 440.9688,388.1719 Q440.2813,387.0938 440.2813,385.8125 L440.2813,384.6563 Q440.2813,383.3281 440.8906,382.1875 Q441.5156,381.0313 442.6094,380.4219 Q443.7031,379.7969 444.9375,379.7969 Q445.6719,379.7969 446.3125,379.9688 Q446.9688,380.125 447.5156,380.4844 Z " fill="#000000"/><text fill="#000000" font-family="sans-serif" font-size="14" lengthAdjust="spacing" textLength="184" x="465.25" y="390.3379">OperationRequestRepository</text><line style="stroke:#181818;stroke-width:0.5;" x1="291.5" x2="790.5" y1="400.6094" y2="400.6094"/><line style="stroke:#181818;stroke-width:0.5;" x1="291.5" x2="790.5" y1="408.6094" y2="408.6094"/><text fill="#000000" font-family="sans-serif" font-size="14" lengthAdjust="spacing" textLength="489" x="296.5" y="427.1426">+AddAsync(operationRequest: OperationRequest): Task&lt;OperationRequest&gt;</text></g><!--class InterfaceOperationRequestRepository--><g id="elem_InterfaceOperationRequestRepository"><rect codeLine="33" fill="#F1F1F1" height="65.6094" id="InterfaceOperationRequestRepository" rx="2.5" ry="2.5" style="stroke:#181818;stroke-width:0.5;" width="501" x="290.5" y="565.1094"/><ellipse cx="417.25" cy="581.1094" fill="#ADD1B2" rx="11" ry="11" style="stroke:#181818;stroke-width:1.0;"/><path d="M420.0156,576.9844 Q420.1719,576.7656 420.3594,576.6563 Q420.5469,576.5469 420.7656,576.5469 Q421.1406,576.5469 421.375,576.8125 Q421.6094,577.0625 421.6094,577.6719 L421.6094,579.125 Q421.6094,579.7344 421.375,580 Q421.1406,580.2656 420.7656,580.2656 Q420.4219,580.2656 420.2188,580.0625 Q420.0156,579.875 419.9063,579.3594 Q419.8594,579 419.6719,578.8125 Q419.3438,578.4375 418.7344,578.2188 Q418.125,578 417.5,578 Q416.7344,578 416.0938,578.3281 Q415.4688,578.6563 414.9688,579.4063 Q414.4844,580.1563 414.4844,581.1875 L414.4844,582.2813 Q414.4844,583.5156 415.375,584.3438 Q416.2656,585.1563 417.8594,585.1563 Q418.7969,585.1563 419.4531,584.9063 Q419.8438,584.75 420.2656,584.3125 Q420.5313,584.0469 420.6719,583.9688 Q420.8281,583.8906 421.0313,583.8906 Q421.3594,583.8906 421.6094,584.1563 Q421.875,584.4063 421.875,584.75 Q421.875,585.0938 421.5313,585.5 Q421.0313,586.0781 420.2344,586.4063 Q419.1563,586.8594 417.8594,586.8594 Q416.3438,586.8594 415.1406,586.2344 Q414.1563,585.7344 413.4688,584.6719 Q412.7813,583.5938 412.7813,582.3125 L412.7813,581.1563 Q412.7813,579.8281 413.3906,578.6875 Q414.0156,577.5313 415.1094,576.9219 Q416.2031,576.2969 417.4375,576.2969 Q418.1719,576.2969 418.8125,576.4688 Q419.4688,576.625 420.0156,576.9844 Z " fill="#000000"/><text fill="#000000" font-family="sans-serif" font-size="14" lengthAdjust="spacing" textLength="239" x="437.75" y="586.8379">InterfaceOperationRequestRepository</text><line style="stroke:#181818;stroke-width:0.5;" x1="291.5" x2="790.5" y1="597.1094" y2="597.1094"/><line style="stroke:#181818;stroke-width:0.5;" x1="291.5" x2="790.5" y1="605.1094" y2="605.1094"/><text fill="#000000" font-family="sans-serif" font-size="14" lengthAdjust="spacing" textLength="489" x="296.5" y="623.6426">+AddAsync(operationRequest: OperationRequest): Task&lt;OperationRequest&gt;</text></g><!--class Patient--><g id="elem_Patient"><rect codeLine="37" fill="#F1F1F1" height="65.6094" id="Patient" rx="2.5" ry="2.5" style="stroke:#181818;stroke-width:0.5;" width="494" x="1609" y="189.6094"/><ellipse cx="1829.75" cy="205.6094" fill="#ADD1B2" rx="11" ry="11" style="stroke:#181818;stroke-width:1.0;"/><path d="M1832.5156,201.4844 Q1832.6719,201.2656 1832.8594,201.1563 Q1833.0469,201.0469 1833.2656,201.0469 Q1833.6406,201.0469 1833.875,201.3125 Q1834.1094,201.5625 1834.1094,202.1719 L1834.1094,203.625 Q1834.1094,204.2344 1833.875,204.5 Q1833.6406,204.7656 1833.2656,204.7656 Q1832.9219,204.7656 1832.7188,204.5625 Q1832.5156,204.375 1832.4063,203.8594 Q1832.3594,203.5 1832.1719,203.3125 Q1831.8438,202.9375 1831.2344,202.7188 Q1830.625,202.5 1830,202.5 Q1829.2344,202.5 1828.5938,202.8281 Q1827.9688,203.1563 1827.4688,203.9063 Q1826.9844,204.6563 1826.9844,205.6875 L1826.9844,206.7813 Q1826.9844,208.0156 1827.875,208.8438 Q1828.7656,209.6563 1830.3594,209.6563 Q1831.2969,209.6563 1831.9531,209.4063 Q1832.3438,209.25 1832.7656,208.8125 Q1833.0313,208.5469 1833.1719,208.4688 Q1833.3281,208.3906 1833.5313,208.3906 Q1833.8594,208.3906 1834.1094,208.6563 Q1834.375,208.9063 1834.375,209.25 Q1834.375,209.5938 1834.0313,210 Q1833.5313,210.5781 1832.7344,210.9063 Q1831.6563,211.3594 1830.3594,211.3594 Q1828.8438,211.3594 1827.6406,210.7344 Q1826.6563,210.2344 1825.9688,209.1719 Q1825.2813,208.0938 1825.2813,206.8125 L1825.2813,205.6563 Q1825.2813,204.3281 1825.8906,203.1875 Q1826.5156,202.0313 1827.6094,201.4219 Q1828.7031,200.7969 1829.9375,200.7969 Q1830.6719,200.7969 1831.3125,200.9688 Q1831.9688,201.125 1832.5156,201.4844 Z " fill="#000000"/><text fill="#000000" font-family="sans-serif" font-size="14" lengthAdjust="spacing" textLength="44" x="1850.25" y="211.3379">Patient</text><line style="stroke:#181818;stroke-width:0.5;" x1="1610" x2="2102" y1="221.6094" y2="221.6094"/><line style="stroke:#181818;stroke-width:0.5;" x1="1610" x2="2102" y1="229.6094" y2="229.6094"/><text fill="#000000" font-family="sans-serif" font-size="14" lengthAdjust="spacing" textLength="482" x="1615" y="248.1426">+AddOperationRequestToMedicalHistory(operationRequest.ToString()): void</text></g><!--class PatientRepository--><g id="elem_PatientRepository"><rect codeLine="41" fill="#F1F1F1" height="83.2188" id="PatientRepository" rx="2.5" ry="2.5" style="stroke:#181818;stroke-width:0.5;" width="307" x="1702.5" y="360.1094"/><ellipse cx="1795.75" cy="376.1094" fill="#ADD1B2" rx="11" ry="11" style="stroke:#181818;stroke-width:1.0;"/><path d="M1798.5156,371.9844 Q1798.6719,371.7656 1798.8594,371.6563 Q1799.0469,371.5469 1799.2656,371.5469 Q1799.6406,371.5469 1799.875,371.8125 Q1800.1094,372.0625 1800.1094,372.6719 L1800.1094,374.125 Q1800.1094,374.7344 1799.875,375 Q1799.6406,375.2656 1799.2656,375.2656 Q1798.9219,375.2656 1798.7188,375.0625 Q1798.5156,374.875 1798.4063,374.3594 Q1798.3594,374 1798.1719,373.8125 Q1797.8438,373.4375 1797.2344,373.2188 Q1796.625,373 1796,373 Q1795.2344,373 1794.5938,373.3281 Q1793.9688,373.6563 1793.4688,374.4063 Q1792.9844,375.1563 1792.9844,376.1875 L1792.9844,377.2813 Q1792.9844,378.5156 1793.875,379.3438 Q1794.7656,380.1563 1796.3594,380.1563 Q1797.2969,380.1563 1797.9531,379.9063 Q1798.3438,379.75 1798.7656,379.3125 Q1799.0313,379.0469 1799.1719,378.9688 Q1799.3281,378.8906 1799.5313,378.8906 Q1799.8594,378.8906 1800.1094,379.1563 Q1800.375,379.4063 1800.375,379.75 Q1800.375,380.0938 1800.0313,380.5 Q1799.5313,381.0781 1798.7344,381.4063 Q1797.6563,381.8594 1796.3594,381.8594 Q1794.8438,381.8594 1793.6406,381.2344 Q1792.6563,380.7344 1791.9688,379.6719 Q1791.2813,378.5938 1791.2813,377.3125 L1791.2813,376.1563 Q1791.2813,374.8281 1791.8906,373.6875 Q1792.5156,372.5313 1793.6094,371.9219 Q1794.7031,371.2969 1795.9375,371.2969 Q1796.6719,371.2969 1797.3125,371.4688 Q1797.9688,371.625 1798.5156,371.9844 Z " fill="#000000"/><text fill="#000000" font-family="sans-serif" font-size="14" lengthAdjust="spacing" textLength="112" x="1816.25" y="381.8379">PatientRepository</text><line style="stroke:#181818;stroke-width:0.5;" x1="1703.5" x2="2008.5" y1="392.1094" y2="392.1094"/><line style="stroke:#181818;stroke-width:0.5;" x1="1703.5" x2="2008.5" y1="400.1094" y2="400.1094"/><text fill="#000000" font-family="sans-serif" font-size="14" lengthAdjust="spacing" textLength="270" x="1708.5" y="418.6426">+GetAsync(patientId: Guid): Task&lt;Patient&gt;</text><text fill="#000000" font-family="sans-serif" font-size="14" lengthAdjust="spacing" textLength="295" x="1708.5" y="436.252">+UpdateAsync(patient: Patient): Task&lt;Patient&gt;</text></g><!--class InterfacePatientRepository--><g id="elem_InterfacePatientRepository"><rect codeLine="46" fill="#F1F1F1" height="83.2188" id="InterfacePatientRepository" rx="2.5" ry="2.5" style="stroke:#181818;stroke-width:0.5;" width="307" x="1854.5" y="556.6094"/><ellipse cx="1920.25" cy="572.6094" fill="#ADD1B2" rx="11" ry="11" style="stroke:#181818;stroke-width:1.0;"/><path d="M1923.0156,568.4844 Q1923.1719,568.2656 1923.3594,568.1563 Q1923.5469,568.0469 1923.7656,568.0469 Q1924.1406,568.0469 1924.375,568.3125 Q1924.6094,568.5625 1924.6094,569.1719 L1924.6094,570.625 Q1924.6094,571.2344 1924.375,571.5 Q1924.1406,571.7656 1923.7656,571.7656 Q1923.4219,571.7656 1923.2188,571.5625 Q1923.0156,571.375 1922.9063,570.8594 Q1922.8594,570.5 1922.6719,570.3125 Q1922.3438,569.9375 1921.7344,569.7188 Q1921.125,569.5 1920.5,569.5 Q1919.7344,569.5 1919.0938,569.8281 Q1918.4688,570.1563 1917.9688,570.9063 Q1917.4844,571.6563 1917.4844,572.6875 L1917.4844,573.7813 Q1917.4844,575.0156 1918.375,575.8438 Q1919.2656,576.6563 1920.8594,576.6563 Q1921.7969,576.6563 1922.4531,576.4063 Q1922.8438,576.25 1923.2656,575.8125 Q1923.5313,575.5469 1923.6719,575.4688 Q1923.8281,575.3906 1924.0313,575.3906 Q1924.3594,575.3906 1924.6094,575.6563 Q1924.875,575.9063 1924.875,576.25 Q1924.875,576.5938 1924.5313,577 Q1924.0313,577.5781 1923.2344,577.9063 Q1922.1563,578.3594 1920.8594,578.3594 Q1919.3438,578.3594 1918.1406,577.7344 Q1917.1563,577.2344 1916.4688,576.1719 Q1915.7813,575.0938 1915.7813,573.8125 L1915.7813,572.6563 Q1915.7813,571.3281 1916.3906,570.1875 Q1917.0156,569.0313 1918.1094,568.4219 Q1919.2031,567.7969 1920.4375,567.7969 Q1921.1719,567.7969 1921.8125,567.9688 Q1922.4688,568.125 1923.0156,568.4844 Z " fill="#000000"/><text fill="#000000" font-family="sans-serif" font-size="14" lengthAdjust="spacing" textLength="167" x="1940.75" y="578.3379">InterfacePatientRepository</text><line style="stroke:#181818;stroke-width:0.5;" x1="1855.5" x2="2160.5" y1="588.6094" y2="588.6094"/><line style="stroke:#181818;stroke-width:0.5;" x1="1855.5" x2="2160.5" y1="596.6094" y2="596.6094"/><text fill="#000000" font-family="sans-serif" font-size="14" lengthAdjust="spacing" textLength="270" x="1860.5" y="615.1426">+GetAsync(patientId: Guid): Task&lt;Patient&gt;</text><text fill="#000000" font-family="sans-serif" font-size="14" lengthAdjust="spacing" textLength="295" x="1860.5" y="632.752">+UpdateAsync(patient: Patient): Task&lt;Patient&gt;</text></g><!--class OperationType--><g id="elem_OperationType"><rect codeLine="51" fill="#F1F1F1" height="65.6094" id="OperationType" rx="2.5" ry="2.5" style="stroke:#181818;stroke-width:0.5;" width="268" x="1224" y="565.1094"/><ellipse cx="1306.25" cy="581.1094" fill="#ADD1B2" rx="11" ry="11" style="stroke:#181818;stroke-width:1.0;"/><path d="M1309.0156,576.9844 Q1309.1719,576.7656 1309.3594,576.6563 Q1309.5469,576.5469 1309.7656,576.5469 Q1310.1406,576.5469 1310.375,576.8125 Q1310.6094,577.0625 1310.6094,577.6719 L1310.6094,579.125 Q1310.6094,579.7344 1310.375,580 Q1310.1406,580.2656 1309.7656,580.2656 Q1309.4219,580.2656 1309.2188,580.0625 Q1309.0156,579.875 1308.9063,579.3594 Q1308.8594,579 1308.6719,578.8125 Q1308.3438,578.4375 1307.7344,578.2188 Q1307.125,578 1306.5,578 Q1305.7344,578 1305.0938,578.3281 Q1304.4688,578.6563 1303.9688,579.4063 Q1303.4844,580.1563 1303.4844,581.1875 L1303.4844,582.2813 Q1303.4844,583.5156 1304.375,584.3438 Q1305.2656,585.1563 1306.8594,585.1563 Q1307.7969,585.1563 1308.4531,584.9063 Q1308.8438,584.75 1309.2656,584.3125 Q1309.5313,584.0469 1309.6719,583.9688 Q1309.8281,583.8906 1310.0313,583.8906 Q1310.3594,583.8906 1310.6094,584.1563 Q1310.875,584.4063 1310.875,584.75 Q1310.875,585.0938 1310.5313,585.5 Q1310.0313,586.0781 1309.2344,586.4063 Q1308.1563,586.8594 1306.8594,586.8594 Q1305.3438,586.8594 1304.1406,586.2344 Q1303.1563,585.7344 1302.4688,584.6719 Q1301.7813,583.5938 1301.7813,582.3125 L1301.7813,581.1563 Q1301.7813,579.8281 1302.3906,578.6875 Q1303.0156,577.5313 1304.1094,576.9219 Q1305.2031,576.2969 1306.4375,576.2969 Q1307.1719,576.2969 1307.8125,576.4688 Q1308.4688,576.625 1309.0156,576.9844 Z " fill="#000000"/><text fill="#000000" font-family="sans-serif" font-size="14" lengthAdjust="spacing" textLength="95" x="1326.75" y="586.8379">OperationType</text><line style="stroke:#181818;stroke-width:0.5;" x1="1225" x2="1491" y1="597.1094" y2="597.1094"/><line style="stroke:#181818;stroke-width:0.5;" x1="1225" x2="1491" y1="605.1094" y2="605.1094"/><text fill="#000000" font-family="sans-serif" font-size="14" lengthAdjust="spacing" textLength="256" x="1230" y="623.6426">+OperationType(operationTypeID: Guid)</text></g><!--class Priority--><g id="elem_Priority"><rect codeLine="55" fill="#F1F1F1" height="100.8281" id="Priority" rx="2.5" ry="2.5" style="stroke:#181818;stroke-width:0.5;" width="107" x="1081.5" y="547.6094"/><ellipse cx="1110.45" cy="563.6094" fill="#EB937F" rx="11" ry="11" style="stroke:#181818;stroke-width:1.0;"/><path d="M1109.3094,564.4063 L1109.3094,566.9063 L1113.6375,566.9063 L1113.6375,565.9844 Q1113.6375,565.375 1113.8719,565.1094 Q1114.1219,564.8438 1114.4969,564.8438 Q1114.8719,564.8438 1115.1063,565.1094 Q1115.3406,565.375 1115.3406,565.9844 L1115.3406,568.6094 L1107.3406,568.6094 Q1106.7156,568.6094 1106.45,568.375 Q1106.2,568.1406 1106.2,567.75 Q1106.2,567.375 1106.4656,567.1406 Q1106.7313,566.9063 1107.3406,566.9063 L1107.6063,566.9063 L1107.6063,560.25 L1107.3406,560.25 Q1106.7156,560.25 1106.45,560.0156 Q1106.2,559.7813 1106.2,559.3906 Q1106.2,559.0156 1106.45,558.7813 Q1106.7156,558.5469 1107.3406,558.5469 L1114.9656,558.5469 L1114.9656,561.1406 Q1114.9656,561.75 1114.7313,562.0156 Q1114.5125,562.2656 1114.1219,562.2656 Q1113.7469,562.2656 1113.5125,562.0156 Q1113.2781,561.75 1113.2781,561.1406 L1113.2781,560.25 L1109.3094,560.25 L1109.3094,562.7031 L1110.7938,562.7031 Q1110.7938,562.0469 1110.9188,561.8594 Q1111.1844,561.4531 1111.6531,561.4531 Q1112.0281,561.4531 1112.2625,561.7188 Q1112.4969,561.9688 1112.4969,562.5781 L1112.4969,564.5469 Q1112.4969,565.0938 1112.3719,565.2813 Q1112.1063,565.6719 1111.6531,565.6719 Q1111.1844,565.6719 1110.9188,565.2656 Q1110.7938,565.0781 1110.7938,564.4063 L1109.3094,564.4063 Z " fill="#000000"/><text fill="#000000" font-family="sans-serif" font-size="14" lengthAdjust="spacing" textLength="44" x="1127.55" y="569.3379">Priority</text><line style="stroke:#181818;stroke-width:0.5;" x1="1082.5" x2="1187.5" y1="579.6094" y2="579.6094"/><text fill="#000000" font-family="sans-serif" font-size="14" lengthAdjust="spacing" textLength="74" x="1087.5" y="598.1426">+ELECTIVE</text><text fill="#000000" font-family="sans-serif" font-size="14" lengthAdjust="spacing" textLength="65" x="1087.5" y="615.752">+URGENT</text><text fill="#000000" font-family="sans-serif" font-size="14" lengthAdjust="spacing" textLength="95" x="1087.5" y="633.3613">+EMERGENCY</text><line style="stroke:#181818;stroke-width:0.5;" x1="1082.5" x2="1187.5" y1="640.4375" y2="640.4375"/></g><!--link OperationRequestController to OperationRequestService--><g id="link_OperationRequestController_OperationRequestService"><path codeLine="61" d="M894,111.8294 C894,135.0694 894,166.3094 894,189.5194 " fill="none" id="OperationRequestController-OperationRequestService" style="stroke:#181818;stroke-width:1.0;"/><polygon fill="#000000" points="899,155.7852,901.9389,146.7401,896.0611,146.7401,899,155.7852" style="stroke:#000000;stroke-width:1.0;"/><text fill="#000000" font-family="sans-serif" font-size="13" lengthAdjust="spacing" textLength="28" x="908" y="156.1045">uses</text><text fill="#000000" font-family="sans-serif" font-size="13" lengthAdjust="spacing" textLength="7" x="886.3766" y="132.7329">1</text><text fill="#000000" font-family="sans-serif" font-size="13" lengthAdjust="spacing" textLength="7" x="886.2781" y="178.6162">1</text></g><!--link OperationRequestService to OperationRequest--><g id="link_OperationRequestService_OperationRequest"><path codeLine="62" d="M957.93,255.6594 C1016.34,284.9494 1102.98,328.3994 1166.18,360.0794 " fill="none" id="OperationRequestService-OperationRequest" style="stroke:#181818;stroke-width:1.0;"/><polygon fill="#000000" points="1058.4696,297.0263,1051.7013,290.3449,1049.0667,295.5992,1058.4696,297.0263" style="stroke:#000000;stroke-width:1.0;"/><text fill="#000000" font-family="sans-serif" font-size="13" lengthAdjust="spacing" textLength="28" x="1063" y="300.1045">uses</text><text fill="#000000" font-family="sans-serif" font-size="13" lengthAdjust="spacing" textLength="7" x="962.0718" y="276.7915">1</text><text fill="#000000" font-family="sans-serif" font-size="13" lengthAdjust="spacing" textLength="7" x="1145.2145" y="349.3821">1</text></g><!--link OperationRequestService to OperationRequestRepository--><g id="link_OperationRequestService_OperationRequestRepository"><path codeLine="63" d="M830.07,255.6594 C766.3,287.6394 668.86,336.4994 605.05,368.4994 " fill="none" id="OperationRequestService-OperationRequestRepository" style="stroke:#181818;stroke-width:1.0;"/><polygon fill="#000000" points="769.5305,297.0265,778.9333,295.599,776.2985,290.3448,769.5305,297.0265" style="stroke:#000000;stroke-width:1.0;"/><text fill="#000000" font-family="sans-serif" font-size="13" lengthAdjust="spacing" textLength="28" x="783" y="300.1045">uses</text><text fill="#000000" font-family="sans-serif" font-size="13" lengthAdjust="spacing" textLength="7" x="810.6376" y="276.7915">1</text><text fill="#000000" font-family="sans-serif" font-size="13" lengthAdjust="spacing" textLength="7" x="610.5384" y="357.5921">1</text></g><!--link OperationRequestService to OperationRequestDTO--><g id="link_OperationRequestService_OperationRequestDTO"><path codeLine="64" d="M740.7,239.2694 C613.32,254.9894 428.46,284.1394 273,333.6094 C267.16,335.4694 261.24,337.5194 255.32,339.7094 " fill="none" id="OperationRequestService-OperationRequestDTO" style="stroke:#181818;stroke-width:1.0;"/><polygon fill="#000000" points="457.1037,295.7983,466.5567,296.8434,465.3656,291.0875,457.1037,295.7983" style="stroke:#000000;stroke-width:1.0;"/><text fill="#000000" font-family="sans-serif" font-size="13" lengthAdjust="spacing" textLength="28" x="471" y="300.1045">uses</text><text fill="#000000" font-family="sans-serif" font-size="13" lengthAdjust="spacing" textLength="7" x="726.105" y="237.2019">1</text><text fill="#000000" font-family="sans-serif" font-size="13" lengthAdjust="spacing" textLength="7" x="263.109" y="332.9542">1</text></g><!--link OperationRequestRepository to InterfaceOperationRequestRepository--><g id="link_OperationRequestRepository_InterfaceOperationRequestRepository"><path codeLine="65" d="M541,434.7294 C541,470.7694 541,528.8894 541,564.9394 " fill="none" id="OperationRequestRepository-InterfaceOperationRequestRepository" style="stroke:#181818;stroke-width:1.0;"/><polygon fill="#000000" points="546,513.7852,548.9389,504.7401,543.0611,504.7401,546,513.7852" style="stroke:#000000;stroke-width:1.0;"/><text fill="#000000" font-family="sans-serif" font-size="13" lengthAdjust="spacing" textLength="28" x="555" y="514.1045">uses</text><text fill="#000000" font-family="sans-serif" font-size="13" lengthAdjust="spacing" textLength="7" x="533.3766" y="455.6151">1</text><text fill="#000000" font-family="sans-serif" font-size="13" lengthAdjust="spacing" textLength="7" x="533.2781" y="554.0197">1</text></g><!--link OperationRequestService to PatientRepository--><g id="link_OperationRequestService_PatientRepository"><path codeLine="66" d="M1047.04,240.5594 C1242.03,262.8994 1567.8,302.9594 1685,333.6094 C1711.22,340.4694 1738.88,350.1594 1764.13,360.0394 " fill="none" id="OperationRequestService-PatientRepository" style="stroke:#181818;stroke-width:1.0;"/><polygon fill="#000000" points="1527.932,295.6069,1519.4929,291.2214,1518.5269,297.0193,1527.932,295.6069" style="stroke:#000000;stroke-width:1.0;"/><text fill="#000000" font-family="sans-serif" font-size="13" lengthAdjust="spacing" textLength="28" x="1532" y="300.1045">uses</text><text fill="#000000" font-family="sans-serif" font-size="13" lengthAdjust="spacing" textLength="7" x="1055.1116" y="238.5867">1</text><text fill="#000000" font-family="sans-serif" font-size="13" lengthAdjust="spacing" textLength="7" x="1741.3343" y="349.3355">1</text></g><!--link PatientRepository to InterfacePatientRepository--><g id="link_PatientRepository_InterfacePatientRepository"><path codeLine="67" d="M1887.86,443.3794 C1913.81,476.5794 1950.25,523.2094 1976.18,556.3894 " fill="none" id="PatientRepository-InterfacePatientRepository" style="stroke:#181818;stroke-width:1.0;"/><polygon fill="#000000" points="1953.0789,512.7248,1949.8248,503.7882,1945.1935,507.4077,1953.0789,512.7248" style="stroke:#000000;stroke-width:1.0;"/><text fill="#000000" font-family="sans-serif" font-size="13" lengthAdjust="spacing" textLength="28" x="1959" y="514.1045">uses</text><text fill="#000000" font-family="sans-serif" font-size="13" lengthAdjust="spacing" textLength="7" x="1885.3799" y="464.8172">1</text><text fill="#000000" font-family="sans-serif" font-size="13" lengthAdjust="spacing" textLength="7" x="1963.3301" y="545.6606">1</text></g><!--link OperationRequest to OperationType--><g id="link_OperationRequest_OperationType"><path codeLine="68" d="M1270.27,443.3794 C1290.93,479.5894 1320.71,531.7694 1339.71,565.0594 " fill="none" id="OperationRequest-OperationType" style="stroke:#181818;stroke-width:1.0;"/><polygon fill="#000000" points="1319.4782,513.1278,1317.5476,503.8152,1312.4425,506.7286,1319.4782,513.1278" style="stroke:#000000;stroke-width:1.0;"/><text fill="#000000" font-family="sans-serif" font-size="13" lengthAdjust="spacing" textLength="28" x="1326" y="514.1045">uses</text><text fill="#000000" font-family="sans-serif" font-size="13" lengthAdjust="spacing" textLength="7" x="1266.4208" y="464.8172">1</text><text fill="#000000" font-family="sans-serif" font-size="13" lengthAdjust="spacing" textLength="7" x="1328.2158" y="554.1645">1</text></g><!--link OperationRequest to Priority--><g id="link_OperationRequest_Priority"><path codeLine="69" d="M1223.52,443.3794 C1206.07,473.6794 1182.18,515.1694 1163.62,547.4194 " fill="none" id="OperationRequest-Priority" style="stroke:#181818;stroke-width:1.0;"/><polygon fill="#000000" points="1193.5052,513.1183,1200.5653,506.746,1195.4713,503.8132,1193.5052,513.1183" style="stroke:#000000;stroke-width:1.0;"/><text fill="#000000" font-family="sans-serif" font-size="13" lengthAdjust="spacing" textLength="28" x="1205" y="514.1045">uses</text><text fill="#000000" font-family="sans-serif" font-size="13" lengthAdjust="spacing" textLength="7" x="1212.2201" y="464.8172">1</text><text fill="#000000" font-family="sans-serif" font-size="13" lengthAdjust="spacing" textLength="7" x="1160.1525" y="536.698">1</text></g><!--link Patient to OperationRequest--><g id="link_Patient_OperationRequest"><path codeLine="70" d="M1745.71,255.6594 C1644.94,284.9494 1495.46,328.3994 1386.44,360.0794 " fill="none" id="Patient-OperationRequest" style="stroke:#181818;stroke-width:1.0;"/><polygon fill="#000000" points="1641.1987,296.1806,1650.7046,296.4783,1649.0641,290.834,1641.1987,296.1806" style="stroke:#000000;stroke-width:1.0;"/><text fill="#000000" font-family="sans-serif" font-size="13" lengthAdjust="spacing" textLength="28" x="1655" y="300.1045">uses</text><text fill="#000000" font-family="sans-serif" font-size="13" lengthAdjust="spacing" textLength="7" x="1717.73" y="276.7915">1</text><text fill="#000000" font-family="sans-serif" font-size="13" lengthAdjust="spacing" textLength="7" x="1401.9551" y="349.3821">1</text></g><!--link Patient to PatientRepository--><g id="link_Patient_PatientRepository"><path codeLine="71" d="M1856,255.6594 C1856,284.9494 1856,328.3994 1856,360.0794 " fill="none" id="Patient-PatientRepository" style="stroke:#181818;stroke-width:1.0;"/><polygon fill="#000000" points="1861,299.7852,1863.9389,290.7401,1858.0611,290.7401,1861,299.7852" style="stroke:#000000;stroke-width:1.0;"/><text fill="#000000" font-family="sans-serif" font-size="13" lengthAdjust="spacing" textLength="28" x="1870" y="300.1045">uses</text><text fill="#000000" font-family="sans-serif" font-size="13" lengthAdjust="spacing" textLength="7" x="1848.3547" y="276.7915">1</text><text fill="#000000" font-family="sans-serif" font-size="13" lengthAdjust="spacing" textLength="7" x="1848.4203" y="349.3821">1</text></g><!--link Patient to InterfacePatientRepository--><g id="link_Patient_InterfacePatientRepository"><path codeLine="72" d="M1939.02,255.6894 C1972.65,273.2894 2007.98,298.7494 2027,333.6094 C2065.56,404.2694 2042.32,501.8794 2023.89,556.2894 " fill="none" id="Patient-InterfacePatientRepository" style="stroke:#181818;stroke-width:1.0;"/><polygon fill="#000000" points="2053.3586,406.597,2053.7293,397.0937,2048.0725,398.6908,2053.3586,406.597" style="stroke:#000000;stroke-width:1.0;"/><text fill="#000000" font-family="sans-serif" font-size="13" lengthAdjust="spacing" textLength="28" x="2061" y="407.1045">uses</text><text fill="#000000" font-family="sans-serif" font-size="13" lengthAdjust="spacing" textLength="7" x="1946.6815" y="276.827">1</text><text fill="#000000" font-family="sans-serif" font-size="13" lengthAdjust="spacing" textLength="7" x="2018.8647" y="545.855">1</text></g><!--SRC=[nPHTRvim58Rl_IkiNYLQKxKtkuYcI16W5AaVKw2JTkdXKsQ5sDGsdTYq_pwRyXKCMQfENMu2dFE-VexFiTMEyPn8iiSvINOaXKYN6M09YIOypG2fDa5z9rJyO3p5ZoHJW7gX92DAhRMMx5kX8Km4ZzXFm9S8QQQDdMVZs6SajTappv_Z1NxmBgy-8bHfyNqEacWc-1QU2b3Q4rnBaMKWyI-4pUy3NbEwLYLFPbIBfIFmu_lv4iT4xT3lATC8v3DBu1ywcfpMBGNjYqGB6TAP4MuAHhl8PwC2hiT2hMTSvc331nzw5f89oNHfKvhdBXeLQMg0WFf0QCPuvUGJ3J7RmtG1BVqmCADrBI-uvsO-wWgQ3wAFEQ0swJLXntgErP2n8vpN6B68p1JnrDAhwccQVGkvKCn0bcv7nI3NRM_Tsq_3xwjkmP1ha8yaWNTVkHwNllimEnQtG5b2ickcB8cpy4MtbsR5Ps5cRkW_KiS6z4iTWtutqBLoLQS_vDHqy42nRDmTYRkn_vdZO6RTer0To8Cn3_sQmde0B_RjTBVgu2Rmul1Bq81jDy5TtCHk0_lgVRNo8rVUsTKPNYoglwaxR8bNk52Wq5J24OytYNkzUekDlJadzRqrUXQd7CVN8Bd3rwhTq1Z74GDdoyUsefgwaoJjb0q9JslpIFBVYtzjoUWF]--></g></svg>