<svg xmlns="http://www.w3.org/2000/svg" xmlns:xlink="http://www.w3.org/1999/xlink" contentStyleType="text/css" height="841px" preserveAspectRatio="none" style="width:942px;height:841px;background:#FFFFFF;" version="1.1" viewBox="0 0 942 841" width="942px" zoomAndPan="magnify"><defs/><g><rect fill="#FFFFFF" height="720.4531" style="stroke:#181818;stroke-width:1.0;" width="10" x="171.9214" y="67.7988"/><rect fill="#FFFFFF" height="661.832" style="stroke:#181818;stroke-width:1.0;" width="10" x="270.4917" y="97.1094"/><rect fill="#FFFFFF" height="603.2109" style="stroke:#181818;stroke-width:1.0;" width="10" x="369.062" y="126.4199"/><rect fill="#FFFFFF" height="29.3105" style="stroke:#181818;stroke-width:1.0;" width="10" x="516.2744" y="362.9043"/><rect fill="#FFFFFF" height="177.8633" style="stroke:#181818;stroke-width:1.0;" width="10" x="603.8247" y="155.7305"/><rect fill="#FFFFFF" height="177.8633" style="stroke:#181818;stroke-width:1.0;" width="10" x="603.8247" y="522.457"/><rect fill="#FFFFFF" height="29.3105" style="stroke:#181818;stroke-width:1.0;" width="10" x="738.0542" y="267.9727"/><rect fill="#FFFFFF" height="29.3105" style="stroke:#181818;stroke-width:1.0;" width="10" x="738.0542" y="576.0781"/><rect fill="#FFFFFF" height="29.3105" style="stroke:#181818;stroke-width:1.0;" width="10" x="803.4731" y="209.3516"/><rect fill="#FFFFFF" height="29.3105" style="stroke:#181818;stroke-width:1.0;" width="10" x="803.4731" y="634.6992"/><rect fill="#FFFFFF" height="29.3105" style="stroke:#181818;stroke-width:1.0;" width="10" x="883.6885" y="421.5254"/><rect fill="none" height="134.5527" style="stroke:#000000;stroke-width:1.5;" width="274.2266" x="566.354" y="170.7305"/><rect fill="none" height="134.5527" style="stroke:#000000;stroke-width:1.5;" width="274.2266" x="566.354" y="537.457"/><line style="stroke:#181818;stroke-width:0.5;stroke-dasharray:5.0,5.0;" x1="176.5005" x2="176.5005" y1="36.4883" y2="806.252"/><line style="stroke:#181818;stroke-width:0.5;stroke-dasharray:5.0,5.0;" x1="275.4111" x2="275.4111" y1="36.4883" y2="806.252"/><line style="stroke:#181818;stroke-width:0.5;stroke-dasharray:5.0,5.0;" x1="373.396" x2="373.396" y1="36.4883" y2="806.252"/><line style="stroke:#181818;stroke-width:0.5;stroke-dasharray:5.0,5.0;" x1="521.1948" x2="521.1948" y1="36.4883" y2="806.252"/><line style="stroke:#181818;stroke-width:0.5;stroke-dasharray:5.0,5.0;" x1="608.354" x2="608.354" y1="36.4883" y2="806.252"/><line style="stroke:#181818;stroke-width:0.5;stroke-dasharray:5.0,5.0;" x1="742.7427" x2="742.7427" y1="36.4883" y2="806.252"/><line style="stroke:#181818;stroke-width:0.5;stroke-dasharray:5.0,5.0;" x1="808.3657" x2="808.3657" y1="36.4883" y2="806.252"/><line style="stroke:#181818;stroke-width:0.5;stroke-dasharray:5.0,5.0;" x1="888.5806" x2="888.5806" y1="36.4883" y2="806.252"/><rect fill="#E2E2F0" height="30.4883" rx="2.5" ry="2.5" style="stroke:#181818;stroke-width:0.5;" width="66.8418" x="143.5005" y="5"/><text fill="#000000" font-family="sans-serif" font-size="14" lengthAdjust="spacing" textLength="52.8418" x="150.5005" y="25.5352">Routing</text><rect fill="#E2E2F0" height="30.4883" rx="2.5" ry="2.5" style="stroke:#181818;stroke-width:0.5;" width="66.8418" x="143.5005" y="805.252"/><text fill="#000000" font-family="sans-serif" font-size="14" lengthAdjust="spacing" textLength="52.8418" x="150.5005" y="825.7871">Routing</text><rect fill="#E2E2F0" height="30.4883" rx="2.5" ry="2.5" style="stroke:#181818;stroke-width:0.5;" width="82.1611" x="234.4111" y="5"/><text fill="#000000" font-family="sans-serif" font-size="14" lengthAdjust="spacing" textLength="68.1611" x="241.4111" y="25.5352">Controller</text><rect fill="#E2E2F0" height="30.4883" rx="2.5" ry="2.5" style="stroke:#181818;stroke-width:0.5;" width="82.1611" x="234.4111" y="805.252"/><text fill="#000000" font-family="sans-serif" font-size="14" lengthAdjust="spacing" textLength="68.1611" x="241.4111" y="825.7871">Controller</text><rect fill="#E2E2F0" height="30.4883" rx="2.5" ry="2.5" style="stroke:#181818;stroke-width:0.5;" width="61.332" x="343.396" y="5"/><text fill="#000000" font-family="sans-serif" font-size="14" lengthAdjust="spacing" textLength="47.332" x="350.396" y="25.5352">Service</text><rect fill="#E2E2F0" height="30.4883" rx="2.5" ry="2.5" style="stroke:#181818;stroke-width:0.5;" width="61.332" x="343.396" y="805.252"/><text fill="#000000" font-family="sans-serif" font-size="14" lengthAdjust="spacing" textLength="47.332" x="350.396" y="825.7871">Service</text><rect fill="#E2E2F0" height="30.4883" rx="2.5" ry="2.5" style="stroke:#181818;stroke-width:0.5;" width="90.1592" x="476.1948" y="5"/><text fill="#000000" font-family="sans-serif" font-size="14" lengthAdjust="spacing" textLength="76.1592" x="483.1948" y="25.5352">IRepository</text><rect fill="#E2E2F0" height="30.4883" rx="2.5" ry="2.5" style="stroke:#181818;stroke-width:0.5;" width="90.1592" x="476.1948" y="805.252"/><text fill="#000000" font-family="sans-serif" font-size="14" lengthAdjust="spacing" textLength="76.1592" x="483.1948" y="825.7871">IRepository</text><rect fill="#E2E2F0" height="30.4883" rx="2.5" ry="2.5" style="stroke:#181818;stroke-width:0.5;" width="64.9414" x="576.354" y="5"/><text fill="#000000" font-family="sans-serif" font-size="14" lengthAdjust="spacing" textLength="50.9414" x="583.354" y="25.5352">Mapper</text><rect fill="#E2E2F0" height="30.4883" rx="2.5" ry="2.5" style="stroke:#181818;stroke-width:0.5;" width="64.9414" x="576.354" y="805.252"/><text fill="#000000" font-family="sans-serif" font-size="14" lengthAdjust="spacing" textLength="50.9414" x="583.354" y="825.7871">Mapper</text><rect fill="#E2E2F0" height="30.4883" rx="2.5" ry="2.5" style="stroke:#181818;stroke-width:0.5;" width="66.623" x="709.7427" y="5"/><text fill="#000000" font-family="sans-serif" font-size="14" lengthAdjust="spacing" textLength="52.623" x="716.7427" y="25.5352">Domain</text><rect fill="#E2E2F0" height="30.4883" rx="2.5" ry="2.5" style="stroke:#181818;stroke-width:0.5;" width="66.623" x="709.7427" y="805.252"/><text fill="#000000" font-family="sans-serif" font-size="14" lengthAdjust="spacing" textLength="52.623" x="716.7427" y="825.7871">Domain</text><rect fill="#E2E2F0" height="30.4883" rx="2.5" ry="2.5" style="stroke:#181818;stroke-width:0.5;" width="44.2148" x="786.3657" y="5"/><text fill="#000000" font-family="sans-serif" font-size="14" lengthAdjust="spacing" textLength="30.2148" x="793.3657" y="25.5352">DTO</text><rect fill="#E2E2F0" height="30.4883" rx="2.5" ry="2.5" style="stroke:#181818;stroke-width:0.5;" width="44.2148" x="786.3657" y="805.252"/><text fill="#000000" font-family="sans-serif" font-size="14" lengthAdjust="spacing" textLength="30.2148" x="793.3657" y="825.7871">DTO</text><rect fill="#E2E2F0" height="30.4883" rx="2.5" ry="2.5" style="stroke:#181818;stroke-width:0.5;" width="96.2158" x="840.5806" y="5"/><text fill="#000000" font-family="sans-serif" font-size="14" lengthAdjust="spacing" textLength="82.2158" x="847.5806" y="25.5352">IUnitOfWork</text><rect fill="#E2E2F0" height="30.4883" rx="2.5" ry="2.5" style="stroke:#181818;stroke-width:0.5;" width="96.2158" x="840.5806" y="805.252"/><text fill="#000000" font-family="sans-serif" font-size="14" lengthAdjust="spacing" textLength="82.2158" x="847.5806" y="825.7871">IUnitOfWork</text><rect fill="#FFFFFF" height="720.4531" style="stroke:#181818;stroke-width:1.0;" width="10" x="171.9214" y="67.7988"/><rect fill="#FFFFFF" height="661.832" style="stroke:#181818;stroke-width:1.0;" width="10" x="270.4917" y="97.1094"/><rect fill="#FFFFFF" height="603.2109" style="stroke:#181818;stroke-width:1.0;" width="10" x="369.062" y="126.4199"/><rect fill="#FFFFFF" height="29.3105" style="stroke:#181818;stroke-width:1.0;" width="10" x="516.2744" y="362.9043"/><rect fill="#FFFFFF" height="177.8633" style="stroke:#181818;stroke-width:1.0;" width="10" x="603.8247" y="155.7305"/><rect fill="#FFFFFF" height="177.8633" style="stroke:#181818;stroke-width:1.0;" width="10" x="603.8247" y="522.457"/><rect fill="#FFFFFF" height="29.3105" style="stroke:#181818;stroke-width:1.0;" width="10" x="738.0542" y="267.9727"/><rect fill="#FFFFFF" height="29.3105" style="stroke:#181818;stroke-width:1.0;" width="10" x="738.0542" y="576.0781"/><rect fill="#FFFFFF" height="29.3105" style="stroke:#181818;stroke-width:1.0;" width="10" x="803.4731" y="209.3516"/><rect fill="#FFFFFF" height="29.3105" style="stroke:#181818;stroke-width:1.0;" width="10" x="803.4731" y="634.6992"/><rect fill="#FFFFFF" height="29.3105" style="stroke:#181818;stroke-width:1.0;" width="10" x="883.6885" y="421.5254"/><polygon fill="#181818" points="159.9214,63.7988,169.9214,67.7988,159.9214,71.7988,163.9214,67.7988" style="stroke:#181818;stroke-width:1.0;"/><line style="stroke:#181818;stroke-width:1.0;" x1="0" x2="165.9214" y1="67.7988" y2="67.7988"/><text fill="#000000" font-family="sans-serif" font-size="13" lengthAdjust="spacing" textLength="152.9214" x="7" y="63.0566">HTTP DELETE /api/...{id}</text><polygon fill="#181818" points="258.4917,93.1094,268.4917,97.1094,258.4917,101.1094,262.4917,97.1094" style="stroke:#181818;stroke-width:1.0;"/><line style="stroke:#181818;stroke-width:1.0;" x1="181.9214" x2="264.4917" y1="97.1094" y2="97.1094"/><text fill="#000000" font-family="sans-serif" font-size="13" lengthAdjust="spacing" textLength="69.5703" x="188.9214" y="92.3672">Delete(dto)</text><polygon fill="#181818" points="357.062,122.4199,367.062,126.4199,357.062,130.4199,361.062,126.4199" style="stroke:#181818;stroke-width:1.0;"/><line style="stroke:#181818;stroke-width:1.0;" x1="280.4917" x2="363.062" y1="126.4199" y2="126.4199"/><text fill="#000000" font-family="sans-serif" font-size="13" lengthAdjust="spacing" textLength="69.5703" x="287.4917" y="121.6777">Delete(dto)</text><polygon fill="#181818" points="591.8247,151.7305,601.8247,155.7305,591.8247,159.7305,595.8247,155.7305" style="stroke:#181818;stroke-width:1.0;"/><line style="stroke:#181818;stroke-width:1.0;" x1="379.062" x2="597.8247" y1="155.7305" y2="155.7305"/><text fill="#000000" font-family="sans-serif" font-size="13" lengthAdjust="spacing" textLength="94.5547" x="386.062" y="150.9883">ToDomain(dto)</text><path d="M566.354,170.7305 L640.8008,170.7305 L640.8008,178.041 L630.8008,188.041 L566.354,188.041 L566.354,170.7305 " fill="#EEEEEE" style="stroke:#000000;stroke-width:1.5;"/><rect fill="none" height="134.5527" style="stroke:#000000;stroke-width:1.5;" width="274.2266" x="566.354" y="170.7305"/><text fill="#000000" font-family="sans-serif" font-size="13" font-weight="bold" lengthAdjust="spacing" textLength="29.4468" x="581.354" y="184.2988">loop</text><text fill="#000000" font-family="sans-serif" font-size="11" font-weight="bold" lengthAdjust="spacing" textLength="110.0752" x="655.8008" y="183.3652">[for each attribute:]</text><polygon fill="#181818" points="791.4731,205.3516,801.4731,209.3516,791.4731,213.3516,795.4731,209.3516" style="stroke:#181818;stroke-width:1.0;"/><line style="stroke:#181818;stroke-width:1.0;" x1="613.8247" x2="797.4731" y1="209.3516" y2="209.3516"/><text fill="#000000" font-family="sans-serif" font-size="13" lengthAdjust="spacing" textLength="79.9487" x="620.8247" y="204.6094">Get attribute</text><polygon fill="#181818" points="624.8247,234.6621,614.8247,238.6621,624.8247,242.6621,620.8247,238.6621" style="stroke:#181818;stroke-width:1.0;"/><line style="stroke:#181818;stroke-width:1.0;stroke-dasharray:2.0,2.0;" x1="618.8247" x2="807.4731" y1="238.6621" y2="238.6621"/><text fill="#000000" font-family="sans-serif" font-size="13" lengthAdjust="spacing" textLength="100.2295" x="630.8247" y="233.9199">Return attribute</text><polygon fill="#181818" points="726.0542,263.9727,736.0542,267.9727,726.0542,271.9727,730.0542,267.9727" style="stroke:#181818;stroke-width:1.0;"/><line style="stroke:#181818;stroke-width:1.0;" x1="613.8247" x2="732.0542" y1="267.9727" y2="267.9727"/><text fill="#000000" font-family="sans-serif" font-size="13" lengthAdjust="spacing" textLength="77.5557" x="620.8247" y="263.2305">Set attribute</text><polygon fill="#181818" points="624.8247,293.2832,614.8247,297.2832,624.8247,301.2832,620.8247,297.2832" style="stroke:#181818;stroke-width:1.0;"/><line style="stroke:#181818;stroke-width:1.0;stroke-dasharray:2.0,2.0;" x1="618.8247" x2="742.0542" y1="297.2832" y2="297.2832"/><text fill="#000000" font-family="sans-serif" font-size="13" lengthAdjust="spacing" textLength="100.2295" x="630.8247" y="292.541">Return attribute</text><polygon fill="#181818" points="390.062,329.5938,380.062,333.5938,390.062,337.5938,386.062,333.5938" style="stroke:#181818;stroke-width:1.0;"/><line style="stroke:#181818;stroke-width:1.0;stroke-dasharray:2.0,2.0;" x1="384.062" x2="607.8247" y1="333.5938" y2="333.5938"/><text fill="#000000" font-family="sans-serif" font-size="13" lengthAdjust="spacing" textLength="47.3091" x="396.062" y="328.8516">domain</text><polygon fill="#181818" points="504.2744,358.9043,514.2744,362.9043,504.2744,366.9043,508.2744,362.9043" style="stroke:#181818;stroke-width:1.0;"/><line style="stroke:#181818;stroke-width:1.0;" x1="379.062" x2="510.2744" y1="362.9043" y2="362.9043"/><text fill="#000000" font-family="sans-serif" font-size="13" lengthAdjust="spacing" textLength="118.2124" x="386.062" y="358.1621">AddAsync(domain)</text><polygon fill="#181818" points="390.062,388.2148,380.062,392.2148,390.062,396.2148,386.062,392.2148" style="stroke:#181818;stroke-width:1.0;"/><line style="stroke:#181818;stroke-width:1.0;stroke-dasharray:2.0,2.0;" x1="384.062" x2="520.2744" y1="392.2148" y2="392.2148"/><text fill="#000000" font-family="sans-serif" font-size="13" lengthAdjust="spacing" textLength="12.3398" x="396.062" y="387.4727">...</text><polygon fill="#181818" points="871.6885,417.5254,881.6885,421.5254,871.6885,425.5254,875.6885,421.5254" style="stroke:#181818;stroke-width:1.0;"/><line style="stroke:#181818;stroke-width:1.0;" x1="379.062" x2="877.6885" y1="421.5254" y2="421.5254"/><text fill="#000000" font-family="sans-serif" font-size="13" lengthAdjust="spacing" textLength="95.4434" x="386.062" y="416.7832">CommitAsync()</text><polygon fill="#181818" points="390.062,446.8359,380.062,450.8359,390.062,454.8359,386.062,450.8359" style="stroke:#181818;stroke-width:1.0;"/><line style="stroke:#181818;stroke-width:1.0;stroke-dasharray:2.0,2.0;" x1="384.062" x2="887.6885" y1="450.8359" y2="450.8359"/><text fill="#000000" font-family="sans-serif" font-size="13" lengthAdjust="spacing" textLength="12.3398" x="396.062" y="446.0938">...</text><line style="stroke:#181818;stroke-width:1.0;" x1="379.062" x2="421.062" y1="480.1465" y2="480.1465"/><line style="stroke:#181818;stroke-width:1.0;" x1="421.062" x2="421.062" y1="480.1465" y2="493.1465"/><line style="stroke:#181818;stroke-width:1.0;" x1="380.062" x2="421.062" y1="493.1465" y2="493.1465"/><polygon fill="#181818" points="390.062,489.1465,380.062,493.1465,390.062,497.1465,386.062,493.1465" style="stroke:#181818;stroke-width:1.0;"/><text fill="#000000" font-family="sans-serif" font-size="13" lengthAdjust="spacing" textLength="12.3398" x="386.062" y="475.4043">...</text><polygon fill="#181818" points="591.8247,518.457,601.8247,522.457,591.8247,526.457,595.8247,522.457" style="stroke:#181818;stroke-width:1.0;"/><line style="stroke:#181818;stroke-width:1.0;" x1="379.062" x2="597.8247" y1="522.457" y2="522.457"/><text fill="#000000" font-family="sans-serif" font-size="13" lengthAdjust="spacing" textLength="100.0264" x="386.062" y="517.7148">ToDTO(domain)</text><path d="M566.354,537.457 L640.8008,537.457 L640.8008,544.7676 L630.8008,554.7676 L566.354,554.7676 L566.354,537.457 " fill="#EEEEEE" style="stroke:#000000;stroke-width:1.5;"/><rect fill="none" height="134.5527" style="stroke:#000000;stroke-width:1.5;" width="274.2266" x="566.354" y="537.457"/><text fill="#000000" font-family="sans-serif" font-size="13" font-weight="bold" lengthAdjust="spacing" textLength="29.4468" x="581.354" y="551.0254">loop</text><text fill="#000000" font-family="sans-serif" font-size="11" font-weight="bold" lengthAdjust="spacing" textLength="110.0752" x="655.8008" y="550.0918">[for each attribute:]</text><polygon fill="#181818" points="726.0542,572.0781,736.0542,576.0781,726.0542,580.0781,730.0542,576.0781" style="stroke:#181818;stroke-width:1.0;"/><line style="stroke:#181818;stroke-width:1.0;" x1="613.8247" x2="732.0542" y1="576.0781" y2="576.0781"/><text fill="#000000" font-family="sans-serif" font-size="13" lengthAdjust="spacing" textLength="79.9487" x="620.8247" y="571.3359">Get attribute</text><polygon fill="#181818" points="624.8247,601.3887,614.8247,605.3887,624.8247,609.3887,620.8247,605.3887" style="stroke:#181818;stroke-width:1.0;"/><line style="stroke:#181818;stroke-width:1.0;stroke-dasharray:2.0,2.0;" x1="618.8247" x2="742.0542" y1="605.3887" y2="605.3887"/><text fill="#000000" font-family="sans-serif" font-size="13" lengthAdjust="spacing" textLength="100.2295" x="630.8247" y="600.6465">Return attribute</text><polygon fill="#181818" points="791.4731,630.6992,801.4731,634.6992,791.4731,638.6992,795.4731,634.6992" style="stroke:#181818;stroke-width:1.0;"/><line style="stroke:#181818;stroke-width:1.0;" x1="613.8247" x2="797.4731" y1="634.6992" y2="634.6992"/><text fill="#000000" font-family="sans-serif" font-size="13" lengthAdjust="spacing" textLength="77.5557" x="620.8247" y="629.957">Set attribute</text><polygon fill="#181818" points="624.8247,660.0098,614.8247,664.0098,624.8247,668.0098,620.8247,664.0098" style="stroke:#181818;stroke-width:1.0;"/><line style="stroke:#181818;stroke-width:1.0;stroke-dasharray:2.0,2.0;" x1="618.8247" x2="807.4731" y1="664.0098" y2="664.0098"/><text fill="#000000" font-family="sans-serif" font-size="13" lengthAdjust="spacing" textLength="100.2295" x="630.8247" y="659.2676">Return attribute</text><polygon fill="#181818" points="390.062,696.3203,380.062,700.3203,390.062,704.3203,386.062,700.3203" style="stroke:#181818;stroke-width:1.0;"/><line style="stroke:#181818;stroke-width:1.0;stroke-dasharray:2.0,2.0;" x1="384.062" x2="607.8247" y1="700.3203" y2="700.3203"/><text fill="#000000" font-family="sans-serif" font-size="13" lengthAdjust="spacing" textLength="21.0298" x="396.062" y="695.5781">dto</text><polygon fill="#181818" points="291.4917,725.6309,281.4917,729.6309,291.4917,733.6309,287.4917,729.6309" style="stroke:#181818;stroke-width:1.0;"/><line style="stroke:#181818;stroke-width:1.0;stroke-dasharray:2.0,2.0;" x1="285.4917" x2="373.062" y1="729.6309" y2="729.6309"/><text fill="#000000" font-family="sans-serif" font-size="13" lengthAdjust="spacing" textLength="21.0298" x="297.4917" y="724.8887">dto</text><polygon fill="#181818" points="192.9214,754.9414,182.9214,758.9414,192.9214,762.9414,188.9214,758.9414" style="stroke:#181818;stroke-width:1.0;"/><line style="stroke:#181818;stroke-width:1.0;stroke-dasharray:2.0,2.0;" x1="186.9214" x2="274.4917" y1="758.9414" y2="758.9414"/><text fill="#000000" font-family="sans-serif" font-size="13" lengthAdjust="spacing" textLength="47.1821" x="198.9214" y="754.1992">Ok(dto)</text><polygon fill="#181818" points="11,784.252,1,788.252,11,792.252,7,788.252" style="stroke:#181818;stroke-width:1.0;"/><line style="stroke:#181818;stroke-width:1.0;stroke-dasharray:2.0,2.0;" x1="5" x2="175.9214" y1="788.252" y2="788.252"/><text fill="#000000" font-family="sans-serif" font-size="13" lengthAdjust="spacing" textLength="46.4712" x="17" y="783.5098">200 Ok</text><!--SRC=[pPNVJy8m4CVVzrSqFE73WFX8Z0a1WYQQ6PZnkMv56qQxb8E46FztkxNRhliXA3xOfpPtzxblRxrTIXNmYATK0EajvHwuUEiHkYDsxwNOOIe5A9aaJEK-rT5rMp5ru17BVUpUTRXVibJkE4XrDCdAe-ltIDFKvZ9RrpoJMyf5RZRRcZaCZ2qCQkcV1OTW_IBL9dUeZfxdtnPN9sDo5uPFP3P_c8TpCgGf7mu6WmyUVteq0dwWmCeoUKIl8b0pgj9ep8mb35W_1dcL-vNHg82v8LieKdDi-LeW3gYeScd9LX6hCQPwcX9AKocNux1ifHrZjX8fKxAMYZ0QlHCAeFZh7jYOD3opPJFgtBhyEl62GHNJ6b4AoBvNgqUsCfgFRxHai5VY13jcf-b8SLuYpLxzGBHvWDsw3VCowIP7tOE9k9ctk8tpXk8c0E7RFZnwGrMJQj8aZYUxeuZw1jdnb51VDmGYd2jIzrYNmYuUKbdriaPDvNRBmGZja8XxlouHiSwMY7ZOeqkktHhaETqR1j-N_C-xj-Y5nR_iXRF-FQl_zE-ve7j1_gfrw-C8Sn2ZCKFm97B6Oh2fnWS2rAVPZU-ZeElHI0Vc1W-tj1sWNm00]--></g></svg>