<?xml version="1.0" encoding="us-ascii" standalone="no"?><svg xmlns="http://www.w3.org/2000/svg" xmlns:xlink="http://www.w3.org/1999/xlink" contentStyleType="text/css" height="750px" preserveAspectRatio="none" style="width:1699px;height:750px;background:#FFFFFF;" version="1.1" viewBox="0 0 1699 750" width="1699px" zoomAndPan="magnify"><defs/><g><text fill="#000000" font-family="sans-serif" font-size="14" font-weight="bold" lengthAdjust="spacing" textLength="194" x="745.5" y="24.5332">Domain Model (DM) - UC021</text><!--cluster OperationTypeAggregate--><g id="cluster_OperationTypeAggregate"><rect fill="none" height="355" rx="2.5" ry="2.5" style="stroke:#000000;stroke-width:1.5;" width="939" x="203" y="129.6094"/><text fill="#000000" font-family="sans-serif" font-size="14" font-weight="bold" lengthAdjust="spacing" textLength="176" x="584.5" y="146.1426">OperationTypeAggregate</text></g><!--class OperationType--><g id="elem_OperationType"><rect codeLine="16" fill="#F1F1F1" height="50.7031" id="OperationType" rx="2.5" ry="2.5" style="stroke:#181818;stroke-width:0.5;" width="101" x="219" y="413.1094"/><text fill="#000000" font-family="sans-serif" font-size="12" font-style="italic" lengthAdjust="spacing" textLength="67" x="236" y="430.5664">&#171;root entity&#187;</text><text fill="#000000" font-family="sans-serif" font-size="14" lengthAdjust="spacing" textLength="95" x="222" y="447.7363">OperationType</text><line style="stroke:#181818;stroke-width:0.5;" x1="220" x2="319" y1="455.8125" y2="455.8125"/></g><!--class OperationTypeID--><g id="elem_OperationTypeID"><rect codeLine="17" fill="#F1F1F1" height="50.7031" id="OperationTypeID" rx="2.5" ry="2.5" style="stroke:#181818;stroke-width:0.5;" width="114" x="472" y="415.1094"/><text fill="#000000" font-family="sans-serif" font-size="12" font-style="italic" lengthAdjust="spacing" textLength="81" x="488.5" y="432.5664">&#171;value object&#187;</text><text fill="#000000" font-family="sans-serif" font-size="14" lengthAdjust="spacing" textLength="108" x="475" y="449.7363">OperationTypeID</text><line style="stroke:#181818;stroke-width:0.5;" x1="473" x2="585" y1="457.8125" y2="457.8125"/></g><g id="elem_GMN5"><path d="M852.5,442.6094 L852.5,449.4394 L586.03,442.8394 L852.5,457.4394 L852.5,468.9609 A0,0 0 0 0 852.5,468.9609 L963.5,468.9609 A0,0 0 0 0 963.5,468.9609 L963.5,452.6094 L953.5,442.6094 L852.5,442.6094 A0,0 0 0 0 852.5,442.6094 " fill="#FEFFDD" style="stroke:#181818;stroke-width:0.5;"/><path d="M953.5,442.6094 L953.5,452.6094 L963.5,452.6094 L953.5,442.6094 " fill="#FEFFDD" style="stroke:#181818;stroke-width:0.5;"/><text fill="#000000" font-family="sans-serif" font-size="13" lengthAdjust="spacing" textLength="90" x="858.5" y="461.1045">unique identifier</text></g><!--class RequiredStaff--><g id="elem_RequiredStaff"><rect codeLine="19" fill="#F1F1F1" height="50.7031" id="RequiredStaff" rx="2.5" ry="2.5" style="stroke:#181818;stroke-width:0.5;" width="93" x="482.5" y="329.1094"/><text fill="#000000" font-family="sans-serif" font-size="12" font-style="italic" lengthAdjust="spacing" textLength="81" x="488.5" y="346.5664">&#171;value object&#187;</text><text fill="#000000" font-family="sans-serif" font-size="14" lengthAdjust="spacing" textLength="87" x="485.5" y="363.7363">RequiredStaff</text><line style="stroke:#181818;stroke-width:0.5;" x1="483.5" x2="574.5" y1="371.8125" y2="371.8125"/></g><!--class Quantity--><g id="elem_Quantity"><rect codeLine="20" fill="#F1F1F1" height="50.7031" id="Quantity" rx="2.5" ry="2.5" style="stroke:#181818;stroke-width:0.5;" width="83" x="866.5" y="356.1094"/><text fill="#000000" font-family="sans-serif" font-size="12" font-style="italic" lengthAdjust="spacing" textLength="81" x="867.5" y="373.5664">&#171;value object&#187;</text><text fill="#000000" font-family="sans-serif" font-size="14" lengthAdjust="spacing" textLength="53" x="881.5" y="390.7363">Quantity</text><line style="stroke:#181818;stroke-width:0.5;" x1="867.5" x2="948.5" y1="398.8125" y2="398.8125"/></g><!--class PhaseDetails--><g id="elem_PhaseDetails"><rect codeLine="21" fill="#F1F1F1" height="50.7031" id="PhaseDetails" rx="2.5" ry="2.5" style="stroke:#181818;stroke-width:0.5;" width="89" x="484.5" y="243.1094"/><text fill="#000000" font-family="sans-serif" font-size="12" font-style="italic" lengthAdjust="spacing" textLength="81" x="488.5" y="260.5664">&#171;value object&#187;</text><text fill="#000000" font-family="sans-serif" font-size="14" lengthAdjust="spacing" textLength="83" x="487.5" y="277.7363">PhaseDetails</text><line style="stroke:#181818;stroke-width:0.5;" x1="485.5" x2="572.5" y1="285.8125" y2="285.8125"/></g><!--class Phase--><g id="elem_Phase"><rect codeLine="22" fill="#F1F1F1" height="68.3125" id="Phase" rx="2.5" ry="2.5" style="stroke:#181818;stroke-width:0.5;" width="436" x="690" y="252.6094"/><text fill="#000000" font-family="sans-serif" font-size="12" font-style="italic" lengthAdjust="spacing" textLength="81" x="867.5" y="270.0664">&#171;value object&#187;</text><text fill="#000000" font-family="sans-serif" font-size="14" lengthAdjust="spacing" textLength="40" x="888" y="287.2363">Phase</text><line style="stroke:#181818;stroke-width:0.5;" x1="691" x2="1125" y1="295.3125" y2="295.3125"/><text fill="#000000" font-family="sans-serif" font-size="14" lengthAdjust="spacing" textLength="424" x="696" y="313.8457">ANAESTHESIA_PREPARATION, SURGERY_PROCESS, CLEANING</text></g><!--class Duration--><g id="elem_Duration"><rect codeLine="25" fill="#F1F1F1" height="50.7031" id="Duration" rx="2.5" ry="2.5" style="stroke:#181818;stroke-width:0.5;" width="83" x="866.5" y="166.1094"/><text fill="#000000" font-family="sans-serif" font-size="12" font-style="italic" lengthAdjust="spacing" textLength="81" x="867.5" y="183.5664">&#171;value object&#187;</text><text fill="#000000" font-family="sans-serif" font-size="14" lengthAdjust="spacing" textLength="54" x="881" y="200.7363">Duration</text><line style="stroke:#181818;stroke-width:0.5;" x1="867.5" x2="948.5" y1="208.8125" y2="208.8125"/></g><!--class Admin--><g id="elem_Admin"><rect codeLine="28" fill="#F1F1F1" height="50.7031" id="Admin" rx="2.5" ry="2.5" style="stroke:#181818;stroke-width:0.5;" width="107" x="7" y="413.1094"/><text fill="#000000" font-family="sans-serif" font-size="12" font-style="italic" lengthAdjust="spacing" textLength="105" x="8" y="430.5664">&#171;conceptual class&#187;</text><text fill="#000000" font-family="sans-serif" font-size="14" lengthAdjust="spacing" textLength="39" x="41" y="447.7363">Admin</text><line style="stroke:#181818;stroke-width:0.5;" x1="8" x2="113" y1="455.8125" y2="455.8125"/></g><!--class Name--><g id="elem_Name"><rect codeLine="29" fill="#F1F1F1" height="50.7031" id="Name" rx="2.5" ry="2.5" style="stroke:#181818;stroke-width:0.5;" width="83" x="487.5" y="501.1094"/><text fill="#000000" font-family="sans-serif" font-size="12" font-style="italic" lengthAdjust="spacing" textLength="81" x="488.5" y="518.5664">&#171;value object&#187;</text><text fill="#000000" font-family="sans-serif" font-size="14" lengthAdjust="spacing" textLength="36" x="511" y="535.7363">Name</text><line style="stroke:#181818;stroke-width:0.5;" x1="488.5" x2="569.5" y1="543.8125" y2="543.8125"/></g><!--class Specialization--><g id="elem_Specialization"><rect codeLine="30" fill="#F1F1F1" height="50.7031" id="Specialization" rx="2.5" ry="2.5" style="stroke:#181818;stroke-width:0.5;" width="92" x="862" y="551.1094"/><text fill="#000000" font-family="sans-serif" font-size="12" font-style="italic" lengthAdjust="spacing" textLength="81" x="867.5" y="568.5664">&#171;value object&#187;</text><text fill="#000000" font-family="sans-serif" font-size="14" lengthAdjust="spacing" textLength="86" x="865" y="585.7363">Specialization</text><line style="stroke:#181818;stroke-width:0.5;" x1="863" x2="953" y1="593.8125" y2="593.8125"/></g><!--class Role--><g id="elem_Role"><rect codeLine="31" fill="#F1F1F1" height="68.3125" id="Role" rx="2.5" ry="2.5" style="stroke:#181818;stroke-width:0.5;" width="330" x="743" y="45.6094"/><text fill="#000000" font-family="sans-serif" font-size="12" font-style="italic" lengthAdjust="spacing" textLength="81" x="867.5" y="63.0664">&#171;value object&#187;</text><text fill="#000000" font-family="sans-serif" font-size="14" lengthAdjust="spacing" textLength="29" x="893.5" y="80.2363">Role</text><line style="stroke:#181818;stroke-width:0.5;" x1="744" x2="1072" y1="88.3125" y2="88.3125"/><text fill="#000000" font-family="sans-serif" font-size="14" lengthAdjust="spacing" textLength="318" x="749" y="106.8457">ADMIN, DOCTOR, NURSE, TECHNICIAN, PATIENT</text></g><g id="elem_GMN17"><path d="M1189,66.6094 L1189,75.6094 L1073.22,79.6094 L1189,83.6094 L1189,92.9609 A0,0 0 0 0 1189,92.9609 L1692,92.9609 A0,0 0 0 0 1692,92.9609 L1692,76.6094 L1682,66.6094 L1189,66.6094 A0,0 0 0 0 1189,66.6094 " fill="#FEFFDD" style="stroke:#181818;stroke-width:0.5;"/><path d="M1682,66.6094 L1682,76.6094 L1692,76.6094 L1682,66.6094 " fill="#FEFFDD" style="stroke:#181818;stroke-width:0.5;"/><text fill="#000000" font-family="sans-serif" font-size="13" lengthAdjust="spacing" textLength="482" x="1195" y="85.1045">in this Use Case, only Staff roles are considered (DOCTOR, NURSE, TECHNICIAN)</text></g><!--class Status--><g id="elem_Status"><rect codeLine="35" fill="#F1F1F1" height="68.3125" id="Status" rx="2.5" ry="2.5" style="stroke:#181818;stroke-width:0.5;" width="130" x="464" y="675.6094"/><text fill="#000000" font-family="sans-serif" font-size="12" font-style="italic" lengthAdjust="spacing" textLength="81" x="488.5" y="693.0664">&#171;value object&#187;</text><text fill="#000000" font-family="sans-serif" font-size="14" lengthAdjust="spacing" textLength="40" x="509" y="710.2363">Status</text><line style="stroke:#181818;stroke-width:0.5;" x1="465" x2="593" y1="718.3125" y2="718.3125"/><text fill="#000000" font-family="sans-serif" font-size="14" lengthAdjust="spacing" textLength="118" x="470" y="736.8457">ACTIVE, INACTIVE</text></g><!--link Admin to OperationType--><g id="link_Admin_OperationType"><path codeLine="39" d="M114,438.6094 C146.22,438.6094 187.23,438.6094 218.9,438.6094 " fill="none" id="Admin-OperationType" style="stroke:#181818;stroke-width:1.0;"/><polygon fill="#000000" points="154,429.7852,144.9549,426.8462,144.9549,432.7241,154,429.7852" style="stroke:#000000;stroke-width:1.0;"/><text fill="#000000" font-family="sans-serif" font-size="13" lengthAdjust="spacing" textLength="28" x="158" y="435.1045">edits</text><text fill="#000000" font-family="sans-serif" font-size="13" lengthAdjust="spacing" textLength="7" x="122.0156" y="453.2751">1</text><text fill="#000000" font-family="sans-serif" font-size="13" lengthAdjust="spacing" textLength="5" x="206.1009" y="453.3271">*</text></g><!--link OperationType to OperationTypeID--><g id="link_OperationType_OperationTypeID"><path codeLine="41" d="M320.15,438.9994 C363.55,439.3294 426.54,439.8194 471.79,440.1694 " fill="none" id="OperationType-OperationTypeID" style="stroke:#181818;stroke-width:1.0;"/><polygon fill="#000000" points="359.9999,430.8237,350.9777,427.8151,350.9324,433.6928,359.9999,430.8237" style="stroke:#000000;stroke-width:1.0;"/><text fill="#000000" font-family="sans-serif" font-size="13" lengthAdjust="spacing" textLength="69" x="364" y="436.1045">identified by</text><text fill="#000000" font-family="sans-serif" font-size="13" lengthAdjust="spacing" textLength="7" x="328.1033" y="453.7744">1</text><text fill="#000000" font-family="sans-serif" font-size="13" lengthAdjust="spacing" textLength="7" x="457.0115" y="454.6747">1</text></g><!--link OperationType to Name--><g id="link_OperationType_Name"><path codeLine="42" d="M320.08,456.1894 C329.98,459.6694 340.32,463.2694 350,466.6094 C397.02,482.8094 451.18,500.9994 487.3,513.0594 " fill="none" id="OperationType-Name" style="stroke:#181818;stroke-width:1.0;"/><polygon fill="#000000" points="383.7337,459.3951,376.1166,453.7003,374.2241,459.2651,383.7337,459.3951" style="stroke:#000000;stroke-width:1.0;"/><text fill="#000000" font-family="sans-serif" font-size="13" lengthAdjust="spacing" textLength="21" x="388" y="463.1045">has</text><text fill="#000000" font-family="sans-serif" font-size="13" lengthAdjust="spacing" textLength="7" x="328.023" y="473.4892">1</text><text fill="#000000" font-family="sans-serif" font-size="13" lengthAdjust="spacing" textLength="7" x="472.5313" y="525.6563">1</text></g><!--link OperationType to Status--><g id="link_OperationType_Status"><path codeLine="43" d="M273.09,464.1894 C278.9,508.1794 296.91,598.3594 350,649.6094 C380.62,679.1694 426.28,694.1794 463.68,701.7994 " fill="none" id="OperationType-Status" style="stroke:#181818;stroke-width:1.0;"/><polygon fill="#000000" points="382.1285,644.6855,378.7615,635.7908,374.1764,639.4686,382.1285,644.6855" style="stroke:#000000;stroke-width:1.0;"/><text fill="#000000" font-family="sans-serif" font-size="13" lengthAdjust="spacing" textLength="21" x="388" y="646.1045">has</text><text fill="#000000" font-family="sans-serif" font-size="13" lengthAdjust="spacing" textLength="5" x="268.3284" y="485.101">*</text><text fill="#000000" font-family="sans-serif" font-size="13" lengthAdjust="spacing" textLength="7" x="449.1528" y="715.3174">1</text></g><!--link OperationType to Specialization--><g id="link_OperationType_Specialization"><path codeLine="44" d="M292.64,464.2094 C325.66,500.1494 391.7,563.8494 464,587.6094 C603.05,633.3094 780.09,605.0094 861.86,587.4594 " fill="none" id="OperationType-Specialization" style="stroke:#181818;stroke-width:1.0;"/><polygon fill="#000000" points="520.8868,579.8433,512.6685,575.0568,511.4246,580.8015,520.8868,579.8433" style="stroke:#000000;stroke-width:1.0;"/><text fill="#000000" font-family="sans-serif" font-size="13" lengthAdjust="spacing" textLength="21" x="525" y="584.1045">has</text><text fill="#000000" font-family="sans-serif" font-size="13" lengthAdjust="spacing" textLength="5" x="292.155" y="485.1254">*</text><text fill="#000000" font-family="sans-serif" font-size="13" lengthAdjust="spacing" textLength="7" x="846.9486" y="604.0104">1</text></g><!--link OperationType to RequiredStaff--><g id="link_OperationType_RequiredStaff"><path codeLine="45" d="M320.15,422.4094 C367.06,407.1094 436.85,384.3394 482.39,369.4894 " fill="none" id="OperationType-RequiredStaff" style="stroke:#181818;stroke-width:1.0;"/><polygon fill="#000000" points="376.7535,377.2346,367.243,377.2455,369.0657,382.8336,376.7535,377.2346" style="stroke:#000000;stroke-width:1.0;"/><text fill="#000000" font-family="sans-serif" font-size="13" lengthAdjust="spacing" textLength="35" x="381" y="384.1045">needs</text><text fill="#000000" font-family="sans-serif" font-size="13" lengthAdjust="spacing" textLength="7" x="328.1033" y="434.7477">1</text><text fill="#000000" font-family="sans-serif" font-size="13" lengthAdjust="spacing" textLength="7" x="467.4037" y="386.6827">1</text></g><!--link OperationType to PhaseDetails--><g id="link_OperationType_PhaseDetails"><path codeLine="46" d="M293.24,413.0894 C308.32,397.0694 329.13,376.6794 350,361.6094 C392.68,330.7894 446.94,303.9694 484.27,287.1594 " fill="none" id="OperationType-PhaseDetails" style="stroke:#181818;stroke-width:1.0;"/><polygon fill="#000000" points="383.1746,302.0332,374.0052,304.5578,377.2403,309.4653,383.1746,302.0332" style="stroke:#000000;stroke-width:1.0;"/><text fill="#000000" font-family="sans-serif" font-size="13" lengthAdjust="spacing" textLength="21" x="388" y="310.1045">has</text><text fill="#000000" font-family="sans-serif" font-size="13" lengthAdjust="spacing" textLength="7" x="291.4265" y="402.0781">1</text><text fill="#000000" font-family="sans-serif" font-size="13" lengthAdjust="spacing" textLength="20" x="456.5736" y="304.4337">1..*</text></g><!--link RequiredStaff to Role--><g id="link_RequiredStaff_Role"><path codeLine="47" d="M575.68,329.6694 C582.52,324.4094 588.96,318.3694 594,311.6094 C620.73,275.7794 600.86,253.8594 624,215.6094 C645.48,180.1194 654.61,171.2494 690,149.6094 C713.81,135.0494 740.96,123.2094 767.81,113.6794 " fill="none" id="RequiredStaff-Role" style="stroke:#181818;stroke-width:1.0;"/><polygon fill="#000000" points="632.3232,159.0493,624.1156,163.8542,628.5074,167.7608,632.3232,159.0493" style="stroke:#000000;stroke-width:1.0;"/><text fill="#000000" font-family="sans-serif" font-size="13" lengthAdjust="spacing" textLength="21" x="638" y="168.1045">has</text><text fill="#000000" font-family="sans-serif" font-size="13" lengthAdjust="spacing" textLength="5" x="583.5181" y="340.5164">*</text><text fill="#000000" font-family="sans-serif" font-size="13" lengthAdjust="spacing" textLength="7" x="732.521" y="135.4609">1</text></g><!--link RequiredStaff to Specialization--><g id="link_RequiredStaff_Specialization"><path codeLine="48" d="M569.9,380.1094 C578.03,385.6694 586.41,391.6694 594,397.6094 C639.35,433.0894 641.48,453.5994 690,484.6094 C745.17,519.8594 816.14,546.9894 861.61,562.3694 " fill="none" id="RequiredStaff-Specialization" style="stroke:#181818;stroke-width:1.0;"/><polygon fill="#000000" points="633.2404,420.4345,627.1267,413.1493,624.0122,418.1342,633.2404,420.4345" style="stroke:#000000;stroke-width:1.0;"/><text fill="#000000" font-family="sans-serif" font-size="13" lengthAdjust="spacing" textLength="21" x="638" y="423.1045">has</text><text fill="#000000" font-family="sans-serif" font-size="13" lengthAdjust="spacing" textLength="5" x="573.78" y="401.4263">*</text><text fill="#000000" font-family="sans-serif" font-size="13" lengthAdjust="spacing" textLength="7" x="846.9706" y="574.9586">1</text></g><!--link RequiredStaff to Quantity--><g id="link_RequiredStaff_Quantity"><path codeLine="49" d="M575.85,357.8894 C650.12,363.2094 795.56,373.6294 866.35,378.6994 " fill="none" id="RequiredStaff-Quantity" style="stroke:#181818;stroke-width:1.0;"/><polygon fill="#000000" points="633.9872,354.1424,625.1752,350.5647,624.7553,356.4275,633.9872,354.1424" style="stroke:#000000;stroke-width:1.0;"/><text fill="#000000" font-family="sans-serif" font-size="13" lengthAdjust="spacing" textLength="21" x="638" y="359.1045">has</text><text fill="#000000" font-family="sans-serif" font-size="13" lengthAdjust="spacing" textLength="7" x="583.5598" y="373.1614">1</text><text fill="#000000" font-family="sans-serif" font-size="13" lengthAdjust="spacing" textLength="7" x="851.5898" y="393.1251">1</text></g><!--link PhaseDetails to Phase--><g id="link_PhaseDetails_Phase"><path codeLine="50" d="M573.61,270.6894 C603.46,272.1194 645.52,274.1294 689.73,276.2394 " fill="none" id="PhaseDetails-Phase" style="stroke:#181818;stroke-width:1.0;"/><polygon fill="#000000" points="633.9943,265.0239,625.0998,261.6565,624.8192,267.5276,633.9943,265.0239" style="stroke:#000000;stroke-width:1.0;"/><text fill="#000000" font-family="sans-serif" font-size="13" lengthAdjust="spacing" textLength="21" x="638" y="270.1045">has</text><text fill="#000000" font-family="sans-serif" font-size="13" lengthAdjust="spacing" textLength="7" x="581.5782" y="285.9077">1</text><text fill="#000000" font-family="sans-serif" font-size="13" lengthAdjust="spacing" textLength="7" x="674.7601" y="289.65">1</text></g><!--link PhaseDetails to Duration--><g id="link_PhaseDetails_Duration"><path codeLine="51" d="M573.95,258.5594 C589.71,255.0094 607.64,251.0594 624,247.6094 C710.01,229.4994 811.1,209.8994 866.16,199.3694 " fill="none" id="PhaseDetails-Duration" style="stroke:#181818;stroke-width:1.0;"/><polygon fill="#000000" points="633.9005,231.7925,624.452,230.7078,625.6189,236.4686,633.9005,231.7925" style="stroke:#000000;stroke-width:1.0;"/><text fill="#000000" font-family="sans-serif" font-size="13" lengthAdjust="spacing" textLength="21" x="638" y="238.1045">has</text><text fill="#000000" font-family="sans-serif" font-size="13" lengthAdjust="spacing" textLength="7" x="581.3689" y="253.3402">1</text><text fill="#000000" font-family="sans-serif" font-size="13" lengthAdjust="spacing" textLength="7" x="851.3672" y="215.629">1</text></g><!--SRC=[XPDBRvj04CVl-ob6d9h8Zk8UhSWI0fGWrTW5NAcdQWrZs0POmYwjd2hVlSF33-nISrenlvdvpqkzYgBa5S-XvD4hJp3G-moXmaZp8icGgIEWKXxBtw98OCSpXUpC56LSALFhIcnhZMuaYq2y8pmofcK9Mi9MQYrpY4KJMCY2PRZJZQ4IIQhF_hDKn0YHg2BAtRvprAcC5OKIcfJPCkUYWAMCCODFzl8Efh2n7Z_F6Eih06DLOiMRSE6-H3D9AaouHWF-CA2l5Gi31fwUAYarO459zel56EVQHFxYMOqWjpz9SeyMKcDVYjnTkioXBiGRkL0r57ydi3gBx-DRJTN7WUQxtR-ZT-3NchVg_iUiKwxGHir5fcvoLq3Vd-OpFTC9mXSdSCqVQzzPcxuPkYjl0i76VtRyx_HpPJb1C07hYsDwhlVSkdwSvR3hhWdNEZuOwn0ppaLZfts9iDGrppfVOZh0u_crpDuMb1W9dedtaInzUsKsMgXfBrqgoLvPuSgVWBVn0sS2eMEzUAxbccHQKzME5vBYuOIRg7CWxJeL2ZRKIuiQEW5PP7le9baHee1NjCooK3HwcZ7jwrYkkqDLckjQZIgsGlSR-RbUzsfQsJNHc1amdO9nRrnizXmm5bh1Wh6XuU0nCwvsV0wBqxB6iDsFkxOJQdZQg4lg_aZrLTtcXZCTuK_PXyVJu0LYFEhmy42f1ZToo30CTAQetP-Rr8Zk2_wa-tZB1t8WwWpi3lKMTJor0_WN]--></g></svg>