<?xml version="1.0" encoding="us-ascii" standalone="no"?><svg xmlns="http://www.w3.org/2000/svg" xmlns:xlink="http://www.w3.org/1999/xlink" contentStyleType="text/css" height="924px" preserveAspectRatio="none" style="width:1255px;height:924px;background:#FFFFFF;" version="1.1" viewBox="0 0 1255 924" width="1255px" zoomAndPan="magnify"><defs/><g><text fill="#000000" font-family="sans-serif" font-size="14" font-weight="bold" lengthAdjust="spacing" textLength="231" x="513.25" y="29.5332">Sequence Diagram (SSD) - UC007</text><text fill="#000000" font-family="sans-serif" font-size="14" font-weight="bold" lengthAdjust="spacing" textLength="94" x="581.75" y="47.1426">Token Invalid</text><rect fill="#FFFFFF" height="618.1094" style="stroke:#181818;stroke-width:1.0;" width="10" x="240" y="191.1406"/><rect fill="#FFFFFF" height="541.0547" style="stroke:#181818;stroke-width:1.0;" width="10" x="362.5" y="221.4922"/><rect fill="#FFFFFF" height="480.3516" style="stroke:#181818;stroke-width:1.0;" width="10" x="554.5" y="251.8438"/><rect fill="#FFFFFF" height="28" style="stroke:#181818;stroke-width:1.0;" width="10" x="559.5" y="497.3047"/><rect fill="#FFFFFF" height="28" style="stroke:#181818;stroke-width:1.0;" width="10" x="559.5" y="570.6563"/><rect fill="#FFFFFF" height="28" style="stroke:#181818;stroke-width:1.0;" width="10" x="559.5" y="659.8438"/><rect fill="#FFFFFF" height="30.3516" style="stroke:#181818;stroke-width:1.0;" width="10" x="730.5" y="282.1953"/><rect fill="#FFFFFF" height="90.7031" style="stroke:#181818;stroke-width:1.0;" width="10" x="939" y="368.25"/><rect fill="#FFFFFF" height="30" style="stroke:#181818;stroke-width:1.0;" width="10" x="1143" y="398.6016"/><rect fill="none" height="375.2969" style="stroke:#000000;stroke-width:1.5;" width="741" x="507.5" y="327.5469"/><line style="stroke:#181818;stroke-width:0.5;stroke-dasharray:5.0,5.0;" x1="245" x2="245" y1="142.4375" y2="827.25"/><line style="stroke:#181818;stroke-width:0.5;stroke-dasharray:5.0,5.0;" x1="367" x2="367" y1="142.4375" y2="827.25"/><line style="stroke:#181818;stroke-width:0.5;stroke-dasharray:5.0,5.0;" x1="559.5" x2="559.5" y1="142.4375" y2="827.25"/><line style="stroke:#181818;stroke-width:0.5;stroke-dasharray:5.0,5.0;" x1="735" x2="735" y1="142.4375" y2="827.25"/><line style="stroke:#181818;stroke-width:0.5;stroke-dasharray:5.0,5.0;" x1="831" x2="831" y1="142.4375" y2="827.25"/><line style="stroke:#181818;stroke-width:0.5;stroke-dasharray:5.0,5.0;" x1="944" x2="944" y1="142.4375" y2="827.25"/><line style="stroke:#181818;stroke-width:0.5;stroke-dasharray:5.0,5.0;" x1="1147.5" x2="1147.5" y1="142.4375" y2="827.25"/><rect fill="#E3E3E3" height="49.2188" rx="2.5" ry="2.5" style="stroke:#181818;stroke-width:0.5;" width="120" x="185" y="92.2188"/><text fill="#000000" font-family="sans-serif" font-size="14" font-style="italic" lengthAdjust="spacing" textLength="75" x="207.5" y="113.752">&#171;controller&#187;</text><text fill="#000000" font-family="sans-serif" font-size="14" lengthAdjust="spacing" textLength="106" x="192" y="131.3613">PatientController</text><rect fill="#E3E3E3" height="49.2188" rx="2.5" ry="2.5" style="stroke:#181818;stroke-width:0.5;" width="120" x="185" y="826.25"/><text fill="#000000" font-family="sans-serif" font-size="14" font-style="italic" lengthAdjust="spacing" textLength="75" x="207.5" y="847.7832">&#171;controller&#187;</text><text fill="#000000" font-family="sans-serif" font-size="14" lengthAdjust="spacing" textLength="106" x="192" y="865.3926">PatientController</text><rect fill="#E3E3E3" height="49.2188" rx="2.5" ry="2.5" style="stroke:#181818;stroke-width:0.5;" width="105" x="315" y="92.2188"/><text fill="#000000" font-family="sans-serif" font-size="14" font-style="italic" lengthAdjust="spacing" textLength="60" x="337.5" y="113.752">&#171;service&#187;</text><text fill="#000000" font-family="sans-serif" font-size="14" lengthAdjust="spacing" textLength="91" x="322" y="131.3613">PatientService</text><rect fill="#E3E3E3" height="49.2188" rx="2.5" ry="2.5" style="stroke:#181818;stroke-width:0.5;" width="105" x="315" y="826.25"/><text fill="#000000" font-family="sans-serif" font-size="14" font-style="italic" lengthAdjust="spacing" textLength="60" x="337.5" y="847.7832">&#171;service&#187;</text><text fill="#000000" font-family="sans-serif" font-size="14" lengthAdjust="spacing" textLength="91" x="322" y="865.3926">PatientService</text><rect fill="#E3E3E3" height="49.2188" rx="2.5" ry="2.5" style="stroke:#181818;stroke-width:0.5;" width="84" x="517.5" y="92.2188"/><text fill="#000000" font-family="sans-serif" font-size="14" font-style="italic" lengthAdjust="spacing" textLength="60" x="529.5" y="113.752">&#171;service&#187;</text><text fill="#000000" font-family="sans-serif" font-size="14" lengthAdjust="spacing" textLength="70" x="524.5" y="131.3613">IAMService</text><rect fill="#E3E3E3" height="49.2188" rx="2.5" ry="2.5" style="stroke:#181818;stroke-width:0.5;" width="84" x="517.5" y="826.25"/><text fill="#000000" font-family="sans-serif" font-size="14" font-style="italic" lengthAdjust="spacing" textLength="60" x="529.5" y="847.7832">&#171;service&#187;</text><text fill="#000000" font-family="sans-serif" font-size="14" lengthAdjust="spacing" textLength="70" x="524.5" y="865.3926">IAMService</text><rect fill="#E3E3E3" height="49.2188" rx="2.5" ry="2.5" style="stroke:#181818;stroke-width:0.5;" width="83" x="694" y="92.2188"/><text fill="#000000" font-family="sans-serif" font-size="14" font-style="italic" lengthAdjust="spacing" textLength="62" x="704.5" y="113.752">&#171;domain&#187;</text><text fill="#000000" font-family="sans-serif" font-size="14" lengthAdjust="spacing" textLength="69" x="701" y="131.3613">UserToken</text><rect fill="#E3E3E3" height="49.2188" rx="2.5" ry="2.5" style="stroke:#181818;stroke-width:0.5;" width="83" x="694" y="826.25"/><text fill="#000000" font-family="sans-serif" font-size="14" font-style="italic" lengthAdjust="spacing" textLength="62" x="704.5" y="847.7832">&#171;domain&#187;</text><text fill="#000000" font-family="sans-serif" font-size="14" lengthAdjust="spacing" textLength="69" x="701" y="865.3926">UserToken</text><rect fill="#E3E3E3" height="49.2188" rx="2.5" ry="2.5" style="stroke:#181818;stroke-width:0.5;" width="88" x="787" y="92.2188"/><text fill="#000000" font-family="sans-serif" font-size="14" font-style="italic" lengthAdjust="spacing" textLength="36" x="813" y="113.752">&#171;dto&#187;</text><text fill="#000000" font-family="sans-serif" font-size="14" lengthAdjust="spacing" textLength="74" x="794" y="131.3613">PatientDTO</text><rect fill="#E3E3E3" height="49.2188" rx="2.5" ry="2.5" style="stroke:#181818;stroke-width:0.5;" width="88" x="787" y="826.25"/><text fill="#000000" font-family="sans-serif" font-size="14" font-style="italic" lengthAdjust="spacing" textLength="36" x="813" y="847.7832">&#171;dto&#187;</text><text fill="#000000" font-family="sans-serif" font-size="14" lengthAdjust="spacing" textLength="74" x="794" y="865.3926">PatientDTO</text><text fill="#000000" font-family="sans-serif" font-size="14" font-style="italic" lengthAdjust="spacing" textLength="79" x="901.5" y="121.752">&#171;repository&#187;</text><text fill="#000000" font-family="sans-serif" font-size="14" lengthAdjust="spacing" textLength="112" x="885" y="139.3613">PatientRepository</text><path d="M926,71.2188 C926,61.2188 944,61.2188 944,61.2188 C944,61.2188 962,61.2188 962,71.2188 L962,97.2188 C962,107.2188 944,107.2188 944,107.2188 C944,107.2188 926,107.2188 926,97.2188 L926,71.2188 " fill="#E3E3E3" style="stroke:#181818;stroke-width:1.5;"/><path d="M926,71.2188 C926,81.2188 944,81.2188 944,81.2188 C944,81.2188 962,81.2188 962,71.2188 " fill="none" style="stroke:#181818;stroke-width:1.5;"/><text fill="#000000" font-family="sans-serif" font-size="14" font-style="italic" lengthAdjust="spacing" textLength="79" x="901.5" y="840.7832">&#171;repository&#187;</text><text fill="#000000" font-family="sans-serif" font-size="14" lengthAdjust="spacing" textLength="112" x="885" y="858.3926">PatientRepository</text><path d="M926,871.4688 C926,861.4688 944,861.4688 944,861.4688 C944,861.4688 962,861.4688 962,871.4688 L962,897.4688 C962,907.4688 944,907.4688 944,907.4688 C944,907.4688 926,907.4688 926,897.4688 L926,871.4688 " fill="#E3E3E3" style="stroke:#181818;stroke-width:1.5;"/><path d="M926,871.4688 C926,881.4688 944,881.4688 944,881.4688 C944,881.4688 962,881.4688 962,871.4688 " fill="none" style="stroke:#181818;stroke-width:1.5;"/><rect fill="#E3E3E3" height="49.2188" rx="2.5" ry="2.5" style="stroke:#181818;stroke-width:0.5;" width="181" x="1057.5" y="92.2188"/><text fill="#000000" font-family="sans-serif" font-size="14" font-style="italic" lengthAdjust="spacing" textLength="71" x="1112.5" y="113.752">&#171;interface&#187;</text><text fill="#000000" font-family="sans-serif" font-size="14" lengthAdjust="spacing" textLength="167" x="1064.5" y="131.3613">InterfacePatientRepository</text><rect fill="#E3E3E3" height="49.2188" rx="2.5" ry="2.5" style="stroke:#181818;stroke-width:0.5;" width="181" x="1057.5" y="826.25"/><text fill="#000000" font-family="sans-serif" font-size="14" font-style="italic" lengthAdjust="spacing" textLength="71" x="1112.5" y="847.7832">&#171;interface&#187;</text><text fill="#000000" font-family="sans-serif" font-size="14" lengthAdjust="spacing" textLength="167" x="1064.5" y="865.3926">InterfacePatientRepository</text><rect fill="#FFFFFF" height="618.1094" style="stroke:#181818;stroke-width:1.0;" width="10" x="240" y="191.1406"/><rect fill="#FFFFFF" height="541.0547" style="stroke:#181818;stroke-width:1.0;" width="10" x="362.5" y="221.4922"/><rect fill="#FFFFFF" height="480.3516" style="stroke:#181818;stroke-width:1.0;" width="10" x="554.5" y="251.8438"/><rect fill="#FFFFFF" height="28" style="stroke:#181818;stroke-width:1.0;" width="10" x="559.5" y="497.3047"/><rect fill="#FFFFFF" height="28" style="stroke:#181818;stroke-width:1.0;" width="10" x="559.5" y="570.6563"/><rect fill="#FFFFFF" height="28" style="stroke:#181818;stroke-width:1.0;" width="10" x="559.5" y="659.8438"/><rect fill="#FFFFFF" height="30.3516" style="stroke:#181818;stroke-width:1.0;" width="10" x="730.5" y="282.1953"/><rect fill="#FFFFFF" height="90.7031" style="stroke:#181818;stroke-width:1.0;" width="10" x="939" y="368.25"/><rect fill="#FFFFFF" height="30" style="stroke:#181818;stroke-width:1.0;" width="10" x="1143" y="398.6016"/><polygon fill="#181818" points="228,187.1406,238,191.1406,228,195.1406,232,191.1406" style="stroke:#181818;stroke-width:1.0;"/><line style="stroke:#181818;stroke-width:1.0;stroke-dasharray:2.0,2.0;" x1="0" x2="234" y1="191.1406" y2="191.1406"/><text fill="#000000" font-family="sans-serif" font-size="13" lengthAdjust="spacing" textLength="134" x="7" y="169.9326">POST /api/patient/login</text><text fill="#000000" font-family="sans-serif" font-size="13" lengthAdjust="spacing" textLength="78" x="7" y="186.2842">Body={token}</text><polygon fill="#181818" points="350.5,217.4922,360.5,221.4922,350.5,225.4922,354.5,221.4922" style="stroke:#181818;stroke-width:1.0;"/><line style="stroke:#181818;stroke-width:1.0;" x1="250" x2="356.5" y1="221.4922" y2="221.4922"/><text fill="#000000" font-family="sans-serif" font-size="13" lengthAdjust="spacing" textLength="71" x="257" y="216.6357">Login(token)</text><polygon fill="#181818" points="542.5,247.8438,552.5,251.8438,542.5,255.8438,546.5,251.8438" style="stroke:#181818;stroke-width:1.0;"/><line style="stroke:#181818;stroke-width:1.0;" x1="372.5" x2="548.5" y1="251.8438" y2="251.8438"/><text fill="#000000" font-family="sans-serif" font-size="13" lengthAdjust="spacing" textLength="163" x="379.5" y="246.9873">ValidatePatientToken(token)</text><polygon fill="#181818" points="718.5,278.1953,728.5,282.1953,718.5,286.1953,722.5,282.1953" style="stroke:#181818;stroke-width:1.0;"/><line style="stroke:#181818;stroke-width:1.0;" x1="564.5" x2="724.5" y1="282.1953" y2="282.1953"/><text fill="#000000" font-family="sans-serif" font-size="13" lengthAdjust="spacing" textLength="129" x="571.5" y="277.3389">new UserToken(token)</text><polygon fill="#181818" points="575.5,308.5469,565.5,312.5469,575.5,316.5469,571.5,312.5469" style="stroke:#181818;stroke-width:1.0;"/><line style="stroke:#181818;stroke-width:1.0;stroke-dasharray:2.0,2.0;" x1="569.5" x2="734.5" y1="312.5469" y2="312.5469"/><text fill="#000000" font-family="sans-serif" font-size="13" lengthAdjust="spacing" textLength="74" x="581.5" y="307.6904">patientToken</text><path d="M507.5,327.5469 L568.5,327.5469 L568.5,335.8984 L558.5,345.8984 L507.5,345.8984 L507.5,327.5469 " fill="#EEEEEE" style="stroke:#000000;stroke-width:1.5;"/><rect fill="none" height="375.2969" style="stroke:#000000;stroke-width:1.5;" width="741" x="507.5" y="327.5469"/><text fill="#000000" font-family="sans-serif" font-size="13" font-weight="bold" lengthAdjust="spacing" textLength="16" x="522.5" y="342.042">alt</text><text fill="#000000" font-family="sans-serif" font-size="11" font-weight="bold" lengthAdjust="spacing" textLength="23" x="583.5" y="340.9658">[try]</text><polygon fill="#181818" points="927,364.25,937,368.25,927,372.25,931,368.25" style="stroke:#181818;stroke-width:1.0;"/><line style="stroke:#181818;stroke-width:1.0;" x1="564.5" x2="933" y1="368.25" y2="368.25"/><text fill="#000000" font-family="sans-serif" font-size="13" lengthAdjust="spacing" textLength="175" x="571.5" y="363.3936">FindRoleByID(patientToken.id)</text><polygon fill="#181818" points="1131,394.6016,1141,398.6016,1131,402.6016,1135,398.6016" style="stroke:#181818;stroke-width:1.0;"/><line style="stroke:#181818;stroke-width:1.0;" x1="949" x2="1137" y1="398.6016" y2="398.6016"/><text fill="#000000" font-family="sans-serif" font-size="13" lengthAdjust="spacing" textLength="175" x="956" y="393.7451">FindRoleByID(patientToken.id)</text><polygon fill="#181818" points="575.5,454.9531,565.5,458.9531,575.5,462.9531,571.5,458.9531" style="stroke:#181818;stroke-width:1.0;"/><line style="stroke:#181818;stroke-width:1.0;stroke-dasharray:2.0,2.0;" x1="569.5" x2="943" y1="458.9531" y2="458.9531"/><text fill="#000000" font-family="sans-serif" font-size="13" lengthAdjust="spacing" textLength="21" x="581.5" y="454.0967">role</text><line style="stroke:#181818;stroke-width:1.0;" x1="569.5" x2="611.5" y1="489.3047" y2="489.3047"/><line style="stroke:#181818;stroke-width:1.0;" x1="611.5" x2="611.5" y1="489.3047" y2="502.3047"/><line style="stroke:#181818;stroke-width:1.0;" x1="570.5" x2="611.5" y1="502.3047" y2="502.3047"/><polygon fill="#181818" points="580.5,498.3047,570.5,502.3047,580.5,506.3047,576.5,502.3047" style="stroke:#181818;stroke-width:1.0;"/><text fill="#000000" font-family="sans-serif" font-size="13" lengthAdjust="spacing" textLength="150" x="576.5" y="484.4482">UserRole.PATIENT != role</text><line style="stroke:#181818;stroke-width:1.0;" x1="569.5" x2="611.5" y1="562.6563" y2="562.6563"/><line style="stroke:#181818;stroke-width:1.0;" x1="611.5" x2="611.5" y1="562.6563" y2="575.6563"/><line style="stroke:#181818;stroke-width:1.0;" x1="570.5" x2="611.5" y1="575.6563" y2="575.6563"/><polygon fill="#181818" points="580.5,571.6563,570.5,575.6563,580.5,579.6563,576.5,575.6563" style="stroke:#181818;stroke-width:1.0;"/><text fill="#000000" font-family="sans-serif" font-size="13" lengthAdjust="spacing" textLength="152" x="576.5" y="557.7998">TokenInvalid(patientToken)</text><line style="stroke:#000000;stroke-width:1.0;stroke-dasharray:2.0,2.0;" x1="507.5" x2="1248.5" y1="614.6563" y2="614.6563"/><text fill="#000000" font-family="sans-serif" font-size="11" font-weight="bold" lengthAdjust="spacing" textLength="58" x="512.5" y="626.0752">[catch(ex)]</text><line style="stroke:#181818;stroke-width:1.0;" x1="569.5" x2="611.5" y1="651.8438" y2="651.8438"/><line style="stroke:#181818;stroke-width:1.0;" x1="611.5" x2="611.5" y1="651.8438" y2="664.8438"/><line style="stroke:#181818;stroke-width:1.0;" x1="570.5" x2="611.5" y1="664.8438" y2="664.8438"/><polygon fill="#181818" points="580.5,660.8438,570.5,664.8438,580.5,668.8438,576.5,664.8438" style="stroke:#181818;stroke-width:1.0;"/><text fill="#000000" font-family="sans-serif" font-size="13" lengthAdjust="spacing" textLength="145" x="576.5" y="646.9873">TokenInvalid(patientToke)</text><polygon fill="#181818" points="383.5,728.1953,373.5,732.1953,383.5,736.1953,379.5,732.1953" style="stroke:#181818;stroke-width:1.0;"/><line style="stroke:#181818;stroke-width:1.0;stroke-dasharray:2.0,2.0;" x1="377.5" x2="558.5" y1="732.1953" y2="732.1953"/><text fill="#000000" font-family="sans-serif" font-size="13" lengthAdjust="spacing" textLength="74" x="389.5" y="727.3389">patientToken</text><polygon fill="#181818" points="261,758.5469,251,762.5469,261,766.5469,257,762.5469" style="stroke:#181818;stroke-width:1.0;"/><line style="stroke:#181818;stroke-width:1.0;stroke-dasharray:2.0,2.0;" x1="255" x2="366.5" y1="762.5469" y2="762.5469"/><text fill="#000000" font-family="sans-serif" font-size="13" lengthAdjust="spacing" textLength="71" x="267" y="757.6904">token invalid</text><polygon fill="#181818" points="11,805.25,1,809.25,11,813.25,7,809.25" style="stroke:#181818;stroke-width:1.0;"/><line style="stroke:#181818;stroke-width:1.0;stroke-dasharray:2.0,2.0;" x1="5" x2="244" y1="809.25" y2="809.25"/><text fill="#000000" font-family="sans-serif" font-size="13" lengthAdjust="spacing" textLength="101" x="17" y="788.042">401 Unauthorized</text><text fill="#000000" font-family="sans-serif" font-size="13" lengthAdjust="spacing" textLength="221" x="17" y="804.3936">Body={message: patientToken.status}</text><!--SRC=[hPLBZzem4CVl-HJJ6nooKAbIfIYBjBkq4bBRHHleQI_JP1OiWftQXYsjzhlN3d5m7fI-VC6FltypdfaCQiDuWHAti1LSf6ifjWHQxYXGzKc1wGPNbEX3JY0frSXNkIzGQyp4C-ChUC9SKH1efeqqeQyxuYd1bE7AwWP9CXr22CkxyVZj8r-83N6OyJtcB0i2mz8iPGLo3NFKZBY-4rnBaUSa0HLugpXEwyLaqdSr8RbdnhQvvwPnh8wpretPpKTFRLPdbKkpVVJQ28-JECx45XdlzsAwkBTI-sE4MXXLXXg_e28dUQ12AAQ5F5YbjufZMI_Q7dDDyWbJwcNKfmR1tDmGWZ2SU46CO7wVB6241HiLHyue5ol67_cjo0xNFxHzu4i0Pc2gsHurUTVBVJkyj1X-5Sa8FbZKe6GCQstDgMH1VMA7ouB1c2n4yDaMXb5Nhom3tYOsgEPMasYJQMZbpGWuFPzI-4jGgMWSsN7CUEZSApotEjgCMh2E0dDjlhH3Px_o-PJJ2DupdZs8d6uFi-d0Dtl5ic4Nx0oV41rDPyCEhupi6rtf_AdzPaeSfLVMYjH9VD4_bmHJUVre3-l5uLoqIvQj3VlCg_dDOlRkqm9UNVVp6mLtwKtjccnRBGDPTS56S8V_towPzWmfwdGze6_3l_FhtzswM8p4ipE- -HtcTx-_YoRhljFeZn11sIA0LVzGP_2kbRcZE0mRNVRD-3KiEUxqMaZsdJBNNhUabFbRRRxZIcdKE_KIz1WwGNy2]--></g></svg>