<?xml version="1.0" encoding="us-ascii" standalone="no"?><svg xmlns="http://www.w3.org/2000/svg" xmlns:xlink="http://www.w3.org/1999/xlink" contentStyleType="text/css" height="994px" preserveAspectRatio="none" style="width:842px;height:994px;background:#FFFFFF;" version="1.1" viewBox="0 0 842 994" width="842px" zoomAndPan="magnify"><defs/><g><text fill="#000000" font-family="sans-serif" font-size="14" font-weight="bold" lengthAdjust="spacing" textLength="190" x="319.25" y="24.5332">Class Diagram (CD) - UC007</text><!--class PatientController--><g id="elem_PatientController"><rect codeLine="8" fill="#F1F1F1" height="65.6094" id="PatientController" rx="2.5" ry="2.5" style="stroke:#181818;stroke-width:0.5;" width="227" x="364.5" y="45.6094"/><ellipse cx="420.75" cy="61.6094" fill="#ADD1B2" rx="11" ry="11" style="stroke:#181818;stroke-width:1.0;"/><path d="M423.5156,57.4844 Q423.6719,57.2656 423.8594,57.1563 Q424.0469,57.0469 424.2656,57.0469 Q424.6406,57.0469 424.875,57.3125 Q425.1094,57.5625 425.1094,58.1719 L425.1094,59.625 Q425.1094,60.2344 424.875,60.5 Q424.6406,60.7656 424.2656,60.7656 Q423.9219,60.7656 423.7188,60.5625 Q423.5156,60.375 423.4063,59.8594 Q423.3594,59.5 423.1719,59.3125 Q422.8438,58.9375 422.2344,58.7188 Q421.625,58.5 421,58.5 Q420.2344,58.5 419.5938,58.8281 Q418.9688,59.1563 418.4688,59.9063 Q417.9844,60.6563 417.9844,61.6875 L417.9844,62.7813 Q417.9844,64.0156 418.875,64.8438 Q419.7656,65.6563 421.3594,65.6563 Q422.2969,65.6563 422.9531,65.4063 Q423.3438,65.25 423.7656,64.8125 Q424.0313,64.5469 424.1719,64.4688 Q424.3281,64.3906 424.5313,64.3906 Q424.8594,64.3906 425.1094,64.6563 Q425.375,64.9063 425.375,65.25 Q425.375,65.5938 425.0313,66 Q424.5313,66.5781 423.7344,66.9063 Q422.6563,67.3594 421.3594,67.3594 Q419.8438,67.3594 418.6406,66.7344 Q417.6563,66.2344 416.9688,65.1719 Q416.2813,64.0938 416.2813,62.8125 L416.2813,61.6563 Q416.2813,60.3281 416.8906,59.1875 Q417.5156,58.0313 418.6094,57.4219 Q419.7031,56.7969 420.9375,56.7969 Q421.6719,56.7969 422.3125,56.9688 Q422.9688,57.125 423.5156,57.4844 Z " fill="#000000"/><text fill="#000000" font-family="sans-serif" font-size="14" lengthAdjust="spacing" textLength="106" x="441.25" y="67.3379">PatientController</text><line style="stroke:#181818;stroke-width:0.5;" x1="365.5" x2="590.5" y1="77.6094" y2="77.6094"/><line style="stroke:#181818;stroke-width:0.5;" x1="365.5" x2="590.5" y1="85.6094" y2="85.6094"/><text fill="#000000" font-family="sans-serif" font-size="14" lengthAdjust="spacing" textLength="215" x="370.5" y="104.1426">+Login(token: String): PatientDTO</text></g><!--class PatientService--><g id="elem_PatientService"><rect codeLine="12" fill="#F1F1F1" height="83.2188" id="PatientService" rx="2.5" ry="2.5" style="stroke:#181818;stroke-width:0.5;" width="294" x="331" y="189.6094"/><ellipse cx="428.25" cy="205.6094" fill="#ADD1B2" rx="11" ry="11" style="stroke:#181818;stroke-width:1.0;"/><path d="M431.0156,201.4844 Q431.1719,201.2656 431.3594,201.1563 Q431.5469,201.0469 431.7656,201.0469 Q432.1406,201.0469 432.375,201.3125 Q432.6094,201.5625 432.6094,202.1719 L432.6094,203.625 Q432.6094,204.2344 432.375,204.5 Q432.1406,204.7656 431.7656,204.7656 Q431.4219,204.7656 431.2188,204.5625 Q431.0156,204.375 430.9063,203.8594 Q430.8594,203.5 430.6719,203.3125 Q430.3438,202.9375 429.7344,202.7188 Q429.125,202.5 428.5,202.5 Q427.7344,202.5 427.0938,202.8281 Q426.4688,203.1563 425.9688,203.9063 Q425.4844,204.6563 425.4844,205.6875 L425.4844,206.7813 Q425.4844,208.0156 426.375,208.8438 Q427.2656,209.6563 428.8594,209.6563 Q429.7969,209.6563 430.4531,209.4063 Q430.8438,209.25 431.2656,208.8125 Q431.5313,208.5469 431.6719,208.4688 Q431.8281,208.3906 432.0313,208.3906 Q432.3594,208.3906 432.6094,208.6563 Q432.875,208.9063 432.875,209.25 Q432.875,209.5938 432.5313,210 Q432.0313,210.5781 431.2344,210.9063 Q430.1563,211.3594 428.8594,211.3594 Q427.3438,211.3594 426.1406,210.7344 Q425.1563,210.2344 424.4688,209.1719 Q423.7813,208.0938 423.7813,206.8125 L423.7813,205.6563 Q423.7813,204.3281 424.3906,203.1875 Q425.0156,202.0313 426.1094,201.4219 Q427.2031,200.7969 428.4375,200.7969 Q429.1719,200.7969 429.8125,200.9688 Q430.4688,201.125 431.0156,201.4844 Z " fill="#000000"/><text fill="#000000" font-family="sans-serif" font-size="14" lengthAdjust="spacing" textLength="91" x="448.75" y="211.3379">PatientService</text><line style="stroke:#181818;stroke-width:0.5;" x1="332" x2="624" y1="221.6094" y2="221.6094"/><line style="stroke:#181818;stroke-width:0.5;" x1="332" x2="624" y1="229.6094" y2="229.6094"/><text fill="#000000" font-family="sans-serif" font-size="14" lengthAdjust="spacing" textLength="215" x="337" y="248.1426">+Login(token: String): PatientDTO</text><text fill="#000000" font-family="sans-serif" font-size="14" lengthAdjust="spacing" textLength="282" x="337" y="265.752">+AccessData(patientDTO: PatientDTO): void</text></g><!--class IAMService--><g id="elem_IAMService"><rect codeLine="17" fill="#F1F1F1" height="65.6094" id="IAMService" rx="2.5" ry="2.5" style="stroke:#181818;stroke-width:0.5;" width="322" x="68" y="359.1094"/><ellipse cx="189.75" cy="375.1094" fill="#ADD1B2" rx="11" ry="11" style="stroke:#181818;stroke-width:1.0;"/><path d="M192.5156,370.9844 Q192.6719,370.7656 192.8594,370.6563 Q193.0469,370.5469 193.2656,370.5469 Q193.6406,370.5469 193.875,370.8125 Q194.1094,371.0625 194.1094,371.6719 L194.1094,373.125 Q194.1094,373.7344 193.875,374 Q193.6406,374.2656 193.2656,374.2656 Q192.9219,374.2656 192.7188,374.0625 Q192.5156,373.875 192.4063,373.3594 Q192.3594,373 192.1719,372.8125 Q191.8438,372.4375 191.2344,372.2188 Q190.625,372 190,372 Q189.2344,372 188.5938,372.3281 Q187.9688,372.6563 187.4688,373.4063 Q186.9844,374.1563 186.9844,375.1875 L186.9844,376.2813 Q186.9844,377.5156 187.875,378.3438 Q188.7656,379.1563 190.3594,379.1563 Q191.2969,379.1563 191.9531,378.9063 Q192.3438,378.75 192.7656,378.3125 Q193.0313,378.0469 193.1719,377.9688 Q193.3281,377.8906 193.5313,377.8906 Q193.8594,377.8906 194.1094,378.1563 Q194.375,378.4063 194.375,378.75 Q194.375,379.0938 194.0313,379.5 Q193.5313,380.0781 192.7344,380.4063 Q191.6563,380.8594 190.3594,380.8594 Q188.8438,380.8594 187.6406,380.2344 Q186.6563,379.7344 185.9688,378.6719 Q185.2813,377.5938 185.2813,376.3125 L185.2813,375.1563 Q185.2813,373.8281 185.8906,372.6875 Q186.5156,371.5313 187.6094,370.9219 Q188.7031,370.2969 189.9375,370.2969 Q190.6719,370.2969 191.3125,370.4688 Q191.9688,370.625 192.5156,370.9844 Z " fill="#000000"/><text fill="#000000" font-family="sans-serif" font-size="14" lengthAdjust="spacing" textLength="70" x="210.25" y="380.8379">IAMService</text><line style="stroke:#181818;stroke-width:0.5;" x1="69" x2="389" y1="391.1094" y2="391.1094"/><line style="stroke:#181818;stroke-width:0.5;" x1="69" x2="389" y1="399.1094" y2="399.1094"/><text fill="#000000" font-family="sans-serif" font-size="14" lengthAdjust="spacing" textLength="310" x="74" y="417.6426">+ValidatePatientToken(token: String): UserToken</text></g><!--class UserToken--><g id="elem_UserToken"><rect codeLine="21" fill="#F1F1F1" height="136.0469" id="UserToken" rx="2.5" ry="2.5" style="stroke:#181818;stroke-width:0.5;" width="252" x="103" y="511.6094"/><ellipse cx="190.25" cy="527.6094" fill="#ADD1B2" rx="11" ry="11" style="stroke:#181818;stroke-width:1.0;"/><path d="M193.0156,523.4844 Q193.1719,523.2656 193.3594,523.1563 Q193.5469,523.0469 193.7656,523.0469 Q194.1406,523.0469 194.375,523.3125 Q194.6094,523.5625 194.6094,524.1719 L194.6094,525.625 Q194.6094,526.2344 194.375,526.5 Q194.1406,526.7656 193.7656,526.7656 Q193.4219,526.7656 193.2188,526.5625 Q193.0156,526.375 192.9063,525.8594 Q192.8594,525.5 192.6719,525.3125 Q192.3438,524.9375 191.7344,524.7188 Q191.125,524.5 190.5,524.5 Q189.7344,524.5 189.0938,524.8281 Q188.4688,525.1563 187.9688,525.9063 Q187.4844,526.6563 187.4844,527.6875 L187.4844,528.7813 Q187.4844,530.0156 188.375,530.8438 Q189.2656,531.6563 190.8594,531.6563 Q191.7969,531.6563 192.4531,531.4063 Q192.8438,531.25 193.2656,530.8125 Q193.5313,530.5469 193.6719,530.4688 Q193.8281,530.3906 194.0313,530.3906 Q194.3594,530.3906 194.6094,530.6563 Q194.875,530.9063 194.875,531.25 Q194.875,531.5938 194.5313,532 Q194.0313,532.5781 193.2344,532.9063 Q192.1563,533.3594 190.8594,533.3594 Q189.3438,533.3594 188.1406,532.7344 Q187.1563,532.2344 186.4688,531.1719 Q185.7813,530.0938 185.7813,528.8125 L185.7813,527.6563 Q185.7813,526.3281 186.3906,525.1875 Q187.0156,524.0313 188.1094,523.4219 Q189.2031,522.7969 190.4375,522.7969 Q191.1719,522.7969 191.8125,522.9688 Q192.4688,523.125 193.0156,523.4844 Z " fill="#000000"/><text fill="#000000" font-family="sans-serif" font-size="14" lengthAdjust="spacing" textLength="69" x="210.75" y="533.3379">UserToken</text><line style="stroke:#181818;stroke-width:0.5;" x1="104" x2="354" y1="543.6094" y2="543.6094"/><text fill="#000000" font-family="sans-serif" font-size="14" lengthAdjust="spacing" textLength="61" x="109" y="562.1426">-id: String</text><text fill="#000000" font-family="sans-serif" font-size="14" lengthAdjust="spacing" textLength="150" x="109" y="579.752">-expiredDate: DateTime</text><text fill="#000000" font-family="sans-serif" font-size="14" lengthAdjust="spacing" textLength="150" x="109" y="597.3613">-message: TokenStatus</text><line style="stroke:#181818;stroke-width:0.5;" x1="104" x2="354" y1="604.4375" y2="604.4375"/><text fill="#000000" font-family="sans-serif" font-size="14" lengthAdjust="spacing" textLength="231" x="109" y="622.9707">+TokenValid(token: UserToken) void</text><text fill="#000000" font-family="sans-serif" font-size="14" lengthAdjust="spacing" textLength="240" x="109" y="640.5801">+TokenInvalid(token: UserToken) void</text></g><!--class PatientDTO--><g id="elem_PatientDTO"><rect codeLine="29" fill="#F1F1F1" height="83.2188" id="PatientDTO" rx="2.5" ry="2.5" style="stroke:#181818;stroke-width:0.5;" width="106" x="425" y="350.6094"/><ellipse cx="440" cy="366.6094" fill="#ADD1B2" rx="11" ry="11" style="stroke:#181818;stroke-width:1.0;"/><path d="M442.7656,362.4844 Q442.9219,362.2656 443.1094,362.1563 Q443.2969,362.0469 443.5156,362.0469 Q443.8906,362.0469 444.125,362.3125 Q444.3594,362.5625 444.3594,363.1719 L444.3594,364.625 Q444.3594,365.2344 444.125,365.5 Q443.8906,365.7656 443.5156,365.7656 Q443.1719,365.7656 442.9688,365.5625 Q442.7656,365.375 442.6563,364.8594 Q442.6094,364.5 442.4219,364.3125 Q442.0938,363.9375 441.4844,363.7188 Q440.875,363.5 440.25,363.5 Q439.4844,363.5 438.8438,363.8281 Q438.2188,364.1563 437.7188,364.9063 Q437.2344,365.6563 437.2344,366.6875 L437.2344,367.7813 Q437.2344,369.0156 438.125,369.8438 Q439.0156,370.6563 440.6094,370.6563 Q441.5469,370.6563 442.2031,370.4063 Q442.5938,370.25 443.0156,369.8125 Q443.2813,369.5469 443.4219,369.4688 Q443.5781,369.3906 443.7813,369.3906 Q444.1094,369.3906 444.3594,369.6563 Q444.625,369.9063 444.625,370.25 Q444.625,370.5938 444.2813,371 Q443.7813,371.5781 442.9844,371.9063 Q441.9063,372.3594 440.6094,372.3594 Q439.0938,372.3594 437.8906,371.7344 Q436.9063,371.2344 436.2188,370.1719 Q435.5313,369.0938 435.5313,367.8125 L435.5313,366.6563 Q435.5313,365.3281 436.1406,364.1875 Q436.7656,363.0313 437.8594,362.4219 Q438.9531,361.7969 440.1875,361.7969 Q440.9219,361.7969 441.5625,361.9688 Q442.2188,362.125 442.7656,362.4844 Z " fill="#000000"/><text fill="#000000" font-family="sans-serif" font-size="14" lengthAdjust="spacing" textLength="74" x="454" y="372.3379">PatientDTO</text><line style="stroke:#181818;stroke-width:0.5;" x1="426" x2="530" y1="382.6094" y2="382.6094"/><text fill="#000000" font-family="sans-serif" font-size="14" lengthAdjust="spacing" textLength="61" x="431" y="401.1426">-id: String</text><text fill="#000000" font-family="sans-serif" font-size="14" lengthAdjust="spacing" textLength="66" x="431" y="418.752">-role: Role</text><line style="stroke:#181818;stroke-width:0.5;" x1="426" x2="530" y1="425.8281" y2="425.8281"/></g><!--class PatientRepository--><g id="elem_PatientRepository"><rect codeLine="35" fill="#F1F1F1" height="83.2188" id="PatientRepository" rx="2.5" ry="2.5" style="stroke:#181818;stroke-width:0.5;" width="269" x="566.5" y="350.6094"/><ellipse cx="640.75" cy="366.6094" fill="#ADD1B2" rx="11" ry="11" style="stroke:#181818;stroke-width:1.0;"/><path d="M643.5156,362.4844 Q643.6719,362.2656 643.8594,362.1563 Q644.0469,362.0469 644.2656,362.0469 Q644.6406,362.0469 644.875,362.3125 Q645.1094,362.5625 645.1094,363.1719 L645.1094,364.625 Q645.1094,365.2344 644.875,365.5 Q644.6406,365.7656 644.2656,365.7656 Q643.9219,365.7656 643.7188,365.5625 Q643.5156,365.375 643.4063,364.8594 Q643.3594,364.5 643.1719,364.3125 Q642.8438,363.9375 642.2344,363.7188 Q641.625,363.5 641,363.5 Q640.2344,363.5 639.5938,363.8281 Q638.9688,364.1563 638.4688,364.9063 Q637.9844,365.6563 637.9844,366.6875 L637.9844,367.7813 Q637.9844,369.0156 638.875,369.8438 Q639.7656,370.6563 641.3594,370.6563 Q642.2969,370.6563 642.9531,370.4063 Q643.3438,370.25 643.7656,369.8125 Q644.0313,369.5469 644.1719,369.4688 Q644.3281,369.3906 644.5313,369.3906 Q644.8594,369.3906 645.1094,369.6563 Q645.375,369.9063 645.375,370.25 Q645.375,370.5938 645.0313,371 Q644.5313,371.5781 643.7344,371.9063 Q642.6563,372.3594 641.3594,372.3594 Q639.8438,372.3594 638.6406,371.7344 Q637.6563,371.2344 636.9688,370.1719 Q636.2813,369.0938 636.2813,367.8125 L636.2813,366.6563 Q636.2813,365.3281 636.8906,364.1875 Q637.5156,363.0313 638.6094,362.4219 Q639.7031,361.7969 640.9375,361.7969 Q641.6719,361.7969 642.3125,361.9688 Q642.9688,362.125 643.5156,362.4844 Z " fill="#000000"/><text fill="#000000" font-family="sans-serif" font-size="14" lengthAdjust="spacing" textLength="112" x="661.25" y="372.3379">PatientRepository</text><line style="stroke:#181818;stroke-width:0.5;" x1="567.5" x2="834.5" y1="382.6094" y2="382.6094"/><line style="stroke:#181818;stroke-width:0.5;" x1="567.5" x2="834.5" y1="390.6094" y2="390.6094"/><text fill="#000000" font-family="sans-serif" font-size="14" lengthAdjust="spacing" textLength="197" x="572.5" y="409.1426">+FindRoleByID(id: String): Role</text><text fill="#000000" font-family="sans-serif" font-size="14" lengthAdjust="spacing" textLength="257" x="572.5" y="426.752">+FindPatientByID(id: String): PatientDTO</text></g><!--class InterfacePatientRepository--><g id="elem_InterfacePatientRepository"><rect codeLine="40" fill="#F1F1F1" height="83.2188" id="InterfacePatientRepository" rx="2.5" ry="2.5" style="stroke:#181818;stroke-width:0.5;" width="269" x="566.5" y="538.1094"/><ellipse cx="613.25" cy="554.1094" fill="#ADD1B2" rx="11" ry="11" style="stroke:#181818;stroke-width:1.0;"/><path d="M616.0156,549.9844 Q616.1719,549.7656 616.3594,549.6563 Q616.5469,549.5469 616.7656,549.5469 Q617.1406,549.5469 617.375,549.8125 Q617.6094,550.0625 617.6094,550.6719 L617.6094,552.125 Q617.6094,552.7344 617.375,553 Q617.1406,553.2656 616.7656,553.2656 Q616.4219,553.2656 616.2188,553.0625 Q616.0156,552.875 615.9063,552.3594 Q615.8594,552 615.6719,551.8125 Q615.3438,551.4375 614.7344,551.2188 Q614.125,551 613.5,551 Q612.7344,551 612.0938,551.3281 Q611.4688,551.6563 610.9688,552.4063 Q610.4844,553.1563 610.4844,554.1875 L610.4844,555.2813 Q610.4844,556.5156 611.375,557.3438 Q612.2656,558.1563 613.8594,558.1563 Q614.7969,558.1563 615.4531,557.9063 Q615.8438,557.75 616.2656,557.3125 Q616.5313,557.0469 616.6719,556.9688 Q616.8281,556.8906 617.0313,556.8906 Q617.3594,556.8906 617.6094,557.1563 Q617.875,557.4063 617.875,557.75 Q617.875,558.0938 617.5313,558.5 Q617.0313,559.0781 616.2344,559.4063 Q615.1563,559.8594 613.8594,559.8594 Q612.3438,559.8594 611.1406,559.2344 Q610.1563,558.7344 609.4688,557.6719 Q608.7813,556.5938 608.7813,555.3125 L608.7813,554.1563 Q608.7813,552.8281 609.3906,551.6875 Q610.0156,550.5313 611.1094,549.9219 Q612.2031,549.2969 613.4375,549.2969 Q614.1719,549.2969 614.8125,549.4688 Q615.4688,549.625 616.0156,549.9844 Z " fill="#000000"/><text fill="#000000" font-family="sans-serif" font-size="14" lengthAdjust="spacing" textLength="167" x="633.75" y="559.8379">InterfacePatientRepository</text><line style="stroke:#181818;stroke-width:0.5;" x1="567.5" x2="834.5" y1="570.1094" y2="570.1094"/><line style="stroke:#181818;stroke-width:0.5;" x1="567.5" x2="834.5" y1="578.1094" y2="578.1094"/><text fill="#000000" font-family="sans-serif" font-size="14" lengthAdjust="spacing" textLength="197" x="572.5" y="596.6426">+FindRoleByID(id: String): Role</text><text fill="#000000" font-family="sans-serif" font-size="14" lengthAdjust="spacing" textLength="257" x="572.5" y="614.252">+FindPatientByID(id: String): PatientDTO</text></g><!--class DateTime--><g id="elem_DateTime"><rect codeLine="45" fill="#F1F1F1" height="83.2188" id="DateTime" rx="2.5" ry="2.5" style="stroke:#181818;stroke-width:0.5;" width="93" x="87.5" y="725.6094"/><ellipse cx="102.5" cy="741.6094" fill="#ADD1B2" rx="11" ry="11" style="stroke:#181818;stroke-width:1.0;"/><path d="M105.2656,737.4844 Q105.4219,737.2656 105.6094,737.1563 Q105.7969,737.0469 106.0156,737.0469 Q106.3906,737.0469 106.625,737.3125 Q106.8594,737.5625 106.8594,738.1719 L106.8594,739.625 Q106.8594,740.2344 106.625,740.5 Q106.3906,740.7656 106.0156,740.7656 Q105.6719,740.7656 105.4688,740.5625 Q105.2656,740.375 105.1563,739.8594 Q105.1094,739.5 104.9219,739.3125 Q104.5938,738.9375 103.9844,738.7188 Q103.375,738.5 102.75,738.5 Q101.9844,738.5 101.3438,738.8281 Q100.7188,739.1563 100.2188,739.9063 Q99.7344,740.6563 99.7344,741.6875 L99.7344,742.7813 Q99.7344,744.0156 100.625,744.8438 Q101.5156,745.6563 103.1094,745.6563 Q104.0469,745.6563 104.7031,745.4063 Q105.0938,745.25 105.5156,744.8125 Q105.7813,744.5469 105.9219,744.4688 Q106.0781,744.3906 106.2813,744.3906 Q106.6094,744.3906 106.8594,744.6563 Q107.125,744.9063 107.125,745.25 Q107.125,745.5938 106.7813,746 Q106.2813,746.5781 105.4844,746.9063 Q104.4063,747.3594 103.1094,747.3594 Q101.5938,747.3594 100.3906,746.7344 Q99.4063,746.2344 98.7188,745.1719 Q98.0313,744.0938 98.0313,742.8125 L98.0313,741.6563 Q98.0313,740.3281 98.6406,739.1875 Q99.2656,738.0313 100.3594,737.4219 Q101.4531,736.7969 102.6875,736.7969 Q103.4219,736.7969 104.0625,736.9688 Q104.7188,737.125 105.2656,737.4844 Z " fill="#000000"/><text fill="#000000" font-family="sans-serif" font-size="14" lengthAdjust="spacing" textLength="61" x="116.5" y="747.3379">DateTime</text><line style="stroke:#181818;stroke-width:0.5;" x1="88.5" x2="179.5" y1="757.6094" y2="757.6094"/><text fill="#000000" font-family="sans-serif" font-size="14" lengthAdjust="spacing" textLength="71" x="93.5" y="776.1426">-date: Date</text><text fill="#000000" font-family="sans-serif" font-size="14" lengthAdjust="spacing" textLength="70" x="93.5" y="793.752">-time: Time</text><line style="stroke:#181818;stroke-width:0.5;" x1="88.5" x2="179.5" y1="800.8281" y2="800.8281"/></g><!--class Date--><g id="elem_Date"><rect codeLine="50" fill="#F1F1F1" height="100.8281" id="Date" rx="2.5" ry="2.5" style="stroke:#181818;stroke-width:0.5;" width="108" x="7" y="886.6094"/><ellipse cx="42.7" cy="902.6094" fill="#ADD1B2" rx="11" ry="11" style="stroke:#181818;stroke-width:1.0;"/><path d="M45.4656,898.4844 Q45.6219,898.2656 45.8094,898.1563 Q45.9969,898.0469 46.2156,898.0469 Q46.5906,898.0469 46.825,898.3125 Q47.0594,898.5625 47.0594,899.1719 L47.0594,900.625 Q47.0594,901.2344 46.825,901.5 Q46.5906,901.7656 46.2156,901.7656 Q45.8719,901.7656 45.6688,901.5625 Q45.4656,901.375 45.3563,900.8594 Q45.3094,900.5 45.1219,900.3125 Q44.7938,899.9375 44.1844,899.7188 Q43.575,899.5 42.95,899.5 Q42.1844,899.5 41.5438,899.8281 Q40.9188,900.1563 40.4188,900.9063 Q39.9344,901.6563 39.9344,902.6875 L39.9344,903.7813 Q39.9344,905.0156 40.825,905.8438 Q41.7156,906.6563 43.3094,906.6563 Q44.2469,906.6563 44.9031,906.4063 Q45.2938,906.25 45.7156,905.8125 Q45.9813,905.5469 46.1219,905.4688 Q46.2781,905.3906 46.4813,905.3906 Q46.8094,905.3906 47.0594,905.6563 Q47.325,905.9063 47.325,906.25 Q47.325,906.5938 46.9813,907 Q46.4813,907.5781 45.6844,907.9063 Q44.6063,908.3594 43.3094,908.3594 Q41.7938,908.3594 40.5906,907.7344 Q39.6063,907.2344 38.9188,906.1719 Q38.2313,905.0938 38.2313,903.8125 L38.2313,902.6563 Q38.2313,901.3281 38.8406,900.1875 Q39.4656,899.0313 40.5594,898.4219 Q41.6531,897.7969 42.8875,897.7969 Q43.6219,897.7969 44.2625,897.9688 Q44.9188,898.125 45.4656,898.4844 Z " fill="#000000"/><text fill="#000000" font-family="sans-serif" font-size="14" lengthAdjust="spacing" textLength="30" x="61.3" y="908.3379">Date</text><line style="stroke:#181818;stroke-width:0.5;" x1="8" x2="114" y1="918.6094" y2="918.6094"/><text fill="#000000" font-family="sans-serif" font-size="14" lengthAdjust="spacing" textLength="80" x="13" y="937.1426">-day: Integer</text><text fill="#000000" font-family="sans-serif" font-size="14" lengthAdjust="spacing" textLength="96" x="13" y="954.752">-month: Integer</text><text fill="#000000" font-family="sans-serif" font-size="14" lengthAdjust="spacing" textLength="85" x="13" y="972.3613">-year: Integer</text><line style="stroke:#181818;stroke-width:0.5;" x1="8" x2="114" y1="979.4375" y2="979.4375"/></g><!--class Time--><g id="elem_Time"><rect codeLine="56" fill="#F1F1F1" height="100.8281" id="Time" rx="2.5" ry="2.5" style="stroke:#181818;stroke-width:0.5;" width="115" x="150.5" y="886.6094"/><ellipse cx="188.9" cy="902.6094" fill="#ADD1B2" rx="11" ry="11" style="stroke:#181818;stroke-width:1.0;"/><path d="M191.6656,898.4844 Q191.8219,898.2656 192.0094,898.1563 Q192.1969,898.0469 192.4156,898.0469 Q192.7906,898.0469 193.025,898.3125 Q193.2594,898.5625 193.2594,899.1719 L193.2594,900.625 Q193.2594,901.2344 193.025,901.5 Q192.7906,901.7656 192.4156,901.7656 Q192.0719,901.7656 191.8688,901.5625 Q191.6656,901.375 191.5563,900.8594 Q191.5094,900.5 191.3219,900.3125 Q190.9938,899.9375 190.3844,899.7188 Q189.775,899.5 189.15,899.5 Q188.3844,899.5 187.7438,899.8281 Q187.1188,900.1563 186.6188,900.9063 Q186.1344,901.6563 186.1344,902.6875 L186.1344,903.7813 Q186.1344,905.0156 187.025,905.8438 Q187.9156,906.6563 189.5094,906.6563 Q190.4469,906.6563 191.1031,906.4063 Q191.4938,906.25 191.9156,905.8125 Q192.1813,905.5469 192.3219,905.4688 Q192.4781,905.3906 192.6813,905.3906 Q193.0094,905.3906 193.2594,905.6563 Q193.525,905.9063 193.525,906.25 Q193.525,906.5938 193.1813,907 Q192.6813,907.5781 191.8844,907.9063 Q190.8063,908.3594 189.5094,908.3594 Q187.9938,908.3594 186.7906,907.7344 Q185.8063,907.2344 185.1188,906.1719 Q184.4313,905.0938 184.4313,903.8125 L184.4313,902.6563 Q184.4313,901.3281 185.0406,900.1875 Q185.6656,899.0313 186.7594,898.4219 Q187.8531,897.7969 189.0875,897.7969 Q189.8219,897.7969 190.4625,897.9688 Q191.1188,898.125 191.6656,898.4844 Z " fill="#000000"/><text fill="#000000" font-family="sans-serif" font-size="14" lengthAdjust="spacing" textLength="31" x="208.1" y="908.3379">Time</text><line style="stroke:#181818;stroke-width:0.5;" x1="151.5" x2="264.5" y1="918.6094" y2="918.6094"/><text fill="#000000" font-family="sans-serif" font-size="14" lengthAdjust="spacing" textLength="86" x="156.5" y="937.1426">-hour: Integer</text><text fill="#000000" font-family="sans-serif" font-size="14" lengthAdjust="spacing" textLength="99" x="156.5" y="954.752">-minute: Integer</text><text fill="#000000" font-family="sans-serif" font-size="14" lengthAdjust="spacing" textLength="103" x="156.5" y="972.3613">-second: Integer</text><line style="stroke:#181818;stroke-width:0.5;" x1="151.5" x2="264.5" y1="979.4375" y2="979.4375"/></g><!--class TokenStatus--><g id="elem_TokenStatus"><rect codeLine="62" fill="#F1F1F1" height="83.2188" id="TokenStatus" rx="2.5" ry="2.5" style="stroke:#181818;stroke-width:0.5;" width="216" x="216" y="725.6094"/><ellipse cx="279.75" cy="741.6094" fill="#EB937F" rx="11" ry="11" style="stroke:#181818;stroke-width:1.0;"/><path d="M278.6094,742.4063 L278.6094,744.9063 L282.9375,744.9063 L282.9375,743.9844 Q282.9375,743.375 283.1719,743.1094 Q283.4219,742.8438 283.7969,742.8438 Q284.1719,742.8438 284.4063,743.1094 Q284.6406,743.375 284.6406,743.9844 L284.6406,746.6094 L276.6406,746.6094 Q276.0156,746.6094 275.75,746.375 Q275.5,746.1406 275.5,745.75 Q275.5,745.375 275.7656,745.1406 Q276.0313,744.9063 276.6406,744.9063 L276.9063,744.9063 L276.9063,738.25 L276.6406,738.25 Q276.0156,738.25 275.75,738.0156 Q275.5,737.7813 275.5,737.3906 Q275.5,737.0156 275.75,736.7813 Q276.0156,736.5469 276.6406,736.5469 L284.2656,736.5469 L284.2656,739.1406 Q284.2656,739.75 284.0313,740.0156 Q283.8125,740.2656 283.4219,740.2656 Q283.0469,740.2656 282.8125,740.0156 Q282.5781,739.75 282.5781,739.1406 L282.5781,738.25 L278.6094,738.25 L278.6094,740.7031 L280.0938,740.7031 Q280.0938,740.0469 280.2188,739.8594 Q280.4844,739.4531 280.9531,739.4531 Q281.3281,739.4531 281.5625,739.7188 Q281.7969,739.9688 281.7969,740.5781 L281.7969,742.5469 Q281.7969,743.0938 281.6719,743.2813 Q281.4063,743.6719 280.9531,743.6719 Q280.4844,743.6719 280.2188,743.2656 Q280.0938,743.0781 280.0938,742.4063 L278.6094,742.4063 Z " fill="#000000"/><text fill="#000000" font-family="sans-serif" font-size="14" lengthAdjust="spacing" textLength="80" x="300.25" y="747.3379">TokenStatus</text><line style="stroke:#181818;stroke-width:0.5;" x1="217" x2="431" y1="757.6094" y2="757.6094"/><line style="stroke:#181818;stroke-width:0.5;" x1="217" x2="431" y1="765.6094" y2="765.6094"/><text fill="#000000" font-family="sans-serif" font-size="14" lengthAdjust="spacing" textLength="167" x="222" y="784.1426">-VALID("User authorized.")</text><text fill="#000000" font-family="sans-serif" font-size="14" lengthAdjust="spacing" textLength="204" x="222" y="801.752">-INVALID("User not-authorized.")</text></g><!--link PatientController to PatientService--><g id="link_PatientController_PatientService"><path codeLine="67" d="M478,111.8994 C478,134.6094 478,159.1794 478,183.5394 " fill="none" id="PatientController-to-PatientService" style="stroke:#181818;stroke-width:1.0;"/><polygon fill="#181818" points="478,189.5394,482,180.5394,478,184.5394,474,180.5394,478,189.5394" style="stroke:#181818;stroke-width:1.0;"/><text fill="#000000" font-family="sans-serif" font-size="13" lengthAdjust="spacing" textLength="35" x="479" y="156.1045">&#171;use&#187;</text></g><!--link PatientService to IAMService--><g id="link_PatientService_IAMService"><path codeLine="69" d="M414.52,272.6394 C372.59,299.4194 323.4576,330.8012 284.4776,355.6812 " fill="none" id="PatientService-to-IAMService" style="stroke:#181818;stroke-width:1.0;"/><polygon fill="#181818" points="279.42,358.9094,289.1585,357.4389,283.6347,356.2193,284.8543,350.6955,279.42,358.9094" style="stroke:#181818;stroke-width:1.0;"/><text fill="#000000" font-family="sans-serif" font-size="13" lengthAdjust="spacing" textLength="35" x="362" y="317.1045">&#171;use&#187;</text></g><!--link PatientService to PatientDTO--><g id="link_PatientService_PatientDTO"><path codeLine="70" d="M478,272.6394 C478,296.4694 478,320.5094 478,344.3694 " fill="none" id="PatientService-to-PatientDTO" style="stroke:#181818;stroke-width:1.0;"/><polygon fill="#181818" points="478,350.3694,482,341.3694,478,345.3694,474,341.3694,478,350.3694" style="stroke:#181818;stroke-width:1.0;"/><text fill="#000000" font-family="sans-serif" font-size="13" lengthAdjust="spacing" textLength="50" x="479" y="317.1045">&#171;create&#187;</text></g><!--link PatientService to PatientRepository--><g id="link_PatientService_PatientRepository"><path codeLine="71" d="M534.85,272.6394 C568.27,296.4694 605.5143,323.0265 638.9843,346.8865 " fill="none" id="PatientService-to-PatientRepository" style="stroke:#181818;stroke-width:1.0;"/><polygon fill="#181818" points="643.87,350.3694,638.8634,341.888,639.7986,347.467,634.2196,348.4022,643.87,350.3694" style="stroke:#181818;stroke-width:1.0;"/><text fill="#000000" font-family="sans-serif" font-size="13" lengthAdjust="spacing" textLength="35" x="598" y="317.1045">&#171;use&#187;</text></g><!--link PatientRepository to InterfacePatientRepository--><g id="link_PatientRepository_InterfacePatientRepository"><path codeLine="73" d="M701,433.8194 C701,464.7494 701,501.0894 701,531.9994 " fill="none" id="PatientRepository-to-InterfacePatientRepository" style="stroke:#181818;stroke-width:1.0;"/><polygon fill="#181818" points="701,537.9994,705,528.9994,701,532.9994,697,528.9994,701,537.9994" style="stroke:#181818;stroke-width:1.0;"/><text fill="#000000" font-family="sans-serif" font-size="13" lengthAdjust="spacing" textLength="81" x="702" y="478.1045">&#171;implements&#187;</text></g><!--link IAMService to UserToken--><g id="link_IAMService_UserToken"><path codeLine="75" d="M229,425.4194 C229,449.0894 229,476.0494 229,505.3494 " fill="none" id="IAMService-to-UserToken" style="stroke:#181818;stroke-width:1.0;"/><polygon fill="#181818" points="229,511.3494,233,502.3494,229,506.3494,225,502.3494,229,511.3494" style="stroke:#181818;stroke-width:1.0;"/><text fill="#000000" font-family="sans-serif" font-size="13" lengthAdjust="spacing" textLength="35" x="230" y="478.1045">&#171;use&#187;</text></g><!--link UserToken to DateTime--><g id="link_UserToken_DateTime"><path codeLine="77" d="M194.57,647.8394 C181.24,673.8694 169.1548,697.4589 157.5148,720.1889 " fill="none" id="UserToken-to-DateTime" style="stroke:#181818;stroke-width:1.0;"/><polygon fill="#181818" points="154.78,725.5294,162.4426,719.3419,157.059,721.079,155.322,715.6954,154.78,725.5294" style="stroke:#181818;stroke-width:1.0;"/><text fill="#000000" font-family="sans-serif" font-size="13" lengthAdjust="spacing" textLength="35" x="180" y="692.1045">&#171;has&#187;</text></g><!--link UserToken to TokenStatus--><g id="link_UserToken_TokenStatus"><path codeLine="78" d="M263.43,647.8394 C276.76,673.8694 288.8452,697.4589 300.4852,720.1889 " fill="none" id="UserToken-to-TokenStatus" style="stroke:#181818;stroke-width:1.0;"/><polygon fill="#181818" points="303.22,725.5294,302.678,715.6954,300.941,721.079,295.5574,719.3419,303.22,725.5294" style="stroke:#181818;stroke-width:1.0;"/><text fill="#000000" font-family="sans-serif" font-size="13" lengthAdjust="spacing" textLength="35" x="289" y="692.1045">&#171;has&#187;</text></g><!--link DateTime to Date--><g id="link_DateTime_Date"><path codeLine="80" d="M116.33,808.7794 C106.16,832.1794 95.6895,856.2557 84.9395,881.0157 " fill="none" id="DateTime-to-Date" style="stroke:#181818;stroke-width:1.0;"/><polygon fill="#181818" points="82.55,886.5194,89.8034,879.8569,84.5413,881.933,82.4652,876.6709,82.55,886.5194" style="stroke:#181818;stroke-width:1.0;"/><text fill="#000000" font-family="sans-serif" font-size="13" lengthAdjust="spacing" textLength="35" x="103" y="853.1045">&#171;use&#187;</text></g><!--link DateTime to Time--><g id="link_DateTime_Time"><path codeLine="81" d="M151.91,808.7794 C162.22,832.1794 172.8307,856.2688 183.7407,881.0288 " fill="none" id="DateTime-to-Time" style="stroke:#181818;stroke-width:1.0;"/><polygon fill="#181818" points="186.16,886.5194,186.1914,876.6706,184.1439,881.9439,178.8706,879.8963,186.16,886.5194" style="stroke:#181818;stroke-width:1.0;"/><text fill="#000000" font-family="sans-serif" font-size="13" lengthAdjust="spacing" textLength="35" x="172" y="853.1045">&#171;use&#187;</text></g><!--SRC=[lLHBQzmm4BxxLuYSrXI7lHNCih1T4p0aROWtkQlsn1PhIqQIjtLB_tj7VaYoDmazTGy6ptoFyJnMdHblgQGDQMb-fYLakg-1ICWrvMKDWR80LT52_62y9A-qLX1ugRocIXsqbknxfo7D1S_OBo3R8D1CezpHv4d2Q6dGcsCIaeWy7xVRpq4mSCaZrGouFWgkfQXhaBy3WhzFzw9aVAF56NXCCZJWPHZFwEJqBVYpKiX0NbWEv5_v0-gGvw1KGZNTj3Rbmv1p4QnmRkdXOUNqGcjMK0qJwMGihuoV5SWXuvHiQ1AAM34JndVusJ891LO7CJ7F4sjWJ3LODSui9eD0fgdkr5ZD41XAcckmFk7uAGwMyij7m7M7iHtlbOgZmsAUy6bOIzeJj48nBMG_T-oEyS9Wl_Hfid5IuQHWCPF0DUojDKYv1lbAS_Y_jlDSfiOKTbZZkyOKJiaCRa6ny3uUAYz1JfF5GwXMiHweT26huzbMefDh8SOxKyiYg01Fj5Xe0UyQVuqcHV9okCVllp5BGMYdAo7nielRct3Afrzz11SwMg9G-kgsIHJjL_SQazskKx3VM_XyNWRhhitXte0zUhUxs-KIiCCV8jroNFjxYpEKyEvU6IfhsXeQ32kZuFqv6AezAC_4NRr1pDjZ01Kr6ikyDnS72MQMbN3wYzIiF5d_1G00]--></g></svg>