<?xml version="1.0" encoding="us-ascii" standalone="no"?><svg xmlns="http://www.w3.org/2000/svg" xmlns:xlink="http://www.w3.org/1999/xlink" contentStyleType="text/css" height="626px" preserveAspectRatio="none" style="width:473px;height:626px;background:#FFFFFF;" version="1.1" viewBox="0 0 473 626" width="473px" zoomAndPan="magnify"><defs/><g><text fill="#000000" font-family="sans-serif" font-size="14" font-weight="bold" lengthAdjust="spacing" textLength="285" x="93.25" y="29.5332">System Sequence Diagram (SSD) - UC003</text><rect fill="#FFFFFF" height="395.2188" style="stroke:#181818;stroke-width:1.0;" width="10" x="25" y="131.2188"/><rect fill="#FFFFFF" height="30.3516" style="stroke:#181818;stroke-width:1.0;" width="10" x="201" y="153.5703"/><rect fill="#FFFFFF" height="160.4063" style="stroke:#181818;stroke-width:1.0;" width="10" x="201" y="366.0313"/><rect fill="#FFFFFF" height="30.3516" style="stroke:#181818;stroke-width:1.0;" width="10" x="442" y="214.2734"/><rect fill="#FFFFFF" height="30.3516" style="stroke:#181818;stroke-width:1.0;" width="10" x="442" y="274.9766"/><rect fill="#FFFFFF" height="30.3516" style="stroke:#181818;stroke-width:1.0;" width="10" x="442" y="335.6797"/><line style="stroke:#181818;stroke-width:0.5;stroke-dasharray:5.0,5.0;" x1="30" x2="30" y1="121.2188" y2="544.4375"/><line style="stroke:#181818;stroke-width:0.5;stroke-dasharray:5.0,5.0;" x1="206" x2="206" y1="121.2188" y2="544.4375"/><line style="stroke:#181818;stroke-width:0.5;stroke-dasharray:5.0,5.0;" x1="446.5" x2="446.5" y1="121.2188" y2="544.4375"/><text fill="#000000" font-family="sans-serif" font-size="14" lengthAdjust="spacing" textLength="44" x="5" y="118.1426">Patient</text><ellipse cx="30" cy="52.1094" fill="#E2E2F0" rx="8" ry="8" style="stroke:#181818;stroke-width:0.5;"/><path d="M30,60.1094 L30,87.1094 M17,68.1094 L43,68.1094 M30,87.1094 L17,102.1094 M30,87.1094 L43,102.1094 " fill="none" style="stroke:#181818;stroke-width:0.5;"/><text fill="#000000" font-family="sans-serif" font-size="14" lengthAdjust="spacing" textLength="44" x="5" y="557.9707">Patient</text><ellipse cx="30" cy="569.5469" fill="#E2E2F0" rx="8" ry="8" style="stroke:#181818;stroke-width:0.5;"/><path d="M30,577.5469 L30,604.5469 M17,585.5469 L43,585.5469 M30,604.5469 L17,619.5469 M30,604.5469 L43,619.5469 " fill="none" style="stroke:#181818;stroke-width:0.5;"/><rect fill="#E2E2F0" height="31.6094" rx="2.5" ry="2.5" style="stroke:#181818;stroke-width:0.5;" width="64" x="174" y="88.6094"/><text fill="#000000" font-family="sans-serif" font-size="14" lengthAdjust="spacing" textLength="50" x="181" y="110.1426">:System</text><rect fill="#E2E2F0" height="31.6094" rx="2.5" ry="2.5" style="stroke:#181818;stroke-width:0.5;" width="64" x="174" y="543.4375"/><text fill="#000000" font-family="sans-serif" font-size="14" lengthAdjust="spacing" textLength="50" x="181" y="564.9707">:System</text><rect fill="#E2E2F0" height="31.6094" rx="2.5" ry="2.5" style="stroke:#181818;stroke-width:0.5;" width="41" x="426.5" y="88.6094"/><text fill="#000000" font-family="sans-serif" font-size="14" lengthAdjust="spacing" textLength="27" x="433.5" y="110.1426">:IAM</text><rect fill="#E2E2F0" height="31.6094" rx="2.5" ry="2.5" style="stroke:#181818;stroke-width:0.5;" width="41" x="426.5" y="543.4375"/><text fill="#000000" font-family="sans-serif" font-size="14" lengthAdjust="spacing" textLength="27" x="433.5" y="564.9707">:IAM</text><rect fill="#FFFFFF" height="395.2188" style="stroke:#181818;stroke-width:1.0;" width="10" x="25" y="131.2188"/><rect fill="#FFFFFF" height="30.3516" style="stroke:#181818;stroke-width:1.0;" width="10" x="201" y="153.5703"/><rect fill="#FFFFFF" height="160.4063" style="stroke:#181818;stroke-width:1.0;" width="10" x="201" y="366.0313"/><rect fill="#FFFFFF" height="30.3516" style="stroke:#181818;stroke-width:1.0;" width="10" x="442" y="214.2734"/><rect fill="#FFFFFF" height="30.3516" style="stroke:#181818;stroke-width:1.0;" width="10" x="442" y="274.9766"/><rect fill="#FFFFFF" height="30.3516" style="stroke:#181818;stroke-width:1.0;" width="10" x="442" y="335.6797"/><polygon fill="#181818" points="189,149.5703,199,153.5703,189,157.5703,193,153.5703" style="stroke:#181818;stroke-width:1.0;"/><line style="stroke:#181818;stroke-width:1.0;" x1="35" x2="195" y1="153.5703" y2="153.5703"/><text fill="#000000" font-family="sans-serif" font-size="13" lengthAdjust="spacing" textLength="69" x="42" y="148.7139">Self-register</text><polygon fill="#181818" points="46,179.9219,36,183.9219,46,187.9219,42,183.9219" style="stroke:#181818;stroke-width:1.0;"/><line style="stroke:#181818;stroke-width:1.0;stroke-dasharray:2.0,2.0;" x1="40" x2="205" y1="183.9219" y2="183.9219"/><text fill="#000000" font-family="sans-serif" font-size="13" lengthAdjust="spacing" textLength="90" x="52" y="179.0654">Redirect to IAM</text><polygon fill="#181818" points="430,210.2734,440,214.2734,430,218.2734,434,214.2734" style="stroke:#181818;stroke-width:1.0;"/><line style="stroke:#181818;stroke-width:1.0;" x1="35" x2="436" y1="214.2734" y2="214.2734"/><text fill="#000000" font-family="sans-serif" font-size="13" lengthAdjust="spacing" textLength="48" x="42" y="209.417">Register</text><polygon fill="#181818" points="46,240.625,36,244.625,46,248.625,42,244.625" style="stroke:#181818;stroke-width:1.0;"/><line style="stroke:#181818;stroke-width:1.0;stroke-dasharray:2.0,2.0;" x1="40" x2="446" y1="244.625" y2="244.625"/><text fill="#000000" font-family="sans-serif" font-size="13" lengthAdjust="spacing" textLength="76" x="52" y="239.7686">Ask for email</text><polygon fill="#181818" points="430,270.9766,440,274.9766,430,278.9766,434,274.9766" style="stroke:#181818;stroke-width:1.0;"/><line style="stroke:#181818;stroke-width:1.0;" x1="35" x2="436" y1="274.9766" y2="274.9766"/><text fill="#000000" font-family="sans-serif" font-size="13" lengthAdjust="spacing" textLength="63" x="42" y="270.1201">Input email</text><polygon fill="#181818" points="46,301.3281,36,305.3281,46,309.3281,42,305.3281" style="stroke:#181818;stroke-width:1.0;"/><line style="stroke:#181818;stroke-width:1.0;stroke-dasharray:2.0,2.0;" x1="40" x2="446" y1="305.3281" y2="305.3281"/><text fill="#000000" font-family="sans-serif" font-size="13" lengthAdjust="spacing" textLength="100" x="52" y="300.4717">Ask for password</text><polygon fill="#181818" points="430,331.6797,440,335.6797,430,339.6797,434,335.6797" style="stroke:#181818;stroke-width:1.0;"/><line style="stroke:#181818;stroke-width:1.0;" x1="35" x2="436" y1="335.6797" y2="335.6797"/><text fill="#000000" font-family="sans-serif" font-size="13" lengthAdjust="spacing" textLength="87" x="42" y="330.8232">Input password</text><polygon fill="#181818" points="222,362.0313,212,366.0313,222,370.0313,218,366.0313" style="stroke:#181818;stroke-width:1.0;"/><line style="stroke:#181818;stroke-width:1.0;" x1="216" x2="446" y1="366.0313" y2="366.0313"/><text fill="#000000" font-family="sans-serif" font-size="13" lengthAdjust="spacing" textLength="148" x="228" y="361.1748">Send user email as token</text><line style="stroke:#181818;stroke-width:1.0;" x1="211" x2="253" y1="396.3828" y2="396.3828"/><line style="stroke:#181818;stroke-width:1.0;" x1="253" x2="253" y1="396.3828" y2="409.3828"/><line style="stroke:#181818;stroke-width:1.0;" x1="212" x2="253" y1="409.3828" y2="409.3828"/><polygon fill="#181818" points="222,405.3828,212,409.3828,222,413.3828,218,409.3828" style="stroke:#181818;stroke-width:1.0;"/><text fill="#000000" font-family="sans-serif" font-size="13" lengthAdjust="spacing" textLength="184" x="218" y="391.5264">Verify patient's profile is created</text><line style="stroke:#181818;stroke-width:1.0;" x1="211" x2="253" y1="439.7344" y2="439.7344"/><line style="stroke:#181818;stroke-width:1.0;" x1="253" x2="253" y1="439.7344" y2="452.7344"/><line style="stroke:#181818;stroke-width:1.0;" x1="212" x2="253" y1="452.7344" y2="452.7344"/><polygon fill="#181818" points="222,448.7344,212,452.7344,222,456.7344,218,452.7344" style="stroke:#181818;stroke-width:1.0;"/><text fill="#000000" font-family="sans-serif" font-size="13" lengthAdjust="spacing" textLength="152" x="218" y="434.8779">Assign patient role to user</text><line style="stroke:#181818;stroke-width:1.0;" x1="211" x2="253" y1="483.0859" y2="483.0859"/><line style="stroke:#181818;stroke-width:1.0;" x1="253" x2="253" y1="483.0859" y2="496.0859"/><line style="stroke:#181818;stroke-width:1.0;" x1="212" x2="253" y1="496.0859" y2="496.0859"/><polygon fill="#181818" points="222,492.0859,212,496.0859,222,500.0859,218,496.0859" style="stroke:#181818;stroke-width:1.0;"/><text fill="#000000" font-family="sans-serif" font-size="13" lengthAdjust="spacing" textLength="217" x="218" y="478.2295">Link patient's profile to user's account</text><polygon fill="#181818" points="41,522.4375,31,526.4375,41,530.4375,37,526.4375" style="stroke:#181818;stroke-width:1.0;"/><line style="stroke:#181818;stroke-width:1.0;stroke-dasharray:2.0,2.0;" x1="35" x2="205" y1="526.4375" y2="526.4375"/><text fill="#000000" font-family="sans-serif" font-size="13" lengthAdjust="spacing" textLength="142" x="47" y="521.5811">Show success message</text><!--SRC=[bPDDRuCm38Rl_0ghbsq7f4gxSPY4rakbJfg6jdiK3BCA2Ol3glxxENoDThHJSu34yVi-3Z6UV8MG7TbZ3Hb-jMWqmePKwLGDzrcsUO0Otf_NwyT8QMyTl2fFQ3me7gTHevmdJOsIy2hfpLOXeP-UxM_JbsvJtb7mf6_bSVAAGCR8Y9y6YqHgguhOOKcoT7tMf1qmNJ2CuJYno0Ud1Dum9uVQWxSzEIJckEWnmqjgq2vY9vimP74AJ7aFXNmlh1LLVt2JzforDKthvw8RSOrYFbYNtqeyrLs1pg_4vD0o3cSCT-hj7irbzBytzcl-WOwAevJL5Nl7q3XRaFGgCMY7Of9VawVCL9fH3iwAKcu-L7jDjYEpNs0EIeaehMqxjkcbNii-xG6urHgPePQ7Al5Ymyr2up_m0m00]--></g></svg>