<?xml version="1.0" encoding="us-ascii" standalone="no"?><svg xmlns="http://www.w3.org/2000/svg" xmlns:xlink="http://www.w3.org/1999/xlink" contentStyleType="text/css" height="723px" preserveAspectRatio="none" style="width:913px;height:723px;background:#FFFFFF;" version="1.1" viewBox="0 0 913 723" width="913px" zoomAndPan="magnify"><defs/><g><text fill="#000000" font-family="sans-serif" font-size="14" font-weight="bold" lengthAdjust="spacing" textLength="285" x="313.75" y="29.5332">System Sequence Diagram (SSD) - UC020</text><rect fill="#FFFFFF" height="492.625" style="stroke:#181818;stroke-width:1.0;" width="10" x="37.5" y="131.2188"/><rect fill="#FFFFFF" height="30.3516" style="stroke:#181818;stroke-width:1.0;" width="10" x="718.5" y="153.5703"/><rect fill="#FFFFFF" height="30.3516" style="stroke:#181818;stroke-width:1.0;" width="10" x="718.5" y="214.2734"/><rect fill="#FFFFFF" height="30.3516" style="stroke:#181818;stroke-width:1.0;" width="10" x="718.5" y="274.9766"/><rect fill="#FFFFFF" height="30.3516" style="stroke:#181818;stroke-width:1.0;" width="10" x="718.5" y="335.6797"/><rect fill="#FFFFFF" height="30.3516" style="stroke:#181818;stroke-width:1.0;" width="10" x="718.5" y="396.3828"/><rect fill="#FFFFFF" height="55.7031" style="stroke:#181818;stroke-width:1.0;" width="10" x="718.5" y="457.0859"/><rect fill="none" height="79.0547" style="stroke:#000000;stroke-width:1.5;" width="755.5" x="10" y="472.0859"/><line style="stroke:#181818;stroke-width:0.5;stroke-dasharray:5.0,5.0;" x1="42" x2="42" y1="121.2188" y2="641.8438"/><line style="stroke:#181818;stroke-width:0.5;stroke-dasharray:5.0,5.0;" x1="723.5" x2="723.5" y1="121.2188" y2="641.8438"/><text fill="#000000" font-family="sans-serif" font-size="14" lengthAdjust="spacing" textLength="39" x="20" y="118.1426">Admin</text><ellipse cx="42.5" cy="52.1094" fill="#E2E2F0" rx="8" ry="8" style="stroke:#181818;stroke-width:0.5;"/><path d="M42.5,60.1094 L42.5,87.1094 M29.5,68.1094 L55.5,68.1094 M42.5,87.1094 L29.5,102.1094 M42.5,87.1094 L55.5,102.1094 " fill="none" style="stroke:#181818;stroke-width:0.5;"/><text fill="#000000" font-family="sans-serif" font-size="14" lengthAdjust="spacing" textLength="39" x="20" y="655.377">Admin</text><ellipse cx="42.5" cy="666.9531" fill="#E2E2F0" rx="8" ry="8" style="stroke:#181818;stroke-width:0.5;"/><path d="M42.5,674.9531 L42.5,701.9531 M29.5,682.9531 L55.5,682.9531 M42.5,701.9531 L29.5,716.9531 M42.5,701.9531 L55.5,716.9531 " fill="none" style="stroke:#181818;stroke-width:0.5;"/><rect fill="#E2E2F0" height="31.6094" rx="2.5" ry="2.5" style="stroke:#181818;stroke-width:0.5;" width="64" x="691.5" y="88.6094"/><text fill="#000000" font-family="sans-serif" font-size="14" lengthAdjust="spacing" textLength="50" x="698.5" y="110.1426">:System</text><rect fill="#E2E2F0" height="31.6094" rx="2.5" ry="2.5" style="stroke:#181818;stroke-width:0.5;" width="64" x="691.5" y="640.8438"/><text fill="#000000" font-family="sans-serif" font-size="14" lengthAdjust="spacing" textLength="50" x="698.5" y="662.377">:System</text><rect fill="#FFFFFF" height="492.625" style="stroke:#181818;stroke-width:1.0;" width="10" x="37.5" y="131.2188"/><rect fill="#FFFFFF" height="30.3516" style="stroke:#181818;stroke-width:1.0;" width="10" x="718.5" y="153.5703"/><rect fill="#FFFFFF" height="30.3516" style="stroke:#181818;stroke-width:1.0;" width="10" x="718.5" y="214.2734"/><rect fill="#FFFFFF" height="30.3516" style="stroke:#181818;stroke-width:1.0;" width="10" x="718.5" y="274.9766"/><rect fill="#FFFFFF" height="30.3516" style="stroke:#181818;stroke-width:1.0;" width="10" x="718.5" y="335.6797"/><rect fill="#FFFFFF" height="30.3516" style="stroke:#181818;stroke-width:1.0;" width="10" x="718.5" y="396.3828"/><rect fill="#FFFFFF" height="55.7031" style="stroke:#181818;stroke-width:1.0;" width="10" x="718.5" y="457.0859"/><polygon fill="#181818" points="706.5,149.5703,716.5,153.5703,706.5,157.5703,710.5,153.5703" style="stroke:#181818;stroke-width:1.0;"/><line style="stroke:#181818;stroke-width:1.0;" x1="47.5" x2="712.5" y1="153.5703" y2="153.5703"/><text fill="#000000" font-family="sans-serif" font-size="13" lengthAdjust="spacing" textLength="204" x="54.5" y="148.7139">Register new type of operation type</text><polygon fill="#181818" points="58.5,179.9219,48.5,183.9219,58.5,187.9219,54.5,183.9219" style="stroke:#181818;stroke-width:1.0;"/><line style="stroke:#181818;stroke-width:1.0;stroke-dasharray:2.0,2.0;" x1="52.5" x2="722.5" y1="183.9219" y2="183.9219"/><text fill="#000000" font-family="sans-serif" font-size="13" lengthAdjust="spacing" textLength="170" x="64.5" y="179.0654">Ask for new operation's name</text><polygon fill="#181818" points="706.5,210.2734,716.5,214.2734,706.5,218.2734,710.5,214.2734" style="stroke:#181818;stroke-width:1.0;"/><line style="stroke:#181818;stroke-width:1.0;" x1="47.5" x2="712.5" y1="214.2734" y2="214.2734"/><text fill="#000000" font-family="sans-serif" font-size="13" lengthAdjust="spacing" textLength="171" x="54.5" y="209.417">Provide new operation's name</text><polygon fill="#181818" points="58.5,240.625,48.5,244.625,58.5,248.625,54.5,244.625" style="stroke:#181818;stroke-width:1.0;"/><line style="stroke:#181818;stroke-width:1.0;stroke-dasharray:2.0,2.0;" x1="52.5" x2="722.5" y1="244.625" y2="244.625"/><text fill="#000000" font-family="sans-serif" font-size="13" lengthAdjust="spacing" textLength="217" x="64.5" y="239.7686">Ask for new operation's specialization</text><polygon fill="#181818" points="706.5,270.9766,716.5,274.9766,706.5,278.9766,710.5,274.9766" style="stroke:#181818;stroke-width:1.0;"/><line style="stroke:#181818;stroke-width:1.0;" x1="47.5" x2="712.5" y1="274.9766" y2="274.9766"/><text fill="#000000" font-family="sans-serif" font-size="13" lengthAdjust="spacing" textLength="218" x="54.5" y="270.1201">Provide new operation's specialization</text><polygon fill="#181818" points="58.5,301.3281,48.5,305.3281,58.5,309.3281,54.5,305.3281" style="stroke:#181818;stroke-width:1.0;"/><line style="stroke:#181818;stroke-width:1.0;stroke-dasharray:2.0,2.0;" x1="52.5" x2="722.5" y1="305.3281" y2="305.3281"/><text fill="#000000" font-family="sans-serif" font-size="13" lengthAdjust="spacing" textLength="419" x="64.5" y="300.4717">Ask for new operation's anesthesia/preparation phase estimated duration</text><polygon fill="#181818" points="706.5,331.6797,716.5,335.6797,706.5,339.6797,710.5,335.6797" style="stroke:#181818;stroke-width:1.0;"/><line style="stroke:#181818;stroke-width:1.0;" x1="47.5" x2="712.5" y1="335.6797" y2="335.6797"/><text fill="#000000" font-family="sans-serif" font-size="13" lengthAdjust="spacing" textLength="420" x="54.5" y="330.8232">Provide new operation's anesthesia/preparation phase estimated duration</text><polygon fill="#181818" points="58.5,362.0313,48.5,366.0313,58.5,370.0313,54.5,366.0313" style="stroke:#181818;stroke-width:1.0;"/><line style="stroke:#181818;stroke-width:1.0;stroke-dasharray:2.0,2.0;" x1="52.5" x2="722.5" y1="366.0313" y2="366.0313"/><text fill="#000000" font-family="sans-serif" font-size="13" lengthAdjust="spacing" textLength="331" x="64.5" y="361.1748">Ask for new operation's surgery phase estimated duration</text><polygon fill="#181818" points="706.5,392.3828,716.5,396.3828,706.5,400.3828,710.5,396.3828" style="stroke:#181818;stroke-width:1.0;"/><line style="stroke:#181818;stroke-width:1.0;" x1="47.5" x2="712.5" y1="396.3828" y2="396.3828"/><text fill="#000000" font-family="sans-serif" font-size="13" lengthAdjust="spacing" textLength="332" x="54.5" y="391.5264">Provide new operation's surgery phase estimated duration</text><polygon fill="#181818" points="58.5,422.7344,48.5,426.7344,58.5,430.7344,54.5,426.7344" style="stroke:#181818;stroke-width:1.0;"/><line style="stroke:#181818;stroke-width:1.0;stroke-dasharray:2.0,2.0;" x1="52.5" x2="722.5" y1="426.7344" y2="426.7344"/><text fill="#000000" font-family="sans-serif" font-size="13" lengthAdjust="spacing" textLength="336" x="64.5" y="421.8779">Ask for new operation's cleaning phase estimated duration</text><polygon fill="#181818" points="706.5,453.0859,716.5,457.0859,706.5,461.0859,710.5,457.0859" style="stroke:#181818;stroke-width:1.0;"/><line style="stroke:#181818;stroke-width:1.0;" x1="47.5" x2="712.5" y1="457.0859" y2="457.0859"/><text fill="#000000" font-family="sans-serif" font-size="13" lengthAdjust="spacing" textLength="337" x="54.5" y="452.2295">Provide new operation's cleaning phase estimated duration</text><path d="M10,472.0859 L83,472.0859 L83,480.4375 L73,490.4375 L10,490.4375 L10,472.0859 " fill="#EEEEEE" style="stroke:#000000;stroke-width:1.5;"/><rect fill="none" height="79.0547" style="stroke:#000000;stroke-width:1.5;" width="755.5" x="10" y="472.0859"/><text fill="#000000" font-family="sans-serif" font-size="13" font-weight="bold" lengthAdjust="spacing" textLength="28" x="25" y="486.5811">loop</text><text fill="#000000" font-family="sans-serif" font-size="11" font-weight="bold" lengthAdjust="spacing" textLength="313" x="98" y="485.5049">[while Adm wants to add new operation's required staff]</text><polygon fill="#181818" points="58.5,508.7891,48.5,512.7891,58.5,516.7891,54.5,512.7891" style="stroke:#181818;stroke-width:1.0;"/><line style="stroke:#181818;stroke-width:1.0;stroke-dasharray:2.0,2.0;" x1="52.5" x2="722.5" y1="512.7891" y2="512.7891"/><text fill="#000000" font-family="sans-serif" font-size="13" lengthAdjust="spacing" textLength="407" x="64.5" y="507.9326">Ask for new operation's required staff (role, specialization and quantity)</text><polygon fill="#181818" points="711.5,539.1406,721.5,543.1406,711.5,547.1406,715.5,543.1406" style="stroke:#181818;stroke-width:1.0;"/><line style="stroke:#181818;stroke-width:1.0;" x1="47.5" x2="717.5" y1="543.1406" y2="543.1406"/><text fill="#000000" font-family="sans-serif" font-size="13" lengthAdjust="spacing" textLength="408" x="54.5" y="538.2842">Provide new operation's required staff (role, specialization and quantity)</text><line style="stroke:#181818;stroke-width:1.0;" x1="723.5" x2="765.5" y1="580.4922" y2="580.4922"/><line style="stroke:#181818;stroke-width:1.0;" x1="765.5" x2="765.5" y1="580.4922" y2="593.4922"/><line style="stroke:#181818;stroke-width:1.0;" x1="724.5" x2="765.5" y1="593.4922" y2="593.4922"/><polygon fill="#181818" points="734.5,589.4922,724.5,593.4922,734.5,597.4922,730.5,593.4922" style="stroke:#181818;stroke-width:1.0;"/><text fill="#000000" font-family="sans-serif" font-size="13" lengthAdjust="spacing" textLength="176" x="730.5" y="575.6357">Validate new operation's name</text><polygon fill="#181818" points="53.5,619.8438,43.5,623.8438,53.5,627.8438,49.5,623.8438" style="stroke:#181818;stroke-width:1.0;"/><line style="stroke:#181818;stroke-width:1.0;stroke-dasharray:2.0,2.0;" x1="47.5" x2="722.5" y1="623.8438" y2="623.8438"/><text fill="#000000" font-family="sans-serif" font-size="13" lengthAdjust="spacing" textLength="652" x="59.5" y="618.9873">Save new operation type, making it available for schedulling, and show the assigned ID for the new operation type</text><!--SRC=[jPNDJiCm383lVGgB2qpQ1EAu0zB4BjmG5TnDuxKMQLAITDDuUfoqsiReW378eR8Sv_DVumGEcY1V-q0rvFJQaYa8veobmnekydm-WWaytbvTNsLO1EjWfcesW3uAMOCkSC4DcW1dqmvp5ZSxCOjdU8c1adK6iaI0oKrlC8K7Abaa1uPM4DODWLs0RSXXO6kIfZkt8VNeg4kVkFe49W8M_XHc_WKMjeDkOESU3DOzJj4-S2YwUsUNhEWBpY3bc91yGmMZvhUa-8lWXeWdXuc6VAZ8CrusZgJlNN-Q2Zs1R74jT0MgTN-MnwzSdjwFrfNarl-QsSzyd9nAeGaDc_Amd_uAdPRDzsuIJLlRmAfYdOO1h6HcU0WMKAbFI2UJY9qWVC358jkvwGUBSanXFkBXmbbDuxrx8x-VWjTMekIm7ks6SA1QHrJiz_x9g2F6uJQI9-6gQ7vuaWqLCCVbtf4qaSTGuqliE0V09RB6P-bghBGlAbAjrh8vJXduoifShqWU1S-baPplviaowZwJjtaCL7b75P-JTm00]--></g></svg>