<?xml version="1.0" encoding="us-ascii" standalone="no"?><svg xmlns="http://www.w3.org/2000/svg" xmlns:xlink="http://www.w3.org/1999/xlink" contentStyleType="text/css" height="1220px" preserveAspectRatio="none" style="width:1344px;height:1220px;background:#FFFFFF;" version="1.1" viewBox="0 0 1344 1220" width="1344px" zoomAndPan="magnify"><defs/><g><text fill="#000000" font-family="sans-serif" font-size="14" font-weight="bold" lengthAdjust="spacing" textLength="222" x="562" y="29.5332">Sequence Diagram (SD) - UC006</text><text fill="#000000" font-family="sans-serif" font-size="14" font-weight="bold" lengthAdjust="spacing" textLength="132" x="607" y="47.1426">Invalid Credentials</text><rect fill="#FFFFFF" height="914.625" style="stroke:#181818;stroke-width:1.0;" width="10" x="295" y="191.1406"/><rect fill="#FFFFFF" height="837.5703" style="stroke:#181818;stroke-width:1.0;" width="10" x="473.5" y="221.4922"/><rect fill="#FFFFFF" height="30.3516" style="stroke:#181818;stroke-width:1.0;" width="10" x="734.5" y="998.3594"/><rect fill="#FFFFFF" height="30.3516" style="stroke:#181818;stroke-width:1.0;" width="10" x="851.5" y="251.8438"/><rect fill="#FFFFFF" height="30.3516" style="stroke:#181818;stroke-width:1.0;" width="10" x="851.5" y="458.9531"/><rect fill="#FFFFFF" height="30" style="stroke:#181818;stroke-width:1.0;" width="10" x="851.5" y="519.6563"/><rect fill="#FFFFFF" height="30" style="stroke:#181818;stroke-width:1.0;" width="10" x="851.5" y="605.3594"/><rect fill="#FFFFFF" height="90.7031" style="stroke:#181818;stroke-width:1.0;" width="10" x="945" y="337.8984"/><rect fill="#FFFFFF" height="90.7031" style="stroke:#181818;stroke-width:1.0;" width="10" x="945" y="733.4141"/><rect fill="#FFFFFF" height="90.7031" style="stroke:#181818;stroke-width:1.0;" width="10" x="945" y="870.3047"/><rect fill="#FFFFFF" height="30" style="stroke:#181818;stroke-width:1.0;" width="10" x="1115" y="368.25"/><rect fill="#FFFFFF" height="30" style="stroke:#181818;stroke-width:1.0;" width="10" x="1115" y="763.7656"/><rect fill="#FFFFFF" height="30" style="stroke:#181818;stroke-width:1.0;" width="10" x="1115" y="900.6563"/><rect fill="#FFFFFF" height="30.3516" style="stroke:#181818;stroke-width:1.0;" width="10" x="1247" y="665.7109"/><rect fill="none" height="671.8125" style="stroke:#000000;stroke-width:1.5;" width="1145" x="192" y="297.1953"/><rect fill="none" height="139.4063" style="stroke:#000000;stroke-width:1.5;" width="1125" x="202" y="564.6563"/><line style="stroke:#181818;stroke-width:0.5;stroke-dasharray:5.0,5.0;" x1="300" x2="300" y1="142.4375" y2="1123.7656"/><line style="stroke:#181818;stroke-width:0.5;stroke-dasharray:5.0,5.0;" x1="478" x2="478" y1="142.4375" y2="1123.7656"/><line style="stroke:#181818;stroke-width:0.5;stroke-dasharray:5.0,5.0;" x1="739" x2="739" y1="142.4375" y2="1123.7656"/><line style="stroke:#181818;stroke-width:0.5;stroke-dasharray:5.0,5.0;" x1="856.5" x2="856.5" y1="142.4375" y2="1123.7656"/><line style="stroke:#181818;stroke-width:0.5;stroke-dasharray:5.0,5.0;" x1="949.5" x2="949.5" y1="142.4375" y2="1123.7656"/><line style="stroke:#181818;stroke-width:0.5;stroke-dasharray:5.0,5.0;" x1="1120" x2="1120" y1="142.4375" y2="1123.7656"/><line style="stroke:#181818;stroke-width:0.5;stroke-dasharray:5.0,5.0;" x1="1252" x2="1252" y1="142.4375" y2="1123.7656"/><rect fill="#E2E2F0" height="49.2188" rx="2.5" ry="2.5" style="stroke:#181818;stroke-width:0.5;" width="176" x="212" y="92.2188"/><text fill="#000000" font-family="sans-serif" font-size="14" font-style="italic" lengthAdjust="spacing" textLength="84" x="258" y="113.752">&#171;application&#187;</text><text fill="#000000" font-family="sans-serif" font-size="14" lengthAdjust="spacing" textLength="162" x="219" y="131.3613">BackofficeLoginController</text><rect fill="#E2E2F0" height="49.2188" rx="2.5" ry="2.5" style="stroke:#181818;stroke-width:0.5;" width="176" x="212" y="1122.7656"/><text fill="#000000" font-family="sans-serif" font-size="14" font-style="italic" lengthAdjust="spacing" textLength="84" x="258" y="1144.2988">&#171;application&#187;</text><text fill="#000000" font-family="sans-serif" font-size="14" lengthAdjust="spacing" textLength="162" x="219" y="1161.9082">BackofficeLoginController</text><rect fill="#E2E2F0" height="49.2188" rx="2.5" ry="2.5" style="stroke:#181818;stroke-width:0.5;" width="161" x="398" y="92.2188"/><text fill="#000000" font-family="sans-serif" font-size="14" font-style="italic" lengthAdjust="spacing" textLength="89" x="434" y="113.752">&#171;persistence&#187;</text><text fill="#000000" font-family="sans-serif" font-size="14" lengthAdjust="spacing" textLength="147" x="405" y="131.3613">BackofficeLoginService</text><rect fill="#E2E2F0" height="49.2188" rx="2.5" ry="2.5" style="stroke:#181818;stroke-width:0.5;" width="161" x="398" y="1122.7656"/><text fill="#000000" font-family="sans-serif" font-size="14" font-style="italic" lengthAdjust="spacing" textLength="89" x="434" y="1144.2988">&#171;persistence&#187;</text><text fill="#000000" font-family="sans-serif" font-size="14" lengthAdjust="spacing" textLength="147" x="405" y="1161.9082">BackofficeLoginService</text><rect fill="#E2E2F0" height="49.2188" rx="2.5" ry="2.5" style="stroke:#181818;stroke-width:0.5;" width="73" x="703" y="92.2188"/><text fill="#000000" font-family="sans-serif" font-size="14" font-style="italic" lengthAdjust="spacing" textLength="44" x="717.5" y="113.752">&#171;data&#187;</text><text fill="#000000" font-family="sans-serif" font-size="14" lengthAdjust="spacing" textLength="59" x="710" y="131.3613">UserDTO</text><rect fill="#E2E2F0" height="49.2188" rx="2.5" ry="2.5" style="stroke:#181818;stroke-width:0.5;" width="73" x="703" y="1122.7656"/><text fill="#000000" font-family="sans-serif" font-size="14" font-style="italic" lengthAdjust="spacing" textLength="44" x="717.5" y="1144.2988">&#171;data&#187;</text><text fill="#000000" font-family="sans-serif" font-size="14" lengthAdjust="spacing" textLength="59" x="710" y="1161.9082">UserDTO</text><rect fill="#E2E2F0" height="49.2188" rx="2.5" ry="2.5" style="stroke:#181818;stroke-width:0.5;" width="64" x="824.5" y="92.2188"/><text fill="#000000" font-family="sans-serif" font-size="14" font-style="italic" lengthAdjust="spacing" textLength="50" x="831.5" y="113.752">&#171;entity&#187;</text><text fill="#000000" font-family="sans-serif" font-size="14" lengthAdjust="spacing" textLength="29" x="842" y="131.3613">User</text><rect fill="#E2E2F0" height="49.2188" rx="2.5" ry="2.5" style="stroke:#181818;stroke-width:0.5;" width="64" x="824.5" y="1122.7656"/><text fill="#000000" font-family="sans-serif" font-size="14" font-style="italic" lengthAdjust="spacing" textLength="50" x="831.5" y="1144.2988">&#171;entity&#187;</text><text fill="#000000" font-family="sans-serif" font-size="14" lengthAdjust="spacing" textLength="29" x="842" y="1161.9082">User</text><text fill="#000000" font-family="sans-serif" font-size="14" font-style="italic" lengthAdjust="spacing" textLength="79" x="907.5" y="121.752">&#171;repository&#187;</text><text fill="#000000" font-family="sans-serif" font-size="14" lengthAdjust="spacing" textLength="97" x="898.5" y="139.3613">UserRepository</text><path d="M932,71.2188 C932,61.2188 950,61.2188 950,61.2188 C950,61.2188 968,61.2188 968,71.2188 L968,97.2188 C968,107.2188 950,107.2188 950,107.2188 C950,107.2188 932,107.2188 932,97.2188 L932,71.2188 " fill="#E2E2F0" style="stroke:#181818;stroke-width:1.5;"/><path d="M932,71.2188 C932,81.2188 950,81.2188 950,81.2188 C950,81.2188 968,81.2188 968,71.2188 " fill="none" style="stroke:#181818;stroke-width:1.5;"/><text fill="#000000" font-family="sans-serif" font-size="14" font-style="italic" lengthAdjust="spacing" textLength="79" x="907.5" y="1137.2988">&#171;repository&#187;</text><text fill="#000000" font-family="sans-serif" font-size="14" lengthAdjust="spacing" textLength="97" x="898.5" y="1154.9082">UserRepository</text><path d="M932,1167.9844 C932,1157.9844 950,1157.9844 950,1157.9844 C950,1157.9844 968,1157.9844 968,1167.9844 L968,1193.9844 C968,1203.9844 950,1203.9844 950,1203.9844 C950,1203.9844 932,1203.9844 932,1193.9844 L932,1167.9844 " fill="#E2E2F0" style="stroke:#181818;stroke-width:1.5;"/><path d="M932,1167.9844 C932,1177.9844 950,1177.9844 950,1177.9844 C950,1177.9844 968,1177.9844 968,1167.9844 " fill="none" style="stroke:#181818;stroke-width:1.5;"/><rect fill="#E2E2F0" height="49.2188" rx="2.5" ry="2.5" style="stroke:#181818;stroke-width:0.5;" width="114" x="1063" y="92.2188"/><text fill="#000000" font-family="sans-serif" font-size="14" font-style="italic" lengthAdjust="spacing" textLength="71" x="1084.5" y="113.752">&#171;interface&#187;</text><text fill="#000000" font-family="sans-serif" font-size="14" lengthAdjust="spacing" textLength="100" x="1070" y="131.3613">IUserRepository</text><rect fill="#E2E2F0" height="49.2188" rx="2.5" ry="2.5" style="stroke:#181818;stroke-width:0.5;" width="114" x="1063" y="1122.7656"/><text fill="#000000" font-family="sans-serif" font-size="14" font-style="italic" lengthAdjust="spacing" textLength="71" x="1084.5" y="1144.2988">&#171;interface&#187;</text><text fill="#000000" font-family="sans-serif" font-size="14" lengthAdjust="spacing" textLength="100" x="1070" y="1161.9082">IUserRepository</text><rect fill="#E2E2F0" height="31.6094" rx="2.5" ry="2.5" style="stroke:#181818;stroke-width:0.5;" width="130" x="1187" y="109.8281"/><text fill="#000000" font-family="sans-serif" font-size="14" lengthAdjust="spacing" textLength="116" x="1194" y="131.3613">NotificationService</text><rect fill="#E2E2F0" height="31.6094" rx="2.5" ry="2.5" style="stroke:#181818;stroke-width:0.5;" width="130" x="1187" y="1122.7656"/><text fill="#000000" font-family="sans-serif" font-size="14" lengthAdjust="spacing" textLength="116" x="1194" y="1144.2988">NotificationService</text><rect fill="#FFFFFF" height="914.625" style="stroke:#181818;stroke-width:1.0;" width="10" x="295" y="191.1406"/><rect fill="#FFFFFF" height="837.5703" style="stroke:#181818;stroke-width:1.0;" width="10" x="473.5" y="221.4922"/><rect fill="#FFFFFF" height="30.3516" style="stroke:#181818;stroke-width:1.0;" width="10" x="734.5" y="998.3594"/><rect fill="#FFFFFF" height="30.3516" style="stroke:#181818;stroke-width:1.0;" width="10" x="851.5" y="251.8438"/><rect fill="#FFFFFF" height="30.3516" style="stroke:#181818;stroke-width:1.0;" width="10" x="851.5" y="458.9531"/><rect fill="#FFFFFF" height="30" style="stroke:#181818;stroke-width:1.0;" width="10" x="851.5" y="519.6563"/><rect fill="#FFFFFF" height="30" style="stroke:#181818;stroke-width:1.0;" width="10" x="851.5" y="605.3594"/><rect fill="#FFFFFF" height="90.7031" style="stroke:#181818;stroke-width:1.0;" width="10" x="945" y="337.8984"/><rect fill="#FFFFFF" height="90.7031" style="stroke:#181818;stroke-width:1.0;" width="10" x="945" y="733.4141"/><rect fill="#FFFFFF" height="90.7031" style="stroke:#181818;stroke-width:1.0;" width="10" x="945" y="870.3047"/><rect fill="#FFFFFF" height="30" style="stroke:#181818;stroke-width:1.0;" width="10" x="1115" y="368.25"/><rect fill="#FFFFFF" height="30" style="stroke:#181818;stroke-width:1.0;" width="10" x="1115" y="763.7656"/><rect fill="#FFFFFF" height="30" style="stroke:#181818;stroke-width:1.0;" width="10" x="1115" y="900.6563"/><rect fill="#FFFFFF" height="30.3516" style="stroke:#181818;stroke-width:1.0;" width="10" x="1247" y="665.7109"/><polygon fill="#181818" points="283,187.1406,293,191.1406,283,195.1406,287,191.1406" style="stroke:#181818;stroke-width:1.0;"/><line style="stroke:#181818;stroke-width:1.0;stroke-dasharray:2.0,2.0;" x1="0" x2="289" y1="191.1406" y2="191.1406"/><text fill="#000000" font-family="sans-serif" font-size="13" lengthAdjust="spacing" textLength="178" x="7" y="169.9326">POST /api/login-backofficeuser</text><text fill="#000000" font-family="sans-serif" font-size="13" lengthAdjust="spacing" textLength="166" x="7" y="186.2842">Body: {username, password}</text><polygon fill="#181818" points="461.5,217.4922,471.5,221.4922,461.5,225.4922,465.5,221.4922" style="stroke:#181818;stroke-width:1.0;"/><line style="stroke:#181818;stroke-width:1.0;" x1="305" x2="467.5" y1="221.4922" y2="221.4922"/><text fill="#000000" font-family="sans-serif" font-size="13" lengthAdjust="spacing" textLength="57" x="312" y="216.6357">Login(dto)</text><polygon fill="#181818" points="839.5,247.8438,849.5,251.8438,839.5,255.8438,843.5,251.8438" style="stroke:#181818;stroke-width:1.0;"/><line style="stroke:#181818;stroke-width:1.0;" x1="483.5" x2="845.5" y1="251.8438" y2="251.8438"/><text fill="#000000" font-family="sans-serif" font-size="13" lengthAdjust="spacing" textLength="282" x="490.5" y="246.9873">new User(dto.getUsername(), dto.getPassword())</text><polygon fill="#181818" points="494.5,278.1953,484.5,282.1953,494.5,286.1953,490.5,282.1953" style="stroke:#181818;stroke-width:1.0;"/><line style="stroke:#181818;stroke-width:1.0;stroke-dasharray:2.0,2.0;" x1="488.5" x2="855.5" y1="282.1953" y2="282.1953"/><text fill="#000000" font-family="sans-serif" font-size="13" lengthAdjust="spacing" textLength="25" x="500.5" y="277.3389">user</text><path d="M192,297.1953 L253,297.1953 L253,305.5469 L243,315.5469 L192,315.5469 L192,297.1953 " fill="#EEEEEE" style="stroke:#000000;stroke-width:1.5;"/><rect fill="none" height="671.8125" style="stroke:#000000;stroke-width:1.5;" width="1145" x="192" y="297.1953"/><text fill="#000000" font-family="sans-serif" font-size="13" font-weight="bold" lengthAdjust="spacing" textLength="16" x="207" y="311.6904">alt</text><text fill="#000000" font-family="sans-serif" font-size="11" font-weight="bold" lengthAdjust="spacing" textLength="71" x="268" y="310.6143">[user exists]</text><polygon fill="#181818" points="933,333.8984,943,337.8984,933,341.8984,937,337.8984" style="stroke:#181818;stroke-width:1.0;"/><line style="stroke:#181818;stroke-width:1.0;" x1="483.5" x2="939" y1="337.8984" y2="337.8984"/><text fill="#000000" font-family="sans-serif" font-size="13" lengthAdjust="spacing" textLength="93" x="490.5" y="333.042">AddAsync(user)</text><polygon fill="#181818" points="1103,364.25,1113,368.25,1103,372.25,1107,368.25" style="stroke:#181818;stroke-width:1.0;"/><line style="stroke:#181818;stroke-width:1.0;" x1="955" x2="1109" y1="368.25" y2="368.25"/><text fill="#000000" font-family="sans-serif" font-size="13" lengthAdjust="spacing" textLength="93" x="962" y="363.3936">AddAsync(user)</text><polygon fill="#181818" points="494.5,424.6016,484.5,428.6016,494.5,432.6016,490.5,428.6016" style="stroke:#181818;stroke-width:1.0;"/><line style="stroke:#181818;stroke-width:1.0;stroke-dasharray:2.0,2.0;" x1="488.5" x2="949" y1="428.6016" y2="428.6016"/><text fill="#000000" font-family="sans-serif" font-size="13" lengthAdjust="spacing" textLength="55" x="500.5" y="423.7451">userRepo</text><polygon fill="#181818" points="839.5,454.9531,849.5,458.9531,839.5,462.9531,843.5,458.9531" style="stroke:#181818;stroke-width:1.0;"/><line style="stroke:#181818;stroke-width:1.0;" x1="483.5" x2="845.5" y1="458.9531" y2="458.9531"/><text fill="#000000" font-family="sans-serif" font-size="13" lengthAdjust="spacing" textLength="349" x="490.5" y="454.0967">userRepo.Equals(userRepo.getPassword(), user.password())</text><polygon fill="#181818" points="494.5,485.3047,484.5,489.3047,494.5,493.3047,490.5,489.3047" style="stroke:#181818;stroke-width:1.0;"/><line style="stroke:#181818;stroke-width:1.0;stroke-dasharray:2.0,2.0;" x1="488.5" x2="855.5" y1="489.3047" y2="489.3047"/><text fill="#000000" font-family="sans-serif" font-size="13" lengthAdjust="spacing" textLength="27" x="500.5" y="484.4482">false</text><polygon fill="#181818" points="839.5,515.6563,849.5,519.6563,839.5,523.6563,843.5,519.6563" style="stroke:#181818;stroke-width:1.0;"/><line style="stroke:#181818;stroke-width:1.0;" x1="483.5" x2="845.5" y1="519.6563" y2="519.6563"/><text fill="#000000" font-family="sans-serif" font-size="13" lengthAdjust="spacing" textLength="125" x="490.5" y="514.7998">user.loginAttempts++</text><path d="M202,564.6563 L263,564.6563 L263,573.0078 L253,583.0078 L202,583.0078 L202,564.6563 " fill="#EEEEEE" style="stroke:#000000;stroke-width:1.5;"/><rect fill="none" height="139.4063" style="stroke:#000000;stroke-width:1.5;" width="1125" x="202" y="564.6563"/><text fill="#000000" font-family="sans-serif" font-size="13" font-weight="bold" lengthAdjust="spacing" textLength="16" x="217" y="579.1514">alt</text><text fill="#000000" font-family="sans-serif" font-size="11" font-weight="bold" lengthAdjust="spacing" textLength="140" x="278" y="578.0752">[user.loginAttempts == 5]</text><polygon fill="#181818" points="839.5,601.3594,849.5,605.3594,839.5,609.3594,843.5,605.3594" style="stroke:#181818;stroke-width:1.0;"/><line style="stroke:#181818;stroke-width:1.0;" x1="483.5" x2="845.5" y1="605.3594" y2="605.3594"/><text fill="#000000" font-family="sans-serif" font-size="13" lengthAdjust="spacing" textLength="125" x="490.5" y="600.5029">userRepo.blockUser()</text><polygon fill="#181818" points="1235,661.7109,1245,665.7109,1235,669.7109,1239,665.7109" style="stroke:#181818;stroke-width:1.0;"/><line style="stroke:#181818;stroke-width:1.0;" x1="305" x2="1241" y1="665.7109" y2="665.7109"/><text fill="#000000" font-family="sans-serif" font-size="13" lengthAdjust="spacing" textLength="208" x="312" y="660.8545">SendNotificationToAdmin(userRepo)</text><polygon fill="#181818" points="494.5,692.0625,484.5,696.0625,494.5,700.0625,490.5,696.0625" style="stroke:#181818;stroke-width:1.0;"/><line style="stroke:#181818;stroke-width:1.0;stroke-dasharray:2.0,2.0;" x1="488.5" x2="1251" y1="696.0625" y2="696.0625"/><text fill="#000000" font-family="sans-serif" font-size="13" lengthAdjust="spacing" textLength="89" x="500.5" y="691.2061">notificationSent</text><polygon fill="#181818" points="933,729.4141,943,733.4141,933,737.4141,937,733.4141" style="stroke:#181818;stroke-width:1.0;"/><line style="stroke:#181818;stroke-width:1.0;" x1="483.5" x2="939" y1="733.4141" y2="733.4141"/><text fill="#000000" font-family="sans-serif" font-size="13" lengthAdjust="spacing" textLength="141" x="490.5" y="728.5576">UpdateAsync(userRepo)</text><polygon fill="#181818" points="1103,759.7656,1113,763.7656,1103,767.7656,1107,763.7656" style="stroke:#181818;stroke-width:1.0;"/><line style="stroke:#181818;stroke-width:1.0;" x1="955" x2="1109" y1="763.7656" y2="763.7656"/><text fill="#000000" font-family="sans-serif" font-size="13" lengthAdjust="spacing" textLength="141" x="962" y="758.9092">UpdateAsync(userRepo)</text><polygon fill="#181818" points="494.5,820.1172,484.5,824.1172,494.5,828.1172,490.5,824.1172" style="stroke:#181818;stroke-width:1.0;"/><line style="stroke:#181818;stroke-width:1.0;stroke-dasharray:2.0,2.0;" x1="488.5" x2="949" y1="824.1172" y2="824.1172"/><text fill="#000000" font-family="sans-serif" font-size="13" lengthAdjust="spacing" textLength="55" x="500.5" y="819.2607">userRepo</text><line style="stroke:#000000;stroke-width:1.0;stroke-dasharray:2.0,2.0;" x1="192" x2="1337" y1="833.1172" y2="833.1172"/><text fill="#000000" font-family="sans-serif" font-size="11" font-weight="bold" lengthAdjust="spacing" textLength="116" x="197" y="844.5361">[user does not exist]</text><polygon fill="#181818" points="933,866.3047,943,870.3047,933,874.3047,937,870.3047" style="stroke:#181818;stroke-width:1.0;"/><line style="stroke:#181818;stroke-width:1.0;" x1="483.5" x2="939" y1="870.3047" y2="870.3047"/><text fill="#000000" font-family="sans-serif" font-size="13" lengthAdjust="spacing" textLength="93" x="490.5" y="865.4482">AddAsync(user)</text><polygon fill="#181818" points="1103,896.6563,1113,900.6563,1103,904.6563,1107,900.6563" style="stroke:#181818;stroke-width:1.0;"/><line style="stroke:#181818;stroke-width:1.0;" x1="955" x2="1109" y1="900.6563" y2="900.6563"/><text fill="#000000" font-family="sans-serif" font-size="13" lengthAdjust="spacing" textLength="93" x="962" y="895.7998">AddAsync(user)</text><polygon fill="#181818" points="494.5,957.0078,484.5,961.0078,494.5,965.0078,490.5,961.0078" style="stroke:#181818;stroke-width:1.0;"/><line style="stroke:#181818;stroke-width:1.0;stroke-dasharray:2.0,2.0;" x1="488.5" x2="949" y1="961.0078" y2="961.0078"/><text fill="#000000" font-family="sans-serif" font-size="13" lengthAdjust="spacing" textLength="64" x="500.5" y="956.1514">invalid user</text><polygon fill="#181818" points="722.5,994.3594,732.5,998.3594,722.5,1002.3594,726.5,998.3594" style="stroke:#181818;stroke-width:1.0;"/><line style="stroke:#181818;stroke-width:1.0;" x1="483.5" x2="728.5" y1="998.3594" y2="998.3594"/><text fill="#000000" font-family="sans-serif" font-size="13" lengthAdjust="spacing" textLength="232" x="490.5" y="993.5029">new UserDTO(userRepo.getUsername())</text><polygon fill="#181818" points="494.5,1024.7109,484.5,1028.7109,494.5,1032.7109,490.5,1028.7109" style="stroke:#181818;stroke-width:1.0;"/><line style="stroke:#181818;stroke-width:1.0;stroke-dasharray:2.0,2.0;" x1="488.5" x2="738.5" y1="1028.7109" y2="1028.7109"/><text fill="#000000" font-family="sans-serif" font-size="13" lengthAdjust="spacing" textLength="45" x="500.5" y="1023.8545">userDto</text><polygon fill="#181818" points="316,1055.0625,306,1059.0625,316,1063.0625,312,1059.0625" style="stroke:#181818;stroke-width:1.0;"/><line style="stroke:#181818;stroke-width:1.0;stroke-dasharray:2.0,2.0;" x1="310" x2="477.5" y1="1059.0625" y2="1059.0625"/><text fill="#000000" font-family="sans-serif" font-size="13" lengthAdjust="spacing" textLength="45" x="322" y="1054.2061">userDto</text><polygon fill="#181818" points="11,1101.7656,1,1105.7656,11,1109.7656,7,1105.7656" style="stroke:#181818;stroke-width:1.0;"/><line style="stroke:#181818;stroke-width:1.0;stroke-dasharray:2.0,2.0;" x1="5" x2="299" y1="1105.7656" y2="1105.7656"/><text fill="#000000" font-family="sans-serif" font-size="13" lengthAdjust="spacing" textLength="101" x="17" y="1084.5576">401 Unauthorized</text><text fill="#000000" font-family="sans-serif" font-size="13" lengthAdjust="spacing" textLength="276" x="17" y="1100.9092">Body: {error: "Invalid credentials; User blocked"}</text><!--SRC=[xLPDSzem4BtxLsXoWabCw4pR0tKoGq8Fp7HAfePRBi9QY2P6SgGbgTl9Vwza6sFv0vDxTG5PRtUVLgkdrSzS95JH7Kbez4ot468Q0r4G8HNR63nT0lGJPVADYotPq5XNLs8k0DC4I2BZr4wyoc8KKwsdY8glzmZpI8gG_m4ozZpaQ4A5yB874G6PSRgr1eDmDYG-MTsFnryVnLoyqfWpSg-0WK1kGdkUyOmyuWaLIEuCRxdPy0X-o2qNzrAWad4CYb1DAhCWe4aIyuWYb-BszfIF4DIh-MyT7Fu6GG9ASusMQirwfK7DbWiBjpz1m2ZI5am6a3lAXS7OlM1gK1QyfXeoo2z8fEOeLMh1jIz1eCf9pVsyQJnlM7E1e3Oqu-zvldzRJS-4F2p29Rcc2R-ERHByTPcKlV7qAEuaIoVahvq8keChKp5Qlqd5tZqQ8N-b21M7daVCg0GmuOfaJaYMvG53ESnGfNa1o6tjEAJV6EUPcn01RrbYhFbe2xWg-0o6LwJuz50G6mo7fQSoHkwd_6w7CobEoA_ojNjsG0pg_ew1Oipm17wRSj5jMt5FPaAcZ4rrAgA1jMkXxE8zXqdjb8tt-PdkdH3rQkdAJctpDRFkhDPfrhDhrxeotBNzbk8uk1fzVzaRfHYKSwSghZBSAFbWcRHLHYw5FQNXh7Um7cMNpkWax1BKbvVjnzJ2ggSSgoNfnY0tD-HBmzMffAvZ6JrdTs_OiEkZU0RDfc3ybCWtXMINAGz1iEh2KaxPpiZ9WUO9RYt-MecsuDnZ5mv0ODzs-mARBNLMIVqwhnBpPC3nHZVtt7LpwWJFq8x-OATaf2yjymyIx5MDCvK3pANDHPf9qFOqSxN-BzQzQUT5FtRgIUo8unHvLMUMY-EpRYQEQX-VzpQHNYvSXJRjLwD8PjZvibZx9YEdCMhwgDWx_KhW-sv3zNdyYQm4tUEJLARbPMKB1Kf9u_ZYqDj6nzxsMzufPaeBxEBTgqMi12Z6Fm00]--></g></svg>