<?xml version="1.0" encoding="us-ascii" standalone="no"?><svg xmlns="http://www.w3.org/2000/svg" xmlns:xlink="http://www.w3.org/1999/xlink" contentStyleType="text/css" height="785px" preserveAspectRatio="none" style="width:1267px;height:785px;background:#FFFFFF;" version="1.1" viewBox="0 0 1267 785" width="1267px" zoomAndPan="magnify"><defs/><g><text fill="#000000" font-family="sans-serif" font-size="14" font-weight="bold" lengthAdjust="spacing" textLength="190" x="531.5" y="24.5332">Class Diagram (CD) - UC006</text><!--class BackofficeLoginController--><g id="elem_BackofficeLoginController"><rect codeLine="8" fill="#F1F1F1" height="76.3125" id="BackofficeLoginController" rx="2.5" ry="2.5" style="stroke:#181818;stroke-width:0.5;" width="353" x="414" y="45.6094"/><ellipse cx="505.25" cy="66.9609" fill="#ADD1B2" rx="11" ry="11" style="stroke:#181818;stroke-width:1.0;"/><path d="M508.0156,62.8359 Q508.1719,62.6172 508.3594,62.5078 Q508.5469,62.3984 508.7656,62.3984 Q509.1406,62.3984 509.375,62.6641 Q509.6094,62.9141 509.6094,63.5234 L509.6094,64.9766 Q509.6094,65.5859 509.375,65.8516 Q509.1406,66.1172 508.7656,66.1172 Q508.4219,66.1172 508.2188,65.9141 Q508.0156,65.7266 507.9063,65.2109 Q507.8594,64.8516 507.6719,64.6641 Q507.3438,64.2891 506.7344,64.0703 Q506.125,63.8516 505.5,63.8516 Q504.7344,63.8516 504.0938,64.1797 Q503.4688,64.5078 502.9688,65.2578 Q502.4844,66.0078 502.4844,67.0391 L502.4844,68.1328 Q502.4844,69.3672 503.375,70.1953 Q504.2656,71.0078 505.8594,71.0078 Q506.7969,71.0078 507.4531,70.7578 Q507.8438,70.6016 508.2656,70.1641 Q508.5313,69.8984 508.6719,69.8203 Q508.8281,69.7422 509.0313,69.7422 Q509.3594,69.7422 509.6094,70.0078 Q509.875,70.2578 509.875,70.6016 Q509.875,70.9453 509.5313,71.3516 Q509.0313,71.9297 508.2344,72.2578 Q507.1563,72.7109 505.8594,72.7109 Q504.3438,72.7109 503.1406,72.0859 Q502.1563,71.5859 501.4688,70.5234 Q500.7813,69.4453 500.7813,68.1641 L500.7813,67.0078 Q500.7813,65.6797 501.3906,64.5391 Q502.0156,63.3828 503.1094,62.7734 Q504.2031,62.1484 505.4375,62.1484 Q506.1719,62.1484 506.8125,62.3203 Q507.4688,62.4766 508.0156,62.8359 Z " fill="#000000"/><text fill="#000000" font-family="sans-serif" font-size="12" font-style="italic" lengthAdjust="spacing" textLength="65" x="574.25" y="63.0664">&#171;controller&#187;</text><text fill="#000000" font-family="sans-serif" font-size="14" lengthAdjust="spacing" textLength="162" x="525.75" y="80.2363">BackofficeLoginController</text><line style="stroke:#181818;stroke-width:0.5;" x1="415" x2="766" y1="88.3125" y2="88.3125"/><line style="stroke:#181818;stroke-width:0.5;" x1="415" x2="766" y1="96.3125" y2="96.3125"/><text fill="#000000" font-family="sans-serif" font-size="14" lengthAdjust="spacing" textLength="341" x="420" y="114.8457">+Login(dto: UserDTO): Task&lt;ActionResult&lt;UserDto&gt;&gt;</text></g><!--class BackofficeLoginService--><g id="elem_BackofficeLoginService"><rect codeLine="12" fill="#F1F1F1" height="93.9219" id="BackofficeLoginService" rx="2.5" ry="2.5" style="stroke:#181818;stroke-width:0.5;" width="353" x="414" y="199.6094"/><ellipse cx="512.75" cy="220.9609" fill="#ADD1B2" rx="11" ry="11" style="stroke:#181818;stroke-width:1.0;"/><path d="M515.5156,216.8359 Q515.6719,216.6172 515.8594,216.5078 Q516.0469,216.3984 516.2656,216.3984 Q516.6406,216.3984 516.875,216.6641 Q517.1094,216.9141 517.1094,217.5234 L517.1094,218.9766 Q517.1094,219.5859 516.875,219.8516 Q516.6406,220.1172 516.2656,220.1172 Q515.9219,220.1172 515.7188,219.9141 Q515.5156,219.7266 515.4063,219.2109 Q515.3594,218.8516 515.1719,218.6641 Q514.8438,218.2891 514.2344,218.0703 Q513.625,217.8516 513,217.8516 Q512.2344,217.8516 511.5938,218.1797 Q510.9688,218.5078 510.4688,219.2578 Q509.9844,220.0078 509.9844,221.0391 L509.9844,222.1328 Q509.9844,223.3672 510.875,224.1953 Q511.7656,225.0078 513.3594,225.0078 Q514.2969,225.0078 514.9531,224.7578 Q515.3438,224.6016 515.7656,224.1641 Q516.0313,223.8984 516.1719,223.8203 Q516.3281,223.7422 516.5313,223.7422 Q516.8594,223.7422 517.1094,224.0078 Q517.375,224.2578 517.375,224.6016 Q517.375,224.9453 517.0313,225.3516 Q516.5313,225.9297 515.7344,226.2578 Q514.6563,226.7109 513.3594,226.7109 Q511.8438,226.7109 510.6406,226.0859 Q509.6563,225.5859 508.9688,224.5234 Q508.2813,223.4453 508.2813,222.1641 L508.2813,221.0078 Q508.2813,219.6797 508.8906,218.5391 Q509.5156,217.3828 510.6094,216.7734 Q511.7031,216.1484 512.9375,216.1484 Q513.6719,216.1484 514.3125,216.3203 Q514.9688,216.4766 515.5156,216.8359 Z " fill="#000000"/><text fill="#000000" font-family="sans-serif" font-size="12" font-style="italic" lengthAdjust="spacing" textLength="53" x="580.25" y="217.0664">&#171;service&#187;</text><text fill="#000000" font-family="sans-serif" font-size="14" lengthAdjust="spacing" textLength="147" x="533.25" y="234.2363">BackofficeLoginService</text><line style="stroke:#181818;stroke-width:0.5;" x1="415" x2="766" y1="242.3125" y2="242.3125"/><line style="stroke:#181818;stroke-width:0.5;" x1="415" x2="766" y1="250.3125" y2="250.3125"/><text fill="#000000" font-family="sans-serif" font-size="14" lengthAdjust="spacing" textLength="341" x="420" y="268.8457">+Login(dto: UserDTO): Task&lt;ActionResult&lt;UserDto&gt;&gt;</text><text fill="#000000" font-family="sans-serif" font-size="14" lengthAdjust="spacing" textLength="252" x="420" y="286.4551">+AddAsync(dto: UserDTO): Task&lt;User&gt;</text></g><!--class NotificationService--><g id="elem_NotificationService"><rect codeLine="17" fill="#F1F1F1" height="76.3125" id="NotificationService" rx="2.5" ry="2.5" style="stroke:#181818;stroke-width:0.5;" width="335" x="7" y="424.6094"/><ellipse cx="112.25" cy="445.9609" fill="#ADD1B2" rx="11" ry="11" style="stroke:#181818;stroke-width:1.0;"/><path d="M115.0156,441.8359 Q115.1719,441.6172 115.3594,441.5078 Q115.5469,441.3984 115.7656,441.3984 Q116.1406,441.3984 116.375,441.6641 Q116.6094,441.9141 116.6094,442.5234 L116.6094,443.9766 Q116.6094,444.5859 116.375,444.8516 Q116.1406,445.1172 115.7656,445.1172 Q115.4219,445.1172 115.2188,444.9141 Q115.0156,444.7266 114.9063,444.2109 Q114.8594,443.8516 114.6719,443.6641 Q114.3438,443.2891 113.7344,443.0703 Q113.125,442.8516 112.5,442.8516 Q111.7344,442.8516 111.0938,443.1797 Q110.4688,443.5078 109.9688,444.2578 Q109.4844,445.0078 109.4844,446.0391 L109.4844,447.1328 Q109.4844,448.3672 110.375,449.1953 Q111.2656,450.0078 112.8594,450.0078 Q113.7969,450.0078 114.4531,449.7578 Q114.8438,449.6016 115.2656,449.1641 Q115.5313,448.8984 115.6719,448.8203 Q115.8281,448.7422 116.0313,448.7422 Q116.3594,448.7422 116.6094,449.0078 Q116.875,449.2578 116.875,449.6016 Q116.875,449.9453 116.5313,450.3516 Q116.0313,450.9297 115.2344,451.2578 Q114.1563,451.7109 112.8594,451.7109 Q111.3438,451.7109 110.1406,451.0859 Q109.1563,450.5859 108.4688,449.5234 Q107.7813,448.4453 107.7813,447.1641 L107.7813,446.0078 Q107.7813,444.6797 108.3906,443.5391 Q109.0156,442.3828 110.1094,441.7734 Q111.2031,441.1484 112.4375,441.1484 Q113.1719,441.1484 113.8125,441.3203 Q114.4688,441.4766 115.0156,441.8359 Z " fill="#000000"/><text fill="#000000" font-family="sans-serif" font-size="12" font-style="italic" lengthAdjust="spacing" textLength="53" x="164.25" y="442.0664">&#171;service&#187;</text><text fill="#000000" font-family="sans-serif" font-size="14" lengthAdjust="spacing" textLength="116" x="132.75" y="459.2363">NotificationService</text><line style="stroke:#181818;stroke-width:0.5;" x1="8" x2="341" y1="467.3125" y2="467.3125"/><line style="stroke:#181818;stroke-width:0.5;" x1="8" x2="341" y1="475.3125" y2="475.3125"/><text fill="#000000" font-family="sans-serif" font-size="14" lengthAdjust="spacing" textLength="323" x="13" y="493.8457">+SendNotificationToAdmin(user: User): Task&lt;bool&gt;</text></g><!--class UserRepository--><g id="elem_UserRepository"><rect codeLine="21" fill="#F1F1F1" height="93.9219" id="UserRepository" rx="2.5" ry="2.5" style="stroke:#181818;stroke-width:0.5;" width="264" x="377.5" y="415.6094"/><ellipse cx="456.75" cy="436.9609" fill="#ADD1B2" rx="11" ry="11" style="stroke:#181818;stroke-width:1.0;"/><path d="M459.5156,432.8359 Q459.6719,432.6172 459.8594,432.5078 Q460.0469,432.3984 460.2656,432.3984 Q460.6406,432.3984 460.875,432.6641 Q461.1094,432.9141 461.1094,433.5234 L461.1094,434.9766 Q461.1094,435.5859 460.875,435.8516 Q460.6406,436.1172 460.2656,436.1172 Q459.9219,436.1172 459.7188,435.9141 Q459.5156,435.7266 459.4063,435.2109 Q459.3594,434.8516 459.1719,434.6641 Q458.8438,434.2891 458.2344,434.0703 Q457.625,433.8516 457,433.8516 Q456.2344,433.8516 455.5938,434.1797 Q454.9688,434.5078 454.4688,435.2578 Q453.9844,436.0078 453.9844,437.0391 L453.9844,438.1328 Q453.9844,439.3672 454.875,440.1953 Q455.7656,441.0078 457.3594,441.0078 Q458.2969,441.0078 458.9531,440.7578 Q459.3438,440.6016 459.7656,440.1641 Q460.0313,439.8984 460.1719,439.8203 Q460.3281,439.7422 460.5313,439.7422 Q460.8594,439.7422 461.1094,440.0078 Q461.375,440.2578 461.375,440.6016 Q461.375,440.9453 461.0313,441.3516 Q460.5313,441.9297 459.7344,442.2578 Q458.6563,442.7109 457.3594,442.7109 Q455.8438,442.7109 454.6406,442.0859 Q453.6563,441.5859 452.9688,440.5234 Q452.2813,439.4453 452.2813,438.1641 L452.2813,437.0078 Q452.2813,435.6797 452.8906,434.5391 Q453.5156,433.3828 454.6094,432.7734 Q455.7031,432.1484 456.9375,432.1484 Q457.6719,432.1484 458.3125,432.3203 Q458.9688,432.4766 459.5156,432.8359 Z " fill="#000000"/><text fill="#000000" font-family="sans-serif" font-size="12" font-style="italic" lengthAdjust="spacing" textLength="68" x="491.75" y="433.0664">&#171;repository&#187;</text><text fill="#000000" font-family="sans-serif" font-size="14" lengthAdjust="spacing" textLength="97" x="477.25" y="450.2363">UserRepository</text><line style="stroke:#181818;stroke-width:0.5;" x1="378.5" x2="640.5" y1="458.3125" y2="458.3125"/><line style="stroke:#181818;stroke-width:0.5;" x1="378.5" x2="640.5" y1="466.3125" y2="466.3125"/><text fill="#000000" font-family="sans-serif" font-size="14" lengthAdjust="spacing" textLength="252" x="383.5" y="484.8457">+AddAsync(dto: UserDTO): Task&lt;User&gt;</text><text fill="#000000" font-family="sans-serif" font-size="14" lengthAdjust="spacing" textLength="250" x="383.5" y="502.4551">+UpdateAsync(user: User): Task&lt;User&gt;</text></g><!--class InterfaceUserRepository--><g id="elem_InterfaceUserRepository"><rect codeLine="26" fill="#F1F1F1" height="93.9219" id="InterfaceUserRepository" rx="2.5" ry="2.5" style="stroke:#181818;stroke-width:0.5;" width="264" x="377.5" y="658.1094"/><ellipse cx="429.25" cy="679.4609" fill="#ADD1B2" rx="11" ry="11" style="stroke:#181818;stroke-width:1.0;"/><path d="M432.0156,675.3359 Q432.1719,675.1172 432.3594,675.0078 Q432.5469,674.8984 432.7656,674.8984 Q433.1406,674.8984 433.375,675.1641 Q433.6094,675.4141 433.6094,676.0234 L433.6094,677.4766 Q433.6094,678.0859 433.375,678.3516 Q433.1406,678.6172 432.7656,678.6172 Q432.4219,678.6172 432.2188,678.4141 Q432.0156,678.2266 431.9063,677.7109 Q431.8594,677.3516 431.6719,677.1641 Q431.3438,676.7891 430.7344,676.5703 Q430.125,676.3516 429.5,676.3516 Q428.7344,676.3516 428.0938,676.6797 Q427.4688,677.0078 426.9688,677.7578 Q426.4844,678.5078 426.4844,679.5391 L426.4844,680.6328 Q426.4844,681.8672 427.375,682.6953 Q428.2656,683.5078 429.8594,683.5078 Q430.7969,683.5078 431.4531,683.2578 Q431.8438,683.1016 432.2656,682.6641 Q432.5313,682.3984 432.6719,682.3203 Q432.8281,682.2422 433.0313,682.2422 Q433.3594,682.2422 433.6094,682.5078 Q433.875,682.7578 433.875,683.1016 Q433.875,683.4453 433.5313,683.8516 Q433.0313,684.4297 432.2344,684.7578 Q431.1563,685.2109 429.8594,685.2109 Q428.3438,685.2109 427.1406,684.5859 Q426.1563,684.0859 425.4688,683.0234 Q424.7813,681.9453 424.7813,680.6641 L424.7813,679.5078 Q424.7813,678.1797 425.3906,677.0391 Q426.0156,675.8828 427.1094,675.2734 Q428.2031,674.6484 429.4375,674.6484 Q430.1719,674.6484 430.8125,674.8203 Q431.4688,674.9766 432.0156,675.3359 Z " fill="#000000"/><text fill="#000000" font-family="sans-serif" font-size="12" font-style="italic" lengthAdjust="spacing" textLength="61" x="495.25" y="675.5664">&#171;interface&#187;</text><text fill="#000000" font-family="sans-serif" font-size="14" lengthAdjust="spacing" textLength="152" x="449.75" y="692.7363">InterfaceUserRepository</text><line style="stroke:#181818;stroke-width:0.5;" x1="378.5" x2="640.5" y1="700.8125" y2="700.8125"/><line style="stroke:#181818;stroke-width:0.5;" x1="378.5" x2="640.5" y1="708.8125" y2="708.8125"/><text fill="#000000" font-family="sans-serif" font-size="14" lengthAdjust="spacing" textLength="252" x="383.5" y="727.3457">+AddAsync(dto: UserDTO): Task&lt;User&gt;</text><text fill="#000000" font-family="sans-serif" font-size="14" lengthAdjust="spacing" textLength="250" x="383.5" y="744.9551">+UpdateAsync(user: User): Task&lt;User&gt;</text></g><!--class UserDTO--><g id="elem_UserDTO"><rect codeLine="31" fill="#F1F1F1" height="93.9219" id="UserDTO" rx="2.5" ry="2.5" style="stroke:#181818;stroke-width:0.5;" width="155" x="677" y="415.6094"/><ellipse cx="720.8" cy="436.9609" fill="#ADD1B2" rx="11" ry="11" style="stroke:#181818;stroke-width:1.0;"/><path d="M723.5656,432.8359 Q723.7219,432.6172 723.9094,432.5078 Q724.0969,432.3984 724.3156,432.3984 Q724.6906,432.3984 724.925,432.6641 Q725.1594,432.9141 725.1594,433.5234 L725.1594,434.9766 Q725.1594,435.5859 724.925,435.8516 Q724.6906,436.1172 724.3156,436.1172 Q723.9719,436.1172 723.7688,435.9141 Q723.5656,435.7266 723.4563,435.2109 Q723.4094,434.8516 723.2219,434.6641 Q722.8938,434.2891 722.2844,434.0703 Q721.675,433.8516 721.05,433.8516 Q720.2844,433.8516 719.6438,434.1797 Q719.0188,434.5078 718.5188,435.2578 Q718.0344,436.0078 718.0344,437.0391 L718.0344,438.1328 Q718.0344,439.3672 718.925,440.1953 Q719.8156,441.0078 721.4094,441.0078 Q722.3469,441.0078 723.0031,440.7578 Q723.3938,440.6016 723.8156,440.1641 Q724.0813,439.8984 724.2219,439.8203 Q724.3781,439.7422 724.5813,439.7422 Q724.9094,439.7422 725.1594,440.0078 Q725.425,440.2578 725.425,440.6016 Q725.425,440.9453 725.0813,441.3516 Q724.5813,441.9297 723.7844,442.2578 Q722.7063,442.7109 721.4094,442.7109 Q719.8938,442.7109 718.6906,442.0859 Q717.7063,441.5859 717.0188,440.5234 Q716.3313,439.4453 716.3313,438.1641 L716.3313,437.0078 Q716.3313,435.6797 716.9406,434.5391 Q717.5656,433.3828 718.6594,432.7734 Q719.7531,432.1484 720.9875,432.1484 Q721.7219,432.1484 722.3625,432.3203 Q723.0188,432.4766 723.5656,432.8359 Z " fill="#000000"/><text fill="#000000" font-family="sans-serif" font-size="12" font-style="italic" lengthAdjust="spacing" textLength="56" x="742.7" y="433.0664">&#171;domain&#187;</text><text fill="#000000" font-family="sans-serif" font-size="14" lengthAdjust="spacing" textLength="59" x="741.2" y="450.2363">UserDTO</text><line style="stroke:#181818;stroke-width:0.5;" x1="678" x2="831" y1="458.3125" y2="458.3125"/><text fill="#000000" font-family="sans-serif" font-size="14" lengthAdjust="spacing" textLength="143" x="683" y="476.8457">+username: Username</text><text fill="#000000" font-family="sans-serif" font-size="14" lengthAdjust="spacing" textLength="137" x="683" y="494.4551">+password: Password</text><line style="stroke:#181818;stroke-width:0.5;" x1="678" x2="831" y1="501.5313" y2="501.5313"/></g><!--class User--><g id="elem_User"><rect codeLine="36" fill="#F1F1F1" height="181.9688" id="User" rx="2.5" ry="2.5" style="stroke:#181818;stroke-width:0.5;" width="372" x="867.5" y="371.6094"/><ellipse cx="1029.75" cy="392.9609" fill="#ADD1B2" rx="11" ry="11" style="stroke:#181818;stroke-width:1.0;"/><path d="M1032.5156,388.8359 Q1032.6719,388.6172 1032.8594,388.5078 Q1033.0469,388.3984 1033.2656,388.3984 Q1033.6406,388.3984 1033.875,388.6641 Q1034.1094,388.9141 1034.1094,389.5234 L1034.1094,390.9766 Q1034.1094,391.5859 1033.875,391.8516 Q1033.6406,392.1172 1033.2656,392.1172 Q1032.9219,392.1172 1032.7188,391.9141 Q1032.5156,391.7266 1032.4063,391.2109 Q1032.3594,390.8516 1032.1719,390.6641 Q1031.8438,390.2891 1031.2344,390.0703 Q1030.625,389.8516 1030,389.8516 Q1029.2344,389.8516 1028.5938,390.1797 Q1027.9688,390.5078 1027.4688,391.2578 Q1026.9844,392.0078 1026.9844,393.0391 L1026.9844,394.1328 Q1026.9844,395.3672 1027.875,396.1953 Q1028.7656,397.0078 1030.3594,397.0078 Q1031.2969,397.0078 1031.9531,396.7578 Q1032.3438,396.6016 1032.7656,396.1641 Q1033.0313,395.8984 1033.1719,395.8203 Q1033.3281,395.7422 1033.5313,395.7422 Q1033.8594,395.7422 1034.1094,396.0078 Q1034.375,396.2578 1034.375,396.6016 Q1034.375,396.9453 1034.0313,397.3516 Q1033.5313,397.9297 1032.7344,398.2578 Q1031.6563,398.7109 1030.3594,398.7109 Q1028.8438,398.7109 1027.6406,398.0859 Q1026.6563,397.5859 1025.9688,396.5234 Q1025.2813,395.4453 1025.2813,394.1641 L1025.2813,393.0078 Q1025.2813,391.6797 1025.8906,390.5391 Q1026.5156,389.3828 1027.6094,388.7734 Q1028.7031,388.1484 1029.9375,388.1484 Q1030.6719,388.1484 1031.3125,388.3203 Q1031.9688,388.4766 1032.5156,388.8359 Z " fill="#000000"/><text fill="#000000" font-family="sans-serif" font-size="12" font-style="italic" lengthAdjust="spacing" textLength="43" x="1048.25" y="389.0664">&#171;entity&#187;</text><text fill="#000000" font-family="sans-serif" font-size="14" lengthAdjust="spacing" textLength="29" x="1055.25" y="406.2363">User</text><line style="stroke:#181818;stroke-width:0.5;" x1="868.5" x2="1238.5" y1="414.3125" y2="414.3125"/><text fill="#000000" font-family="sans-serif" font-size="14" lengthAdjust="spacing" textLength="143" x="873.5" y="432.8457">+username: Username</text><text fill="#000000" font-family="sans-serif" font-size="14" lengthAdjust="spacing" textLength="137" x="873.5" y="450.4551">+password: Password</text><text fill="#000000" font-family="sans-serif" font-size="14" lengthAdjust="spacing" textLength="116" x="873.5" y="468.0645">+loginAttempts: int</text><text fill="#000000" font-family="sans-serif" font-size="14" lengthAdjust="spacing" textLength="69" x="873.5" y="485.6738">+role: Role</text><text fill="#000000" font-family="sans-serif" font-size="14" lengthAdjust="spacing" textLength="94" x="873.5" y="503.2832">+status: Status</text><line style="stroke:#181818;stroke-width:0.5;" x1="868.5" x2="1238.5" y1="510.3594" y2="510.3594"/><text fill="#000000" font-family="sans-serif" font-size="14" lengthAdjust="spacing" textLength="360" x="873.5" y="528.8926">+PasswordVerification(password: Password): Task&lt;bool&gt;</text><text fill="#000000" font-family="sans-serif" font-size="14" lengthAdjust="spacing" textLength="115" x="873.5" y="546.502">+BlockUser(): void</text></g><!--class Username--><g id="elem_Username"><rect codeLine="46" fill="#F1F1F1" height="76.3125" id="Username" rx="2.5" ry="2.5" style="stroke:#181818;stroke-width:0.5;" width="128" x="683.5" y="667.1094"/><ellipse cx="707.05" cy="688.4609" fill="#ADD1B2" rx="11" ry="11" style="stroke:#181818;stroke-width:1.0;"/><path d="M709.8156,684.3359 Q709.9719,684.1172 710.1594,684.0078 Q710.3469,683.8984 710.5656,683.8984 Q710.9406,683.8984 711.175,684.1641 Q711.4094,684.4141 711.4094,685.0234 L711.4094,686.4766 Q711.4094,687.0859 711.175,687.3516 Q710.9406,687.6172 710.5656,687.6172 Q710.2219,687.6172 710.0188,687.4141 Q709.8156,687.2266 709.7063,686.7109 Q709.6594,686.3516 709.4719,686.1641 Q709.1438,685.7891 708.5344,685.5703 Q707.925,685.3516 707.3,685.3516 Q706.5344,685.3516 705.8938,685.6797 Q705.2688,686.0078 704.7688,686.7578 Q704.2844,687.5078 704.2844,688.5391 L704.2844,689.6328 Q704.2844,690.8672 705.175,691.6953 Q706.0656,692.5078 707.6594,692.5078 Q708.5969,692.5078 709.2531,692.2578 Q709.6438,692.1016 710.0656,691.6641 Q710.3313,691.3984 710.4719,691.3203 Q710.6281,691.2422 710.8313,691.2422 Q711.1594,691.2422 711.4094,691.5078 Q711.675,691.7578 711.675,692.1016 Q711.675,692.4453 711.3313,692.8516 Q710.8313,693.4297 710.0344,693.7578 Q708.9563,694.2109 707.6594,694.2109 Q706.1438,694.2109 704.9406,693.5859 Q703.9563,693.0859 703.2688,692.0234 Q702.5813,690.9453 702.5813,689.6641 L702.5813,688.5078 Q702.5813,687.1797 703.1906,686.0391 Q703.8156,684.8828 704.9094,684.2734 Q706.0031,683.6484 707.2375,683.6484 Q707.9719,683.6484 708.6125,683.8203 Q709.2688,683.9766 709.8156,684.3359 Z " fill="#000000"/><text fill="#000000" font-family="sans-serif" font-size="12" font-style="italic" lengthAdjust="spacing" textLength="81" x="720.95" y="684.5664">&#171;value object&#187;</text><text fill="#000000" font-family="sans-serif" font-size="14" lengthAdjust="spacing" textLength="64" x="729.45" y="701.7363">Username</text><line style="stroke:#181818;stroke-width:0.5;" x1="684.5" x2="810.5" y1="709.8125" y2="709.8125"/><text fill="#000000" font-family="sans-serif" font-size="14" lengthAdjust="spacing" textLength="116" x="689.5" y="728.3457">+username: String</text><line style="stroke:#181818;stroke-width:0.5;" x1="684.5" x2="810.5" y1="735.4219" y2="735.4219"/></g><!--class Password--><g id="elem_Password"><rect codeLine="50" fill="#F1F1F1" height="76.3125" id="Password" rx="2.5" ry="2.5" style="stroke:#181818;stroke-width:0.5;" width="125" x="847" y="667.1094"/><ellipse cx="869.2" cy="688.4609" fill="#ADD1B2" rx="11" ry="11" style="stroke:#181818;stroke-width:1.0;"/><path d="M871.9656,684.3359 Q872.1219,684.1172 872.3094,684.0078 Q872.4969,683.8984 872.7156,683.8984 Q873.0906,683.8984 873.325,684.1641 Q873.5594,684.4141 873.5594,685.0234 L873.5594,686.4766 Q873.5594,687.0859 873.325,687.3516 Q873.0906,687.6172 872.7156,687.6172 Q872.3719,687.6172 872.1688,687.4141 Q871.9656,687.2266 871.8563,686.7109 Q871.8094,686.3516 871.6219,686.1641 Q871.2938,685.7891 870.6844,685.5703 Q870.075,685.3516 869.45,685.3516 Q868.6844,685.3516 868.0438,685.6797 Q867.4188,686.0078 866.9188,686.7578 Q866.4344,687.5078 866.4344,688.5391 L866.4344,689.6328 Q866.4344,690.8672 867.325,691.6953 Q868.2156,692.5078 869.8094,692.5078 Q870.7469,692.5078 871.4031,692.2578 Q871.7938,692.1016 872.2156,691.6641 Q872.4813,691.3984 872.6219,691.3203 Q872.7781,691.2422 872.9813,691.2422 Q873.3094,691.2422 873.5594,691.5078 Q873.825,691.7578 873.825,692.1016 Q873.825,692.4453 873.4813,692.8516 Q872.9813,693.4297 872.1844,693.7578 Q871.1063,694.2109 869.8094,694.2109 Q868.2938,694.2109 867.0906,693.5859 Q866.1063,693.0859 865.4188,692.0234 Q864.7313,690.9453 864.7313,689.6641 L864.7313,688.5078 Q864.7313,687.1797 865.3406,686.0391 Q865.9656,684.8828 867.0594,684.2734 Q868.1531,683.6484 869.3875,683.6484 Q870.1219,683.6484 870.7625,683.8203 Q871.4188,683.9766 871.9656,684.3359 Z " fill="#000000"/><text fill="#000000" font-family="sans-serif" font-size="12" font-style="italic" lengthAdjust="spacing" textLength="81" x="882.8" y="684.5664">&#171;value object&#187;</text><text fill="#000000" font-family="sans-serif" font-size="14" lengthAdjust="spacing" textLength="61" x="892.8" y="701.7363">Password</text><line style="stroke:#181818;stroke-width:0.5;" x1="848" x2="971" y1="709.8125" y2="709.8125"/><text fill="#000000" font-family="sans-serif" font-size="14" lengthAdjust="spacing" textLength="113" x="853" y="728.3457">+password: String</text><line style="stroke:#181818;stroke-width:0.5;" x1="848" x2="971" y1="735.4219" y2="735.4219"/></g><!--class Role--><g id="elem_Role"><rect codeLine="54" fill="#F1F1F1" height="146.75" id="Role" rx="2.5" ry="2.5" style="stroke:#181818;stroke-width:0.5;" width="109" x="1151" y="631.6094"/><ellipse cx="1166" cy="652.9609" fill="#EB937F" rx="11" ry="11" style="stroke:#181818;stroke-width:1.0;"/><path d="M1164.8594,653.7578 L1164.8594,656.2578 L1169.1875,656.2578 L1169.1875,655.3359 Q1169.1875,654.7266 1169.4219,654.4609 Q1169.6719,654.1953 1170.0469,654.1953 Q1170.4219,654.1953 1170.6563,654.4609 Q1170.8906,654.7266 1170.8906,655.3359 L1170.8906,657.9609 L1162.8906,657.9609 Q1162.2656,657.9609 1162,657.7266 Q1161.75,657.4922 1161.75,657.1016 Q1161.75,656.7266 1162.0156,656.4922 Q1162.2813,656.2578 1162.8906,656.2578 L1163.1563,656.2578 L1163.1563,649.6016 L1162.8906,649.6016 Q1162.2656,649.6016 1162,649.3672 Q1161.75,649.1328 1161.75,648.7422 Q1161.75,648.3672 1162,648.1328 Q1162.2656,647.8984 1162.8906,647.8984 L1170.5156,647.8984 L1170.5156,650.4922 Q1170.5156,651.1016 1170.2813,651.3672 Q1170.0625,651.6172 1169.6719,651.6172 Q1169.2969,651.6172 1169.0625,651.3672 Q1168.8281,651.1016 1168.8281,650.4922 L1168.8281,649.6016 L1164.8594,649.6016 L1164.8594,652.0547 L1166.3438,652.0547 Q1166.3438,651.3984 1166.4688,651.2109 Q1166.7344,650.8047 1167.2031,650.8047 Q1167.5781,650.8047 1167.8125,651.0703 Q1168.0469,651.3203 1168.0469,651.9297 L1168.0469,653.8984 Q1168.0469,654.4453 1167.9219,654.6328 Q1167.6563,655.0234 1167.2031,655.0234 Q1166.7344,655.0234 1166.4688,654.6172 Q1166.3438,654.4297 1166.3438,653.7578 L1164.8594,653.7578 Z " fill="#000000"/><text fill="#000000" font-family="sans-serif" font-size="12" font-style="italic" lengthAdjust="spacing" textLength="81" x="1178" y="649.0664">&#171;value object&#187;</text><text fill="#000000" font-family="sans-serif" font-size="14" lengthAdjust="spacing" textLength="29" x="1204" y="666.2363">Role</text><line style="stroke:#181818;stroke-width:0.5;" x1="1152" x2="1259" y1="674.3125" y2="674.3125"/><text fill="#000000" font-family="sans-serif" font-size="14" lengthAdjust="spacing" textLength="50" x="1157" y="692.8457">+ADMIN</text><text fill="#000000" font-family="sans-serif" font-size="14" lengthAdjust="spacing" textLength="69" x="1157" y="710.4551">+DOCTOR</text><text fill="#000000" font-family="sans-serif" font-size="14" lengthAdjust="spacing" textLength="54" x="1157" y="728.0645">+NURSE</text><text fill="#000000" font-family="sans-serif" font-size="14" lengthAdjust="spacing" textLength="88" x="1157" y="745.6738">+TECHNICIAN</text><text fill="#000000" font-family="sans-serif" font-size="14" lengthAdjust="spacing" textLength="65" x="1157" y="763.2832">+PATIENT</text><line style="stroke:#181818;stroke-width:0.5;" x1="1152" x2="1259" y1="770.3594" y2="770.3594"/></g><!--class Status--><g id="elem_Status"><rect codeLine="62" fill="#F1F1F1" height="93.9219" id="Status" rx="2.5" ry="2.5" style="stroke:#181818;stroke-width:0.5;" width="109" x="1007" y="658.1094"/><ellipse cx="1022" cy="679.4609" fill="#EB937F" rx="11" ry="11" style="stroke:#181818;stroke-width:1.0;"/><path d="M1020.8594,680.2578 L1020.8594,682.7578 L1025.1875,682.7578 L1025.1875,681.8359 Q1025.1875,681.2266 1025.4219,680.9609 Q1025.6719,680.6953 1026.0469,680.6953 Q1026.4219,680.6953 1026.6563,680.9609 Q1026.8906,681.2266 1026.8906,681.8359 L1026.8906,684.4609 L1018.8906,684.4609 Q1018.2656,684.4609 1018,684.2266 Q1017.75,683.9922 1017.75,683.6016 Q1017.75,683.2266 1018.0156,682.9922 Q1018.2813,682.7578 1018.8906,682.7578 L1019.1563,682.7578 L1019.1563,676.1016 L1018.8906,676.1016 Q1018.2656,676.1016 1018,675.8672 Q1017.75,675.6328 1017.75,675.2422 Q1017.75,674.8672 1018,674.6328 Q1018.2656,674.3984 1018.8906,674.3984 L1026.5156,674.3984 L1026.5156,676.9922 Q1026.5156,677.6016 1026.2813,677.8672 Q1026.0625,678.1172 1025.6719,678.1172 Q1025.2969,678.1172 1025.0625,677.8672 Q1024.8281,677.6016 1024.8281,676.9922 L1024.8281,676.1016 L1020.8594,676.1016 L1020.8594,678.5547 L1022.3438,678.5547 Q1022.3438,677.8984 1022.4688,677.7109 Q1022.7344,677.3047 1023.2031,677.3047 Q1023.5781,677.3047 1023.8125,677.5703 Q1024.0469,677.8203 1024.0469,678.4297 L1024.0469,680.3984 Q1024.0469,680.9453 1023.9219,681.1328 Q1023.6563,681.5234 1023.2031,681.5234 Q1022.7344,681.5234 1022.4688,681.1172 Q1022.3438,680.9297 1022.3438,680.2578 L1020.8594,680.2578 Z " fill="#000000"/><text fill="#000000" font-family="sans-serif" font-size="12" font-style="italic" lengthAdjust="spacing" textLength="81" x="1034" y="675.5664">&#171;value object&#187;</text><text fill="#000000" font-family="sans-serif" font-size="14" lengthAdjust="spacing" textLength="40" x="1054.5" y="692.7363">Status</text><line style="stroke:#181818;stroke-width:0.5;" x1="1008" x2="1115" y1="700.8125" y2="700.8125"/><text fill="#000000" font-family="sans-serif" font-size="14" lengthAdjust="spacing" textLength="57" x="1013" y="719.3457">+ACTIVE</text><text fill="#000000" font-family="sans-serif" font-size="14" lengthAdjust="spacing" textLength="74" x="1013" y="736.9551">+BLOCKED</text><line style="stroke:#181818;stroke-width:0.5;" x1="1008" x2="1115" y1="744.0313" y2="744.0313"/></g><!--link BackofficeLoginService to NotificationService--><g id="link_BackofficeLoginService_NotificationService"><path codeLine="67" d="M501,293.6494 C424.95,332.7794 322.5055,385.4749 251.8955,421.7949 " fill="none" id="BackofficeLoginService-to-NotificationService" style="stroke:#181818;stroke-width:1.0;"/><polygon fill="#181818" points="246.56,424.5394,256.3929,423.9797,251.0063,422.2523,252.7337,416.8657,246.56,424.5394" style="stroke:#181818;stroke-width:1.0;"/><text fill="#000000" font-family="sans-serif" font-size="13" lengthAdjust="spacing" textLength="42" x="433.5" y="338.1045">&#171;uses&#187;</text></g><!--link BackofficeLoginController to BackofficeLoginService--><g id="link_BackofficeLoginController_BackofficeLoginService"><path codeLine="68" d="M590.5,121.9494 C590.5,145.0794 590.5,168.9594 590.5,193.5494 " fill="none" id="BackofficeLoginController-to-BackofficeLoginService" style="stroke:#181818;stroke-width:1.0;"/><polygon fill="#181818" points="590.5,199.5494,594.5,190.5494,590.5,194.5494,586.5,190.5494,590.5,199.5494" style="stroke:#181818;stroke-width:1.0;"/><text fill="#000000" font-family="sans-serif" font-size="13" lengthAdjust="spacing" textLength="42" x="591.5" y="166.1045">&#171;uses&#187;</text></g><!--link BackofficeLoginService to UserRepository--><g id="link_BackofficeLoginService_UserRepository"><path codeLine="70" d="M573.02,293.7794 C559.4,329.7794 542.6842,373.928 529.0642,409.908 " fill="none" id="BackofficeLoginService-to-UserRepository" style="stroke:#181818;stroke-width:1.0;"/><polygon fill="#181818" points="526.94,415.5194,533.8672,408.5184,528.7101,410.8432,526.3853,405.6862,526.94,415.5194" style="stroke:#181818;stroke-width:1.0;"/><text fill="#000000" font-family="sans-serif" font-size="13" lengthAdjust="spacing" textLength="56" x="561.5" y="338.1045">&#171;access&#187;</text></g><!--link UserRepository to InterfaceUserRepository--><g id="link_UserRepository_InterfaceUserRepository"><path codeLine="71" d="M509.5,509.6994 C509.5,552.2494 509.5,609.1394 509.5,651.7694 " fill="none" id="UserRepository-to-InterfaceUserRepository" style="stroke:#181818;stroke-width:1.0;"/><polygon fill="#181818" points="509.5,657.7694,513.5,648.7694,509.5,652.7694,505.5,648.7694,509.5,657.7694" style="stroke:#181818;stroke-width:1.0;"/><text fill="#000000" font-family="sans-serif" font-size="13" lengthAdjust="spacing" textLength="81" x="510.5" y="598.1045">&#171;implements&#187;</text></g><!--link UserDTO to Username--><g id="link_UserDTO_Username"><path codeLine="73" d="M753.16,509.6994 C751.83,555.3894 749.9957,618.5219 748.7557,660.8519 " fill="none" id="UserDTO-to-Username" style="stroke:#181818;stroke-width:1.0;"/><polygon fill="#181818" points="748.58,666.8494,752.8418,657.9704,748.7264,661.8515,744.8452,657.7361,748.58,666.8494" style="stroke:#181818;stroke-width:1.0;"/></g><!--link UserDTO to Password--><g id="link_UserDTO_Password"><path codeLine="74" d="M784.2,509.6994 C813.65,555.3894 854.9489,619.4765 882.2389,661.8065 " fill="none" id="UserDTO-to-Password" style="stroke:#181818;stroke-width:1.0;"/><polygon fill="#181818" points="885.49,666.8494,883.9752,657.1177,882.7807,662.647,877.2514,661.4525,885.49,666.8494" style="stroke:#181818;stroke-width:1.0;"/></g><!--link User to Username--><g id="link_User_Username"><path codeLine="76" d="M929.77,553.6294 C896.78,578.3794 861.44,605.5894 829.5,631.6094 C815.8,642.7694 805.7139,651.4025 792.7239,662.9525 " fill="none" id="User-to-Username" style="stroke:#181818;stroke-width:1.0;"/><polygon fill="#181818" points="788.24,666.9394,797.6237,663.9484,791.9766,663.617,792.3079,657.9699,788.24,666.9394" style="stroke:#181818;stroke-width:1.0;"/></g><!--link User to Password--><g id="link_User_Password"><path codeLine="77" d="M999.47,553.8494 C976.01,593.0294 952.9014,631.6111 934.8614,661.7511 " fill="none" id="User-to-Password" style="stroke:#181818;stroke-width:1.0;"/><polygon fill="#181818" points="931.78,666.8994,939.8343,661.2313,934.3479,662.6091,932.97,657.1227,931.78,666.8994" style="stroke:#181818;stroke-width:1.0;"/></g><!--link User to Role--><g id="link_User_Role"><path codeLine="78" d="M1110.53,553.8494 C1126.71,579.4394 1140.8941,601.8977 1156.3241,626.3077 " fill="none" id="User-to-Role" style="stroke:#181818;stroke-width:1.0;"/><polygon fill="#181818" points="1159.53,631.3794,1158.1023,621.6346,1156.8584,627.153,1151.34,625.9091,1159.53,631.3794" style="stroke:#181818;stroke-width:1.0;"/></g><!--link User to Status--><g id="link_User_Status"><path codeLine="79" d="M1056.5,553.8494 C1057.68,589.2994 1058.7805,622.4727 1059.7605,651.9327 " fill="none" id="User-to-Status" style="stroke:#181818;stroke-width:1.0;"/><polygon fill="#181818" points="1059.96,657.9294,1063.6586,648.8014,1059.7938,652.9321,1055.663,649.0673,1059.96,657.9294" style="stroke:#181818;stroke-width:1.0;"/></g><!--link BackofficeLoginService to User--><g id="link_BackofficeLoginService_User"><path codeLine="81" d="M690.11,293.6494 C741.8,317.5394 801.2134,345.0025 861.7834,372.9925 " fill="none" id="BackofficeLoginService-to-User" style="stroke:#181818;stroke-width:1.0;"/><polygon fill="#181818" points="867.23,375.5094,860.7381,368.103,862.6912,373.4119,857.3822,375.3651,867.23,375.5094" style="stroke:#181818;stroke-width:1.0;"/></g><!--link BackofficeLoginService to UserDTO--><g id="link_BackofficeLoginService_UserDTO"><path codeLine="82" d="M625.88,293.7794 C653.47,329.7794 687.9606,374.7768 715.5306,410.7568 " fill="none" id="BackofficeLoginService-to-UserDTO" style="stroke:#181818;stroke-width:1.0;"/><polygon fill="#181818" points="719.18,415.5194,716.881,405.9426,716.1389,411.5506,710.5309,410.8084,719.18,415.5194" style="stroke:#181818;stroke-width:1.0;"/></g><!--SRC=[jLHBZzem4BxdL_Z8gaBYr0D2I251QjGjh4ZOkt66rCMn8zjXHLVzxnqx91iUsQrMAWSOptoFiJM3EN1PKKrBKb5se0MazYI0Q62Moa90O3g0-KbpzS9bGVPK60Xw9IQeCQ6rckzg2mbJCkM_WKo2m7ABSf6havZJmg57KVn0ncGRJIPVWy1poGBTrNxF6JogWij8IQkL4A39RCQwmtp-6X3yVF6WKMxLb6mDw3XRFqn9HirX5ZBBbTo0gOMT-PfLytdmPy0e1Nt465rC4ttUmhF2F0_DIRAxH7VijR9IbcCZrAaDzv62pFl8J8LvYPtL26mSMlcTKg8dxqeRg9JXLkaJAklkq8d_GxiUjwroQg61tXfVtIkH5lIUChZfWBUL_zl0MGODSrLIBZitnvIqX8RjeYPV8Uj5wNnAdixHfHWgWSHHFdr6oUU5coRS42WhQwO47wB9uroZnWQ_cxEnrDO8IFrlaskLda5tKp2wDReS0yzS2CKEhi4H5e-ANrtBjOrNEr9H0r6xNxZqTowOubhBuetP-jqmoUlr6xnHGTQbl-QGNnZ_I5PD6A-ZRBrfujLsaowRC5j6trP9b8Hds5EO9SjLrgatJpQe7sN9yrbfyRYElYzZnnpuEnYFv_VMSuhg-306jttu3yjnxylswEyPNwwD8r76m3ZQrKOvzC2sEHelAm4bJgvtRBUYjV13sqzs4-kpjxXBK9VnmzkTpeFxqVq-gcDFmLy0]--></g></svg>