<?xml version="1.0" encoding="us-ascii" standalone="no"?><svg xmlns="http://www.w3.org/2000/svg" xmlns:xlink="http://www.w3.org/1999/xlink" contentStyleType="text/css" height="580px" preserveAspectRatio="none" style="width:1679px;height:580px;background:#FFFFFF;" version="1.1" viewBox="0 0 1679 580" width="1679px" zoomAndPan="magnify"><defs/><g><text fill="#000000" font-family="sans-serif" font-size="14" font-weight="bold" lengthAdjust="spacing" textLength="194" x="735.5" y="24.5332">Domain Model (DM) - UC023</text><!--cluster OperationTypeAggregate--><g id="cluster_OperationTypeAggregate"><rect fill="none" height="355" rx="2.5" ry="2.5" style="stroke:#000000;stroke-width:1.5;" width="923" x="199" y="45.6094"/><text fill="#000000" font-family="sans-serif" font-size="14" font-weight="bold" lengthAdjust="spacing" textLength="176" x="572.5" y="62.1426">OperationTypeAggregate</text></g><!--class OperationType--><g id="elem_OperationType"><rect codeLine="16" fill="#F1F1F1" height="50.7031" id="OperationType" rx="2.5" ry="2.5" style="stroke:#181818;stroke-width:0.5;" width="101" x="215" y="284.1094"/><text fill="#000000" font-family="sans-serif" font-size="12" font-style="italic" lengthAdjust="spacing" textLength="67" x="232" y="301.5664">&#171;root entity&#187;</text><text fill="#000000" font-family="sans-serif" font-size="14" lengthAdjust="spacing" textLength="95" x="218" y="318.7363">OperationType</text><line style="stroke:#181818;stroke-width:0.5;" x1="216" x2="315" y1="326.8125" y2="326.8125"/></g><!--class OperationTypeID--><g id="elem_OperationTypeID"><rect codeLine="17" fill="#F1F1F1" height="50.7031" id="OperationTypeID" rx="2.5" ry="2.5" style="stroke:#181818;stroke-width:0.5;" width="114" x="460" y="247.1094"/><text fill="#000000" font-family="sans-serif" font-size="12" font-style="italic" lengthAdjust="spacing" textLength="81" x="476.5" y="264.5664">&#171;value object&#187;</text><text fill="#000000" font-family="sans-serif" font-size="14" lengthAdjust="spacing" textLength="108" x="463" y="281.7363">OperationTypeID</text><line style="stroke:#181818;stroke-width:0.5;" x1="461" x2="573" y1="289.8125" y2="289.8125"/></g><g id="elem_GMN5"><path d="M832.5,271.6094 L832.5,278.8294 L574.04,274.4294 L832.5,286.8294 L832.5,297.9609 A0,0 0 0 0 832.5,297.9609 L943.5,297.9609 A0,0 0 0 0 943.5,297.9609 L943.5,281.6094 L933.5,271.6094 L832.5,271.6094 A0,0 0 0 0 832.5,271.6094 " fill="#FEFFDD" style="stroke:#181818;stroke-width:0.5;"/><path d="M933.5,271.6094 L933.5,281.6094 L943.5,281.6094 L933.5,271.6094 " fill="#FEFFDD" style="stroke:#181818;stroke-width:0.5;"/><text fill="#000000" font-family="sans-serif" font-size="13" lengthAdjust="spacing" textLength="90" x="838.5" y="290.1045">unique identifier</text></g><!--class RequiredStaff--><g id="elem_RequiredStaff"><rect codeLine="19" fill="#F1F1F1" height="50.7031" id="RequiredStaff" rx="2.5" ry="2.5" style="stroke:#181818;stroke-width:0.5;" width="93" x="470.5" y="333.1094"/><text fill="#000000" font-family="sans-serif" font-size="12" font-style="italic" lengthAdjust="spacing" textLength="81" x="476.5" y="350.5664">&#171;value object&#187;</text><text fill="#000000" font-family="sans-serif" font-size="14" lengthAdjust="spacing" textLength="87" x="473.5" y="367.7363">RequiredStaff</text><line style="stroke:#181818;stroke-width:0.5;" x1="471.5" x2="562.5" y1="375.8125" y2="375.8125"/></g><!--class Quantity--><g id="elem_Quantity"><rect codeLine="20" fill="#F1F1F1" height="50.7031" id="Quantity" rx="2.5" ry="2.5" style="stroke:#181818;stroke-width:0.5;" width="83" x="846.5" y="333.1094"/><text fill="#000000" font-family="sans-serif" font-size="12" font-style="italic" lengthAdjust="spacing" textLength="81" x="847.5" y="350.5664">&#171;value object&#187;</text><text fill="#000000" font-family="sans-serif" font-size="14" lengthAdjust="spacing" textLength="53" x="861.5" y="367.7363">Quantity</text><line style="stroke:#181818;stroke-width:0.5;" x1="847.5" x2="928.5" y1="375.8125" y2="375.8125"/></g><!--class PhaseDetails--><g id="elem_PhaseDetails"><rect codeLine="21" fill="#F1F1F1" height="50.7031" id="PhaseDetails" rx="2.5" ry="2.5" style="stroke:#181818;stroke-width:0.5;" width="89" x="472.5" y="161.1094"/><text fill="#000000" font-family="sans-serif" font-size="12" font-style="italic" lengthAdjust="spacing" textLength="81" x="476.5" y="178.5664">&#171;value object&#187;</text><text fill="#000000" font-family="sans-serif" font-size="14" lengthAdjust="spacing" textLength="83" x="475.5" y="195.7363">PhaseDetails</text><line style="stroke:#181818;stroke-width:0.5;" x1="473.5" x2="560.5" y1="203.8125" y2="203.8125"/></g><!--class Phase--><g id="elem_Phase"><rect codeLine="22" fill="#F1F1F1" height="68.3125" id="Phase" rx="2.5" ry="2.5" style="stroke:#181818;stroke-width:0.5;" width="436" x="670" y="168.6094"/><text fill="#000000" font-family="sans-serif" font-size="12" font-style="italic" lengthAdjust="spacing" textLength="81" x="847.5" y="186.0664">&#171;value object&#187;</text><text fill="#000000" font-family="sans-serif" font-size="14" lengthAdjust="spacing" textLength="40" x="868" y="203.2363">Phase</text><line style="stroke:#181818;stroke-width:0.5;" x1="671" x2="1105" y1="211.3125" y2="211.3125"/><text fill="#000000" font-family="sans-serif" font-size="14" lengthAdjust="spacing" textLength="424" x="676" y="229.8457">ANAESTHESIA_PREPARATION, SURGERY_PROCESS, CLEANING</text></g><!--class Duration--><g id="elem_Duration"><rect codeLine="25" fill="#F1F1F1" height="50.7031" id="Duration" rx="2.5" ry="2.5" style="stroke:#181818;stroke-width:0.5;" width="83" x="846.5" y="82.1094"/><text fill="#000000" font-family="sans-serif" font-size="12" font-style="italic" lengthAdjust="spacing" textLength="81" x="847.5" y="99.5664">&#171;value object&#187;</text><text fill="#000000" font-family="sans-serif" font-size="14" lengthAdjust="spacing" textLength="54" x="861" y="116.7363">Duration</text><line style="stroke:#181818;stroke-width:0.5;" x1="847.5" x2="928.5" y1="124.8125" y2="124.8125"/></g><!--class Admin--><g id="elem_Admin"><rect codeLine="28" fill="#F1F1F1" height="50.7031" id="Admin" rx="2.5" ry="2.5" style="stroke:#181818;stroke-width:0.5;" width="107" x="7" y="284.1094"/><text fill="#000000" font-family="sans-serif" font-size="12" font-style="italic" lengthAdjust="spacing" textLength="105" x="8" y="301.5664">&#171;conceptual class&#187;</text><text fill="#000000" font-family="sans-serif" font-size="14" lengthAdjust="spacing" textLength="39" x="41" y="318.7363">Admin</text><line style="stroke:#181818;stroke-width:0.5;" x1="8" x2="113" y1="326.8125" y2="326.8125"/></g><!--class Name--><g id="elem_Name"><rect codeLine="29" fill="#F1F1F1" height="50.7031" id="Name" rx="2.5" ry="2.5" style="stroke:#181818;stroke-width:0.5;" width="83" x="475.5" y="419.1094"/><text fill="#000000" font-family="sans-serif" font-size="12" font-style="italic" lengthAdjust="spacing" textLength="81" x="476.5" y="436.5664">&#171;value object&#187;</text><text fill="#000000" font-family="sans-serif" font-size="14" lengthAdjust="spacing" textLength="36" x="499" y="453.7363">Name</text><line style="stroke:#181818;stroke-width:0.5;" x1="476.5" x2="557.5" y1="461.8125" y2="461.8125"/></g><!--class Specialization--><g id="elem_Specialization"><rect codeLine="30" fill="#F1F1F1" height="50.7031" id="Specialization" rx="2.5" ry="2.5" style="stroke:#181818;stroke-width:0.5;" width="92" x="842" y="419.1094"/><text fill="#000000" font-family="sans-serif" font-size="12" font-style="italic" lengthAdjust="spacing" textLength="81" x="847.5" y="436.5664">&#171;value object&#187;</text><text fill="#000000" font-family="sans-serif" font-size="14" lengthAdjust="spacing" textLength="86" x="845" y="453.7363">Specialization</text><line style="stroke:#181818;stroke-width:0.5;" x1="843" x2="933" y1="461.8125" y2="461.8125"/></g><!--class Role--><g id="elem_Role"><rect codeLine="31" fill="#F1F1F1" height="68.3125" id="Role" rx="2.5" ry="2.5" style="stroke:#181818;stroke-width:0.5;" width="330" x="723" y="505.6094"/><text fill="#000000" font-family="sans-serif" font-size="12" font-style="italic" lengthAdjust="spacing" textLength="81" x="847.5" y="523.0664">&#171;value object&#187;</text><text fill="#000000" font-family="sans-serif" font-size="14" lengthAdjust="spacing" textLength="29" x="873.5" y="540.2363">Role</text><line style="stroke:#181818;stroke-width:0.5;" x1="724" x2="1052" y1="548.3125" y2="548.3125"/><text fill="#000000" font-family="sans-serif" font-size="14" lengthAdjust="spacing" textLength="318" x="729" y="566.8457">ADMIN, DOCTOR, NURSE, TECHNICIAN, PATIENT</text></g><g id="elem_GMN17"><path d="M1169,526.6094 L1169,535.6094 L1053.22,539.6094 L1169,543.6094 L1169,552.9609 A0,0 0 0 0 1169,552.9609 L1672,552.9609 A0,0 0 0 0 1672,552.9609 L1672,536.6094 L1662,526.6094 L1169,526.6094 A0,0 0 0 0 1169,526.6094 " fill="#FEFFDD" style="stroke:#181818;stroke-width:0.5;"/><path d="M1662,526.6094 L1662,536.6094 L1672,536.6094 L1662,526.6094 " fill="#FEFFDD" style="stroke:#181818;stroke-width:0.5;"/><text fill="#000000" font-family="sans-serif" font-size="13" lengthAdjust="spacing" textLength="482" x="1175" y="545.1045">in this Use Case, only Staff roles are considered (DOCTOR, NURSE, TECHNICIAN)</text></g><!--link Admin to OperationType--><g id="link_Admin_OperationType"><path codeLine="36" d="M114.04,309.6094 C145.17,309.6094 184.38,309.6094 214.97,309.6094 " fill="none" id="Admin-OperationType" style="stroke:#181818;stroke-width:1.0;"/><polygon fill="#000000" points="154,300.7852,144.9549,297.8462,144.9549,303.7241,154,300.7852" style="stroke:#000000;stroke-width:1.0;"/><text fill="#000000" font-family="sans-serif" font-size="13" lengthAdjust="spacing" textLength="24" x="158" y="306.1045">lists</text><text fill="#000000" font-family="sans-serif" font-size="13" lengthAdjust="spacing" textLength="7" x="122.0613" y="324.2751">1</text><text fill="#000000" font-family="sans-serif" font-size="13" lengthAdjust="spacing" textLength="5" x="201.8498" y="324.3791">*</text></g><!--link OperationType to OperationTypeID--><g id="link_OperationType_OperationTypeID"><path codeLine="38" d="M316.09,302.2594 C357.59,296.0994 416.77,287.3194 459.98,280.9194 " fill="none" id="OperationType-OperationTypeID" style="stroke:#181818;stroke-width:1.0;"/><polygon fill="#000000" points="355.9459,277.0516,346.5675,275.4715,347.4298,281.2857,355.9459,277.0516" style="stroke:#000000;stroke-width:1.0;"/><text fill="#000000" font-family="sans-serif" font-size="13" lengthAdjust="spacing" textLength="69" x="360" y="283.1045">identified by</text><text fill="#000000" font-family="sans-serif" font-size="13" lengthAdjust="spacing" textLength="7" x="324.0345" y="315.8976">1</text><text fill="#000000" font-family="sans-serif" font-size="13" lengthAdjust="spacing" textLength="7" x="444.8476" y="296.6497">1</text></g><!--link OperationType to Name--><g id="link_OperationType_Name"><path codeLine="39" d="M298.35,335.1594 C312.49,345.8894 329.62,358.0594 346,367.6094 C388.41,392.3294 440.16,414.7594 475.34,428.9494 " fill="none" id="OperationType-Name" style="stroke:#181818;stroke-width:1.0;"/><polygon fill="#000000" points="379.418,361.1263,372.8019,354.2943,370.0496,359.4879,379.418,361.1263" style="stroke:#000000;stroke-width:1.0;"/><text fill="#000000" font-family="sans-serif" font-size="13" lengthAdjust="spacing" textLength="21" x="384" y="364.1045">has</text><text fill="#000000" font-family="sans-serif" font-size="13" lengthAdjust="spacing" textLength="7" x="298.1372" y="356.4879">1</text><text fill="#000000" font-family="sans-serif" font-size="13" lengthAdjust="spacing" textLength="7" x="460.5781" y="441.1837">1</text></g><!--link OperationType to RequiredStaff--><g id="link_OperationType_RequiredStaff"><path codeLine="40" d="M316.09,319.3494 C361,328.1694 426.62,341.0594 470.29,349.6294 " fill="none" id="OperationType-RequiredStaff" style="stroke:#181818;stroke-width:1.0;"/><polygon fill="#000000" points="372.9063,317.7486,364.597,313.1219,363.4644,318.8896,372.9063,317.7486" style="stroke:#000000;stroke-width:1.0;"/><text fill="#000000" font-family="sans-serif" font-size="13" lengthAdjust="spacing" textLength="35" x="377" y="322.1045">needs</text><text fill="#000000" font-family="sans-serif" font-size="13" lengthAdjust="spacing" textLength="7" x="324.0345" y="335.4977">1</text><text fill="#000000" font-family="sans-serif" font-size="13" lengthAdjust="spacing" textLength="7" x="455.6016" y="363.0241">1</text></g><!--link OperationType to PhaseDetails--><g id="link_OperationType_PhaseDetails"><path codeLine="41" d="M305.49,284.0594 C318.19,276.1494 332.49,267.6694 346,260.6094 C387.8,238.7694 437.43,217.6994 472.24,203.6594 " fill="none" id="OperationType-PhaseDetails" style="stroke:#181818;stroke-width:1.0;"/><polygon fill="#000000" points="379.5038,211.6136,370.0799,212.8947,372.6327,218.1893,379.5038,211.6136" style="stroke:#000000;stroke-width:1.0;"/><text fill="#000000" font-family="sans-serif" font-size="13" lengthAdjust="spacing" textLength="21" x="384" y="219.1045">has</text><text fill="#000000" font-family="sans-serif" font-size="13" lengthAdjust="spacing" textLength="7" x="307.3844" y="273.4557">1</text><text fill="#000000" font-family="sans-serif" font-size="13" lengthAdjust="spacing" textLength="20" x="444.5394" y="220.7227">1..*</text></g><!--link RequiredStaff to Role--><g id="link_RequiredStaff_Role"><path codeLine="42" d="M552.08,384.1294 C559.4,389.7794 567.02,395.8194 574,401.6094 C618.08,438.1894 619.27,461.0094 670,487.6094 C686.56,496.2894 704.58,503.5394 722.93,509.5994 " fill="none" id="RequiredStaff-Role" style="stroke:#181818;stroke-width:1.0;"/><polygon fill="#000000" points="613.03,424.7447,607.4793,417.022,604.0001,421.7596,613.03,424.7447" style="stroke:#000000;stroke-width:1.0;"/><text fill="#000000" font-family="sans-serif" font-size="13" lengthAdjust="spacing" textLength="21" x="618" y="427.1045">has</text><text fill="#000000" font-family="sans-serif" font-size="13" lengthAdjust="spacing" textLength="5" x="554.6141" y="405.451">*</text><text fill="#000000" font-family="sans-serif" font-size="13" lengthAdjust="spacing" textLength="7" x="707.7649" y="522.0293">1</text></g><!--link RequiredStaff to Specialization--><g id="link_RequiredStaff_Specialization"><path codeLine="43" d="M563.83,372.9794 C576.78,376.8994 590.91,381.0494 604,384.6094 C686.87,407.1594 785.3,426.3594 841.53,436.6194 " fill="none" id="RequiredStaff-Specialization" style="stroke:#181818;stroke-width:1.0;"/><polygon fill="#000000" points="613.8737,376.902,605.7136,372.0169,604.4006,377.7462,613.8737,376.902" style="stroke:#000000;stroke-width:1.0;"/><text fill="#000000" font-family="sans-serif" font-size="13" lengthAdjust="spacing" textLength="21" x="618" y="381.1045">has</text><text fill="#000000" font-family="sans-serif" font-size="13" lengthAdjust="spacing" textLength="5" x="571.3837" y="389.9495">*</text><text fill="#000000" font-family="sans-serif" font-size="13" lengthAdjust="spacing" textLength="7" x="826.8783" y="450.1657">1</text></g><!--link RequiredStaff to Quantity--><g id="link_RequiredStaff_Quantity"><path codeLine="44" d="M563.62,358.6094 C636.22,358.6094 776.91,358.6094 846.29,358.6094 " fill="none" id="RequiredStaff-Quantity" style="stroke:#181818;stroke-width:1.0;"/><polygon fill="#000000" points="614,349.7852,604.9549,346.8462,604.9549,352.7241,614,349.7852" style="stroke:#000000;stroke-width:1.0;"/><text fill="#000000" font-family="sans-serif" font-size="13" lengthAdjust="spacing" textLength="21" x="618" y="355.1045">has</text><text fill="#000000" font-family="sans-serif" font-size="13" lengthAdjust="spacing" textLength="7" x="571.6079" y="354.8812">1</text><text fill="#000000" font-family="sans-serif" font-size="13" lengthAdjust="spacing" textLength="7" x="831.5195" y="373.5352">1</text></g><!--link PhaseDetails to Phase--><g id="link_PhaseDetails_Phase"><path codeLine="45" d="M561.78,188.5094 C589.84,189.7294 628.6,191.4094 669.6,193.1794 " fill="none" id="PhaseDetails-Phase" style="stroke:#181818;stroke-width:1.0;"/><polygon fill="#000000" points="613.9953,182.0015,605.0859,178.6739,604.8315,184.5463,613.9953,182.0015" style="stroke:#000000;stroke-width:1.0;"/><text fill="#000000" font-family="sans-serif" font-size="13" lengthAdjust="spacing" textLength="21" x="618" y="187.1045">has</text><text fill="#000000" font-family="sans-serif" font-size="13" lengthAdjust="spacing" textLength="7" x="569.4746" y="203.634">1</text><text fill="#000000" font-family="sans-serif" font-size="13" lengthAdjust="spacing" textLength="7" x="655.3189" y="206.6282">1</text></g><!--link PhaseDetails to Duration--><g id="link_PhaseDetails_Duration"><path codeLine="46" d="M561.66,175.0694 C575.2,171.5894 590.19,167.8394 604,164.6094 C689.65,144.5794 790.87,125.2194 846.06,115.0294 " fill="none" id="PhaseDetails-Duration" style="stroke:#181818;stroke-width:1.0;"/><polygon fill="#000000" points="613.8922,148.7524,604.4351,147.7452,605.6492,153.4962,613.8922,148.7524" style="stroke:#000000;stroke-width:1.0;"/><text fill="#000000" font-family="sans-serif" font-size="13" lengthAdjust="spacing" textLength="21" x="618" y="155.1045">has</text><text fill="#000000" font-family="sans-serif" font-size="13" lengthAdjust="spacing" textLength="7" x="569.6365" y="169.3819">1</text><text fill="#000000" font-family="sans-serif" font-size="13" lengthAdjust="spacing" textLength="7" x="831.534" y="131.1321">1</text></g><!--SRC=[XPF1Rfj048Rl-nGZJarbHqbxio9B2522L6CNy26dQWq3RBDc2RkqSggyUmU37MENcXDYlfdvP-P7luYouZNVGiMJ5vvZP7OIeSR4y3ANoFGHq0LFrMzHvf1ngP6TX1B9jRQDgSMcCUWdgep46y8TOqPLO1Hib35g2wbe2mjLCecPQGEro0jpyfqL8aL8H9rGx_tx5asXKasbX25bhjfoKS92fIZXaxkuWIcidRilNndh9m1hMM7DstBnha8xpslCkK4B_Z2WPoyM1WmyFDHA6S2Ickpcyp7ETudynMM3e3O_INAFbifWFuhApbDcq9JYbL9e6ggV2QnFweVusj3qQMHublsxUWT-R_XUtV-OLS4rkcYuaFegTm7q-saVEx2zA7xo8j_-iGgzbHtQiRyC9X2jmqSlVAQFIyUBeWautpmxy8F7VUhxIG-twPPmgUETiGwnqwreu-IN12lJSDdb4jC10TzUoknZKOM9u5AyZNJfrwlawA2sk_1f97VfnCjm0i4wZBm9n9xp5FYERrDeHLDxGKoAXnTkgyw0j9j2Q5ZJBXrQw0HKANVGNR8cH0EloSogr7HwkZ7vTQpN3MFTDgnx2wPJi3vRPnQTWHJQQ9WpDWmSCkwj2xFEOFxXkXGsk_7K_QfRdgmnJWtTsk8bOZgQS7jBOmnCUUWmBDHEU-ZG7kmgTNRy4Vv3z_7dEP03KITWzsTSeuxUFe1_0G00]--></g></svg>