<?xml version="1.0" encoding="us-ascii" standalone="no"?><svg xmlns="http://www.w3.org/2000/svg" xmlns:xlink="http://www.w3.org/1999/xlink" contentStyleType="text/css" height="1333px" preserveAspectRatio="none" style="width:695px;height:1333px;background:#FFFFFF;" version="1.1" viewBox="0 0 695 1333" width="695px" zoomAndPan="magnify"><defs/><g><text fill="#000000" font-family="sans-serif" font-size="14" font-weight="bold" lengthAdjust="spacing" textLength="285" x="206" y="29.5332">System Sequence Diagram (SSD) - UC019</text><rect fill="#FFFFFF" height="1102.2422" style="stroke:#181818;stroke-width:1.0;" width="10" x="39" y="131.2188"/><rect fill="#FFFFFF" height="74.2305" style="stroke:#181818;stroke-width:1.0;" width="10" x="318" y="153.5703"/><rect fill="#FFFFFF" height="592.6055" style="stroke:#181818;stroke-width:1.0;" width="10" x="318" y="327.3828"/><rect fill="#FFFFFF" height="28" style="stroke:#181818;stroke-width:1.0;" width="10" x="323" y="382.0859"/><rect fill="#FFFFFF" height="28" style="stroke:#181818;stroke-width:1.0;" width="10" x="323" y="517.9766"/><rect fill="#FFFFFF" height="28" style="stroke:#181818;stroke-width:1.0;" width="10" x="323" y="653.8672"/><rect fill="#FFFFFF" height="28" style="stroke:#181818;stroke-width:1.0;" width="10" x="323" y="789.7578"/><rect fill="#FFFFFF" height="230.2422" style="stroke:#181818;stroke-width:1.0;" width="10" x="318" y="1003.2188"/><rect fill="#FFFFFF" height="28" style="stroke:#181818;stroke-width:1.0;" width="10" x="323" y="1041.5703"/><rect fill="#FFFFFF" height="28" style="stroke:#181818;stroke-width:1.0;" width="10" x="323" y="1161.1094"/><rect fill="none" height="546.0781" style="stroke:#000000;stroke-width:1.5;" width="505" x="10" y="286.6797"/><rect fill="none" height="241.5938" style="stroke:#000000;stroke-width:1.5;" width="678" x="10" y="962.5156"/><line style="stroke:#181818;stroke-width:0.5;stroke-dasharray:5.0,5.0;" x1="44" x2="44" y1="121.2188" y2="1251.4609"/><line style="stroke:#181818;stroke-width:0.5;stroke-dasharray:5.0,5.0;" x1="323" x2="323" y1="121.2188" y2="1251.4609"/><text fill="#000000" font-family="sans-serif" font-size="14" lengthAdjust="spacing" textLength="42" x="20" y="118.1426">Doctor</text><ellipse cx="44" cy="52.1094" fill="#E3E3E3" rx="8" ry="8" style="stroke:#181818;stroke-width:0.5;"/><path d="M44,60.1094 L44,87.1094 M31,68.1094 L57,68.1094 M44,87.1094 L31,102.1094 M44,87.1094 L57,102.1094 " fill="none" style="stroke:#181818;stroke-width:0.5;"/><text fill="#000000" font-family="sans-serif" font-size="14" lengthAdjust="spacing" textLength="42" x="20" y="1264.9941">Doctor</text><ellipse cx="44" cy="1276.5703" fill="#E3E3E3" rx="8" ry="8" style="stroke:#181818;stroke-width:0.5;"/><path d="M44,1284.5703 L44,1311.5703 M31,1292.5703 L57,1292.5703 M44,1311.5703 L31,1326.5703 M44,1311.5703 L57,1326.5703 " fill="none" style="stroke:#181818;stroke-width:0.5;"/><rect fill="#E3E3E3" height="31.6094" rx="2.5" ry="2.5" style="stroke:#181818;stroke-width:0.5;" width="64" x="291" y="88.6094"/><text fill="#000000" font-family="sans-serif" font-size="14" lengthAdjust="spacing" textLength="50" x="298" y="110.1426">:System</text><rect fill="#E3E3E3" height="31.6094" rx="2.5" ry="2.5" style="stroke:#181818;stroke-width:0.5;" width="64" x="291" y="1250.4609"/><text fill="#000000" font-family="sans-serif" font-size="14" lengthAdjust="spacing" textLength="50" x="298" y="1271.9941">:System</text><rect fill="#FFFFFF" height="1102.2422" style="stroke:#181818;stroke-width:1.0;" width="10" x="39" y="131.2188"/><rect fill="#FFFFFF" height="74.2305" style="stroke:#181818;stroke-width:1.0;" width="10" x="318" y="153.5703"/><rect fill="#FFFFFF" height="592.6055" style="stroke:#181818;stroke-width:1.0;" width="10" x="318" y="327.3828"/><rect fill="#FFFFFF" height="28" style="stroke:#181818;stroke-width:1.0;" width="10" x="323" y="382.0859"/><rect fill="#FFFFFF" height="28" style="stroke:#181818;stroke-width:1.0;" width="10" x="323" y="517.9766"/><rect fill="#FFFFFF" height="28" style="stroke:#181818;stroke-width:1.0;" width="10" x="323" y="653.8672"/><rect fill="#FFFFFF" height="28" style="stroke:#181818;stroke-width:1.0;" width="10" x="323" y="789.7578"/><rect fill="#FFFFFF" height="230.2422" style="stroke:#181818;stroke-width:1.0;" width="10" x="318" y="1003.2188"/><rect fill="#FFFFFF" height="28" style="stroke:#181818;stroke-width:1.0;" width="10" x="323" y="1041.5703"/><rect fill="#FFFFFF" height="28" style="stroke:#181818;stroke-width:1.0;" width="10" x="323" y="1161.1094"/><polygon fill="#181818" points="306,149.5703,316,153.5703,306,157.5703,310,153.5703" style="stroke:#181818;stroke-width:1.0;"/><line style="stroke:#181818;stroke-width:1.0;" x1="49" x2="312" y1="153.5703" y2="153.5703"/><text fill="#000000" font-family="sans-serif" font-size="13" lengthAdjust="spacing" textLength="250" x="56" y="148.7139">Requests to search for Operation Requests</text><polygon fill="#181818" points="60,223.8008,50,227.8008,60,231.8008,56,227.8008" style="stroke:#181818;stroke-width:1.0;"/><line style="stroke:#181818;stroke-width:1.0;stroke-dasharray:2.0,2.0;" x1="54" x2="322" y1="227.8008" y2="227.8008"/><text fill="#000000" font-family="sans-serif" font-size="13" lengthAdjust="spacing" textLength="89" x="66" y="222.9443">Display options</text><path d="M333,166.5703 L333,274.5703 L440,274.5703 L440,176.5703 L430,166.5703 L333,166.5703 " fill="#FAFAFA" style="stroke:#181818;stroke-width:0.5;"/><path d="M430,166.5703 L430,176.5703 L440,176.5703 L430,166.5703 " fill="#FAFAFA" style="stroke:#181818;stroke-width:0.5;"/><text fill="#000000" font-family="sans-serif" font-size="13" lengthAdjust="spacing" textLength="62" x="339" y="185.0654">options = {</text><text fill="#000000" font-family="sans-serif" font-size="13" lengthAdjust="spacing" textLength="79" x="339" y="201.417">-patient name</text><text fill="#000000" font-family="sans-serif" font-size="13" lengthAdjust="spacing" textLength="86" x="339" y="217.7686">-operation type</text><text fill="#000000" font-family="sans-serif" font-size="13" lengthAdjust="spacing" textLength="43" x="339" y="234.1201">-priority</text><text fill="#000000" font-family="sans-serif" font-size="13" lengthAdjust="spacing" textLength="40" x="339" y="250.4717">-status</text><text fill="#000000" font-family="sans-serif" font-size="13" lengthAdjust="spacing" textLength="4" x="339" y="266.8232">}</text><path d="M10,286.6797 L71,286.6797 L71,295.0313 L61,305.0313 L10,305.0313 L10,286.6797 " fill="#EEEEEE" style="stroke:#000000;stroke-width:1.5;"/><rect fill="none" height="546.0781" style="stroke:#000000;stroke-width:1.5;" width="505" x="10" y="286.6797"/><text fill="#000000" font-family="sans-serif" font-size="13" font-weight="bold" lengthAdjust="spacing" textLength="16" x="25" y="301.1748">alt</text><text fill="#000000" font-family="sans-serif" font-size="11" font-weight="bold" lengthAdjust="spacing" textLength="133" x="86" y="300.0986">[option = 'patient name']</text><polygon fill="#181818" points="306,323.3828,316,327.3828,306,331.3828,310,327.3828" style="stroke:#181818;stroke-width:1.0;"/><line style="stroke:#181818;stroke-width:1.0;" x1="49" x2="312" y1="327.3828" y2="327.3828"/><text fill="#000000" font-family="sans-serif" font-size="13" lengthAdjust="spacing" textLength="127" x="56" y="322.5264">Selects 'patient name'</text><line style="stroke:#181818;stroke-width:1.0;" x1="333" x2="375" y1="374.0859" y2="374.0859"/><line style="stroke:#181818;stroke-width:1.0;" x1="375" x2="375" y1="374.0859" y2="387.0859"/><line style="stroke:#181818;stroke-width:1.0;" x1="334" x2="375" y1="387.0859" y2="387.0859"/><polygon fill="#181818" points="344,383.0859,334,387.0859,344,391.0859,340,387.0859" style="stroke:#181818;stroke-width:1.0;"/><text fill="#000000" font-family="sans-serif" font-size="13" lengthAdjust="spacing" textLength="163" x="340" y="352.8779">obtais all operation requests</text><text fill="#000000" font-family="sans-serif" font-size="13" lengthAdjust="spacing" textLength="79" x="340" y="369.2295">for the patient</text><line style="stroke:#000000;stroke-width:1.0;stroke-dasharray:2.0,2.0;" x1="10" x2="515" y1="426.0859" y2="426.0859"/><text fill="#000000" font-family="sans-serif" font-size="11" font-weight="bold" lengthAdjust="spacing" textLength="141" x="15" y="437.5049">[option = 'operation type']</text><polygon fill="#181818" points="306,459.2734,316,463.2734,306,467.2734,310,463.2734" style="stroke:#181818;stroke-width:1.0;"/><line style="stroke:#181818;stroke-width:1.0;" x1="49" x2="312" y1="463.2734" y2="463.2734"/><text fill="#000000" font-family="sans-serif" font-size="13" lengthAdjust="spacing" textLength="134" x="56" y="458.417">Selects 'operation type'</text><line style="stroke:#181818;stroke-width:1.0;" x1="333" x2="375" y1="509.9766" y2="509.9766"/><line style="stroke:#181818;stroke-width:1.0;" x1="375" x2="375" y1="509.9766" y2="522.9766"/><line style="stroke:#181818;stroke-width:1.0;" x1="334" x2="375" y1="522.9766" y2="522.9766"/><polygon fill="#181818" points="344,518.9766,334,522.9766,344,526.9766,340,522.9766" style="stroke:#181818;stroke-width:1.0;"/><text fill="#000000" font-family="sans-serif" font-size="13" lengthAdjust="spacing" textLength="163" x="340" y="488.7686">obtais all operation requests</text><text fill="#000000" font-family="sans-serif" font-size="13" lengthAdjust="spacing" textLength="122" x="340" y="505.1201">for the operation type</text><line style="stroke:#000000;stroke-width:1.0;stroke-dasharray:2.0,2.0;" x1="10" x2="515" y1="561.9766" y2="561.9766"/><text fill="#000000" font-family="sans-serif" font-size="11" font-weight="bold" lengthAdjust="spacing" textLength="101" x="15" y="573.3955">[option = 'priority']</text><polygon fill="#181818" points="306,595.1641,316,599.1641,306,603.1641,310,599.1641" style="stroke:#181818;stroke-width:1.0;"/><line style="stroke:#181818;stroke-width:1.0;" x1="49" x2="312" y1="599.1641" y2="599.1641"/><text fill="#000000" font-family="sans-serif" font-size="13" lengthAdjust="spacing" textLength="91" x="56" y="594.3076">Selects 'priority'</text><line style="stroke:#181818;stroke-width:1.0;" x1="333" x2="375" y1="645.8672" y2="645.8672"/><line style="stroke:#181818;stroke-width:1.0;" x1="375" x2="375" y1="645.8672" y2="658.8672"/><line style="stroke:#181818;stroke-width:1.0;" x1="334" x2="375" y1="658.8672" y2="658.8672"/><polygon fill="#181818" points="344,654.8672,334,658.8672,344,662.8672,340,658.8672" style="stroke:#181818;stroke-width:1.0;"/><text fill="#000000" font-family="sans-serif" font-size="13" lengthAdjust="spacing" textLength="163" x="340" y="624.6592">obtais all operation requests</text><text fill="#000000" font-family="sans-serif" font-size="13" lengthAdjust="spacing" textLength="79" x="340" y="641.0107">for the priority</text><line style="stroke:#000000;stroke-width:1.0;stroke-dasharray:2.0,2.0;" x1="10" x2="515" y1="697.8672" y2="697.8672"/><text fill="#000000" font-family="sans-serif" font-size="11" font-weight="bold" lengthAdjust="spacing" textLength="96" x="15" y="709.2861">[option = 'status']</text><polygon fill="#181818" points="306,731.0547,316,735.0547,306,739.0547,310,735.0547" style="stroke:#181818;stroke-width:1.0;"/><line style="stroke:#181818;stroke-width:1.0;" x1="49" x2="312" y1="735.0547" y2="735.0547"/><text fill="#000000" font-family="sans-serif" font-size="13" lengthAdjust="spacing" textLength="88" x="56" y="730.1982">Selects 'status'</text><line style="stroke:#181818;stroke-width:1.0;" x1="333" x2="375" y1="781.7578" y2="781.7578"/><line style="stroke:#181818;stroke-width:1.0;" x1="375" x2="375" y1="781.7578" y2="794.7578"/><line style="stroke:#181818;stroke-width:1.0;" x1="334" x2="375" y1="794.7578" y2="794.7578"/><polygon fill="#181818" points="344,790.7578,334,794.7578,344,798.7578,340,794.7578" style="stroke:#181818;stroke-width:1.0;"/><text fill="#000000" font-family="sans-serif" font-size="13" lengthAdjust="spacing" textLength="163" x="340" y="760.5498">obtais all operation requests</text><text fill="#000000" font-family="sans-serif" font-size="13" lengthAdjust="spacing" textLength="76" x="340" y="776.9014">for the status</text><polygon fill="#181818" points="60,858.1094,50,862.1094,60,866.1094,56,862.1094" style="stroke:#181818;stroke-width:1.0;"/><line style="stroke:#181818;stroke-width:1.0;stroke-dasharray:2.0,2.0;" x1="54" x2="317" y1="862.1094" y2="862.1094"/><text fill="#000000" font-family="sans-serif" font-size="13" lengthAdjust="spacing" textLength="154" x="66" y="857.2529">Display operation requests</text><polygon fill="#181818" points="60,915.9883,50,919.9883,60,923.9883,56,919.9883" style="stroke:#181818;stroke-width:1.0;"/><line style="stroke:#181818;stroke-width:1.0;" x1="54" x2="322" y1="919.9883" y2="919.9883"/><text fill="#000000" font-family="sans-serif" font-size="13" lengthAdjust="spacing" textLength="96" x="66" y="915.1318">Displays options</text><path d="M333,875.1094 L333,950.1094 L416,950.1094 L416,885.1094 L406,875.1094 L333,875.1094 " fill="#FAFAFA" style="stroke:#181818;stroke-width:0.5;"/><path d="M406,875.1094 L406,885.1094 L416,885.1094 L406,875.1094 " fill="#FAFAFA" style="stroke:#181818;stroke-width:0.5;"/><text fill="#000000" font-family="sans-serif" font-size="13" lengthAdjust="spacing" textLength="62" x="339" y="893.6045">options = {</text><text fill="#000000" font-family="sans-serif" font-size="13" lengthAdjust="spacing" textLength="43" x="339" y="909.9561">-update</text><text fill="#000000" font-family="sans-serif" font-size="13" lengthAdjust="spacing" textLength="39" x="339" y="926.3076">-delete</text><text fill="#000000" font-family="sans-serif" font-size="13" lengthAdjust="spacing" textLength="4" x="339" y="942.6592">}</text><path d="M10,962.5156 L71,962.5156 L71,970.8672 L61,980.8672 L10,980.8672 L10,962.5156 " fill="#EEEEEE" style="stroke:#000000;stroke-width:1.5;"/><rect fill="none" height="241.5938" style="stroke:#000000;stroke-width:1.5;" width="678" x="10" y="962.5156"/><text fill="#000000" font-family="sans-serif" font-size="13" font-weight="bold" lengthAdjust="spacing" textLength="16" x="25" y="977.0107">alt</text><text fill="#000000" font-family="sans-serif" font-size="11" font-weight="bold" lengthAdjust="spacing" textLength="99" x="86" y="975.9346">[option = 'update']</text><polygon fill="#181818" points="306,999.2188,316,1003.2188,306,1007.2188,310,1003.2188" style="stroke:#181818;stroke-width:1.0;"/><line style="stroke:#181818;stroke-width:1.0;" x1="49" x2="312" y1="1003.2188" y2="1003.2188"/><text fill="#000000" font-family="sans-serif" font-size="13" lengthAdjust="spacing" textLength="91" x="56" y="998.3623">Selects 'update'</text><line style="stroke:#181818;stroke-width:1.0;" x1="333" x2="375" y1="1033.5703" y2="1033.5703"/><line style="stroke:#181818;stroke-width:1.0;" x1="375" x2="375" y1="1033.5703" y2="1046.5703"/><line style="stroke:#181818;stroke-width:1.0;" x1="334" x2="375" y1="1046.5703" y2="1046.5703"/><polygon fill="#181818" points="344,1042.5703,334,1046.5703,344,1050.5703,340,1046.5703" style="stroke:#181818;stroke-width:1.0;"/><text fill="#000000" font-family="sans-serif" font-size="13" lengthAdjust="spacing" textLength="167" x="340" y="1028.7139">Update the operation request</text><path d="M519,1019.7188 L519,1045.7188 L668,1045.7188 L668,1029.7188 L658,1019.7188 L519,1019.7188 " fill="#FAFAFA" style="stroke:#181818;stroke-width:0.5;"/><path d="M658,1019.7188 L658,1029.7188 L668,1029.7188 L658,1019.7188 " fill="#FAFAFA" style="stroke:#181818;stroke-width:0.5;"/><text fill="#000000" font-family="sans-serif" font-size="13" lengthAdjust="spacing" textLength="128" x="525" y="1038.2139">documented in UC017</text><line style="stroke:#000000;stroke-width:1.0;stroke-dasharray:2.0,2.0;" x1="10" x2="688" y1="1085.5703" y2="1085.5703"/><text fill="#000000" font-family="sans-serif" font-size="11" font-weight="bold" lengthAdjust="spacing" textLength="96" x="15" y="1096.9893">[option = 'delete']</text><polygon fill="#181818" points="306,1118.7578,316,1122.7578,306,1126.7578,310,1122.7578" style="stroke:#181818;stroke-width:1.0;"/><line style="stroke:#181818;stroke-width:1.0;" x1="49" x2="312" y1="1122.7578" y2="1122.7578"/><text fill="#000000" font-family="sans-serif" font-size="13" lengthAdjust="spacing" textLength="87" x="56" y="1117.9014">Selects 'delete'</text><line style="stroke:#181818;stroke-width:1.0;" x1="333" x2="375" y1="1153.1094" y2="1153.1094"/><line style="stroke:#181818;stroke-width:1.0;" x1="375" x2="375" y1="1153.1094" y2="1166.1094"/><line style="stroke:#181818;stroke-width:1.0;" x1="334" x2="375" y1="1166.1094" y2="1166.1094"/><polygon fill="#181818" points="344,1162.1094,334,1166.1094,344,1170.1094,340,1166.1094" style="stroke:#181818;stroke-width:1.0;"/><text fill="#000000" font-family="sans-serif" font-size="13" lengthAdjust="spacing" textLength="163" x="340" y="1148.2529">Delete the operation request</text><path d="M515,1139.2578 L515,1165.2578 L664,1165.2578 L664,1149.2578 L654,1139.2578 L515,1139.2578 " fill="#FAFAFA" style="stroke:#181818;stroke-width:0.5;"/><path d="M654,1139.2578 L654,1149.2578 L664,1149.2578 L654,1139.2578 " fill="#FAFAFA" style="stroke:#181818;stroke-width:0.5;"/><text fill="#000000" font-family="sans-serif" font-size="13" lengthAdjust="spacing" textLength="128" x="521" y="1157.7529">documented in UC018</text><polygon fill="#181818" points="55,1229.4609,45,1233.4609,55,1237.4609,51,1233.4609" style="stroke:#181818;stroke-width:1.0;"/><line style="stroke:#181818;stroke-width:1.0;stroke-dasharray:2.0,2.0;" x1="49" x2="322" y1="1233.4609" y2="1233.4609"/><text fill="#000000" font-family="sans-serif" font-size="13" lengthAdjust="spacing" textLength="129" x="61" y="1228.6045">Confirmation message</text><!--SRC=[pLPDZvim4BtxLupsikqXKlVKDb9xsTmh5UqjbobCm5gmNNlO2gtsltS0GmZvMDfqfVgG6FFcZT_pC10UjN7eiOBA6fiMtbO4x6jIORpZC7t4d19kIW9FAQF9ooaW59ZPNzhaiCCoa5AiMQ194vWgIEXdJIObs6ZCM_Yx9DcyXnKyt7-u-wmKfcmzR6pxfuIGTQeT6eQRTSzm0nWYMOVMJyWq182CVWghhn6rXkzjpi01s48Wz6a1Eq5yS-IHjJKZe8iVEMEITgtxYGfMmjpdM8k8u4fimBgMfuytLcAzpWjU3-lm1PwtPkKa6uaKWnN9fHtpS-FQ1UUrzPeRcGP6hiFMl7IKxSXelh7n5fOSCqcYsscMsn5px4f2fPnUE1TmoePX34xioUmFHXra9oNiPVbewzQqTdD145CTa5rAz8fmalgQA3yqT97sSo5NgJmaVIEnGx4iE-8Zy7N76EdUI5fV_8k4pQ5NoUh9_faea-qlBlQE-Ox6A7KiQHOT3bhFvVPJkqpsAPDCt6idVz5SUev5HpE7_bb3UUYYPuzJDEZA4veZfevbDgqhwL2KWJRTE-dZkIhjNLnanHnwMlAcG_q7aZ-Thk4pTNnlpKxxgjzkHI78ru5Qy8nCbkFRM_q6]--></g></svg>