<?xml version="1.0" encoding="us-ascii" standalone="no"?><svg xmlns="http://www.w3.org/2000/svg" xmlns:xlink="http://www.w3.org/1999/xlink" contentStyleType="text/css" height="691px" preserveAspectRatio="none" style="width:853px;height:691px;background:#FFFFFF;" version="1.1" viewBox="0 0 853 691" width="853px" zoomAndPan="magnify"><defs/><g><text fill="#000000" font-family="sans-serif" font-size="14" font-weight="bold" lengthAdjust="spacing" textLength="285" x="286.25" y="29.5332">System Sequence Diagram (SSD) - UC021</text><rect fill="#FFFFFF" height="460.2734" style="stroke:#181818;stroke-width:1.0;" width="10" x="22.5" y="131.2188"/><rect fill="#FFFFFF" height="30.3516" style="stroke:#181818;stroke-width:1.0;" width="10" x="475.5" y="153.5703"/><rect fill="#FFFFFF" height="30.3516" style="stroke:#181818;stroke-width:1.0;" width="10" x="475.5" y="214.2734"/><rect fill="#FFFFFF" height="30.3516" style="stroke:#181818;stroke-width:1.0;" width="10" x="475.5" y="274.9766"/><rect fill="#FFFFFF" height="30.3516" style="stroke:#181818;stroke-width:1.0;" width="10" x="475.5" y="335.6797"/><rect fill="#FFFFFF" height="30.3516" style="stroke:#181818;stroke-width:1.0;" width="10" x="475.5" y="396.3828"/><rect fill="#FFFFFF" height="30.3516" style="stroke:#181818;stroke-width:1.0;" width="10" x="475.5" y="457.0859"/><rect fill="#FFFFFF" height="73.7031" style="stroke:#181818;stroke-width:1.0;" width="10" x="475.5" y="517.7891"/><line style="stroke:#181818;stroke-width:0.5;stroke-dasharray:5.0,5.0;" x1="27" x2="27" y1="121.2188" y2="609.4922"/><line style="stroke:#181818;stroke-width:0.5;stroke-dasharray:5.0,5.0;" x1="480.5" x2="480.5" y1="121.2188" y2="609.4922"/><text fill="#000000" font-family="sans-serif" font-size="14" lengthAdjust="spacing" textLength="39" x="5" y="118.1426">Admin</text><ellipse cx="27.5" cy="52.1094" fill="#E2E2F0" rx="8" ry="8" style="stroke:#181818;stroke-width:0.5;"/><path d="M27.5,60.1094 L27.5,87.1094 M14.5,68.1094 L40.5,68.1094 M27.5,87.1094 L14.5,102.1094 M27.5,87.1094 L40.5,102.1094 " fill="none" style="stroke:#181818;stroke-width:0.5;"/><text fill="#000000" font-family="sans-serif" font-size="14" lengthAdjust="spacing" textLength="39" x="5" y="623.0254">Admin</text><ellipse cx="27.5" cy="634.6016" fill="#E2E2F0" rx="8" ry="8" style="stroke:#181818;stroke-width:0.5;"/><path d="M27.5,642.6016 L27.5,669.6016 M14.5,650.6016 L40.5,650.6016 M27.5,669.6016 L14.5,684.6016 M27.5,669.6016 L40.5,684.6016 " fill="none" style="stroke:#181818;stroke-width:0.5;"/><rect fill="#E2E2F0" height="31.6094" rx="2.5" ry="2.5" style="stroke:#181818;stroke-width:0.5;" width="64" x="448.5" y="88.6094"/><text fill="#000000" font-family="sans-serif" font-size="14" lengthAdjust="spacing" textLength="50" x="455.5" y="110.1426">:System</text><rect fill="#E2E2F0" height="31.6094" rx="2.5" ry="2.5" style="stroke:#181818;stroke-width:0.5;" width="64" x="448.5" y="608.4922"/><text fill="#000000" font-family="sans-serif" font-size="14" lengthAdjust="spacing" textLength="50" x="455.5" y="630.0254">:System</text><rect fill="#FFFFFF" height="460.2734" style="stroke:#181818;stroke-width:1.0;" width="10" x="22.5" y="131.2188"/><rect fill="#FFFFFF" height="30.3516" style="stroke:#181818;stroke-width:1.0;" width="10" x="475.5" y="153.5703"/><rect fill="#FFFFFF" height="30.3516" style="stroke:#181818;stroke-width:1.0;" width="10" x="475.5" y="214.2734"/><rect fill="#FFFFFF" height="30.3516" style="stroke:#181818;stroke-width:1.0;" width="10" x="475.5" y="274.9766"/><rect fill="#FFFFFF" height="30.3516" style="stroke:#181818;stroke-width:1.0;" width="10" x="475.5" y="335.6797"/><rect fill="#FFFFFF" height="30.3516" style="stroke:#181818;stroke-width:1.0;" width="10" x="475.5" y="396.3828"/><rect fill="#FFFFFF" height="30.3516" style="stroke:#181818;stroke-width:1.0;" width="10" x="475.5" y="457.0859"/><rect fill="#FFFFFF" height="73.7031" style="stroke:#181818;stroke-width:1.0;" width="10" x="475.5" y="517.7891"/><polygon fill="#181818" points="463.5,149.5703,473.5,153.5703,463.5,157.5703,467.5,153.5703" style="stroke:#181818;stroke-width:1.0;"/><line style="stroke:#181818;stroke-width:1.0;" x1="32.5" x2="469.5" y1="153.5703" y2="153.5703"/><text fill="#000000" font-family="sans-serif" font-size="13" lengthAdjust="spacing" textLength="158" x="39.5" y="148.7139">Edit existing operation type</text><polygon fill="#181818" points="43.5,179.9219,33.5,183.9219,43.5,187.9219,39.5,183.9219" style="stroke:#181818;stroke-width:1.0;"/><line style="stroke:#181818;stroke-width:1.0;stroke-dasharray:2.0,2.0;" x1="37.5" x2="479.5" y1="183.9219" y2="183.9219"/><text fill="#000000" font-family="sans-serif" font-size="13" lengthAdjust="spacing" textLength="104" x="49.5" y="179.0654">Ask for new name</text><polygon fill="#181818" points="463.5,210.2734,473.5,214.2734,463.5,218.2734,467.5,214.2734" style="stroke:#181818;stroke-width:1.0;"/><line style="stroke:#181818;stroke-width:1.0;" x1="32.5" x2="469.5" y1="214.2734" y2="214.2734"/><text fill="#000000" font-family="sans-serif" font-size="13" lengthAdjust="spacing" textLength="171" x="39.5" y="209.417">Provide new operation's name</text><polygon fill="#181818" points="43.5,240.625,33.5,244.625,43.5,248.625,39.5,244.625" style="stroke:#181818;stroke-width:1.0;"/><line style="stroke:#181818;stroke-width:1.0;stroke-dasharray:2.0,2.0;" x1="37.5" x2="479.5" y1="244.625" y2="244.625"/><text fill="#000000" font-family="sans-serif" font-size="13" lengthAdjust="spacing" textLength="419" x="49.5" y="239.7686">Ask for new operation's anesthesia/preparation phase estimated duration</text><polygon fill="#181818" points="463.5,270.9766,473.5,274.9766,463.5,278.9766,467.5,274.9766" style="stroke:#181818;stroke-width:1.0;"/><line style="stroke:#181818;stroke-width:1.0;" x1="32.5" x2="469.5" y1="274.9766" y2="274.9766"/><text fill="#000000" font-family="sans-serif" font-size="13" lengthAdjust="spacing" textLength="420" x="39.5" y="270.1201">Provide new operation's anesthesia/preparation phase estimated duration</text><polygon fill="#181818" points="43.5,301.3281,33.5,305.3281,43.5,309.3281,39.5,305.3281" style="stroke:#181818;stroke-width:1.0;"/><line style="stroke:#181818;stroke-width:1.0;stroke-dasharray:2.0,2.0;" x1="37.5" x2="479.5" y1="305.3281" y2="305.3281"/><text fill="#000000" font-family="sans-serif" font-size="13" lengthAdjust="spacing" textLength="331" x="49.5" y="300.4717">Ask for new operation's surgery phase estimated duration</text><polygon fill="#181818" points="463.5,331.6797,473.5,335.6797,463.5,339.6797,467.5,335.6797" style="stroke:#181818;stroke-width:1.0;"/><line style="stroke:#181818;stroke-width:1.0;" x1="32.5" x2="469.5" y1="335.6797" y2="335.6797"/><text fill="#000000" font-family="sans-serif" font-size="13" lengthAdjust="spacing" textLength="332" x="39.5" y="330.8232">Provide new operation's surgery phase estimated duration</text><polygon fill="#181818" points="43.5,362.0313,33.5,366.0313,43.5,370.0313,39.5,366.0313" style="stroke:#181818;stroke-width:1.0;"/><line style="stroke:#181818;stroke-width:1.0;stroke-dasharray:2.0,2.0;" x1="37.5" x2="479.5" y1="366.0313" y2="366.0313"/><text fill="#000000" font-family="sans-serif" font-size="13" lengthAdjust="spacing" textLength="336" x="49.5" y="361.1748">Ask for new operation's cleaning phase estimated duration</text><polygon fill="#181818" points="463.5,392.3828,473.5,396.3828,463.5,400.3828,467.5,396.3828" style="stroke:#181818;stroke-width:1.0;"/><line style="stroke:#181818;stroke-width:1.0;" x1="32.5" x2="469.5" y1="396.3828" y2="396.3828"/><text fill="#000000" font-family="sans-serif" font-size="13" lengthAdjust="spacing" textLength="337" x="39.5" y="391.5264">Provide new operation's cleaning phase estimated duration</text><polygon fill="#181818" points="43.5,422.7344,33.5,426.7344,43.5,430.7344,39.5,426.7344" style="stroke:#181818;stroke-width:1.0;"/><line style="stroke:#181818;stroke-width:1.0;stroke-dasharray:2.0,2.0;" x1="37.5" x2="479.5" y1="426.7344" y2="426.7344"/><text fill="#000000" font-family="sans-serif" font-size="13" lengthAdjust="spacing" textLength="217" x="49.5" y="421.8779">Ask for new operation's specialization</text><polygon fill="#181818" points="463.5,453.0859,473.5,457.0859,463.5,461.0859,467.5,457.0859" style="stroke:#181818;stroke-width:1.0;"/><line style="stroke:#181818;stroke-width:1.0;" x1="32.5" x2="469.5" y1="457.0859" y2="457.0859"/><text fill="#000000" font-family="sans-serif" font-size="13" lengthAdjust="spacing" textLength="218" x="39.5" y="452.2295">Provide new operation's specialization</text><polygon fill="#181818" points="43.5,483.4375,33.5,487.4375,43.5,491.4375,39.5,487.4375" style="stroke:#181818;stroke-width:1.0;"/><line style="stroke:#181818;stroke-width:1.0;stroke-dasharray:2.0,2.0;" x1="37.5" x2="479.5" y1="487.4375" y2="487.4375"/><text fill="#000000" font-family="sans-serif" font-size="13" lengthAdjust="spacing" textLength="407" x="49.5" y="482.5811">Ask for new operation's required staff (role, specialization and quantity)</text><polygon fill="#181818" points="463.5,513.7891,473.5,517.7891,463.5,521.7891,467.5,517.7891" style="stroke:#181818;stroke-width:1.0;"/><line style="stroke:#181818;stroke-width:1.0;" x1="32.5" x2="469.5" y1="517.7891" y2="517.7891"/><text fill="#000000" font-family="sans-serif" font-size="13" lengthAdjust="spacing" textLength="408" x="39.5" y="512.9326">Provide new operation's required staff (role, specialization and quantity)</text><line style="stroke:#181818;stroke-width:1.0;" x1="485.5" x2="527.5" y1="548.1406" y2="548.1406"/><line style="stroke:#181818;stroke-width:1.0;" x1="527.5" x2="527.5" y1="548.1406" y2="561.1406"/><line style="stroke:#181818;stroke-width:1.0;" x1="486.5" x2="527.5" y1="561.1406" y2="561.1406"/><polygon fill="#181818" points="496.5,557.1406,486.5,561.1406,496.5,565.1406,492.5,561.1406" style="stroke:#181818;stroke-width:1.0;"/><text fill="#000000" font-family="sans-serif" font-size="13" lengthAdjust="spacing" textLength="354" x="492.5" y="543.2842">Save edited operation type, making it available for schedulling</text><polygon fill="#181818" points="38.5,587.4922,28.5,591.4922,38.5,595.4922,34.5,591.4922" style="stroke:#181818;stroke-width:1.0;"/><line style="stroke:#181818;stroke-width:1.0;stroke-dasharray:2.0,2.0;" x1="32.5" x2="479.5" y1="591.4922" y2="591.4922"/><text fill="#000000" font-family="sans-serif" font-size="13" lengthAdjust="spacing" textLength="354" x="44.5" y="586.6357">Save edited operation type, making it available for schedulling</text><!--SRC=[jLJDRi8m3BxtAImk0mcqdoE7IMZiFgdQ0tYD0Oiq3KdQhNlwEIq2nfX0jEHGHN7w_TZH5pXeWhJsWN98QLEIoGZcZ4k7EGpJT3w22Ro_F3mz9fY5mi5CvMm0VTma5btWZ2sQ08Df2pE8nNQRn7-uma3DxGHaoGOcpziBKtXL782-s0SsIoWiEGnS60YrfUR-3c4B6S-QJrnRuHC15DmfpFmQ5YBIq2SOp5i4HSSOfuIykQ9YHSslEnbtVWzp4kISY4CaDEJ3YZpZlNKahMkTsXLw0YbnBkWALDaMUj1-3MDdcxvqItBrBNrTHD7PIAO9JNoLDtHo6KVtcLZA63L_zpQ1lu2THJg97tRYtGTSB63e2atZ8oPvqWesfUGDXthKWv4hIS-QtJEdMCbW9UQ4v7U-ZI77THo-H21Mo1e_98nZQtos8bLgBSN_-zWL-7Jp3avYPly0]--></g></svg>