<?xml version="1.0" encoding="us-ascii" standalone="no"?><svg xmlns="http://www.w3.org/2000/svg" xmlns:xlink="http://www.w3.org/1999/xlink" contentStyleType="text/css" height="537px" preserveAspectRatio="none" style="width:1858px;height:537px;background:#FFFFFF;" version="1.1" viewBox="0 0 1858 537" width="1858px" zoomAndPan="magnify"><defs/><g><text fill="#000000" font-family="sans-serif" font-size="14" font-weight="bold" lengthAdjust="spacing" textLength="194" x="825" y="24.5332">Domain Model (DM) - UC018</text><!--cluster UserAggregate--><g id="cluster_UserAggregate"><rect fill="#66CDAA" height="254.5" rx="2.5" ry="2.5" style="stroke:#000000;stroke-width:1.5;" width="706" x="7" y="45.6094"/><text fill="#000000" font-family="sans-serif" font-size="14" font-weight="bold" lengthAdjust="spacing" textLength="106" x="307" y="62.1426">UserAggregate</text></g><!--cluster PatientAggregate--><g id="cluster_PatientAggregate"><rect fill="#FFA07A" height="350.5" rx="2.5" ry="2.5" style="stroke:#000000;stroke-width:1.5;" width="328" x="745" y="180.6094"/><text fill="#000000" font-family="sans-serif" font-size="14" font-weight="bold" lengthAdjust="spacing" textLength="122" x="848" y="197.1426">PatientAggregate</text></g><!--cluster StaffAggregate--><g id="cluster_StaffAggregate"><rect fill="#FFC0CB" height="239.5" rx="2.5" ry="2.5" style="stroke:#000000;stroke-width:1.5;" width="755" x="1097" y="180.6094"/><text fill="#000000" font-family="sans-serif" font-size="14" font-weight="bold" lengthAdjust="spacing" textLength="105" x="1422" y="197.1426">StaffAggregate</text></g><!--cluster OperationRequestAggregate--><g id="cluster_OperationRequestAggregate"><rect fill="#FAFAD2" height="103" rx="2.5" ry="2.5" style="stroke:#000000;stroke-width:1.5;" width="419" x="908" y="53.6094"/><text fill="#000000" font-family="sans-serif" font-size="14" font-weight="bold" lengthAdjust="spacing" textLength="202" x="1016.5" y="70.1426">OperationRequestAggregate</text></g><!--class User--><g id="elem_User"><rect codeLine="16" fill="#F1F1F1" height="50.7031" id="User" rx="2.5" ry="2.5" style="stroke:#181818;stroke-width:0.5;" width="69" x="554.5" y="89.6094"/><text fill="#000000" font-family="sans-serif" font-size="12" font-style="italic" lengthAdjust="spacing" textLength="67" x="555.5" y="107.0664">&#171;root entity&#187;</text><text fill="#000000" font-family="sans-serif" font-size="14" lengthAdjust="spacing" textLength="29" x="574.5" y="124.2363">User</text><line style="stroke:#181818;stroke-width:0.5;" x1="555.5" x2="622.5" y1="132.3125" y2="132.3125"/></g><!--class Username--><g id="elem_Username"><rect codeLine="17" fill="#F1F1F1" height="50.7031" id="Username" rx="2.5" ry="2.5" style="stroke:#181818;stroke-width:0.5;" width="83" x="39.5" y="216.6094"/><text fill="#000000" font-family="sans-serif" font-size="12" font-style="italic" lengthAdjust="spacing" textLength="81" x="40.5" y="234.0664">&#171;value object&#187;</text><text fill="#000000" font-family="sans-serif" font-size="14" lengthAdjust="spacing" textLength="64" x="49" y="251.2363">Username</text><line style="stroke:#181818;stroke-width:0.5;" x1="40.5" x2="121.5" y1="259.3125" y2="259.3125"/></g><g id="elem_GMN5"><path d="M158,229.1094 L158,238.1094 L122.62,242.1094 L158,246.1094 L158,255.4609 A0,0 0 0 0 158,255.4609 L324,255.4609 A0,0 0 0 0 324,255.4609 L324,239.1094 L314,229.1094 L158,229.1094 A0,0 0 0 0 158,229.1094 " fill="#FEFFDD" style="stroke:#181818;stroke-width:0.5;"/><path d="M314,229.1094 L314,239.1094 L324,239.1094 L314,229.1094 " fill="#FEFFDD" style="stroke:#181818;stroke-width:0.5;"/><text fill="#000000" font-family="sans-serif" font-size="13" lengthAdjust="spacing" textLength="145" x="164" y="247.6045">same as the user's email</text></g><!--class Role--><g id="elem_Role"><rect codeLine="19" fill="#F1F1F1" height="68.3125" id="Role" rx="2.5" ry="2.5" style="stroke:#181818;stroke-width:0.5;" width="330" x="359" y="208.1094"/><text fill="#000000" font-family="sans-serif" font-size="12" font-style="italic" lengthAdjust="spacing" textLength="81" x="483.5" y="225.5664">&#171;value object&#187;</text><text fill="#000000" font-family="sans-serif" font-size="14" lengthAdjust="spacing" textLength="29" x="509.5" y="242.7363">Role</text><line style="stroke:#181818;stroke-width:0.5;" x1="360" x2="688" y1="250.8125" y2="250.8125"/><text fill="#000000" font-family="sans-serif" font-size="14" lengthAdjust="spacing" textLength="318" x="365" y="269.3457">ADMIN, DOCTOR, NURSE, TECHNICIAN, PATIENT</text></g><!--class Patient--><g id="elem_Patient"><rect codeLine="26" fill="#F1F1F1" height="50.7031" id="Patient" rx="2.5" ry="2.5" style="stroke:#181818;stroke-width:0.5;" width="69" x="781.5" y="216.6094"/><text fill="#000000" font-family="sans-serif" font-size="12" font-style="italic" lengthAdjust="spacing" textLength="67" x="782.5" y="234.0664">&#171;root entity&#187;</text><text fill="#000000" font-family="sans-serif" font-size="14" lengthAdjust="spacing" textLength="44" x="794" y="251.2363">Patient</text><line style="stroke:#181818;stroke-width:0.5;" x1="782.5" x2="849.5" y1="259.3125" y2="259.3125"/></g><!--class MedicalRecordNumber--><g id="elem_MedicalRecordNumber"><rect codeLine="27" fill="#F1F1F1" height="50.7031" id="MedicalRecordNumber" rx="2.5" ry="2.5" style="stroke:#181818;stroke-width:0.5;" width="149" x="761.5" y="464.1094"/><text fill="#000000" font-family="sans-serif" font-size="12" font-style="italic" lengthAdjust="spacing" textLength="81" x="795.5" y="481.5664">&#171;value object&#187;</text><text fill="#000000" font-family="sans-serif" font-size="14" lengthAdjust="spacing" textLength="143" x="764.5" y="498.7363">MedicalRecordNumber</text><line style="stroke:#181818;stroke-width:0.5;" x1="762.5" x2="909.5" y1="506.8125" y2="506.8125"/></g><g id="elem_GMN15"><path d="M945.5,476.6094 L945.5,486.1094 L910.78,490.1094 L945.5,494.1094 L945.5,502.9609 A0,0 0 0 0 945.5,502.9609 L1056.5,502.9609 A0,0 0 0 0 1056.5,502.9609 L1056.5,486.6094 L1046.5,476.6094 L945.5,476.6094 A0,0 0 0 0 945.5,476.6094 " fill="#FEFFDD" style="stroke:#181818;stroke-width:0.5;"/><path d="M1046.5,476.6094 L1046.5,486.6094 L1056.5,486.6094 L1046.5,476.6094 " fill="#FEFFDD" style="stroke:#181818;stroke-width:0.5;"/><text fill="#000000" font-family="sans-serif" font-size="13" lengthAdjust="spacing" textLength="90" x="951.5" y="495.1045">unique identifier</text></g><!--class Staff--><g id="elem_Staff"><rect codeLine="32" fill="#F1F1F1" height="50.7031" id="Staff" rx="2.5" ry="2.5" style="stroke:#181818;stroke-width:0.5;" width="69" x="1113.5" y="216.6094"/><text fill="#000000" font-family="sans-serif" font-size="12" font-style="italic" lengthAdjust="spacing" textLength="67" x="1114.5" y="234.0664">&#171;root entity&#187;</text><text fill="#000000" font-family="sans-serif" font-size="14" lengthAdjust="spacing" textLength="29" x="1133.5" y="251.2363">Staff</text><line style="stroke:#181818;stroke-width:0.5;" x1="1114.5" x2="1181.5" y1="259.3125" y2="259.3125"/></g><!--class StaffID--><g id="elem_StaffID"><rect codeLine="33" fill="#F1F1F1" height="50.7031" id="StaffID" rx="2.5" ry="2.5" style="stroke:#181818;stroke-width:0.5;" width="48" x="1113" y="344.6094"/><text fill="#000000" font-family="sans-serif" font-size="12" font-style="italic" lengthAdjust="spacing" textLength="43" x="1115.5" y="362.0664">&#171;entity&#187;</text><text fill="#000000" font-family="sans-serif" font-size="14" lengthAdjust="spacing" textLength="42" x="1116" y="379.2363">StaffID</text><line style="stroke:#181818;stroke-width:0.5;" x1="1114" x2="1160" y1="387.3125" y2="387.3125"/></g><!--class LicenseNumber--><g id="elem_LicenseNumber"><rect codeLine="34" fill="#F1F1F1" height="50.7031" id="LicenseNumber" rx="2.5" ry="2.5" style="stroke:#181818;stroke-width:0.5;" width="104" x="1732" y="344.6094"/><text fill="#000000" font-family="sans-serif" font-size="12" font-style="italic" lengthAdjust="spacing" textLength="81" x="1743.5" y="362.0664">&#171;value object&#187;</text><text fill="#000000" font-family="sans-serif" font-size="14" lengthAdjust="spacing" textLength="98" x="1735" y="379.2363">LicenseNumber</text><line style="stroke:#181818;stroke-width:0.5;" x1="1733" x2="1835" y1="387.3125" y2="387.3125"/></g><g id="elem_GMN22"><path d="M1585.5,357.1094 L1585.5,383.4609 A0,0 0 0 0 1585.5,383.4609 L1696.5,383.4609 A0,0 0 0 0 1696.5,383.4609 L1696.5,375.1094 L1731.96,370.1094 L1696.5,367.1094 L1696.5,367.1094 L1686.5,357.1094 L1585.5,357.1094 A0,0 0 0 0 1585.5,357.1094 " fill="#FEFFDD" style="stroke:#181818;stroke-width:0.5;"/><path d="M1686.5,357.1094 L1686.5,367.1094 L1696.5,367.1094 L1686.5,357.1094 " fill="#FEFFDD" style="stroke:#181818;stroke-width:0.5;"/><text fill="#000000" font-family="sans-serif" font-size="13" lengthAdjust="spacing" textLength="90" x="1591.5" y="375.6045">unique identifier</text></g><!--class Specialization--><g id="elem_Specialization"><rect codeLine="36" fill="#F1F1F1" height="68.3125" id="Specialization" rx="2.5" ry="2.5" style="stroke:#181818;stroke-width:0.5;" width="354" x="1196" y="336.1094"/><text fill="#000000" font-family="sans-serif" font-size="12" font-style="italic" lengthAdjust="spacing" textLength="81" x="1332.5" y="353.5664">&#171;value object&#187;</text><text fill="#000000" font-family="sans-serif" font-size="14" lengthAdjust="spacing" textLength="86" x="1330" y="370.7363">Specialization</text><line style="stroke:#181818;stroke-width:0.5;" x1="1197" x2="1549" y1="378.8125" y2="378.8125"/><text fill="#000000" font-family="sans-serif" font-size="14" lengthAdjust="spacing" textLength="342" x="1202" y="397.3457">ANAESTHESIOLOGY, CARDIOLOGY, ORTHOPEDICS</text></g><!--class OperationRequest--><g id="elem_OperationRequest"><rect codeLine="42" fill="#F1F1F1" height="50.7031" id="OperationRequest" rx="2.5" ry="2.5" style="stroke:#181818;stroke-width:0.5;" width="122" x="924" y="89.6094"/><text fill="#000000" font-family="sans-serif" font-size="12" font-style="italic" lengthAdjust="spacing" textLength="67" x="951.5" y="107.0664">&#171;root entity&#187;</text><text fill="#000000" font-family="sans-serif" font-size="14" lengthAdjust="spacing" textLength="116" x="927" y="124.2363">OperationRequest</text><line style="stroke:#181818;stroke-width:0.5;" x1="925" x2="1045" y1="132.3125" y2="132.3125"/></g><!--class RequestID--><g id="elem_RequestID"><rect codeLine="43" fill="#F1F1F1" height="50.7031" id="RequestID" rx="2.5" ry="2.5" style="stroke:#181818;stroke-width:0.5;" width="83" x="1081.5" y="89.6094"/><text fill="#000000" font-family="sans-serif" font-size="12" font-style="italic" lengthAdjust="spacing" textLength="81" x="1082.5" y="107.0664">&#171;value object&#187;</text><text fill="#000000" font-family="sans-serif" font-size="14" lengthAdjust="spacing" textLength="66" x="1090" y="124.2363">RequestID</text><line style="stroke:#181818;stroke-width:0.5;" x1="1082.5" x2="1163.5" y1="132.3125" y2="132.3125"/></g><g id="elem_GMN29"><path d="M1199.5,102.1094 L1199.5,111.1094 L1164.77,115.1094 L1199.5,119.1094 L1199.5,128.4609 A0,0 0 0 0 1199.5,128.4609 L1310.5,128.4609 A0,0 0 0 0 1310.5,128.4609 L1310.5,112.1094 L1300.5,102.1094 L1199.5,102.1094 A0,0 0 0 0 1199.5,102.1094 " fill="#FEFFDD" style="stroke:#181818;stroke-width:0.5;"/><path d="M1300.5,102.1094 L1300.5,112.1094 L1310.5,112.1094 L1300.5,102.1094 " fill="#FEFFDD" style="stroke:#181818;stroke-width:0.5;"/><text fill="#000000" font-family="sans-serif" font-size="13" lengthAdjust="spacing" textLength="90" x="1205.5" y="120.6045">unique identifier</text></g><g id="elem_GMN9"><path d="M1345.5,93.6094 L1345.5,136.3125 L1504.5,136.3125 L1504.5,103.6094 L1494.5,93.6094 L1345.5,93.6094 " fill="#FEFFDD" style="stroke:#181818;stroke-width:0.5;"/><path d="M1494.5,93.6094 L1494.5,103.6094 L1504.5,103.6094 L1494.5,93.6094 " fill="#FEFFDD" style="stroke:#181818;stroke-width:1.0;"/><text fill="#000000" font-family="sans-serif" font-size="13" lengthAdjust="spacing" textLength="133" x="1351.5" y="112.1045">managed using an IAM</text><text fill="#000000" font-family="sans-serif" font-size="13" lengthAdjust="spacing" textLength="138" x="1351.5" y="128.4561">(external to the system)</text></g><!--link GMN9 to UserAggregate--><g id="link_GMN9_UserAggregate"><path d="M1425,93.3594 C1425,82.6894 1425,72.1094 1425,72.1094 C1425,72.1094 1072.5,72.1094 720,72.1094 " fill="none" id="GMN9-UserAggregate" style="stroke:#181818;stroke-width:1.0;stroke-dasharray:7.0,7.0;"/></g><!--link User to Username--><g id="link_User_Username"><path codeLine="47" d="M554.48,129.1094 C440.15,129.1094 81,129.1094 81,129.1094 C81,129.1094 81,183.1294 81,216.4694 " fill="none" id="User-Username" style="stroke:#181818;stroke-width:1.0;"/><polygon fill="#000000" points="190.143,121.1924,199.5712,122.4413,198.5047,116.6611,190.143,121.1924" style="stroke:#000000;stroke-width:1.0;"/><text fill="#000000" font-family="sans-serif" font-size="13" lengthAdjust="spacing" textLength="69" x="204.06" y="125.6045">identified by</text><text fill="#000000" font-family="sans-serif" font-size="13" lengthAdjust="spacing" textLength="7" x="539.6384" y="127.9089">1</text><text fill="#000000" font-family="sans-serif" font-size="13" lengthAdjust="spacing" textLength="7" x="73.1469" y="205.8438">1</text></g><!--link User to Role--><g id="link_User_Role"><path codeLine="48" d="M589,140.8094 C589,160.0894 589,186.6794 589,207.7794 " fill="none" id="User-Role" style="stroke:#181818;stroke-width:1.0;"/><polygon fill="#000000" points="502,170.4652,504.9389,161.4201,499.0611,161.4201,502,170.4652" style="stroke:#000000;stroke-width:1.0;"/><text fill="#000000" font-family="sans-serif" font-size="13" lengthAdjust="spacing" textLength="77" x="511" y="170.7845">has assigned</text><text fill="#000000" font-family="sans-serif" font-size="13" lengthAdjust="spacing" textLength="5" x="583.4531" y="161.7473">*</text><text fill="#000000" font-family="sans-serif" font-size="13" lengthAdjust="spacing" textLength="7" x="593.7234" y="197.2091">1</text></g><!--reverse link User to Staff--><g id="link_User_Staff"><path codeLine="50" d="M629.58,107.1094 C706.8,107.1094 880.5,107.1094 880.5,107.1094 C880.5,107.1094 880.5,251.1094 880.5,251.1094 C880.5,251.1094 1040.92,251.1094 1113.3,251.1094 " fill="none" id="User-backto-Staff" style="stroke:#181818;stroke-width:1.0;"/><polygon fill="#181818" points="623.58,107.1094,632.58,111.1094,628.58,107.1094,632.58,103.1094,623.58,107.1094" style="stroke:#181818;stroke-width:1.0;"/><polygon fill="#000000" points="805.7078,156.7986,813.5384,162.1961,815.2155,156.5625,805.7078,156.7986" style="stroke:#000000;stroke-width:1.0;"/><text fill="#000000" font-family="sans-serif" font-size="13" lengthAdjust="spacing" textLength="60" x="819.5" y="163.5445">references</text><text fill="#000000" font-family="sans-serif" font-size="13" lengthAdjust="spacing" textLength="22" x="631.4141" y="101.9102">0..1</text><text fill="#000000" font-family="sans-serif" font-size="13" lengthAdjust="spacing" textLength="22" x="1083.4453" y="248.8321">0..1</text></g><!--reverse link User to Patient--><g id="link_User_Patient"><path codeLine="51" d="M629.97,124.1094 C693.65,124.1094 816,124.1094 816,124.1094 C816,124.1094 816,181.7994 816,216.5094 " fill="none" id="User-backto-Patient" style="stroke:#181818;stroke-width:1.0;"/><polygon fill="#181818" points="623.97,124.1094,632.97,128.1094,628.97,124.1094,632.97,120.1094,623.97,124.1094" style="stroke:#181818;stroke-width:1.0;"/><polygon fill="#000000" points="691.702,113.0609,698.4955,119.7167,701.1102,114.4525,691.702,113.0609" style="stroke:#000000;stroke-width:1.0;"/><text fill="#000000" font-family="sans-serif" font-size="13" lengthAdjust="spacing" textLength="60" x="705.18" y="120.6045">references</text><text fill="#000000" font-family="sans-serif" font-size="13" lengthAdjust="spacing" textLength="22" x="631.5838" y="121.8238">0..1</text><text fill="#000000" font-family="sans-serif" font-size="13" lengthAdjust="spacing" textLength="7" x="808.1469" y="205.8935">1</text></g><!--link Patient to MedicalRecordNumber--><g id="link_Patient_MedicalRecordNumber"><path codeLine="53" d="M816,267.6594 C816,315.0894 816,416.2194 816,463.8194 " fill="none" id="Patient-MedicalRecordNumber" style="stroke:#181818;stroke-width:1.0;"/><polygon fill="#000000" points="737,361.9152,739.9389,352.8701,734.0611,352.8701,737,361.9152" style="stroke:#000000;stroke-width:1.0;"/><text fill="#000000" font-family="sans-serif" font-size="13" lengthAdjust="spacing" textLength="69" x="746" y="362.2345">identified by</text><text fill="#000000" font-family="sans-serif" font-size="13" lengthAdjust="spacing" textLength="7" x="808.1906" y="288.9879">1</text><text fill="#000000" font-family="sans-serif" font-size="13" lengthAdjust="spacing" textLength="7" x="803.2719" y="453.1572">1</text></g><!--link Staff to StaffID--><g id="link_Staff_StaffID"><path codeLine="55" d="M1137.25,267.7094 C1137.25,290.0294 1137.25,322.2494 1137.25,344.5594 " fill="none" id="Staff-StaffID" style="stroke:#181818;stroke-width:1.0;"/><polygon fill="#000000" points="1058.25,302.3052,1061.1889,293.2601,1055.3111,293.2601,1058.25,302.3052" style="stroke:#000000;stroke-width:1.0;"/><text fill="#000000" font-family="sans-serif" font-size="13" lengthAdjust="spacing" textLength="69" x="1067.25" y="302.6245">identified by</text><text fill="#000000" font-family="sans-serif" font-size="13" lengthAdjust="spacing" textLength="7" x="1127.1328" y="288.6254">1</text><text fill="#000000" font-family="sans-serif" font-size="13" lengthAdjust="spacing" textLength="7" x="1129.4578" y="333.9557">1</text></g><!--link Staff to LicenseNumber--><g id="link_Staff_LicenseNumber"><path codeLine="56" d="M1182.65,242.1094 C1315.36,242.1094 1784,242.1094 1784,242.1094 C1784,242.1094 1784,307.1594 1784,344.5094 " fill="none" id="Staff-LicenseNumber" style="stroke:#181818;stroke-width:1.0;"/><polygon fill="#000000" points="1508.459,234.1245,1500.0357,229.7089,1499.049,235.5033,1508.459,234.1245" style="stroke:#000000;stroke-width:1.0;"/><text fill="#000000" font-family="sans-serif" font-size="13" lengthAdjust="spacing" textLength="21" x="1512.53" y="238.6045">has</text><text fill="#000000" font-family="sans-serif" font-size="13" lengthAdjust="spacing" textLength="7" x="1190.5184" y="238.0214">1</text><text fill="#000000" font-family="sans-serif" font-size="13" lengthAdjust="spacing" textLength="7" x="1776.1469" y="333.8935">1</text></g><!--link Staff to Specialization--><g id="link_Staff_Specialization"><path codeLine="57" d="M1171.75,267.8594 C1171.75,297.1994 1171.75,341.1094 1171.75,341.1094 C1171.75,341.1094 1181.04,341.1094 1195.63,341.1094 " fill="none" id="Staff-Specialization" style="stroke:#181818;stroke-width:1.0;"/><polygon fill="#000000" points="1178.2998,312.3489,1178.2904,302.8384,1172.702,304.6602,1178.2998,312.3489" style="stroke:#000000;stroke-width:1.0;"/><text fill="#000000" font-family="sans-serif" font-size="13" lengthAdjust="spacing" textLength="21" x="1185.75" y="312.9145">has</text><text fill="#000000" font-family="sans-serif" font-size="13" lengthAdjust="spacing" textLength="5" x="1171.3984" y="288.8082">*</text><text fill="#000000" font-family="sans-serif" font-size="13" lengthAdjust="spacing" textLength="7" x="1180.9995" y="337.0444">1</text></g><!--link OperationRequest to Staff--><g id="link_OperationRequest_Staff"><path codeLine="59" d="M995.75,140.6394 C995.75,175.5994 995.75,234.1094 995.75,234.1094 C995.75,234.1094 1068.53,234.1094 1113.45,234.1094 " fill="none" id="OperationRequest-Staff" style="stroke:#181818;stroke-width:1.0;"/><polygon fill="#000000" points="926.7855,228.3946,921.53,220.4681,917.8746,225.071,926.7855,228.3946" style="stroke:#000000;stroke-width:1.0;"/><text fill="#000000" font-family="sans-serif" font-size="13" lengthAdjust="spacing" textLength="75" x="931.87" y="230.6045">requested by</text><text fill="#000000" font-family="sans-serif" font-size="13" lengthAdjust="spacing" textLength="5" x="992.6578" y="161.9633">*</text><text fill="#000000" font-family="sans-serif" font-size="13" lengthAdjust="spacing" textLength="7" x="1098.6022" y="228.3714">1</text></g><!--SRC=[XPHDJ-Cm48Rl-HKZzh2mAWXkgwgg53KLHA8VIje3qbxSP99wSUnYEykM5Vzz9yu7WL1nIk9vFFFEwt7C8vS7fba11vOyiXnZUnG86XFBP2xGCnrWzYnLprpca35X-f54C6DyQpNVbHR3HCcOlo1Szn319ThZ0K5fkrUU9p2pO1LedkyjfBmgo9Nqh3fKopjbhIfwwzwUfmW5qkRKr1y9rma9z2otf3XG1UCI5Yf50UV1uW8kOJkxlldfUKrdi3Me_JpNc3EBy6s1AIyB_wba2wP97lppe6x5aJ2PQAKieAG2n-dqNL2o0WdumqH9BUr-aqf7I4MPwvvKrf5ZC1NF3DWzGachtmqWwHLTqaY9OKAd2C0F5k5o1C5gjbb58rXketW-WiryThSCPw5FeRM_2UVB3T6ltgldH3Y36mrTqsCec2GhKX9H7IIJ4FgBN_8S_zfAggYyhpIQex5ONBnvjsQManCz- -whBcCc2YLxpZNSIVCgqnCc8aoKJfTbiND6V-7Z9vl6K4h-H9je4gX6nb5JvvtSsB8iwubTS_dOK-d29pMwQ1XGV12wvmbAWry8Rxr_Ht-ckAjum8GpmLzODUmdvs3fp-FDtJmEL_UhsuSHpFmeQDzNqUPkjPu7uInkng0pOtL0xH97IFNDu11lbI19aKeVK0ZrtFFfuywJbZLnPzeNXzcX9uxGtRspcpEul7IFxhgDOVg6fh0xDkYF3dMNgCBsTDL85iybfct6wwihGYOLMh_MGp262VtjCjGe4pH3bfxjJ7z0lNQz5bkpdyttKBXNr-vrsSxSa1sWxsUmQRV5tipuC5CjvmtEjB-diMHAVRgWa_0V]--></g></svg>