<?xml version="1.0" encoding="us-ascii" standalone="no"?><svg xmlns="http://www.w3.org/2000/svg" xmlns:xlink="http://www.w3.org/1999/xlink" contentStyleType="text/css" height="847px" preserveAspectRatio="none" style="width:2159px;height:847px;background:#FFFFFF;" version="1.1" viewBox="0 0 2159 847" width="2159px" zoomAndPan="magnify"><defs/><g><text fill="#000000" font-family="sans-serif" font-size="14" font-weight="bold" lengthAdjust="spacing" textLength="231" x="963.25" y="29.5332">Sequence Diagram (SSD) - UC017</text><text fill="#000000" font-family="sans-serif" font-size="14" font-weight="bold" lengthAdjust="spacing" textLength="200" x="978.75" y="47.1426">Updating Suggested Dealine</text><rect fill="#FFFFFF" height="540.9219" style="stroke:#181818;stroke-width:1.0;" width="10" x="371" y="191.1406"/><rect fill="#FFFFFF" height="480.2188" style="stroke:#181818;stroke-width:1.0;" width="10" x="613" y="221.4922"/><rect fill="#FFFFFF" height="41.3516" style="stroke:#181818;stroke-width:1.0;" width="10" x="618" y="380.8984"/><rect fill="#FFFFFF" height="30.3516" style="stroke:#181818;stroke-width:1.0;" width="10" x="1097" y="641.0078"/><rect fill="#FFFFFF" height="30" style="stroke:#181818;stroke-width:1.0;" width="10" x="1252" y="459.6016"/><rect fill="#FFFFFF" height="90.7031" style="stroke:#181818;stroke-width:1.0;" width="10" x="1711" y="251.8438"/><rect fill="#FFFFFF" height="90.7031" style="stroke:#181818;stroke-width:1.0;" width="10" x="1711" y="519.9531"/><rect fill="#FFFFFF" height="30" style="stroke:#181818;stroke-width:1.0;" width="10" x="2056" y="282.1953"/><rect fill="#FFFFFF" height="30" style="stroke:#181818;stroke-width:1.0;" width="10" x="2056" y="550.3047"/><line style="stroke:#181818;stroke-width:0.5;stroke-dasharray:5.0,5.0;" x1="375.5" x2="375.5" y1="142.4375" y2="750.0625"/><line style="stroke:#181818;stroke-width:0.5;stroke-dasharray:5.0,5.0;" x1="617.5" x2="617.5" y1="142.4375" y2="750.0625"/><line style="stroke:#181818;stroke-width:0.5;stroke-dasharray:5.0,5.0;" x1="1102" x2="1102" y1="142.4375" y2="750.0625"/><line style="stroke:#181818;stroke-width:0.5;stroke-dasharray:5.0,5.0;" x1="1257" x2="1257" y1="142.4375" y2="750.0625"/><line style="stroke:#181818;stroke-width:0.5;stroke-dasharray:5.0,5.0;" x1="1383" x2="1383" y1="142.4375" y2="750.0625"/><line style="stroke:#181818;stroke-width:0.5;stroke-dasharray:5.0,5.0;" x1="1528" x2="1528" y1="142.4375" y2="750.0625"/><line style="stroke:#181818;stroke-width:0.5;stroke-dasharray:5.0,5.0;" x1="1716" x2="1716" y1="142.4375" y2="750.0625"/><line style="stroke:#181818;stroke-width:0.5;stroke-dasharray:5.0,5.0;" x1="2060.5" x2="2060.5" y1="142.4375" y2="750.0625"/><rect fill="#E3E3E3" height="49.2188" rx="2.5" ry="2.5" style="stroke:#181818;stroke-width:0.5;" width="197" x="277.5" y="92.2188"/><text fill="#000000" font-family="sans-serif" font-size="14" font-style="italic" lengthAdjust="spacing" textLength="75" x="338.5" y="113.752">&#171;controller&#187;</text><text fill="#000000" font-family="sans-serif" font-size="14" lengthAdjust="spacing" textLength="183" x="284.5" y="131.3613">OperationrRequestController</text><rect fill="#E3E3E3" height="49.2188" rx="2.5" ry="2.5" style="stroke:#181818;stroke-width:0.5;" width="197" x="277.5" y="749.0625"/><text fill="#000000" font-family="sans-serif" font-size="14" font-style="italic" lengthAdjust="spacing" textLength="75" x="338.5" y="770.5957">&#171;controller&#187;</text><text fill="#000000" font-family="sans-serif" font-size="14" lengthAdjust="spacing" textLength="183" x="284.5" y="788.2051">OperationrRequestController</text><rect fill="#E3E3E3" height="49.2188" rx="2.5" ry="2.5" style="stroke:#181818;stroke-width:0.5;" width="177" x="529.5" y="92.2188"/><text fill="#000000" font-family="sans-serif" font-size="14" font-style="italic" lengthAdjust="spacing" textLength="60" x="588" y="113.752">&#171;service&#187;</text><text fill="#000000" font-family="sans-serif" font-size="14" lengthAdjust="spacing" textLength="163" x="536.5" y="131.3613">OperationRequestService</text><rect fill="#E3E3E3" height="49.2188" rx="2.5" ry="2.5" style="stroke:#181818;stroke-width:0.5;" width="177" x="529.5" y="749.0625"/><text fill="#000000" font-family="sans-serif" font-size="14" font-style="italic" lengthAdjust="spacing" textLength="60" x="588" y="770.5957">&#171;service&#187;</text><text fill="#000000" font-family="sans-serif" font-size="14" lengthAdjust="spacing" textLength="163" x="536.5" y="788.2051">OperationRequestService</text><rect fill="#E3E3E3" height="49.2188" rx="2.5" ry="2.5" style="stroke:#181818;stroke-width:0.5;" width="160" x="1022" y="92.2188"/><text fill="#000000" font-family="sans-serif" font-size="14" font-style="italic" lengthAdjust="spacing" textLength="36" x="1084" y="113.752">&#171;dto&#187;</text><text fill="#000000" font-family="sans-serif" font-size="14" lengthAdjust="spacing" textLength="146" x="1029" y="131.3613">OperationRequestDTO</text><rect fill="#E3E3E3" height="49.2188" rx="2.5" ry="2.5" style="stroke:#181818;stroke-width:0.5;" width="160" x="1022" y="749.0625"/><text fill="#000000" font-family="sans-serif" font-size="14" font-style="italic" lengthAdjust="spacing" textLength="36" x="1084" y="770.5957">&#171;dto&#187;</text><text fill="#000000" font-family="sans-serif" font-size="14" lengthAdjust="spacing" textLength="146" x="1029" y="788.2051">OperationRequestDTO</text><rect fill="#E3E3E3" height="49.2188" rx="2.5" ry="2.5" style="stroke:#181818;stroke-width:0.5;" width="130" x="1192" y="92.2188"/><text fill="#000000" font-family="sans-serif" font-size="14" font-style="italic" lengthAdjust="spacing" textLength="62" x="1226" y="113.752">&#171;domain&#187;</text><text fill="#000000" font-family="sans-serif" font-size="14" lengthAdjust="spacing" textLength="116" x="1199" y="131.3613">OperationRequest</text><rect fill="#E3E3E3" height="49.2188" rx="2.5" ry="2.5" style="stroke:#181818;stroke-width:0.5;" width="130" x="1192" y="749.0625"/><text fill="#000000" font-family="sans-serif" font-size="14" font-style="italic" lengthAdjust="spacing" textLength="62" x="1226" y="770.5957">&#171;domain&#187;</text><text fill="#000000" font-family="sans-serif" font-size="14" lengthAdjust="spacing" textLength="116" x="1199" y="788.2051">OperationRequest</text><text fill="#000000" font-family="sans-serif" font-size="14" font-style="italic" lengthAdjust="spacing" textLength="79" x="1341" y="121.752">&#171;repository&#187;</text><text fill="#000000" font-family="sans-serif" font-size="14" lengthAdjust="spacing" textLength="97" x="1332" y="139.3613">StaffRepository</text><path d="M1365.5,71.2188 C1365.5,61.2188 1383.5,61.2188 1383.5,61.2188 C1383.5,61.2188 1401.5,61.2188 1401.5,71.2188 L1401.5,97.2188 C1401.5,107.2188 1383.5,107.2188 1383.5,107.2188 C1383.5,107.2188 1365.5,107.2188 1365.5,97.2188 L1365.5,71.2188 " fill="#E3E3E3" style="stroke:#181818;stroke-width:1.5;"/><path d="M1365.5,71.2188 C1365.5,81.2188 1383.5,81.2188 1383.5,81.2188 C1383.5,81.2188 1401.5,81.2188 1401.5,71.2188 " fill="none" style="stroke:#181818;stroke-width:1.5;"/><text fill="#000000" font-family="sans-serif" font-size="14" font-style="italic" lengthAdjust="spacing" textLength="79" x="1341" y="763.5957">&#171;repository&#187;</text><text fill="#000000" font-family="sans-serif" font-size="14" lengthAdjust="spacing" textLength="97" x="1332" y="781.2051">StaffRepository</text><path d="M1365.5,794.2813 C1365.5,784.2813 1383.5,784.2813 1383.5,784.2813 C1383.5,784.2813 1401.5,784.2813 1401.5,794.2813 L1401.5,820.2813 C1401.5,830.2813 1383.5,830.2813 1383.5,830.2813 C1383.5,830.2813 1365.5,830.2813 1365.5,820.2813 L1365.5,794.2813 " fill="#E3E3E3" style="stroke:#181818;stroke-width:1.5;"/><path d="M1365.5,794.2813 C1365.5,804.2813 1383.5,804.2813 1383.5,804.2813 C1383.5,804.2813 1401.5,804.2813 1401.5,794.2813 " fill="none" style="stroke:#181818;stroke-width:1.5;"/><rect fill="#E3E3E3" height="49.2188" rx="2.5" ry="2.5" style="stroke:#181818;stroke-width:0.5;" width="166" x="1445" y="92.2188"/><text fill="#000000" font-family="sans-serif" font-size="14" font-style="italic" lengthAdjust="spacing" textLength="71" x="1492.5" y="113.752">&#171;interface&#187;</text><text fill="#000000" font-family="sans-serif" font-size="14" lengthAdjust="spacing" textLength="152" x="1452" y="131.3613">StaffRepositoryInterface</text><rect fill="#E3E3E3" height="49.2188" rx="2.5" ry="2.5" style="stroke:#181818;stroke-width:0.5;" width="166" x="1445" y="749.0625"/><text fill="#000000" font-family="sans-serif" font-size="14" font-style="italic" lengthAdjust="spacing" textLength="71" x="1492.5" y="770.5957">&#171;interface&#187;</text><text fill="#000000" font-family="sans-serif" font-size="14" lengthAdjust="spacing" textLength="152" x="1452" y="788.2051">StaffRepositoryInterface</text><text fill="#000000" font-family="sans-serif" font-size="14" font-style="italic" lengthAdjust="spacing" textLength="45" x="1690.5" y="121.752">&#171;repo&#187;</text><text fill="#000000" font-family="sans-serif" font-size="14" lengthAdjust="spacing" textLength="184" x="1621" y="139.3613">OperationRequestRepository</text><path d="M1698,71.2188 C1698,61.2188 1716,61.2188 1716,61.2188 C1716,61.2188 1734,61.2188 1734,71.2188 L1734,97.2188 C1734,107.2188 1716,107.2188 1716,107.2188 C1716,107.2188 1698,107.2188 1698,97.2188 L1698,71.2188 " fill="#E3E3E3" style="stroke:#181818;stroke-width:1.5;"/><path d="M1698,71.2188 C1698,81.2188 1716,81.2188 1716,81.2188 C1716,81.2188 1734,81.2188 1734,71.2188 " fill="none" style="stroke:#181818;stroke-width:1.5;"/><text fill="#000000" font-family="sans-serif" font-size="14" font-style="italic" lengthAdjust="spacing" textLength="45" x="1690.5" y="763.5957">&#171;repo&#187;</text><text fill="#000000" font-family="sans-serif" font-size="14" lengthAdjust="spacing" textLength="184" x="1621" y="781.2051">OperationRequestRepository</text><path d="M1698,794.2813 C1698,784.2813 1716,784.2813 1716,784.2813 C1716,784.2813 1734,784.2813 1734,794.2813 L1734,820.2813 C1734,830.2813 1716,830.2813 1716,830.2813 C1716,830.2813 1698,830.2813 1698,820.2813 L1698,794.2813 " fill="#E3E3E3" style="stroke:#181818;stroke-width:1.5;"/><path d="M1698,794.2813 C1698,804.2813 1716,804.2813 1716,804.2813 C1716,804.2813 1734,804.2813 1734,794.2813 " fill="none" style="stroke:#181818;stroke-width:1.5;"/><rect fill="#E3E3E3" height="49.2188" rx="2.5" ry="2.5" style="stroke:#181818;stroke-width:0.5;" width="185" x="1968.5" y="92.2188"/><text fill="#000000" font-family="sans-serif" font-size="14" font-style="italic" lengthAdjust="spacing" textLength="71" x="2025.5" y="113.752">&#171;interface&#187;</text><text fill="#000000" font-family="sans-serif" font-size="14" lengthAdjust="spacing" textLength="171" x="1975.5" y="131.3613">OperationRequestInterface</text><rect fill="#E3E3E3" height="49.2188" rx="2.5" ry="2.5" style="stroke:#181818;stroke-width:0.5;" width="185" x="1968.5" y="749.0625"/><text fill="#000000" font-family="sans-serif" font-size="14" font-style="italic" lengthAdjust="spacing" textLength="71" x="2025.5" y="770.5957">&#171;interface&#187;</text><text fill="#000000" font-family="sans-serif" font-size="14" lengthAdjust="spacing" textLength="171" x="1975.5" y="788.2051">OperationRequestInterface</text><rect fill="#FFFFFF" height="540.9219" style="stroke:#181818;stroke-width:1.0;" width="10" x="371" y="191.1406"/><rect fill="#FFFFFF" height="480.2188" style="stroke:#181818;stroke-width:1.0;" width="10" x="613" y="221.4922"/><rect fill="#FFFFFF" height="41.3516" style="stroke:#181818;stroke-width:1.0;" width="10" x="618" y="380.8984"/><rect fill="#FFFFFF" height="30.3516" style="stroke:#181818;stroke-width:1.0;" width="10" x="1097" y="641.0078"/><rect fill="#FFFFFF" height="30" style="stroke:#181818;stroke-width:1.0;" width="10" x="1252" y="459.6016"/><rect fill="#FFFFFF" height="90.7031" style="stroke:#181818;stroke-width:1.0;" width="10" x="1711" y="251.8438"/><rect fill="#FFFFFF" height="90.7031" style="stroke:#181818;stroke-width:1.0;" width="10" x="1711" y="519.9531"/><rect fill="#FFFFFF" height="30" style="stroke:#181818;stroke-width:1.0;" width="10" x="2056" y="282.1953"/><rect fill="#FFFFFF" height="30" style="stroke:#181818;stroke-width:1.0;" width="10" x="2056" y="550.3047"/><polygon fill="#181818" points="359,187.1406,369,191.1406,359,195.1406,363,191.1406" style="stroke:#181818;stroke-width:1.0;"/><line style="stroke:#181818;stroke-width:1.0;stroke-dasharray:2.0,2.0;" x1="0" x2="365" y1="191.1406" y2="191.1406"/><text fill="#000000" font-family="sans-serif" font-size="13" lengthAdjust="spacing" textLength="352" x="7" y="169.9326">PUSH /api/staff/operation-request/update/suggested-deadline</text><text fill="#000000" font-family="sans-serif" font-size="13" lengthAdjust="spacing" textLength="270" x="7" y="186.2842">Body: {doctorID,operationID,suggestedDealine}</text><polygon fill="#181818" points="601,217.4922,611,221.4922,601,225.4922,605,221.4922" style="stroke:#181818;stroke-width:1.0;"/><line style="stroke:#181818;stroke-width:1.0;" x1="381" x2="607" y1="221.4922" y2="221.4922"/><text fill="#000000" font-family="sans-serif" font-size="13" lengthAdjust="spacing" textLength="213" x="388" y="216.6357">UpdateAsync(operationRequestDTO)</text><polygon fill="#181818" points="1699,247.8438,1709,251.8438,1699,255.8438,1703,251.8438" style="stroke:#181818;stroke-width:1.0;"/><line style="stroke:#181818;stroke-width:1.0;" x1="623" x2="1705" y1="251.8438" y2="251.8438"/><text fill="#000000" font-family="sans-serif" font-size="13" lengthAdjust="spacing" textLength="316" x="630" y="246.9873">GetOperationAsync(operationRequestDTO.operationId)</text><polygon fill="#181818" points="2044,278.1953,2054,282.1953,2044,286.1953,2048,282.1953" style="stroke:#181818;stroke-width:1.0;"/><line style="stroke:#181818;stroke-width:1.0;" x1="1721" x2="2050" y1="282.1953" y2="282.1953"/><text fill="#000000" font-family="sans-serif" font-size="13" lengthAdjust="spacing" textLength="316" x="1728" y="277.3389">GetOperationAsync(operationRequestDTO.operationId)</text><polygon fill="#181818" points="634,338.5469,624,342.5469,634,346.5469,630,342.5469" style="stroke:#181818;stroke-width:1.0;"/><line style="stroke:#181818;stroke-width:1.0;stroke-dasharray:2.0,2.0;" x1="628" x2="1715" y1="342.5469" y2="342.5469"/><text fill="#000000" font-family="sans-serif" font-size="13" lengthAdjust="spacing" textLength="53" x="640" y="337.6904">operation</text><line style="stroke:#181818;stroke-width:1.0;" x1="623" x2="670" y1="367.8984" y2="367.8984"/><line style="stroke:#181818;stroke-width:1.0;" x1="670" x2="670" y1="367.8984" y2="380.8984"/><line style="stroke:#181818;stroke-width:1.0;" x1="629" x2="670" y1="380.8984" y2="380.8984"/><polygon fill="#181818" points="639,376.8984,629,380.8984,639,384.8984,635,380.8984" style="stroke:#181818;stroke-width:1.0;"/><text fill="#000000" font-family="sans-serif" font-size="13" lengthAdjust="spacing" textLength="374" x="635" y="363.042">new SuggestedDealine(operationRequestDTO.suggestedDealine)</text><line style="stroke:#181818;stroke-width:1.0;stroke-dasharray:2.0,2.0;" x1="628" x2="670" y1="421.25" y2="421.25"/><line style="stroke:#181818;stroke-width:1.0;stroke-dasharray:2.0,2.0;" x1="670" x2="670" y1="421.25" y2="434.25"/><line style="stroke:#181818;stroke-width:1.0;stroke-dasharray:2.0,2.0;" x1="623" x2="670" y1="434.25" y2="434.25"/><polygon fill="#181818" points="633,430.25,623,434.25,633,438.25,629,434.25" style="stroke:#181818;stroke-width:1.0;"/><text fill="#000000" font-family="sans-serif" font-size="13" lengthAdjust="spacing" textLength="128" x="635" y="416.3936">newSuggestedDealine</text><polygon fill="#181818" points="1240,455.6016,1250,459.6016,1240,463.6016,1244,459.6016" style="stroke:#181818;stroke-width:1.0;"/><line style="stroke:#181818;stroke-width:1.0;" x1="623" x2="1246" y1="459.6016" y2="459.6016"/><text fill="#000000" font-family="sans-serif" font-size="13" lengthAdjust="spacing" textLength="257" x="630" y="454.7451">UpdateSuggestedDealine(suggestedDealine)</text><polygon fill="#181818" points="1699,515.9531,1709,519.9531,1699,523.9531,1703,519.9531" style="stroke:#181818;stroke-width:1.0;"/><line style="stroke:#181818;stroke-width:1.0;" x1="623" x2="1705" y1="519.9531" y2="519.9531"/><text fill="#000000" font-family="sans-serif" font-size="13" lengthAdjust="spacing" textLength="177" x="630" y="515.0967">SaveChangesAsync(operation)</text><polygon fill="#181818" points="2044,546.3047,2054,550.3047,2044,554.3047,2048,550.3047" style="stroke:#181818;stroke-width:1.0;"/><line style="stroke:#181818;stroke-width:1.0;" x1="1721" x2="2050" y1="550.3047" y2="550.3047"/><text fill="#000000" font-family="sans-serif" font-size="13" lengthAdjust="spacing" textLength="177" x="1728" y="545.4482">SaveChangesAsync(operation)</text><polygon fill="#181818" points="634,606.6563,624,610.6563,634,614.6563,630,610.6563" style="stroke:#181818;stroke-width:1.0;"/><line style="stroke:#181818;stroke-width:1.0;stroke-dasharray:2.0,2.0;" x1="628" x2="1715" y1="610.6563" y2="610.6563"/><text fill="#000000" font-family="sans-serif" font-size="13" lengthAdjust="spacing" textLength="53" x="640" y="605.7998">operation</text><polygon fill="#181818" points="1085,637.0078,1095,641.0078,1085,645.0078,1089,641.0078" style="stroke:#181818;stroke-width:1.0;"/><line style="stroke:#181818;stroke-width:1.0;" x1="623" x2="1091" y1="641.0078" y2="641.0078"/><text fill="#000000" font-family="sans-serif" font-size="13" lengthAdjust="spacing" textLength="455" x="630" y="636.1514">new OperationRequestDTO(operation.operationID, operation.suggestedDealine)</text><polygon fill="#181818" points="634,667.3594,624,671.3594,634,675.3594,630,671.3594" style="stroke:#181818;stroke-width:1.0;"/><line style="stroke:#181818;stroke-width:1.0;stroke-dasharray:2.0,2.0;" x1="628" x2="1101" y1="671.3594" y2="671.3594"/><text fill="#000000" font-family="sans-serif" font-size="13" lengthAdjust="spacing" textLength="127" x="640" y="666.5029">operationRequestDTO</text><polygon fill="#181818" points="392,697.7109,382,701.7109,392,705.7109,388,701.7109" style="stroke:#181818;stroke-width:1.0;"/><line style="stroke:#181818;stroke-width:1.0;stroke-dasharray:2.0,2.0;" x1="386" x2="617" y1="701.7109" y2="701.7109"/><text fill="#000000" font-family="sans-serif" font-size="13" lengthAdjust="spacing" textLength="127" x="398" y="696.8545">operationRequestDTO</text><polygon fill="#181818" points="11,728.0625,1,732.0625,11,736.0625,7,732.0625" style="stroke:#181818;stroke-width:1.0;"/><line style="stroke:#181818;stroke-width:1.0;stroke-dasharray:2.0,2.0;" x1="5" x2="375" y1="732.0625" y2="732.0625"/><text fill="#000000" font-family="sans-serif" font-size="13" lengthAdjust="spacing" textLength="44" x="17" y="727.2061">200 OK</text><!--SRC=[tLN1Zjem4BtxAtnSf6QXlLH25b8BqdRL0zMctFOocmp1sc2djc65glvxRKWSnoI0LFMolk3WDs_UpBp4-fMB2XHiwLOAcMsKt28rQeT4-vCAibSeC3M74gd2p80eoX2WDv3BDouAkePI8o666mjDyTSEHOPqmQ5mkBiqNOneGbVpoSVFps9LvM1SLBeh2jG6Sxf0ABb0OdaDptW5mj1bXShYf51FZb2RkHH6oR94HK7Ju8cnp3_CPlqaDKUAQi-jD4lGR1dJfzsLqCNFfGjpFupbHbw1E-pPVpPGRe4B6sjx02-WRRiChDTFM4dDZLI7exJeByQKVuZIHj17OL2jeQvmw8mntkn39R7ShgXbTQReIWiwOiBm8IKaIMR1OAVqnohzHiTGyR5sjOnbao5HfnJZdJCJZdLZfIH7o9sNdiLNcH-cz7SkCvlpSV711zkznzVE-qC8P8RlBLSWW11gL-0qAw-spPGUROnVz45aT_BSAwDZh2UjmqwCRZNsivHXQwRq0Orlv23xVLjCFlASFbl8w4_TwWmnIksdyayQ1dLu-WxKBJkosmEw5OG3yNB83UGUqpSGJodmhVrArLRfRKNifvwPD0u8nVcSKT8uvr15brtLbTauzgoU6xJ7NCCTZd3NxPx27kSRUxMWZfps7tnzIxBtO61hoPDvUownjkRxy8lOPh_5p9Qd8zBTYlsrj8c7gd97fE-D26-2ItoNNWYM9E47V4e_JIPq-RrkMn3PWlu2]--></g></svg>