<?xml version="1.0" encoding="us-ascii" standalone="no"?><svg xmlns="http://www.w3.org/2000/svg" xmlns:xlink="http://www.w3.org/1999/xlink" contentStyleType="text/css" height="886px" preserveAspectRatio="none" style="width:1245px;height:886px;background:#FFFFFF;" version="1.1" viewBox="0 0 1245 886" width="1245px" zoomAndPan="magnify"><defs/><g><text fill="#000000" font-family="sans-serif" font-size="14" font-weight="bold" lengthAdjust="spacing" textLength="190" x="520.5" y="24.5332">Class Diagram (CD) - UC017</text><!--class OperationRequestController--><g id="elem_OperationRequestController"><rect codeLine="8" fill="#F1F1F1" height="65.6094" id="OperationRequestController" rx="2.5" ry="2.5" style="stroke:#181818;stroke-width:0.5;" width="256" x="507.5" y="45.6094"/><ellipse cx="543.2" cy="61.6094" fill="#ADD1B2" rx="11" ry="11" style="stroke:#181818;stroke-width:1.0;"/><path d="M545.9656,57.4844 Q546.1219,57.2656 546.3094,57.1563 Q546.4969,57.0469 546.7156,57.0469 Q547.0906,57.0469 547.325,57.3125 Q547.5594,57.5625 547.5594,58.1719 L547.5594,59.625 Q547.5594,60.2344 547.325,60.5 Q547.0906,60.7656 546.7156,60.7656 Q546.3719,60.7656 546.1688,60.5625 Q545.9656,60.375 545.8563,59.8594 Q545.8094,59.5 545.6219,59.3125 Q545.2938,58.9375 544.6844,58.7188 Q544.075,58.5 543.45,58.5 Q542.6844,58.5 542.0438,58.8281 Q541.4188,59.1563 540.9188,59.9063 Q540.4344,60.6563 540.4344,61.6875 L540.4344,62.7813 Q540.4344,64.0156 541.325,64.8438 Q542.2156,65.6563 543.8094,65.6563 Q544.7469,65.6563 545.4031,65.4063 Q545.7938,65.25 546.2156,64.8125 Q546.4813,64.5469 546.6219,64.4688 Q546.7781,64.3906 546.9813,64.3906 Q547.3094,64.3906 547.5594,64.6563 Q547.825,64.9063 547.825,65.25 Q547.825,65.5938 547.4813,66 Q546.9813,66.5781 546.1844,66.9063 Q545.1063,67.3594 543.8094,67.3594 Q542.2938,67.3594 541.0906,66.7344 Q540.1063,66.2344 539.4188,65.1719 Q538.7313,64.0938 538.7313,62.8125 L538.7313,61.6563 Q538.7313,60.3281 539.3406,59.1875 Q539.9656,58.0313 541.0594,57.4219 Q542.1531,56.7969 543.3875,56.7969 Q544.1219,56.7969 544.7625,56.9688 Q545.4188,57.125 545.9656,57.4844 Z " fill="#000000"/><text fill="#000000" font-family="sans-serif" font-size="14" lengthAdjust="spacing" textLength="178" x="561.8" y="67.3379">OperationRequestController</text><line style="stroke:#181818;stroke-width:0.5;" x1="508.5" x2="762.5" y1="77.6094" y2="77.6094"/><line style="stroke:#181818;stroke-width:0.5;" x1="508.5" x2="762.5" y1="85.6094" y2="85.6094"/><text fill="#000000" font-family="sans-serif" font-size="14" lengthAdjust="spacing" textLength="244" x="513.5" y="104.1426">+UpdateAsync(operationRequestDTO)</text></g><!--class OperationRequestService--><g id="elem_OperationRequestService"><rect codeLine="12" fill="#F1F1F1" height="65.6094" id="OperationRequestService" rx="2.5" ry="2.5" style="stroke:#181818;stroke-width:0.5;" width="256" x="507.5" y="189.6094"/><ellipse cx="549.95" cy="205.6094" fill="#ADD1B2" rx="11" ry="11" style="stroke:#181818;stroke-width:1.0;"/><path d="M552.7156,201.4844 Q552.8719,201.2656 553.0594,201.1563 Q553.2469,201.0469 553.4656,201.0469 Q553.8406,201.0469 554.075,201.3125 Q554.3094,201.5625 554.3094,202.1719 L554.3094,203.625 Q554.3094,204.2344 554.075,204.5 Q553.8406,204.7656 553.4656,204.7656 Q553.1219,204.7656 552.9188,204.5625 Q552.7156,204.375 552.6063,203.8594 Q552.5594,203.5 552.3719,203.3125 Q552.0438,202.9375 551.4344,202.7188 Q550.825,202.5 550.2,202.5 Q549.4344,202.5 548.7938,202.8281 Q548.1688,203.1563 547.6688,203.9063 Q547.1844,204.6563 547.1844,205.6875 L547.1844,206.7813 Q547.1844,208.0156 548.075,208.8438 Q548.9656,209.6563 550.5594,209.6563 Q551.4969,209.6563 552.1531,209.4063 Q552.5438,209.25 552.9656,208.8125 Q553.2313,208.5469 553.3719,208.4688 Q553.5281,208.3906 553.7313,208.3906 Q554.0594,208.3906 554.3094,208.6563 Q554.575,208.9063 554.575,209.25 Q554.575,209.5938 554.2313,210 Q553.7313,210.5781 552.9344,210.9063 Q551.8563,211.3594 550.5594,211.3594 Q549.0438,211.3594 547.8406,210.7344 Q546.8563,210.2344 546.1688,209.1719 Q545.4813,208.0938 545.4813,206.8125 L545.4813,205.6563 Q545.4813,204.3281 546.0906,203.1875 Q546.7156,202.0313 547.8094,201.4219 Q548.9031,200.7969 550.1375,200.7969 Q550.8719,200.7969 551.5125,200.9688 Q552.1688,201.125 552.7156,201.4844 Z " fill="#000000"/><text fill="#000000" font-family="sans-serif" font-size="14" lengthAdjust="spacing" textLength="163" x="570.05" y="211.3379">OperationRequestService</text><line style="stroke:#181818;stroke-width:0.5;" x1="508.5" x2="762.5" y1="221.6094" y2="221.6094"/><line style="stroke:#181818;stroke-width:0.5;" x1="508.5" x2="762.5" y1="229.6094" y2="229.6094"/><text fill="#000000" font-family="sans-serif" font-size="14" lengthAdjust="spacing" textLength="244" x="513.5" y="248.1426">+UpdateAsync(operationRequestDTO)</text></g><!--class OperationRequestDTO--><g id="elem_OperationRequestDTO"><rect codeLine="16" fill="#F1F1F1" height="171.2656" id="OperationRequestDTO" rx="2.5" ry="2.5" style="stroke:#181818;stroke-width:0.5;" width="371" x="347" y="333.6094"/><ellipse cx="455.25" cy="349.6094" fill="#ADD1B2" rx="11" ry="11" style="stroke:#181818;stroke-width:1.0;"/><path d="M458.0156,345.4844 Q458.1719,345.2656 458.3594,345.1563 Q458.5469,345.0469 458.7656,345.0469 Q459.1406,345.0469 459.375,345.3125 Q459.6094,345.5625 459.6094,346.1719 L459.6094,347.625 Q459.6094,348.2344 459.375,348.5 Q459.1406,348.7656 458.7656,348.7656 Q458.4219,348.7656 458.2188,348.5625 Q458.0156,348.375 457.9063,347.8594 Q457.8594,347.5 457.6719,347.3125 Q457.3438,346.9375 456.7344,346.7188 Q456.125,346.5 455.5,346.5 Q454.7344,346.5 454.0938,346.8281 Q453.4688,347.1563 452.9688,347.9063 Q452.4844,348.6563 452.4844,349.6875 L452.4844,350.7813 Q452.4844,352.0156 453.375,352.8438 Q454.2656,353.6563 455.8594,353.6563 Q456.7969,353.6563 457.4531,353.4063 Q457.8438,353.25 458.2656,352.8125 Q458.5313,352.5469 458.6719,352.4688 Q458.8281,352.3906 459.0313,352.3906 Q459.3594,352.3906 459.6094,352.6563 Q459.875,352.9063 459.875,353.25 Q459.875,353.5938 459.5313,354 Q459.0313,354.5781 458.2344,354.9063 Q457.1563,355.3594 455.8594,355.3594 Q454.3438,355.3594 453.1406,354.7344 Q452.1563,354.2344 451.4688,353.1719 Q450.7813,352.0938 450.7813,350.8125 L450.7813,349.6563 Q450.7813,348.3281 451.3906,347.1875 Q452.0156,346.0313 453.1094,345.4219 Q454.2031,344.7969 455.4375,344.7969 Q456.1719,344.7969 456.8125,344.9688 Q457.4688,345.125 458.0156,345.4844 Z " fill="#000000"/><text fill="#000000" font-family="sans-serif" font-size="14" lengthAdjust="spacing" textLength="146" x="475.75" y="355.3379">OperationRequestDTO</text><line style="stroke:#181818;stroke-width:0.5;" x1="348" x2="717" y1="365.6094" y2="365.6094"/><text fill="#000000" font-family="sans-serif" font-size="14" lengthAdjust="spacing" textLength="101" x="353" y="384.1426">-operationID: int</text><text fill="#000000" font-family="sans-serif" font-size="14" lengthAdjust="spacing" textLength="188" x="353" y="401.752">-suggestedDealine: DateTime</text><text fill="#000000" font-family="sans-serif" font-size="14" lengthAdjust="spacing" textLength="100" x="353" y="419.3613">-priority: Priority</text><text fill="#000000" font-family="sans-serif" font-size="14" lengthAdjust="spacing" textLength="183" x="353" y="436.9707">-specialization: Specialization</text><line style="stroke:#181818;stroke-width:0.5;" x1="348" x2="717" y1="444.0469" y2="444.0469"/><text fill="#000000" font-family="sans-serif" font-size="14" lengthAdjust="spacing" textLength="329" x="353" y="462.5801">+OperationRequestDTO(operationID, specialization)</text><text fill="#000000" font-family="sans-serif" font-size="14" lengthAdjust="spacing" textLength="288" x="353" y="480.1895">+OperationRequestDTO(operationID, priority)</text><text fill="#000000" font-family="sans-serif" font-size="14" lengthAdjust="spacing" textLength="359" x="353" y="497.7988">+OperationRequestDTO(operationID, suggestedDealine)</text></g><!--class OperationRequest--><g id="elem_OperationRequest"><rect codeLine="26" fill="#F1F1F1" height="171.2656" id="OperationRequest" rx="2.5" ry="2.5" style="stroke:#181818;stroke-width:0.5;" width="305" x="7" y="333.6094"/><ellipse cx="97.25" cy="349.6094" fill="#ADD1B2" rx="11" ry="11" style="stroke:#181818;stroke-width:1.0;"/><path d="M100.0156,345.4844 Q100.1719,345.2656 100.3594,345.1563 Q100.5469,345.0469 100.7656,345.0469 Q101.1406,345.0469 101.375,345.3125 Q101.6094,345.5625 101.6094,346.1719 L101.6094,347.625 Q101.6094,348.2344 101.375,348.5 Q101.1406,348.7656 100.7656,348.7656 Q100.4219,348.7656 100.2188,348.5625 Q100.0156,348.375 99.9063,347.8594 Q99.8594,347.5 99.6719,347.3125 Q99.3438,346.9375 98.7344,346.7188 Q98.125,346.5 97.5,346.5 Q96.7344,346.5 96.0938,346.8281 Q95.4688,347.1563 94.9688,347.9063 Q94.4844,348.6563 94.4844,349.6875 L94.4844,350.7813 Q94.4844,352.0156 95.375,352.8438 Q96.2656,353.6563 97.8594,353.6563 Q98.7969,353.6563 99.4531,353.4063 Q99.8438,353.25 100.2656,352.8125 Q100.5313,352.5469 100.6719,352.4688 Q100.8281,352.3906 101.0313,352.3906 Q101.3594,352.3906 101.6094,352.6563 Q101.875,352.9063 101.875,353.25 Q101.875,353.5938 101.5313,354 Q101.0313,354.5781 100.2344,354.9063 Q99.1563,355.3594 97.8594,355.3594 Q96.3438,355.3594 95.1406,354.7344 Q94.1563,354.2344 93.4688,353.1719 Q92.7813,352.0938 92.7813,350.8125 L92.7813,349.6563 Q92.7813,348.3281 93.3906,347.1875 Q94.0156,346.0313 95.1094,345.4219 Q96.2031,344.7969 97.4375,344.7969 Q98.1719,344.7969 98.8125,344.9688 Q99.4688,345.125 100.0156,345.4844 Z " fill="#000000"/><text fill="#000000" font-family="sans-serif" font-size="14" lengthAdjust="spacing" textLength="116" x="117.75" y="355.3379">OperationRequest</text><line style="stroke:#181818;stroke-width:0.5;" x1="8" x2="311" y1="365.6094" y2="365.6094"/><text fill="#000000" font-family="sans-serif" font-size="14" lengthAdjust="spacing" textLength="101" x="13" y="384.1426">-operationID: int</text><text fill="#000000" font-family="sans-serif" font-size="14" lengthAdjust="spacing" textLength="188" x="13" y="401.752">-suggestedDealine: DateTime</text><text fill="#000000" font-family="sans-serif" font-size="14" lengthAdjust="spacing" textLength="100" x="13" y="419.3613">-priority: Priority</text><text fill="#000000" font-family="sans-serif" font-size="14" lengthAdjust="spacing" textLength="183" x="13" y="436.9707">-specialization: Specialization</text><line style="stroke:#181818;stroke-width:0.5;" x1="8" x2="311" y1="444.0469" y2="444.0469"/><text fill="#000000" font-family="sans-serif" font-size="14" lengthAdjust="spacing" textLength="293" x="13" y="462.5801">+UpdateSuggestedDealine(suggestedDealine)</text><text fill="#000000" font-family="sans-serif" font-size="14" lengthAdjust="spacing" textLength="150" x="13" y="480.1895">+UpdatePriority(priority)</text><text fill="#000000" font-family="sans-serif" font-size="14" lengthAdjust="spacing" textLength="233" x="13" y="497.7988">+UpdateSpecialization(specialization)</text></g><!--class StaffRepository--><g id="elem_StaffRepository"><rect codeLine="36" fill="#F1F1F1" height="83.2188" id="StaffRepository" rx="2.5" ry="2.5" style="stroke:#181818;stroke-width:0.5;" width="225" x="753" y="377.6094"/><ellipse cx="812.75" cy="393.6094" fill="#ADD1B2" rx="11" ry="11" style="stroke:#181818;stroke-width:1.0;"/><path d="M815.5156,389.4844 Q815.6719,389.2656 815.8594,389.1563 Q816.0469,389.0469 816.2656,389.0469 Q816.6406,389.0469 816.875,389.3125 Q817.1094,389.5625 817.1094,390.1719 L817.1094,391.625 Q817.1094,392.2344 816.875,392.5 Q816.6406,392.7656 816.2656,392.7656 Q815.9219,392.7656 815.7188,392.5625 Q815.5156,392.375 815.4063,391.8594 Q815.3594,391.5 815.1719,391.3125 Q814.8438,390.9375 814.2344,390.7188 Q813.625,390.5 813,390.5 Q812.2344,390.5 811.5938,390.8281 Q810.9688,391.1563 810.4688,391.9063 Q809.9844,392.6563 809.9844,393.6875 L809.9844,394.7813 Q809.9844,396.0156 810.875,396.8438 Q811.7656,397.6563 813.3594,397.6563 Q814.2969,397.6563 814.9531,397.4063 Q815.3438,397.25 815.7656,396.8125 Q816.0313,396.5469 816.1719,396.4688 Q816.3281,396.3906 816.5313,396.3906 Q816.8594,396.3906 817.1094,396.6563 Q817.375,396.9063 817.375,397.25 Q817.375,397.5938 817.0313,398 Q816.5313,398.5781 815.7344,398.9063 Q814.6563,399.3594 813.3594,399.3594 Q811.8438,399.3594 810.6406,398.7344 Q809.6563,398.2344 808.9688,397.1719 Q808.2813,396.0938 808.2813,394.8125 L808.2813,393.6563 Q808.2813,392.3281 808.8906,391.1875 Q809.5156,390.0313 810.6094,389.4219 Q811.7031,388.7969 812.9375,388.7969 Q813.6719,388.7969 814.3125,388.9688 Q814.9688,389.125 815.5156,389.4844 Z " fill="#000000"/><text fill="#000000" font-family="sans-serif" font-size="14" lengthAdjust="spacing" textLength="97" x="833.25" y="399.3379">StaffRepository</text><line style="stroke:#181818;stroke-width:0.5;" x1="754" x2="977" y1="409.6094" y2="409.6094"/><line style="stroke:#181818;stroke-width:0.5;" x1="754" x2="977" y1="417.6094" y2="417.6094"/><text fill="#000000" font-family="sans-serif" font-size="14" lengthAdjust="spacing" textLength="213" x="759" y="436.1426">+GetOperationAsync(operationId)</text><text fill="#000000" font-family="sans-serif" font-size="14" lengthAdjust="spacing" textLength="205" x="759" y="453.752">+SaveChangesAsync(operation)</text></g><!--class StaffRepositoryInterface--><g id="elem_StaffRepositoryInterface"><rect codeLine="41" fill="#F1F1F1" height="83.2188" id="StaffRepositoryInterface" rx="2.5" ry="2.5" style="stroke:#181818;stroke-width:0.5;" width="225" x="753" y="600.1094"/><ellipse cx="786.45" cy="616.1094" fill="#ADD1B2" rx="11" ry="11" style="stroke:#181818;stroke-width:1.0;"/><path d="M789.2156,611.9844 Q789.3719,611.7656 789.5594,611.6563 Q789.7469,611.5469 789.9656,611.5469 Q790.3406,611.5469 790.575,611.8125 Q790.8094,612.0625 790.8094,612.6719 L790.8094,614.125 Q790.8094,614.7344 790.575,615 Q790.3406,615.2656 789.9656,615.2656 Q789.6219,615.2656 789.4188,615.0625 Q789.2156,614.875 789.1063,614.3594 Q789.0594,614 788.8719,613.8125 Q788.5438,613.4375 787.9344,613.2188 Q787.325,613 786.7,613 Q785.9344,613 785.2938,613.3281 Q784.6688,613.6563 784.1688,614.4063 Q783.6844,615.1563 783.6844,616.1875 L783.6844,617.2813 Q783.6844,618.5156 784.575,619.3438 Q785.4656,620.1563 787.0594,620.1563 Q787.9969,620.1563 788.6531,619.9063 Q789.0438,619.75 789.4656,619.3125 Q789.7313,619.0469 789.8719,618.9688 Q790.0281,618.8906 790.2313,618.8906 Q790.5594,618.8906 790.8094,619.1563 Q791.075,619.4063 791.075,619.75 Q791.075,620.0938 790.7313,620.5 Q790.2313,621.0781 789.4344,621.4063 Q788.3563,621.8594 787.0594,621.8594 Q785.5438,621.8594 784.3406,621.2344 Q783.3563,620.7344 782.6688,619.6719 Q781.9813,618.5938 781.9813,617.3125 L781.9813,616.1563 Q781.9813,614.8281 782.5906,613.6875 Q783.2156,612.5313 784.3094,611.9219 Q785.4031,611.2969 786.6375,611.2969 Q787.3719,611.2969 788.0125,611.4688 Q788.6688,611.625 789.2156,611.9844 Z " fill="#000000"/><text fill="#000000" font-family="sans-serif" font-size="14" lengthAdjust="spacing" textLength="152" x="804.55" y="621.8379">StaffRepositoryInterface</text><line style="stroke:#181818;stroke-width:0.5;" x1="754" x2="977" y1="632.1094" y2="632.1094"/><line style="stroke:#181818;stroke-width:0.5;" x1="754" x2="977" y1="640.1094" y2="640.1094"/><text fill="#000000" font-family="sans-serif" font-size="14" lengthAdjust="spacing" textLength="213" x="759" y="658.6426">+GetOperationAsync(operationId)</text><text fill="#000000" font-family="sans-serif" font-size="14" lengthAdjust="spacing" textLength="205" x="759" y="676.252">+SaveChangesAsync(operation)</text></g><!--class OperationRequestRepository--><g id="elem_OperationRequestRepository"><rect codeLine="46" fill="#F1F1F1" height="83.2188" id="OperationRequestRepository" rx="2.5" ry="2.5" style="stroke:#181818;stroke-width:0.5;" width="225" x="1013" y="377.6094"/><ellipse cx="1032.05" cy="393.6094" fill="#ADD1B2" rx="11" ry="11" style="stroke:#181818;stroke-width:1.0;"/><path d="M1034.8156,389.4844 Q1034.9719,389.2656 1035.1594,389.1563 Q1035.3469,389.0469 1035.5656,389.0469 Q1035.9406,389.0469 1036.175,389.3125 Q1036.4094,389.5625 1036.4094,390.1719 L1036.4094,391.625 Q1036.4094,392.2344 1036.175,392.5 Q1035.9406,392.7656 1035.5656,392.7656 Q1035.2219,392.7656 1035.0188,392.5625 Q1034.8156,392.375 1034.7063,391.8594 Q1034.6594,391.5 1034.4719,391.3125 Q1034.1438,390.9375 1033.5344,390.7188 Q1032.925,390.5 1032.3,390.5 Q1031.5344,390.5 1030.8938,390.8281 Q1030.2688,391.1563 1029.7688,391.9063 Q1029.2844,392.6563 1029.2844,393.6875 L1029.2844,394.7813 Q1029.2844,396.0156 1030.175,396.8438 Q1031.0656,397.6563 1032.6594,397.6563 Q1033.5969,397.6563 1034.2531,397.4063 Q1034.6438,397.25 1035.0656,396.8125 Q1035.3313,396.5469 1035.4719,396.4688 Q1035.6281,396.3906 1035.8313,396.3906 Q1036.1594,396.3906 1036.4094,396.6563 Q1036.675,396.9063 1036.675,397.25 Q1036.675,397.5938 1036.3313,398 Q1035.8313,398.5781 1035.0344,398.9063 Q1033.9563,399.3594 1032.6594,399.3594 Q1031.1438,399.3594 1029.9406,398.7344 Q1028.9563,398.2344 1028.2688,397.1719 Q1027.5813,396.0938 1027.5813,394.8125 L1027.5813,393.6563 Q1027.5813,392.3281 1028.1906,391.1875 Q1028.8156,390.0313 1029.9094,389.4219 Q1031.0031,388.7969 1032.2375,388.7969 Q1032.9719,388.7969 1033.6125,388.9688 Q1034.2688,389.125 1034.8156,389.4844 Z " fill="#000000"/><text fill="#000000" font-family="sans-serif" font-size="14" lengthAdjust="spacing" textLength="184" x="1046.95" y="399.3379">OperationRequestRepository</text><line style="stroke:#181818;stroke-width:0.5;" x1="1014" x2="1237" y1="409.6094" y2="409.6094"/><line style="stroke:#181818;stroke-width:0.5;" x1="1014" x2="1237" y1="417.6094" y2="417.6094"/><text fill="#000000" font-family="sans-serif" font-size="14" lengthAdjust="spacing" textLength="213" x="1019" y="436.1426">+GetOperationAsync(operationId)</text><text fill="#000000" font-family="sans-serif" font-size="14" lengthAdjust="spacing" textLength="205" x="1019" y="453.752">+SaveChangesAsync(operation)</text></g><!--class OperationRequestInterface--><g id="elem_OperationRequestInterface"><rect codeLine="51" fill="#F1F1F1" height="83.2188" id="OperationRequestInterface" rx="2.5" ry="2.5" style="stroke:#181818;stroke-width:0.5;" width="225" x="1013" y="600.1094"/><ellipse cx="1037.9" cy="616.1094" fill="#ADD1B2" rx="11" ry="11" style="stroke:#181818;stroke-width:1.0;"/><path d="M1040.6656,611.9844 Q1040.8219,611.7656 1041.0094,611.6563 Q1041.1969,611.5469 1041.4156,611.5469 Q1041.7906,611.5469 1042.025,611.8125 Q1042.2594,612.0625 1042.2594,612.6719 L1042.2594,614.125 Q1042.2594,614.7344 1042.025,615 Q1041.7906,615.2656 1041.4156,615.2656 Q1041.0719,615.2656 1040.8688,615.0625 Q1040.6656,614.875 1040.5563,614.3594 Q1040.5094,614 1040.3219,613.8125 Q1039.9938,613.4375 1039.3844,613.2188 Q1038.775,613 1038.15,613 Q1037.3844,613 1036.7438,613.3281 Q1036.1188,613.6563 1035.6188,614.4063 Q1035.1344,615.1563 1035.1344,616.1875 L1035.1344,617.2813 Q1035.1344,618.5156 1036.025,619.3438 Q1036.9156,620.1563 1038.5094,620.1563 Q1039.4469,620.1563 1040.1031,619.9063 Q1040.4938,619.75 1040.9156,619.3125 Q1041.1813,619.0469 1041.3219,618.9688 Q1041.4781,618.8906 1041.6813,618.8906 Q1042.0094,618.8906 1042.2594,619.1563 Q1042.525,619.4063 1042.525,619.75 Q1042.525,620.0938 1042.1813,620.5 Q1041.6813,621.0781 1040.8844,621.4063 Q1039.8063,621.8594 1038.5094,621.8594 Q1036.9938,621.8594 1035.7906,621.2344 Q1034.8063,620.7344 1034.1188,619.6719 Q1033.4313,618.5938 1033.4313,617.3125 L1033.4313,616.1563 Q1033.4313,614.8281 1034.0406,613.6875 Q1034.6656,612.5313 1035.7594,611.9219 Q1036.8531,611.2969 1038.0875,611.2969 Q1038.8219,611.2969 1039.4625,611.4688 Q1040.1188,611.625 1040.6656,611.9844 Z " fill="#000000"/><text fill="#000000" font-family="sans-serif" font-size="14" lengthAdjust="spacing" textLength="171" x="1054.1" y="621.8379">OperationRequestInterface</text><line style="stroke:#181818;stroke-width:0.5;" x1="1014" x2="1237" y1="632.1094" y2="632.1094"/><line style="stroke:#181818;stroke-width:0.5;" x1="1014" x2="1237" y1="640.1094" y2="640.1094"/><text fill="#000000" font-family="sans-serif" font-size="14" lengthAdjust="spacing" textLength="213" x="1019" y="658.6426">+GetOperationAsync(operationId)</text><text fill="#000000" font-family="sans-serif" font-size="14" lengthAdjust="spacing" textLength="205" x="1019" y="676.252">+SaveChangesAsync(operation)</text></g><!--class DateTime--><g id="elem_DateTime"><rect codeLine="56" fill="#F1F1F1" height="83.2188" id="DateTime" rx="2.5" ry="2.5" style="stroke:#181818;stroke-width:0.5;" width="93" x="276" y="600.1094"/><ellipse cx="291" cy="616.1094" fill="#ADD1B2" rx="11" ry="11" style="stroke:#181818;stroke-width:1.0;"/><path d="M293.7656,611.9844 Q293.9219,611.7656 294.1094,611.6563 Q294.2969,611.5469 294.5156,611.5469 Q294.8906,611.5469 295.125,611.8125 Q295.3594,612.0625 295.3594,612.6719 L295.3594,614.125 Q295.3594,614.7344 295.125,615 Q294.8906,615.2656 294.5156,615.2656 Q294.1719,615.2656 293.9688,615.0625 Q293.7656,614.875 293.6563,614.3594 Q293.6094,614 293.4219,613.8125 Q293.0938,613.4375 292.4844,613.2188 Q291.875,613 291.25,613 Q290.4844,613 289.8438,613.3281 Q289.2188,613.6563 288.7188,614.4063 Q288.2344,615.1563 288.2344,616.1875 L288.2344,617.2813 Q288.2344,618.5156 289.125,619.3438 Q290.0156,620.1563 291.6094,620.1563 Q292.5469,620.1563 293.2031,619.9063 Q293.5938,619.75 294.0156,619.3125 Q294.2813,619.0469 294.4219,618.9688 Q294.5781,618.8906 294.7813,618.8906 Q295.1094,618.8906 295.3594,619.1563 Q295.625,619.4063 295.625,619.75 Q295.625,620.0938 295.2813,620.5 Q294.7813,621.0781 293.9844,621.4063 Q292.9063,621.8594 291.6094,621.8594 Q290.0938,621.8594 288.8906,621.2344 Q287.9063,620.7344 287.2188,619.6719 Q286.5313,618.5938 286.5313,617.3125 L286.5313,616.1563 Q286.5313,614.8281 287.1406,613.6875 Q287.7656,612.5313 288.8594,611.9219 Q289.9531,611.2969 291.1875,611.2969 Q291.9219,611.2969 292.5625,611.4688 Q293.2188,611.625 293.7656,611.9844 Z " fill="#000000"/><text fill="#000000" font-family="sans-serif" font-size="14" lengthAdjust="spacing" textLength="61" x="305" y="621.8379">DateTime</text><line style="stroke:#181818;stroke-width:0.5;" x1="277" x2="368" y1="632.1094" y2="632.1094"/><text fill="#000000" font-family="sans-serif" font-size="14" lengthAdjust="spacing" textLength="71" x="282" y="650.6426">-date: Date</text><text fill="#000000" font-family="sans-serif" font-size="14" lengthAdjust="spacing" textLength="70" x="282" y="668.252">-time: Time</text><line style="stroke:#181818;stroke-width:0.5;" x1="277" x2="368" y1="675.3281" y2="675.3281"/></g><!--class Date--><g id="elem_Date"><rect codeLine="61" fill="#F1F1F1" height="100.8281" id="Date" rx="2.5" ry="2.5" style="stroke:#181818;stroke-width:0.5;" width="79" x="222" y="778.6094"/><ellipse cx="244.65" cy="794.6094" fill="#ADD1B2" rx="11" ry="11" style="stroke:#181818;stroke-width:1.0;"/><path d="M247.4156,790.4844 Q247.5719,790.2656 247.7594,790.1563 Q247.9469,790.0469 248.1656,790.0469 Q248.5406,790.0469 248.775,790.3125 Q249.0094,790.5625 249.0094,791.1719 L249.0094,792.625 Q249.0094,793.2344 248.775,793.5 Q248.5406,793.7656 248.1656,793.7656 Q247.8219,793.7656 247.6188,793.5625 Q247.4156,793.375 247.3063,792.8594 Q247.2594,792.5 247.0719,792.3125 Q246.7438,791.9375 246.1344,791.7188 Q245.525,791.5 244.9,791.5 Q244.1344,791.5 243.4938,791.8281 Q242.8688,792.1563 242.3688,792.9063 Q241.8844,793.6563 241.8844,794.6875 L241.8844,795.7813 Q241.8844,797.0156 242.775,797.8438 Q243.6656,798.6563 245.2594,798.6563 Q246.1969,798.6563 246.8531,798.4063 Q247.2438,798.25 247.6656,797.8125 Q247.9313,797.5469 248.0719,797.4688 Q248.2281,797.3906 248.4313,797.3906 Q248.7594,797.3906 249.0094,797.6563 Q249.275,797.9063 249.275,798.25 Q249.275,798.5938 248.9313,799 Q248.4313,799.5781 247.6344,799.9063 Q246.5563,800.3594 245.2594,800.3594 Q243.7438,800.3594 242.5406,799.7344 Q241.5563,799.2344 240.8688,798.1719 Q240.1813,797.0938 240.1813,795.8125 L240.1813,794.6563 Q240.1813,793.3281 240.7906,792.1875 Q241.4156,791.0313 242.5094,790.4219 Q243.6031,789.7969 244.8375,789.7969 Q245.5719,789.7969 246.2125,789.9688 Q246.8688,790.125 247.4156,790.4844 Z " fill="#000000"/><text fill="#000000" font-family="sans-serif" font-size="14" lengthAdjust="spacing" textLength="30" x="260.35" y="800.3379">Date</text><line style="stroke:#181818;stroke-width:0.5;" x1="223" x2="300" y1="810.6094" y2="810.6094"/><text fill="#000000" font-family="sans-serif" font-size="14" lengthAdjust="spacing" textLength="51" x="228" y="829.1426">-day: int</text><text fill="#000000" font-family="sans-serif" font-size="14" lengthAdjust="spacing" textLength="67" x="228" y="846.752">-month: int</text><text fill="#000000" font-family="sans-serif" font-size="14" lengthAdjust="spacing" textLength="56" x="228" y="864.3613">-year: int</text><line style="stroke:#181818;stroke-width:0.5;" x1="223" x2="300" y1="871.4375" y2="871.4375"/></g><!--class Time--><g id="elem_Time"><rect codeLine="67" fill="#F1F1F1" height="100.8281" id="Time" rx="2.5" ry="2.5" style="stroke:#181818;stroke-width:0.5;" width="93" x="336" y="778.6094"/><ellipse cx="364.5" cy="794.6094" fill="#ADD1B2" rx="11" ry="11" style="stroke:#181818;stroke-width:1.0;"/><path d="M367.2656,790.4844 Q367.4219,790.2656 367.6094,790.1563 Q367.7969,790.0469 368.0156,790.0469 Q368.3906,790.0469 368.625,790.3125 Q368.8594,790.5625 368.8594,791.1719 L368.8594,792.625 Q368.8594,793.2344 368.625,793.5 Q368.3906,793.7656 368.0156,793.7656 Q367.6719,793.7656 367.4688,793.5625 Q367.2656,793.375 367.1563,792.8594 Q367.1094,792.5 366.9219,792.3125 Q366.5938,791.9375 365.9844,791.7188 Q365.375,791.5 364.75,791.5 Q363.9844,791.5 363.3438,791.8281 Q362.7188,792.1563 362.2188,792.9063 Q361.7344,793.6563 361.7344,794.6875 L361.7344,795.7813 Q361.7344,797.0156 362.625,797.8438 Q363.5156,798.6563 365.1094,798.6563 Q366.0469,798.6563 366.7031,798.4063 Q367.0938,798.25 367.5156,797.8125 Q367.7813,797.5469 367.9219,797.4688 Q368.0781,797.3906 368.2813,797.3906 Q368.6094,797.3906 368.8594,797.6563 Q369.125,797.9063 369.125,798.25 Q369.125,798.5938 368.7813,799 Q368.2813,799.5781 367.4844,799.9063 Q366.4063,800.3594 365.1094,800.3594 Q363.5938,800.3594 362.3906,799.7344 Q361.4063,799.2344 360.7188,798.1719 Q360.0313,797.0938 360.0313,795.8125 L360.0313,794.6563 Q360.0313,793.3281 360.6406,792.1875 Q361.2656,791.0313 362.3594,790.4219 Q363.4531,789.7969 364.6875,789.7969 Q365.4219,789.7969 366.0625,789.9688 Q366.7188,790.125 367.2656,790.4844 Z " fill="#000000"/><text fill="#000000" font-family="sans-serif" font-size="14" lengthAdjust="spacing" textLength="31" x="381.5" y="800.3379">Time</text><line style="stroke:#181818;stroke-width:0.5;" x1="337" x2="428" y1="810.6094" y2="810.6094"/><text fill="#000000" font-family="sans-serif" font-size="14" lengthAdjust="spacing" textLength="64" x="342" y="829.1426">-hours: int</text><text fill="#000000" font-family="sans-serif" font-size="14" lengthAdjust="spacing" textLength="77" x="342" y="846.752">-minutes: int</text><text fill="#000000" font-family="sans-serif" font-size="14" lengthAdjust="spacing" textLength="81" x="342" y="864.3613">-seconds: int</text><line style="stroke:#181818;stroke-width:0.5;" x1="337" x2="428" y1="871.4375" y2="871.4375"/></g><!--class Specialization--><g id="elem_Specialization"><rect codeLine="73" fill="#F1F1F1" height="118.4375" id="Specialization" rx="2.5" ry="2.5" style="stroke:#181818;stroke-width:0.5;" width="223" x="408" y="582.6094"/><ellipse cx="472.25" cy="598.6094" fill="#EB937F" rx="11" ry="11" style="stroke:#181818;stroke-width:1.0;"/><path d="M471.1094,599.4063 L471.1094,601.9063 L475.4375,601.9063 L475.4375,600.9844 Q475.4375,600.375 475.6719,600.1094 Q475.9219,599.8438 476.2969,599.8438 Q476.6719,599.8438 476.9063,600.1094 Q477.1406,600.375 477.1406,600.9844 L477.1406,603.6094 L469.1406,603.6094 Q468.5156,603.6094 468.25,603.375 Q468,603.1406 468,602.75 Q468,602.375 468.2656,602.1406 Q468.5313,601.9063 469.1406,601.9063 L469.4063,601.9063 L469.4063,595.25 L469.1406,595.25 Q468.5156,595.25 468.25,595.0156 Q468,594.7813 468,594.3906 Q468,594.0156 468.25,593.7813 Q468.5156,593.5469 469.1406,593.5469 L476.7656,593.5469 L476.7656,596.1406 Q476.7656,596.75 476.5313,597.0156 Q476.3125,597.2656 475.9219,597.2656 Q475.5469,597.2656 475.3125,597.0156 Q475.0781,596.75 475.0781,596.1406 L475.0781,595.25 L471.1094,595.25 L471.1094,597.7031 L472.5938,597.7031 Q472.5938,597.0469 472.7188,596.8594 Q472.9844,596.4531 473.4531,596.4531 Q473.8281,596.4531 474.0625,596.7188 Q474.2969,596.9688 474.2969,597.5781 L474.2969,599.5469 Q474.2969,600.0938 474.1719,600.2813 Q473.9063,600.6719 473.4531,600.6719 Q472.9844,600.6719 472.7188,600.2656 Q472.5938,600.0781 472.5938,599.4063 L471.1094,599.4063 Z " fill="#000000"/><text fill="#000000" font-family="sans-serif" font-size="14" lengthAdjust="spacing" textLength="86" x="492.75" y="604.3379">Specialization</text><line style="stroke:#181818;stroke-width:0.5;" x1="409" x2="630" y1="614.6094" y2="614.6094"/><text fill="#000000" font-family="sans-serif" font-size="14" lengthAdjust="spacing" textLength="142" x="414" y="633.1426">+ANAESTHESIOLOGY</text><text fill="#000000" font-family="sans-serif" font-size="14" lengthAdjust="spacing" textLength="100" x="414" y="650.752">+CARDIOLOGY</text><text fill="#000000" font-family="sans-serif" font-size="14" lengthAdjust="spacing" textLength="108" x="414" y="668.3613">+ORTHOPEDICS</text><line style="stroke:#181818;stroke-width:0.5;" x1="409" x2="630" y1="675.4375" y2="675.4375"/><text fill="#000000" font-family="sans-serif" font-size="14" lengthAdjust="spacing" textLength="211" x="414" y="693.9707">+Specialization(specialization: int)</text></g><!--class Priority--><g id="elem_Priority"><rect codeLine="80" fill="#F1F1F1" height="118.4375" id="Priority" rx="2.5" ry="2.5" style="stroke:#181818;stroke-width:0.5;" width="140" x="91.5" y="582.6094"/><ellipse cx="135.3" cy="598.6094" fill="#EB937F" rx="11" ry="11" style="stroke:#181818;stroke-width:1.0;"/><path d="M134.1594,599.4063 L134.1594,601.9063 L138.4875,601.9063 L138.4875,600.9844 Q138.4875,600.375 138.7219,600.1094 Q138.9719,599.8438 139.3469,599.8438 Q139.7219,599.8438 139.9563,600.1094 Q140.1906,600.375 140.1906,600.9844 L140.1906,603.6094 L132.1906,603.6094 Q131.5656,603.6094 131.3,603.375 Q131.05,603.1406 131.05,602.75 Q131.05,602.375 131.3156,602.1406 Q131.5813,601.9063 132.1906,601.9063 L132.4563,601.9063 L132.4563,595.25 L132.1906,595.25 Q131.5656,595.25 131.3,595.0156 Q131.05,594.7813 131.05,594.3906 Q131.05,594.0156 131.3,593.7813 Q131.5656,593.5469 132.1906,593.5469 L139.8156,593.5469 L139.8156,596.1406 Q139.8156,596.75 139.5813,597.0156 Q139.3625,597.2656 138.9719,597.2656 Q138.5969,597.2656 138.3625,597.0156 Q138.1281,596.75 138.1281,596.1406 L138.1281,595.25 L134.1594,595.25 L134.1594,597.7031 L135.6438,597.7031 Q135.6438,597.0469 135.7688,596.8594 Q136.0344,596.4531 136.5031,596.4531 Q136.8781,596.4531 137.1125,596.7188 Q137.3469,596.9688 137.3469,597.5781 L137.3469,599.5469 Q137.3469,600.0938 137.2219,600.2813 Q136.9563,600.6719 136.5031,600.6719 Q136.0344,600.6719 135.7688,600.2656 Q135.6438,600.0781 135.6438,599.4063 L134.1594,599.4063 Z " fill="#000000"/><text fill="#000000" font-family="sans-serif" font-size="14" lengthAdjust="spacing" textLength="44" x="155.7" y="604.3379">Priority</text><line style="stroke:#181818;stroke-width:0.5;" x1="92.5" x2="230.5" y1="614.6094" y2="614.6094"/><text fill="#000000" font-family="sans-serif" font-size="14" lengthAdjust="spacing" textLength="74" x="97.5" y="633.1426">+ELECTIVE</text><text fill="#000000" font-family="sans-serif" font-size="14" lengthAdjust="spacing" textLength="65" x="97.5" y="650.752">+URGENT</text><text fill="#000000" font-family="sans-serif" font-size="14" lengthAdjust="spacing" textLength="95" x="97.5" y="668.3613">+EMERGENCY</text><line style="stroke:#181818;stroke-width:0.5;" x1="92.5" x2="230.5" y1="675.4375" y2="675.4375"/><text fill="#000000" font-family="sans-serif" font-size="14" lengthAdjust="spacing" textLength="128" x="97.5" y="693.9707">+Priority(priority: int)</text></g><!--link OperationRequestController to OperationRequestService--><g id="link_OperationRequestController_OperationRequestService"><path codeLine="87" d="M635.5,111.8294 C635.5,135.0694 635.5,166.3094 635.5,189.5194 " fill="none" id="OperationRequestController-OperationRequestService" style="stroke:#181818;stroke-width:1.0;"/><polygon fill="#000000" points="640.5,155.7852,643.4389,146.7401,637.5611,146.7401,640.5,155.7852" style="stroke:#000000;stroke-width:1.0;"/><text fill="#000000" font-family="sans-serif" font-size="13" lengthAdjust="spacing" textLength="28" x="649.5" y="156.1045">uses</text><text fill="#000000" font-family="sans-serif" font-size="13" lengthAdjust="spacing" textLength="7" x="627.8766" y="132.7329">1</text><text fill="#000000" font-family="sans-serif" font-size="13" lengthAdjust="spacing" textLength="7" x="627.7781" y="178.6162">1</text></g><!--link OperationRequestService to OperationRequestDTO--><g id="link_OperationRequestService_OperationRequestDTO"><path codeLine="89" d="M618.49,255.7294 C607.24,276.9794 591.91,305.9194 577.31,333.4794 " fill="none" id="OperationRequestService-OperationRequestDTO" style="stroke:#181818;stroke-width:1.0;"/><polygon fill="#000000" points="605.1598,299.2037,611.9904,292.5861,606.7962,289.8349,605.1598,299.2037" style="stroke:#000000;stroke-width:1.0;"/><text fill="#000000" font-family="sans-serif" font-size="13" lengthAdjust="spacing" textLength="28" x="616.5" y="300.1045">uses</text><text fill="#000000" font-family="sans-serif" font-size="13" lengthAdjust="spacing" textLength="7" x="607.8367" y="276.6151">1</text><text fill="#000000" font-family="sans-serif" font-size="13" lengthAdjust="spacing" textLength="7" x="573.9892" y="322.6394">1</text></g><!--link OperationRequestService to OperationRequest--><g id="link_OperationRequestService_OperationRequest"><path codeLine="90" d="M537.22,255.6894 C476.66,276.2494 397.78,304.4794 329.5,333.6094 C323.74,336.0694 317.9,338.6194 312.02,341.2494 " fill="none" id="OperationRequestService-OperationRequest" style="stroke:#181818;stroke-width:1.0;"/><polygon fill="#000000" points="446.826,296.561,456.3252,296.0958,454.2376,290.6012,446.826,296.561" style="stroke:#000000;stroke-width:1.0;"/><text fill="#000000" font-family="sans-serif" font-size="13" lengthAdjust="spacing" textLength="28" x="460.5" y="300.1045">uses</text><text fill="#000000" font-family="sans-serif" font-size="13" lengthAdjust="spacing" textLength="7" x="511.4543" y="276.827">1</text><text fill="#000000" font-family="sans-serif" font-size="13" lengthAdjust="spacing" textLength="7" x="320.0648" y="334.3196">1</text></g><!--link OperationRequestService to StaffRepository--><g id="link_OperationRequestService_StaffRepository"><path codeLine="91" d="M673.48,255.7294 C712.91,289.0694 774.68,341.3094 817.47,377.4994 " fill="none" id="OperationRequestService-StaffRepository" style="stroke:#181818;stroke-width:1.0;"/><polygon fill="#000000" points="739.3178,298.0138,734.3091,289.9291,730.5136,294.4172,739.3178,298.0138" style="stroke:#000000;stroke-width:1.0;"/><text fill="#000000" font-family="sans-serif" font-size="13" lengthAdjust="spacing" textLength="28" x="744.5" y="300.1045">uses</text><text fill="#000000" font-family="sans-serif" font-size="13" lengthAdjust="spacing" textLength="7" x="672.6218" y="276.6151">1</text><text fill="#000000" font-family="sans-serif" font-size="13" lengthAdjust="spacing" textLength="7" x="801.9353" y="366.7888">1</text></g><!--link OperationRequestService to OperationRequestRepository--><g id="link_OperationRequestService_OperationRequestRepository"><path codeLine="92" d="M763.67,253.4094 C833.9,272.0394 921.47,299.0794 995.5,333.6094 C1021.36,345.6694 1048.09,362.2294 1070.54,377.4994 " fill="none" id="OperationRequestService-OperationRequestRepository" style="stroke:#181818;stroke-width:1.0;"/><polygon fill="#000000" points="929.1354,296.6596,921.8517,290.5441,919.6482,295.9933,929.1354,296.6596" style="stroke:#000000;stroke-width:1.0;"/><text fill="#000000" font-family="sans-serif" font-size="13" lengthAdjust="spacing" textLength="28" x="933.5" y="300.1045">uses</text><text fill="#000000" font-family="sans-serif" font-size="13" lengthAdjust="spacing" textLength="7" x="771.6936" y="252.3165">1</text><text fill="#000000" font-family="sans-serif" font-size="13" lengthAdjust="spacing" textLength="7" x="1053.8576" y="366.7888">1</text></g><!--link OperationRequestRepository to OperationRequestInterface--><g id="link_OperationRequestRepository_OperationRequestInterface"><path codeLine="93" d="M1125.5,460.8094 C1125.5,500.3794 1125.5,560.1594 1125.5,599.7694 " fill="none" id="OperationRequestRepository-OperationRequestInterface" style="stroke:#181818;stroke-width:1.0;"/><polygon fill="#000000" points="1130.5,548.7852,1133.4389,539.7401,1127.5611,539.7401,1130.5,548.7852" style="stroke:#000000;stroke-width:1.0;"/><text fill="#000000" font-family="sans-serif" font-size="13" lengthAdjust="spacing" textLength="28" x="1139.5" y="549.1045">uses</text><text fill="#000000" font-family="sans-serif" font-size="13" lengthAdjust="spacing" textLength="7" x="1117.9422" y="482.236">1</text><text fill="#000000" font-family="sans-serif" font-size="13" lengthAdjust="spacing" textLength="7" x="1117.9422" y="589.3318">1</text></g><!--link StaffRepository to StaffRepositoryInterface--><g id="link_StaffRepository_StaffRepositoryInterface"><path codeLine="95" d="M865.5,460.8094 C865.5,500.3794 865.5,560.1594 865.5,599.7694 " fill="none" id="StaffRepository-StaffRepositoryInterface" style="stroke:#181818;stroke-width:1.0;"/><polygon fill="#000000" points="870.5,548.7852,873.4389,539.7401,867.5611,539.7401,870.5,548.7852" style="stroke:#000000;stroke-width:1.0;"/><text fill="#000000" font-family="sans-serif" font-size="13" lengthAdjust="spacing" textLength="28" x="879.5" y="549.1045">uses</text><text fill="#000000" font-family="sans-serif" font-size="13" lengthAdjust="spacing" textLength="7" x="857.9422" y="482.236">1</text><text fill="#000000" font-family="sans-serif" font-size="13" lengthAdjust="spacing" textLength="7" x="857.9422" y="589.3318">1</text></g><!--link OperationRequestDTO to DateTime--><g id="link_OperationRequestDTO_DateTime"><path codeLine="97" d="M464.74,504.7894 C450.85,521.0394 436.03,537.6494 421.5,552.6094 C405.16,569.4394 386.12,586.8294 369.13,601.6594 " fill="none" id="OperationRequestDTO-DateTime" style="stroke:#181818;stroke-width:1.0;"/><polygon fill="#000000" points="439.9877,547.3438,448.4332,542.9707,444.2498,538.8417,439.9877,547.3438" style="stroke:#000000;stroke-width:1.0;"/><text fill="#000000" font-family="sans-serif" font-size="13" lengthAdjust="spacing" textLength="21" x="452.5" y="549.1045">has</text><text fill="#000000" font-family="sans-serif" font-size="13" lengthAdjust="spacing" textLength="7" x="451.6161" y="526.3388">1</text><text fill="#000000" font-family="sans-serif" font-size="13" lengthAdjust="spacing" textLength="7" x="377.1195" y="591.523">1</text></g><!--link OperationRequestDTO to Specialization--><g id="link_OperationRequestDTO_Specialization"><path codeLine="98" d="M527.51,504.7294 C525.98,530.7194 524.33,558.7194 522.93,582.5094 " fill="none" id="OperationRequestDTO-Specialization" style="stroke:#181818;stroke-width:1.0;"/><polygon fill="#000000" points="531.2061,548.7765,534.6716,539.9198,528.8039,539.5743,531.2061,548.7765" style="stroke:#000000;stroke-width:1.0;"/><text fill="#000000" font-family="sans-serif" font-size="13" lengthAdjust="spacing" textLength="21" x="540.5" y="549.1045">has</text><text fill="#000000" font-family="sans-serif" font-size="13" lengthAdjust="spacing" textLength="7" x="519.7804" y="526.2737">1</text><text fill="#000000" font-family="sans-serif" font-size="13" lengthAdjust="spacing" textLength="7" x="515.9215" y="571.8214">1</text></g><!--link OperationRequestDTO to Priority--><g id="link_OperationRequestDTO_Priority"><path codeLine="99" d="M358.48,504.6494 C340.7,514.3594 323.09,524.4394 306.5,534.6094 C281.38,550.0094 255.05,568.4894 231.82,585.6694 " fill="none" id="OperationRequestDTO-Priority" style="stroke:#181818;stroke-width:1.0;"/><polygon fill="#000000" points="307.288,546.4794,316.4912,544.0812,313.3239,539.1297,307.288,546.4794" style="stroke:#000000;stroke-width:1.0;"/><text fill="#000000" font-family="sans-serif" font-size="13" lengthAdjust="spacing" textLength="21" x="320.5" y="549.1045">has</text><text fill="#000000" font-family="sans-serif" font-size="13" lengthAdjust="spacing" textLength="7" x="335.6696" y="526.4792">1</text><text fill="#000000" font-family="sans-serif" font-size="13" lengthAdjust="spacing" textLength="7" x="239.4327" y="576.5662">1</text></g><!--link OperationRequest to DateTime--><g id="link_OperationRequest_DateTime"><path codeLine="101" d="M198.83,504.6394 C207.97,521.1594 218.33,537.8994 229.5,552.6094 C242.94,570.3094 260.08,587.6094 275.96,602.1194 " fill="none" id="OperationRequest-DateTime" style="stroke:#181818;stroke-width:1.0;"/><polygon fill="#000000" points="237.6025,547.7062,234.2948,538.7894,229.6853,542.4366,237.6025,547.7062" style="stroke:#000000;stroke-width:1.0;"/><text fill="#000000" font-family="sans-serif" font-size="13" lengthAdjust="spacing" textLength="21" x="243.5" y="549.1045">has</text><text fill="#000000" font-family="sans-serif" font-size="13" lengthAdjust="spacing" textLength="7" x="195.0211" y="526.4683">1</text><text fill="#000000" font-family="sans-serif" font-size="13" lengthAdjust="spacing" textLength="7" x="260.9849" y="592.0564">1</text></g><!--link OperationRequest to Specialization--><g id="link_OperationRequest_Specialization"><path codeLine="102" d="M297.66,504.7294 C340.09,530.7194 385.81,558.7194 424.65,582.5094 " fill="none" id="OperationRequest-Specialization" style="stroke:#181818;stroke-width:1.0;"/><polygon fill="#000000" points="381.7638,546.3967,375.5855,539.1662,372.5155,544.1786,381.7638,546.3967" style="stroke:#000000;stroke-width:1.0;"/><text fill="#000000" font-family="sans-serif" font-size="13" lengthAdjust="spacing" textLength="21" x="386.5" y="549.1045">has</text><text fill="#000000" font-family="sans-serif" font-size="13" lengthAdjust="spacing" textLength="7" x="302.2323" y="526.2737">1</text><text fill="#000000" font-family="sans-serif" font-size="13" lengthAdjust="spacing" textLength="7" x="405.6636" y="571.8214">1</text></g><!--link OperationRequest to Priority--><g id="link_OperationRequest_Priority"><path codeLine="103" d="M153.37,504.9294 C152.88,520.7794 152.8,537.1994 153.5,552.6094 C153.94,562.2594 154.64,572.4994 155.46,582.4394 " fill="none" id="OperationRequest-Priority" style="stroke:#181818;stroke-width:1.0;"/><polygon fill="#000000" points="158.6348,548.7833,161.3288,539.6623,155.4531,539.8208,158.6348,548.7833" style="stroke:#000000;stroke-width:1.0;"/><text fill="#000000" font-family="sans-serif" font-size="13" lengthAdjust="spacing" textLength="21" x="167.5" y="549.1045">has</text><text fill="#000000" font-family="sans-serif" font-size="13" lengthAdjust="spacing" textLength="7" x="145.5424" y="526.4908">1</text><text fill="#000000" font-family="sans-serif" font-size="13" lengthAdjust="spacing" textLength="7" x="147.2973" y="571.7429">1</text></g><!--link DateTime to Date--><g id="link_DateTime_Date"><path codeLine="105" d="M309.11,683.3194 C299.89,711.3694 287.58,748.8094 277.79,778.5894 " fill="none" id="DateTime-Date" style="stroke:#181818;stroke-width:1.0;"/><polygon fill="#000000" points="295.9385,744.5351,301.5552,736.8602,295.9714,735.0246,295.9385,744.5351" style="stroke:#000000;stroke-width:1.0;"/><text fill="#000000" font-family="sans-serif" font-size="13" lengthAdjust="spacing" textLength="21" x="306.5" y="745.1045">has</text><text fill="#000000" font-family="sans-serif" font-size="13" lengthAdjust="spacing" textLength="7" x="299.4182" y="704.7476">1</text><text fill="#000000" font-family="sans-serif" font-size="13" lengthAdjust="spacing" textLength="7" x="272.5886" y="767.8919">1</text></g><!--link DateTime to Time--><g id="link_DateTime_Time"><path codeLine="106" d="M335.67,683.3194 C344.74,711.3694 356.85,748.8094 366.48,778.5894 " fill="none" id="DateTime-Time" style="stroke:#181818;stroke-width:1.0;"/><polygon fill="#000000" points="363.0385,744.5426,363.0516,735.032,357.459,736.8407,363.0385,744.5426" style="stroke:#000000;stroke-width:1.0;"/><text fill="#000000" font-family="sans-serif" font-size="13" lengthAdjust="spacing" textLength="21" x="370.5" y="745.1045">has</text><text fill="#000000" font-family="sans-serif" font-size="13" lengthAdjust="spacing" textLength="7" x="330.2112" y="704.7476">1</text><text fill="#000000" font-family="sans-serif" font-size="13" lengthAdjust="spacing" textLength="7" x="356.735" y="767.8919">1</text></g><!--SRC=[nLHFRvim5B_pAQoUYBP8xMaIXqaHe1IfArKWatRqu0Mi4iDiqubE- -up0Hjm4fQsgvOBUVRlp_Fpy-EFX5QOuJsgSFA8CuX4Km1Ya0XCim8ihW4ynsdvaz0CxN31mHfj9GNcV2K48zzh0K5IqeWy0xgsB464b7FRVUGHdBLes_KMQ8csxlND9yiwS55O0SE2b7G3FshWmYsfO6LH04E_B2H_7xPLYWMiU4CJkpJGNXmkhD_dj29WJoI1jml9tLvagOc1vo12HRVAwooJE4Wzm0MXu21FMiLa3zr-nKZ9Y6WSzD3_wtaL94GodW-I3eecSPVsYMJiKHOVqLHaSI5BfNGftZpYJBd-NwswAuuC1_iuzn5QkTX6HNgjYOjjrbhN819ujzj0LN8YIjQedbk3qDKnEYz8UwC8Fu6RorS7t82Srm-e0BR3GtF_CoFpCj_nJARL-nrATPZgpFPckxxhOY7t77JemGbdm3UZ3jxB6PMFuWOmwq9D7flbPStuc4we79RZ5GvoSgPSQm2jzqP_gvAWrVtAZ-9RFmh2kt3zhLzrLnjliX1kujlmmVS2D-fNPZlvOBtGtkfDQ5V_pdVZuAlVXzlDsh-FrTuNlmrTPNtqe0RncMb_TNE5bil3vzmSTz1dL7FWnpeACIFIpd0jy0h-YyZcD7YByIKo8yoCql2-XagQcPu_n2dsgIAF5FIpQnavvd_36or_8Kitgy8V4LwKqoiIciz6EnfPQCGfm2H5o_e3]--></g></svg>