<?xml version="1.0" encoding="us-ascii" standalone="no"?><svg xmlns="http://www.w3.org/2000/svg" xmlns:xlink="http://www.w3.org/1999/xlink" contentStyleType="text/css" height="1136px" preserveAspectRatio="none" style="width:2279px;height:1136px;background:#FFFFFF;" version="1.1" viewBox="0 0 2279 1136" width="2279px" zoomAndPan="magnify"><defs/><g><text fill="#000000" font-family="sans-serif" font-size="14" font-weight="bold" lengthAdjust="spacing" textLength="231" x="1025" y="29.5332">Sequence Diagram (SSD) - UC017</text><text fill="#000000" font-family="sans-serif" font-size="14" font-weight="bold" lengthAdjust="spacing" textLength="174" x="1053.5" y="47.1426">Updating Operation Type</text><rect fill="#FFFFFF" height="838.3828" style="stroke:#181818;stroke-width:1.0;" width="10" x="348" y="191.1406"/><rect fill="#FFFFFF" height="762.6797" style="stroke:#181818;stroke-width:1.0;" width="10" x="590" y="221.4922"/><rect fill="#FFFFFF" height="41.3516" style="stroke:#181818;stroke-width:1.0;" width="10" x="595" y="501.9531"/><rect fill="#FFFFFF" height="28" style="stroke:#181818;stroke-width:1.0;" width="10" x="595" y="588.6563"/><rect fill="#FFFFFF" height="30.3516" style="stroke:#181818;stroke-width:1.0;" width="10" x="1052" y="860.7656"/><rect fill="#FFFFFF" height="30" style="stroke:#181818;stroke-width:1.0;" width="10" x="1207" y="679.3594"/><rect fill="#FFFFFF" height="90.7031" style="stroke:#181818;stroke-width:1.0;" width="10" x="1333.5" y="251.8438"/><rect fill="#FFFFFF" height="30" style="stroke:#181818;stroke-width:1.0;" width="10" x="1631.5" y="282.1953"/><rect fill="#FFFFFF" height="90.7031" style="stroke:#181818;stroke-width:1.0;" width="10" x="1819.5" y="372.8984"/><rect fill="#FFFFFF" height="90.7031" style="stroke:#181818;stroke-width:1.0;" width="10" x="1819.5" y="739.7109"/><rect fill="#FFFFFF" height="30" style="stroke:#181818;stroke-width:1.0;" width="10" x="2164.5" y="403.25"/><rect fill="#FFFFFF" height="30" style="stroke:#181818;stroke-width:1.0;" width="10" x="2164.5" y="770.0625"/><rect fill="none" height="383.8672" style="stroke:#000000;stroke-width:1.5;" width="2269" x="3" y="638.6563"/><line style="stroke:#181818;stroke-width:0.5;stroke-dasharray:5.0,5.0;" x1="352.5" x2="352.5" y1="142.4375" y2="1039.5234"/><line style="stroke:#181818;stroke-width:0.5;stroke-dasharray:5.0,5.0;" x1="594.5" x2="594.5" y1="142.4375" y2="1039.5234"/><line style="stroke:#181818;stroke-width:0.5;stroke-dasharray:5.0,5.0;" x1="1057" x2="1057" y1="142.4375" y2="1039.5234"/><line style="stroke:#181818;stroke-width:0.5;stroke-dasharray:5.0,5.0;" x1="1212" x2="1212" y1="142.4375" y2="1039.5234"/><line style="stroke:#181818;stroke-width:0.5;stroke-dasharray:5.0,5.0;" x1="1338" x2="1338" y1="142.4375" y2="1039.5234"/><line style="stroke:#181818;stroke-width:0.5;stroke-dasharray:5.0,5.0;" x1="1636.5" x2="1636.5" y1="142.4375" y2="1039.5234"/><line style="stroke:#181818;stroke-width:0.5;stroke-dasharray:5.0,5.0;" x1="1824.5" x2="1824.5" y1="142.4375" y2="1039.5234"/><line style="stroke:#181818;stroke-width:0.5;stroke-dasharray:5.0,5.0;" x1="2169" x2="2169" y1="142.4375" y2="1039.5234"/><rect fill="#E3E3E3" height="49.2188" rx="2.5" ry="2.5" style="stroke:#181818;stroke-width:0.5;" width="197" x="254.5" y="92.2188"/><text fill="#000000" font-family="sans-serif" font-size="14" font-style="italic" lengthAdjust="spacing" textLength="75" x="315.5" y="113.752">&#171;controller&#187;</text><text fill="#000000" font-family="sans-serif" font-size="14" lengthAdjust="spacing" textLength="183" x="261.5" y="131.3613">OperationrRequestController</text><rect fill="#E3E3E3" height="49.2188" rx="2.5" ry="2.5" style="stroke:#181818;stroke-width:0.5;" width="197" x="254.5" y="1038.5234"/><text fill="#000000" font-family="sans-serif" font-size="14" font-style="italic" lengthAdjust="spacing" textLength="75" x="315.5" y="1060.0566">&#171;controller&#187;</text><text fill="#000000" font-family="sans-serif" font-size="14" lengthAdjust="spacing" textLength="183" x="261.5" y="1077.666">OperationrRequestController</text><rect fill="#E3E3E3" height="49.2188" rx="2.5" ry="2.5" style="stroke:#181818;stroke-width:0.5;" width="177" x="506.5" y="92.2188"/><text fill="#000000" font-family="sans-serif" font-size="14" font-style="italic" lengthAdjust="spacing" textLength="60" x="565" y="113.752">&#171;service&#187;</text><text fill="#000000" font-family="sans-serif" font-size="14" lengthAdjust="spacing" textLength="163" x="513.5" y="131.3613">OperationRequestService</text><rect fill="#E3E3E3" height="49.2188" rx="2.5" ry="2.5" style="stroke:#181818;stroke-width:0.5;" width="177" x="506.5" y="1038.5234"/><text fill="#000000" font-family="sans-serif" font-size="14" font-style="italic" lengthAdjust="spacing" textLength="60" x="565" y="1060.0566">&#171;service&#187;</text><text fill="#000000" font-family="sans-serif" font-size="14" lengthAdjust="spacing" textLength="163" x="513.5" y="1077.666">OperationRequestService</text><rect fill="#E3E3E3" height="49.2188" rx="2.5" ry="2.5" style="stroke:#181818;stroke-width:0.5;" width="160" x="977" y="92.2188"/><text fill="#000000" font-family="sans-serif" font-size="14" font-style="italic" lengthAdjust="spacing" textLength="36" x="1039" y="113.752">&#171;dto&#187;</text><text fill="#000000" font-family="sans-serif" font-size="14" lengthAdjust="spacing" textLength="146" x="984" y="131.3613">OperationRequestDTO</text><rect fill="#E3E3E3" height="49.2188" rx="2.5" ry="2.5" style="stroke:#181818;stroke-width:0.5;" width="160" x="977" y="1038.5234"/><text fill="#000000" font-family="sans-serif" font-size="14" font-style="italic" lengthAdjust="spacing" textLength="36" x="1039" y="1060.0566">&#171;dto&#187;</text><text fill="#000000" font-family="sans-serif" font-size="14" lengthAdjust="spacing" textLength="146" x="984" y="1077.666">OperationRequestDTO</text><rect fill="#E3E3E3" height="49.2188" rx="2.5" ry="2.5" style="stroke:#181818;stroke-width:0.5;" width="130" x="1147" y="92.2188"/><text fill="#000000" font-family="sans-serif" font-size="14" font-style="italic" lengthAdjust="spacing" textLength="62" x="1181" y="113.752">&#171;domain&#187;</text><text fill="#000000" font-family="sans-serif" font-size="14" lengthAdjust="spacing" textLength="116" x="1154" y="131.3613">OperationRequest</text><rect fill="#E3E3E3" height="49.2188" rx="2.5" ry="2.5" style="stroke:#181818;stroke-width:0.5;" width="130" x="1147" y="1038.5234"/><text fill="#000000" font-family="sans-serif" font-size="14" font-style="italic" lengthAdjust="spacing" textLength="62" x="1181" y="1060.0566">&#171;domain&#187;</text><text fill="#000000" font-family="sans-serif" font-size="14" lengthAdjust="spacing" textLength="116" x="1154" y="1077.666">OperationRequest</text><text fill="#000000" font-family="sans-serif" font-size="14" font-style="italic" lengthAdjust="spacing" textLength="79" x="1296" y="121.752">&#171;repository&#187;</text><text fill="#000000" font-family="sans-serif" font-size="14" lengthAdjust="spacing" textLength="97" x="1287" y="139.3613">StaffRepository</text><path d="M1320.5,71.2188 C1320.5,61.2188 1338.5,61.2188 1338.5,61.2188 C1338.5,61.2188 1356.5,61.2188 1356.5,71.2188 L1356.5,97.2188 C1356.5,107.2188 1338.5,107.2188 1338.5,107.2188 C1338.5,107.2188 1320.5,107.2188 1320.5,97.2188 L1320.5,71.2188 " fill="#E3E3E3" style="stroke:#181818;stroke-width:1.5;"/><path d="M1320.5,71.2188 C1320.5,81.2188 1338.5,81.2188 1338.5,81.2188 C1338.5,81.2188 1356.5,81.2188 1356.5,71.2188 " fill="none" style="stroke:#181818;stroke-width:1.5;"/><text fill="#000000" font-family="sans-serif" font-size="14" font-style="italic" lengthAdjust="spacing" textLength="79" x="1296" y="1053.0566">&#171;repository&#187;</text><text fill="#000000" font-family="sans-serif" font-size="14" lengthAdjust="spacing" textLength="97" x="1287" y="1070.666">StaffRepository</text><path d="M1320.5,1083.7422 C1320.5,1073.7422 1338.5,1073.7422 1338.5,1073.7422 C1338.5,1073.7422 1356.5,1073.7422 1356.5,1083.7422 L1356.5,1109.7422 C1356.5,1119.7422 1338.5,1119.7422 1338.5,1119.7422 C1338.5,1119.7422 1320.5,1119.7422 1320.5,1109.7422 L1320.5,1083.7422 " fill="#E3E3E3" style="stroke:#181818;stroke-width:1.5;"/><path d="M1320.5,1083.7422 C1320.5,1093.7422 1338.5,1093.7422 1338.5,1093.7422 C1338.5,1093.7422 1356.5,1093.7422 1356.5,1083.7422 " fill="none" style="stroke:#181818;stroke-width:1.5;"/><rect fill="#E3E3E3" height="49.2188" rx="2.5" ry="2.5" style="stroke:#181818;stroke-width:0.5;" width="166" x="1553.5" y="92.2188"/><text fill="#000000" font-family="sans-serif" font-size="14" font-style="italic" lengthAdjust="spacing" textLength="71" x="1601" y="113.752">&#171;interface&#187;</text><text fill="#000000" font-family="sans-serif" font-size="14" lengthAdjust="spacing" textLength="152" x="1560.5" y="131.3613">StaffRepositoryInterface</text><rect fill="#E3E3E3" height="49.2188" rx="2.5" ry="2.5" style="stroke:#181818;stroke-width:0.5;" width="166" x="1553.5" y="1038.5234"/><text fill="#000000" font-family="sans-serif" font-size="14" font-style="italic" lengthAdjust="spacing" textLength="71" x="1601" y="1060.0566">&#171;interface&#187;</text><text fill="#000000" font-family="sans-serif" font-size="14" lengthAdjust="spacing" textLength="152" x="1560.5" y="1077.666">StaffRepositoryInterface</text><text fill="#000000" font-family="sans-serif" font-size="14" font-style="italic" lengthAdjust="spacing" textLength="45" x="1799" y="121.752">&#171;repo&#187;</text><text fill="#000000" font-family="sans-serif" font-size="14" lengthAdjust="spacing" textLength="184" x="1729.5" y="139.3613">OperationRequestRepository</text><path d="M1806.5,71.2188 C1806.5,61.2188 1824.5,61.2188 1824.5,61.2188 C1824.5,61.2188 1842.5,61.2188 1842.5,71.2188 L1842.5,97.2188 C1842.5,107.2188 1824.5,107.2188 1824.5,107.2188 C1824.5,107.2188 1806.5,107.2188 1806.5,97.2188 L1806.5,71.2188 " fill="#E3E3E3" style="stroke:#181818;stroke-width:1.5;"/><path d="M1806.5,71.2188 C1806.5,81.2188 1824.5,81.2188 1824.5,81.2188 C1824.5,81.2188 1842.5,81.2188 1842.5,71.2188 " fill="none" style="stroke:#181818;stroke-width:1.5;"/><text fill="#000000" font-family="sans-serif" font-size="14" font-style="italic" lengthAdjust="spacing" textLength="45" x="1799" y="1053.0566">&#171;repo&#187;</text><text fill="#000000" font-family="sans-serif" font-size="14" lengthAdjust="spacing" textLength="184" x="1729.5" y="1070.666">OperationRequestRepository</text><path d="M1806.5,1083.7422 C1806.5,1073.7422 1824.5,1073.7422 1824.5,1073.7422 C1824.5,1073.7422 1842.5,1073.7422 1842.5,1083.7422 L1842.5,1109.7422 C1842.5,1119.7422 1824.5,1119.7422 1824.5,1119.7422 C1824.5,1119.7422 1806.5,1119.7422 1806.5,1109.7422 L1806.5,1083.7422 " fill="#E3E3E3" style="stroke:#181818;stroke-width:1.5;"/><path d="M1806.5,1083.7422 C1806.5,1093.7422 1824.5,1093.7422 1824.5,1093.7422 C1824.5,1093.7422 1842.5,1093.7422 1842.5,1083.7422 " fill="none" style="stroke:#181818;stroke-width:1.5;"/><rect fill="#E3E3E3" height="49.2188" rx="2.5" ry="2.5" style="stroke:#181818;stroke-width:0.5;" width="185" x="2077" y="92.2188"/><text fill="#000000" font-family="sans-serif" font-size="14" font-style="italic" lengthAdjust="spacing" textLength="71" x="2134" y="113.752">&#171;interface&#187;</text><text fill="#000000" font-family="sans-serif" font-size="14" lengthAdjust="spacing" textLength="171" x="2084" y="131.3613">OperationRequestInterface</text><rect fill="#E3E3E3" height="49.2188" rx="2.5" ry="2.5" style="stroke:#181818;stroke-width:0.5;" width="185" x="2077" y="1038.5234"/><text fill="#000000" font-family="sans-serif" font-size="14" font-style="italic" lengthAdjust="spacing" textLength="71" x="2134" y="1060.0566">&#171;interface&#187;</text><text fill="#000000" font-family="sans-serif" font-size="14" lengthAdjust="spacing" textLength="171" x="2084" y="1077.666">OperationRequestInterface</text><rect fill="#FFFFFF" height="838.3828" style="stroke:#181818;stroke-width:1.0;" width="10" x="348" y="191.1406"/><rect fill="#FFFFFF" height="762.6797" style="stroke:#181818;stroke-width:1.0;" width="10" x="590" y="221.4922"/><rect fill="#FFFFFF" height="41.3516" style="stroke:#181818;stroke-width:1.0;" width="10" x="595" y="501.9531"/><rect fill="#FFFFFF" height="28" style="stroke:#181818;stroke-width:1.0;" width="10" x="595" y="588.6563"/><rect fill="#FFFFFF" height="30.3516" style="stroke:#181818;stroke-width:1.0;" width="10" x="1052" y="860.7656"/><rect fill="#FFFFFF" height="30" style="stroke:#181818;stroke-width:1.0;" width="10" x="1207" y="679.3594"/><rect fill="#FFFFFF" height="90.7031" style="stroke:#181818;stroke-width:1.0;" width="10" x="1333.5" y="251.8438"/><rect fill="#FFFFFF" height="30" style="stroke:#181818;stroke-width:1.0;" width="10" x="1631.5" y="282.1953"/><rect fill="#FFFFFF" height="90.7031" style="stroke:#181818;stroke-width:1.0;" width="10" x="1819.5" y="372.8984"/><rect fill="#FFFFFF" height="90.7031" style="stroke:#181818;stroke-width:1.0;" width="10" x="1819.5" y="739.7109"/><rect fill="#FFFFFF" height="30" style="stroke:#181818;stroke-width:1.0;" width="10" x="2164.5" y="403.25"/><rect fill="#FFFFFF" height="30" style="stroke:#181818;stroke-width:1.0;" width="10" x="2164.5" y="770.0625"/><polygon fill="#181818" points="336,187.1406,346,191.1406,336,195.1406,340,191.1406" style="stroke:#181818;stroke-width:1.0;"/><line style="stroke:#181818;stroke-width:1.0;stroke-dasharray:2.0,2.0;" x1="0" x2="342" y1="191.1406" y2="191.1406"/><text fill="#000000" font-family="sans-serif" font-size="13" lengthAdjust="spacing" textLength="322" x="7" y="169.9326">PUSH /api/staff/operation-request/update/operation-type</text><text fill="#000000" font-family="sans-serif" font-size="13" lengthAdjust="spacing" textLength="248" x="7" y="186.2842">Body: {doctorID,operationID,operationType}</text><polygon fill="#181818" points="578,217.4922,588,221.4922,578,225.4922,582,221.4922" style="stroke:#181818;stroke-width:1.0;"/><line style="stroke:#181818;stroke-width:1.0;" x1="358" x2="584" y1="221.4922" y2="221.4922"/><text fill="#000000" font-family="sans-serif" font-size="13" lengthAdjust="spacing" textLength="213" x="365" y="216.6357">UpdateAsync(operationRequestDTO)</text><polygon fill="#181818" points="1321.5,247.8438,1331.5,251.8438,1321.5,255.8438,1325.5,251.8438" style="stroke:#181818;stroke-width:1.0;"/><line style="stroke:#181818;stroke-width:1.0;" x1="600" x2="1327.5" y1="251.8438" y2="251.8438"/><text fill="#000000" font-family="sans-serif" font-size="13" lengthAdjust="spacing" textLength="269" x="607" y="246.9873">GetStaffAsync(operationRequestDTO.doctorId)</text><polygon fill="#181818" points="1619.5,278.1953,1629.5,282.1953,1619.5,286.1953,1623.5,282.1953" style="stroke:#181818;stroke-width:1.0;"/><line style="stroke:#181818;stroke-width:1.0;" x1="1343.5" x2="1625.5" y1="282.1953" y2="282.1953"/><text fill="#000000" font-family="sans-serif" font-size="13" lengthAdjust="spacing" textLength="269" x="1350.5" y="277.3389">GetStaffAsync(operationRequestDTO.doctorId)</text><polygon fill="#181818" points="611,338.5469,601,342.5469,611,346.5469,607,342.5469" style="stroke:#181818;stroke-width:1.0;"/><line style="stroke:#181818;stroke-width:1.0;stroke-dasharray:2.0,2.0;" x1="605" x2="1337.5" y1="342.5469" y2="342.5469"/><text fill="#000000" font-family="sans-serif" font-size="13" lengthAdjust="spacing" textLength="24" x="617" y="337.6904">staff</text><polygon fill="#181818" points="1807.5,368.8984,1817.5,372.8984,1807.5,376.8984,1811.5,372.8984" style="stroke:#181818;stroke-width:1.0;"/><line style="stroke:#181818;stroke-width:1.0;" x1="600" x2="1813.5" y1="372.8984" y2="372.8984"/><text fill="#000000" font-family="sans-serif" font-size="13" lengthAdjust="spacing" textLength="316" x="607" y="368.042">GetOperationAsync(operationRequestDTO.operationId)</text><polygon fill="#181818" points="2152.5,399.25,2162.5,403.25,2152.5,407.25,2156.5,403.25" style="stroke:#181818;stroke-width:1.0;"/><line style="stroke:#181818;stroke-width:1.0;" x1="1829.5" x2="2158.5" y1="403.25" y2="403.25"/><text fill="#000000" font-family="sans-serif" font-size="13" lengthAdjust="spacing" textLength="316" x="1836.5" y="398.3936">GetOperationAsync(operationRequestDTO.operationId)</text><polygon fill="#181818" points="611,459.6016,601,463.6016,611,467.6016,607,463.6016" style="stroke:#181818;stroke-width:1.0;"/><line style="stroke:#181818;stroke-width:1.0;stroke-dasharray:2.0,2.0;" x1="605" x2="1823.5" y1="463.6016" y2="463.6016"/><text fill="#000000" font-family="sans-serif" font-size="13" lengthAdjust="spacing" textLength="53" x="617" y="458.7451">operation</text><line style="stroke:#181818;stroke-width:1.0;" x1="600" x2="647" y1="488.9531" y2="488.9531"/><line style="stroke:#181818;stroke-width:1.0;" x1="647" x2="647" y1="488.9531" y2="501.9531"/><line style="stroke:#181818;stroke-width:1.0;" x1="606" x2="647" y1="501.9531" y2="501.9531"/><polygon fill="#181818" points="616,497.9531,606,501.9531,616,505.9531,612,501.9531" style="stroke:#181818;stroke-width:1.0;"/><text fill="#000000" font-family="sans-serif" font-size="13" lengthAdjust="spacing" textLength="331" x="612" y="484.0967">new OperationType(operationRequestDTO.operationType)</text><line style="stroke:#181818;stroke-width:1.0;stroke-dasharray:2.0,2.0;" x1="605" x2="647" y1="542.3047" y2="542.3047"/><line style="stroke:#181818;stroke-width:1.0;stroke-dasharray:2.0,2.0;" x1="647" x2="647" y1="542.3047" y2="555.3047"/><line style="stroke:#181818;stroke-width:1.0;stroke-dasharray:2.0,2.0;" x1="600" x2="647" y1="555.3047" y2="555.3047"/><polygon fill="#181818" points="610,551.3047,600,555.3047,610,559.3047,606,555.3047" style="stroke:#181818;stroke-width:1.0;"/><text fill="#000000" font-family="sans-serif" font-size="13" lengthAdjust="spacing" textLength="107" x="612" y="537.4482">newOperationType</text><line style="stroke:#181818;stroke-width:1.0;" x1="605" x2="647" y1="580.6563" y2="580.6563"/><line style="stroke:#181818;stroke-width:1.0;" x1="647" x2="647" y1="580.6563" y2="593.6563"/><line style="stroke:#181818;stroke-width:1.0;" x1="606" x2="647" y1="593.6563" y2="593.6563"/><polygon fill="#181818" points="616,589.6563,606,593.6563,616,597.6563,612,593.6563" style="stroke:#181818;stroke-width:1.0;"/><text fill="#000000" font-family="sans-serif" font-size="13" lengthAdjust="spacing" textLength="390" x="612" y="575.7998">compare(operation.operationType.specialization,staff.specialization)</text><path d="M3,638.6563 L64,638.6563 L64,647.0078 L54,657.0078 L3,657.0078 L3,638.6563 " fill="#EEEEEE" style="stroke:#000000;stroke-width:1.5;"/><rect fill="none" height="383.8672" style="stroke:#000000;stroke-width:1.5;" width="2269" x="3" y="638.6563"/><text fill="#000000" font-family="sans-serif" font-size="13" font-weight="bold" lengthAdjust="spacing" textLength="16" x="18" y="653.1514">alt</text><text fill="#000000" font-family="sans-serif" font-size="11" font-weight="bold" lengthAdjust="spacing" textLength="45" x="79" y="652.0752">[equals]</text><polygon fill="#181818" points="1195,675.3594,1205,679.3594,1195,683.3594,1199,679.3594" style="stroke:#181818;stroke-width:1.0;"/><line style="stroke:#181818;stroke-width:1.0;" x1="600" x2="1201" y1="679.3594" y2="679.3594"/><text fill="#000000" font-family="sans-serif" font-size="13" lengthAdjust="spacing" textLength="240" x="607" y="674.5029">UpdateOperationType(newOperationType)</text><polygon fill="#181818" points="1807.5,735.7109,1817.5,739.7109,1807.5,743.7109,1811.5,739.7109" style="stroke:#181818;stroke-width:1.0;"/><line style="stroke:#181818;stroke-width:1.0;" x1="600" x2="1813.5" y1="739.7109" y2="739.7109"/><text fill="#000000" font-family="sans-serif" font-size="13" lengthAdjust="spacing" textLength="177" x="607" y="734.8545">SaveChangesAsync(operation)</text><polygon fill="#181818" points="2152.5,766.0625,2162.5,770.0625,2152.5,774.0625,2156.5,770.0625" style="stroke:#181818;stroke-width:1.0;"/><line style="stroke:#181818;stroke-width:1.0;" x1="1829.5" x2="2158.5" y1="770.0625" y2="770.0625"/><text fill="#000000" font-family="sans-serif" font-size="13" lengthAdjust="spacing" textLength="177" x="1836.5" y="765.2061">SaveChangesAsync(operation)</text><polygon fill="#181818" points="611,826.4141,601,830.4141,611,834.4141,607,830.4141" style="stroke:#181818;stroke-width:1.0;"/><line style="stroke:#181818;stroke-width:1.0;stroke-dasharray:2.0,2.0;" x1="605" x2="1823.5" y1="830.4141" y2="830.4141"/><text fill="#000000" font-family="sans-serif" font-size="13" lengthAdjust="spacing" textLength="53" x="617" y="825.5576">operation</text><polygon fill="#181818" points="1040,856.7656,1050,860.7656,1040,864.7656,1044,860.7656" style="stroke:#181818;stroke-width:1.0;"/><line style="stroke:#181818;stroke-width:1.0;" x1="600" x2="1046" y1="860.7656" y2="860.7656"/><text fill="#000000" font-family="sans-serif" font-size="13" lengthAdjust="spacing" textLength="433" x="607" y="855.9092">new OperationRequestDTO(operation.operationID, operation.operationType)</text><polygon fill="#181818" points="611,887.1172,601,891.1172,611,895.1172,607,891.1172" style="stroke:#181818;stroke-width:1.0;"/><line style="stroke:#181818;stroke-width:1.0;stroke-dasharray:2.0,2.0;" x1="605" x2="1056" y1="891.1172" y2="891.1172"/><text fill="#000000" font-family="sans-serif" font-size="13" lengthAdjust="spacing" textLength="127" x="617" y="886.2607">operationRequestDTO</text><polygon fill="#181818" points="369,917.4688,359,921.4688,369,925.4688,365,921.4688" style="stroke:#181818;stroke-width:1.0;"/><line style="stroke:#181818;stroke-width:1.0;stroke-dasharray:2.0,2.0;" x1="363" x2="589" y1="921.4688" y2="921.4688"/><text fill="#000000" font-family="sans-serif" font-size="13" lengthAdjust="spacing" textLength="127" x="375" y="916.6123">operationRequestDTO</text><polygon fill="#181818" points="11,947.8203,1,951.8203,11,955.8203,7,951.8203" style="stroke:#181818;stroke-width:1.0;"/><line style="stroke:#181818;stroke-width:1.0;stroke-dasharray:2.0,2.0;" x1="5" x2="347" y1="951.8203" y2="951.8203"/><text fill="#000000" font-family="sans-serif" font-size="13" lengthAdjust="spacing" textLength="44" x="17" y="946.9639">200 OK</text><line style="stroke:#000000;stroke-width:1.0;stroke-dasharray:2.0,2.0;" x1="3" x2="2272" y1="960.8203" y2="960.8203"/><polygon fill="#181818" points="369,980.1719,359,984.1719,369,988.1719,365,984.1719" style="stroke:#181818;stroke-width:1.0;"/><line style="stroke:#181818;stroke-width:1.0;" x1="363" x2="594" y1="984.1719" y2="984.1719"/><text fill="#000000" font-family="sans-serif" font-size="13" lengthAdjust="spacing" textLength="91" x="375" y="979.3154">throw exception</text><polygon fill="#181818" points="11,1010.5234,1,1014.5234,11,1018.5234,7,1014.5234" style="stroke:#181818;stroke-width:1.0;"/><line style="stroke:#181818;stroke-width:1.0;stroke-dasharray:2.0,2.0;" x1="5" x2="347" y1="1014.5234" y2="1014.5234"/><text fill="#000000" font-family="sans-serif" font-size="13" lengthAdjust="spacing" textLength="161" x="17" y="1009.667">400 Bad Request{message}</text><!--SRC=[fLTRRzem57xFh_1ZaPh2facJK8IqWhHLUs1gobjVtEG0LXCximsCLVtlizDSRESAomkEVSvtldED4Q-4PfZZ5AMCicZFMGf8yWDueZh9SFIATn3ASmA8GoGntIMcWDZZc9q8tQ4jJWHudYHIYORm-m0q0hGYUAVbRi9mDK4-sYnddxu-qqqMOwcrrXbmjM8KFPqpy1Ie9179C9Nr4N_KQ48k6PMS9GbmX0Kote8WgbuMYtQG0YC4VYIAbm8ebq4WFbO3ggkdjLRJFq4GIpOWhcKRUqgHfPXGfQi2W5-mKB6IUBjzX8m98Xa_vzIShI3WrOjZrX5ze1Bu5XSUTfq50IdN9XENhargdJKO3OJ08cEgTp7nV7zX97QEVct27sYACp8LsfSfAotu_CF4zA0h2Om3gUhecTwp-3n7Rp6BbBs7rMrrRgvroRrx7b8FZYGvAY33-iU1VenIK_oAkfcZl8ZXcpZJw8OrYsLIwLVWXMgDh9-o3ZMqdR0v-Wuot-iqSbTu64yipDgYZMW9vSQTIckIg79rFPi-HXLyGqC_CLokrt39p5bUHjvuCvsfCiivZqnL_DtHgOkmArqcQeEbrO0E1JjB_yEbay_eJ8rJihqnSrHHyqOQiUGwUwk4ft2g9vKU0VtnqH9TpLMqSwC2IwkEMSjgRn4EpOaID6Af6i261pRlEv51H712_kPRjtdrEviN-8OJYLI4r8T-3FdEg2mQ7ufobjffSIFMMwSsu729ElBzRCrM3_4Hbdjr3mBXTDV8FchbDhAtBp5-PIDVrSpNDlJOfcuqjfCYrR5EOzUjtDOSwXQ0Edgc9uiAhDK3VILiTxXcCUIw5kaT9EQrg0s_eHpuldbpcQFFinbQ_xJZ2FhItXDOqwfKVn5E2Fv4a0rDvxOPC41mZhueVlSuHeLJRoa8eVvyl3kgG6ElnMIDz0y0]--></g></svg>