<?xml version="1.0" encoding="us-ascii" standalone="no"?><svg xmlns="http://www.w3.org/2000/svg" xmlns:xlink="http://www.w3.org/1999/xlink" contentStyleType="text/css" height="847px" preserveAspectRatio="none" style="width:2022px;height:847px;background:#FFFFFF;" version="1.1" viewBox="0 0 2022 847" width="2022px" zoomAndPan="magnify"><defs/><g><text fill="#000000" font-family="sans-serif" font-size="14" font-weight="bold" lengthAdjust="spacing" textLength="231" x="894.75" y="29.5332">Sequence Diagram (SSD) - UC017</text><text fill="#000000" font-family="sans-serif" font-size="14" font-weight="bold" lengthAdjust="spacing" textLength="117" x="951.75" y="47.1426">Updating Priority</text><rect fill="#FFFFFF" height="540.9219" style="stroke:#181818;stroke-width:1.0;" width="10" x="298" y="191.1406"/><rect fill="#FFFFFF" height="480.2188" style="stroke:#181818;stroke-width:1.0;" width="10" x="540" y="221.4922"/><rect fill="#FFFFFF" height="41.3516" style="stroke:#181818;stroke-width:1.0;" width="10" x="545" y="380.8984"/><rect fill="#FFFFFF" height="30.3516" style="stroke:#181818;stroke-width:1.0;" width="10" x="960" y="641.0078"/><rect fill="#FFFFFF" height="30" style="stroke:#181818;stroke-width:1.0;" width="10" x="1115" y="459.6016"/><rect fill="#FFFFFF" height="90.7031" style="stroke:#181818;stroke-width:1.0;" width="10" x="1574" y="251.8438"/><rect fill="#FFFFFF" height="90.7031" style="stroke:#181818;stroke-width:1.0;" width="10" x="1574" y="519.9531"/><rect fill="#FFFFFF" height="30" style="stroke:#181818;stroke-width:1.0;" width="10" x="1919" y="282.1953"/><rect fill="#FFFFFF" height="30" style="stroke:#181818;stroke-width:1.0;" width="10" x="1919" y="550.3047"/><line style="stroke:#181818;stroke-width:0.5;stroke-dasharray:5.0,5.0;" x1="302.5" x2="302.5" y1="142.4375" y2="750.0625"/><line style="stroke:#181818;stroke-width:0.5;stroke-dasharray:5.0,5.0;" x1="544.5" x2="544.5" y1="142.4375" y2="750.0625"/><line style="stroke:#181818;stroke-width:0.5;stroke-dasharray:5.0,5.0;" x1="965" x2="965" y1="142.4375" y2="750.0625"/><line style="stroke:#181818;stroke-width:0.5;stroke-dasharray:5.0,5.0;" x1="1120" x2="1120" y1="142.4375" y2="750.0625"/><line style="stroke:#181818;stroke-width:0.5;stroke-dasharray:5.0,5.0;" x1="1246" x2="1246" y1="142.4375" y2="750.0625"/><line style="stroke:#181818;stroke-width:0.5;stroke-dasharray:5.0,5.0;" x1="1391" x2="1391" y1="142.4375" y2="750.0625"/><line style="stroke:#181818;stroke-width:0.5;stroke-dasharray:5.0,5.0;" x1="1579" x2="1579" y1="142.4375" y2="750.0625"/><line style="stroke:#181818;stroke-width:0.5;stroke-dasharray:5.0,5.0;" x1="1923.5" x2="1923.5" y1="142.4375" y2="750.0625"/><rect fill="#E3E3E3" height="49.2188" rx="2.5" ry="2.5" style="stroke:#181818;stroke-width:0.5;" width="197" x="204.5" y="92.2188"/><text fill="#000000" font-family="sans-serif" font-size="14" font-style="italic" lengthAdjust="spacing" textLength="75" x="265.5" y="113.752">&#171;controller&#187;</text><text fill="#000000" font-family="sans-serif" font-size="14" lengthAdjust="spacing" textLength="183" x="211.5" y="131.3613">OperationrRequestController</text><rect fill="#E3E3E3" height="49.2188" rx="2.5" ry="2.5" style="stroke:#181818;stroke-width:0.5;" width="197" x="204.5" y="749.0625"/><text fill="#000000" font-family="sans-serif" font-size="14" font-style="italic" lengthAdjust="spacing" textLength="75" x="265.5" y="770.5957">&#171;controller&#187;</text><text fill="#000000" font-family="sans-serif" font-size="14" lengthAdjust="spacing" textLength="183" x="211.5" y="788.2051">OperationrRequestController</text><rect fill="#E3E3E3" height="49.2188" rx="2.5" ry="2.5" style="stroke:#181818;stroke-width:0.5;" width="177" x="456.5" y="92.2188"/><text fill="#000000" font-family="sans-serif" font-size="14" font-style="italic" lengthAdjust="spacing" textLength="60" x="515" y="113.752">&#171;service&#187;</text><text fill="#000000" font-family="sans-serif" font-size="14" lengthAdjust="spacing" textLength="163" x="463.5" y="131.3613">OperationRequestService</text><rect fill="#E3E3E3" height="49.2188" rx="2.5" ry="2.5" style="stroke:#181818;stroke-width:0.5;" width="177" x="456.5" y="749.0625"/><text fill="#000000" font-family="sans-serif" font-size="14" font-style="italic" lengthAdjust="spacing" textLength="60" x="515" y="770.5957">&#171;service&#187;</text><text fill="#000000" font-family="sans-serif" font-size="14" lengthAdjust="spacing" textLength="163" x="463.5" y="788.2051">OperationRequestService</text><rect fill="#E3E3E3" height="49.2188" rx="2.5" ry="2.5" style="stroke:#181818;stroke-width:0.5;" width="160" x="885" y="92.2188"/><text fill="#000000" font-family="sans-serif" font-size="14" font-style="italic" lengthAdjust="spacing" textLength="36" x="947" y="113.752">&#171;dto&#187;</text><text fill="#000000" font-family="sans-serif" font-size="14" lengthAdjust="spacing" textLength="146" x="892" y="131.3613">OperationRequestDTO</text><rect fill="#E3E3E3" height="49.2188" rx="2.5" ry="2.5" style="stroke:#181818;stroke-width:0.5;" width="160" x="885" y="749.0625"/><text fill="#000000" font-family="sans-serif" font-size="14" font-style="italic" lengthAdjust="spacing" textLength="36" x="947" y="770.5957">&#171;dto&#187;</text><text fill="#000000" font-family="sans-serif" font-size="14" lengthAdjust="spacing" textLength="146" x="892" y="788.2051">OperationRequestDTO</text><rect fill="#E3E3E3" height="49.2188" rx="2.5" ry="2.5" style="stroke:#181818;stroke-width:0.5;" width="130" x="1055" y="92.2188"/><text fill="#000000" font-family="sans-serif" font-size="14" font-style="italic" lengthAdjust="spacing" textLength="62" x="1089" y="113.752">&#171;domain&#187;</text><text fill="#000000" font-family="sans-serif" font-size="14" lengthAdjust="spacing" textLength="116" x="1062" y="131.3613">OperationRequest</text><rect fill="#E3E3E3" height="49.2188" rx="2.5" ry="2.5" style="stroke:#181818;stroke-width:0.5;" width="130" x="1055" y="749.0625"/><text fill="#000000" font-family="sans-serif" font-size="14" font-style="italic" lengthAdjust="spacing" textLength="62" x="1089" y="770.5957">&#171;domain&#187;</text><text fill="#000000" font-family="sans-serif" font-size="14" lengthAdjust="spacing" textLength="116" x="1062" y="788.2051">OperationRequest</text><text fill="#000000" font-family="sans-serif" font-size="14" font-style="italic" lengthAdjust="spacing" textLength="79" x="1204" y="121.752">&#171;repository&#187;</text><text fill="#000000" font-family="sans-serif" font-size="14" lengthAdjust="spacing" textLength="97" x="1195" y="139.3613">StaffRepository</text><path d="M1228.5,71.2188 C1228.5,61.2188 1246.5,61.2188 1246.5,61.2188 C1246.5,61.2188 1264.5,61.2188 1264.5,71.2188 L1264.5,97.2188 C1264.5,107.2188 1246.5,107.2188 1246.5,107.2188 C1246.5,107.2188 1228.5,107.2188 1228.5,97.2188 L1228.5,71.2188 " fill="#E3E3E3" style="stroke:#181818;stroke-width:1.5;"/><path d="M1228.5,71.2188 C1228.5,81.2188 1246.5,81.2188 1246.5,81.2188 C1246.5,81.2188 1264.5,81.2188 1264.5,71.2188 " fill="none" style="stroke:#181818;stroke-width:1.5;"/><text fill="#000000" font-family="sans-serif" font-size="14" font-style="italic" lengthAdjust="spacing" textLength="79" x="1204" y="763.5957">&#171;repository&#187;</text><text fill="#000000" font-family="sans-serif" font-size="14" lengthAdjust="spacing" textLength="97" x="1195" y="781.2051">StaffRepository</text><path d="M1228.5,794.2813 C1228.5,784.2813 1246.5,784.2813 1246.5,784.2813 C1246.5,784.2813 1264.5,784.2813 1264.5,794.2813 L1264.5,820.2813 C1264.5,830.2813 1246.5,830.2813 1246.5,830.2813 C1246.5,830.2813 1228.5,830.2813 1228.5,820.2813 L1228.5,794.2813 " fill="#E3E3E3" style="stroke:#181818;stroke-width:1.5;"/><path d="M1228.5,794.2813 C1228.5,804.2813 1246.5,804.2813 1246.5,804.2813 C1246.5,804.2813 1264.5,804.2813 1264.5,794.2813 " fill="none" style="stroke:#181818;stroke-width:1.5;"/><rect fill="#E3E3E3" height="49.2188" rx="2.5" ry="2.5" style="stroke:#181818;stroke-width:0.5;" width="166" x="1308" y="92.2188"/><text fill="#000000" font-family="sans-serif" font-size="14" font-style="italic" lengthAdjust="spacing" textLength="71" x="1355.5" y="113.752">&#171;interface&#187;</text><text fill="#000000" font-family="sans-serif" font-size="14" lengthAdjust="spacing" textLength="152" x="1315" y="131.3613">StaffRepositoryInterface</text><rect fill="#E3E3E3" height="49.2188" rx="2.5" ry="2.5" style="stroke:#181818;stroke-width:0.5;" width="166" x="1308" y="749.0625"/><text fill="#000000" font-family="sans-serif" font-size="14" font-style="italic" lengthAdjust="spacing" textLength="71" x="1355.5" y="770.5957">&#171;interface&#187;</text><text fill="#000000" font-family="sans-serif" font-size="14" lengthAdjust="spacing" textLength="152" x="1315" y="788.2051">StaffRepositoryInterface</text><text fill="#000000" font-family="sans-serif" font-size="14" font-style="italic" lengthAdjust="spacing" textLength="45" x="1553.5" y="121.752">&#171;repo&#187;</text><text fill="#000000" font-family="sans-serif" font-size="14" lengthAdjust="spacing" textLength="184" x="1484" y="139.3613">OperationRequestRepository</text><path d="M1561,71.2188 C1561,61.2188 1579,61.2188 1579,61.2188 C1579,61.2188 1597,61.2188 1597,71.2188 L1597,97.2188 C1597,107.2188 1579,107.2188 1579,107.2188 C1579,107.2188 1561,107.2188 1561,97.2188 L1561,71.2188 " fill="#E3E3E3" style="stroke:#181818;stroke-width:1.5;"/><path d="M1561,71.2188 C1561,81.2188 1579,81.2188 1579,81.2188 C1579,81.2188 1597,81.2188 1597,71.2188 " fill="none" style="stroke:#181818;stroke-width:1.5;"/><text fill="#000000" font-family="sans-serif" font-size="14" font-style="italic" lengthAdjust="spacing" textLength="45" x="1553.5" y="763.5957">&#171;repo&#187;</text><text fill="#000000" font-family="sans-serif" font-size="14" lengthAdjust="spacing" textLength="184" x="1484" y="781.2051">OperationRequestRepository</text><path d="M1561,794.2813 C1561,784.2813 1579,784.2813 1579,784.2813 C1579,784.2813 1597,784.2813 1597,794.2813 L1597,820.2813 C1597,830.2813 1579,830.2813 1579,830.2813 C1579,830.2813 1561,830.2813 1561,820.2813 L1561,794.2813 " fill="#E3E3E3" style="stroke:#181818;stroke-width:1.5;"/><path d="M1561,794.2813 C1561,804.2813 1579,804.2813 1579,804.2813 C1579,804.2813 1597,804.2813 1597,794.2813 " fill="none" style="stroke:#181818;stroke-width:1.5;"/><rect fill="#E3E3E3" height="49.2188" rx="2.5" ry="2.5" style="stroke:#181818;stroke-width:0.5;" width="185" x="1831.5" y="92.2188"/><text fill="#000000" font-family="sans-serif" font-size="14" font-style="italic" lengthAdjust="spacing" textLength="71" x="1888.5" y="113.752">&#171;interface&#187;</text><text fill="#000000" font-family="sans-serif" font-size="14" lengthAdjust="spacing" textLength="171" x="1838.5" y="131.3613">OperationRequestInterface</text><rect fill="#E3E3E3" height="49.2188" rx="2.5" ry="2.5" style="stroke:#181818;stroke-width:0.5;" width="185" x="1831.5" y="749.0625"/><text fill="#000000" font-family="sans-serif" font-size="14" font-style="italic" lengthAdjust="spacing" textLength="71" x="1888.5" y="770.5957">&#171;interface&#187;</text><text fill="#000000" font-family="sans-serif" font-size="14" lengthAdjust="spacing" textLength="171" x="1838.5" y="788.2051">OperationRequestInterface</text><rect fill="#FFFFFF" height="540.9219" style="stroke:#181818;stroke-width:1.0;" width="10" x="298" y="191.1406"/><rect fill="#FFFFFF" height="480.2188" style="stroke:#181818;stroke-width:1.0;" width="10" x="540" y="221.4922"/><rect fill="#FFFFFF" height="41.3516" style="stroke:#181818;stroke-width:1.0;" width="10" x="545" y="380.8984"/><rect fill="#FFFFFF" height="30.3516" style="stroke:#181818;stroke-width:1.0;" width="10" x="960" y="641.0078"/><rect fill="#FFFFFF" height="30" style="stroke:#181818;stroke-width:1.0;" width="10" x="1115" y="459.6016"/><rect fill="#FFFFFF" height="90.7031" style="stroke:#181818;stroke-width:1.0;" width="10" x="1574" y="251.8438"/><rect fill="#FFFFFF" height="90.7031" style="stroke:#181818;stroke-width:1.0;" width="10" x="1574" y="519.9531"/><rect fill="#FFFFFF" height="30" style="stroke:#181818;stroke-width:1.0;" width="10" x="1919" y="282.1953"/><rect fill="#FFFFFF" height="30" style="stroke:#181818;stroke-width:1.0;" width="10" x="1919" y="550.3047"/><polygon fill="#181818" points="286,187.1406,296,191.1406,286,195.1406,290,191.1406" style="stroke:#181818;stroke-width:1.0;"/><line style="stroke:#181818;stroke-width:1.0;stroke-dasharray:2.0,2.0;" x1="0" x2="292" y1="191.1406" y2="191.1406"/><text fill="#000000" font-family="sans-serif" font-size="13" lengthAdjust="spacing" textLength="279" x="7" y="169.9326">PUSH /api/staff/operation-request/update/priority</text><text fill="#000000" font-family="sans-serif" font-size="13" lengthAdjust="spacing" textLength="206" x="7" y="186.2842">Body: {doctorID,operationID,priority}</text><polygon fill="#181818" points="528,217.4922,538,221.4922,528,225.4922,532,221.4922" style="stroke:#181818;stroke-width:1.0;"/><line style="stroke:#181818;stroke-width:1.0;" x1="308" x2="534" y1="221.4922" y2="221.4922"/><text fill="#000000" font-family="sans-serif" font-size="13" lengthAdjust="spacing" textLength="213" x="315" y="216.6357">UpdateAsync(operationRequestDTO)</text><polygon fill="#181818" points="1562,247.8438,1572,251.8438,1562,255.8438,1566,251.8438" style="stroke:#181818;stroke-width:1.0;"/><line style="stroke:#181818;stroke-width:1.0;" x1="550" x2="1568" y1="251.8438" y2="251.8438"/><text fill="#000000" font-family="sans-serif" font-size="13" lengthAdjust="spacing" textLength="316" x="557" y="246.9873">GetOperationAsync(operationRequestDTO.operationId)</text><polygon fill="#181818" points="1907,278.1953,1917,282.1953,1907,286.1953,1911,282.1953" style="stroke:#181818;stroke-width:1.0;"/><line style="stroke:#181818;stroke-width:1.0;" x1="1584" x2="1913" y1="282.1953" y2="282.1953"/><text fill="#000000" font-family="sans-serif" font-size="13" lengthAdjust="spacing" textLength="316" x="1591" y="277.3389">GetOperationAsync(operationRequestDTO.operationId)</text><polygon fill="#181818" points="561,338.5469,551,342.5469,561,346.5469,557,342.5469" style="stroke:#181818;stroke-width:1.0;"/><line style="stroke:#181818;stroke-width:1.0;stroke-dasharray:2.0,2.0;" x1="555" x2="1578" y1="342.5469" y2="342.5469"/><text fill="#000000" font-family="sans-serif" font-size="13" lengthAdjust="spacing" textLength="53" x="567" y="337.6904">operation</text><line style="stroke:#181818;stroke-width:1.0;" x1="550" x2="597" y1="367.8984" y2="367.8984"/><line style="stroke:#181818;stroke-width:1.0;" x1="597" x2="597" y1="367.8984" y2="380.8984"/><line style="stroke:#181818;stroke-width:1.0;" x1="556" x2="597" y1="380.8984" y2="380.8984"/><polygon fill="#181818" points="566,376.8984,556,380.8984,566,384.8984,562,380.8984" style="stroke:#181818;stroke-width:1.0;"/><text fill="#000000" font-family="sans-serif" font-size="13" lengthAdjust="spacing" textLength="246" x="562" y="363.042">new Priority(operationRequestDTO.priority)</text><line style="stroke:#181818;stroke-width:1.0;stroke-dasharray:2.0,2.0;" x1="555" x2="597" y1="421.25" y2="421.25"/><line style="stroke:#181818;stroke-width:1.0;stroke-dasharray:2.0,2.0;" x1="597" x2="597" y1="421.25" y2="434.25"/><line style="stroke:#181818;stroke-width:1.0;stroke-dasharray:2.0,2.0;" x1="550" x2="597" y1="434.25" y2="434.25"/><polygon fill="#181818" points="560,430.25,550,434.25,560,438.25,556,434.25" style="stroke:#181818;stroke-width:1.0;"/><text fill="#000000" font-family="sans-serif" font-size="13" lengthAdjust="spacing" textLength="64" x="562" y="416.3936">newPriority</text><polygon fill="#181818" points="1103,455.6016,1113,459.6016,1103,463.6016,1107,459.6016" style="stroke:#181818;stroke-width:1.0;"/><line style="stroke:#181818;stroke-width:1.0;" x1="550" x2="1109" y1="459.6016" y2="459.6016"/><text fill="#000000" font-family="sans-serif" font-size="13" lengthAdjust="spacing" textLength="154" x="557" y="454.7451">UpdatePriority(newPriority)</text><polygon fill="#181818" points="1562,515.9531,1572,519.9531,1562,523.9531,1566,519.9531" style="stroke:#181818;stroke-width:1.0;"/><line style="stroke:#181818;stroke-width:1.0;" x1="550" x2="1568" y1="519.9531" y2="519.9531"/><text fill="#000000" font-family="sans-serif" font-size="13" lengthAdjust="spacing" textLength="177" x="557" y="515.0967">SaveChangesAsync(operation)</text><polygon fill="#181818" points="1907,546.3047,1917,550.3047,1907,554.3047,1911,550.3047" style="stroke:#181818;stroke-width:1.0;"/><line style="stroke:#181818;stroke-width:1.0;" x1="1584" x2="1913" y1="550.3047" y2="550.3047"/><text fill="#000000" font-family="sans-serif" font-size="13" lengthAdjust="spacing" textLength="177" x="1591" y="545.4482">SaveChangesAsync(operation)</text><polygon fill="#181818" points="561,606.6563,551,610.6563,561,614.6563,557,610.6563" style="stroke:#181818;stroke-width:1.0;"/><line style="stroke:#181818;stroke-width:1.0;stroke-dasharray:2.0,2.0;" x1="555" x2="1578" y1="610.6563" y2="610.6563"/><text fill="#000000" font-family="sans-serif" font-size="13" lengthAdjust="spacing" textLength="53" x="567" y="605.7998">operation</text><polygon fill="#181818" points="948,637.0078,958,641.0078,948,645.0078,952,641.0078" style="stroke:#181818;stroke-width:1.0;"/><line style="stroke:#181818;stroke-width:1.0;" x1="550" x2="954" y1="641.0078" y2="641.0078"/><text fill="#000000" font-family="sans-serif" font-size="13" lengthAdjust="spacing" textLength="391" x="557" y="636.1514">new OperationRequestDTO(operation.operationID, operation.priority)</text><polygon fill="#181818" points="561,667.3594,551,671.3594,561,675.3594,557,671.3594" style="stroke:#181818;stroke-width:1.0;"/><line style="stroke:#181818;stroke-width:1.0;stroke-dasharray:2.0,2.0;" x1="555" x2="964" y1="671.3594" y2="671.3594"/><text fill="#000000" font-family="sans-serif" font-size="13" lengthAdjust="spacing" textLength="127" x="567" y="666.5029">operationRequestDTO</text><polygon fill="#181818" points="319,697.7109,309,701.7109,319,705.7109,315,701.7109" style="stroke:#181818;stroke-width:1.0;"/><line style="stroke:#181818;stroke-width:1.0;stroke-dasharray:2.0,2.0;" x1="313" x2="544" y1="701.7109" y2="701.7109"/><text fill="#000000" font-family="sans-serif" font-size="13" lengthAdjust="spacing" textLength="127" x="325" y="696.8545">operationRequestDTO</text><polygon fill="#181818" points="11,728.0625,1,732.0625,11,736.0625,7,732.0625" style="stroke:#181818;stroke-width:1.0;"/><line style="stroke:#181818;stroke-width:1.0;stroke-dasharray:2.0,2.0;" x1="5" x2="302" y1="732.0625" y2="732.0625"/><text fill="#000000" font-family="sans-serif" font-size="13" lengthAdjust="spacing" textLength="44" x="17" y="727.2061">200 OK</text><!--SRC=[tLMnRjim4Dtv5HnZe8hSBWK4ma1h0stGmK5KRrakqjac8fCgIJiGYlvxILkYA5coKnHPmaMKUE_Tkxi7IZzpKOA27Tr98REjaZkaHksHQ7zIGlOC6qnDLI1Lc1aGco8Cq5l8vGiN6xg6GYCXXXiRckAlFOeCwOB3niNTfEbYGYEwcay_VduKgp87ur3tYal5JKKidU4PBq4OkYnHsMCfr8FZqMOkXL6oA51Hq3HuOoppBxFPC4dDaQ8wSAl84ZHRnlHfTmMw-BbqCFTWB3VoIhYBFVjcWN87N5YiBHsUGDik6LYl7x2KcXkfggEqtYV6b7_ffUs5tWc3QWrrXMDdZF5c7ohfo-sAMfPdYgwqe2CcX8yf8L4q2mQRqFjL-ft6KF9OkrfYsMI8r2b5l7SUmhYi7VGeligyIkZlN6OsqztYWuVOVHFrXn3833zOP92E46fNu2ihfZP9GezUnI-w4jcDF7V6v8Zrf3NinEXMOpPB6JOYeT_G-BQDij-sHUGJp-cpXOp-rAtEo7gf_Gp-IyEe3a_V2NKhnty0T2i81-Bba5UG-vYXWNXAWI_-AXfiGUEVWHaq4m_5-1oz9Fww6r5-sJrTMOqplUw0Vz0gNVXuytfnrvsSmW7dM_jhGDqpqHjOzZN9teCthUjElXpu6xKrtuQNN9lzabyjlYFE_TQ6QsWJZbNZZiYGwSEh_1BV9U-pA0hlv8H-caxfyaVThW3P1lq5]--></g></svg>