<svg xmlns="http://www.w3.org/2000/svg" xmlns:xlink="http://www.w3.org/1999/xlink" contentStyleType="text/css" height="606px" preserveAspectRatio="none" style="width:774px;height:606px;background:#FFFFFF;" version="1.1" viewBox="0 0 774 606" width="774px" zoomAndPan="magnify"><defs/><g><rect fill="#FFFFFF" height="388.4922" style="stroke:#181818;stroke-width:1.0;" width="10" x="178.3364" y="116.9121"/><rect fill="#FFFFFF" height="325.9102" style="stroke:#181818;stroke-width:1.0;" width="10" x="289.6382" y="148.2031"/><rect fill="#FFFFFF" height="31.291" style="stroke:#181818;stroke-width:1.0;" width="10" x="416.1826" y="179.4941"/><rect fill="#FFFFFF" height="31.291" style="stroke:#181818;stroke-width:1.0;" width="10" x="416.1826" y="380.2402"/><rect fill="#FFFFFF" height="200.7461" style="stroke:#181818;stroke-width:1.0;" width="10" x="587.4824" y="242.0762"/><rect fill="#FFFFFF" height="67.582" style="stroke:#181818;stroke-width:1.0;" width="10" x="592.4824" y="343.9492"/><line style="stroke:#181818;stroke-width:0.5;stroke-dasharray:5.0,5.0;" x1="22" x2="22" y1="83.6211" y2="523.4043"/><line style="stroke:#181818;stroke-width:0.5;stroke-dasharray:5.0,5.0;" x1="183.2192" x2="183.2192" y1="83.6211" y2="523.4043"/><line style="stroke:#181818;stroke-width:0.5;stroke-dasharray:5.0,5.0;" x1="293.7212" x2="293.7212" y1="83.6211" y2="523.4043"/><line style="stroke:#181818;stroke-width:0.5;stroke-dasharray:5.0,5.0;" x1="420.4482" x2="420.4482" y1="83.6211" y2="523.4043"/><line style="stroke:#181818;stroke-width:0.5;stroke-dasharray:5.0,5.0;" x1="592.0273" x2="592.0273" y1="83.6211" y2="523.4043"/><line style="stroke:#181818;stroke-width:0.5;stroke-dasharray:5.0,5.0;" x1="708.9375" x2="708.9375" y1="83.6211" y2="523.4043"/><text fill="#000000" font-family="sans-serif" font-size="14" lengthAdjust="spacing" textLength="29.5586" x="5" y="80.1074">User</text><ellipse cx="22.7793" cy="13.5" fill="#E2E2F0" rx="8" ry="8" style="stroke:#181818;stroke-width:0.5;"/><path d="M22.7793,21.5 L22.7793,48.5 M9.7793,29.5 L35.7793,29.5 M22.7793,48.5 L9.7793,63.5 M22.7793,48.5 L35.7793,63.5 " fill="none" style="stroke:#181818;stroke-width:0.5;"/><text fill="#000000" font-family="sans-serif" font-size="14" lengthAdjust="spacing" textLength="29.5586" x="5" y="537.5117">User</text><ellipse cx="22.7793" cy="549.5254" fill="#E2E2F0" rx="8" ry="8" style="stroke:#181818;stroke-width:0.5;"/><path d="M22.7793,557.5254 L22.7793,584.5254 M9.7793,565.5254 L35.7793,565.5254 M22.7793,584.5254 L9.7793,599.5254 M22.7793,584.5254 L35.7793,599.5254 " fill="none" style="stroke:#181818;stroke-width:0.5;"/><rect fill="#E2E2F0" height="32.6211" rx="2.5" ry="2.5" style="stroke:#181818;stroke-width:0.5;" width="62.2344" x="152.2192" y="50"/><text fill="#000000" font-family="sans-serif" font-size="14" lengthAdjust="spacing" textLength="48.2344" x="159.2192" y="72.1074">file.html</text><rect fill="#E2E2F0" height="32.6211" rx="2.5" ry="2.5" style="stroke:#181818;stroke-width:0.5;" width="62.2344" x="152.2192" y="522.4043"/><text fill="#000000" font-family="sans-serif" font-size="14" lengthAdjust="spacing" textLength="48.2344" x="159.2192" y="544.5117">file.html</text><rect fill="#E2E2F0" height="32.6211" rx="2.5" ry="2.5" style="stroke:#181818;stroke-width:0.5;" width="119.834" x="234.7212" y="50"/><text fill="#000000" font-family="sans-serif" font-size="14" lengthAdjust="spacing" textLength="105.834" x="241.7212" y="72.1074">file.component.ts</text><rect fill="#E2E2F0" height="32.6211" rx="2.5" ry="2.5" style="stroke:#181818;stroke-width:0.5;" width="119.834" x="234.7212" y="522.4043"/><text fill="#000000" font-family="sans-serif" font-size="14" lengthAdjust="spacing" textLength="105.834" x="241.7212" y="544.5117">file.component.ts</text><rect fill="#E2E2F0" height="32.6211" rx="2.5" ry="2.5" style="stroke:#181818;stroke-width:0.5;" width="89.4688" x="376.4482" y="50"/><text fill="#000000" font-family="sans-serif" font-size="14" lengthAdjust="spacing" textLength="75.4688" x="383.4482" y="72.1074">file-model.ts</text><rect fill="#E2E2F0" height="32.6211" rx="2.5" ry="2.5" style="stroke:#181818;stroke-width:0.5;" width="89.4688" x="376.4482" y="522.4043"/><text fill="#000000" font-family="sans-serif" font-size="14" lengthAdjust="spacing" textLength="75.4688" x="383.4482" y="544.5117">file-model.ts</text><rect fill="#E2E2F0" height="32.6211" rx="2.5" ry="2.5" style="stroke:#181818;stroke-width:0.5;" width="94.9102" x="545.0273" y="50"/><text fill="#000000" font-family="sans-serif" font-size="14" lengthAdjust="spacing" textLength="80.9102" x="552.0273" y="72.1074">file.service.ts</text><rect fill="#E2E2F0" height="32.6211" rx="2.5" ry="2.5" style="stroke:#181818;stroke-width:0.5;" width="94.9102" x="545.0273" y="522.4043"/><text fill="#000000" font-family="sans-serif" font-size="14" lengthAdjust="spacing" textLength="80.9102" x="552.0273" y="544.5117">file.service.ts</text><rect fill="#E2E2F0" height="32.6211" rx="2.5" ry="2.5" style="stroke:#181818;stroke-width:0.5;" width="118.2891" x="649.9375" y="50"/><text fill="#000000" font-family="sans-serif" font-size="14" lengthAdjust="spacing" textLength="104.2891" x="656.9375" y="72.1074">Backend Module</text><rect fill="#E2E2F0" height="32.6211" rx="2.5" ry="2.5" style="stroke:#181818;stroke-width:0.5;" width="118.2891" x="649.9375" y="522.4043"/><text fill="#000000" font-family="sans-serif" font-size="14" lengthAdjust="spacing" textLength="104.2891" x="656.9375" y="544.5117">Backend Module</text><rect fill="#FFFFFF" height="388.4922" style="stroke:#181818;stroke-width:1.0;" width="10" x="178.3364" y="116.9121"/><rect fill="#FFFFFF" height="325.9102" style="stroke:#181818;stroke-width:1.0;" width="10" x="289.6382" y="148.2031"/><rect fill="#FFFFFF" height="31.291" style="stroke:#181818;stroke-width:1.0;" width="10" x="416.1826" y="179.4941"/><rect fill="#FFFFFF" height="31.291" style="stroke:#181818;stroke-width:1.0;" width="10" x="416.1826" y="380.2402"/><rect fill="#FFFFFF" height="200.7461" style="stroke:#181818;stroke-width:1.0;" width="10" x="587.4824" y="242.0762"/><rect fill="#FFFFFF" height="67.582" style="stroke:#181818;stroke-width:1.0;" width="10" x="592.4824" y="343.9492"/><polygon fill="#181818" points="166.3364,112.9121,176.3364,116.9121,166.3364,120.9121,170.3364,116.9121" style="stroke:#181818;stroke-width:1.0;"/><line style="stroke:#181818;stroke-width:1.0;" x1="22.7793" x2="172.3364" y1="116.9121" y2="116.9121"/><text fill="#000000" font-family="sans-serif" font-size="13" lengthAdjust="spacing" textLength="136.5571" x="29.7793" y="111.6494">Request for create form</text><polygon fill="#181818" points="277.6382,144.2031,287.6382,148.2031,277.6382,152.2031,281.6382,148.2031" style="stroke:#181818;stroke-width:1.0;"/><line style="stroke:#181818;stroke-width:1.0;" x1="188.3364" x2="283.6382" y1="148.2031" y2="148.2031"/><text fill="#000000" font-family="sans-serif" font-size="13" lengthAdjust="spacing" textLength="68.6309" x="195.3364" y="142.9404">Create form</text><polygon fill="#181818" points="404.1826,175.4941,414.1826,179.4941,404.1826,183.4941,408.1826,179.4941" style="stroke:#181818;stroke-width:1.0;"/><line style="stroke:#181818;stroke-width:1.0;" x1="299.6382" x2="410.1826" y1="179.4941" y2="179.4941"/><text fill="#000000" font-family="sans-serif" font-size="13" lengthAdjust="spacing" textLength="97.5444" x="306.6382" y="174.2314">Create form data</text><polygon fill="#181818" points="310.6382,206.7852,300.6382,210.7852,310.6382,214.7852,306.6382,210.7852" style="stroke:#181818;stroke-width:1.0;"/><line style="stroke:#181818;stroke-width:1.0;stroke-dasharray:2.0,2.0;" x1="304.6382" x2="420.1826" y1="210.7852" y2="210.7852"/><text fill="#000000" font-family="sans-serif" font-size="13" lengthAdjust="spacing" textLength="77.3208" x="316.6382" y="205.5225">Retrieve data</text><polygon fill="#181818" points="575.4824,238.0762,585.4824,242.0762,575.4824,246.0762,579.4824,242.0762" style="stroke:#181818;stroke-width:1.0;"/><line style="stroke:#181818;stroke-width:1.0;" x1="299.6382" x2="581.4824" y1="242.0762" y2="242.0762"/><text fill="#000000" font-family="sans-serif" font-size="13" lengthAdjust="spacing" textLength="59.2744" x="306.6382" y="236.8135">Send data</text><polygon fill="#181818" points="697.082,269.3672,707.082,273.3672,697.082,277.3672,701.082,273.3672" style="stroke:#181818;stroke-width:1.0;"/><line style="stroke:#181818;stroke-width:1.0;stroke-dasharray:2.0,2.0;" x1="597.4824" x2="703.082" y1="273.3672" y2="273.3672"/><text fill="#000000" font-family="sans-serif" font-size="13" lengthAdjust="spacing" textLength="83.8271" x="604.4824" y="268.1045">http.post(data)</text><polygon fill="#181818" points="608.4824,300.6582,598.4824,304.6582,608.4824,308.6582,604.4824,304.6582" style="stroke:#181818;stroke-width:1.0;"/><line style="stroke:#181818;stroke-width:1.0;stroke-dasharray:2.0,2.0;" x1="602.4824" x2="708.082" y1="304.6582" y2="304.6582"/><text fill="#000000" font-family="sans-serif" font-size="13" lengthAdjust="spacing" textLength="86.709" x="614.4824" y="299.3955">Data Retrieved</text><line style="stroke:#181818;stroke-width:1.0;" x1="597.4824" x2="644.4824" y1="330.9492" y2="330.9492"/><line style="stroke:#181818;stroke-width:1.0;" x1="644.4824" x2="644.4824" y1="330.9492" y2="343.9492"/><line style="stroke:#181818;stroke-width:1.0;" x1="603.4824" x2="644.4824" y1="343.9492" y2="343.9492"/><polygon fill="#181818" points="613.4824,339.9492,603.4824,343.9492,613.4824,347.9492,609.4824,343.9492" style="stroke:#181818;stroke-width:1.0;"/><text fill="#000000" font-family="sans-serif" font-size="13" lengthAdjust="spacing" textLength="62.8608" x="609.4824" y="325.6865">data.map()</text><polygon fill="#181818" points="437.1826,376.2402,427.1826,380.2402,437.1826,384.2402,433.1826,380.2402" style="stroke:#181818;stroke-width:1.0;"/><line style="stroke:#181818;stroke-width:1.0;stroke-dasharray:2.0,2.0;" x1="431.1826" x2="591.4824" y1="380.2402" y2="380.2402"/><text fill="#000000" font-family="sans-serif" font-size="13" lengthAdjust="spacing" textLength="56.3608" x="443.1826" y="374.9775">Map Data</text><polygon fill="#181818" points="575.4824,407.5313,585.4824,411.5313,575.4824,415.5313,579.4824,411.5313" style="stroke:#181818;stroke-width:1.0;"/><line style="stroke:#181818;stroke-width:1.0;stroke-dasharray:2.0,2.0;" x1="421.1826" x2="581.4824" y1="411.5313" y2="411.5313"/><text fill="#000000" font-family="sans-serif" font-size="13" lengthAdjust="spacing" textLength="137.2998" x="428.1826" y="406.2686">Mapped Data Retrieved</text><polygon fill="#181818" points="310.6382,438.8223,300.6382,442.8223,310.6382,446.8223,306.6382,442.8223" style="stroke:#181818;stroke-width:1.0;"/><line style="stroke:#181818;stroke-width:1.0;stroke-dasharray:2.0,2.0;" x1="304.6382" x2="591.4824" y1="442.8223" y2="442.8223"/><text fill="#000000" font-family="sans-serif" font-size="13" lengthAdjust="spacing" textLength="137.2998" x="316.6382" y="437.5596">Mapped Data Retrieved</text><polygon fill="#181818" points="199.3364,470.1133,189.3364,474.1133,199.3364,478.1133,195.3364,474.1133" style="stroke:#181818;stroke-width:1.0;"/><line style="stroke:#181818;stroke-width:1.0;stroke-dasharray:2.0,2.0;" x1="193.3364" x2="293.6382" y1="474.1133" y2="474.1133"/><text fill="#000000" font-family="sans-serif" font-size="13" lengthAdjust="spacing" textLength="77.3018" x="205.3364" y="468.8506">Form created</text><polygon fill="#181818" points="33.7793,501.4043,23.7793,505.4043,33.7793,509.4043,29.7793,505.4043" style="stroke:#181818;stroke-width:1.0;"/><line style="stroke:#181818;stroke-width:1.0;stroke-dasharray:2.0,2.0;" x1="27.7793" x2="182.3364" y1="505.4043" y2="505.4043"/><text fill="#000000" font-family="sans-serif" font-size="13" lengthAdjust="spacing" textLength="77.3018" x="39.7793" y="500.1416">Form created</text><!--SRC=[XLCxRiCm3Drz2Y9JEjW7y90XAOekMLBq08B484BzKMtQvwyeoueKkpOdYdfyUln8I6ex-Ewn0z73a1dHaPRQY8RWSDSL5W-ggmDVVbfdvLwsjMaRRAYWtk4kSs09pkjMOJK3htnOORHYHYrnXdrDnnHu5l876yKSGuKEvqDPDa1-ScfBkE7lW3t1tHOfEnI4xDQPaAH7FhcYm1exd1VKbt294XWIafuLWhSGOGfNLv8EIf08uC0pDG0YSn78Knqtf4xZY2aBcy9_k18zle6bTMp7rgNCJOxPVSp9ySqjuK5a2jFsT6IYjoI1RHvC7Z_yRg6X3BN-I0Hdvg8MvhYatnJyAjeFuYhCf601tfd6SYf1ekKqgBOAsvpFo-LUzwDbs7zuWpTQY_15FdW_fx_nv8auqcMVlebD7bOoeopth_u0]--></g></svg>