<?xml version="1.0" encoding="us-ascii" standalone="no"?><svg xmlns="http://www.w3.org/2000/svg" xmlns:xlink="http://www.w3.org/1999/xlink" contentStyleType="text/css" height="923px" preserveAspectRatio="none" style="width:1085px;height:923px;background:#FFFFFF;" version="1.1" viewBox="0 0 1085 923" width="1085px" zoomAndPan="magnify"><defs/><g><text fill="#000000" font-family="sans-serif" font-size="14" font-weight="bold" lengthAdjust="spacing" textLength="190" x="440.75" y="24.5332">Class Diagram (CD) - UC021</text><!--class OperationTypeController--><g id="elem_OperationTypeController"><rect codeLine="12" fill="#F1F1F1" height="65.6094" id="OperationTypeController" rx="2.5" ry="2.5" style="stroke:#181818;stroke-width:0.5;" width="487" x="386" y="45.6094"/><ellipse cx="546.75" cy="61.6094" fill="#ADD1B2" rx="11" ry="11" style="stroke:#181818;stroke-width:1.0;"/><path d="M549.5156,57.4844 Q549.6719,57.2656 549.8594,57.1563 Q550.0469,57.0469 550.2656,57.0469 Q550.6406,57.0469 550.875,57.3125 Q551.1094,57.5625 551.1094,58.1719 L551.1094,59.625 Q551.1094,60.2344 550.875,60.5 Q550.6406,60.7656 550.2656,60.7656 Q549.9219,60.7656 549.7188,60.5625 Q549.5156,60.375 549.4063,59.8594 Q549.3594,59.5 549.1719,59.3125 Q548.8438,58.9375 548.2344,58.7188 Q547.625,58.5 547,58.5 Q546.2344,58.5 545.5938,58.8281 Q544.9688,59.1563 544.4688,59.9063 Q543.9844,60.6563 543.9844,61.6875 L543.9844,62.7813 Q543.9844,64.0156 544.875,64.8438 Q545.7656,65.6563 547.3594,65.6563 Q548.2969,65.6563 548.9531,65.4063 Q549.3438,65.25 549.7656,64.8125 Q550.0313,64.5469 550.1719,64.4688 Q550.3281,64.3906 550.5313,64.3906 Q550.8594,64.3906 551.1094,64.6563 Q551.375,64.9063 551.375,65.25 Q551.375,65.5938 551.0313,66 Q550.5313,66.5781 549.7344,66.9063 Q548.6563,67.3594 547.3594,67.3594 Q545.8438,67.3594 544.6406,66.7344 Q543.6563,66.2344 542.9688,65.1719 Q542.2813,64.0938 542.2813,62.8125 L542.2813,61.6563 Q542.2813,60.3281 542.8906,59.1875 Q543.5156,58.0313 544.6094,57.4219 Q545.7031,56.7969 546.9375,56.7969 Q547.6719,56.7969 548.3125,56.9688 Q548.9688,57.125 549.5156,57.4844 Z " fill="#000000"/><text fill="#000000" font-family="sans-serif" font-size="14" lengthAdjust="spacing" textLength="157" x="567.25" y="67.3379">OperationTypeController</text><line style="stroke:#181818;stroke-width:0.5;" x1="387" x2="872" y1="77.6094" y2="77.6094"/><line style="stroke:#181818;stroke-width:0.5;" x1="387" x2="872" y1="85.6094" y2="85.6094"/><text fill="#000000" font-family="sans-serif" font-size="14" lengthAdjust="spacing" textLength="475" x="392" y="104.1426">+Update(dto: OperationTypeDto): Task&lt;ActionResult&lt;OperationTypeDto&gt;&gt;</text></g><!--class OperationTypeService--><g id="elem_OperationTypeService"><rect codeLine="16" fill="#F1F1F1" height="65.6094" id="OperationTypeService" rx="2.5" ry="2.5" style="stroke:#181818;stroke-width:0.5;" width="430" x="280.5" y="171.6094"/><ellipse cx="420.25" cy="187.6094" fill="#ADD1B2" rx="11" ry="11" style="stroke:#181818;stroke-width:1.0;"/><path d="M423.0156,183.4844 Q423.1719,183.2656 423.3594,183.1563 Q423.5469,183.0469 423.7656,183.0469 Q424.1406,183.0469 424.375,183.3125 Q424.6094,183.5625 424.6094,184.1719 L424.6094,185.625 Q424.6094,186.2344 424.375,186.5 Q424.1406,186.7656 423.7656,186.7656 Q423.4219,186.7656 423.2188,186.5625 Q423.0156,186.375 422.9063,185.8594 Q422.8594,185.5 422.6719,185.3125 Q422.3438,184.9375 421.7344,184.7188 Q421.125,184.5 420.5,184.5 Q419.7344,184.5 419.0938,184.8281 Q418.4688,185.1563 417.9688,185.9063 Q417.4844,186.6563 417.4844,187.6875 L417.4844,188.7813 Q417.4844,190.0156 418.375,190.8438 Q419.2656,191.6563 420.8594,191.6563 Q421.7969,191.6563 422.4531,191.4063 Q422.8438,191.25 423.2656,190.8125 Q423.5313,190.5469 423.6719,190.4688 Q423.8281,190.3906 424.0313,190.3906 Q424.3594,190.3906 424.6094,190.6563 Q424.875,190.9063 424.875,191.25 Q424.875,191.5938 424.5313,192 Q424.0313,192.5781 423.2344,192.9063 Q422.1563,193.3594 420.8594,193.3594 Q419.3438,193.3594 418.1406,192.7344 Q417.1563,192.2344 416.4688,191.1719 Q415.7813,190.0938 415.7813,188.8125 L415.7813,187.6563 Q415.7813,186.3281 416.3906,185.1875 Q417.0156,184.0313 418.1094,183.4219 Q419.2031,182.7969 420.4375,182.7969 Q421.1719,182.7969 421.8125,182.9688 Q422.4688,183.125 423.0156,183.4844 Z " fill="#000000"/><text fill="#000000" font-family="sans-serif" font-size="14" lengthAdjust="spacing" textLength="142" x="440.75" y="193.3379">OperationTypeService</text><line style="stroke:#181818;stroke-width:0.5;" x1="281.5" x2="709.5" y1="203.6094" y2="203.6094"/><line style="stroke:#181818;stroke-width:0.5;" x1="281.5" x2="709.5" y1="211.6094" y2="211.6094"/><text fill="#000000" font-family="sans-serif" font-size="14" lengthAdjust="spacing" textLength="418" x="286.5" y="230.1426">+UpdateAsync(dto: OperationTypeDto): Task&lt;OperationTypeDto&gt;</text></g><!--class IOperationTypeRepository--><g id="elem_IOperationTypeRepository"><rect codeLine="20" fill="#F1F1F1" height="83.2188" id="IOperationTypeRepository" rx="2.5" ry="2.5" style="stroke:#181818;stroke-width:0.5;" width="408" x="84.5" y="297.6094"/><ellipse cx="200.75" cy="313.6094" fill="#B4A7E5" rx="11" ry="11" style="stroke:#181818;stroke-width:1.0;"/><path d="M201.7031,310.25 L201.7031,316.9063 L203.4219,316.9063 Q204.0313,316.9063 204.2969,317.1406 Q204.5625,317.375 204.5625,317.7656 Q204.5625,318.1406 204.2969,318.375 Q204.0313,318.6094 203.4219,318.6094 L198.2813,318.6094 Q197.6719,318.6094 197.4063,318.375 Q197.1406,318.1406 197.1406,317.75 Q197.1406,317.375 197.4063,317.1406 Q197.6719,316.9063 198.2813,316.9063 L200,316.9063 L200,310.25 L198.2813,310.25 Q197.6719,310.25 197.4063,310.0156 Q197.1406,309.7813 197.1406,309.3906 Q197.1406,309.0156 197.4063,308.7813 Q197.6719,308.5469 198.2813,308.5469 L203.4219,308.5469 Q204.0313,308.5469 204.2969,308.7813 Q204.5625,309.0156 204.5625,309.3906 Q204.5625,309.7813 204.2969,310.0156 Q204.0313,310.25 203.4219,310.25 L201.7031,310.25 Z " fill="#000000"/><text fill="#000000" font-family="sans-serif" font-size="14" font-style="italic" lengthAdjust="spacing" textLength="167" x="221.25" y="319.3379">IOperationTypeRepository</text><line style="stroke:#181818;stroke-width:0.5;" x1="85.5" x2="491.5" y1="329.6094" y2="329.6094"/><line style="stroke:#181818;stroke-width:0.5;" x1="85.5" x2="491.5" y1="337.6094" y2="337.6094"/><text fill="#000000" font-family="sans-serif" font-size="14" lengthAdjust="spacing" textLength="360" x="90.5" y="356.1426">+GetByNameAsync(name: Name): Task&lt;OperationType&gt;</text><text fill="#000000" font-family="sans-serif" font-size="14" lengthAdjust="spacing" textLength="396" x="90.5" y="373.752">+UpdateAsync(dto: OperationTypeDto): Task&lt;OperationType&gt;</text></g><!--class OperationType--><g id="elem_OperationType"><rect codeLine="25" fill="#F1F1F1" height="206.4844" id="OperationType" rx="2.5" ry="2.5" style="stroke:#181818;stroke-width:0.5;" width="424" x="92.5" y="440.6094"/><ellipse cx="252.75" cy="456.6094" fill="#ADD1B2" rx="11" ry="11" style="stroke:#181818;stroke-width:1.0;"/><path d="M255.5156,452.4844 Q255.6719,452.2656 255.8594,452.1563 Q256.0469,452.0469 256.2656,452.0469 Q256.6406,452.0469 256.875,452.3125 Q257.1094,452.5625 257.1094,453.1719 L257.1094,454.625 Q257.1094,455.2344 256.875,455.5 Q256.6406,455.7656 256.2656,455.7656 Q255.9219,455.7656 255.7188,455.5625 Q255.5156,455.375 255.4063,454.8594 Q255.3594,454.5 255.1719,454.3125 Q254.8438,453.9375 254.2344,453.7188 Q253.625,453.5 253,453.5 Q252.2344,453.5 251.5938,453.8281 Q250.9688,454.1563 250.4688,454.9063 Q249.9844,455.6563 249.9844,456.6875 L249.9844,457.7813 Q249.9844,459.0156 250.875,459.8438 Q251.7656,460.6563 253.3594,460.6563 Q254.2969,460.6563 254.9531,460.4063 Q255.3438,460.25 255.7656,459.8125 Q256.0313,459.5469 256.1719,459.4688 Q256.3281,459.3906 256.5313,459.3906 Q256.8594,459.3906 257.1094,459.6563 Q257.375,459.9063 257.375,460.25 Q257.375,460.5938 257.0313,461 Q256.5313,461.5781 255.7344,461.9063 Q254.6563,462.3594 253.3594,462.3594 Q251.8438,462.3594 250.6406,461.7344 Q249.6563,461.2344 248.9688,460.1719 Q248.2813,459.0938 248.2813,457.8125 L248.2813,456.6563 Q248.2813,455.3281 248.8906,454.1875 Q249.5156,453.0313 250.6094,452.4219 Q251.7031,451.7969 252.9375,451.7969 Q253.6719,451.7969 254.3125,451.9688 Q254.9688,452.125 255.5156,452.4844 Z " fill="#000000"/><text fill="#000000" font-family="sans-serif" font-size="14" lengthAdjust="spacing" textLength="95" x="273.25" y="462.3379">OperationType</text><line style="stroke:#181818;stroke-width:0.5;" x1="93.5" x2="515.5" y1="472.6094" y2="472.6094"/><text fill="#000000" font-family="sans-serif" font-size="14" lengthAdjust="spacing" textLength="135" x="98.5" y="491.1426">+Id: OperationTypeID</text><text fill="#000000" font-family="sans-serif" font-size="14" lengthAdjust="spacing" textLength="88" x="98.5" y="508.752">+Name: Name</text><text fill="#000000" font-family="sans-serif" font-size="14" lengthAdjust="spacing" textLength="188" x="98.5" y="526.3613">+Specialization: Specialization</text><text fill="#000000" font-family="sans-serif" font-size="14" lengthAdjust="spacing" textLength="228" x="98.5" y="543.9707">+RequiredStaff: List&lt;RequiredStaff&gt;</text><text fill="#000000" font-family="sans-serif" font-size="14" lengthAdjust="spacing" textLength="218" x="98.5" y="561.5801">+PhasesDuration: PhasesDuration</text><line style="stroke:#181818;stroke-width:0.5;" x1="93.5" x2="515.5" y1="568.6563" y2="568.6563"/><text fill="#000000" font-family="sans-serif" font-size="14" lengthAdjust="spacing" textLength="217" x="98.5" y="587.1895">+ChangeName(name: Name): void</text><text fill="#000000" font-family="sans-serif" font-size="14" lengthAdjust="spacing" textLength="366" x="98.5" y="604.7988">+ChangeSpecialization(specialization: Specialization): void</text><text fill="#000000" font-family="sans-serif" font-size="14" lengthAdjust="spacing" textLength="404" x="98.5" y="622.4082">+ChangeRequiredStaff(requiredStaff: List&lt;RequiredStaff&gt;): void</text><text fill="#000000" font-family="sans-serif" font-size="14" lengthAdjust="spacing" textLength="412" x="98.5" y="640.0176">+ChangePhasesDuration(phasesDuration: PhasesDuration): void</text></g><!--class OperationTypeDto--><g id="elem_OperationTypeDto"><rect codeLine="37" fill="#F1F1F1" height="136.0469" id="OperationTypeDto" rx="2.5" ry="2.5" style="stroke:#181818;stroke-width:0.5;" width="240" x="597.5" y="475.6094"/><ellipse cx="654.75" cy="491.6094" fill="#ADD1B2" rx="11" ry="11" style="stroke:#181818;stroke-width:1.0;"/><path d="M657.5156,487.4844 Q657.6719,487.2656 657.8594,487.1563 Q658.0469,487.0469 658.2656,487.0469 Q658.6406,487.0469 658.875,487.3125 Q659.1094,487.5625 659.1094,488.1719 L659.1094,489.625 Q659.1094,490.2344 658.875,490.5 Q658.6406,490.7656 658.2656,490.7656 Q657.9219,490.7656 657.7188,490.5625 Q657.5156,490.375 657.4063,489.8594 Q657.3594,489.5 657.1719,489.3125 Q656.8438,488.9375 656.2344,488.7188 Q655.625,488.5 655,488.5 Q654.2344,488.5 653.5938,488.8281 Q652.9688,489.1563 652.4688,489.9063 Q651.9844,490.6563 651.9844,491.6875 L651.9844,492.7813 Q651.9844,494.0156 652.875,494.8438 Q653.7656,495.6563 655.3594,495.6563 Q656.2969,495.6563 656.9531,495.4063 Q657.3438,495.25 657.7656,494.8125 Q658.0313,494.5469 658.1719,494.4688 Q658.3281,494.3906 658.5313,494.3906 Q658.8594,494.3906 659.1094,494.6563 Q659.375,494.9063 659.375,495.25 Q659.375,495.5938 659.0313,496 Q658.5313,496.5781 657.7344,496.9063 Q656.6563,497.3594 655.3594,497.3594 Q653.8438,497.3594 652.6406,496.7344 Q651.6563,496.2344 650.9688,495.1719 Q650.2813,494.0938 650.2813,492.8125 L650.2813,491.6563 Q650.2813,490.3281 650.8906,489.1875 Q651.5156,488.0313 652.6094,487.4219 Q653.7031,486.7969 654.9375,486.7969 Q655.6719,486.7969 656.3125,486.9688 Q656.9688,487.125 657.5156,487.4844 Z " fill="#000000"/><text fill="#000000" font-family="sans-serif" font-size="14" lengthAdjust="spacing" textLength="117" x="675.25" y="497.3379">OperationTypeDto</text><line style="stroke:#181818;stroke-width:0.5;" x1="598.5" x2="836.5" y1="507.6094" y2="507.6094"/><text fill="#000000" font-family="sans-serif" font-size="14" lengthAdjust="spacing" textLength="135" x="603.5" y="526.1426">+Id: OperationTypeID</text><text fill="#000000" font-family="sans-serif" font-size="14" lengthAdjust="spacing" textLength="88" x="603.5" y="543.752">+Name: Name</text><text fill="#000000" font-family="sans-serif" font-size="14" lengthAdjust="spacing" textLength="188" x="603.5" y="561.3613">+Specialization: Specialization</text><text fill="#000000" font-family="sans-serif" font-size="14" lengthAdjust="spacing" textLength="228" x="603.5" y="578.9707">+RequiredStaff: List&lt;RequiredStaff&gt;</text><text fill="#000000" font-family="sans-serif" font-size="14" lengthAdjust="spacing" textLength="218" x="603.5" y="596.5801">+PhasesDuration: PhasesDuration</text><line style="stroke:#181818;stroke-width:0.5;" x1="598.5" x2="836.5" y1="603.6563" y2="603.6563"/></g><!--class RequiredStaff--><g id="elem_RequiredStaff"><rect codeLine="45" fill="#F1F1F1" height="65.6094" id="RequiredStaff" rx="2.5" ry="2.5" style="stroke:#181818;stroke-width:0.5;" width="258" x="22.5" y="706.6094"/><ellipse cx="103.75" cy="722.6094" fill="#ADD1B2" rx="11" ry="11" style="stroke:#181818;stroke-width:1.0;"/><path d="M106.5156,718.4844 Q106.6719,718.2656 106.8594,718.1563 Q107.0469,718.0469 107.2656,718.0469 Q107.6406,718.0469 107.875,718.3125 Q108.1094,718.5625 108.1094,719.1719 L108.1094,720.625 Q108.1094,721.2344 107.875,721.5 Q107.6406,721.7656 107.2656,721.7656 Q106.9219,721.7656 106.7188,721.5625 Q106.5156,721.375 106.4063,720.8594 Q106.3594,720.5 106.1719,720.3125 Q105.8438,719.9375 105.2344,719.7188 Q104.625,719.5 104,719.5 Q103.2344,719.5 102.5938,719.8281 Q101.9688,720.1563 101.4688,720.9063 Q100.9844,721.6563 100.9844,722.6875 L100.9844,723.7813 Q100.9844,725.0156 101.875,725.8438 Q102.7656,726.6563 104.3594,726.6563 Q105.2969,726.6563 105.9531,726.4063 Q106.3438,726.25 106.7656,725.8125 Q107.0313,725.5469 107.1719,725.4688 Q107.3281,725.3906 107.5313,725.3906 Q107.8594,725.3906 108.1094,725.6563 Q108.375,725.9063 108.375,726.25 Q108.375,726.5938 108.0313,727 Q107.5313,727.5781 106.7344,727.9063 Q105.6563,728.3594 104.3594,728.3594 Q102.8438,728.3594 101.6406,727.7344 Q100.6563,727.2344 99.9688,726.1719 Q99.2813,725.0938 99.2813,723.8125 L99.2813,722.6563 Q99.2813,721.3281 99.8906,720.1875 Q100.5156,719.0313 101.6094,718.4219 Q102.7031,717.7969 103.9375,717.7969 Q104.6719,717.7969 105.3125,717.9688 Q105.9688,718.125 106.5156,718.4844 Z " fill="#000000"/><text fill="#000000" font-family="sans-serif" font-size="14" lengthAdjust="spacing" textLength="87" x="124.25" y="728.3379">RequiredStaff</text><line style="stroke:#181818;stroke-width:0.5;" x1="23.5" x2="279.5" y1="738.6094" y2="738.6094"/><text fill="#000000" font-family="sans-serif" font-size="14" lengthAdjust="spacing" textLength="246" x="28.5" y="757.1426">-_staff: Dictionary&lt;Role, StaffQuantity&gt;</text><line style="stroke:#181818;stroke-width:0.5;" x1="23.5" x2="279.5" y1="764.2188" y2="764.2188"/></g><g id="elem_GMN8"><path d="M315.5,726.6094 L315.5,735.6094 L280.93,739.6094 L315.5,743.6094 L315.5,752.9609 A0,0 0 0 0 315.5,752.9609 L659.5,752.9609 A0,0 0 0 0 659.5,752.9609 L659.5,736.6094 L649.5,726.6094 L315.5,726.6094 A0,0 0 0 0 315.5,726.6094 " fill="#FEFFDD" style="stroke:#181818;stroke-width:0.5;"/><path d="M649.5,726.6094 L649.5,736.6094 L659.5,736.6094 L649.5,726.6094 " fill="#FEFFDD" style="stroke:#181818;stroke-width:0.5;"/><text fill="#000000" font-family="sans-serif" font-size="13" lengthAdjust="spacing" textLength="323" x="321.5" y="745.1045">Role can only be a staff role: Doctor, Nurse or Assistant</text></g><!--class Quantity--><g id="elem_Quantity"><rect codeLine="52" fill="#F1F1F1" height="65.6094" id="Quantity" rx="2.5" ry="2.5" style="stroke:#181818;stroke-width:0.5;" width="96" x="103.5" y="832.6094"/><ellipse cx="123.45" cy="848.6094" fill="#ADD1B2" rx="11" ry="11" style="stroke:#181818;stroke-width:1.0;"/><path d="M126.2156,844.4844 Q126.3719,844.2656 126.5594,844.1563 Q126.7469,844.0469 126.9656,844.0469 Q127.3406,844.0469 127.575,844.3125 Q127.8094,844.5625 127.8094,845.1719 L127.8094,846.625 Q127.8094,847.2344 127.575,847.5 Q127.3406,847.7656 126.9656,847.7656 Q126.6219,847.7656 126.4188,847.5625 Q126.2156,847.375 126.1063,846.8594 Q126.0594,846.5 125.8719,846.3125 Q125.5438,845.9375 124.9344,845.7188 Q124.325,845.5 123.7,845.5 Q122.9344,845.5 122.2938,845.8281 Q121.6688,846.1563 121.1688,846.9063 Q120.6844,847.6563 120.6844,848.6875 L120.6844,849.7813 Q120.6844,851.0156 121.575,851.8438 Q122.4656,852.6563 124.0594,852.6563 Q124.9969,852.6563 125.6531,852.4063 Q126.0438,852.25 126.4656,851.8125 Q126.7313,851.5469 126.8719,851.4688 Q127.0281,851.3906 127.2313,851.3906 Q127.5594,851.3906 127.8094,851.6563 Q128.075,851.9063 128.075,852.25 Q128.075,852.5938 127.7313,853 Q127.2313,853.5781 126.4344,853.9063 Q125.3563,854.3594 124.0594,854.3594 Q122.5438,854.3594 121.3406,853.7344 Q120.3563,853.2344 119.6688,852.1719 Q118.9813,851.0938 118.9813,849.8125 L118.9813,848.6563 Q118.9813,847.3281 119.5906,846.1875 Q120.2156,845.0313 121.3094,844.4219 Q122.4031,843.7969 123.6375,843.7969 Q124.3719,843.7969 125.0125,843.9688 Q125.6688,844.125 126.2156,844.4844 Z " fill="#000000"/><text fill="#000000" font-family="sans-serif" font-size="14" lengthAdjust="spacing" textLength="53" x="138.55" y="854.3379">Quantity</text><line style="stroke:#181818;stroke-width:0.5;" x1="104.5" x2="198.5" y1="864.6094" y2="864.6094"/><text fill="#000000" font-family="sans-serif" font-size="14" lengthAdjust="spacing" textLength="84" x="109.5" y="883.1426">+Quantity: int</text><line style="stroke:#181818;stroke-width:0.5;" x1="104.5" x2="198.5" y1="890.2188" y2="890.2188"/></g><g id="elem_GMN12"><path d="M448,852.6094 L448,878.9609 L653,878.9609 L653,862.6094 L643,852.6094 L448,852.6094 " fill="#FEFFDD" style="stroke:#181818;stroke-width:0.5;"/><path d="M643,852.6094 L643,862.6094 L653,862.6094 L643,852.6094 " fill="#FEFFDD" style="stroke:#181818;stroke-width:1.0;"/><text fill="#000000" font-family="sans-serif" font-size="13" lengthAdjust="spacing" textLength="184" x="454" y="871.1045">Quantity must be greater than 0</text></g><!--class Specialization--><g id="elem_Specialization"><rect codeLine="59" fill="#F1F1F1" height="65.6094" id="Specialization" rx="2.5" ry="2.5" style="stroke:#181818;stroke-width:0.5;" width="178" x="234.5" y="832.6094"/><ellipse cx="276.5" cy="848.6094" fill="#ADD1B2" rx="11" ry="11" style="stroke:#181818;stroke-width:1.0;"/><path d="M279.2656,844.4844 Q279.4219,844.2656 279.6094,844.1563 Q279.7969,844.0469 280.0156,844.0469 Q280.3906,844.0469 280.625,844.3125 Q280.8594,844.5625 280.8594,845.1719 L280.8594,846.625 Q280.8594,847.2344 280.625,847.5 Q280.3906,847.7656 280.0156,847.7656 Q279.6719,847.7656 279.4688,847.5625 Q279.2656,847.375 279.1563,846.8594 Q279.1094,846.5 278.9219,846.3125 Q278.5938,845.9375 277.9844,845.7188 Q277.375,845.5 276.75,845.5 Q275.9844,845.5 275.3438,845.8281 Q274.7188,846.1563 274.2188,846.9063 Q273.7344,847.6563 273.7344,848.6875 L273.7344,849.7813 Q273.7344,851.0156 274.625,851.8438 Q275.5156,852.6563 277.1094,852.6563 Q278.0469,852.6563 278.7031,852.4063 Q279.0938,852.25 279.5156,851.8125 Q279.7813,851.5469 279.9219,851.4688 Q280.0781,851.3906 280.2813,851.3906 Q280.6094,851.3906 280.8594,851.6563 Q281.125,851.9063 281.125,852.25 Q281.125,852.5938 280.7813,853 Q280.2813,853.5781 279.4844,853.9063 Q278.4063,854.3594 277.1094,854.3594 Q275.5938,854.3594 274.3906,853.7344 Q273.4063,853.2344 272.7188,852.1719 Q272.0313,851.0938 272.0313,849.8125 L272.0313,848.6563 Q272.0313,847.3281 272.6406,846.1875 Q273.2656,845.0313 274.3594,844.4219 Q275.4531,843.7969 276.6875,843.7969 Q277.4219,843.7969 278.0625,843.9688 Q278.7188,844.125 279.2656,844.4844 Z " fill="#000000"/><text fill="#000000" font-family="sans-serif" font-size="14" lengthAdjust="spacing" textLength="86" x="296.5" y="854.3379">Specialization</text><line style="stroke:#181818;stroke-width:0.5;" x1="235.5" x2="411.5" y1="864.6094" y2="864.6094"/><text fill="#000000" font-family="sans-serif" font-size="14" lengthAdjust="spacing" textLength="166" x="240.5" y="883.1426">+Designation: Designation</text><line style="stroke:#181818;stroke-width:0.5;" x1="235.5" x2="411.5" y1="890.2188" y2="890.2188"/></g><!--class PhasesDuration--><g id="elem_PhasesDuration"><rect codeLine="63" fill="#F1F1F1" height="65.6094" id="PhasesDuration" rx="2.5" ry="2.5" style="stroke:#181818;stroke-width:0.5;" width="260" x="694.5" y="706.6094"/><ellipse cx="769.75" cy="722.6094" fill="#ADD1B2" rx="11" ry="11" style="stroke:#181818;stroke-width:1.0;"/><path d="M772.5156,718.4844 Q772.6719,718.2656 772.8594,718.1563 Q773.0469,718.0469 773.2656,718.0469 Q773.6406,718.0469 773.875,718.3125 Q774.1094,718.5625 774.1094,719.1719 L774.1094,720.625 Q774.1094,721.2344 773.875,721.5 Q773.6406,721.7656 773.2656,721.7656 Q772.9219,721.7656 772.7188,721.5625 Q772.5156,721.375 772.4063,720.8594 Q772.3594,720.5 772.1719,720.3125 Q771.8438,719.9375 771.2344,719.7188 Q770.625,719.5 770,719.5 Q769.2344,719.5 768.5938,719.8281 Q767.9688,720.1563 767.4688,720.9063 Q766.9844,721.6563 766.9844,722.6875 L766.9844,723.7813 Q766.9844,725.0156 767.875,725.8438 Q768.7656,726.6563 770.3594,726.6563 Q771.2969,726.6563 771.9531,726.4063 Q772.3438,726.25 772.7656,725.8125 Q773.0313,725.5469 773.1719,725.4688 Q773.3281,725.3906 773.5313,725.3906 Q773.8594,725.3906 774.1094,725.6563 Q774.375,725.9063 774.375,726.25 Q774.375,726.5938 774.0313,727 Q773.5313,727.5781 772.7344,727.9063 Q771.6563,728.3594 770.3594,728.3594 Q768.8438,728.3594 767.6406,727.7344 Q766.6563,727.2344 765.9688,726.1719 Q765.2813,725.0938 765.2813,723.8125 L765.2813,722.6563 Q765.2813,721.3281 765.8906,720.1875 Q766.5156,719.0313 767.6094,718.4219 Q768.7031,717.7969 769.9375,717.7969 Q770.6719,717.7969 771.3125,717.9688 Q771.9688,718.125 772.5156,718.4844 Z " fill="#000000"/><text fill="#000000" font-family="sans-serif" font-size="14" lengthAdjust="spacing" textLength="101" x="790.25" y="728.3379">PhasesDuration</text><line style="stroke:#181818;stroke-width:0.5;" x1="695.5" x2="953.5" y1="738.6094" y2="738.6094"/><text fill="#000000" font-family="sans-serif" font-size="14" lengthAdjust="spacing" textLength="248" x="700.5" y="757.1426">-_phases: Dictionary&lt;Phase, Duration&gt;</text><line style="stroke:#181818;stroke-width:0.5;" x1="695.5" x2="953.5" y1="764.2188" y2="764.2188"/></g><!--class Phase--><g id="elem_Phase"><rect codeLine="67" fill="#F1F1F1" height="65.6094" id="Phase" rx="2.5" ry="2.5" style="stroke:#181818;stroke-width:0.5;" width="260" x="691.5" y="832.6094"/><ellipse cx="797.25" cy="848.6094" fill="#EB937F" rx="11" ry="11" style="stroke:#181818;stroke-width:1.0;"/><path d="M796.1094,849.4063 L796.1094,851.9063 L800.4375,851.9063 L800.4375,850.9844 Q800.4375,850.375 800.6719,850.1094 Q800.9219,849.8438 801.2969,849.8438 Q801.6719,849.8438 801.9063,850.1094 Q802.1406,850.375 802.1406,850.9844 L802.1406,853.6094 L794.1406,853.6094 Q793.5156,853.6094 793.25,853.375 Q793,853.1406 793,852.75 Q793,852.375 793.2656,852.1406 Q793.5313,851.9063 794.1406,851.9063 L794.4063,851.9063 L794.4063,845.25 L794.1406,845.25 Q793.5156,845.25 793.25,845.0156 Q793,844.7813 793,844.3906 Q793,844.0156 793.25,843.7813 Q793.5156,843.5469 794.1406,843.5469 L801.7656,843.5469 L801.7656,846.1406 Q801.7656,846.75 801.5313,847.0156 Q801.3125,847.2656 800.9219,847.2656 Q800.5469,847.2656 800.3125,847.0156 Q800.0781,846.75 800.0781,846.1406 L800.0781,845.25 L796.1094,845.25 L796.1094,847.7031 L797.5938,847.7031 Q797.5938,847.0469 797.7188,846.8594 Q797.9844,846.4531 798.4531,846.4531 Q798.8281,846.4531 799.0625,846.7188 Q799.2969,846.9688 799.2969,847.5781 L799.2969,849.5469 Q799.2969,850.0938 799.1719,850.2813 Q798.9063,850.6719 798.4531,850.6719 Q797.9844,850.6719 797.7188,850.2656 Q797.5938,850.0781 797.5938,849.4063 L796.1094,849.4063 Z " fill="#000000"/><text fill="#000000" font-family="sans-serif" font-size="14" lengthAdjust="spacing" textLength="40" x="817.75" y="854.3379">Phase</text><line style="stroke:#181818;stroke-width:0.5;" x1="692.5" x2="950.5" y1="864.6094" y2="864.6094"/><text fill="#000000" font-family="sans-serif" font-size="14" lengthAdjust="spacing" textLength="248" x="697.5" y="883.1426">PREPARATION, SURGERY, CLEANING</text><line style="stroke:#181818;stroke-width:0.5;" x1="692.5" x2="950.5" y1="890.2188" y2="890.2188"/></g><!--class Duration--><g id="elem_Duration"><rect codeLine="71" fill="#F1F1F1" height="65.6094" id="Duration" rx="2.5" ry="2.5" style="stroke:#181818;stroke-width:0.5;" width="92" x="986.5" y="832.6094"/><ellipse cx="1004.2" cy="848.6094" fill="#ADD1B2" rx="11" ry="11" style="stroke:#181818;stroke-width:1.0;"/><path d="M1006.9656,844.4844 Q1007.1219,844.2656 1007.3094,844.1563 Q1007.4969,844.0469 1007.7156,844.0469 Q1008.0906,844.0469 1008.325,844.3125 Q1008.5594,844.5625 1008.5594,845.1719 L1008.5594,846.625 Q1008.5594,847.2344 1008.325,847.5 Q1008.0906,847.7656 1007.7156,847.7656 Q1007.3719,847.7656 1007.1688,847.5625 Q1006.9656,847.375 1006.8563,846.8594 Q1006.8094,846.5 1006.6219,846.3125 Q1006.2938,845.9375 1005.6844,845.7188 Q1005.075,845.5 1004.45,845.5 Q1003.6844,845.5 1003.0438,845.8281 Q1002.4188,846.1563 1001.9188,846.9063 Q1001.4344,847.6563 1001.4344,848.6875 L1001.4344,849.7813 Q1001.4344,851.0156 1002.325,851.8438 Q1003.2156,852.6563 1004.8094,852.6563 Q1005.7469,852.6563 1006.4031,852.4063 Q1006.7938,852.25 1007.2156,851.8125 Q1007.4813,851.5469 1007.6219,851.4688 Q1007.7781,851.3906 1007.9813,851.3906 Q1008.3094,851.3906 1008.5594,851.6563 Q1008.825,851.9063 1008.825,852.25 Q1008.825,852.5938 1008.4813,853 Q1007.9813,853.5781 1007.1844,853.9063 Q1006.1063,854.3594 1004.8094,854.3594 Q1003.2938,854.3594 1002.0906,853.7344 Q1001.1063,853.2344 1000.4188,852.1719 Q999.7313,851.0938 999.7313,849.8125 L999.7313,848.6563 Q999.7313,847.3281 1000.3406,846.1875 Q1000.9656,845.0313 1002.0594,844.4219 Q1003.1531,843.7969 1004.3875,843.7969 Q1005.1219,843.7969 1005.7625,843.9688 Q1006.4188,844.125 1006.9656,844.4844 Z " fill="#000000"/><text fill="#000000" font-family="sans-serif" font-size="14" lengthAdjust="spacing" textLength="54" x="1018.8" y="854.3379">Duration</text><line style="stroke:#181818;stroke-width:0.5;" x1="987.5" x2="1077.5" y1="864.6094" y2="864.6094"/><text fill="#000000" font-family="sans-serif" font-size="14" lengthAdjust="spacing" textLength="80" x="992.5" y="883.1426">+Minutes: int</text><line style="stroke:#181818;stroke-width:0.5;" x1="987.5" x2="1077.5" y1="890.2188" y2="890.2188"/></g><!--class Role--><g id="elem_Role"><rect fill="#F1F1F1" height="48" id="Role" rx="2.5" ry="2.5" style="stroke:#181818;stroke-width:0.5;" width="61" x="7" y="841.6094"/><ellipse cx="22" cy="857.6094" fill="#ADD1B2" rx="11" ry="11" style="stroke:#181818;stroke-width:1.0;"/><path d="M24.7656,853.4844 Q24.9219,853.2656 25.1094,853.1563 Q25.2969,853.0469 25.5156,853.0469 Q25.8906,853.0469 26.125,853.3125 Q26.3594,853.5625 26.3594,854.1719 L26.3594,855.625 Q26.3594,856.2344 26.125,856.5 Q25.8906,856.7656 25.5156,856.7656 Q25.1719,856.7656 24.9688,856.5625 Q24.7656,856.375 24.6563,855.8594 Q24.6094,855.5 24.4219,855.3125 Q24.0938,854.9375 23.4844,854.7188 Q22.875,854.5 22.25,854.5 Q21.4844,854.5 20.8438,854.8281 Q20.2188,855.1563 19.7188,855.9063 Q19.2344,856.6563 19.2344,857.6875 L19.2344,858.7813 Q19.2344,860.0156 20.125,860.8438 Q21.0156,861.6563 22.6094,861.6563 Q23.5469,861.6563 24.2031,861.4063 Q24.5938,861.25 25.0156,860.8125 Q25.2813,860.5469 25.4219,860.4688 Q25.5781,860.3906 25.7813,860.3906 Q26.1094,860.3906 26.3594,860.6563 Q26.625,860.9063 26.625,861.25 Q26.625,861.5938 26.2813,862 Q25.7813,862.5781 24.9844,862.9063 Q23.9063,863.3594 22.6094,863.3594 Q21.0938,863.3594 19.8906,862.7344 Q18.9063,862.2344 18.2188,861.1719 Q17.5313,860.0938 17.5313,858.8125 L17.5313,857.6563 Q17.5313,856.3281 18.1406,855.1875 Q18.7656,854.0313 19.8594,853.4219 Q20.9531,852.7969 22.1875,852.7969 Q22.9219,852.7969 23.5625,852.9688 Q24.2188,853.125 24.7656,853.4844 Z " fill="#000000"/><text fill="#000000" font-family="sans-serif" font-size="14" lengthAdjust="spacing" textLength="29" x="36" y="863.3379">Role</text><line style="stroke:#181818;stroke-width:0.5;" x1="8" x2="67" y1="873.6094" y2="873.6094"/><line style="stroke:#181818;stroke-width:0.5;" x1="8" x2="67" y1="881.6094" y2="881.6094"/></g><!--link Quantity to GMN12--><g id="link_Quantity_GMN12"><path d="M151.5,898.7694 C151.5,908.5094 151.5,916.6094 151.5,916.6094 C151.5,916.6094 550.5,916.6094 550.5,916.6094 C550.5,916.6094 550.5,893.8494 550.5,878.7394 " fill="none" id="Quantity-GMN12" style="stroke:#181818;stroke-width:1.0;stroke-dasharray:7.0,7.0;"/></g><!--link OperationTypeController to OperationTypeService--><g id="link_OperationTypeController_OperationTypeService"><path codeLine="91" d="M548.25,111.7194 C548.25,130.0894 548.25,146.8794 548.25,165.2894 " fill="none" id="OperationTypeController-to-OperationTypeService" style="stroke:#181818;stroke-width:1.0;stroke-dasharray:7.0,7.0;"/><polygon fill="#181818" points="548.25,171.2894,552.25,162.2894,548.25,166.2894,544.25,162.2894,548.25,171.2894" style="stroke:#181818;stroke-width:1.0;"/><polygon fill="#000000" points="510.25,137.6752,513.1889,128.6301,507.3111,128.6301,510.25,137.6752" style="stroke:#000000;stroke-width:1.0;"/><text fill="#000000" font-family="sans-serif" font-size="13" lengthAdjust="spacing" textLength="28" x="519.25" y="137.9945">uses</text></g><!--link OperationTypeController to OperationTypeDto--><g id="link_OperationTypeController_OperationTypeDto"><path codeLine="92" d="M774,111.6794 C774,187.3094 774,368.1694 774,469.5494 " fill="none" id="OperationTypeController-to-OperationTypeDto" style="stroke:#181818;stroke-width:1.0;"/><polygon fill="#181818" points="774,475.5494,778,466.5494,774,470.5494,770,466.5494,774,475.5494" style="stroke:#181818;stroke-width:1.0;"/><polygon fill="#000000" points="724,289.7952,726.9389,280.7501,721.0611,280.7501,724,289.7952" style="stroke:#000000;stroke-width:1.0;"/><text fill="#000000" font-family="sans-serif" font-size="13" lengthAdjust="spacing" textLength="40" x="733" y="290.1145">returns</text></g><!--link OperationTypeService to IOperationTypeRepository--><g id="link_OperationTypeService_IOperationTypeRepository"><path codeLine="94" d="M386.5,237.8594 C386.5,255.8994 386.5,272.3894 386.5,291.5794 " fill="none" id="OperationTypeService-to-IOperationTypeRepository" style="stroke:#181818;stroke-width:1.0;"/><polygon fill="#181818" points="386.5,297.5794,390.5,288.5794,386.5,292.5794,382.5,288.5794,386.5,297.5794" style="stroke:#181818;stroke-width:1.0;"/><polygon fill="#000000" points="348.5,263.8952,351.4389,254.8501,345.5611,254.8501,348.5,263.8952" style="stroke:#000000;stroke-width:1.0;"/><text fill="#000000" font-family="sans-serif" font-size="13" lengthAdjust="spacing" textLength="28" x="357.5" y="264.2145">uses</text></g><!--link OperationTypeService to OperationType--><g id="link_OperationTypeService_OperationType"><path codeLine="95" d="M504.5,237.7294 C504.5,284.2994 504.5,365.1794 504.5,434.4794 " fill="none" id="OperationTypeService-to-OperationType" style="stroke:#181818;stroke-width:1.0;"/><polygon fill="#181818" points="504.5,440.4794,508.5,431.4794,504.5,435.4794,500.5,431.4794,504.5,440.4794" style="stroke:#181818;stroke-width:1.0;"/><polygon fill="#000000" points="509.5,335.2752,512.4389,326.2301,506.5611,326.2301,509.5,335.2752" style="stroke:#000000;stroke-width:1.0;"/><text fill="#000000" font-family="sans-serif" font-size="13" lengthAdjust="spacing" textLength="46" x="518.5" y="335.5945">updates</text></g><!--link OperationTypeService to OperationTypeDto--><g id="link_OperationTypeService_OperationTypeDto"><path codeLine="96" d="M654,237.7294 C654,292.5394 654,397.2094 654,469.3194 " fill="none" id="OperationTypeService-to-OperationTypeDto" style="stroke:#181818;stroke-width:1.0;"/><polygon fill="#181818" points="654,475.3194,658,466.3194,654,470.3194,650,466.3194,654,475.3194" style="stroke:#181818;stroke-width:1.0;"/><polygon fill="#000000" points="601,352.7052,603.9389,343.6601,598.0611,343.6601,601,352.7052" style="stroke:#000000;stroke-width:1.0;"/><text fill="#000000" font-family="sans-serif" font-size="13" lengthAdjust="spacing" textLength="43" x="610" y="353.0245">creates</text></g><!--link IOperationTypeRepository to OperationType--><g id="link_IOperationTypeRepository_OperationType"><path codeLine="98" d="M292.5,380.9894 C292.5,398.3994 292.5,413.4494 292.5,434.5394 " fill="none" id="IOperationTypeRepository-to-OperationType" style="stroke:#181818;stroke-width:1.0;"/><polygon fill="#181818" points="292.5,440.5394,296.5,431.5394,292.5,435.5394,288.5,431.5394,292.5,440.5394" style="stroke:#181818;stroke-width:1.0;"/><polygon fill="#000000" points="178.5,406.9452,181.4389,397.9001,175.5611,397.9001,178.5,406.9452" style="stroke:#000000;stroke-width:1.0;"/><text fill="#000000" font-family="sans-serif" font-size="13" lengthAdjust="spacing" textLength="104" x="187.5" y="407.2645">saves in database</text></g><!--link OperationType to RequiredStaff--><g id="link_OperationType_RequiredStaff"><path codeLine="104" d="M186.5,646.7794 C186.5,668.3594 186.5,683.5994 186.5,700.3094 " fill="none" id="OperationType-to-RequiredStaff" style="stroke:#181818;stroke-width:1.0;"/><polygon fill="#181818" points="186.5,706.3094,190.5,697.3094,186.5,701.3094,182.5,697.3094,186.5,706.3094" style="stroke:#181818;stroke-width:1.0;"/><polygon fill="#000000" points="155.5,672.7152,158.4389,663.6701,152.5611,663.6701,155.5,672.7152" style="stroke:#000000;stroke-width:1.0;"/><text fill="#000000" font-family="sans-serif" font-size="13" lengthAdjust="spacing" textLength="21" x="164.5" y="673.0345">has</text></g><!--link OperationType to PhasesDuration--><g id="link_OperationType_PhasesDuration"><path codeLine="105" d="M516.6,629.6094 C628.22,629.6094 742.17,629.6094 742.17,629.6094 C742.17,629.6094 742.17,668.2094 742.17,700.6094 " fill="none" id="OperationType-to-PhasesDuration" style="stroke:#181818;stroke-width:1.0;"/><polygon fill="#181818" points="742.17,706.6094,746.17,697.6094,742.17,701.6094,738.17,697.6094,742.17,706.6094" style="stroke:#181818;stroke-width:1.0;"/><polygon fill="#000000" points="641.6493,622.2863,633.9039,616.7673,632.1392,622.374,641.6493,622.2863" style="stroke:#000000;stroke-width:1.0;"/><text fill="#000000" font-family="sans-serif" font-size="13" lengthAdjust="spacing" textLength="21" x="645.88" y="626.1045">has</text></g><!--link OperationTypeDto to RequiredStaff--><g id="link_OperationTypeDto_RequiredStaff"><path codeLine="111" d="M628.5,611.9794 C628.5,660.3394 628.5,716.6094 628.5,716.6094 C628.5,716.6094 427.85,716.6094 286.58,716.6094 " fill="none" id="OperationTypeDto-to-RequiredStaff" style="stroke:#181818;stroke-width:1.0;"/><polygon fill="#181818" points="280.58,716.6094,289.58,720.6094,285.58,716.6094,289.58,712.6094,280.58,716.6094" style="stroke:#181818;stroke-width:1.0;"/><polygon fill="#000000" points="427.0688,709.2482,436.578,709.4118,434.8581,703.7912,427.0688,709.2482" style="stroke:#000000;stroke-width:1.0;"/><text fill="#000000" font-family="sans-serif" font-size="13" lengthAdjust="spacing" textLength="65" x="440.85" y="713.1045">has several</text></g><!--link OperationTypeDto to PhasesDuration--><g id="link_OperationTypeDto_PhasesDuration"><path codeLine="112" d="M789.83,611.6094 C789.83,643.6794 789.83,674.4794 789.83,700.3694 " fill="none" id="OperationTypeDto-to-PhasesDuration" style="stroke:#181818;stroke-width:1.0;"/><polygon fill="#181818" points="789.83,706.3694,793.83,697.3694,789.83,701.3694,785.83,697.3694,789.83,706.3694" style="stroke:#181818;stroke-width:1.0;"/><polygon fill="#000000" points="758.83,655.1652,761.7689,646.1201,755.8911,646.1201,758.83,655.1652" style="stroke:#000000;stroke-width:1.0;"/><text fill="#000000" font-family="sans-serif" font-size="13" lengthAdjust="spacing" textLength="21" x="767.83" y="655.4845">has</text></g><!--link RequiredStaff to Role--><g id="link_RequiredStaff_Role"><path codeLine="114" d="M45.25,772.7194 C45.25,794.2994 45.25,815.9694 45.25,835.4794 " fill="none" id="RequiredStaff-to-Role" style="stroke:#181818;stroke-width:1.0;"/><polygon fill="#181818" points="45.25,841.4794,49.25,832.4794,45.25,836.4794,41.25,832.4794,45.25,841.4794" style="stroke:#181818;stroke-width:1.0;"/><text fill="#000000" font-family="sans-serif" font-size="13" lengthAdjust="spacing" textLength="21" x="23.25" y="803.5945">has</text></g><!--link RequiredStaff to Specialization--><g id="link_RequiredStaff_Specialization"><path codeLine="115" d="M257.5,772.7194 C257.5,791.0894 257.5,807.8794 257.5,826.2894 " fill="none" id="RequiredStaff-to-Specialization" style="stroke:#181818;stroke-width:1.0;"/><polygon fill="#181818" points="257.5,832.2894,261.5,823.2894,257.5,827.2894,253.5,823.2894,257.5,832.2894" style="stroke:#181818;stroke-width:1.0;"/><polygon fill="#000000" points="226.5,798.6752,229.4389,789.6301,223.5611,789.6301,226.5,798.6752" style="stroke:#000000;stroke-width:1.0;"/><text fill="#000000" font-family="sans-serif" font-size="13" lengthAdjust="spacing" textLength="21" x="235.5" y="798.9945">has</text></g><!--link RequiredStaff to Quantity--><g id="link_RequiredStaff_Quantity"><path codeLine="116" d="M151.5,772.7194 C151.5,791.0894 151.5,807.8794 151.5,826.2894 " fill="none" id="RequiredStaff-to-Quantity" style="stroke:#181818;stroke-width:1.0;"/><polygon fill="#181818" points="151.5,832.2894,155.5,823.2894,151.5,827.2894,147.5,823.2894,151.5,832.2894" style="stroke:#181818;stroke-width:1.0;"/><polygon fill="#000000" points="120.5,798.6752,123.4389,789.6301,117.5611,789.6301,120.5,798.6752" style="stroke:#000000;stroke-width:1.0;"/><text fill="#000000" font-family="sans-serif" font-size="13" lengthAdjust="spacing" textLength="21" x="129.5" y="798.9945">has</text></g><!--link PhasesDuration to Phase--><g id="link_PhasesDuration_Phase"><path codeLine="118" d="M823,772.7194 C823,791.0894 823,807.8794 823,826.2894 " fill="none" id="PhasesDuration-to-Phase" style="stroke:#181818;stroke-width:1.0;"/><polygon fill="#181818" points="823,832.2894,827,823.2894,823,827.2894,819,823.2894,823,832.2894" style="stroke:#181818;stroke-width:1.0;"/><polygon fill="#000000" points="792,798.6752,794.9389,789.6301,789.0611,789.6301,792,798.6752" style="stroke:#000000;stroke-width:1.0;"/><text fill="#000000" font-family="sans-serif" font-size="13" lengthAdjust="spacing" textLength="21" x="801" y="798.9945">has</text></g><!--link PhasesDuration to Duration--><g id="link_PhasesDuration_Duration"><path codeLine="119" d="M954.75,739.6094 C996.67,739.6094 1032.5,739.6094 1032.5,739.6094 C1032.5,739.6094 1032.5,789.1694 1032.5,826.4994 " fill="none" id="PhasesDuration-to-Duration" style="stroke:#181818;stroke-width:1.0;"/><polygon fill="#181818" points="1032.5,832.4994,1036.5,823.4994,1032.5,827.4994,1028.5,823.4994,1032.5,832.4994" style="stroke:#181818;stroke-width:1.0;"/><polygon fill="#000000" points="1004.8341,742.0812,1000.9928,733.381,996.6125,737.3005,1004.8341,742.0812" style="stroke:#000000;stroke-width:1.0;"/><text fill="#000000" font-family="sans-serif" font-size="13" lengthAdjust="spacing" textLength="21" x="1010.5" y="743.6745">has</text></g><!--SRC=[pLLTRzem57tFhxXlfIgTkZsY2YbBK1UfJRj09-rfSeC1gy7ERASJdVRVT-t40IU1TThBUCBnkUUS-s5RFJDU4acsK9BycQpfNEyA2fBccl1rGGFL0jI6BCKFnjUm8eKwtCaBebIejMHFbQP9BlYSlLAuEe0KZ5EzAoa8gJSY20gwqg05IBRUQ5Wo8yW43xGepUSdeRNO7dmFDDFeAp9A43EoDgIZA3w7ItYChZwy3mBh0kvBAea9MQ1Q9BYMeYYeX9y1uE_YiLmIJKTBBIO-DDRYV08BefwlGokPKLKL-heBcaw3NuDQSofVM4vzeL3jU7vQhITW-1dNLAu8qYNUVaPBePWMSkTqRgZ-k4l9jf7Y-6y2PZt8F_qNSySoTrQIPOSeYUkDj3LLh-SbpHafsAj5Ji1VrvYCVg-m-ykv9glL16wPqjVUjoQLXmrHLCMLRBZyTOs9DZZBrEZxzNaHR7c8y7sCr4cR0_6Ulv7yOmO35BxzKNaoEnS_t1Piu__ScTQq5ziuleHlggQFcJsDHEwkCr7GCLZOvufml15sPYIvqBIvHyJAPxDS9Wnoma7mOWTF50XORi2R0PEFHOxdQGnf9PMvdY1K2bD2_e3o9HXsvzIfkhAwzGJmlFQSk5sBRKEtbTB6n5fIF88IDBOTRygkb5zu9nXJnTQygUV1ObzClyZxQjQ3v9NJGiVWiFPqKrvjQuucz26RFOHPk4ZkKopzOtOpoxwE8RgTXMcItknrEueNTupZKw1SPOAp-f6meuQOCpWOFuKF1r_ZjmDSPrht8MQKRoeS-WPk7TiMEqWOtoLeDhwF5lSPzlKncy_6i9X5dz8aIaBSUi1yPkd2ey1vqPNQaqIBv0k69MdzhyOUUrpUJOVVWWbCeSAw7msynD-qVsnDdAIwabnrH1qpHXrz6OPLsyYUOXrWduGtnpYNkHrZT7dKpR2S8YzKuN00gf8dd3VJ21_M2yGnCA4udODOErgd04sBJqByO-UWVQ1_QHt7TSwZ0tR5JJd_8by7FvMomvpEkaMz8N677SmT57r1R34SSgmCFfKbjvUosUpl7J7P1xQtRIlKCT1wQX43W9xTtm00]--></g></svg>