<?xml version="1.0" encoding="us-ascii" standalone="no"?><svg xmlns="http://www.w3.org/2000/svg" xmlns:xlink="http://www.w3.org/1999/xlink" contentStyleType="text/css" height="1043px" preserveAspectRatio="none" style="width:1356px;height:1043px;background:#FFFFFF;" version="1.1" viewBox="0 0 1356 1043" width="1356px" zoomAndPan="magnify"><defs/><g><text fill="#000000" font-family="sans-serif" font-size="14" font-weight="bold" lengthAdjust="spacing" textLength="222" x="566" y="29.5332">Sequence Diagram (SD) - UC021</text><rect fill="#FFFFFF" height="880.1953" style="stroke:#181818;stroke-width:1.0;" width="10" x="151" y="108.5703"/><rect fill="#FFFFFF" height="819.4922" style="stroke:#181818;stroke-width:1.0;" width="10" x="328.5" y="138.9219"/><rect fill="#FFFFFF" height="30.3516" style="stroke:#181818;stroke-width:1.0;" width="10" x="498" y="169.2734"/><rect fill="#FFFFFF" height="30.3516" style="stroke:#181818;stroke-width:1.0;" width="10" x="498" y="290.6797"/><rect fill="#FFFFFF" height="30.3516" style="stroke:#181818;stroke-width:1.0;" width="10" x="498" y="351.3828"/><rect fill="#FFFFFF" height="30.3516" style="stroke:#181818;stroke-width:1.0;" width="10" x="498" y="412.0859"/><rect fill="#FFFFFF" height="30.3516" style="stroke:#181818;stroke-width:1.0;" width="10" x="498" y="472.7891"/><rect fill="#FFFFFF" height="30.3516" style="stroke:#181818;stroke-width:1.0;" width="10" x="498" y="867.3594"/><rect fill="#FFFFFF" height="30.3516" style="stroke:#181818;stroke-width:1.0;" width="10" x="679.5" y="229.9766"/><rect fill="#FFFFFF" height="30.3516" style="stroke:#181818;stroke-width:1.0;" width="10" x="679.5" y="776.3047"/><rect fill="#FFFFFF" height="30.3516" style="stroke:#181818;stroke-width:1.0;" width="10" x="884" y="533.4922"/><rect fill="#FFFFFF" height="30.3516" style="stroke:#181818;stroke-width:1.0;" width="10" x="884" y="594.1953"/><rect fill="#FFFFFF" height="30.3516" style="stroke:#181818;stroke-width:1.0;" width="10" x="884" y="654.8984"/><rect fill="#FFFFFF" height="30.3516" style="stroke:#181818;stroke-width:1.0;" width="10" x="884" y="715.6016"/><rect fill="#FFFFFF" height="91.0547" style="stroke:#181818;stroke-width:1.0;" width="10" x="1314" y="837.0078"/><line style="stroke:#181818;stroke-width:0.5;stroke-dasharray:5.0,5.0;" x1="155.5" x2="155.5" y1="76.2188" y2="1006.7656"/><line style="stroke:#181818;stroke-width:0.5;stroke-dasharray:5.0,5.0;" x1="333.5" x2="333.5" y1="76.2188" y2="1006.7656"/><line style="stroke:#181818;stroke-width:0.5;stroke-dasharray:5.0,5.0;" x1="502.5" x2="502.5" y1="76.2188" y2="1006.7656"/><line style="stroke:#181818;stroke-width:0.5;stroke-dasharray:5.0,5.0;" x1="684.5" x2="684.5" y1="76.2188" y2="1006.7656"/><line style="stroke:#181818;stroke-width:0.5;stroke-dasharray:5.0,5.0;" x1="888.5" x2="888.5" y1="76.2188" y2="1006.7656"/><line style="stroke:#181818;stroke-width:0.5;stroke-dasharray:5.0,5.0;" x1="1319" x2="1319" y1="76.2188" y2="1006.7656"/><rect fill="#E2E2F0" height="31.6094" rx="2.5" ry="2.5" style="stroke:#181818;stroke-width:0.5;" width="175" x="68.5" y="43.6094"/><text fill="#000000" font-family="sans-serif" font-size="14" lengthAdjust="spacing" textLength="161" x="75.5" y="65.1426">:OperationTypeController</text><rect fill="#E2E2F0" height="31.6094" rx="2.5" ry="2.5" style="stroke:#181818;stroke-width:0.5;" width="175" x="68.5" y="1005.7656"/><text fill="#000000" font-family="sans-serif" font-size="14" lengthAdjust="spacing" textLength="161" x="75.5" y="1027.2988">:OperationTypeController</text><rect fill="#E2E2F0" height="31.6094" rx="2.5" ry="2.5" style="stroke:#181818;stroke-width:0.5;" width="160" x="253.5" y="43.6094"/><text fill="#000000" font-family="sans-serif" font-size="14" lengthAdjust="spacing" textLength="146" x="260.5" y="65.1426">:OperationTypeService</text><rect fill="#E2E2F0" height="31.6094" rx="2.5" ry="2.5" style="stroke:#181818;stroke-width:0.5;" width="160" x="253.5" y="1005.7656"/><text fill="#000000" font-family="sans-serif" font-size="14" lengthAdjust="spacing" textLength="146" x="260.5" y="1027.2988">:OperationTypeService</text><rect fill="#E2E2F0" height="31.6094" rx="2.5" ry="2.5" style="stroke:#181818;stroke-width:0.5;" width="159" x="423.5" y="43.6094"/><text fill="#000000" font-family="sans-serif" font-size="14" lengthAdjust="spacing" textLength="145" x="430.5" y="65.1426">dto: OperationTypeDto</text><rect fill="#E2E2F0" height="31.6094" rx="2.5" ry="2.5" style="stroke:#181818;stroke-width:0.5;" width="159" x="423.5" y="1005.7656"/><text fill="#000000" font-family="sans-serif" font-size="14" lengthAdjust="spacing" textLength="145" x="430.5" y="1027.2988">dto: OperationTypeDto</text><rect fill="#E2E2F0" height="31.6094" rx="2.5" ry="2.5" style="stroke:#181818;stroke-width:0.5;" width="184" x="592.5" y="43.6094"/><text fill="#000000" font-family="sans-serif" font-size="14" lengthAdjust="spacing" textLength="170" x="599.5" y="65.1426">:IOperationTypeRepository</text><rect fill="#E2E2F0" height="31.6094" rx="2.5" ry="2.5" style="stroke:#181818;stroke-width:0.5;" width="184" x="592.5" y="1005.7656"/><text fill="#000000" font-family="sans-serif" font-size="14" lengthAdjust="spacing" textLength="170" x="599.5" y="1027.2988">:IOperationTypeRepository</text><rect fill="#E2E2F0" height="31.6094" rx="2.5" ry="2.5" style="stroke:#181818;stroke-width:0.5;" width="205" x="786.5" y="43.6094"/><text fill="#000000" font-family="sans-serif" font-size="14" lengthAdjust="spacing" textLength="191" x="793.5" y="65.1426">operationType:OperationType</text><rect fill="#E2E2F0" height="31.6094" rx="2.5" ry="2.5" style="stroke:#181818;stroke-width:0.5;" width="205" x="786.5" y="1005.7656"/><text fill="#000000" font-family="sans-serif" font-size="14" lengthAdjust="spacing" textLength="191" x="793.5" y="1027.2988">operationType:OperationType</text><rect fill="#E2E2F0" height="31.6094" rx="2.5" ry="2.5" style="stroke:#181818;stroke-width:0.5;" width="62" x="1288" y="43.6094"/><text fill="#000000" font-family="sans-serif" font-size="14" lengthAdjust="spacing" textLength="48" x="1295" y="65.1426">Mapper</text><rect fill="#E2E2F0" height="31.6094" rx="2.5" ry="2.5" style="stroke:#181818;stroke-width:0.5;" width="62" x="1288" y="1005.7656"/><text fill="#000000" font-family="sans-serif" font-size="14" lengthAdjust="spacing" textLength="48" x="1295" y="1027.2988">Mapper</text><rect fill="#FFFFFF" height="880.1953" style="stroke:#181818;stroke-width:1.0;" width="10" x="151" y="108.5703"/><rect fill="#FFFFFF" height="819.4922" style="stroke:#181818;stroke-width:1.0;" width="10" x="328.5" y="138.9219"/><rect fill="#FFFFFF" height="30.3516" style="stroke:#181818;stroke-width:1.0;" width="10" x="498" y="169.2734"/><rect fill="#FFFFFF" height="30.3516" style="stroke:#181818;stroke-width:1.0;" width="10" x="498" y="290.6797"/><rect fill="#FFFFFF" height="30.3516" style="stroke:#181818;stroke-width:1.0;" width="10" x="498" y="351.3828"/><rect fill="#FFFFFF" height="30.3516" style="stroke:#181818;stroke-width:1.0;" width="10" x="498" y="412.0859"/><rect fill="#FFFFFF" height="30.3516" style="stroke:#181818;stroke-width:1.0;" width="10" x="498" y="472.7891"/><rect fill="#FFFFFF" height="30.3516" style="stroke:#181818;stroke-width:1.0;" width="10" x="498" y="867.3594"/><rect fill="#FFFFFF" height="30.3516" style="stroke:#181818;stroke-width:1.0;" width="10" x="679.5" y="229.9766"/><rect fill="#FFFFFF" height="30.3516" style="stroke:#181818;stroke-width:1.0;" width="10" x="679.5" y="776.3047"/><rect fill="#FFFFFF" height="30.3516" style="stroke:#181818;stroke-width:1.0;" width="10" x="884" y="533.4922"/><rect fill="#FFFFFF" height="30.3516" style="stroke:#181818;stroke-width:1.0;" width="10" x="884" y="594.1953"/><rect fill="#FFFFFF" height="30.3516" style="stroke:#181818;stroke-width:1.0;" width="10" x="884" y="654.8984"/><rect fill="#FFFFFF" height="30.3516" style="stroke:#181818;stroke-width:1.0;" width="10" x="884" y="715.6016"/><rect fill="#FFFFFF" height="91.0547" style="stroke:#181818;stroke-width:1.0;" width="10" x="1314" y="837.0078"/><polygon fill="#181818" points="139,104.5703,149,108.5703,139,112.5703,143,108.5703" style="stroke:#181818;stroke-width:1.0;"/><line style="stroke:#181818;stroke-width:1.0;" x1="0" x2="145" y1="108.5703" y2="108.5703"/><text fill="#000000" font-family="sans-serif" font-size="13" lengthAdjust="spacing" textLength="132" x="7" y="103.7139">PUT /api/operationtype</text><polygon fill="#181818" points="316.5,134.9219,326.5,138.9219,316.5,142.9219,320.5,138.9219" style="stroke:#181818;stroke-width:1.0;"/><line style="stroke:#181818;stroke-width:1.0;" x1="161" x2="322.5" y1="138.9219" y2="138.9219"/><text fill="#000000" font-family="sans-serif" font-size="13" lengthAdjust="spacing" textLength="104" x="168" y="134.0654">UpdateAsync(dto)</text><polygon fill="#181818" points="486,165.2734,496,169.2734,486,173.2734,490,169.2734" style="stroke:#181818;stroke-width:1.0;"/><line style="stroke:#181818;stroke-width:1.0;" x1="338.5" x2="492" y1="169.2734" y2="169.2734"/><text fill="#000000" font-family="sans-serif" font-size="13" lengthAdjust="spacing" textLength="39" x="345.5" y="164.417">GetId()</text><polygon fill="#181818" points="349.5,195.625,339.5,199.625,349.5,203.625,345.5,199.625" style="stroke:#181818;stroke-width:1.0;"/><line style="stroke:#181818;stroke-width:1.0;stroke-dasharray:2.0,2.0;" x1="343.5" x2="502" y1="199.625" y2="199.625"/><text fill="#000000" font-family="sans-serif" font-size="13" lengthAdjust="spacing" textLength="10" x="355.5" y="194.7686">id</text><polygon fill="#181818" points="667.5,225.9766,677.5,229.9766,667.5,233.9766,671.5,229.9766" style="stroke:#181818;stroke-width:1.0;"/><line style="stroke:#181818;stroke-width:1.0;" x1="338.5" x2="673.5" y1="229.9766" y2="229.9766"/><text fill="#000000" font-family="sans-serif" font-size="13" lengthAdjust="spacing" textLength="102" x="345.5" y="225.1201">GetByIdAsync(id)</text><polygon fill="#181818" points="349.5,256.3281,339.5,260.3281,349.5,264.3281,345.5,260.3281" style="stroke:#181818;stroke-width:1.0;"/><line style="stroke:#181818;stroke-width:1.0;stroke-dasharray:2.0,2.0;" x1="343.5" x2="683.5" y1="260.3281" y2="260.3281"/><text fill="#000000" font-family="sans-serif" font-size="13" lengthAdjust="spacing" textLength="81" x="355.5" y="255.4717">operationType</text><polygon fill="#181818" points="486,286.6797,496,290.6797,486,294.6797,490,290.6797" style="stroke:#181818;stroke-width:1.0;"/><line style="stroke:#181818;stroke-width:1.0;" x1="338.5" x2="492" y1="290.6797" y2="290.6797"/><text fill="#000000" font-family="sans-serif" font-size="13" lengthAdjust="spacing" textLength="63" x="345.5" y="285.8232">GetName()</text><polygon fill="#181818" points="349.5,317.0313,339.5,321.0313,349.5,325.0313,345.5,321.0313" style="stroke:#181818;stroke-width:1.0;"/><line style="stroke:#181818;stroke-width:1.0;stroke-dasharray:2.0,2.0;" x1="343.5" x2="502" y1="321.0313" y2="321.0313"/><text fill="#000000" font-family="sans-serif" font-size="13" lengthAdjust="spacing" textLength="32" x="355.5" y="316.1748">name</text><polygon fill="#181818" points="486,347.3828,496,351.3828,486,355.3828,490,351.3828" style="stroke:#181818;stroke-width:1.0;"/><line style="stroke:#181818;stroke-width:1.0;" x1="338.5" x2="492" y1="351.3828" y2="351.3828"/><text fill="#000000" font-family="sans-serif" font-size="13" lengthAdjust="spacing" textLength="110" x="345.5" y="346.5264">GetSpecialization()</text><polygon fill="#181818" points="349.5,377.7344,339.5,381.7344,349.5,385.7344,345.5,381.7344" style="stroke:#181818;stroke-width:1.0;"/><line style="stroke:#181818;stroke-width:1.0;stroke-dasharray:2.0,2.0;" x1="343.5" x2="502" y1="381.7344" y2="381.7344"/><text fill="#000000" font-family="sans-serif" font-size="13" lengthAdjust="spacing" textLength="79" x="355.5" y="376.8779">specialization</text><polygon fill="#181818" points="486,408.0859,496,412.0859,486,416.0859,490,412.0859" style="stroke:#181818;stroke-width:1.0;"/><line style="stroke:#181818;stroke-width:1.0;" x1="338.5" x2="492" y1="412.0859" y2="412.0859"/><text fill="#000000" font-family="sans-serif" font-size="13" lengthAdjust="spacing" textLength="106" x="345.5" y="407.2295">GetRequiredStaff()</text><polygon fill="#181818" points="349.5,438.4375,339.5,442.4375,349.5,446.4375,345.5,442.4375" style="stroke:#181818;stroke-width:1.0;"/><line style="stroke:#181818;stroke-width:1.0;stroke-dasharray:2.0,2.0;" x1="343.5" x2="502" y1="442.4375" y2="442.4375"/><text fill="#000000" font-family="sans-serif" font-size="13" lengthAdjust="spacing" textLength="72" x="355.5" y="437.5811">requiredStaff</text><polygon fill="#181818" points="486,468.7891,496,472.7891,486,476.7891,490,472.7891" style="stroke:#181818;stroke-width:1.0;"/><line style="stroke:#181818;stroke-width:1.0;" x1="338.5" x2="492" y1="472.7891" y2="472.7891"/><text fill="#000000" font-family="sans-serif" font-size="13" lengthAdjust="spacing" textLength="121" x="345.5" y="467.9326">GetPhasesDuration()</text><polygon fill="#181818" points="349.5,499.1406,339.5,503.1406,349.5,507.1406,345.5,503.1406" style="stroke:#181818;stroke-width:1.0;"/><line style="stroke:#181818;stroke-width:1.0;stroke-dasharray:2.0,2.0;" x1="343.5" x2="502" y1="503.1406" y2="503.1406"/><text fill="#000000" font-family="sans-serif" font-size="13" lengthAdjust="spacing" textLength="90" x="355.5" y="498.2842">phasesDuration</text><polygon fill="#181818" points="872,529.4922,882,533.4922,872,537.4922,876,533.4922" style="stroke:#181818;stroke-width:1.0;"/><line style="stroke:#181818;stroke-width:1.0;" x1="338.5" x2="878" y1="533.4922" y2="533.4922"/><text fill="#000000" font-family="sans-serif" font-size="13" lengthAdjust="spacing" textLength="94" x="345.5" y="528.6357">SetName(name)</text><polygon fill="#181818" points="349.5,559.8438,339.5,563.8438,349.5,567.8438,345.5,563.8438" style="stroke:#181818;stroke-width:1.0;"/><line style="stroke:#181818;stroke-width:1.0;stroke-dasharray:2.0,2.0;" x1="343.5" x2="888" y1="563.8438" y2="563.8438"/><text fill="#000000" font-family="sans-serif" font-size="13" lengthAdjust="spacing" textLength="22" x="355.5" y="558.9873">void</text><polygon fill="#181818" points="872,590.1953,882,594.1953,872,598.1953,876,594.1953" style="stroke:#181818;stroke-width:1.0;"/><line style="stroke:#181818;stroke-width:1.0;" x1="338.5" x2="878" y1="594.1953" y2="594.1953"/><text fill="#000000" font-family="sans-serif" font-size="13" lengthAdjust="spacing" textLength="188" x="345.5" y="589.3389">SetSpecialization(specialization)</text><polygon fill="#181818" points="349.5,620.5469,339.5,624.5469,349.5,628.5469,345.5,624.5469" style="stroke:#181818;stroke-width:1.0;"/><line style="stroke:#181818;stroke-width:1.0;stroke-dasharray:2.0,2.0;" x1="343.5" x2="888" y1="624.5469" y2="624.5469"/><text fill="#000000" font-family="sans-serif" font-size="13" lengthAdjust="spacing" textLength="22" x="355.5" y="619.6904">void</text><polygon fill="#181818" points="872,650.8984,882,654.8984,872,658.8984,876,654.8984" style="stroke:#181818;stroke-width:1.0;"/><line style="stroke:#181818;stroke-width:1.0;" x1="338.5" x2="878" y1="654.8984" y2="654.8984"/><text fill="#000000" font-family="sans-serif" font-size="13" lengthAdjust="spacing" textLength="177" x="345.5" y="650.042">SetRequiredStaff(requiredStaff)</text><polygon fill="#181818" points="349.5,681.25,339.5,685.25,349.5,689.25,345.5,685.25" style="stroke:#181818;stroke-width:1.0;"/><line style="stroke:#181818;stroke-width:1.0;stroke-dasharray:2.0,2.0;" x1="343.5" x2="888" y1="685.25" y2="685.25"/><text fill="#000000" font-family="sans-serif" font-size="13" lengthAdjust="spacing" textLength="22" x="355.5" y="680.3936">void</text><polygon fill="#181818" points="872,711.6016,882,715.6016,872,719.6016,876,715.6016" style="stroke:#181818;stroke-width:1.0;"/><line style="stroke:#181818;stroke-width:1.0;" x1="338.5" x2="878" y1="715.6016" y2="715.6016"/><text fill="#000000" font-family="sans-serif" font-size="13" lengthAdjust="spacing" textLength="210" x="345.5" y="710.7451">SetPhasesDuration(phasesDuration)</text><polygon fill="#181818" points="349.5,741.9531,339.5,745.9531,349.5,749.9531,345.5,745.9531" style="stroke:#181818;stroke-width:1.0;"/><line style="stroke:#181818;stroke-width:1.0;stroke-dasharray:2.0,2.0;" x1="343.5" x2="888" y1="745.9531" y2="745.9531"/><text fill="#000000" font-family="sans-serif" font-size="13" lengthAdjust="spacing" textLength="22" x="355.5" y="741.0967">void</text><polygon fill="#181818" points="667.5,772.3047,677.5,776.3047,667.5,780.3047,671.5,776.3047" style="stroke:#181818;stroke-width:1.0;"/><line style="stroke:#181818;stroke-width:1.0;" x1="338.5" x2="673.5" y1="776.3047" y2="776.3047"/><text fill="#000000" font-family="sans-serif" font-size="13" lengthAdjust="spacing" textLength="167" x="345.5" y="771.4482">UpdateAsync(operationType)</text><polygon fill="#181818" points="349.5,802.6563,339.5,806.6563,349.5,810.6563,345.5,806.6563" style="stroke:#181818;stroke-width:1.0;"/><line style="stroke:#181818;stroke-width:1.0;stroke-dasharray:2.0,2.0;" x1="343.5" x2="683.5" y1="806.6563" y2="806.6563"/><text fill="#000000" font-family="sans-serif" font-size="13" lengthAdjust="spacing" textLength="81" x="355.5" y="801.7998">operationType</text><polygon fill="#181818" points="1302,833.0078,1312,837.0078,1302,841.0078,1306,837.0078" style="stroke:#181818;stroke-width:1.0;"/><line style="stroke:#181818;stroke-width:1.0;" x1="338.5" x2="1308" y1="837.0078" y2="837.0078"/><text fill="#000000" font-family="sans-serif" font-size="13" lengthAdjust="spacing" textLength="123" x="345.5" y="832.1514">ToDto(operationType)</text><polygon fill="#181818" points="519,863.3594,509,867.3594,519,871.3594,515,867.3594" style="stroke:#181818;stroke-width:1.0;"/><line style="stroke:#181818;stroke-width:1.0;" x1="513" x2="1313" y1="867.3594" y2="867.3594"/><text fill="#000000" font-family="sans-serif" font-size="13" lengthAdjust="spacing" textLength="787" x="525" y="862.5029">new OperationTypeDto(operationType.Name, operationType.Specialization, operationType.RequiredStaff, operationType.PhasesDuration)</text><polygon fill="#181818" points="1302,893.7109,1312,897.7109,1302,901.7109,1306,897.7109" style="stroke:#181818;stroke-width:1.0;"/><line style="stroke:#181818;stroke-width:1.0;stroke-dasharray:2.0,2.0;" x1="503" x2="1308" y1="897.7109" y2="897.7109"/><text fill="#000000" font-family="sans-serif" font-size="13" lengthAdjust="spacing" textLength="18" x="510" y="892.8545">dto</text><polygon fill="#181818" points="349.5,924.0625,339.5,928.0625,349.5,932.0625,345.5,928.0625" style="stroke:#181818;stroke-width:1.0;"/><line style="stroke:#181818;stroke-width:1.0;stroke-dasharray:2.0,2.0;" x1="343.5" x2="1318" y1="928.0625" y2="928.0625"/><text fill="#000000" font-family="sans-serif" font-size="13" lengthAdjust="spacing" textLength="18" x="355.5" y="923.2061">dto</text><polygon fill="#181818" points="172,954.4141,162,958.4141,172,962.4141,168,958.4141" style="stroke:#181818;stroke-width:1.0;"/><line style="stroke:#181818;stroke-width:1.0;stroke-dasharray:2.0,2.0;" x1="166" x2="332.5" y1="958.4141" y2="958.4141"/><text fill="#000000" font-family="sans-serif" font-size="13" lengthAdjust="spacing" textLength="18" x="178" y="953.5576">dto</text><polygon fill="#181818" points="11,984.7656,1,988.7656,11,992.7656,7,988.7656" style="stroke:#181818;stroke-width:1.0;"/><line style="stroke:#181818;stroke-width:1.0;stroke-dasharray:2.0,2.0;" x1="5" x2="155" y1="988.7656" y2="988.7656"/><text fill="#000000" font-family="sans-serif" font-size="13" lengthAdjust="spacing" textLength="44" x="17" y="983.9092">200 OK</text><!--SRC=[nLPVRzem47_tfpZr2QIbPNsCfabT8qreseeQ-01USb2hmVPiGvL- -jb92BuiT2gJXb-8p_Ux-_d-6ViifEQ6Rq7pufblC7TrXM2mS5nkAcIsLx1Fl5GlGcvWpIiRdrH2egirWbPL7JRHML5nQ- -SC-Bdpk6yK38NhmWpnfnmtbEEltOe2uHCy4q0JF9i2WcixcUt7ndpHfmeXERImLNweD5m9vHSUc_tIZgZgWhD5N0Bn-rRe1pDNXJO8BflgbuwbGA1P4urwlvtO7bEz1vHAokSCdMZFWzx2b2nEkNLUb1RBYJ5VETQTpTiFnbBFaUNJM6nMi8Dr-AcDnzomHWldDXpXt5a6FXrt8CtrKKXXPKklVQThMKnyL6OjigzbKEq6cbOdI3Oo4BGlgARbvFfKQ67XiZrqh2y09BOjoYF2YME0oD_JMmRZr_gUTbI5kMOwpOBn7aZekv9OaQP3EoCtFq7t-APjvSU-gxx7tpc6Wl1A_7Qa3_JkoL6pkBnw9jO62npnzVhCscOsCPPB1PFtABDTkPVeg69aVVnQDetzQAs649QHqcqRKvvD39APQzEjSN0m3Y7GN7GD5-G5oqMalOBiXeK3os3_yshcs_nH2OZwZAJhdr_KbWgtm5_9tHuhc96hQnlMealVxorrF1rwAGFbFOrhUpXAQcluU7YL5xV7XFng3Y4eHmgdHeHySNZN1034NWOk3u5WuU_nqTOyaf_IfBuiK_XTZQ3Xs-CHO3epy5l]--></g></svg>