<?xml version="1.0" encoding="us-ascii" standalone="no"?><svg xmlns="http://www.w3.org/2000/svg" xmlns:xlink="http://www.w3.org/1999/xlink" contentStyleType="text/css" height="990px" preserveAspectRatio="none" style="width:2199px;height:990px;background:#FFFFFF;" version="1.1" viewBox="0 0 2199 990" width="2199px" zoomAndPan="magnify"><defs/><g><text fill="#000000" font-family="sans-serif" font-size="14" font-weight="bold" lengthAdjust="spacing" textLength="194" x="995.5" y="24.5332">Domain Model (DM) - UC003</text><!--cluster UserAggregate--><g id="cluster_UserAggregate"><rect fill="none" height="207" rx="2.5" ry="2.5" style="stroke:#000000;stroke-width:1.5;" width="1156" x="158" y="45.6094"/><text fill="#000000" font-family="sans-serif" font-size="14" font-weight="bold" lengthAdjust="spacing" textLength="106" x="683" y="62.1426">UserAggregate</text></g><!--cluster PatientAggregate--><g id="cluster_PatientAggregate"><rect fill="none" height="552" rx="2.5" ry="2.5" style="stroke:#000000;stroke-width:1.5;" width="1761.5" x="431.5" y="276.6094"/><text fill="#000000" font-family="sans-serif" font-size="14" font-weight="bold" lengthAdjust="spacing" textLength="122" x="1251.25" y="293.1426">PatientAggregate</text></g><!--class User--><g id="elem_User"><rect codeLine="17" fill="#F1F1F1" height="50.7031" id="User" rx="2.5" ry="2.5" style="stroke:#181818;stroke-width:0.5;" width="69" x="181" y="99.1094"/><text fill="#000000" font-family="sans-serif" font-size="12" font-style="italic" lengthAdjust="spacing" textLength="67" x="182" y="116.5664">&#171;root entity&#187;</text><text fill="#000000" font-family="sans-serif" font-size="14" lengthAdjust="spacing" textLength="29" x="201" y="133.7363">User</text><line style="stroke:#181818;stroke-width:0.5;" x1="182" x2="249" y1="141.8125" y2="141.8125"/></g><!--class Username--><g id="elem_Username"><rect codeLine="18" fill="#F1F1F1" height="50.7031" id="Username" rx="2.5" ry="2.5" style="stroke:#181818;stroke-width:0.5;" width="83" x="440.5" y="185.1094"/><text fill="#000000" font-family="sans-serif" font-size="12" font-style="italic" lengthAdjust="spacing" textLength="81" x="441.5" y="202.5664">&#171;value object&#187;</text><text fill="#000000" font-family="sans-serif" font-size="14" lengthAdjust="spacing" textLength="64" x="450" y="219.7363">Username</text><line style="stroke:#181818;stroke-width:0.5;" x1="441.5" x2="522.5" y1="227.8125" y2="227.8125"/></g><g id="elem_GMN5"><path d="M919.5,197.6094 L919.5,206.6094 L523.71,210.6094 L919.5,214.6094 L919.5,223.9609 A0,0 0 0 0 919.5,223.9609 L1085.5,223.9609 A0,0 0 0 0 1085.5,223.9609 L1085.5,207.6094 L1075.5,197.6094 L919.5,197.6094 A0,0 0 0 0 919.5,197.6094 " fill="#FEFFDD" style="stroke:#181818;stroke-width:0.5;"/><path d="M1075.5,197.6094 L1075.5,207.6094 L1085.5,207.6094 L1075.5,197.6094 " fill="#FEFFDD" style="stroke:#181818;stroke-width:0.5;"/><text fill="#000000" font-family="sans-serif" font-size="13" lengthAdjust="spacing" textLength="145" x="925.5" y="216.1045">same as the user's email</text></g><!--class Email--><g id="elem_Email"><rect codeLine="20" fill="#F1F1F1" height="50.7031" id="Email" rx="2.5" ry="2.5" style="stroke:#181818;stroke-width:0.5;" width="83" x="174" y="185.1094"/><text fill="#000000" font-family="sans-serif" font-size="12" font-style="italic" lengthAdjust="spacing" textLength="81" x="175" y="202.5664">&#171;value object&#187;</text><text fill="#000000" font-family="sans-serif" font-size="14" lengthAdjust="spacing" textLength="34" x="198.5" y="219.7363">Email</text><line style="stroke:#181818;stroke-width:0.5;" x1="175" x2="256" y1="227.8125" y2="227.8125"/></g><!--class Role--><g id="elem_Role"><rect codeLine="21" fill="#F1F1F1" height="68.3125" id="Role" rx="2.5" ry="2.5" style="stroke:#181818;stroke-width:0.5;" width="330" x="317" y="81.6094"/><text fill="#000000" font-family="sans-serif" font-size="12" font-style="italic" lengthAdjust="spacing" textLength="81" x="441.5" y="99.0664">&#171;value object&#187;</text><text fill="#000000" font-family="sans-serif" font-size="14" lengthAdjust="spacing" textLength="29" x="467.5" y="116.2363">Role</text><line style="stroke:#181818;stroke-width:0.5;" x1="318" x2="646" y1="124.3125" y2="124.3125"/><text fill="#000000" font-family="sans-serif" font-size="14" lengthAdjust="spacing" textLength="318" x="323" y="142.8457">ADMIN, DOCTOR, NURSE, TECHNICIAN, PATIENT</text></g><g id="elem_GMN10"><path d="M707,102.6094 L707,111.6094 L647.05,115.6094 L707,119.6094 L707,128.9609 A0,0 0 0 0 707,128.9609 L1298,128.9609 A0,0 0 0 0 1298,128.9609 L1298,112.6094 L1288,102.6094 L707,102.6094 A0,0 0 0 0 707,102.6094 " fill="#FEFFDD" style="stroke:#181818;stroke-width:0.5;"/><path d="M1288,102.6094 L1288,112.6094 L1298,112.6094 L1288,102.6094 " fill="#FEFFDD" style="stroke:#181818;stroke-width:0.5;"/><text fill="#000000" font-family="sans-serif" font-size="13" lengthAdjust="spacing" textLength="570" x="713" y="121.1045">in this Use Case, only Backoffice Roles are considered (ADMIN, DOCTOR, NURSE, TECHNICIAN)</text></g><!--class Patient--><g id="elem_Patient"><rect codeLine="28" fill="#F1F1F1" height="50.7031" id="Patient" rx="2.5" ry="2.5" style="stroke:#181818;stroke-width:0.5;" width="69" x="447.5" y="485.1094"/><text fill="#000000" font-family="sans-serif" font-size="12" font-style="italic" lengthAdjust="spacing" textLength="67" x="448.5" y="502.5664">&#171;root entity&#187;</text><text fill="#000000" font-family="sans-serif" font-size="14" lengthAdjust="spacing" textLength="44" x="460" y="519.7363">Patient</text><line style="stroke:#181818;stroke-width:0.5;" x1="448.5" x2="515.5" y1="527.8125" y2="527.8125"/></g><!--class DateOfBirth--><g id="elem_DateOfBirth"><rect codeLine="29" fill="#F1F1F1" height="50.7031" id="DateOfBirth" rx="2.5" ry="2.5" style="stroke:#181818;stroke-width:0.5;" width="83" x="1391" y="571.1094"/><text fill="#000000" font-family="sans-serif" font-size="12" font-style="italic" lengthAdjust="spacing" textLength="81" x="1392" y="588.5664">&#171;value object&#187;</text><text fill="#000000" font-family="sans-serif" font-size="14" lengthAdjust="spacing" textLength="74" x="1395.5" y="605.7363">DateOfBirth</text><line style="stroke:#181818;stroke-width:0.5;" x1="1392" x2="1473" y1="613.8125" y2="613.8125"/></g><g id="elem_GMN16"><path d="M1803.5,583.6094 L1803.5,592.6094 L1474.24,596.6094 L1803.5,600.6094 L1803.5,609.9609 A0,0 0 0 0 1803.5,609.9609 L1940.5,609.9609 A0,0 0 0 0 1940.5,609.9609 L1940.5,593.6094 L1930.5,583.6094 L1803.5,583.6094 A0,0 0 0 0 1803.5,583.6094 " fill="#FEFFDD" style="stroke:#181818;stroke-width:0.5;"/><path d="M1930.5,583.6094 L1930.5,593.6094 L1940.5,593.6094 L1930.5,583.6094 " fill="#FEFFDD" style="stroke:#181818;stroke-width:0.5;"/><text fill="#000000" font-family="sans-serif" font-size="13" lengthAdjust="spacing" textLength="116" x="1809.5" y="602.1045">format: system date</text></g><!--class Gender--><g id="elem_Gender"><rect codeLine="31" fill="#F1F1F1" height="68.3125" id="Gender" rx="2.5" ry="2.5" style="stroke:#181818;stroke-width:0.5;" width="112" x="1376.5" y="657.6094"/><text fill="#000000" font-family="sans-serif" font-size="12" font-style="italic" lengthAdjust="spacing" textLength="81" x="1392" y="675.0664">&#171;value object&#187;</text><text fill="#000000" font-family="sans-serif" font-size="14" lengthAdjust="spacing" textLength="48" x="1408.5" y="692.2363">Gender</text><line style="stroke:#181818;stroke-width:0.5;" x1="1377.5" x2="1487.5" y1="700.3125" y2="700.3125"/><text fill="#000000" font-family="sans-serif" font-size="14" lengthAdjust="spacing" textLength="100" x="1382.5" y="718.8457">MALE, FEMALE</text></g><!--class MedicalRecordNumber--><g id="elem_MedicalRecordNumber"><rect codeLine="34" fill="#F1F1F1" height="50.7031" id="MedicalRecordNumber" rx="2.5" ry="2.5" style="stroke:#181818;stroke-width:0.5;" width="149" x="1358" y="485.1094"/><text fill="#000000" font-family="sans-serif" font-size="12" font-style="italic" lengthAdjust="spacing" textLength="81" x="1392" y="502.5664">&#171;value object&#187;</text><text fill="#000000" font-family="sans-serif" font-size="14" lengthAdjust="spacing" textLength="143" x="1361" y="519.7363">MedicalRecordNumber</text><line style="stroke:#181818;stroke-width:0.5;" x1="1359" x2="1506" y1="527.8125" y2="527.8125"/></g><g id="elem_GMN21"><path d="M1567,497.6094 L1567,506.6094 L1507.06,510.6094 L1567,514.6094 L1567,523.9609 A0,0 0 0 0 1567,523.9609 L2177,523.9609 A0,0 0 0 0 2177,523.9609 L2177,507.6094 L2167,497.6094 L1567,497.6094 A0,0 0 0 0 1567,497.6094 " fill="#FEFFDD" style="stroke:#181818;stroke-width:0.5;"/><path d="M2167,497.6094 L2167,507.6094 L2177,507.6094 L2167,497.6094 " fill="#FEFFDD" style="stroke:#181818;stroke-width:0.5;"/><text fill="#000000" font-family="sans-serif" font-size="13" lengthAdjust="spacing" textLength="589" x="1573" y="516.1045">unique identifier (format: YYYYMMnnnnnn - YYYY = year, MM = month, nnnnnn = sequential number)</text></g><!--class MedicalCondition--><g id="elem_MedicalCondition"><rect codeLine="36" fill="#F1F1F1" height="50.7031" id="MedicalCondition" rx="2.5" ry="2.5" style="stroke:#181818;stroke-width:0.5;" width="114" x="1375.5" y="399.1094"/><text fill="#000000" font-family="sans-serif" font-size="12" font-style="italic" lengthAdjust="spacing" textLength="81" x="1392" y="416.5664">&#171;value object&#187;</text><text fill="#000000" font-family="sans-serif" font-size="14" lengthAdjust="spacing" textLength="108" x="1378.5" y="433.7363">MedicalCondition</text><line style="stroke:#181818;stroke-width:0.5;" x1="1376.5" x2="1488.5" y1="441.8125" y2="441.8125"/></g><g id="elem_GMN25"><path d="M1809.5,411.6094 L1809.5,420.6094 L1489.51,424.6094 L1809.5,428.6094 L1809.5,437.9609 A0,0 0 0 0 1809.5,437.9609 L1934.5,437.9609 A0,0 0 0 0 1934.5,437.9609 L1934.5,421.6094 L1924.5,411.6094 L1809.5,411.6094 A0,0 0 0 0 1809.5,411.6094 " fill="#FEFFDD" style="stroke:#181818;stroke-width:0.5;"/><path d="M1924.5,411.6094 L1924.5,421.6094 L1934.5,421.6094 L1924.5,411.6094 " fill="#FEFFDD" style="stroke:#181818;stroke-width:0.5;"/><text fill="#000000" font-family="sans-serif" font-size="13" lengthAdjust="spacing" textLength="104" x="1815.5" y="430.1045">optional (free text)</text></g><!--class EmergencyContact--><g id="elem_EmergencyContact"><rect codeLine="38" fill="#F1F1F1" height="50.7031" id="EmergencyContact" rx="2.5" ry="2.5" style="stroke:#181818;stroke-width:0.5;" width="126" x="1369.5" y="761.1094"/><text fill="#000000" font-family="sans-serif" font-size="12" font-style="italic" lengthAdjust="spacing" textLength="81" x="1392" y="778.5664">&#171;value object&#187;</text><text fill="#000000" font-family="sans-serif" font-size="14" lengthAdjust="spacing" textLength="120" x="1372.5" y="795.7363">EmergencyContact</text><line style="stroke:#181818;stroke-width:0.5;" x1="1370.5" x2="1494.5" y1="803.8125" y2="803.8125"/></g><!--class AppointmentHistory--><g id="elem_AppointmentHistory"><rect codeLine="39" fill="#F1F1F1" height="50.7031" id="AppointmentHistory" rx="2.5" ry="2.5" style="stroke:#181818;stroke-width:0.5;" width="128" x="1368.5" y="313.1094"/><text fill="#000000" font-family="sans-serif" font-size="12" font-style="italic" lengthAdjust="spacing" textLength="81" x="1392" y="330.5664">&#171;value object&#187;</text><text fill="#000000" font-family="sans-serif" font-size="14" lengthAdjust="spacing" textLength="122" x="1371.5" y="347.7363">AppointmentHistory</text><line style="stroke:#181818;stroke-width:0.5;" x1="1369.5" x2="1495.5" y1="355.8125" y2="355.8125"/></g><!--class FullName--><g id="elem_FullName"><rect codeLine="42" fill="#F1F1F1" height="50.7031" id="FullName" rx="2.5" ry="2.5" style="stroke:#181818;stroke-width:0.5;" width="83" x="1391" y="209.1094"/><text fill="#000000" font-family="sans-serif" font-size="12" font-style="italic" lengthAdjust="spacing" textLength="81" x="1392" y="226.5664">&#171;value object&#187;</text><text fill="#000000" font-family="sans-serif" font-size="14" lengthAdjust="spacing" textLength="59" x="1403" y="243.7363">FullName</text><line style="stroke:#181818;stroke-width:0.5;" x1="1392" x2="1473" y1="251.8125" y2="251.8125"/></g><!--class ContactInformation--><g id="elem_ContactInformation"><rect codeLine="43" fill="#F1F1F1" height="50.7031" id="ContactInformation" rx="2.5" ry="2.5" style="stroke:#181818;stroke-width:0.5;" width="125" x="1370" y="847.1094"/><text fill="#000000" font-family="sans-serif" font-size="12" font-style="italic" lengthAdjust="spacing" textLength="81" x="1392" y="864.5664">&#171;value object&#187;</text><text fill="#000000" font-family="sans-serif" font-size="14" lengthAdjust="spacing" textLength="119" x="1373" y="881.7363">ContactInformation</text><line style="stroke:#181818;stroke-width:0.5;" x1="1371" x2="1494" y1="889.8125" y2="889.8125"/></g><!--class PhoneNumber--><g id="elem_PhoneNumber"><rect codeLine="44" fill="#F1F1F1" height="50.7031" id="PhoneNumber" rx="2.5" ry="2.5" style="stroke:#181818;stroke-width:0.5;" width="96" x="1824" y="845.1094"/><text fill="#000000" font-family="sans-serif" font-size="12" font-style="italic" lengthAdjust="spacing" textLength="81" x="1831.5" y="862.5664">&#171;value object&#187;</text><text fill="#000000" font-family="sans-serif" font-size="14" lengthAdjust="spacing" textLength="90" x="1827" y="879.7363">PhoneNumber</text><line style="stroke:#181818;stroke-width:0.5;" x1="1825" x2="1919" y1="887.8125" y2="887.8125"/></g><!--class Email--><g id="elem_Email"><rect codeLine="45" fill="#F1F1F1" height="50.7031" id="Email" rx="2.5" ry="2.5" style="stroke:#181818;stroke-width:0.5;" width="83" x="1830.5" y="931.1094"/><text fill="#000000" font-family="sans-serif" font-size="12" font-style="italic" lengthAdjust="spacing" textLength="81" x="1831.5" y="948.5664">&#171;value object&#187;</text><text fill="#000000" font-family="sans-serif" font-size="14" lengthAdjust="spacing" textLength="34" x="1855" y="965.7363">Email</text><line style="stroke:#181818;stroke-width:0.5;" x1="1831.5" x2="1912.5" y1="973.8125" y2="973.8125"/></g><!--class Admin--><g id="elem_Admin"><rect codeLine="47" fill="#F1F1F1" height="50.7031" id="Admin" rx="2.5" ry="2.5" style="stroke:#181818;stroke-width:0.5;" width="107" x="7" y="99.1094"/><text fill="#000000" font-family="sans-serif" font-size="12" font-style="italic" lengthAdjust="spacing" textLength="105" x="8" y="116.5664">&#171;conceptual class&#187;</text><text fill="#000000" font-family="sans-serif" font-size="14" lengthAdjust="spacing" textLength="39" x="41" y="133.7363">Admin</text><line style="stroke:#181818;stroke-width:0.5;" x1="8" x2="113" y1="141.8125" y2="141.8125"/></g><!--class FirstName--><g id="elem_FirstName"><rect fill="#F1F1F1" height="35.6094" id="FirstName" rx="2.5" ry="2.5" style="stroke:#181818;stroke-width:0.5;" width="70" x="1837" y="149.6094"/><text fill="#000000" font-family="sans-serif" font-size="14" lengthAdjust="spacing" textLength="64" x="1840" y="169.1426">FirstName</text><line style="stroke:#181818;stroke-width:0.5;" x1="1838" x2="1906" y1="177.2188" y2="177.2188"/></g><!--class LastName--><g id="elem_LastName"><rect fill="#F1F1F1" height="35.6094" id="LastName" rx="2.5" ry="2.5" style="stroke:#181818;stroke-width:0.5;" width="69" x="1837.5" y="220.6094"/><text fill="#000000" font-family="sans-serif" font-size="14" lengthAdjust="spacing" textLength="63" x="1840.5" y="240.1426">LastName</text><line style="stroke:#181818;stroke-width:0.5;" x1="1838.5" x2="1905.5" y1="248.2188" y2="248.2188"/></g><!--link Admin to User--><g id="link_Admin_User"><path codeLine="49" d="M114.28,124.6094 C136.31,124.6094 155.18,124.6094 174.75,124.6094 " fill="none" id="Admin-to-User" style="stroke:#181818;stroke-width:1.0;"/><polygon fill="#181818" points="180.75,124.6094,171.75,120.6094,175.75,124.6094,171.75,128.6094,180.75,124.6094" style="stroke:#181818;stroke-width:1.0;"/><polygon fill="#000000" points="99.51,115.7852,90.4649,112.8462,90.4649,118.7241,99.51,115.7852" style="stroke:#000000;stroke-width:1.0;"/><text fill="#000000" font-family="sans-serif" font-size="13" lengthAdjust="spacing" textLength="43" x="103.51" y="121.1045">creates</text><text fill="#000000" font-family="sans-serif" font-size="13" lengthAdjust="spacing" textLength="7" x="121.977" y="139.2231">1</text><text fill="#000000" font-family="sans-serif" font-size="13" lengthAdjust="spacing" textLength="5" x="168.0672" y="139.8214">*</text></g><!--link User to Username--><g id="link_User_Username"><path codeLine="51" d="M250.18,119.3094 C274.25,119.3094 302,119.3094 302,119.3094 C302,119.3094 302,210.6094 302,210.6094 C302,210.6094 381.08,210.6094 434.25,210.6094 " fill="none" id="User-to-Username" style="stroke:#181818;stroke-width:1.0;"/><polygon fill="#181818" points="440.25,210.6094,431.25,206.6094,435.25,210.6094,431.25,214.6094,440.25,210.6094" style="stroke:#181818;stroke-width:1.0;"/><polygon fill="#000000" points="275.4793,219.5769,268.6821,212.9249,266.0703,218.1906,275.4793,219.5769" style="stroke:#000000;stroke-width:1.0;"/><text fill="#000000" font-family="sans-serif" font-size="13" lengthAdjust="spacing" textLength="21" x="280" y="222.6745">has</text><text fill="#000000" font-family="sans-serif" font-size="13" lengthAdjust="spacing" textLength="7" x="258.0546" y="114.1282">1</text><text fill="#000000" font-family="sans-serif" font-size="13" lengthAdjust="spacing" textLength="7" x="425.4727" y="225.5352">1</text></g><!--link User to Email--><g id="link_User_Email"><path codeLine="52" d="M250.32,139.5094 C261.94,139.5094 272,139.5094 272,139.5094 C272,139.5094 272,965.1094 272,965.1094 C272,965.1094 1572.99,965.1094 1824.43,965.1094 " fill="none" id="User-to-Email" style="stroke:#181818;stroke-width:1.0;"/><polygon fill="#181818" points="1830.43,965.1094,1821.43,961.1094,1825.43,965.1094,1821.43,969.1094,1830.43,965.1094" style="stroke:#181818;stroke-width:1.0;"/><polygon fill="#000000" points="601.0079,976.6075,594.3628,969.8036,591.6327,975.009,601.0079,976.6075" style="stroke:#000000;stroke-width:1.0;"/><text fill="#000000" font-family="sans-serif" font-size="13" lengthAdjust="spacing" textLength="21" x="605.58" y="979.6045">has</text><text fill="#000000" font-family="sans-serif" font-size="13" lengthAdjust="spacing" textLength="7" x="258.2235" y="157.7945">1</text><text fill="#000000" font-family="sans-serif" font-size="13" lengthAdjust="spacing" textLength="7" x="1815.4019" y="981.6013">1</text></g><!--link User to Role--><g id="link_User_Role"><path codeLine="53" d="M250.07,109.2094 C268.09,109.2094 285.6,109.2094 310.73,109.2094 " fill="none" id="User-to-Role" style="stroke:#181818;stroke-width:1.0;"/><polygon fill="#181818" points="316.73,109.2094,307.73,105.2094,311.73,109.2094,307.73,113.2094,316.73,109.2094" style="stroke:#181818;stroke-width:1.0;"/><polygon fill="#000000" points="293.4,100.3852,284.3549,97.4462,284.3549,103.3241,293.4,100.3852" style="stroke:#000000;stroke-width:1.0;"/><text fill="#000000" font-family="sans-serif" font-size="13" lengthAdjust="spacing" textLength="21" x="297.4" y="105.7045">has</text><text fill="#000000" font-family="sans-serif" font-size="13" lengthAdjust="spacing" textLength="5" x="258.1791" y="101.6567">*</text><text fill="#000000" font-family="sans-serif" font-size="13" lengthAdjust="spacing" textLength="7" x="302.0826" y="122.7779">1</text></g><!--reverse link User to Patient--><g id="link_User_Patient"><path codeLine="55" d="M256.41,129.4094 C274.56,129.4094 287,129.4094 287,129.4094 C287,129.4094 287,510.6094 287,510.6094 C287,510.6094 391.05,510.6094 447.14,510.6094 " fill="none" id="User-backto-Patient" style="stroke:#181818;stroke-width:1.0;"/><polygon fill="#181818" points="250.41,129.4094,259.41,133.4094,255.41,129.4094,259.41,125.4094,250.41,129.4094" style="stroke:#181818;stroke-width:1.0;"/><polygon fill="#000000" points="214.7627,386.4936,216.1817,395.8977,221.4383,393.2677,214.7627,386.4936" style="stroke:#000000;stroke-width:1.0;"/><text fill="#000000" font-family="sans-serif" font-size="13" lengthAdjust="spacing" textLength="60" x="226" y="396.2845">references</text><text fill="#000000" font-family="sans-serif" font-size="13" lengthAdjust="spacing" textLength="22" x="258.0138" y="135.7532">0..1</text><text fill="#000000" font-family="sans-serif" font-size="13" lengthAdjust="spacing" textLength="7" x="432.5879" y="525.7433">1</text></g><!--link FullName to FirstName--><g id="link_FullName_FirstName"><path codeLine="57" d="M1474.24,214.8594 C1583.95,214.8594 1872,214.8594 1872,214.8594 C1872,214.8594 1872,199.0694 1872,185.7394 " fill="none" id="FullName-FirstName" style="stroke:#181818;stroke-width:1.0;"/><polygon fill="#000000" points="1661.6667,223.6701,1652.4311,221.3994,1652.8603,227.2616,1661.6667,223.6701" style="stroke:#000000;stroke-width:1.0;"/><text fill="#000000" font-family="sans-serif" font-size="13" lengthAdjust="spacing" textLength="21" x="1665.68" y="229.3545">has</text><text fill="#000000" font-family="sans-serif" font-size="13" lengthAdjust="spacing" textLength="7" x="1482.0156" y="226.3907">1</text><text fill="#000000" font-family="sans-serif" font-size="13" lengthAdjust="spacing" textLength="7" x="1864.0156" y="206.6879">1</text></g><!--link FullName to LastName--><g id="link_FullName_LastName"><path codeLine="58" d="M1474.24,238.6094 C1560.59,238.6094 1757.44,238.6094 1837.33,238.6094 " fill="none" id="FullName-LastName" style="stroke:#181818;stroke-width:1.0;"/><polygon fill="#000000" points="1629.79,247.7852,1620.7449,244.8462,1620.7449,250.7241,1629.79,247.7852" style="stroke:#000000;stroke-width:1.0;"/><text fill="#000000" font-family="sans-serif" font-size="13" lengthAdjust="spacing" textLength="21" x="1633.79" y="253.1045">has</text><text fill="#000000" font-family="sans-serif" font-size="13" lengthAdjust="spacing" textLength="7" x="1482.0156" y="254.2227">1</text><text fill="#000000" font-family="sans-serif" font-size="13" lengthAdjust="spacing" textLength="7" x="1822.4574" y="253.831">1</text></g><!--link ContactInformation to PhoneNumber--><g id="link_ContactInformation_PhoneNumber"><path codeLine="59" d="M1495,871.6094 C1583.64,871.6094 1743.94,871.6094 1823.92,871.6094 " fill="none" id="ContactInformation-PhoneNumber" style="stroke:#181818;stroke-width:1.0;"/><polygon fill="#000000" points="1633.46,880.7852,1624.4149,877.8462,1624.4149,883.7241,1633.46,880.7852" style="stroke:#000000;stroke-width:1.0;"/><text fill="#000000" font-family="sans-serif" font-size="13" lengthAdjust="spacing" textLength="21" x="1637.46" y="886.1045">has</text><text fill="#000000" font-family="sans-serif" font-size="13" lengthAdjust="spacing" textLength="7" x="1503.0438" y="885.9971">1</text><text fill="#000000" font-family="sans-serif" font-size="13" lengthAdjust="spacing" textLength="7" x="1809.0218" y="886.5323">1</text></g><!--link ContactInformation to Email--><g id="link_ContactInformation_Email"><path codeLine="60" d="M1433,898.1694 C1433,920.0694 1433,948.1094 1433,948.1094 C1433,948.1094 1720.72,948.1094 1830.3,948.1094 " fill="none" id="ContactInformation-Email" style="stroke:#181818;stroke-width:1.0;"/><polygon fill="#000000" points="1580.641,957.9087,1572.033,953.8647,1571.3,959.6966,1580.641,957.9087" style="stroke:#000000;stroke-width:1.0;"/><text fill="#000000" font-family="sans-serif" font-size="13" lengthAdjust="spacing" textLength="21" x="1584.68" y="962.6045">has</text><text fill="#000000" font-family="sans-serif" font-size="13" lengthAdjust="spacing" textLength="7" x="1425.3063" y="919.5002">1</text><text fill="#000000" font-family="sans-serif" font-size="13" lengthAdjust="spacing" textLength="7" x="1815.5313" y="961.5743">1</text></g><!--link EmergencyContact to PhoneNumber--><g id="link_EmergencyContact_PhoneNumber"><path codeLine="61" d="M1495.94,786.6094 C1617.65,786.6094 1872,786.6094 1872,786.6094 C1872,786.6094 1872,820.2494 1872,844.9494 " fill="none" id="EmergencyContact-PhoneNumber" style="stroke:#181818;stroke-width:1.0;"/><polygon fill="#000000" points="1687.0809,796.5517,1678.5933,792.2609,1677.6922,798.0692,1687.0809,796.5517" style="stroke:#000000;stroke-width:1.0;"/><text fill="#000000" font-family="sans-serif" font-size="13" lengthAdjust="spacing" textLength="21" x="1691.14" y="801.1045">has</text><text fill="#000000" font-family="sans-serif" font-size="13" lengthAdjust="spacing" textLength="7" x="1503.6799" y="801.067">1</text><text fill="#000000" font-family="sans-serif" font-size="13" lengthAdjust="spacing" textLength="7" x="1864.1469" y="834.3189">1</text></g><!--link Patient to FullName--><g id="link_Patient_FullName"><path codeLine="63" d="M465,484.9594 C465,418.9094 465,248.1094 465,248.1094 C465,248.1094 1205.74,248.1094 1390.93,248.1094 " fill="none" id="Patient-FullName" style="stroke:#181818;stroke-width:1.0;"/><polygon fill="#000000" points="783.384,256.0461,773.8928,255.4403,775.3494,261.1349,783.384,256.0461" style="stroke:#000000;stroke-width:1.0;"/><text fill="#000000" font-family="sans-serif" font-size="13" lengthAdjust="spacing" textLength="21" x="787.54" y="262.6045">has</text><text fill="#000000" font-family="sans-serif" font-size="13" lengthAdjust="spacing" textLength="20" x="438.4188" y="474.3313">1..*</text><text fill="#000000" font-family="sans-serif" font-size="13" lengthAdjust="spacing" textLength="7" x="1375.9019" y="265.4919">1</text></g><!--link Patient to DateOfBirth--><g id="link_Patient_DateOfBirth"><path codeLine="64" d="M503,536.4094 C503,561.7394 503,596.6094 503,596.6094 C503,596.6094 1209.89,596.6094 1390.76,596.6094 " fill="none" id="Patient-DateOfBirth" style="stroke:#181818;stroke-width:1.0;"/><polygon fill="#000000" points="868.7685,606.1234,859.943,602.5793,859.5453,608.4437,868.7685,606.1234" style="stroke:#000000;stroke-width:1.0;"/><text fill="#000000" font-family="sans-serif" font-size="13" lengthAdjust="spacing" textLength="43" x="872.78" y="611.1045">born on</text><text fill="#000000" font-family="sans-serif" font-size="13" lengthAdjust="spacing" textLength="5" x="502.0469" y="557.3692">*</text><text fill="#000000" font-family="sans-serif" font-size="13" lengthAdjust="spacing" textLength="7" x="1375.9844" y="611.5352">1</text></g><!--link Patient to Gender--><g id="link_Patient_Gender"><path codeLine="65" d="M489,536.1594 C489,586.0494 489,691.6094 489,691.6094 C489,691.6094 1173.19,691.6094 1376.31,691.6094 " fill="none" id="Patient-Gender" style="stroke:#181818;stroke-width:1.0;"/><polygon fill="#000000" points="828.855,701.648,820.4528,697.1923,819.4384,702.982,828.855,701.648" style="stroke:#000000;stroke-width:1.0;"/><text fill="#000000" font-family="sans-serif" font-size="13" lengthAdjust="spacing" textLength="21" x="832.93" y="706.1045">has</text><text fill="#000000" font-family="sans-serif" font-size="13" lengthAdjust="spacing" textLength="5" x="485.0406" y="557.4879">*</text><text fill="#000000" font-family="sans-serif" font-size="13" lengthAdjust="spacing" textLength="7" x="1361.6622" y="706.132">1</text></g><!--link Patient to MedicalRecordNumber--><g id="link_Patient_MedicalRecordNumber"><path codeLine="66" d="M516.67,510.6094 C654.4,510.6094 1164.66,510.6094 1357.78,510.6094 " fill="none" id="Patient-MedicalRecordNumber" style="stroke:#181818;stroke-width:1.0;"/><polygon fill="#000000" points="863.23,519.7852,854.1849,516.8462,854.1849,522.7241,863.23,519.7852" style="stroke:#000000;stroke-width:1.0;"/><text fill="#000000" font-family="sans-serif" font-size="13" lengthAdjust="spacing" textLength="69" x="867.23" y="525.1045">identified by</text><text fill="#000000" font-family="sans-serif" font-size="13" lengthAdjust="spacing" textLength="7" x="524.5426" y="525.8214">1</text><text fill="#000000" font-family="sans-serif" font-size="13" lengthAdjust="spacing" textLength="7" x="1343.0802" y="524.9239">1</text></g><!--link Patient to ContactInformation--><g id="link_Patient_ContactInformation"><path codeLine="67" d="M462,536.3494 C462,619.0594 462,872.6094 462,872.6094 C462,872.6094 1155.31,872.6094 1369.94,872.6094 " fill="none" id="Patient-ContactInformation" style="stroke:#181818;stroke-width:1.0;"/><polygon fill="#000000" points="721.5288,883.5217,714.0674,877.6243,712.026,883.1363,721.5288,883.5217" style="stroke:#000000;stroke-width:1.0;"/><text fill="#000000" font-family="sans-serif" font-size="13" lengthAdjust="spacing" textLength="21" x="725.84" y="887.1045">has</text><text fill="#000000" font-family="sans-serif" font-size="13" lengthAdjust="spacing" textLength="7" x="449.8594" y="557.296">1</text><text fill="#000000" font-family="sans-serif" font-size="13" lengthAdjust="spacing" textLength="7" x="1354.8889" y="887.119">1</text></g><!--link Patient to MedicalCondition--><g id="link_Patient_MedicalCondition"><path codeLine="68" d="M500,484.8094 C500,459.4794 500,424.6094 500,424.6094 C500,424.6094 1172.34,424.6094 1375.22,424.6094 " fill="none" id="Patient-MedicalCondition" style="stroke:#181818;stroke-width:1.0;"/><polygon fill="#000000" points="851.4982,433.4421,842.2728,431.1307,842.6761,436.9947,851.4982,433.4421" style="stroke:#000000;stroke-width:1.0;"/><text fill="#000000" font-family="sans-serif" font-size="13" lengthAdjust="spacing" textLength="51" x="855.51" y="439.1045">can have</text><text fill="#000000" font-family="sans-serif" font-size="13" lengthAdjust="spacing" textLength="20" x="481.95" y="474.1448">0..*</text><text fill="#000000" font-family="sans-serif" font-size="13" lengthAdjust="spacing" textLength="20" x="1347.4408" y="439.067">0..*</text></g><!--link Patient to EmergencyContact--><g id="link_Patient_EmergencyContact"><path codeLine="69" d="M476,536.5794 C476,605.2794 476,786.6094 476,786.6094 C476,786.6094 1156.16,786.6094 1369.37,786.6094 " fill="none" id="Patient-EmergencyContact" style="stroke:#181818;stroke-width:1.0;"/><polygon fill="#000000" points="771.485,797.1327,763.5667,791.8648,761.9825,797.5251,771.485,797.1327" style="stroke:#000000;stroke-width:1.0;"/><text fill="#000000" font-family="sans-serif" font-size="13" lengthAdjust="spacing" textLength="21" x="775.67" y="801.1045">has</text><text fill="#000000" font-family="sans-serif" font-size="13" lengthAdjust="spacing" textLength="5" x="469.2469" y="557.1477">*</text><text fill="#000000" font-family="sans-serif" font-size="13" lengthAdjust="spacing" textLength="7" x="1354.6659" y="801.067">1</text></g><!--link Patient to AppointmentHistory--><g id="link_Patient_AppointmentHistory"><path codeLine="70" d="M482,484.8594 C482,436.8794 482,338.6094 482,338.6094 C482,338.6094 1154.76,338.6094 1368.29,338.6094 " fill="none" id="Patient-AppointmentHistory" style="stroke:#181818;stroke-width:1.0;"/><polygon fill="#000000" points="825.9533,346.9711,816.5504,345.544,817.5074,351.3435,825.9533,346.9711" style="stroke:#000000;stroke-width:1.0;"/><text fill="#000000" font-family="sans-serif" font-size="13" lengthAdjust="spacing" textLength="21" x="830.02" y="353.1045">has</text><text fill="#000000" font-family="sans-serif" font-size="13" lengthAdjust="spacing" textLength="5" x="476.3906" y="474.207">*</text><text fill="#000000" font-family="sans-serif" font-size="13" lengthAdjust="spacing" textLength="7" x="1353.461" y="353.067">1</text></g><!--SRC=[bLHDRzf04BtxLuou5290eDvGWaI0D4WnYGWvzBZOOtiRUvVkBcdTAl-zisi33dP8kXT_l3UpCsy-z3CNMwPO1biMFBCO7qsU8YWC31DnYfu-47J2GlcBYnWYbchqAb2GCgqdnYY-sHbS158yyZy80yypSWj6maOQ8pC8kNNCfV1IZ8m558yJK_b_z9boWIRV8aXb4kbv2GyH0gu22igzPqZ_GqrtS4CXpsJ6k01VXfX2U-Pte0TFqy7Wg-ULgK7hIQEQnB72c1bimLyFwBZWmK9mUQcaD822NERZyGaiM8P4UM7fZgBQ_A2GIuwG1ijKP7JWZa1R2wR190Wx-lj50rAKQSNnt7utUoq8AvdMRor3jsSoynVBBipkf-lxLHUMJwl7UHVMy-djSZ5TJ0XwcAmNy-NQMRmsn6jl605fPnBkCeKfqzW5AT8Shaax6KKyGCVJm1ILGGfD9L0OGlkZ-plUQwK23ynmalUT8fJecJhCoEO-kkRK4vyfHOK-WaYgZ1cgIguDKZCILl7y3KNeMk1TfVt97MLsCxVFYfY5kOyX3rYwma2gSBdBDWs-6W9iC1l1Jl2VP4OAam0H9q_jVUpVwVY-S8SQt7x25UJ8L1TydrupAKpIXP9n1Hh95RbXAGZdlbCFUYf5oEtu_KV41viHoArzqWNjI262mT-cywR3KSKeWfnC30lCkMQVRBUI2vDHnBTS6wdoEflQgI3VxD9qsJYJ1LxUjn25U8tvbNsNI87l5Utid9Re9CouzKw34U3Mx4WC1rX6WRM6BUZrnj2wQBa5CO908NMW1gAuvNDW35kL5P8mowWHN3XlqOiZManq0PReeDyduBBNSuJze8tWadPzH9DCSTCgFKXQtEKUDrnfutwEO6oTDhBks0cfGVqAlQhuvooA0kovjQRwmBUtpxWrxFUTKcLo-rJsn0ElGgek7SlRI2LeEpPoopLISpSyKffMXUKVvZs4JTvesQ1GxQB1CR_YjJRarYHWWinUy3I7GkaJRSzfqp2nU_e_]--></g></svg>