<?xml version="1.0" encoding="us-ascii" standalone="no"?><svg xmlns="http://www.w3.org/2000/svg" xmlns:xlink="http://www.w3.org/1999/xlink" contentStyleType="text/css" height="753px" preserveAspectRatio="none" style="width:1569px;height:753px;background:#FFFFFF;" version="1.1" viewBox="0 0 1569 753" width="1569px" zoomAndPan="magnify"><defs/><g><text fill="#000000" font-family="sans-serif" font-size="14" font-weight="bold" lengthAdjust="spacing" textLength="194" x="680.5" y="25.1074">Domain Model (DM) - UC030</text><!--cluster SystemUserAggregate--><g id="cluster_SystemUserAggregate"><rect fill="none" height="376" rx="2.5" ry="2.5" style="stroke:#000000;stroke-width:1.5;" width="340" x="7" y="265.6211"/><text fill="#000000" font-family="sans-serif" font-size="14" font-weight="bold" lengthAdjust="spacing" textLength="156" x="99" y="282.7285">SystemUserAggregate</text></g><!--cluster CustomerAggregate--><g id="cluster_CustomerAggregate"><rect fill="none" height="107" rx="2.5" ry="2.5" style="stroke:#000000;stroke-width:1.5;" width="157" x="698.5" y="46.6211"/><text fill="#000000" font-family="sans-serif" font-size="14" font-weight="bold" lengthAdjust="spacing" textLength="141" x="706.5" y="63.7285">CustomerAggregate</text></g><!--cluster CandidateAggregate--><g id="cluster_CandidateAggregate"><rect fill="none" height="107" rx="2.5" ry="2.5" style="stroke:#000000;stroke-width:1.5;" width="160" x="697.5" y="614.6211"/><text fill="#000000" font-family="sans-serif" font-size="14" font-weight="bold" lengthAdjust="spacing" textLength="144" x="705.5" y="631.7285">CandidateAggregate</text></g><!--cluster JobOpeningAggregate--><g id="cluster_JobOpeningAggregate"><rect fill="none" height="413" rx="2.5" ry="2.5" style="stroke:#000000;stroke-width:1.5;" width="843" x="720" y="177.6211"/><text fill="#000000" font-family="sans-serif" font-size="14" font-weight="bold" lengthAdjust="spacing" textLength="159" x="1062" y="194.7285">JobOpeningAggregate</text></g><!--cluster JobApplicationAggregate--><g id="cluster_JobApplicationAggregate"><rect fill="none" height="107" rx="2.5" ry="2.5" style="stroke:#000000;stroke-width:1.5;" width="193" x="975" y="614.6211"/><text fill="#000000" font-family="sans-serif" font-size="14" font-weight="bold" lengthAdjust="spacing" textLength="177" x="983" y="631.7285">JobApplicationAggregate</text></g><!--class SystemUser--><g id="elem_SystemUser"><rect codeLine="15" fill="#F1F1F1" height="52.582" id="SystemUser" rx="2.5" ry="2.5" style="stroke:#181818;stroke-width:0.5;" width="81" x="23" y="484.1211"/><text fill="#000000" font-family="sans-serif" font-size="12" font-style="italic" lengthAdjust="spacing" textLength="73" x="27" y="502.0703">&#171;Root Entity&#187;</text><text fill="#000000" font-family="sans-serif" font-size="14" lengthAdjust="spacing" textLength="75" x="26" y="520.1895">SystemUser</text><line style="stroke:#181818;stroke-width:0.5;" x1="24" x2="103" y1="528.7031" y2="528.7031"/></g><!--class Name--><g id="elem_Name"><rect codeLine="16" fill="#F1F1F1" height="52.582" id="Name" rx="2.5" ry="2.5" style="stroke:#181818;stroke-width:0.5;" width="87" x="204.5" y="572.1211"/><text fill="#000000" font-family="sans-serif" font-size="12" font-style="italic" lengthAdjust="spacing" textLength="85" x="205.5" y="590.0703">&#171;Value Object&#187;</text><text fill="#000000" font-family="sans-serif" font-size="14" lengthAdjust="spacing" textLength="36" x="230" y="608.1895">Name</text><line style="stroke:#181818;stroke-width:0.5;" x1="205.5" x2="290.5" y1="616.7031" y2="616.7031"/></g><!--class EmailAddress--><g id="elem_EmailAddress"><rect codeLine="17" fill="#F1F1F1" height="52.582" id="EmailAddress" rx="2.5" ry="2.5" style="stroke:#181818;stroke-width:0.5;" width="92" x="202" y="484.1211"/><text fill="#000000" font-family="sans-serif" font-size="12" font-style="italic" lengthAdjust="spacing" textLength="85" x="205.5" y="502.0703">&#171;Value Object&#187;</text><text fill="#000000" font-family="sans-serif" font-size="14" lengthAdjust="spacing" textLength="86" x="205" y="520.1895">EmailAddress</text><line style="stroke:#181818;stroke-width:0.5;" x1="203" x2="293" y1="528.7031" y2="528.7031"/></g><!--class Role--><g id="elem_Role"><rect codeLine="18" fill="#F1F1F1" height="145.6875" id="Role" rx="2.5" ry="2.5" style="stroke:#181818;stroke-width:0.5;" width="166" x="165" y="302.6211"/><text fill="#000000" font-family="sans-serif" font-size="12" font-style="italic" lengthAdjust="spacing" textLength="85" x="205.5" y="320.5703">&#171;Value Object&#187;</text><text fill="#000000" font-family="sans-serif" font-size="14" lengthAdjust="spacing" textLength="29" x="233.5" y="338.6895">Role</text><line style="stroke:#181818;stroke-width:0.5;" x1="166" x2="330" y1="347.2031" y2="347.2031"/><text fill="#000000" font-family="sans-serif" font-size="14" lengthAdjust="spacing" textLength="42" x="171" y="366.3105">ADMIN</text><text fill="#000000" font-family="sans-serif" font-size="14" lengthAdjust="spacing" textLength="154" x="171" y="384.9316">CUSTOMER_MANAGER</text><text fill="#000000" font-family="sans-serif" font-size="14" lengthAdjust="spacing" textLength="78" x="171" y="403.5527">OPERATOR</text><text fill="#000000" font-family="sans-serif" font-size="14" lengthAdjust="spacing" textLength="78" x="171" y="422.1738">CUSTOMER</text><text fill="#000000" font-family="sans-serif" font-size="14" lengthAdjust="spacing" textLength="78" x="171" y="440.7949">CANDIDATE</text></g><!--class Customer--><g id="elem_Customer"><rect codeLine="32" fill="#F1F1F1" height="52.582" id="Customer" rx="2.5" ry="2.5" style="stroke:#181818;stroke-width:0.5;" width="75" x="739.5" y="84.1211"/><text fill="#000000" font-family="sans-serif" font-size="12" font-style="italic" lengthAdjust="spacing" textLength="73" x="740.5" y="102.0703">&#171;Root Entity&#187;</text><text fill="#000000" font-family="sans-serif" font-size="14" lengthAdjust="spacing" textLength="61" x="746.5" y="120.1895">Customer</text><line style="stroke:#181818;stroke-width:0.5;" x1="740.5" x2="813.5" y1="128.7031" y2="128.7031"/></g><!--class Candidate--><g id="elem_Candidate"><rect codeLine="36" fill="#F1F1F1" height="52.582" id="Candidate" rx="2.5" ry="2.5" style="stroke:#181818;stroke-width:0.5;" width="75" x="739.5" y="652.1211"/><text fill="#000000" font-family="sans-serif" font-size="12" font-style="italic" lengthAdjust="spacing" textLength="73" x="740.5" y="670.0703">&#171;Root Entity&#187;</text><text fill="#000000" font-family="sans-serif" font-size="14" lengthAdjust="spacing" textLength="65" x="744.5" y="688.1895">Candidate</text><line style="stroke:#181818;stroke-width:0.5;" x1="740.5" x2="813.5" y1="696.7031" y2="696.7031"/></g><!--class JobOpening--><g id="elem_JobOpening"><rect codeLine="41" fill="#F1F1F1" height="52.582" id="JobOpening" rx="2.5" ry="2.5" style="stroke:#181818;stroke-width:0.5;" width="82" x="736" y="351.1211"/><text fill="#000000" font-family="sans-serif" font-size="12" font-style="italic" lengthAdjust="spacing" textLength="73" x="740.5" y="369.0703">&#171;Root Entity&#187;</text><text fill="#000000" font-family="sans-serif" font-size="14" lengthAdjust="spacing" textLength="76" x="739" y="387.1895">JobOpening</text><line style="stroke:#181818;stroke-width:0.5;" x1="737" x2="817" y1="395.7031" y2="395.7031"/></g><!--class JobReference--><g id="elem_JobReference"><rect codeLine="42" fill="#F1F1F1" height="52.582" id="JobReference" rx="2.5" ry="2.5" style="stroke:#181818;stroke-width:0.5;" width="94" x="1024.5" y="521.1211"/><text fill="#000000" font-family="sans-serif" font-size="12" font-style="italic" lengthAdjust="spacing" textLength="85" x="1029" y="539.0703">&#171;Value Object&#187;</text><text fill="#000000" font-family="sans-serif" font-size="14" lengthAdjust="spacing" textLength="88" x="1027.5" y="557.1895">JobReference</text><line style="stroke:#181818;stroke-width:0.5;" x1="1025.5" x2="1117.5" y1="565.7031" y2="565.7031"/></g><!--class JobFunction--><g id="elem_JobFunction"><rect codeLine="43" fill="#F1F1F1" height="52.582" id="JobFunction" rx="2.5" ry="2.5" style="stroke:#181818;stroke-width:0.5;" width="87" x="1028" y="433.1211"/><text fill="#000000" font-family="sans-serif" font-size="12" font-style="italic" lengthAdjust="spacing" textLength="85" x="1029" y="451.0703">&#171;Value Object&#187;</text><text fill="#000000" font-family="sans-serif" font-size="14" lengthAdjust="spacing" textLength="77" x="1033" y="469.1895">JobFunction</text><line style="stroke:#181818;stroke-width:0.5;" x1="1029" x2="1114" y1="477.7031" y2="477.7031"/></g><!--class Phase--><g id="elem_Phase"><rect codeLine="44" fill="#F1F1F1" height="145.6875" id="Phase" rx="2.5" ry="2.5" style="stroke:#181818;stroke-width:0.5;" width="101" x="1021" y="251.6211"/><text fill="#000000" font-family="sans-serif" font-size="12" font-style="italic" lengthAdjust="spacing" textLength="85" x="1029" y="269.5703">&#171;Value Object&#187;</text><text fill="#000000" font-family="sans-serif" font-size="14" lengthAdjust="spacing" textLength="40" x="1051.5" y="287.6895">Phase</text><line style="stroke:#181818;stroke-width:0.5;" x1="1022" x2="1121" y1="296.2031" y2="296.2031"/><text fill="#000000" font-family="sans-serif" font-size="14" lengthAdjust="spacing" textLength="89" x="1027" y="315.3105">APPLICATION</text><text fill="#000000" font-family="sans-serif" font-size="14" lengthAdjust="spacing" textLength="79" x="1027" y="333.9316">SCREENING</text><text fill="#000000" font-family="sans-serif" font-size="14" lengthAdjust="spacing" textLength="83" x="1027" y="352.5527">INTERVIEWS</text><text fill="#000000" font-family="sans-serif" font-size="14" lengthAdjust="spacing" textLength="65" x="1027" y="371.1738">ANALYSIS</text><text fill="#000000" font-family="sans-serif" font-size="14" lengthAdjust="spacing" textLength="54" x="1027" y="389.7949">RESULT</text></g><!--class Status--><g id="elem_Status"><rect codeLine="51" fill="#F1F1F1" height="108.4453" id="Status" rx="2.5" ry="2.5" style="stroke:#181818;stroke-width:0.5;" width="110" x="1437" y="218.6211"/><text fill="#000000" font-family="sans-serif" font-size="12" font-style="italic" lengthAdjust="spacing" textLength="85" x="1449.5" y="236.5703">&#171;Value Object&#187;</text><text fill="#000000" font-family="sans-serif" font-size="14" lengthAdjust="spacing" textLength="40" x="1472" y="254.6895">Status</text><line style="stroke:#181818;stroke-width:0.5;" x1="1438" x2="1546" y1="263.2031" y2="263.2031"/><text fill="#000000" font-family="sans-serif" font-size="14" lengthAdjust="spacing" textLength="60" x="1443" y="282.3105">PENDING</text><text fill="#000000" font-family="sans-serif" font-size="14" lengthAdjust="spacing" textLength="98" x="1443" y="300.9316">IN_PROGRESS</text><text fill="#000000" font-family="sans-serif" font-size="14" lengthAdjust="spacing" textLength="86" x="1443" y="319.5527">COMPLETED</text></g><!--class PhaseDetails--><g id="elem_PhaseDetails"><rect codeLine="56" fill="#F1F1F1" height="52.582" id="PhaseDetails" rx="2.5" ry="2.5" style="stroke:#181818;stroke-width:0.5;" width="89" x="1252" y="288.1211"/><text fill="#000000" font-family="sans-serif" font-size="12" font-style="italic" lengthAdjust="spacing" textLength="85" x="1254" y="306.0703">&#171;Value Object&#187;</text><text fill="#000000" font-family="sans-serif" font-size="14" lengthAdjust="spacing" textLength="83" x="1255" y="324.1895">PhaseDetails</text><line style="stroke:#181818;stroke-width:0.5;" x1="1253" x2="1340" y1="332.7031" y2="332.7031"/></g><!--class JobApplication--><g id="elem_JobApplication"><rect codeLine="60" fill="#F1F1F1" height="52.582" id="JobApplication" rx="2.5" ry="2.5" style="stroke:#181818;stroke-width:0.5;" width="97" x="1023" y="652.1211"/><text fill="#000000" font-family="sans-serif" font-size="12" font-style="italic" lengthAdjust="spacing" textLength="73" x="1035" y="670.0703">&#171;Root Entity&#187;</text><text fill="#000000" font-family="sans-serif" font-size="14" lengthAdjust="spacing" textLength="91" x="1026" y="688.1895">JobApplication</text><line style="stroke:#181818;stroke-width:0.5;" x1="1024" x2="1119" y1="696.7031" y2="696.7031"/></g><!--class CustomerManager--><g id="elem_CustomerManager"><rect codeLine="27" fill="#F1F1F1" height="36.6211" id="CustomerManager" rx="2.5" ry="2.5" style="stroke:#181818;stroke-width:0.5;" width="123" x="461" y="141.1211"/><text fill="#000000" font-family="sans-serif" font-size="14" lengthAdjust="spacing" textLength="117" x="464" y="161.2285">CustomerManager</text><line style="stroke:#181818;stroke-width:0.5;" x1="462" x2="583" y1="169.7422" y2="169.7422"/></g><g id="elem_GMN8"><path d="M188.5,79.1211 L188.5,106.4121 L307.5,106.4121 L307.5,89.1211 L297.5,79.1211 L188.5,79.1211 " fill="#FEFFDD" style="stroke:#181818;stroke-width:0.5;"/><path d="M297.5,79.1211 L297.5,89.1211 L307.5,89.1211 L297.5,79.1211 " fill="#FEFFDD" style="stroke:#181818;stroke-width:1.0;"/><text fill="#000000" font-family="sans-serif" font-size="13" lengthAdjust="spacing" textLength="98" x="194.5" y="98.1494">conceptual class</text></g><!--class Admin--><g id="elem_Admin"><rect fill="#F1F1F1" height="36.6211" id="Admin" rx="2.5" ry="2.5" style="stroke:#181818;stroke-width:0.5;" width="45" x="225.5" y="141.1211"/><text fill="#000000" font-family="sans-serif" font-size="14" lengthAdjust="spacing" textLength="39" x="228.5" y="161.2285">Admin</text><line style="stroke:#181818;stroke-width:0.5;" x1="226.5" x2="269.5" y1="169.7422" y2="169.7422"/></g><!--link GMN8 to CustomerManager--><g id="link_GMN8_CustomerManager"><path d="M307.87,104.4111 C343.63,111.8611 390.13,122.0511 431,132.6211 C440.84,135.1711 451.22,138.0611 461.31,140.9911 " fill="none" id="GMN8-CustomerManager" style="stroke:#181818;stroke-width:1.0;stroke-dasharray:7.0,7.0;"/></g><!--link SystemUser to Name--><g id="link_SystemUser_Name"><path codeLine="63" d="M104.1,529.7111 C133.66,543.9711 174.01,563.4311 204.29,578.0311 " fill="none" id="SystemUser-Name" style="stroke:#181818;stroke-width:1.0;"/><text fill="#000000" font-family="sans-serif" font-size="13" lengthAdjust="spacing" textLength="7" x="111.9553" y="548.717">1</text><text fill="#000000" font-family="sans-serif" font-size="13" lengthAdjust="spacing" textLength="7" x="189.4708" y="590.1157">1</text></g><!--link SystemUser to EmailAddress--><g id="link_SystemUser_EmailAddress"><path codeLine="64" d="M104.1,510.6211 C132.82,510.6211 171.73,510.6211 201.69,510.6211 " fill="none" id="SystemUser-EmailAddress" style="stroke:#181818;stroke-width:1.0;"/><text fill="#000000" font-family="sans-serif" font-size="13" lengthAdjust="spacing" textLength="7" x="111.9553" y="526.2266">1</text><text fill="#000000" font-family="sans-serif" font-size="13" lengthAdjust="spacing" textLength="7" x="187.0628" y="526.0053">1</text></g><!--link SystemUser to Role--><g id="link_SystemUser_Role"><path codeLine="65" d="M100.56,483.9511 C119.05,470.2711 142.38,453.0111 164.95,436.3111 " fill="none" id="SystemUser-Role" style="stroke:#181818;stroke-width:1.0;"/><text fill="#000000" font-family="sans-serif" font-size="13" lengthAdjust="spacing" textLength="7" x="101.3208" y="472.9283">1</text><text fill="#000000" font-family="sans-serif" font-size="13" lengthAdjust="spacing" textLength="5" x="152.0634" y="456.7457">*</text></g><!--reverse link SystemUser to CustomerManager--><g id="link_SystemUser_CustomerManager"><path codeLine="67" d="M70.4192,478.0842 C80.0592,431.2342 105.17,339.7811 165,284.6211 C176.45,274.0611 367.28,210.3211 464.91,178.1611 " fill="none" id="SystemUser-backto-CustomerManager" style="stroke:#181818;stroke-width:1.0;"/><polygon fill="#181818" points="69.21,483.9611,74.9418,475.9519,70.2177,479.0637,67.1059,474.3396,69.21,483.9611" style="stroke:#181818;stroke-width:1.0;"/><polygon fill="#000000" points="231.0197,209.2927,239.9988,206.158,236.4414,201.4789,231.0197,209.2927" style="stroke:#000000;stroke-width:1.0;"/><text fill="#000000" font-family="sans-serif" font-size="13" lengthAdjust="spacing" textLength="21" x="244" y="211.6494">is a</text></g><!--reverse link SystemUser to Candidate--><g id="link_SystemUser_Candidate"><path codeLine="68" d="M78.771,542.6235 C94.101,574.0435 121.66,619.5311 165,642.6211 C359.6,746.2811 640.15,705.5511 739.47,686.4011 " fill="none" id="SystemUser-backto-Candidate" style="stroke:#181818;stroke-width:1.0;"/><polygon fill="#181818" points="76.14,537.2311,76.4915,547.0737,78.3325,541.7248,83.6814,543.5657,76.14,537.2311" style="stroke:#181818;stroke-width:1.0;"/><polygon fill="#000000" points="379.1143,693.2034,387.3277,697.9985,388.5775,692.255,379.1143,693.2034" style="stroke:#000000;stroke-width:1.0;"/><text fill="#000000" font-family="sans-serif" font-size="13" lengthAdjust="spacing" textLength="21" x="393" y="699.6494">is a</text></g><!--link Admin to CustomerManager--><g id="link_Admin_CustomerManager"><path codeLine="70" d="M270.84,159.6211 C311.63,159.6211 400.72,159.6211 460.92,159.6211 " fill="none" id="Admin-CustomerManager" style="stroke:#181818;stroke-width:1.0;"/><polygon fill="#000000" points="373,150.2666,363.9549,147.3277,363.9549,153.2055,373,150.2666" style="stroke:#000000;stroke-width:1.0;"/><text fill="#000000" font-family="sans-serif" font-size="13" lengthAdjust="spacing" textLength="53" x="377" y="155.6494">manages</text><text fill="#000000" font-family="sans-serif" font-size="13" lengthAdjust="spacing" textLength="7" x="278.5774" y="176.2447">1</text><text fill="#000000" font-family="sans-serif" font-size="13" lengthAdjust="spacing" textLength="5" x="448.1103" y="174.7262">*</text></g><!--link CustomerManager to Customer--><g id="link_CustomerManager_Customer"><path codeLine="72" d="M584.3,147.8211 C632.6,138.4511 698.57,125.6511 739.18,117.7711 " fill="none" id="CustomerManager-Customer" style="stroke:#181818;stroke-width:1.0;"/><polygon fill="#000000" points="623.9085,119.3143,614.4692,118.1519,615.5887,123.9222,623.9085,119.3143" style="stroke:#000000;stroke-width:1.0;"/><text fill="#000000" font-family="sans-serif" font-size="13" lengthAdjust="spacing" textLength="53" x="628" y="125.6494">manages</text><text fill="#000000" font-family="sans-serif" font-size="13" lengthAdjust="spacing" textLength="7" x="591.8503" y="161.5066">1</text><text fill="#000000" font-family="sans-serif" font-size="13" lengthAdjust="spacing" textLength="5" x="726.494" y="134.8503">*</text></g><!--link Candidate to JobApplication--><g id="link_Candidate_JobApplication"><path codeLine="75" d="M814.75,678.6211 C867.45,678.6211 964.55,678.6211 1022.76,678.6211 " fill="none" id="Candidate-JobApplication" style="stroke:#181818;stroke-width:1.0;"/><polygon fill="#000000" points="891.5,669.2666,882.4549,666.3277,882.4549,672.2055,891.5,669.2666" style="stroke:#000000;stroke-width:1.0;"/><text fill="#000000" font-family="sans-serif" font-size="13" lengthAdjust="spacing" textLength="56" x="895.5" y="674.6494">applies to</text><text fill="#000000" font-family="sans-serif" font-size="13" lengthAdjust="spacing" textLength="7" x="822.6133" y="694.3373">1</text><text fill="#000000" font-family="sans-serif" font-size="13" lengthAdjust="spacing" textLength="5" x="1009.9139" y="694.0053">*</text></g><!--link CustomerManager to JobOpening--><g id="link_CustomerManager_JobOpening"><path codeLine="77" d="M545.03,178.2111 C589.87,216.9211 693.42,306.3211 745.26,351.0811 " fill="none" id="CustomerManager-JobOpening" style="stroke:#181818;stroke-width:1.0;"/><polygon fill="#000000" points="627.7846,237.5341,622.8587,229.3986,619.0176,233.8477,627.7846,237.5341" style="stroke:#000000;stroke-width:1.0;"/><text fill="#000000" font-family="sans-serif" font-size="13" lengthAdjust="spacing" textLength="43" x="633" y="239.6494">creates</text><text fill="#000000" font-family="sans-serif" font-size="13" lengthAdjust="spacing" textLength="7" x="543.1443" y="199.6099">1</text><text fill="#000000" font-family="sans-serif" font-size="13" lengthAdjust="spacing" textLength="5" x="731.914" y="339.6548">*</text></g><!--link JobOpening to JobApplication--><g id="link_JobOpening_JobApplication"><path codeLine="80" d="M791.76,404.2411 C808.73,435.5911 839.69,488.2211 875,526.6211 C921.56,577.2511 986.29,623.9711 1028.29,651.8911 " fill="none" id="JobOpening-JobApplication" style="stroke:#181818;stroke-width:1.0;"/><polygon fill="#000000" points="905.5466,513.6508,909.6686,522.2217,913.9192,518.162,905.5466,513.6508" style="stroke:#000000;stroke-width:1.0;"/><text fill="#000000" font-family="sans-serif" font-size="13" lengthAdjust="spacing" textLength="11" x="918" y="522.6494">to</text><text fill="#000000" font-family="sans-serif" font-size="13" lengthAdjust="spacing" textLength="7" x="787.0824" y="425.586">1</text><text fill="#000000" font-family="sans-serif" font-size="13" lengthAdjust="spacing" textLength="5" x="1012.7196" y="640.8545">*</text></g><!--link JobOpening to JobReference--><g id="link_JobOpening_JobReference"><path codeLine="81" d="M809.33,404.3411 C827.86,419.5911 852.11,438.5911 875,453.6211 C913.9,479.1711 925.09,483.3811 967,503.6211 C985.55,512.5811 1006.39,521.6311 1024.48,529.1711 " fill="none" id="JobOpening-JobReference" style="stroke:#181818;stroke-width:1.0;"/><polygon fill="#000000" points="884.3248,446.7758,877.9761,439.6945,875.0263,444.7786,884.3248,446.7758" style="stroke:#000000;stroke-width:1.0;"/><text fill="#000000" font-family="sans-serif" font-size="13" lengthAdjust="spacing" textLength="69" x="889" y="449.6494">identified by</text><text fill="#000000" font-family="sans-serif" font-size="13" lengthAdjust="spacing" textLength="7" x="808.2762" y="425.7067">1</text><text fill="#000000" font-family="sans-serif" font-size="13" lengthAdjust="spacing" textLength="7" x="1009.4284" y="541.6701">1</text></g><!--link JobOpening to Status--><g id="link_JobOpening_Status"><path codeLine="82" d="M801.68,351.0211 C834.67,316.1911 898.21,256.8411 967,233.6211 C1131.01,178.2611 1339.77,226.3911 1436.84,255.0111 " fill="none" id="JobOpening-Status" style="stroke:#181818;stroke-width:1.0;"/><polygon fill="#000000" points="1194.9438,200.5193,1185.5611,198.9653,1186.4396,204.7771,1194.9438,200.5193" style="stroke:#000000;stroke-width:1.0;"/><text fill="#000000" font-family="sans-serif" font-size="13" lengthAdjust="spacing" textLength="21" x="1199" y="206.6494">has</text><text fill="#000000" font-family="sans-serif" font-size="13" lengthAdjust="spacing" textLength="7" x="799.5779" y="340.0145">1</text><text fill="#000000" font-family="sans-serif" font-size="13" lengthAdjust="spacing" textLength="7" x="1421.9576" y="267.8049">1</text></g><!--link JobOpening to Phase--><g id="link_JobOpening_Phase"><path codeLine="83" d="M818.06,370.3611 C870.86,360.7911 963.74,343.9611 1020.92,333.6011 " fill="none" id="JobOpening-Phase" style="stroke:#181818;stroke-width:1.0;"/><polygon fill="#000000" points="908.9199,336.3751,899.4957,335.096,900.5438,340.8797,908.9199,336.3751" style="stroke:#000000;stroke-width:1.0;"/><text fill="#000000" font-family="sans-serif" font-size="13" lengthAdjust="spacing" textLength="21" x="913" y="342.6494">has</text><text fill="#000000" font-family="sans-serif" font-size="13" lengthAdjust="spacing" textLength="7" x="825.9972" y="384.6734">1</text><text fill="#000000" font-family="sans-serif" font-size="13" lengthAdjust="spacing" textLength="22" x="991.0301" y="349.9077">4..5</text></g><!--link JobOpening to JobFunction--><g id="link_JobOpening_JobFunction"><path codeLine="84" d="M818.06,388.8511 C872.98,404.2511 971.24,431.7911 1027.6,447.5911 " fill="none" id="JobOpening-JobFunction" style="stroke:#181818;stroke-width:1.0;"/><polygon fill="#000000" points="907.8144,398.6162,899.8983,393.3449,898.3118,399.0046,907.8144,398.6162" style="stroke:#000000;stroke-width:1.0;"/><text fill="#000000" font-family="sans-serif" font-size="13" lengthAdjust="spacing" textLength="23" x="912" y="402.6494">with</text><text fill="#000000" font-family="sans-serif" font-size="13" lengthAdjust="spacing" textLength="7" x="825.9972" y="406.457">1</text><text fill="#000000" font-family="sans-serif" font-size="13" lengthAdjust="spacing" textLength="7" x="1013.0456" y="461.1133">1</text></g><!--link Phase to PhaseDetails--><g id="link_Phase_PhaseDetails"><path codeLine="86" d="M1122.27,322.3911 C1161.16,320.6411 1214.69,318.2411 1251.91,316.5711 " fill="none" id="Phase-PhaseDetails" style="stroke:#181818;stroke-width:1.0;"/><polygon fill="#000000" points="1193.995,309.0424,1184.8272,306.512,1185.0908,312.384,1193.995,309.0424" style="stroke:#000000;stroke-width:1.0;"/><text fill="#000000" font-family="sans-serif" font-size="13" lengthAdjust="spacing" textLength="23" x="1198" y="314.6494">with</text><text fill="#000000" font-family="sans-serif" font-size="13" lengthAdjust="spacing" textLength="7" x="1129.9017" y="337.3436">1</text><text fill="#000000" font-family="sans-serif" font-size="13" lengthAdjust="spacing" textLength="7" x="1236.9451" y="332.3889">1</text></g><!--link PhaseDetails to Status--><g id="link_PhaseDetails_Status"><path codeLine="87" d="M1341.41,305.0911 C1369.73,298.9411 1406.77,290.9011 1436.9,284.3611 " fill="none" id="PhaseDetails-Status" style="stroke:#181818;stroke-width:1.0;"/><polygon fill="#000000" points="1380.8862,281.2059,1371.4235,280.2527,1372.6705,285.9968,1380.8862,281.2059" style="stroke:#000000;stroke-width:1.0;"/><text fill="#000000" font-family="sans-serif" font-size="13" lengthAdjust="spacing" textLength="21" x="1385" y="287.6494">has</text><text fill="#000000" font-family="sans-serif" font-size="13" lengthAdjust="spacing" textLength="7" x="1349.1253" y="319.0118">1</text><text fill="#000000" font-family="sans-serif" font-size="13" lengthAdjust="spacing" textLength="7" x="1422.0256" y="301.0988">1</text></g><!--SRC=[VLJRRfj047tVhnZvgQtaA57R5ykoX0oDgCn5W5FrALh366y3B895aLlvtpjWXukDuGLspfapitEXV1DPpWkUGix3DnwZhuu9Ge6XubcS82jRGddWaNmNMGnxdfJ8Ub2OyBBKb2h4hb9eXZBpnL-4HyQKp459s4cbP0gHg8M5p5Y2UrK3XOWFgcTd1n4XXA88ANRpdQ8woAWaAQ4eCrscN6HWoGWJ-AHRds4Es_NZLufrkG7unr9XkYsnqEAum9WhX7yCw6doxE6mN7fIAZ0o4Z-kLZsIpLCa-8Kd5OAp-qFv3N23qaYqA2gG3gCypAeKF9dSoboogHzDjqoxFQstVk1OXlTgQRRsR7WjuBY6fmMETyFi39gjcxeM68tbn4wCdHDTLoML7WkBPrISWcMIoj6KN-wlmGLGwqBCLSMJyprPLzOFxdXHFz2Rafvw2ZoBH4IUToG-u36DLkIdt3avPZI7uoeTFj5T8dcunmBfjbDT9jwFAcj6SwB9xe6NqrrstOsvrWBJwNhjhpt3i4txkRMOTc1uBwRno-ySRMtpspSxWsVusqrmwN6RWA-ugigf35o3ncCGwzNrd6UIwxJNZkLkZC3GU_BdCZGNr57Ho8yC-sdG72tF4n7okcHt6zJZZFMwjw2pfndCvyshtiWxK7yPnoXVPiqY3fINSqAkvXyM84hWiBmbjhFPKfWMfVGdwiMuLKkRhn9MZ5s38tv31zR5x76lghS0Nf_8Wtwcqr5wYq5xNY09d-FqWAb0560vndsQ3TU92XGXTNClC8BTaKACErs6TW4qNEEaRmyFtsUNxPgWdHDeztG1xq8TwfkTFNkqmHotl87rVeBiFm00]--></g></svg>