<?xml version="1.0" encoding="us-ascii" standalone="no"?><svg xmlns="http://www.w3.org/2000/svg" xmlns:xlink="http://www.w3.org/1999/xlink" contentStyleType="text/css" height="529px" preserveAspectRatio="none" style="width:2882px;height:529px;background:#FFFFFF;" version="1.1" viewBox="0 0 2882 529" width="2882px" zoomAndPan="magnify"><defs/><g><text fill="#000000" font-family="sans-serif" font-size="14" font-weight="bold" lengthAdjust="spacing" textLength="194" x="1337.25" y="24.5332">Domain Model (DM) - UC017</text><!--cluster UserAggregate--><g id="cluster_UserAggregate"><rect fill="#66CDAA" height="247" rx="2.5" ry="2.5" style="stroke:#000000;stroke-width:1.5;" width="706" x="7" y="45.6094"/><text fill="#000000" font-family="sans-serif" font-size="14" font-weight="bold" lengthAdjust="spacing" textLength="106" x="307" y="62.1426">UserAggregate</text></g><!--cluster PatientAggregate--><g id="cluster_PatientAggregate"><rect fill="#FFA07A" height="350.5" rx="2.5" ry="2.5" style="stroke:#000000;stroke-width:1.5;" width="328" x="829" y="173.1094"/><text fill="#000000" font-family="sans-serif" font-size="14" font-weight="bold" lengthAdjust="spacing" textLength="122" x="932" y="189.6426">PatientAggregate</text></g><!--cluster StaffAggregate--><g id="cluster_StaffAggregate"><rect fill="#FFC0CB" height="239.5" rx="2.5" ry="2.5" style="stroke:#000000;stroke-width:1.5;" width="672" x="1240" y="173.1094"/><text fill="#000000" font-family="sans-serif" font-size="14" font-weight="bold" lengthAdjust="spacing" textLength="105" x="1523.5" y="189.6426">StaffAggregate</text></g><!--cluster OperationRequestAggregate--><g id="cluster_OperationRequestAggregate"><rect fill="#FAFAD2" height="231" rx="2.5" ry="2.5" style="stroke:#000000;stroke-width:1.5;" width="419" x="2279" y="53.6094"/><text fill="#000000" font-family="sans-serif" font-size="14" font-weight="bold" lengthAdjust="spacing" textLength="202" x="2387.5" y="70.1426">OperationRequestAggregate</text></g><!--cluster OperationTypeAggregate--><g id="cluster_OperationTypeAggregate"><rect fill="#98FB98" height="338" rx="2.5" ry="2.5" style="stroke:#000000;stroke-width:1.5;" width="319" x="1936" y="173.1094"/><text fill="#000000" font-family="sans-serif" font-size="14" font-weight="bold" lengthAdjust="spacing" textLength="176" x="2007.5" y="189.6426">OperationTypeAggregate</text></g><!--class User--><g id="elem_User"><rect codeLine="16" fill="#F1F1F1" height="50.7031" id="User" rx="2.5" ry="2.5" style="stroke:#181818;stroke-width:0.5;" width="69" x="619.5" y="89.6094"/><text fill="#000000" font-family="sans-serif" font-size="12" font-style="italic" lengthAdjust="spacing" textLength="67" x="620.5" y="107.0664">&#171;root entity&#187;</text><text fill="#000000" font-family="sans-serif" font-size="14" lengthAdjust="spacing" textLength="29" x="639.5" y="124.2363">User</text><line style="stroke:#181818;stroke-width:0.5;" x1="620.5" x2="687.5" y1="132.3125" y2="132.3125"/></g><!--class Username--><g id="elem_Username"><rect codeLine="17" fill="#F1F1F1" height="50.7031" id="Username" rx="2.5" ry="2.5" style="stroke:#181818;stroke-width:0.5;" width="83" x="39.5" y="209.1094"/><text fill="#000000" font-family="sans-serif" font-size="12" font-style="italic" lengthAdjust="spacing" textLength="81" x="40.5" y="226.5664">&#171;value object&#187;</text><text fill="#000000" font-family="sans-serif" font-size="14" lengthAdjust="spacing" textLength="64" x="49" y="243.7363">Username</text><line style="stroke:#181818;stroke-width:0.5;" x1="40.5" x2="121.5" y1="251.8125" y2="251.8125"/></g><g id="elem_GMN5"><path d="M158,221.6094 L158,230.6094 L122.62,234.6094 L158,238.6094 L158,247.9609 A0,0 0 0 0 158,247.9609 L324,247.9609 A0,0 0 0 0 324,247.9609 L324,231.6094 L314,221.6094 L158,221.6094 A0,0 0 0 0 158,221.6094 " fill="#FEFFDD" style="stroke:#181818;stroke-width:0.5;"/><path d="M314,221.6094 L314,231.6094 L324,231.6094 L314,221.6094 " fill="#FEFFDD" style="stroke:#181818;stroke-width:0.5;"/><text fill="#000000" font-family="sans-serif" font-size="13" lengthAdjust="spacing" textLength="145" x="164" y="240.1045">same as the user's email</text></g><!--class Role--><g id="elem_Role"><rect codeLine="19" fill="#F1F1F1" height="68.3125" id="Role" rx="2.5" ry="2.5" style="stroke:#181818;stroke-width:0.5;" width="330" x="359" y="200.6094"/><text fill="#000000" font-family="sans-serif" font-size="12" font-style="italic" lengthAdjust="spacing" textLength="81" x="483.5" y="218.0664">&#171;value object&#187;</text><text fill="#000000" font-family="sans-serif" font-size="14" lengthAdjust="spacing" textLength="29" x="509.5" y="235.2363">Role</text><line style="stroke:#181818;stroke-width:0.5;" x1="360" x2="688" y1="243.3125" y2="243.3125"/><text fill="#000000" font-family="sans-serif" font-size="14" lengthAdjust="spacing" textLength="318" x="365" y="261.8457">ADMIN, DOCTOR, NURSE, TECHNICIAN, PATIENT</text></g><!--class Patient--><g id="elem_Patient"><rect codeLine="26" fill="#F1F1F1" height="50.7031" id="Patient" rx="2.5" ry="2.5" style="stroke:#181818;stroke-width:0.5;" width="69" x="866.5" y="209.1094"/><text fill="#000000" font-family="sans-serif" font-size="12" font-style="italic" lengthAdjust="spacing" textLength="67" x="867.5" y="226.5664">&#171;root entity&#187;</text><text fill="#000000" font-family="sans-serif" font-size="14" lengthAdjust="spacing" textLength="44" x="879" y="243.7363">Patient</text><line style="stroke:#181818;stroke-width:0.5;" x1="867.5" x2="934.5" y1="251.8125" y2="251.8125"/></g><!--class MedicalRecordNumber--><g id="elem_MedicalRecordNumber"><rect codeLine="27" fill="#F1F1F1" height="50.7031" id="MedicalRecordNumber" rx="2.5" ry="2.5" style="stroke:#181818;stroke-width:0.5;" width="149" x="845.5" y="456.6094"/><text fill="#000000" font-family="sans-serif" font-size="12" font-style="italic" lengthAdjust="spacing" textLength="81" x="879.5" y="474.0664">&#171;value object&#187;</text><text fill="#000000" font-family="sans-serif" font-size="14" lengthAdjust="spacing" textLength="143" x="848.5" y="491.2363">MedicalRecordNumber</text><line style="stroke:#181818;stroke-width:0.5;" x1="846.5" x2="993.5" y1="499.3125" y2="499.3125"/></g><g id="elem_GMN15"><path d="M1029.5,469.1094 L1029.5,478.6094 L994.78,482.6094 L1029.5,486.6094 L1029.5,495.4609 A0,0 0 0 0 1029.5,495.4609 L1140.5,495.4609 A0,0 0 0 0 1140.5,495.4609 L1140.5,479.1094 L1130.5,469.1094 L1029.5,469.1094 A0,0 0 0 0 1029.5,469.1094 " fill="#FEFFDD" style="stroke:#181818;stroke-width:0.5;"/><path d="M1130.5,469.1094 L1130.5,479.1094 L1140.5,479.1094 L1130.5,469.1094 " fill="#FEFFDD" style="stroke:#181818;stroke-width:0.5;"/><text fill="#000000" font-family="sans-serif" font-size="13" lengthAdjust="spacing" textLength="90" x="1035.5" y="487.6045">unique identifier</text></g><!--class Staff--><g id="elem_Staff"><rect codeLine="32" fill="#F1F1F1" height="50.7031" id="Staff" rx="2.5" ry="2.5" style="stroke:#181818;stroke-width:0.5;" width="69" x="1420.5" y="209.1094"/><text fill="#000000" font-family="sans-serif" font-size="12" font-style="italic" lengthAdjust="spacing" textLength="67" x="1421.5" y="226.5664">&#171;root entity&#187;</text><text fill="#000000" font-family="sans-serif" font-size="14" lengthAdjust="spacing" textLength="29" x="1440.5" y="243.7363">Staff</text><line style="stroke:#181818;stroke-width:0.5;" x1="1421.5" x2="1488.5" y1="251.8125" y2="251.8125"/></g><!--class LicenseNumber--><g id="elem_LicenseNumber"><rect codeLine="33" fill="#F1F1F1" height="50.7031" id="LicenseNumber" rx="2.5" ry="2.5" style="stroke:#181818;stroke-width:0.5;" width="104" x="1403" y="337.1094"/><text fill="#000000" font-family="sans-serif" font-size="12" font-style="italic" lengthAdjust="spacing" textLength="81" x="1414.5" y="354.5664">&#171;value object&#187;</text><text fill="#000000" font-family="sans-serif" font-size="14" lengthAdjust="spacing" textLength="98" x="1406" y="371.7363">LicenseNumber</text><line style="stroke:#181818;stroke-width:0.5;" x1="1404" x2="1506" y1="379.8125" y2="379.8125"/></g><g id="elem_GMN21"><path d="M1256.5,349.6094 L1256.5,375.9609 A0,0 0 0 0 1256.5,375.9609 L1367.5,375.9609 A0,0 0 0 0 1367.5,375.9609 L1367.5,367.6094 L1402.96,362.6094 L1367.5,359.6094 L1367.5,359.6094 L1357.5,349.6094 L1256.5,349.6094 A0,0 0 0 0 1256.5,349.6094 " fill="#FEFFDD" style="stroke:#181818;stroke-width:0.5;"/><path d="M1357.5,349.6094 L1357.5,359.6094 L1367.5,359.6094 L1357.5,349.6094 " fill="#FEFFDD" style="stroke:#181818;stroke-width:0.5;"/><text fill="#000000" font-family="sans-serif" font-size="13" lengthAdjust="spacing" textLength="90" x="1262.5" y="368.1045">unique identifier</text></g><!--class Specialization--><g id="elem_Specialization"><rect codeLine="35" fill="#F1F1F1" height="68.3125" id="Specialization" rx="2.5" ry="2.5" style="stroke:#181818;stroke-width:0.5;" width="354" x="1542" y="328.6094"/><text fill="#000000" font-family="sans-serif" font-size="12" font-style="italic" lengthAdjust="spacing" textLength="81" x="1678.5" y="346.0664">&#171;value object&#187;</text><text fill="#000000" font-family="sans-serif" font-size="14" lengthAdjust="spacing" textLength="86" x="1676" y="363.2363">Specialization</text><line style="stroke:#181818;stroke-width:0.5;" x1="1543" x2="1895" y1="371.3125" y2="371.3125"/><text fill="#000000" font-family="sans-serif" font-size="14" lengthAdjust="spacing" textLength="342" x="1548" y="389.8457">ANAESTHESIOLOGY, CARDIOLOGY, ORTHOPEDICS</text></g><!--class OperationRequest--><g id="elem_OperationRequest"><rect codeLine="41" fill="#F1F1F1" height="50.7031" id="OperationRequest" rx="2.5" ry="2.5" style="stroke:#181818;stroke-width:0.5;" width="122" x="2295" y="89.6094"/><text fill="#000000" font-family="sans-serif" font-size="12" font-style="italic" lengthAdjust="spacing" textLength="67" x="2322.5" y="107.0664">&#171;root entity&#187;</text><text fill="#000000" font-family="sans-serif" font-size="14" lengthAdjust="spacing" textLength="116" x="2298" y="124.2363">OperationRequest</text><line style="stroke:#181818;stroke-width:0.5;" x1="2296" x2="2416" y1="132.3125" y2="132.3125"/></g><!--class RequestID--><g id="elem_RequestID"><rect codeLine="42" fill="#F1F1F1" height="50.7031" id="RequestID" rx="2.5" ry="2.5" style="stroke:#181818;stroke-width:0.5;" width="83" x="2452.5" y="89.6094"/><text fill="#000000" font-family="sans-serif" font-size="12" font-style="italic" lengthAdjust="spacing" textLength="81" x="2453.5" y="107.0664">&#171;value object&#187;</text><text fill="#000000" font-family="sans-serif" font-size="14" lengthAdjust="spacing" textLength="66" x="2461" y="124.2363">RequestID</text><line style="stroke:#181818;stroke-width:0.5;" x1="2453.5" x2="2534.5" y1="132.3125" y2="132.3125"/></g><g id="elem_GMN28"><path d="M2570.5,102.1094 L2570.5,111.6094 L2535.77,115.6094 L2570.5,119.6094 L2570.5,128.4609 A0,0 0 0 0 2570.5,128.4609 L2681.5,128.4609 A0,0 0 0 0 2681.5,128.4609 L2681.5,112.1094 L2671.5,102.1094 L2570.5,102.1094 A0,0 0 0 0 2570.5,102.1094 " fill="#FEFFDD" style="stroke:#181818;stroke-width:0.5;"/><path d="M2671.5,102.1094 L2671.5,112.1094 L2681.5,112.1094 L2671.5,102.1094 " fill="#FEFFDD" style="stroke:#181818;stroke-width:0.5;"/><text fill="#000000" font-family="sans-serif" font-size="13" lengthAdjust="spacing" textLength="90" x="2576.5" y="120.6045">unique identifier</text></g><!--class DeadlineDate--><g id="elem_DeadlineDate"><rect codeLine="44" fill="#F1F1F1" height="50.7031" id="DeadlineDate" rx="2.5" ry="2.5" style="stroke:#181818;stroke-width:0.5;" width="92" x="2302" y="209.1094"/><text fill="#000000" font-family="sans-serif" font-size="12" font-style="italic" lengthAdjust="spacing" textLength="81" x="2307.5" y="226.5664">&#171;value object&#187;</text><text fill="#000000" font-family="sans-serif" font-size="14" lengthAdjust="spacing" textLength="86" x="2305" y="243.7363">DeadlineDate</text><line style="stroke:#181818;stroke-width:0.5;" x1="2303" x2="2393" y1="251.8125" y2="251.8125"/></g><!--class OperationPriority--><g id="elem_OperationPriority"><rect codeLine="45" fill="#F1F1F1" height="68.3125" id="OperationPriority" rx="2.5" ry="2.5" style="stroke:#181818;stroke-width:0.5;" width="238" x="2429" y="200.6094"/><text fill="#000000" font-family="sans-serif" font-size="12" font-style="italic" lengthAdjust="spacing" textLength="81" x="2507.5" y="218.0664">&#171;value object&#187;</text><text fill="#000000" font-family="sans-serif" font-size="14" lengthAdjust="spacing" textLength="107" x="2494.5" y="235.2363">OperationPriority</text><line style="stroke:#181818;stroke-width:0.5;" x1="2430" x2="2666" y1="243.3125" y2="243.3125"/><text fill="#000000" font-family="sans-serif" font-size="14" lengthAdjust="spacing" textLength="226" x="2435" y="261.8457">ELECTIVE, URGENT, EMERGENCY</text></g><!--class OperationType--><g id="elem_OperationType"><rect codeLine="51" fill="#F1F1F1" height="50.7031" id="OperationType" rx="2.5" ry="2.5" style="stroke:#181818;stroke-width:0.5;" width="101" x="2038.5" y="209.1094"/><text fill="#000000" font-family="sans-serif" font-size="12" font-style="italic" lengthAdjust="spacing" textLength="67" x="2055.5" y="226.5664">&#171;root entity&#187;</text><text fill="#000000" font-family="sans-serif" font-size="14" lengthAdjust="spacing" textLength="95" x="2041.5" y="243.7363">OperationType</text><line style="stroke:#181818;stroke-width:0.5;" x1="2039.5" x2="2138.5" y1="251.8125" y2="251.8125"/></g><!--class OperationTypeID--><g id="elem_OperationTypeID"><rect codeLine="52" fill="#F1F1F1" height="50.7031" id="OperationTypeID" rx="2.5" ry="2.5" style="stroke:#181818;stroke-width:0.5;" width="114" x="1952" y="337.1094"/><text fill="#000000" font-family="sans-serif" font-size="12" font-style="italic" lengthAdjust="spacing" textLength="81" x="1968.5" y="354.5664">&#171;value object&#187;</text><text fill="#000000" font-family="sans-serif" font-size="14" lengthAdjust="spacing" textLength="108" x="1955" y="371.7363">OperationTypeID</text><line style="stroke:#181818;stroke-width:0.5;" x1="1953" x2="2065" y1="379.8125" y2="379.8125"/></g><g id="elem_GMN36"><path d="M1953.5,469.1094 L1953.5,495.4609 A0,0 0 0 0 1953.5,495.4609 L2064.5,495.4609 A0,0 0 0 0 2064.5,495.4609 L2064.5,479.1094 L2054.5,469.1094 L2013,469.1094 L2009,388.2494 L2005,469.1094 L1953.5,469.1094 A0,0 0 0 0 1953.5,469.1094 " fill="#FEFFDD" style="stroke:#181818;stroke-width:0.5;"/><path d="M2054.5,469.1094 L2054.5,479.1094 L2064.5,479.1094 L2054.5,469.1094 " fill="#FEFFDD" style="stroke:#181818;stroke-width:0.5;"/><text fill="#000000" font-family="sans-serif" font-size="13" lengthAdjust="spacing" textLength="90" x="1959.5" y="487.6045">unique identifier</text></g><!--class OperationTypeName--><g id="elem_OperationTypeName"><rect codeLine="54" fill="#F1F1F1" height="50.7031" id="OperationTypeName" rx="2.5" ry="2.5" style="stroke:#181818;stroke-width:0.5;" width="137" x="2101.5" y="337.1094"/><text fill="#000000" font-family="sans-serif" font-size="12" font-style="italic" lengthAdjust="spacing" textLength="81" x="2129.5" y="354.5664">&#171;value object&#187;</text><text fill="#000000" font-family="sans-serif" font-size="14" lengthAdjust="spacing" textLength="131" x="2104.5" y="371.7363">OperationTypeName</text><line style="stroke:#181818;stroke-width:0.5;" x1="2102.5" x2="2237.5" y1="379.8125" y2="379.8125"/></g><g id="elem_GMN9"><path d="M2716.5,93.6094 L2716.5,136.3125 L2875.5,136.3125 L2875.5,103.6094 L2865.5,93.6094 L2716.5,93.6094 " fill="#FEFFDD" style="stroke:#181818;stroke-width:0.5;"/><path d="M2865.5,93.6094 L2865.5,103.6094 L2875.5,103.6094 L2865.5,93.6094 " fill="#FEFFDD" style="stroke:#181818;stroke-width:1.0;"/><text fill="#000000" font-family="sans-serif" font-size="13" lengthAdjust="spacing" textLength="133" x="2722.5" y="112.1045">managed using an IAM</text><text fill="#000000" font-family="sans-serif" font-size="13" lengthAdjust="spacing" textLength="138" x="2722.5" y="128.4561">(external to the system)</text></g><!--class DateTime--><g id="elem_DateTime"><rect codeLine="57" fill="#F1F1F1" height="50.7031" id="DateTime" rx="2.5" ry="2.5" style="stroke:#181818;stroke-width:0.5;" width="83" x="2306.5" y="337.1094"/><text fill="#000000" font-family="sans-serif" font-size="12" font-style="italic" lengthAdjust="spacing" textLength="81" x="2307.5" y="354.5664">&#171;value object&#187;</text><text fill="#000000" font-family="sans-serif" font-size="14" lengthAdjust="spacing" textLength="61" x="2317.5" y="371.7363">DateTime</text><line style="stroke:#181818;stroke-width:0.5;" x1="2307.5" x2="2388.5" y1="379.8125" y2="379.8125"/></g><!--class Date--><g id="elem_Date"><rect codeLine="58" fill="#F1F1F1" height="50.7031" id="Date" rx="2.5" ry="2.5" style="stroke:#181818;stroke-width:0.5;" width="83" x="2285.5" y="456.6094"/><text fill="#000000" font-family="sans-serif" font-size="12" font-style="italic" lengthAdjust="spacing" textLength="81" x="2286.5" y="474.0664">&#171;value object&#187;</text><text fill="#000000" font-family="sans-serif" font-size="14" lengthAdjust="spacing" textLength="30" x="2312" y="491.2363">Date</text><line style="stroke:#181818;stroke-width:0.5;" x1="2286.5" x2="2367.5" y1="499.3125" y2="499.3125"/></g><!--class Time--><g id="elem_Time"><rect codeLine="59" fill="#F1F1F1" height="50.7031" id="Time" rx="2.5" ry="2.5" style="stroke:#181818;stroke-width:0.5;" width="83" x="2403.5" y="456.6094"/><text fill="#000000" font-family="sans-serif" font-size="12" font-style="italic" lengthAdjust="spacing" textLength="81" x="2404.5" y="474.0664">&#171;value object&#187;</text><text fill="#000000" font-family="sans-serif" font-size="14" lengthAdjust="spacing" textLength="31" x="2429.5" y="491.2363">Time</text><line style="stroke:#181818;stroke-width:0.5;" x1="2404.5" x2="2485.5" y1="499.3125" y2="499.3125"/></g><!--class UserStatus--><g id="elem_UserStatus"><rect fill="#F1F1F1" height="35.6094" id="UserStatus" rx="2.5" ry="2.5" style="stroke:#181818;stroke-width:0.5;" width="75" x="737.5" y="216.6094"/><text fill="#000000" font-family="sans-serif" font-size="14" lengthAdjust="spacing" textLength="69" x="740.5" y="236.1426">UserStatus</text><line style="stroke:#181818;stroke-width:0.5;" x1="738.5" x2="811.5" y1="244.2188" y2="244.2188"/></g><!--class StaffID--><g id="elem_StaffID"><rect fill="#F1F1F1" height="35.6094" id="StaffID" rx="2.5" ry="2.5" style="stroke:#181818;stroke-width:0.5;" width="48" x="1173" y="344.6094"/><text fill="#000000" font-family="sans-serif" font-size="14" lengthAdjust="spacing" textLength="42" x="1176" y="364.1426">StaffID</text><line style="stroke:#181818;stroke-width:0.5;" x1="1174" x2="1220" y1="372.2188" y2="372.2188"/></g><!--link GMN9 to UserAggregate--><g id="link_GMN9_UserAggregate"><path d="M2796,93.3594 C2796,82.4894 2796,71.6094 2796,71.6094 C2796,71.6094 2100.75,71.6094 1405.5,71.6094 C1231.6875,71.6094 1057.875,71.6094 894.9258,71.6094 C854.1885,71.6094 814.1301,71.6094 774.9205,71.6094 C755.3156,71.6094 735.923,71.6094 716.7637,71.6094 " fill="none" id="GMN9-UserAggregate" style="stroke:#181818;stroke-width:1.0;stroke-dasharray:7.0,7.0;"/></g><!--link User to Username--><g id="link_User_Username"><path codeLine="61" d="M619.45,128.6094 C495.56,128.6094 81,128.6094 81,128.6094 C81,128.6094 81,177.5794 81,208.9494 " fill="none" id="User-Username" style="stroke:#181818;stroke-width:1.0;"/><polygon fill="#000000" points="226.1047,120.523,235.4845,122.095,234.6171,116.2815,226.1047,120.523" style="stroke:#000000;stroke-width:1.0;"/><text fill="#000000" font-family="sans-serif" font-size="13" lengthAdjust="spacing" textLength="69" x="240.05" y="125.1045">identified by</text><text fill="#000000" font-family="sans-serif" font-size="13" lengthAdjust="spacing" textLength="7" x="604.6022" y="127.3057">1</text><text fill="#000000" font-family="sans-serif" font-size="13" lengthAdjust="spacing" textLength="7" x="73.1469" y="198.3189">1</text></g><!--link User to Role--><g id="link_User_Role"><path codeLine="62" d="M654,140.7494 C654,158.1694 654,181.3994 654,200.3994 " fill="none" id="User-Role" style="stroke:#181818;stroke-width:1.0;"/><polygon fill="#000000" points="659,166.7452,661.9389,157.7001,656.0611,157.7001,659,166.7452" style="stroke:#000000;stroke-width:1.0;"/><text fill="#000000" font-family="sans-serif" font-size="13" lengthAdjust="spacing" textLength="77" x="668" y="167.0645">has assigned</text><text fill="#000000" font-family="sans-serif" font-size="13" lengthAdjust="spacing" textLength="5" x="648.4531" y="161.6742">*</text><text fill="#000000" font-family="sans-serif" font-size="13" lengthAdjust="spacing" textLength="7" x="671.1141" y="189.8519">1</text></g><!--link User to UserStatus--><g id="link_User_UserStatus"><path codeLine="63" d="M688.67,130.6094 C724.43,130.6094 775,130.6094 775,130.6094 C775,130.6094 775,186.6994 775,216.4894 " fill="none" id="User-UserStatus" style="stroke:#181818;stroke-width:1.0;"/><polygon fill="#000000" points="747.3248,125.3114,742.9849,116.8488,738.8395,121.0159,747.3248,125.3114" style="stroke:#000000;stroke-width:1.0;"/><text fill="#000000" font-family="sans-serif" font-size="13" lengthAdjust="spacing" textLength="21" x="752.78" y="127.1045">has</text><text fill="#000000" font-family="sans-serif" font-size="13" lengthAdjust="spacing" textLength="5" x="696.3363" y="129.7182">*</text><text fill="#000000" font-family="sans-serif" font-size="13" lengthAdjust="spacing" textLength="7" x="766.8844" y="205.777">1</text></g><!--reverse link User to Staff--><g id="link_User_Staff"><path codeLine="65" d="M694.69,110.6094 C847.06,110.6094 1443.5,110.6094 1443.5,110.6094 C1443.5,110.6094 1443.5,172.5994 1443.5,208.9194 " fill="none" id="User-backto-Staff" style="stroke:#181818;stroke-width:1.0;"/><polygon fill="#181818" points="688.69,110.6094,697.69,114.6094,693.69,110.6094,697.69,106.6094,688.69,110.6094" style="stroke:#181818;stroke-width:1.0;"/><polygon fill="#000000" points="1040.2925,101.1343,1048.8781,105.2256,1049.6432,99.3978,1040.2925,101.1343" style="stroke:#000000;stroke-width:1.0;"/><text fill="#000000" font-family="sans-serif" font-size="13" lengthAdjust="spacing" textLength="60" x="1054.25" y="107.1045">references</text><text fill="#000000" font-family="sans-serif" font-size="13" lengthAdjust="spacing" textLength="22" x="696.543" y="106.0118">0..1</text><text fill="#000000" font-family="sans-serif" font-size="13" lengthAdjust="spacing" textLength="22" x="1416.0156" y="198.2816">0..1</text></g><!--reverse link User to Patient--><g id="link_User_Patient"><path codeLine="66" d="M694.6,120.6094 C762.58,120.6094 901,120.6094 901,120.6094 C901,120.6094 901,175.4194 901,209.0294 " fill="none" id="User-backto-Patient" style="stroke:#181818;stroke-width:1.0;"/><polygon fill="#181818" points="688.6,120.6094,697.6,124.6094,693.6,120.6094,697.6,116.6094,688.6,120.6094" style="stroke:#181818;stroke-width:1.0;"/><polygon fill="#000000" points="839.414,109.8163,846.571,116.0795,848.8856,110.6766,839.414,109.8163" style="stroke:#000000;stroke-width:1.0;"/><text fill="#000000" font-family="sans-serif" font-size="13" lengthAdjust="spacing" textLength="60" x="853.01" y="117.1045">references</text><text fill="#000000" font-family="sans-serif" font-size="13" lengthAdjust="spacing" textLength="22" x="696.4375" y="117.7305">0..1</text><text fill="#000000" font-family="sans-serif" font-size="13" lengthAdjust="spacing" textLength="7" x="893.1469" y="198.4184">1</text></g><!--link Patient to MedicalRecordNumber--><g id="link_Patient_MedicalRecordNumber"><path codeLine="68" d="M901,260.1594 C901,307.5894 901,408.7194 901,456.3194 " fill="none" id="Patient-MedicalRecordNumber" style="stroke:#181818;stroke-width:1.0;"/><polygon fill="#000000" points="822,354.4152,824.9389,345.3701,819.0611,345.3701,822,354.4152" style="stroke:#000000;stroke-width:1.0;"/><text fill="#000000" font-family="sans-serif" font-size="13" lengthAdjust="spacing" textLength="69" x="831" y="354.7345">identified by</text><text fill="#000000" font-family="sans-serif" font-size="13" lengthAdjust="spacing" textLength="7" x="893.1906" y="281.4879">1</text><text fill="#000000" font-family="sans-serif" font-size="13" lengthAdjust="spacing" textLength="7" x="888.5156" y="445.6572">1</text></g><!--link Staff to StaffID--><g id="link_Staff_StaffID"><path codeLine="70" d="M1420.47,234.6094 C1350.17,234.6094 1197,234.6094 1197,234.6094 C1197,234.6094 1197,309.2594 1197,344.5394 " fill="none" id="Staff-StaffID" style="stroke:#181818;stroke-width:1.0;"/><polygon fill="#000000" points="1170.2835,227.9922,1179.6969,226.6368,1177.1024,221.3625,1170.2835,227.9922" style="stroke:#000000;stroke-width:1.0;"/><text fill="#000000" font-family="sans-serif" font-size="13" lengthAdjust="spacing" textLength="69" x="1183.77" y="231.1045">identified by</text><text fill="#000000" font-family="sans-serif" font-size="13" lengthAdjust="spacing" textLength="7" x="1405.6263" y="230.5214">1</text><text fill="#000000" font-family="sans-serif" font-size="13" lengthAdjust="spacing" textLength="7" x="1188.8844" y="333.843">1</text></g><!--link Staff to LicenseNumber--><g id="link_Staff_LicenseNumber"><path codeLine="71" d="M1443.5,260.2094 C1443.5,282.5294 1443.5,314.7494 1443.5,337.0594 " fill="none" id="Staff-LicenseNumber" style="stroke:#181818;stroke-width:1.0;"/><polygon fill="#000000" points="1412.5,294.8052,1415.4389,285.7601,1409.5611,285.7601,1412.5,294.8052" style="stroke:#000000;stroke-width:1.0;"/><text fill="#000000" font-family="sans-serif" font-size="13" lengthAdjust="spacing" textLength="21" x="1421.5" y="295.1245">has</text><text fill="#000000" font-family="sans-serif" font-size="13" lengthAdjust="spacing" textLength="7" x="1433.2188" y="281.1254">1</text><text fill="#000000" font-family="sans-serif" font-size="13" lengthAdjust="spacing" textLength="7" x="1432.8438" y="326.4557">1</text></g><!--link Staff to Specialization--><g id="link_Staff_Specialization"><path codeLine="72" d="M1466.5,260.3594 C1466.5,289.6994 1466.5,333.6094 1466.5,333.6094 C1466.5,333.6094 1499.64,333.6094 1541.92,333.6094 " fill="none" id="Staff-Specialization" style="stroke:#181818;stroke-width:1.0;"/><polygon fill="#000000" points="1476.1668,328.2687,1471.7258,319.8587,1467.6307,324.0751,1476.1668,328.2687" style="stroke:#000000;stroke-width:1.0;"/><text fill="#000000" font-family="sans-serif" font-size="13" lengthAdjust="spacing" textLength="21" x="1481.58" y="330.1045">has</text><text fill="#000000" font-family="sans-serif" font-size="13" lengthAdjust="spacing" textLength="5" x="1463.4688" y="281.3082">*</text><text fill="#000000" font-family="sans-serif" font-size="13" lengthAdjust="spacing" textLength="7" x="1526.7375" y="329.4288">1</text></g><!--link OperationRequest to Staff--><g id="link_OperationRequest_Staff"><path codeLine="74" d="M2294.86,100.6094 C2093.9,100.6094 1466.5,100.6094 1466.5,100.6094 C1466.5,100.6094 1466.5,170.2094 1466.5,209.0894 " fill="none" id="OperationRequest-Staff" style="stroke:#181818;stroke-width:1.0;"/><polygon fill="#000000" points="1736.4823,92.4344,1745.8325,94.174,1745.0692,88.3459,1736.4823,92.4344" style="stroke:#000000;stroke-width:1.0;"/><text fill="#000000" font-family="sans-serif" font-size="13" lengthAdjust="spacing" textLength="75" x="1750.44" y="97.1045">requested by</text><text fill="#000000" font-family="sans-serif" font-size="13" lengthAdjust="spacing" textLength="5" x="2282.1039" y="95.4018">*</text><text fill="#000000" font-family="sans-serif" font-size="13" lengthAdjust="spacing" textLength="7" x="1461.55" y="198.0781">1</text></g><!--link OperationRequest to OperationType--><g id="link_OperationRequest_OperationType"><path codeLine="75" d="M2298.5,140.7494 C2298.5,175.8594 2298.5,234.6094 2298.5,234.6094 C2298.5,234.6094 2201.72,234.6094 2139.71,234.6094 " fill="none" id="OperationRequest-OperationType" style="stroke:#181818;stroke-width:1.0;"/><polygon fill="#000000" points="2230.7357,228.3294,2240.0177,226.2568,2237.0268,221.1968,2230.7357,228.3294" style="stroke:#000000;stroke-width:1.0;"/><text fill="#000000" font-family="sans-serif" font-size="13" lengthAdjust="spacing" textLength="21" x="2244.04" y="231.1045">has</text><text fill="#000000" font-family="sans-serif" font-size="13" lengthAdjust="spacing" textLength="5" x="2282.0625" y="160.7189">*</text><text fill="#000000" font-family="sans-serif" font-size="13" lengthAdjust="spacing" textLength="7" x="2147.3333" y="231.0251">1</text></g><!--link OperationRequest to DeadlineDate--><g id="link_OperationRequest_DeadlineDate"><path codeLine="76" d="M2348,140.7494 C2348,160.9094 2348,188.8694 2348,209.0194 " fill="none" id="OperationRequest-DeadlineDate" style="stroke:#181818;stroke-width:1.0;"/><polygon fill="#000000" points="2317,171.0552,2319.9389,162.0101,2314.0611,162.0101,2317,171.0552" style="stroke:#000000;stroke-width:1.0;"/><text fill="#000000" font-family="sans-serif" font-size="13" lengthAdjust="spacing" textLength="21" x="2326" y="171.3745">has</text><text fill="#000000" font-family="sans-serif" font-size="13" lengthAdjust="spacing" textLength="5" x="2340.7031" y="161.6742">*</text><text fill="#000000" font-family="sans-serif" font-size="13" lengthAdjust="spacing" textLength="7" x="2340.1469" y="198.406">1</text></g><!--link OperationRequest to OperationPriority--><g id="link_OperationRequest_OperationPriority"><path codeLine="77" d="M2408,140.7994 C2408,167.5594 2408,205.6094 2408,205.6094 C2408,205.6094 2416.34,205.6094 2428.96,205.6094 " fill="none" id="OperationRequest-OperationPriority" style="stroke:#181818;stroke-width:1.0;"/><polygon fill="#000000" points="2378.5386,179.6225,2378.5516,170.112,2372.9589,171.9207,2378.5386,179.6225" style="stroke:#000000;stroke-width:1.0;"/><text fill="#000000" font-family="sans-serif" font-size="13" lengthAdjust="spacing" textLength="21" x="2386" y="180.1845">has</text><text fill="#000000" font-family="sans-serif" font-size="13" lengthAdjust="spacing" textLength="5" x="2413.8281" y="161.7351">*</text><text fill="#000000" font-family="sans-serif" font-size="13" lengthAdjust="spacing" textLength="7" x="2414.1098" y="200.7354">1</text></g><!--link DeadlineDate to DateTime--><g id="link_DeadlineDate_DateTime"><path codeLine="79" d="M2348,260.2094 C2348,282.5294 2348,314.7494 2348,337.0594 " fill="none" id="DeadlineDate-DateTime" style="stroke:#181818;stroke-width:1.0;"/><polygon fill="#000000" points="2317,294.8052,2319.9389,285.7601,2314.0611,285.7601,2317,294.8052" style="stroke:#000000;stroke-width:1.0;"/><text fill="#000000" font-family="sans-serif" font-size="13" lengthAdjust="spacing" textLength="21" x="2326" y="295.1245">has</text><text fill="#000000" font-family="sans-serif" font-size="13" lengthAdjust="spacing" textLength="7" x="2340.2344" y="281.1254">1</text><text fill="#000000" font-family="sans-serif" font-size="13" lengthAdjust="spacing" textLength="7" x="2340.1469" y="326.4557">1</text></g><!--link DateTime to Date--><g id="link_DateTime_Date"><path codeLine="80" d="M2337.5,388.2494 C2337.5,408.4094 2337.5,436.3694 2337.5,456.5194 " fill="none" id="DateTime-Date" style="stroke:#181818;stroke-width:1.0;"/><polygon fill="#000000" points="2306.5,418.5552,2309.4389,409.5101,2303.5611,409.5101,2306.5,418.5552" style="stroke:#000000;stroke-width:1.0;"/><text fill="#000000" font-family="sans-serif" font-size="13" lengthAdjust="spacing" textLength="21" x="2315.5" y="418.8745">has</text><text fill="#000000" font-family="sans-serif" font-size="13" lengthAdjust="spacing" textLength="7" x="2327.4375" y="409.1742">1</text><text fill="#000000" font-family="sans-serif" font-size="13" lengthAdjust="spacing" textLength="7" x="2332.2063" y="445.906">1</text></g><!--link DateTime to Time--><g id="link_DateTime_Time"><path codeLine="81" d="M2389.58,362.6094 C2402.06,362.6094 2412.5,362.6094 2412.5,362.6094 C2412.5,362.6094 2412.5,421.3594 2412.5,456.4694 " fill="none" id="DateTime-Time" style="stroke:#181818;stroke-width:1.0;"/><polygon fill="#000000" points="2382.6861,412.1124,2383.3954,402.6284,2377.6854,404.0227,2382.6861,412.1124" style="stroke:#000000;stroke-width:1.0;"/><text fill="#000000" font-family="sans-serif" font-size="13" lengthAdjust="spacing" textLength="21" x="2390.5" y="412.5745">has</text><text fill="#000000" font-family="sans-serif" font-size="13" lengthAdjust="spacing" textLength="7" x="2397.6099" y="358.7372">1</text><text fill="#000000" font-family="sans-serif" font-size="13" lengthAdjust="spacing" textLength="7" x="2396.725" y="445.8438">1</text></g><!--link OperationType to OperationTypeID--><g id="link_OperationType_OperationTypeID"><path codeLine="83" d="M2056.83,260.2094 C2056.83,282.5294 2056.83,314.7494 2056.83,337.0594 " fill="none" id="OperationType-OperationTypeID" style="stroke:#181818;stroke-width:1.0;"/><polygon fill="#000000" points="1977.83,294.8052,1980.7689,285.7601,1974.8911,285.7601,1977.83,294.8052" style="stroke:#000000;stroke-width:1.0;"/><text fill="#000000" font-family="sans-serif" font-size="13" lengthAdjust="spacing" textLength="69" x="1986.83" y="295.1245">identified by</text><text fill="#000000" font-family="sans-serif" font-size="13" lengthAdjust="spacing" textLength="7" x="2042.0272" y="281.1254">1</text><text fill="#000000" font-family="sans-serif" font-size="13" lengthAdjust="spacing" textLength="7" x="2060.6354" y="326.4557">1</text></g><!--link OperationType to OperationTypeName--><g id="link_OperationType_OperationTypeName"><path codeLine="84" d="M2120.5,260.2094 C2120.5,282.5294 2120.5,314.7494 2120.5,337.0594 " fill="none" id="OperationType-OperationTypeName" style="stroke:#181818;stroke-width:1.0;"/><polygon fill="#000000" points="2089.5,294.8052,2092.4389,285.7601,2086.5611,285.7601,2089.5,294.8052" style="stroke:#000000;stroke-width:1.0;"/><text fill="#000000" font-family="sans-serif" font-size="13" lengthAdjust="spacing" textLength="21" x="2098.5" y="295.1245">has</text><text fill="#000000" font-family="sans-serif" font-size="13" lengthAdjust="spacing" textLength="7" x="2119.625" y="281.1254">1</text><text fill="#000000" font-family="sans-serif" font-size="13" lengthAdjust="spacing" textLength="7" x="2100.5813" y="326.4557">1</text></g><!--link OperationType to Specialization--><g id="link_OperationType_Specialization"><path codeLine="85" d="M2047.67,260.3594 C2047.67,289.6994 2047.67,333.6094 2047.67,333.6094 C2047.67,333.6094 1973.94,333.6094 1896.32,333.6094 " fill="none" id="OperationType-Specialization" style="stroke:#181818;stroke-width:1.0;"/><polygon fill="#000000" points="1973.1194,326.9633,1982.5414,325.6684,1979.9808,320.3776,1973.1194,326.9633" style="stroke:#000000;stroke-width:1.0;"/><text fill="#000000" font-family="sans-serif" font-size="13" lengthAdjust="spacing" textLength="21" x="1986.62" y="330.1045">has</text><text fill="#000000" font-family="sans-serif" font-size="13" lengthAdjust="spacing" textLength="5" x="2033.0822" y="281.3082">*</text><text fill="#000000" font-family="sans-serif" font-size="13" lengthAdjust="spacing" textLength="7" x="1903.9483" y="329.5444">1</text></g><!--SRC=[ZLNBRjim4BphAnRjeGyuGNegO0G114j81CGFo4g10BtGqjfcGv4kIRTrY_nxbtf5icGd9qdSMUxCBBaoJrpkc6Ovx5Zwn3Quj0U1e36rJ6u4UgO1c2tBr6ykDx1cmhGZgM36-DPgljfRZ58bb_mlmbKB8hX4UzWXA6stolC4hYrO1PfljXOoxWfo9JshTcvvfQnLUMlTs_8C8KTApapvaNAT4a7FSakC0vKpBc6gCXJmCPX-WWjuc5nz-UfvbJ9uCAZzpKRZXbc4zrFC-3xtV-xPb6cY1_yyAAKKIBY-rafPG4a53ZStdQ1aEHBW5nDxahJwGImBX5IqSwb9hHla68p3CmDsYx2drGy6aFYAPjDOYVw61IC0FvX6in44yqaoZqSmUuYNuGYIS78tYoQHJw65dqJXB27qi_Vi5IGAWoiEZUWnv4oI5HcHS8ra4Y9_-br-n3_MKHNEUyVH78p5_DEBTmjcEJdHik_UgLmoaIlPSgx2dJJFcPuo4MEgT3RRvwl2w5Ty74WQmrxodvH49u5gh3bgKjxGNLgsNhV8BhXyQh4imYSvtlCKfS5NsDK6Tz13j9gYEqmv4_mlSoVwPBDdVhXCxi9bDB-VtpwEOEB7GVq-ZvEx-I8CeicowdMZUBv3NMmS8zKtlKxTAa6KOfKzeX3gTykCuyoJlbJnA7YzOmtqd241iipDXS2n7DZoYDv2SwM9qIddmljmaaJVw6eynBTq6qOGJaFtDdayQLP28wbzJ9Z0MuqeX-nns9FUT51d7Ae66rbqb77Eg0vqDZXwI5nbAWb9-13a9NugDfpd5TFmtPTtS75HF9e1E8QR5xePh0uLz7C3BSQQWsrf-549lf6OzL3kcwwatPiQMnUzkhoa-BN3bQ_bpHt3DVsYrgXHfcZwM7hMW-W8wjNhfPuIEpIK-jgyidRBY6A1cjt7zg3TcLAhh60lJXpDYCQDtXrjvrIMt93E8bXIE9VIFTDrbNCPdRlwbeJ-jMt4TFPgUTGStHhPB1o1pW8wEtXTfItOyONjz_1jgJEM3nXIfhpQr_y0]--></g></svg>