<?xml version="1.0" encoding="us-ascii" standalone="no"?><svg xmlns="http://www.w3.org/2000/svg" xmlns:xlink="http://www.w3.org/1999/xlink" contentStyleType="text/css" height="688px" preserveAspectRatio="none" style="width:1980px;height:688px;background:#FFFFFF;" version="1.1" viewBox="0 0 1980 688" width="1980px" zoomAndPan="magnify"><defs/><g><text fill="#000000" font-family="sans-serif" font-size="14" font-weight="bold" lengthAdjust="spacing" textLength="285" x="846.75" y="29.5332">System Sequence Diagram (SSD) - UC019</text><text fill="#000000" font-family="sans-serif" font-size="14" font-weight="bold" lengthAdjust="spacing" textLength="180" x="899.25" y="47.1426">Search by Operation Type</text><rect fill="#FFFFFF" height="472.2734" style="stroke:#181818;stroke-width:1.0;" width="10" x="550" y="143.7891"/><rect fill="#FFFFFF" height="30.3516" style="stroke:#181818;stroke-width:1.0;" width="10" x="862" y="174.1406"/><rect fill="#FFFFFF" height="350.8672" style="stroke:#181818;stroke-width:1.0;" width="10" x="1007.5" y="234.8438"/><rect fill="#FFFFFF" height="28" style="stroke:#181818;stroke-width:1.0;" width="10" x="1012.5" y="513.3594"/><rect fill="#FFFFFF" height="30.3516" style="stroke:#181818;stroke-width:1.0;" width="10" x="1552.5" y="444.6563"/><rect fill="#FFFFFF" height="30.3516" style="stroke:#181818;stroke-width:1.0;" width="10" x="1743.5" y="342.25"/><rect fill="#FFFFFF" height="30.3516" style="stroke:#181818;stroke-width:1.0;" width="10" x="1912" y="265.1953"/><rect fill="none" height="168.7578" style="stroke:#000000;stroke-width:1.5;" width="733.5" x="914" y="387.6016"/><line style="stroke:#181818;stroke-width:0.5;stroke-dasharray:5.0,5.0;" x1="555" x2="555" y1="111.4375" y2="634.0625"/><line style="stroke:#181818;stroke-width:0.5;stroke-dasharray:5.0,5.0;" x1="867" x2="867" y1="111.4375" y2="634.0625"/><line style="stroke:#181818;stroke-width:0.5;stroke-dasharray:5.0,5.0;" x1="1012" x2="1012" y1="111.4375" y2="634.0625"/><line style="stroke:#181818;stroke-width:0.5;stroke-dasharray:5.0,5.0;" x1="1557.5" x2="1557.5" y1="111.4375" y2="634.0625"/><line style="stroke:#181818;stroke-width:0.5;stroke-dasharray:5.0,5.0;" x1="1748.5" x2="1748.5" y1="111.4375" y2="634.0625"/><line style="stroke:#181818;stroke-width:0.5;stroke-dasharray:5.0,5.0;" x1="1916.5" x2="1916.5" y1="111.4375" y2="634.0625"/><rect fill="#E3E3E3" height="49.2188" rx="2.5" ry="2.5" style="stroke:#181818;stroke-width:0.5;" width="192" x="459" y="61.2188"/><text fill="#000000" font-family="sans-serif" font-size="14" font-style="italic" lengthAdjust="spacing" textLength="75" x="517.5" y="82.752">&#171;controller&#187;</text><text fill="#000000" font-family="sans-serif" font-size="14" lengthAdjust="spacing" textLength="178" x="466" y="100.3613">OperationRequestController</text><rect fill="#E3E3E3" height="49.2188" rx="2.5" ry="2.5" style="stroke:#181818;stroke-width:0.5;" width="192" x="459" y="633.0625"/><text fill="#000000" font-family="sans-serif" font-size="14" font-style="italic" lengthAdjust="spacing" textLength="75" x="517.5" y="654.5957">&#171;controller&#187;</text><text fill="#000000" font-family="sans-serif" font-size="14" lengthAdjust="spacing" textLength="178" x="466" y="672.2051">OperationRequestController</text><rect fill="#E3E3E3" height="49.2188" rx="2.5" ry="2.5" style="stroke:#181818;stroke-width:0.5;" width="94" x="820" y="61.2188"/><text fill="#000000" font-family="sans-serif" font-size="14" font-style="italic" lengthAdjust="spacing" textLength="60" x="837" y="82.752">&#171;service&#187;</text><text fill="#000000" font-family="sans-serif" font-size="14" lengthAdjust="spacing" textLength="80" x="827" y="100.3613">:AuthService</text><rect fill="#E3E3E3" height="49.2188" rx="2.5" ry="2.5" style="stroke:#181818;stroke-width:0.5;" width="94" x="820" y="633.0625"/><text fill="#000000" font-family="sans-serif" font-size="14" font-style="italic" lengthAdjust="spacing" textLength="60" x="837" y="654.5957">&#171;service&#187;</text><text fill="#000000" font-family="sans-serif" font-size="14" lengthAdjust="spacing" textLength="80" x="827" y="672.2051">:AuthService</text><rect fill="#E3E3E3" height="49.2188" rx="2.5" ry="2.5" style="stroke:#181818;stroke-width:0.5;" width="177" x="924" y="61.2188"/><text fill="#000000" font-family="sans-serif" font-size="14" font-style="italic" lengthAdjust="spacing" textLength="60" x="982.5" y="82.752">&#171;service&#187;</text><text fill="#000000" font-family="sans-serif" font-size="14" lengthAdjust="spacing" textLength="163" x="931" y="100.3613">OperationRequestService</text><rect fill="#E3E3E3" height="49.2188" rx="2.5" ry="2.5" style="stroke:#181818;stroke-width:0.5;" width="177" x="924" y="633.0625"/><text fill="#000000" font-family="sans-serif" font-size="14" font-style="italic" lengthAdjust="spacing" textLength="60" x="982.5" y="654.5957">&#171;service&#187;</text><text fill="#000000" font-family="sans-serif" font-size="14" lengthAdjust="spacing" textLength="163" x="931" y="672.2051">OperationRequestService</text><rect fill="#E3E3E3" height="49.2188" rx="2.5" ry="2.5" style="stroke:#181818;stroke-width:0.5;" width="160" x="1477.5" y="61.2188"/><text fill="#000000" font-family="sans-serif" font-size="14" font-style="italic" lengthAdjust="spacing" textLength="36" x="1539.5" y="82.752">&#171;dto&#187;</text><text fill="#000000" font-family="sans-serif" font-size="14" lengthAdjust="spacing" textLength="146" x="1484.5" y="100.3613">OperationRequestDTO</text><rect fill="#E3E3E3" height="49.2188" rx="2.5" ry="2.5" style="stroke:#181818;stroke-width:0.5;" width="160" x="1477.5" y="633.0625"/><text fill="#000000" font-family="sans-serif" font-size="14" font-style="italic" lengthAdjust="spacing" textLength="36" x="1539.5" y="654.5957">&#171;dto&#187;</text><text fill="#000000" font-family="sans-serif" font-size="14" lengthAdjust="spacing" textLength="146" x="1484.5" y="672.2051">OperationRequestDTO</text><rect fill="#E3E3E3" height="49.2188" rx="2.5" ry="2.5" style="stroke:#181818;stroke-width:0.5;" width="202" x="1647.5" y="61.2188"/><text fill="#000000" font-family="sans-serif" font-size="14" font-style="italic" lengthAdjust="spacing" textLength="71" x="1713" y="82.752">&#171;interface&#187;</text><text fill="#000000" font-family="sans-serif" font-size="14" lengthAdjust="spacing" textLength="188" x="1654.5" y="100.3613">:OperationRequestRepository</text><rect fill="#E3E3E3" height="49.2188" rx="2.5" ry="2.5" style="stroke:#181818;stroke-width:0.5;" width="202" x="1647.5" y="633.0625"/><text fill="#000000" font-family="sans-serif" font-size="14" font-style="italic" lengthAdjust="spacing" textLength="71" x="1713" y="654.5957">&#171;interface&#187;</text><text fill="#000000" font-family="sans-serif" font-size="14" lengthAdjust="spacing" textLength="188" x="1654.5" y="672.2051">:OperationRequestRepository</text><rect fill="#E3E3E3" height="49.2188" rx="2.5" ry="2.5" style="stroke:#181818;stroke-width:0.5;" width="115" x="1859.5" y="61.2188"/><text fill="#000000" font-family="sans-serif" font-size="14" font-style="italic" lengthAdjust="spacing" textLength="71" x="1881.5" y="82.752">&#171;interface&#187;</text><text fill="#000000" font-family="sans-serif" font-size="14" lengthAdjust="spacing" textLength="101" x="1866.5" y="100.3613">:StaffRepository</text><rect fill="#E3E3E3" height="49.2188" rx="2.5" ry="2.5" style="stroke:#181818;stroke-width:0.5;" width="115" x="1859.5" y="633.0625"/><text fill="#000000" font-family="sans-serif" font-size="14" font-style="italic" lengthAdjust="spacing" textLength="71" x="1881.5" y="654.5957">&#171;interface&#187;</text><text fill="#000000" font-family="sans-serif" font-size="14" lengthAdjust="spacing" textLength="101" x="1866.5" y="672.2051">:StaffRepository</text><rect fill="#FFFFFF" height="472.2734" style="stroke:#181818;stroke-width:1.0;" width="10" x="550" y="143.7891"/><rect fill="#FFFFFF" height="30.3516" style="stroke:#181818;stroke-width:1.0;" width="10" x="862" y="174.1406"/><rect fill="#FFFFFF" height="350.8672" style="stroke:#181818;stroke-width:1.0;" width="10" x="1007.5" y="234.8438"/><rect fill="#FFFFFF" height="28" style="stroke:#181818;stroke-width:1.0;" width="10" x="1012.5" y="513.3594"/><rect fill="#FFFFFF" height="30.3516" style="stroke:#181818;stroke-width:1.0;" width="10" x="1552.5" y="444.6563"/><rect fill="#FFFFFF" height="30.3516" style="stroke:#181818;stroke-width:1.0;" width="10" x="1743.5" y="342.25"/><rect fill="#FFFFFF" height="30.3516" style="stroke:#181818;stroke-width:1.0;" width="10" x="1912" y="265.1953"/><polygon fill="#181818" points="538,139.7891,548,143.7891,538,147.7891,542,143.7891" style="stroke:#181818;stroke-width:1.0;"/><line style="stroke:#181818;stroke-width:1.0;stroke-dasharray:2.0,2.0;" x1="0" x2="544" y1="143.7891" y2="143.7891"/><text fill="#000000" font-family="sans-serif" font-size="13" lengthAdjust="spacing" textLength="531" x="7" y="138.9326">GET /api/staff/operation-requests/search/?staffId={{staffId}}&amp;operationType={{operationType}}</text><polygon fill="#181818" points="850,170.1406,860,174.1406,850,178.1406,854,174.1406" style="stroke:#181818;stroke-width:1.0;"/><line style="stroke:#181818;stroke-width:1.0;" x1="560" x2="856" y1="174.1406" y2="174.1406"/><text fill="#000000" font-family="sans-serif" font-size="13" lengthAdjust="spacing" textLength="283" x="567" y="169.2842">AuthenticateAsync(operationRequestDTO.staffId)</text><polygon fill="#181818" points="571,200.4922,561,204.4922,571,208.4922,567,204.4922" style="stroke:#181818;stroke-width:1.0;"/><line style="stroke:#181818;stroke-width:1.0;stroke-dasharray:2.0,2.0;" x1="565" x2="866" y1="204.4922" y2="204.4922"/><text fill="#000000" font-family="sans-serif" font-size="13" lengthAdjust="spacing" textLength="90" x="577" y="199.6357">IsAuthenticated</text><polygon fill="#181818" points="995.5,230.8438,1005.5,234.8438,995.5,238.8438,999.5,234.8438" style="stroke:#181818;stroke-width:1.0;"/><line style="stroke:#181818;stroke-width:1.0;" x1="560" x2="1001.5" y1="234.8438" y2="234.8438"/><text fill="#000000" font-family="sans-serif" font-size="13" lengthAdjust="spacing" textLength="313" x="567" y="229.9873">SearchByOperationTypeAsync(operationRequestDTO)</text><polygon fill="#181818" points="1900,261.1953,1910,265.1953,1900,269.1953,1904,265.1953" style="stroke:#181818;stroke-width:1.0;"/><line style="stroke:#181818;stroke-width:1.0;" x1="1017.5" x2="1906" y1="265.1953" y2="265.1953"/><text fill="#000000" font-family="sans-serif" font-size="13" lengthAdjust="spacing" textLength="257" x="1024.5" y="260.3389">GetStaffAsync(operationRequestDTO.staffId)</text><polygon fill="#181818" points="1028.5,291.5469,1018.5,295.5469,1028.5,299.5469,1024.5,295.5469" style="stroke:#181818;stroke-width:1.0;"/><line style="stroke:#181818;stroke-width:1.0;stroke-dasharray:2.0,2.0;" x1="1022.5" x2="1916" y1="295.5469" y2="295.5469"/><text fill="#000000" font-family="sans-serif" font-size="13" lengthAdjust="spacing" textLength="24" x="1034.5" y="290.6904">staff</text><polygon fill="#181818" points="1731.5,338.25,1741.5,342.25,1731.5,346.25,1735.5,342.25" style="stroke:#181818;stroke-width:1.0;"/><line style="stroke:#181818;stroke-width:1.0;" x1="1017.5" x2="1737.5" y1="342.25" y2="342.25"/><text fill="#000000" font-family="sans-serif" font-size="13" lengthAdjust="spacing" textLength="174" x="1024.5" y="321.042">GetOperationTypeAsync(staff,</text><text fill="#000000" font-family="sans-serif" font-size="13" lengthAdjust="spacing" textLength="216" x="1024.5" y="337.3936">operationRequestDTO.operationType)</text><polygon fill="#181818" points="1028.5,368.6016,1018.5,372.6016,1028.5,376.6016,1024.5,372.6016" style="stroke:#181818;stroke-width:1.0;"/><line style="stroke:#181818;stroke-width:1.0;stroke-dasharray:2.0,2.0;" x1="1022.5" x2="1747.5" y1="372.6016" y2="372.6016"/><text fill="#000000" font-family="sans-serif" font-size="13" lengthAdjust="spacing" textLength="223" x="1034.5" y="367.7451">lisDTO = new List&lt;OperationRequest&gt;</text><path d="M914,387.6016 L987,387.6016 L987,395.9531 L977,405.9531 L914,405.9531 L914,387.6016 " fill="#EEEEEE" style="stroke:#000000;stroke-width:1.5;"/><rect fill="none" height="168.7578" style="stroke:#000000;stroke-width:1.5;" width="733.5" x="914" y="387.6016"/><text fill="#000000" font-family="sans-serif" font-size="13" font-weight="bold" lengthAdjust="spacing" textLength="28" x="929" y="402.0967">loop</text><text fill="#000000" font-family="sans-serif" font-size="11" font-weight="bold" lengthAdjust="spacing" textLength="87" x="1002" y="401.0205">[through all list]</text><polygon fill="#181818" points="1540.5,440.6563,1550.5,444.6563,1540.5,448.6563,1544.5,444.6563" style="stroke:#181818;stroke-width:1.0;"/><line style="stroke:#181818;stroke-width:1.0;" x1="1017.5" x2="1546.5" y1="444.6563" y2="444.6563"/><text fill="#000000" font-family="sans-serif" font-size="13" lengthAdjust="spacing" textLength="394" x="1024.5" y="423.4482">new OperationRequestDTO(operationRequest[i].operationRequestID,</text><text fill="#000000" font-family="sans-serif" font-size="13" lengthAdjust="spacing" textLength="516" x="1024.5" y="439.7998">operationRequest[i].patientName, operationRequest[i].priority, operationRequest[i].status)</text><polygon fill="#181818" points="1028.5,471.0078,1018.5,475.0078,1028.5,479.0078,1024.5,475.0078" style="stroke:#181818;stroke-width:1.0;"/><line style="stroke:#181818;stroke-width:1.0;stroke-dasharray:2.0,2.0;" x1="1022.5" x2="1556.5" y1="475.0078" y2="475.0078"/><text fill="#000000" font-family="sans-serif" font-size="13" lengthAdjust="spacing" textLength="127" x="1034.5" y="470.1514">operationRequestDTO</text><line style="stroke:#181818;stroke-width:1.0;" x1="1022.5" x2="1064.5" y1="505.3594" y2="505.3594"/><line style="stroke:#181818;stroke-width:1.0;" x1="1064.5" x2="1064.5" y1="505.3594" y2="518.3594"/><line style="stroke:#181818;stroke-width:1.0;" x1="1023.5" x2="1064.5" y1="518.3594" y2="518.3594"/><polygon fill="#181818" points="1033.5,514.3594,1023.5,518.3594,1033.5,522.3594,1029.5,518.3594" style="stroke:#181818;stroke-width:1.0;"/><text fill="#000000" font-family="sans-serif" font-size="13" lengthAdjust="spacing" textLength="205" x="1029.5" y="500.5029">listDTO.Add(operationRequestDTO)</text><polygon fill="#181818" points="571,581.7109,561,585.7109,571,589.7109,567,585.7109" style="stroke:#181818;stroke-width:1.0;"/><line style="stroke:#181818;stroke-width:1.0;stroke-dasharray:2.0,2.0;" x1="565" x2="1011.5" y1="585.7109" y2="585.7109"/><text fill="#000000" font-family="sans-serif" font-size="13" lengthAdjust="spacing" textLength="43" x="577" y="580.8545">listDTO</text><polygon fill="#181818" points="11,612.0625,1,616.0625,11,620.0625,7,616.0625" style="stroke:#181818;stroke-width:1.0;"/><line style="stroke:#181818;stroke-width:1.0;stroke-dasharray:2.0,2.0;" x1="5" x2="554" y1="616.0625" y2="616.0625"/><text fill="#000000" font-family="sans-serif" font-size="13" lengthAdjust="spacing" textLength="150" x="17" y="611.2061">return 200 OK={message}</text><!--SRC=[bLLDZzem4BtdLrWSgaNQBBItea15bwf2hOgqeQTk3suoWBM9dTgJNKM8_rxRGDPndAhrXTZptioR3nlrn7X59Ir9ARZ83bAKG53M4AdMKj7iYUuXnQO08Y53olU52r07ceiNnlTaHmi5KOGCDJHj5499KlXT0y-0h1ZT6_XDcgx692RVxwTltp_o5AZC3kHNGpOLI8fCSB9jAeYqSsGPgoZ7LzE3yQRmNd2KeYX04gg8iqkIhDqi5XqVezconaCAyfbbC38yPw-9wlpbiVp8Lxoc_ozrjTqOclb9aXn5JvzFU81AA8P2DbRkwrRp6KUGEzeBEfgbI7SxZ-gTUVmeZXTE4MVaywSjcT2AJPJXJSHLLopFmjH4sQvDFbZ0EfyVZvUlq-bD2pTjr9RE_dIAQ8RicI8u8IEYbzD6hSTfpinkWEiaDMsf6fxTY7vnxouInjPR6yLnP0rckPttaryhDrhUSd88kWn8RsMVP_jZit4hCAZVqttLrmfe1I_yVkgE0TgpVonEDr3NMGkmCRt1YTtqhCiEtAcHpun2UNWf1EfaOzm-yb1AdS4A93QGqr0w1LFcRiu9XnVobIbC_0kv64fs858XH4LGlwhr_a1eKPWGs45uzT3nPpPyuEteTVK7-tdddwrNWLePOAKFz4n_eoNSaY10CY4PDc6hRWFMQjpJtbP02-mPpJ8LxLGvqCWWqQbk2E9U1gU1TYwMUJvyluBg_VTXQAO3CE1vVxAz9-KYBFgBIsjBuhZ3au2rvEJTT4esN-R74fJI_yIdyvFWE74UqZy0]--></g></svg>