<?xml version="1.0" encoding="us-ascii" standalone="no"?><svg xmlns="http://www.w3.org/2000/svg" xmlns:xlink="http://www.w3.org/1999/xlink" contentStyleType="text/css" height="745px" preserveAspectRatio="none" style="width:1875px;height:745px;background:#FFFFFF;" version="1.1" viewBox="0 0 1875 745" width="1875px" zoomAndPan="magnify"><defs/><g><text fill="#000000" font-family="sans-serif" font-size="14" font-weight="bold" lengthAdjust="spacing" textLength="285" x="796.75" y="29.5332">System Sequence Diagram (SSD) - UC019</text><text fill="#000000" font-family="sans-serif" font-size="14" font-weight="bold" lengthAdjust="spacing" textLength="123" x="877.75" y="47.1426">Search by Priority</text><rect fill="#FFFFFF" height="455.9219" style="stroke:#181818;stroke-width:1.0;" width="10" x="466" y="174.7891"/><rect fill="#FFFFFF" height="30.3516" style="stroke:#181818;stroke-width:1.0;" width="10" x="778" y="205.1406"/><rect fill="#FFFFFF" height="334.5156" style="stroke:#181818;stroke-width:1.0;" width="10" x="923.5" y="265.8438"/><rect fill="#FFFFFF" height="28" style="stroke:#181818;stroke-width:1.0;" width="10" x="928.5" y="528.0078"/><rect fill="#FFFFFF" height="30.3516" style="stroke:#181818;stroke-width:1.0;" width="10" x="1468.5" y="459.3047"/><rect fill="#FFFFFF" height="30.3516" style="stroke:#181818;stroke-width:1.0;" width="10" x="1655.5" y="356.8984"/><rect fill="#FFFFFF" height="30.3516" style="stroke:#181818;stroke-width:1.0;" width="10" x="1816" y="296.1953"/><rect fill="none" height="168.7578" style="stroke:#000000;stroke-width:1.5;" width="733.5" x="830" y="402.25"/><line style="stroke:#181818;stroke-width:0.5;stroke-dasharray:5.0,5.0;" x1="471" x2="471" y1="142.4375" y2="648.7109"/><line style="stroke:#181818;stroke-width:0.5;stroke-dasharray:5.0,5.0;" x1="783" x2="783" y1="142.4375" y2="648.7109"/><line style="stroke:#181818;stroke-width:0.5;stroke-dasharray:5.0,5.0;" x1="928" x2="928" y1="142.4375" y2="648.7109"/><line style="stroke:#181818;stroke-width:0.5;stroke-dasharray:5.0,5.0;" x1="1473.5" x2="1473.5" y1="142.4375" y2="648.7109"/><line style="stroke:#181818;stroke-width:0.5;stroke-dasharray:5.0,5.0;" x1="1660.5" x2="1660.5" y1="142.4375" y2="648.7109"/><line style="stroke:#181818;stroke-width:0.5;stroke-dasharray:5.0,5.0;" x1="1820.5" x2="1820.5" y1="142.4375" y2="648.7109"/><rect fill="#E3E3E3" height="49.2188" rx="2.5" ry="2.5" style="stroke:#181818;stroke-width:0.5;" width="192" x="375" y="92.2188"/><text fill="#000000" font-family="sans-serif" font-size="14" font-style="italic" lengthAdjust="spacing" textLength="75" x="433.5" y="113.752">&#171;controller&#187;</text><text fill="#000000" font-family="sans-serif" font-size="14" lengthAdjust="spacing" textLength="178" x="382" y="131.3613">OperationRequestController</text><rect fill="#E3E3E3" height="49.2188" rx="2.5" ry="2.5" style="stroke:#181818;stroke-width:0.5;" width="192" x="375" y="647.7109"/><text fill="#000000" font-family="sans-serif" font-size="14" font-style="italic" lengthAdjust="spacing" textLength="75" x="433.5" y="669.2441">&#171;controller&#187;</text><text fill="#000000" font-family="sans-serif" font-size="14" lengthAdjust="spacing" textLength="178" x="382" y="686.8535">OperationRequestController</text><rect fill="#E3E3E3" height="49.2188" rx="2.5" ry="2.5" style="stroke:#181818;stroke-width:0.5;" width="94" x="736" y="92.2188"/><text fill="#000000" font-family="sans-serif" font-size="14" font-style="italic" lengthAdjust="spacing" textLength="60" x="753" y="113.752">&#171;service&#187;</text><text fill="#000000" font-family="sans-serif" font-size="14" lengthAdjust="spacing" textLength="80" x="743" y="131.3613">:AuthService</text><rect fill="#E3E3E3" height="49.2188" rx="2.5" ry="2.5" style="stroke:#181818;stroke-width:0.5;" width="94" x="736" y="647.7109"/><text fill="#000000" font-family="sans-serif" font-size="14" font-style="italic" lengthAdjust="spacing" textLength="60" x="753" y="669.2441">&#171;service&#187;</text><text fill="#000000" font-family="sans-serif" font-size="14" lengthAdjust="spacing" textLength="80" x="743" y="686.8535">:AuthService</text><rect fill="#E3E3E3" height="49.2188" rx="2.5" ry="2.5" style="stroke:#181818;stroke-width:0.5;" width="177" x="840" y="92.2188"/><text fill="#000000" font-family="sans-serif" font-size="14" font-style="italic" lengthAdjust="spacing" textLength="60" x="898.5" y="113.752">&#171;service&#187;</text><text fill="#000000" font-family="sans-serif" font-size="14" lengthAdjust="spacing" textLength="163" x="847" y="131.3613">OperationRequestService</text><rect fill="#E3E3E3" height="49.2188" rx="2.5" ry="2.5" style="stroke:#181818;stroke-width:0.5;" width="177" x="840" y="647.7109"/><text fill="#000000" font-family="sans-serif" font-size="14" font-style="italic" lengthAdjust="spacing" textLength="60" x="898.5" y="669.2441">&#171;service&#187;</text><text fill="#000000" font-family="sans-serif" font-size="14" lengthAdjust="spacing" textLength="163" x="847" y="686.8535">OperationRequestService</text><rect fill="#E3E3E3" height="49.2188" rx="2.5" ry="2.5" style="stroke:#181818;stroke-width:0.5;" width="160" x="1393.5" y="92.2188"/><text fill="#000000" font-family="sans-serif" font-size="14" font-style="italic" lengthAdjust="spacing" textLength="36" x="1455.5" y="113.752">&#171;dto&#187;</text><text fill="#000000" font-family="sans-serif" font-size="14" lengthAdjust="spacing" textLength="146" x="1400.5" y="131.3613">OperationRequestDTO</text><rect fill="#E3E3E3" height="49.2188" rx="2.5" ry="2.5" style="stroke:#181818;stroke-width:0.5;" width="160" x="1393.5" y="647.7109"/><text fill="#000000" font-family="sans-serif" font-size="14" font-style="italic" lengthAdjust="spacing" textLength="36" x="1455.5" y="669.2441">&#171;dto&#187;</text><text fill="#000000" font-family="sans-serif" font-size="14" lengthAdjust="spacing" textLength="146" x="1400.5" y="686.8535">OperationRequestDTO</text><text fill="#000000" font-family="sans-serif" font-size="14" font-style="italic" lengthAdjust="spacing" textLength="71" x="1622" y="121.752">&#171;interface&#187;</text><text fill="#000000" font-family="sans-serif" font-size="14" lengthAdjust="spacing" textLength="188" x="1563.5" y="139.3613">:OperationRequestRepository</text><path d="M1642.5,71.2188 C1642.5,61.2188 1660.5,61.2188 1660.5,61.2188 C1660.5,61.2188 1678.5,61.2188 1678.5,71.2188 L1678.5,97.2188 C1678.5,107.2188 1660.5,107.2188 1660.5,107.2188 C1660.5,107.2188 1642.5,107.2188 1642.5,97.2188 L1642.5,71.2188 " fill="#E3E3E3" style="stroke:#181818;stroke-width:1.5;"/><path d="M1642.5,71.2188 C1642.5,81.2188 1660.5,81.2188 1660.5,81.2188 C1660.5,81.2188 1678.5,81.2188 1678.5,71.2188 " fill="none" style="stroke:#181818;stroke-width:1.5;"/><text fill="#000000" font-family="sans-serif" font-size="14" font-style="italic" lengthAdjust="spacing" textLength="71" x="1622" y="662.2441">&#171;interface&#187;</text><text fill="#000000" font-family="sans-serif" font-size="14" lengthAdjust="spacing" textLength="188" x="1563.5" y="679.8535">:OperationRequestRepository</text><path d="M1642.5,692.9297 C1642.5,682.9297 1660.5,682.9297 1660.5,682.9297 C1660.5,682.9297 1678.5,682.9297 1678.5,692.9297 L1678.5,718.9297 C1678.5,728.9297 1660.5,728.9297 1660.5,728.9297 C1660.5,728.9297 1642.5,728.9297 1642.5,718.9297 L1642.5,692.9297 " fill="#E3E3E3" style="stroke:#181818;stroke-width:1.5;"/><path d="M1642.5,692.9297 C1642.5,702.9297 1660.5,702.9297 1660.5,702.9297 C1660.5,702.9297 1678.5,702.9297 1678.5,692.9297 " fill="none" style="stroke:#181818;stroke-width:1.5;"/><text fill="#000000" font-family="sans-serif" font-size="14" font-style="italic" lengthAdjust="spacing" textLength="71" x="1782.5" y="121.752">&#171;interface&#187;</text><text fill="#000000" font-family="sans-serif" font-size="14" lengthAdjust="spacing" textLength="101" x="1767.5" y="139.3613">:StaffRepository</text><path d="M1803,71.2188 C1803,61.2188 1821,61.2188 1821,61.2188 C1821,61.2188 1839,61.2188 1839,71.2188 L1839,97.2188 C1839,107.2188 1821,107.2188 1821,107.2188 C1821,107.2188 1803,107.2188 1803,97.2188 L1803,71.2188 " fill="#E3E3E3" style="stroke:#181818;stroke-width:1.5;"/><path d="M1803,71.2188 C1803,81.2188 1821,81.2188 1821,81.2188 C1821,81.2188 1839,81.2188 1839,71.2188 " fill="none" style="stroke:#181818;stroke-width:1.5;"/><text fill="#000000" font-family="sans-serif" font-size="14" font-style="italic" lengthAdjust="spacing" textLength="71" x="1782.5" y="662.2441">&#171;interface&#187;</text><text fill="#000000" font-family="sans-serif" font-size="14" lengthAdjust="spacing" textLength="101" x="1767.5" y="679.8535">:StaffRepository</text><path d="M1803,692.9297 C1803,682.9297 1821,682.9297 1821,682.9297 C1821,682.9297 1839,682.9297 1839,692.9297 L1839,718.9297 C1839,728.9297 1821,728.9297 1821,728.9297 C1821,728.9297 1803,728.9297 1803,718.9297 L1803,692.9297 " fill="#E3E3E3" style="stroke:#181818;stroke-width:1.5;"/><path d="M1803,692.9297 C1803,702.9297 1821,702.9297 1821,702.9297 C1821,702.9297 1839,702.9297 1839,692.9297 " fill="none" style="stroke:#181818;stroke-width:1.5;"/><rect fill="#FFFFFF" height="455.9219" style="stroke:#181818;stroke-width:1.0;" width="10" x="466" y="174.7891"/><rect fill="#FFFFFF" height="30.3516" style="stroke:#181818;stroke-width:1.0;" width="10" x="778" y="205.1406"/><rect fill="#FFFFFF" height="334.5156" style="stroke:#181818;stroke-width:1.0;" width="10" x="923.5" y="265.8438"/><rect fill="#FFFFFF" height="28" style="stroke:#181818;stroke-width:1.0;" width="10" x="928.5" y="528.0078"/><rect fill="#FFFFFF" height="30.3516" style="stroke:#181818;stroke-width:1.0;" width="10" x="1468.5" y="459.3047"/><rect fill="#FFFFFF" height="30.3516" style="stroke:#181818;stroke-width:1.0;" width="10" x="1655.5" y="356.8984"/><rect fill="#FFFFFF" height="30.3516" style="stroke:#181818;stroke-width:1.0;" width="10" x="1816" y="296.1953"/><polygon fill="#181818" points="454,170.7891,464,174.7891,454,178.7891,458,174.7891" style="stroke:#181818;stroke-width:1.0;"/><line style="stroke:#181818;stroke-width:1.0;stroke-dasharray:2.0,2.0;" x1="0" x2="460" y1="174.7891" y2="174.7891"/><text fill="#000000" font-family="sans-serif" font-size="13" lengthAdjust="spacing" textLength="447" x="7" y="169.9326">GET /api/staff/operation-requests/search/?staffId={{staffId}}&amp;priority={{priority}}</text><polygon fill="#181818" points="766,201.1406,776,205.1406,766,209.1406,770,205.1406" style="stroke:#181818;stroke-width:1.0;"/><line style="stroke:#181818;stroke-width:1.0;" x1="476" x2="772" y1="205.1406" y2="205.1406"/><text fill="#000000" font-family="sans-serif" font-size="13" lengthAdjust="spacing" textLength="283" x="483" y="200.2842">AuthenticateAsync(operationRequestDTO.staffId)</text><polygon fill="#181818" points="487,231.4922,477,235.4922,487,239.4922,483,235.4922" style="stroke:#181818;stroke-width:1.0;"/><line style="stroke:#181818;stroke-width:1.0;stroke-dasharray:2.0,2.0;" x1="481" x2="782" y1="235.4922" y2="235.4922"/><text fill="#000000" font-family="sans-serif" font-size="13" lengthAdjust="spacing" textLength="90" x="493" y="230.6357">IsAuthenticated</text><polygon fill="#181818" points="911.5,261.8438,921.5,265.8438,911.5,269.8438,915.5,265.8438" style="stroke:#181818;stroke-width:1.0;"/><line style="stroke:#181818;stroke-width:1.0;" x1="476" x2="917.5" y1="265.8438" y2="265.8438"/><text fill="#000000" font-family="sans-serif" font-size="13" lengthAdjust="spacing" textLength="270" x="483" y="260.9873">SearchByPriorityAsync(operationRequestDTO)</text><polygon fill="#181818" points="1804,292.1953,1814,296.1953,1804,300.1953,1808,296.1953" style="stroke:#181818;stroke-width:1.0;"/><line style="stroke:#181818;stroke-width:1.0;" x1="933.5" x2="1810" y1="296.1953" y2="296.1953"/><text fill="#000000" font-family="sans-serif" font-size="13" lengthAdjust="spacing" textLength="257" x="940.5" y="291.3389">GetStaffAsync(operationRequestDTO.staffId)</text><polygon fill="#181818" points="944.5,322.5469,934.5,326.5469,944.5,330.5469,940.5,326.5469" style="stroke:#181818;stroke-width:1.0;"/><line style="stroke:#181818;stroke-width:1.0;stroke-dasharray:2.0,2.0;" x1="938.5" x2="1820" y1="326.5469" y2="326.5469"/><text fill="#000000" font-family="sans-serif" font-size="13" lengthAdjust="spacing" textLength="24" x="950.5" y="321.6904">staff</text><polygon fill="#181818" points="1643.5,352.8984,1653.5,356.8984,1643.5,360.8984,1647.5,356.8984" style="stroke:#181818;stroke-width:1.0;"/><line style="stroke:#181818;stroke-width:1.0;" x1="933.5" x2="1649.5" y1="356.8984" y2="356.8984"/><text fill="#000000" font-family="sans-serif" font-size="13" lengthAdjust="spacing" textLength="309" x="940.5" y="352.042">GetPriorityAsync(staff, operationRequestDTO.priority)</text><polygon fill="#181818" points="944.5,383.25,934.5,387.25,944.5,391.25,940.5,387.25" style="stroke:#181818;stroke-width:1.0;"/><line style="stroke:#181818;stroke-width:1.0;stroke-dasharray:2.0,2.0;" x1="938.5" x2="1659.5" y1="387.25" y2="387.25"/><text fill="#000000" font-family="sans-serif" font-size="13" lengthAdjust="spacing" textLength="223" x="950.5" y="382.3936">lisDTO = new List&lt;OperationRequest&gt;</text><path d="M830,402.25 L903,402.25 L903,410.6016 L893,420.6016 L830,420.6016 L830,402.25 " fill="#EEEEEE" style="stroke:#000000;stroke-width:1.5;"/><rect fill="none" height="168.7578" style="stroke:#000000;stroke-width:1.5;" width="733.5" x="830" y="402.25"/><text fill="#000000" font-family="sans-serif" font-size="13" font-weight="bold" lengthAdjust="spacing" textLength="28" x="845" y="416.7451">loop</text><text fill="#000000" font-family="sans-serif" font-size="11" font-weight="bold" lengthAdjust="spacing" textLength="87" x="918" y="415.6689">[through all list]</text><polygon fill="#181818" points="1456.5,455.3047,1466.5,459.3047,1456.5,463.3047,1460.5,459.3047" style="stroke:#181818;stroke-width:1.0;"/><line style="stroke:#181818;stroke-width:1.0;" x1="933.5" x2="1462.5" y1="459.3047" y2="459.3047"/><text fill="#000000" font-family="sans-serif" font-size="13" lengthAdjust="spacing" textLength="394" x="940.5" y="438.0967">new OperationRequestDTO(operationRequest[i].operationRequestID,</text><text fill="#000000" font-family="sans-serif" font-size="13" lengthAdjust="spacing" textLength="516" x="940.5" y="454.4482">operationRequest[i].patientName, operationRequest[i].priority, operationRequest[i].status)</text><polygon fill="#181818" points="944.5,485.6563,934.5,489.6563,944.5,493.6563,940.5,489.6563" style="stroke:#181818;stroke-width:1.0;"/><line style="stroke:#181818;stroke-width:1.0;stroke-dasharray:2.0,2.0;" x1="938.5" x2="1472.5" y1="489.6563" y2="489.6563"/><text fill="#000000" font-family="sans-serif" font-size="13" lengthAdjust="spacing" textLength="127" x="950.5" y="484.7998">operationRequestDTO</text><line style="stroke:#181818;stroke-width:1.0;" x1="938.5" x2="980.5" y1="520.0078" y2="520.0078"/><line style="stroke:#181818;stroke-width:1.0;" x1="980.5" x2="980.5" y1="520.0078" y2="533.0078"/><line style="stroke:#181818;stroke-width:1.0;" x1="939.5" x2="980.5" y1="533.0078" y2="533.0078"/><polygon fill="#181818" points="949.5,529.0078,939.5,533.0078,949.5,537.0078,945.5,533.0078" style="stroke:#181818;stroke-width:1.0;"/><text fill="#000000" font-family="sans-serif" font-size="13" lengthAdjust="spacing" textLength="205" x="945.5" y="515.1514">listDTO.Add(operationRequestDTO)</text><polygon fill="#181818" points="487,596.3594,477,600.3594,487,604.3594,483,600.3594" style="stroke:#181818;stroke-width:1.0;"/><line style="stroke:#181818;stroke-width:1.0;stroke-dasharray:2.0,2.0;" x1="481" x2="927.5" y1="600.3594" y2="600.3594"/><text fill="#000000" font-family="sans-serif" font-size="13" lengthAdjust="spacing" textLength="43" x="493" y="595.5029">listDTO</text><polygon fill="#181818" points="11,626.7109,1,630.7109,11,634.7109,7,630.7109" style="stroke:#181818;stroke-width:1.0;"/><line style="stroke:#181818;stroke-width:1.0;stroke-dasharray:2.0,2.0;" x1="5" x2="470" y1="630.7109" y2="630.7109"/><text fill="#000000" font-family="sans-serif" font-size="13" lengthAdjust="spacing" textLength="150" x="17" y="625.8545">return 200 OK={message}</text><!--SRC=[bLLTRzCm57tFhx3sW5PfMGjlL6bHMH6gG1Gjuudnu2MthRN43lRDfcZgVv_jDi5n70H-QMoVS- -v7xvLZunNLDAIb8ABx2152GHb3P7gRYgQFT8zfDWKG2HaIFc-S07gG7FnpFYUx6YX88gGeOQcZK8eIGg_Q-0Pa3MZUmE_JDFrXCJanytixVjxdWALsO4yDEIxP48oR29j5bd6AigHR2kG59dWjyQEmXl1KOgY04ce8iukIR9kirpsR5pCLpKUKf1FB8CBmtFscgXENnxBzzpYDVr_gUkxhQ6PdoJ9KMXuJf4-K0LQd8- -XKeeXa8sLkkVhIOpZY1tr7fqJAH8TpkFvvrvv2YEbqxwvkJpfpiofHMRAiERYbPKB4-gr5JPIaq_MC0cNxoydB-EnpVLkNRwiFqy7YEQ8NkY28wZYEZbb4shS8enjnlWEfEQjb8Dpox5C9dNPySJQwtpuXYo5sQvbVP3tYZNMzvnSWYQ34ZlP9-w-6FJzl2eT4zoAwtptMbT-WNK9GAqP_-ObxwZlh4EO7rwdHAxaLcJFRYJ7fyPXUBmGkYdo9g_8g5WsaOAH3CIo5WC1LFcxIq8XsVobIbC_3Ut78jmn5CXH4LGpyjwVo2qA8mBx26y96Z_S-i-C1i6fVp9VbtxPvlrrJqF0Ijze7lu6orXc4SBEESnVAiBWBMQ3BHt6T021vTccOpsiXoeOP3eP3S4SL-0Kq3R4giy7tzKGVN-F1Xhv00CU3viPs-4d8L5Vp5fxv8uxl4aO2qvUJURaUsNnKi9Ikd_sEDf3ZX6dC7v2W00]--></g></svg>