<?xml version="1.0" encoding="us-ascii" standalone="no"?><svg xmlns="http://www.w3.org/2000/svg" xmlns:xlink="http://www.w3.org/1999/xlink" contentStyleType="text/css" height="729px" preserveAspectRatio="none" style="width:2354px;height:729px;background:#FFFFFF;" version="1.1" viewBox="0 0 2354 729" width="2354px" zoomAndPan="magnify"><defs/><g><text fill="#000000" font-family="sans-serif" font-size="14" font-weight="bold" lengthAdjust="spacing" textLength="285" x="1033.75" y="29.5332">System Sequence Diagram (SSD) - UC019</text><text fill="#000000" font-family="sans-serif" font-size="14" font-weight="bold" lengthAdjust="spacing" textLength="165" x="1093.75" y="47.1426">Search by Patient Name</text><rect fill="#FFFFFF" height="439.5703" style="stroke:#181818;stroke-width:1.0;" width="10" x="534" y="174.7891"/><rect fill="#FFFFFF" height="30.3516" style="stroke:#181818;stroke-width:1.0;" width="10" x="846" y="205.1406"/><rect fill="#FFFFFF" height="318.1641" style="stroke:#181818;stroke-width:1.0;" width="10" x="991.5" y="265.8438"/><rect fill="#FFFFFF" height="28" style="stroke:#181818;stroke-width:1.0;" width="10" x="996.5" y="511.6563"/><rect fill="#FFFFFF" height="30.3516" style="stroke:#181818;stroke-width:1.0;" width="10" x="1934.5" y="442.9531"/><rect fill="#FFFFFF" height="30.3516" style="stroke:#181818;stroke-width:1.0;" width="10" x="2121.5" y="356.8984"/><rect fill="#FFFFFF" height="30.3516" style="stroke:#181818;stroke-width:1.0;" width="10" x="2286" y="296.1953"/><rect fill="none" height="152.4063" style="stroke:#000000;stroke-width:1.5;" width="1131.5" x="898" y="402.25"/><line style="stroke:#181818;stroke-width:0.5;stroke-dasharray:5.0,5.0;" x1="539" x2="539" y1="142.4375" y2="632.3594"/><line style="stroke:#181818;stroke-width:0.5;stroke-dasharray:5.0,5.0;" x1="851" x2="851" y1="142.4375" y2="632.3594"/><line style="stroke:#181818;stroke-width:0.5;stroke-dasharray:5.0,5.0;" x1="996" x2="996" y1="142.4375" y2="632.3594"/><line style="stroke:#181818;stroke-width:0.5;stroke-dasharray:5.0,5.0;" x1="1939.5" x2="1939.5" y1="142.4375" y2="632.3594"/><line style="stroke:#181818;stroke-width:0.5;stroke-dasharray:5.0,5.0;" x1="2126.5" x2="2126.5" y1="142.4375" y2="632.3594"/><line style="stroke:#181818;stroke-width:0.5;stroke-dasharray:5.0,5.0;" x1="2290.5" x2="2290.5" y1="142.4375" y2="632.3594"/><rect fill="#E3E3E3" height="49.2188" rx="2.5" ry="2.5" style="stroke:#181818;stroke-width:0.5;" width="192" x="443" y="92.2188"/><text fill="#000000" font-family="sans-serif" font-size="14" font-style="italic" lengthAdjust="spacing" textLength="75" x="501.5" y="113.752">&#171;controller&#187;</text><text fill="#000000" font-family="sans-serif" font-size="14" lengthAdjust="spacing" textLength="178" x="450" y="131.3613">OperationRequestController</text><rect fill="#E3E3E3" height="49.2188" rx="2.5" ry="2.5" style="stroke:#181818;stroke-width:0.5;" width="192" x="443" y="631.3594"/><text fill="#000000" font-family="sans-serif" font-size="14" font-style="italic" lengthAdjust="spacing" textLength="75" x="501.5" y="652.8926">&#171;controller&#187;</text><text fill="#000000" font-family="sans-serif" font-size="14" lengthAdjust="spacing" textLength="178" x="450" y="670.502">OperationRequestController</text><rect fill="#E3E3E3" height="49.2188" rx="2.5" ry="2.5" style="stroke:#181818;stroke-width:0.5;" width="94" x="804" y="92.2188"/><text fill="#000000" font-family="sans-serif" font-size="14" font-style="italic" lengthAdjust="spacing" textLength="60" x="821" y="113.752">&#171;service&#187;</text><text fill="#000000" font-family="sans-serif" font-size="14" lengthAdjust="spacing" textLength="80" x="811" y="131.3613">:AuthService</text><rect fill="#E3E3E3" height="49.2188" rx="2.5" ry="2.5" style="stroke:#181818;stroke-width:0.5;" width="94" x="804" y="631.3594"/><text fill="#000000" font-family="sans-serif" font-size="14" font-style="italic" lengthAdjust="spacing" textLength="60" x="821" y="652.8926">&#171;service&#187;</text><text fill="#000000" font-family="sans-serif" font-size="14" lengthAdjust="spacing" textLength="80" x="811" y="670.502">:AuthService</text><rect fill="#E3E3E3" height="49.2188" rx="2.5" ry="2.5" style="stroke:#181818;stroke-width:0.5;" width="177" x="908" y="92.2188"/><text fill="#000000" font-family="sans-serif" font-size="14" font-style="italic" lengthAdjust="spacing" textLength="60" x="966.5" y="113.752">&#171;service&#187;</text><text fill="#000000" font-family="sans-serif" font-size="14" lengthAdjust="spacing" textLength="163" x="915" y="131.3613">OperationRequestService</text><rect fill="#E3E3E3" height="49.2188" rx="2.5" ry="2.5" style="stroke:#181818;stroke-width:0.5;" width="177" x="908" y="631.3594"/><text fill="#000000" font-family="sans-serif" font-size="14" font-style="italic" lengthAdjust="spacing" textLength="60" x="966.5" y="652.8926">&#171;service&#187;</text><text fill="#000000" font-family="sans-serif" font-size="14" lengthAdjust="spacing" textLength="163" x="915" y="670.502">OperationRequestService</text><rect fill="#E3E3E3" height="49.2188" rx="2.5" ry="2.5" style="stroke:#181818;stroke-width:0.5;" width="160" x="1859.5" y="92.2188"/><text fill="#000000" font-family="sans-serif" font-size="14" font-style="italic" lengthAdjust="spacing" textLength="36" x="1921.5" y="113.752">&#171;dto&#187;</text><text fill="#000000" font-family="sans-serif" font-size="14" lengthAdjust="spacing" textLength="146" x="1866.5" y="131.3613">OperationRequestDTO</text><rect fill="#E3E3E3" height="49.2188" rx="2.5" ry="2.5" style="stroke:#181818;stroke-width:0.5;" width="160" x="1859.5" y="631.3594"/><text fill="#000000" font-family="sans-serif" font-size="14" font-style="italic" lengthAdjust="spacing" textLength="36" x="1921.5" y="652.8926">&#171;dto&#187;</text><text fill="#000000" font-family="sans-serif" font-size="14" lengthAdjust="spacing" textLength="146" x="1866.5" y="670.502">OperationRequestDTO</text><text fill="#000000" font-family="sans-serif" font-size="14" font-style="italic" lengthAdjust="spacing" textLength="71" x="2088" y="121.752">&#171;interface&#187;</text><text fill="#000000" font-family="sans-serif" font-size="14" lengthAdjust="spacing" textLength="188" x="2029.5" y="139.3613">:OperationRequestRepository</text><path d="M2108.5,71.2188 C2108.5,61.2188 2126.5,61.2188 2126.5,61.2188 C2126.5,61.2188 2144.5,61.2188 2144.5,71.2188 L2144.5,97.2188 C2144.5,107.2188 2126.5,107.2188 2126.5,107.2188 C2126.5,107.2188 2108.5,107.2188 2108.5,97.2188 L2108.5,71.2188 " fill="#E3E3E3" style="stroke:#181818;stroke-width:1.5;"/><path d="M2108.5,71.2188 C2108.5,81.2188 2126.5,81.2188 2126.5,81.2188 C2126.5,81.2188 2144.5,81.2188 2144.5,71.2188 " fill="none" style="stroke:#181818;stroke-width:1.5;"/><text fill="#000000" font-family="sans-serif" font-size="14" font-style="italic" lengthAdjust="spacing" textLength="71" x="2088" y="645.8926">&#171;interface&#187;</text><text fill="#000000" font-family="sans-serif" font-size="14" lengthAdjust="spacing" textLength="188" x="2029.5" y="663.502">:OperationRequestRepository</text><path d="M2108.5,676.5781 C2108.5,666.5781 2126.5,666.5781 2126.5,666.5781 C2126.5,666.5781 2144.5,666.5781 2144.5,676.5781 L2144.5,702.5781 C2144.5,712.5781 2126.5,712.5781 2126.5,712.5781 C2126.5,712.5781 2108.5,712.5781 2108.5,702.5781 L2108.5,676.5781 " fill="#E3E3E3" style="stroke:#181818;stroke-width:1.5;"/><path d="M2108.5,676.5781 C2108.5,686.5781 2126.5,686.5781 2126.5,686.5781 C2126.5,686.5781 2144.5,686.5781 2144.5,676.5781 " fill="none" style="stroke:#181818;stroke-width:1.5;"/><rect fill="#E3E3E3" height="49.2188" rx="2.5" ry="2.5" style="stroke:#181818;stroke-width:0.5;" width="115" x="2233.5" y="92.2188"/><text fill="#000000" font-family="sans-serif" font-size="14" font-style="italic" lengthAdjust="spacing" textLength="71" x="2255.5" y="113.752">&#171;itnerface&#187;</text><text fill="#000000" font-family="sans-serif" font-size="14" lengthAdjust="spacing" textLength="101" x="2240.5" y="131.3613">:StaffRepository</text><rect fill="#E3E3E3" height="49.2188" rx="2.5" ry="2.5" style="stroke:#181818;stroke-width:0.5;" width="115" x="2233.5" y="631.3594"/><text fill="#000000" font-family="sans-serif" font-size="14" font-style="italic" lengthAdjust="spacing" textLength="71" x="2255.5" y="652.8926">&#171;itnerface&#187;</text><text fill="#000000" font-family="sans-serif" font-size="14" lengthAdjust="spacing" textLength="101" x="2240.5" y="670.502">:StaffRepository</text><rect fill="#FFFFFF" height="439.5703" style="stroke:#181818;stroke-width:1.0;" width="10" x="534" y="174.7891"/><rect fill="#FFFFFF" height="30.3516" style="stroke:#181818;stroke-width:1.0;" width="10" x="846" y="205.1406"/><rect fill="#FFFFFF" height="318.1641" style="stroke:#181818;stroke-width:1.0;" width="10" x="991.5" y="265.8438"/><rect fill="#FFFFFF" height="28" style="stroke:#181818;stroke-width:1.0;" width="10" x="996.5" y="511.6563"/><rect fill="#FFFFFF" height="30.3516" style="stroke:#181818;stroke-width:1.0;" width="10" x="1934.5" y="442.9531"/><rect fill="#FFFFFF" height="30.3516" style="stroke:#181818;stroke-width:1.0;" width="10" x="2121.5" y="356.8984"/><rect fill="#FFFFFF" height="30.3516" style="stroke:#181818;stroke-width:1.0;" width="10" x="2286" y="296.1953"/><polygon fill="#181818" points="522,170.7891,532,174.7891,522,178.7891,526,174.7891" style="stroke:#181818;stroke-width:1.0;"/><line style="stroke:#181818;stroke-width:1.0;stroke-dasharray:2.0,2.0;" x1="0" x2="528" y1="174.7891" y2="174.7891"/><text fill="#000000" font-family="sans-serif" font-size="13" lengthAdjust="spacing" textLength="515" x="7" y="169.9326">GET /api/staff/operation-requests/search/?staffId={{staffId}}&amp;patientName={{patientName}}</text><polygon fill="#181818" points="834,201.1406,844,205.1406,834,209.1406,838,205.1406" style="stroke:#181818;stroke-width:1.0;"/><line style="stroke:#181818;stroke-width:1.0;" x1="544" x2="840" y1="205.1406" y2="205.1406"/><text fill="#000000" font-family="sans-serif" font-size="13" lengthAdjust="spacing" textLength="283" x="551" y="200.2842">AuthenticateAsync(operationRequestDTO.staffId)</text><polygon fill="#181818" points="555,231.4922,545,235.4922,555,239.4922,551,235.4922" style="stroke:#181818;stroke-width:1.0;"/><line style="stroke:#181818;stroke-width:1.0;stroke-dasharray:2.0,2.0;" x1="549" x2="850" y1="235.4922" y2="235.4922"/><text fill="#000000" font-family="sans-serif" font-size="13" lengthAdjust="spacing" textLength="90" x="561" y="230.6357">IsAuthenticated</text><polygon fill="#181818" points="979.5,261.8438,989.5,265.8438,979.5,269.8438,983.5,265.8438" style="stroke:#181818;stroke-width:1.0;"/><line style="stroke:#181818;stroke-width:1.0;" x1="544" x2="985.5" y1="265.8438" y2="265.8438"/><text fill="#000000" font-family="sans-serif" font-size="13" lengthAdjust="spacing" textLength="381" x="551" y="260.9873">SearchByPatientNameAsync(operationRequestDTO.patientName)</text><polygon fill="#181818" points="2274,292.1953,2284,296.1953,2274,300.1953,2278,296.1953" style="stroke:#181818;stroke-width:1.0;"/><line style="stroke:#181818;stroke-width:1.0;" x1="1001.5" x2="2280" y1="296.1953" y2="296.1953"/><text fill="#000000" font-family="sans-serif" font-size="13" lengthAdjust="spacing" textLength="257" x="1008.5" y="291.3389">GetStaffAsync(operationRequestDTO.staffId)</text><polygon fill="#181818" points="1012.5,322.5469,1002.5,326.5469,1012.5,330.5469,1008.5,326.5469" style="stroke:#181818;stroke-width:1.0;"/><line style="stroke:#181818;stroke-width:1.0;stroke-dasharray:2.0,2.0;" x1="1006.5" x2="2290" y1="326.5469" y2="326.5469"/><text fill="#000000" font-family="sans-serif" font-size="13" lengthAdjust="spacing" textLength="24" x="1018.5" y="321.6904">staff</text><polygon fill="#181818" points="2109.5,352.8984,2119.5,356.8984,2109.5,360.8984,2113.5,356.8984" style="stroke:#181818;stroke-width:1.0;"/><line style="stroke:#181818;stroke-width:1.0;" x1="1001.5" x2="2115.5" y1="356.8984" y2="356.8984"/><text fill="#000000" font-family="sans-serif" font-size="13" lengthAdjust="spacing" textLength="504" x="1008.5" y="352.042">GetOperationRequestsByPatientNameAsync(staff, operationRequestDTO.patientName)</text><polygon fill="#181818" points="1012.5,383.25,1002.5,387.25,1012.5,391.25,1008.5,387.25" style="stroke:#181818;stroke-width:1.0;"/><line style="stroke:#181818;stroke-width:1.0;stroke-dasharray:2.0,2.0;" x1="1006.5" x2="2125.5" y1="387.25" y2="387.25"/><text fill="#000000" font-family="sans-serif" font-size="13" lengthAdjust="spacing" textLength="223" x="1018.5" y="382.3936">lisDTO = new List&lt;OperationRequest&gt;</text><path d="M898,402.25 L971,402.25 L971,410.6016 L961,420.6016 L898,420.6016 L898,402.25 " fill="#EEEEEE" style="stroke:#000000;stroke-width:1.5;"/><rect fill="none" height="152.4063" style="stroke:#000000;stroke-width:1.5;" width="1131.5" x="898" y="402.25"/><text fill="#000000" font-family="sans-serif" font-size="13" font-weight="bold" lengthAdjust="spacing" textLength="28" x="913" y="416.7451">loop</text><text fill="#000000" font-family="sans-serif" font-size="11" font-weight="bold" lengthAdjust="spacing" textLength="87" x="986" y="415.6689">[through all list]</text><polygon fill="#181818" points="1922.5,438.9531,1932.5,442.9531,1922.5,446.9531,1926.5,442.9531" style="stroke:#181818;stroke-width:1.0;"/><line style="stroke:#181818;stroke-width:1.0;" x1="1001.5" x2="1928.5" y1="442.9531" y2="442.9531"/><text fill="#000000" font-family="sans-serif" font-size="13" lengthAdjust="spacing" textLength="914" x="1008.5" y="438.0967">new OperationRequestDTO(operationRequest[i].operationRequestID, operationRequest[i].patientName, operationRequest[i].priority, operationRequest[i].status)</text><polygon fill="#181818" points="1012.5,469.3047,1002.5,473.3047,1012.5,477.3047,1008.5,473.3047" style="stroke:#181818;stroke-width:1.0;"/><line style="stroke:#181818;stroke-width:1.0;stroke-dasharray:2.0,2.0;" x1="1006.5" x2="1938.5" y1="473.3047" y2="473.3047"/><text fill="#000000" font-family="sans-serif" font-size="13" lengthAdjust="spacing" textLength="127" x="1018.5" y="468.4482">operationRequestDTO</text><line style="stroke:#181818;stroke-width:1.0;" x1="1006.5" x2="1048.5" y1="503.6563" y2="503.6563"/><line style="stroke:#181818;stroke-width:1.0;" x1="1048.5" x2="1048.5" y1="503.6563" y2="516.6563"/><line style="stroke:#181818;stroke-width:1.0;" x1="1007.5" x2="1048.5" y1="516.6563" y2="516.6563"/><polygon fill="#181818" points="1017.5,512.6563,1007.5,516.6563,1017.5,520.6563,1013.5,516.6563" style="stroke:#181818;stroke-width:1.0;"/><text fill="#000000" font-family="sans-serif" font-size="13" lengthAdjust="spacing" textLength="205" x="1013.5" y="498.7998">listDTO.Add(operationRequestDTO)</text><polygon fill="#181818" points="555,580.0078,545,584.0078,555,588.0078,551,584.0078" style="stroke:#181818;stroke-width:1.0;"/><line style="stroke:#181818;stroke-width:1.0;stroke-dasharray:2.0,2.0;" x1="549" x2="995.5" y1="584.0078" y2="584.0078"/><text fill="#000000" font-family="sans-serif" font-size="13" lengthAdjust="spacing" textLength="43" x="561" y="579.1514">listDTO</text><polygon fill="#181818" points="11,610.3594,1,614.3594,11,618.3594,7,614.3594" style="stroke:#181818;stroke-width:1.0;"/><line style="stroke:#181818;stroke-width:1.0;stroke-dasharray:2.0,2.0;" x1="5" x2="538" y1="614.3594" y2="614.3594"/><text fill="#000000" font-family="sans-serif" font-size="13" lengthAdjust="spacing" textLength="150" x="17" y="609.5029">return 200 OK={message}</text><!--SRC=[bLNHRjiW57tdAr0UfaQQcsnlYvnCMJDDqQQbghkdRG_KlabGRV3WkfLLvTyB974njgkEbnWuvzvppmMYxxaecM85BQIGwLx90YYg2eXkTagMthCT95ZdG1MaoCGkzm5wppBvoCMERbckWH3aQA19hH4Aci2_2aGATCNPpi8lacGrfX7zTJNzyEcFI82fT4_lQdhDa8D0-fCLG4nev2alcLdObA3CdXGtDfR6AobGoJm7HPcctYoEqsQoMBHYZ6RB2lS9g0UUmiZolBaXwkDNm0epd_66_h_KrUt6qknF76Se3JnZoEwO1YCkHDz0AJL7gMgdzMLgo5mWg2thP1pD4cJRRK0DrYmVHSCd98eMdeKp-kthBPsmaa-q9KxaMLYaZihqHBkEJJuxm3gRFpsTlWw7T-MnXxQ5PjsR7Gw4fSWV68ANZb0pl0OQBLvRPcvY0l3Kq9Qw5kc5xDfwUKe_Tj6QB5uWjs67t_EmyBNsisKD9uFUa3tI6zd7C_sbldwfVrYzPr9GmLbf8wMHlWZRQle6wDRUQ5CxKJjO0t0vW_CJ-OMwa2suvrR897rr12M4zq3tcEYIlgTlyh9Lva25GyNbNDlREgS27kaFhZ4ErIs6IX_8b4jPKZIlRBNRKvRdDWMs484x9l_CfUzvJJez_it_NePhwrNNA8lpZ1e0A2uLnxf_rxG0AptkI6yCCFewctPOGricztInb-YPsmVnRuRNFtSebbdMTnzUKHy-6qC7l0S68kiUy-2bEGaZhuHqUt4KjNWAi5A2VfnEwURx_Aa0hSqVy-7uFdX1lFULa6S0]--></g></svg>