<?xml version="1.0" encoding="us-ascii" standalone="no"?><svg xmlns="http://www.w3.org/2000/svg" xmlns:xlink="http://www.w3.org/1999/xlink" contentStyleType="text/css" height="795px" preserveAspectRatio="none" style="width:1317px;height:795px;background:#FFFFFF;" version="1.1" viewBox="0 0 1317 795" width="1317px" zoomAndPan="magnify"><defs/><g><text fill="#000000" font-family="sans-serif" font-size="14" font-weight="bold" lengthAdjust="spacing" textLength="190" x="556.5" y="24.5332">Class Diagram (CD) - UC019</text><!--class OperationRequestController--><g id="elem_OperationRequestController"><rect codeLine="9" fill="#F1F1F1" height="153.6563" id="OperationRequestController" rx="2.5" ry="2.5" style="stroke:#181818;stroke-width:0.5;" width="560" x="633.5" y="45.6094"/><ellipse cx="820.25" cy="61.6094" fill="#ADD1B2" rx="11" ry="11" style="stroke:#181818;stroke-width:1.0;"/><path d="M823.0156,57.4844 Q823.1719,57.2656 823.3594,57.1563 Q823.5469,57.0469 823.7656,57.0469 Q824.1406,57.0469 824.375,57.3125 Q824.6094,57.5625 824.6094,58.1719 L824.6094,59.625 Q824.6094,60.2344 824.375,60.5 Q824.1406,60.7656 823.7656,60.7656 Q823.4219,60.7656 823.2188,60.5625 Q823.0156,60.375 822.9063,59.8594 Q822.8594,59.5 822.6719,59.3125 Q822.3438,58.9375 821.7344,58.7188 Q821.125,58.5 820.5,58.5 Q819.7344,58.5 819.0938,58.8281 Q818.4688,59.1563 817.9688,59.9063 Q817.4844,60.6563 817.4844,61.6875 L817.4844,62.7813 Q817.4844,64.0156 818.375,64.8438 Q819.2656,65.6563 820.8594,65.6563 Q821.7969,65.6563 822.4531,65.4063 Q822.8438,65.25 823.2656,64.8125 Q823.5313,64.5469 823.6719,64.4688 Q823.8281,64.3906 824.0313,64.3906 Q824.3594,64.3906 824.6094,64.6563 Q824.875,64.9063 824.875,65.25 Q824.875,65.5938 824.5313,66 Q824.0313,66.5781 823.2344,66.9063 Q822.1563,67.3594 820.8594,67.3594 Q819.3438,67.3594 818.1406,66.7344 Q817.1563,66.2344 816.4688,65.1719 Q815.7813,64.0938 815.7813,62.8125 L815.7813,61.6563 Q815.7813,60.3281 816.3906,59.1875 Q817.0156,58.0313 818.1094,57.4219 Q819.2031,56.7969 820.4375,56.7969 Q821.1719,56.7969 821.8125,56.9688 Q822.4688,57.125 823.0156,57.4844 Z " fill="#000000"/><text fill="#000000" font-family="sans-serif" font-size="14" lengthAdjust="spacing" textLength="178" x="840.75" y="67.3379">OperationRequestController</text><line style="stroke:#181818;stroke-width:0.5;" x1="634.5" x2="1192.5" y1="77.6094" y2="77.6094"/><text fill="#000000" font-family="sans-serif" font-size="14" lengthAdjust="spacing" textLength="332" x="639.5" y="96.1426">-OperationRequestService operationRequestService</text><text fill="#000000" font-family="sans-serif" font-size="14" lengthAdjust="spacing" textLength="282" x="639.5" y="113.752">-AuthenticationService authenticationService</text><line style="stroke:#181818;stroke-width:0.5;" x1="634.5" x2="1192.5" y1="120.8281" y2="120.8281"/><text fill="#000000" font-family="sans-serif" font-size="14" lengthAdjust="spacing" textLength="548" x="639.5" y="139.3613">+SearchByOperationTypeAsync(operationRequestDTO: OperationRequestDTO): Task</text><text fill="#000000" font-family="sans-serif" font-size="14" lengthAdjust="spacing" textLength="533" x="639.5" y="156.9707">+SearchByPatientNameAsync(operationRequestDTO: OperationRequestDTO): Task</text><text fill="#000000" font-family="sans-serif" font-size="14" lengthAdjust="spacing" textLength="497" x="639.5" y="174.5801">+SearchByPriorityAsync(operationRequestDTO: OperationRequestDTO): Task</text><text fill="#000000" font-family="sans-serif" font-size="14" lengthAdjust="spacing" textLength="493" x="639.5" y="192.1895">+SearchByStatusAsync(operationRequestDTO: OperationRequestDTO): Task</text></g><!--class OperationRequestService--><g id="elem_OperationRequestService"><rect codeLine="18" fill="#F1F1F1" height="153.6563" id="OperationRequestService" rx="2.5" ry="2.5" style="stroke:#181818;stroke-width:0.5;" width="560" x="408.5" y="277.6094"/><ellipse cx="602.75" cy="293.6094" fill="#ADD1B2" rx="11" ry="11" style="stroke:#181818;stroke-width:1.0;"/><path d="M605.5156,289.4844 Q605.6719,289.2656 605.8594,289.1563 Q606.0469,289.0469 606.2656,289.0469 Q606.6406,289.0469 606.875,289.3125 Q607.1094,289.5625 607.1094,290.1719 L607.1094,291.625 Q607.1094,292.2344 606.875,292.5 Q606.6406,292.7656 606.2656,292.7656 Q605.9219,292.7656 605.7188,292.5625 Q605.5156,292.375 605.4063,291.8594 Q605.3594,291.5 605.1719,291.3125 Q604.8438,290.9375 604.2344,290.7188 Q603.625,290.5 603,290.5 Q602.2344,290.5 601.5938,290.8281 Q600.9688,291.1563 600.4688,291.9063 Q599.9844,292.6563 599.9844,293.6875 L599.9844,294.7813 Q599.9844,296.0156 600.875,296.8438 Q601.7656,297.6563 603.3594,297.6563 Q604.2969,297.6563 604.9531,297.4063 Q605.3438,297.25 605.7656,296.8125 Q606.0313,296.5469 606.1719,296.4688 Q606.3281,296.3906 606.5313,296.3906 Q606.8594,296.3906 607.1094,296.6563 Q607.375,296.9063 607.375,297.25 Q607.375,297.5938 607.0313,298 Q606.5313,298.5781 605.7344,298.9063 Q604.6563,299.3594 603.3594,299.3594 Q601.8438,299.3594 600.6406,298.7344 Q599.6563,298.2344 598.9688,297.1719 Q598.2813,296.0938 598.2813,294.8125 L598.2813,293.6563 Q598.2813,292.3281 598.8906,291.1875 Q599.5156,290.0313 600.6094,289.4219 Q601.7031,288.7969 602.9375,288.7969 Q603.6719,288.7969 604.3125,288.9688 Q604.9688,289.125 605.5156,289.4844 Z " fill="#000000"/><text fill="#000000" font-family="sans-serif" font-size="14" lengthAdjust="spacing" textLength="163" x="623.25" y="299.3379">OperationRequestService</text><line style="stroke:#181818;stroke-width:0.5;" x1="409.5" x2="967.5" y1="309.6094" y2="309.6094"/><text fill="#000000" font-family="sans-serif" font-size="14" lengthAdjust="spacing" textLength="374" x="414.5" y="328.1426">-OperationRequestRepository operationRequestRepository</text><text fill="#000000" font-family="sans-serif" font-size="14" lengthAdjust="spacing" textLength="201" x="414.5" y="345.752">-StaffRepository staffRepository</text><line style="stroke:#181818;stroke-width:0.5;" x1="409.5" x2="967.5" y1="352.8281" y2="352.8281"/><text fill="#000000" font-family="sans-serif" font-size="14" lengthAdjust="spacing" textLength="548" x="414.5" y="371.3613">+SearchByOperationTypeAsync(operationRequestDTO: OperationRequestDTO): Task</text><text fill="#000000" font-family="sans-serif" font-size="14" lengthAdjust="spacing" textLength="533" x="414.5" y="388.9707">+SearchByPatientNameAsync(operationRequestDTO: OperationRequestDTO): Task</text><text fill="#000000" font-family="sans-serif" font-size="14" lengthAdjust="spacing" textLength="497" x="414.5" y="406.5801">+SearchByPriorityAsync(operationRequestDTO: OperationRequestDTO): Task</text><text fill="#000000" font-family="sans-serif" font-size="14" lengthAdjust="spacing" textLength="493" x="414.5" y="424.1895">+SearchByStatusAsync(operationRequestDTO: OperationRequestDTO): Task</text></g><!--class OperationRequestDTO--><g id="elem_OperationRequestDTO"><rect codeLine="27" fill="#F1F1F1" height="118.4375" id="OperationRequestDTO" rx="2.5" ry="2.5" style="stroke:#181818;stroke-width:0.5;" width="345" x="7" y="509.6094"/><ellipse cx="102.25" cy="525.6094" fill="#ADD1B2" rx="11" ry="11" style="stroke:#181818;stroke-width:1.0;"/><path d="M105.0156,521.4844 Q105.1719,521.2656 105.3594,521.1563 Q105.5469,521.0469 105.7656,521.0469 Q106.1406,521.0469 106.375,521.3125 Q106.6094,521.5625 106.6094,522.1719 L106.6094,523.625 Q106.6094,524.2344 106.375,524.5 Q106.1406,524.7656 105.7656,524.7656 Q105.4219,524.7656 105.2188,524.5625 Q105.0156,524.375 104.9063,523.8594 Q104.8594,523.5 104.6719,523.3125 Q104.3438,522.9375 103.7344,522.7188 Q103.125,522.5 102.5,522.5 Q101.7344,522.5 101.0938,522.8281 Q100.4688,523.1563 99.9688,523.9063 Q99.4844,524.6563 99.4844,525.6875 L99.4844,526.7813 Q99.4844,528.0156 100.375,528.8438 Q101.2656,529.6563 102.8594,529.6563 Q103.7969,529.6563 104.4531,529.4063 Q104.8438,529.25 105.2656,528.8125 Q105.5313,528.5469 105.6719,528.4688 Q105.8281,528.3906 106.0313,528.3906 Q106.3594,528.3906 106.6094,528.6563 Q106.875,528.9063 106.875,529.25 Q106.875,529.5938 106.5313,530 Q106.0313,530.5781 105.2344,530.9063 Q104.1563,531.3594 102.8594,531.3594 Q101.3438,531.3594 100.1406,530.7344 Q99.1563,530.2344 98.4688,529.1719 Q97.7813,528.0938 97.7813,526.8125 L97.7813,525.6563 Q97.7813,524.3281 98.3906,523.1875 Q99.0156,522.0313 100.1094,521.4219 Q101.2031,520.7969 102.4375,520.7969 Q103.1719,520.7969 103.8125,520.9688 Q104.4688,521.125 105.0156,521.4844 Z " fill="#000000"/><text fill="#000000" font-family="sans-serif" font-size="14" lengthAdjust="spacing" textLength="146" x="122.75" y="531.3379">OperationRequestDTO</text><line style="stroke:#181818;stroke-width:0.5;" x1="8" x2="351" y1="541.6094" y2="541.6094"/><text fill="#000000" font-family="sans-serif" font-size="14" lengthAdjust="spacing" textLength="174" x="13" y="560.1426">-operationRequestID: string</text><text fill="#000000" font-family="sans-serif" font-size="14" lengthAdjust="spacing" textLength="127" x="13" y="577.752">-patientName: string</text><text fill="#000000" font-family="sans-serif" font-size="14" lengthAdjust="spacing" textLength="86" x="13" y="595.3613">-status: string</text><line style="stroke:#181818;stroke-width:0.5;" x1="8" x2="351" y1="602.4375" y2="602.4375"/><text fill="#000000" font-family="sans-serif" font-size="14" lengthAdjust="spacing" textLength="333" x="13" y="620.9707">+OperationRequestDTO(operationRequestID: string)</text></g><!--class OperationRequestRepository--><g id="elem_OperationRequestRepository"><rect codeLine="34" fill="#F1F1F1" height="118.4375" id="OperationRequestRepository" rx="2.5" ry="2.5" style="stroke:#181818;stroke-width:0.5;" width="602" x="387.5" y="509.6094"/><ellipse cx="592.25" cy="525.6094" fill="#B4A7E5" rx="11" ry="11" style="stroke:#181818;stroke-width:1.0;"/><path d="M593.2031,522.25 L593.2031,528.9063 L594.9219,528.9063 Q595.5313,528.9063 595.7969,529.1406 Q596.0625,529.375 596.0625,529.7656 Q596.0625,530.1406 595.7969,530.375 Q595.5313,530.6094 594.9219,530.6094 L589.7813,530.6094 Q589.1719,530.6094 588.9063,530.375 Q588.6406,530.1406 588.6406,529.75 Q588.6406,529.375 588.9063,529.1406 Q589.1719,528.9063 589.7813,528.9063 L591.5,528.9063 L591.5,522.25 L589.7813,522.25 Q589.1719,522.25 588.9063,522.0156 Q588.6406,521.7813 588.6406,521.3906 Q588.6406,521.0156 588.9063,520.7813 Q589.1719,520.5469 589.7813,520.5469 L594.9219,520.5469 Q595.5313,520.5469 595.7969,520.7813 Q596.0625,521.0156 596.0625,521.3906 Q596.0625,521.7813 595.7969,522.0156 Q595.5313,522.25 594.9219,522.25 L593.2031,522.25 Z " fill="#000000"/><text fill="#000000" font-family="sans-serif" font-size="14" font-style="italic" lengthAdjust="spacing" textLength="184" x="612.75" y="531.3379">OperationRequestRepository</text><line style="stroke:#181818;stroke-width:0.5;" x1="388.5" x2="988.5" y1="541.6094" y2="541.6094"/><line style="stroke:#181818;stroke-width:0.5;" x1="388.5" x2="988.5" y1="549.6094" y2="549.6094"/><text fill="#000000" font-family="sans-serif" font-size="14" lengthAdjust="spacing" textLength="590" x="393.5" y="568.1426">+GetOperationTypeAsync(staff: Staff, operationType: string): Task&lt;List&lt;OperationRequest&gt;&gt;</text><text fill="#000000" font-family="sans-serif" font-size="14" lengthAdjust="spacing" textLength="562" x="393.5" y="585.752">+GetPatientNameAsync(staff: Staff, patientName: string): Task&lt;List&lt;OperationRequest&gt;&gt;</text><text fill="#000000" font-family="sans-serif" font-size="14" lengthAdjust="spacing" textLength="490" x="393.5" y="603.3613">+GetPriorityAsync(staff: Staff, priority: string): Task&lt;List&lt;OperationRequest&gt;&gt;</text><text fill="#000000" font-family="sans-serif" font-size="14" lengthAdjust="spacing" textLength="481" x="393.5" y="620.9707">+GetStatusAsync(staff: Staff, status: string): Task&lt;List&lt;OperationRequest&gt;&gt;</text></g><!--class StaffRepository--><g id="elem_StaffRepository"><rect codeLine="41" fill="#F1F1F1" height="65.6094" id="StaffRepository" rx="2.5" ry="2.5" style="stroke:#181818;stroke-width:0.5;" width="285" x="1025" y="535.6094"/><ellipse cx="1114.75" cy="551.6094" fill="#B4A7E5" rx="11" ry="11" style="stroke:#181818;stroke-width:1.0;"/><path d="M1115.7031,548.25 L1115.7031,554.9063 L1117.4219,554.9063 Q1118.0313,554.9063 1118.2969,555.1406 Q1118.5625,555.375 1118.5625,555.7656 Q1118.5625,556.1406 1118.2969,556.375 Q1118.0313,556.6094 1117.4219,556.6094 L1112.2813,556.6094 Q1111.6719,556.6094 1111.4063,556.375 Q1111.1406,556.1406 1111.1406,555.75 Q1111.1406,555.375 1111.4063,555.1406 Q1111.6719,554.9063 1112.2813,554.9063 L1114,554.9063 L1114,548.25 L1112.2813,548.25 Q1111.6719,548.25 1111.4063,548.0156 Q1111.1406,547.7813 1111.1406,547.3906 Q1111.1406,547.0156 1111.4063,546.7813 Q1111.6719,546.5469 1112.2813,546.5469 L1117.4219,546.5469 Q1118.0313,546.5469 1118.2969,546.7813 Q1118.5625,547.0156 1118.5625,547.3906 Q1118.5625,547.7813 1118.2969,548.0156 Q1118.0313,548.25 1117.4219,548.25 L1115.7031,548.25 Z " fill="#000000"/><text fill="#000000" font-family="sans-serif" font-size="14" font-style="italic" lengthAdjust="spacing" textLength="97" x="1135.25" y="557.3379">StaffRepository</text><line style="stroke:#181818;stroke-width:0.5;" x1="1026" x2="1309" y1="567.6094" y2="567.6094"/><line style="stroke:#181818;stroke-width:0.5;" x1="1026" x2="1309" y1="575.6094" y2="575.6094"/><text fill="#000000" font-family="sans-serif" font-size="14" lengthAdjust="spacing" textLength="273" x="1031" y="594.1426">+GetStaffAsync(staffId: string): Task&lt;Staff&gt;</text></g><!--class Staff--><g id="elem_Staff"><rect codeLine="45" fill="#F1F1F1" height="83.2188" id="Staff" rx="2.5" ry="2.5" style="stroke:#181818;stroke-width:0.5;" width="140" x="1097.5" y="705.6094"/><ellipse cx="1148.75" cy="721.6094" fill="#ADD1B2" rx="11" ry="11" style="stroke:#181818;stroke-width:1.0;"/><path d="M1151.5156,717.4844 Q1151.6719,717.2656 1151.8594,717.1563 Q1152.0469,717.0469 1152.2656,717.0469 Q1152.6406,717.0469 1152.875,717.3125 Q1153.1094,717.5625 1153.1094,718.1719 L1153.1094,719.625 Q1153.1094,720.2344 1152.875,720.5 Q1152.6406,720.7656 1152.2656,720.7656 Q1151.9219,720.7656 1151.7188,720.5625 Q1151.5156,720.375 1151.4063,719.8594 Q1151.3594,719.5 1151.1719,719.3125 Q1150.8438,718.9375 1150.2344,718.7188 Q1149.625,718.5 1149,718.5 Q1148.2344,718.5 1147.5938,718.8281 Q1146.9688,719.1563 1146.4688,719.9063 Q1145.9844,720.6563 1145.9844,721.6875 L1145.9844,722.7813 Q1145.9844,724.0156 1146.875,724.8438 Q1147.7656,725.6563 1149.3594,725.6563 Q1150.2969,725.6563 1150.9531,725.4063 Q1151.3438,725.25 1151.7656,724.8125 Q1152.0313,724.5469 1152.1719,724.4688 Q1152.3281,724.3906 1152.5313,724.3906 Q1152.8594,724.3906 1153.1094,724.6563 Q1153.375,724.9063 1153.375,725.25 Q1153.375,725.5938 1153.0313,726 Q1152.5313,726.5781 1151.7344,726.9063 Q1150.6563,727.3594 1149.3594,727.3594 Q1147.8438,727.3594 1146.6406,726.7344 Q1145.6563,726.2344 1144.9688,725.1719 Q1144.2813,724.0938 1144.2813,722.8125 L1144.2813,721.6563 Q1144.2813,720.3281 1144.8906,719.1875 Q1145.5156,718.0313 1146.6094,717.4219 Q1147.7031,716.7969 1148.9375,716.7969 Q1149.6719,716.7969 1150.3125,716.9688 Q1150.9688,717.125 1151.5156,717.4844 Z " fill="#000000"/><text fill="#000000" font-family="sans-serif" font-size="14" lengthAdjust="spacing" textLength="29" x="1169.25" y="727.3379">Staff</text><line style="stroke:#181818;stroke-width:0.5;" x1="1098.5" x2="1236.5" y1="737.6094" y2="737.6094"/><text fill="#000000" font-family="sans-serif" font-size="14" lengthAdjust="spacing" textLength="86" x="1103.5" y="756.1426">-staffId: string</text><line style="stroke:#181818;stroke-width:0.5;" x1="1098.5" x2="1236.5" y1="763.2188" y2="763.2188"/><text fill="#000000" font-family="sans-serif" font-size="14" lengthAdjust="spacing" textLength="128" x="1103.5" y="781.752">+Staff(staffId: string)</text></g><!--class OperationRequest--><g id="elem_OperationRequest"><rect codeLine="50" fill="#F1F1F1" height="83.2188" id="OperationRequest" rx="2.5" ry="2.5" style="stroke:#181818;stroke-width:0.5;" width="315" x="531" y="705.6094"/><ellipse cx="626.25" cy="721.6094" fill="#ADD1B2" rx="11" ry="11" style="stroke:#181818;stroke-width:1.0;"/><path d="M629.0156,717.4844 Q629.1719,717.2656 629.3594,717.1563 Q629.5469,717.0469 629.7656,717.0469 Q630.1406,717.0469 630.375,717.3125 Q630.6094,717.5625 630.6094,718.1719 L630.6094,719.625 Q630.6094,720.2344 630.375,720.5 Q630.1406,720.7656 629.7656,720.7656 Q629.4219,720.7656 629.2188,720.5625 Q629.0156,720.375 628.9063,719.8594 Q628.8594,719.5 628.6719,719.3125 Q628.3438,718.9375 627.7344,718.7188 Q627.125,718.5 626.5,718.5 Q625.7344,718.5 625.0938,718.8281 Q624.4688,719.1563 623.9688,719.9063 Q623.4844,720.6563 623.4844,721.6875 L623.4844,722.7813 Q623.4844,724.0156 624.375,724.8438 Q625.2656,725.6563 626.8594,725.6563 Q627.7969,725.6563 628.4531,725.4063 Q628.8438,725.25 629.2656,724.8125 Q629.5313,724.5469 629.6719,724.4688 Q629.8281,724.3906 630.0313,724.3906 Q630.3594,724.3906 630.6094,724.6563 Q630.875,724.9063 630.875,725.25 Q630.875,725.5938 630.5313,726 Q630.0313,726.5781 629.2344,726.9063 Q628.1563,727.3594 626.8594,727.3594 Q625.3438,727.3594 624.1406,726.7344 Q623.1563,726.2344 622.4688,725.1719 Q621.7813,724.0938 621.7813,722.8125 L621.7813,721.6563 Q621.7813,720.3281 622.3906,719.1875 Q623.0156,718.0313 624.1094,717.4219 Q625.2031,716.7969 626.4375,716.7969 Q627.1719,716.7969 627.8125,716.9688 Q628.4688,717.125 629.0156,717.4844 Z " fill="#000000"/><text fill="#000000" font-family="sans-serif" font-size="14" lengthAdjust="spacing" textLength="116" x="646.75" y="727.3379">OperationRequest</text><line style="stroke:#181818;stroke-width:0.5;" x1="532" x2="845" y1="737.6094" y2="737.6094"/><text fill="#000000" font-family="sans-serif" font-size="14" lengthAdjust="spacing" textLength="174" x="537" y="756.1426">-operationRequestID: string</text><line style="stroke:#181818;stroke-width:0.5;" x1="532" x2="845" y1="763.2188" y2="763.2188"/><text fill="#000000" font-family="sans-serif" font-size="14" lengthAdjust="spacing" textLength="303" x="537" y="781.752">+OperationRequest(operationRequestID: string)</text></g><!--class AuthenticationService--><g id="elem_AuthenticationService"><rect codeLine="55" fill="#F1F1F1" height="65.6094" id="AuthenticationService" rx="2.5" ry="2.5" style="stroke:#181818;stroke-width:0.5;" width="267" x="1004" y="321.6094"/><ellipse cx="1064.75" cy="337.6094" fill="#ADD1B2" rx="11" ry="11" style="stroke:#181818;stroke-width:1.0;"/><path d="M1067.5156,333.4844 Q1067.6719,333.2656 1067.8594,333.1563 Q1068.0469,333.0469 1068.2656,333.0469 Q1068.6406,333.0469 1068.875,333.3125 Q1069.1094,333.5625 1069.1094,334.1719 L1069.1094,335.625 Q1069.1094,336.2344 1068.875,336.5 Q1068.6406,336.7656 1068.2656,336.7656 Q1067.9219,336.7656 1067.7188,336.5625 Q1067.5156,336.375 1067.4063,335.8594 Q1067.3594,335.5 1067.1719,335.3125 Q1066.8438,334.9375 1066.2344,334.7188 Q1065.625,334.5 1065,334.5 Q1064.2344,334.5 1063.5938,334.8281 Q1062.9688,335.1563 1062.4688,335.9063 Q1061.9844,336.6563 1061.9844,337.6875 L1061.9844,338.7813 Q1061.9844,340.0156 1062.875,340.8438 Q1063.7656,341.6563 1065.3594,341.6563 Q1066.2969,341.6563 1066.9531,341.4063 Q1067.3438,341.25 1067.7656,340.8125 Q1068.0313,340.5469 1068.1719,340.4688 Q1068.3281,340.3906 1068.5313,340.3906 Q1068.8594,340.3906 1069.1094,340.6563 Q1069.375,340.9063 1069.375,341.25 Q1069.375,341.5938 1069.0313,342 Q1068.5313,342.5781 1067.7344,342.9063 Q1066.6563,343.3594 1065.3594,343.3594 Q1063.8438,343.3594 1062.6406,342.7344 Q1061.6563,342.2344 1060.9688,341.1719 Q1060.2813,340.0938 1060.2813,338.8125 L1060.2813,337.6563 Q1060.2813,336.3281 1060.8906,335.1875 Q1061.5156,334.0313 1062.6094,333.4219 Q1063.7031,332.7969 1064.9375,332.7969 Q1065.6719,332.7969 1066.3125,332.9688 Q1066.9688,333.125 1067.5156,333.4844 Z " fill="#000000"/><text fill="#000000" font-family="sans-serif" font-size="14" lengthAdjust="spacing" textLength="137" x="1085.25" y="343.3379">AuthenticationService</text><line style="stroke:#181818;stroke-width:0.5;" x1="1005" x2="1270" y1="353.6094" y2="353.6094"/><line style="stroke:#181818;stroke-width:0.5;" x1="1005" x2="1270" y1="361.6094" y2="361.6094"/><text fill="#000000" font-family="sans-serif" font-size="14" lengthAdjust="spacing" textLength="255" x="1010" y="380.1426">+AuthenticateAsync(staffId: string): Task</text></g><!--link OperationRequestController to OperationRequestService--><g id="link_OperationRequestController_OperationRequestService"><path codeLine="59" d="M838.89,199.8794 C814.46,224.8494 791.526,248.3006 767.106,273.2606 " fill="none" id="OperationRequestController-to-OperationRequestService" style="stroke:#181818;stroke-width:1.0;"/><polygon fill="#181818" points="762.91,277.5494,772.0632,273.9135,766.4067,273.9754,766.3448,268.3189,762.91,277.5494" style="stroke:#181818;stroke-width:1.0;"/><text fill="#000000" font-family="sans-serif" font-size="13" lengthAdjust="spacing" textLength="42" x="809.5" y="244.1045">&#171;uses&#187;</text></g><!--link OperationRequestController to AuthenticationService--><g id="link_OperationRequestController_AuthenticationService"><path codeLine="60" d="M987.78,199.8794 C1028.02,241.1994 1071.4339,285.7709 1101.9839,317.1409 " fill="none" id="OperationRequestController-to-AuthenticationService" style="stroke:#181818;stroke-width:1.0;"/><polygon fill="#181818" points="1106.17,321.4394,1102.7565,312.201,1102.6816,317.8573,1097.0252,317.7824,1106.17,321.4394" style="stroke:#181818;stroke-width:1.0;"/><text fill="#000000" font-family="sans-serif" font-size="13" lengthAdjust="spacing" textLength="42" x="1033.5" y="244.1045">&#171;uses&#187;</text></g><!--link OperationRequestService to OperationRequestRepository--><g id="link_OperationRequestService_OperationRequestRepository"><path codeLine="61" d="M688.5,431.8494 C688.5,457.3694 688.5,479.3994 688.5,503.3194 " fill="none" id="OperationRequestService-to-OperationRequestRepository" style="stroke:#181818;stroke-width:1.0;"/><polygon fill="#181818" points="688.5,509.3194,692.5,500.3194,688.5,504.3194,684.5,500.3194,688.5,509.3194" style="stroke:#181818;stroke-width:1.0;"/><text fill="#000000" font-family="sans-serif" font-size="13" lengthAdjust="spacing" textLength="41" x="689.5" y="476.1045">&#171;calls&#187;</text></g><!--link OperationRequestService to StaffRepository--><g id="link_OperationRequestService_StaffRepository"><path codeLine="62" d="M860.42,431.6994 C941.18,467.4394 1027.6335,505.7008 1089.6935,533.1708 " fill="none" id="OperationRequestService-to-StaffRepository" style="stroke:#181818;stroke-width:1.0;"/><polygon fill="#181818" points="1095.18,535.5994,1088.5692,528.2989,1090.6079,533.5756,1085.3312,535.6143,1095.18,535.5994" style="stroke:#181818;stroke-width:1.0;"/><text fill="#000000" font-family="sans-serif" font-size="13" lengthAdjust="spacing" textLength="41" x="958.5" y="476.1045">&#171;calls&#187;</text></g><!--link OperationRequestService to OperationRequestDTO--><g id="link_OperationRequestService_OperationRequestDTO"><path codeLine="63" d="M505.82,431.6994 C444.23,457.3494 382.0689,483.2426 324.3689,507.2726 " fill="none" id="OperationRequestService-to-OperationRequestDTO" style="stroke:#181818;stroke-width:1.0;"/><polygon fill="#181818" points="318.83,509.5794,328.6761,509.8118,323.4457,507.6571,325.6005,502.4267,318.83,509.5794" style="stroke:#181818;stroke-width:1.0;"/><text fill="#000000" font-family="sans-serif" font-size="13" lengthAdjust="spacing" textLength="57" x="435.5" y="476.1045">&#171;creates&#187;</text></g><!--link OperationRequestRepository to OperationRequest--><g id="link_OperationRequestRepository_OperationRequest"><path codeLine="64" d="M688.5,627.8894 C688.5,653.2994 688.5,676.4594 688.5,699.4594 " fill="none" id="OperationRequestRepository-to-OperationRequest" style="stroke:#181818;stroke-width:1.0;"/><polygon fill="#181818" points="688.5,705.4594,692.5,696.4594,688.5,700.4594,684.5,696.4594,688.5,705.4594" style="stroke:#181818;stroke-width:1.0;"/><text fill="#000000" font-family="sans-serif" font-size="13" lengthAdjust="spacing" textLength="35" x="689.5" y="672.1045">&#171;has&#187;</text></g><!--link StaffRepository to Staff--><g id="link_StaffRepository_Staff"><path codeLine="65" d="M1167.5,601.9794 C1167.5,631.1394 1167.5,668.1294 1167.5,699.5694 " fill="none" id="StaffRepository-to-Staff" style="stroke:#181818;stroke-width:1.0;"/><polygon fill="#181818" points="1167.5,705.5694,1171.5,696.5694,1167.5,700.5694,1163.5,696.5694,1167.5,705.5694" style="stroke:#181818;stroke-width:1.0;"/><text fill="#000000" font-family="sans-serif" font-size="13" lengthAdjust="spacing" textLength="35" x="1168.5" y="672.1045">&#171;has&#187;</text></g><!--SRC=[xLLTZzem47pFh_0ZY29T7niX90hI2QagrON-0DUt0OkSdTgRLkcf_xrsGZxiE41FF5xUxDsPMUrC4dtY8gUAlf2SiXCzG89b1aG1GoeE6KIwRT17-Yn_St4WASqqHBqIowZMAqJ5VnG8MoP5mly0UOWYv6ZerhPEDfmURFTalPcIEVc-VlZuAOgY2ansEIYAN8ed-5c0nhKKg6IMWIAl4J7FtEz8GFtY38WCtzUWLO574CXPrT50QEYs0imIe8eTFvUjshxCOQLBmIQ-q6Q_YmTpcyjfJFPKdro-RwR9I7wbBtTXKrmgZkKTg1AaMEYt4VqTSwzPz8XrJv1BpL6gSk1ULwgXPhmqxVLhz_nkslrCCpsDOJxdTXERpIlpyjVrl5kCMz3LOCxTBA0p6HUOsW6vG50fDGcw49rwrjaZOC3tAYSngUBpeKkPRMYLweKild2D2rzdkMpP1obmkGExk9dPIOH7UwxzBsS_6YwZwyqrFiS5_oryxSkbQKzj- -mBL1tBBdRLkGcQXpcdt5uEwCQ3UsDg1q6ybi9QBVmBEM-WLuHBMx1q5tvny_box1iQayMYqA2D9LS8meEI2mHDJqY-SziIC9fbrnYyaDmAsuM-NmQgmEmq1ExbC8Itu2ErG3-rxP1TI_GF]--></g></svg>