<?xml version="1.0" encoding="us-ascii" standalone="no"?><svg xmlns="http://www.w3.org/2000/svg" xmlns:xlink="http://www.w3.org/1999/xlink" contentStyleType="text/css" height="671px" preserveAspectRatio="none" style="width:1890px;height:671px;background:#FFFFFF;" version="1.1" viewBox="0 0 1890 671" width="1890px" zoomAndPan="magnify"><defs/><g><text fill="#000000" font-family="sans-serif" font-size="14" font-weight="bold" lengthAdjust="spacing" textLength="285" x="801.75" y="29.5332">System Sequence Diagram (SSD) - UC019</text><text fill="#000000" font-family="sans-serif" font-size="14" font-weight="bold" lengthAdjust="spacing" textLength="117" x="885.75" y="47.1426">Search by Status</text><rect fill="#FFFFFF" height="455.9219" style="stroke:#181818;stroke-width:1.0;" width="10" x="460" y="143.7891"/><rect fill="#FFFFFF" height="30.3516" style="stroke:#181818;stroke-width:1.0;" width="10" x="772" y="174.1406"/><rect fill="#FFFFFF" height="334.5156" style="stroke:#181818;stroke-width:1.0;" width="10" x="917.5" y="234.8438"/><rect fill="#FFFFFF" height="28" style="stroke:#181818;stroke-width:1.0;" width="10" x="922.5" y="497.0078"/><rect fill="#FFFFFF" height="30.3516" style="stroke:#181818;stroke-width:1.0;" width="10" x="1462.5" y="428.3047"/><rect fill="#FFFFFF" height="30.3516" style="stroke:#181818;stroke-width:1.0;" width="10" x="1653.5" y="325.8984"/><rect fill="#FFFFFF" height="30.3516" style="stroke:#181818;stroke-width:1.0;" width="10" x="1822" y="265.1953"/><rect fill="none" height="168.7578" style="stroke:#000000;stroke-width:1.5;" width="733.5" x="824" y="371.25"/><line style="stroke:#181818;stroke-width:0.5;stroke-dasharray:5.0,5.0;" x1="465" x2="465" y1="111.4375" y2="617.7109"/><line style="stroke:#181818;stroke-width:0.5;stroke-dasharray:5.0,5.0;" x1="777" x2="777" y1="111.4375" y2="617.7109"/><line style="stroke:#181818;stroke-width:0.5;stroke-dasharray:5.0,5.0;" x1="922" x2="922" y1="111.4375" y2="617.7109"/><line style="stroke:#181818;stroke-width:0.5;stroke-dasharray:5.0,5.0;" x1="1467.5" x2="1467.5" y1="111.4375" y2="617.7109"/><line style="stroke:#181818;stroke-width:0.5;stroke-dasharray:5.0,5.0;" x1="1658.5" x2="1658.5" y1="111.4375" y2="617.7109"/><line style="stroke:#181818;stroke-width:0.5;stroke-dasharray:5.0,5.0;" x1="1826.5" x2="1826.5" y1="111.4375" y2="617.7109"/><rect fill="#E3E3E3" height="49.2188" rx="2.5" ry="2.5" style="stroke:#181818;stroke-width:0.5;" width="192" x="369" y="61.2188"/><text fill="#000000" font-family="sans-serif" font-size="14" font-style="italic" lengthAdjust="spacing" textLength="75" x="427.5" y="82.752">&#171;controller&#187;</text><text fill="#000000" font-family="sans-serif" font-size="14" lengthAdjust="spacing" textLength="178" x="376" y="100.3613">OperationRequestController</text><rect fill="#E3E3E3" height="49.2188" rx="2.5" ry="2.5" style="stroke:#181818;stroke-width:0.5;" width="192" x="369" y="616.7109"/><text fill="#000000" font-family="sans-serif" font-size="14" font-style="italic" lengthAdjust="spacing" textLength="75" x="427.5" y="638.2441">&#171;controller&#187;</text><text fill="#000000" font-family="sans-serif" font-size="14" lengthAdjust="spacing" textLength="178" x="376" y="655.8535">OperationRequestController</text><rect fill="#E3E3E3" height="49.2188" rx="2.5" ry="2.5" style="stroke:#181818;stroke-width:0.5;" width="94" x="730" y="61.2188"/><text fill="#000000" font-family="sans-serif" font-size="14" font-style="italic" lengthAdjust="spacing" textLength="60" x="747" y="82.752">&#171;service&#187;</text><text fill="#000000" font-family="sans-serif" font-size="14" lengthAdjust="spacing" textLength="80" x="737" y="100.3613">:AuthService</text><rect fill="#E3E3E3" height="49.2188" rx="2.5" ry="2.5" style="stroke:#181818;stroke-width:0.5;" width="94" x="730" y="616.7109"/><text fill="#000000" font-family="sans-serif" font-size="14" font-style="italic" lengthAdjust="spacing" textLength="60" x="747" y="638.2441">&#171;service&#187;</text><text fill="#000000" font-family="sans-serif" font-size="14" lengthAdjust="spacing" textLength="80" x="737" y="655.8535">:AuthService</text><rect fill="#E3E3E3" height="49.2188" rx="2.5" ry="2.5" style="stroke:#181818;stroke-width:0.5;" width="177" x="834" y="61.2188"/><text fill="#000000" font-family="sans-serif" font-size="14" font-style="italic" lengthAdjust="spacing" textLength="60" x="892.5" y="82.752">&#171;service&#187;</text><text fill="#000000" font-family="sans-serif" font-size="14" lengthAdjust="spacing" textLength="163" x="841" y="100.3613">OperationRequestService</text><rect fill="#E3E3E3" height="49.2188" rx="2.5" ry="2.5" style="stroke:#181818;stroke-width:0.5;" width="177" x="834" y="616.7109"/><text fill="#000000" font-family="sans-serif" font-size="14" font-style="italic" lengthAdjust="spacing" textLength="60" x="892.5" y="638.2441">&#171;service&#187;</text><text fill="#000000" font-family="sans-serif" font-size="14" lengthAdjust="spacing" textLength="163" x="841" y="655.8535">OperationRequestService</text><rect fill="#E3E3E3" height="49.2188" rx="2.5" ry="2.5" style="stroke:#181818;stroke-width:0.5;" width="160" x="1387.5" y="61.2188"/><text fill="#000000" font-family="sans-serif" font-size="14" font-style="italic" lengthAdjust="spacing" textLength="36" x="1449.5" y="82.752">&#171;dto&#187;</text><text fill="#000000" font-family="sans-serif" font-size="14" lengthAdjust="spacing" textLength="146" x="1394.5" y="100.3613">OperationRequestDTO</text><rect fill="#E3E3E3" height="49.2188" rx="2.5" ry="2.5" style="stroke:#181818;stroke-width:0.5;" width="160" x="1387.5" y="616.7109"/><text fill="#000000" font-family="sans-serif" font-size="14" font-style="italic" lengthAdjust="spacing" textLength="36" x="1449.5" y="638.2441">&#171;dto&#187;</text><text fill="#000000" font-family="sans-serif" font-size="14" lengthAdjust="spacing" textLength="146" x="1394.5" y="655.8535">OperationRequestDTO</text><rect fill="#E3E3E3" height="49.2188" rx="2.5" ry="2.5" style="stroke:#181818;stroke-width:0.5;" width="202" x="1557.5" y="61.2188"/><text fill="#000000" font-family="sans-serif" font-size="14" font-style="italic" lengthAdjust="spacing" textLength="71" x="1623" y="82.752">&#171;interface&#187;</text><text fill="#000000" font-family="sans-serif" font-size="14" lengthAdjust="spacing" textLength="188" x="1564.5" y="100.3613">:OperationRequestRepository</text><rect fill="#E3E3E3" height="49.2188" rx="2.5" ry="2.5" style="stroke:#181818;stroke-width:0.5;" width="202" x="1557.5" y="616.7109"/><text fill="#000000" font-family="sans-serif" font-size="14" font-style="italic" lengthAdjust="spacing" textLength="71" x="1623" y="638.2441">&#171;interface&#187;</text><text fill="#000000" font-family="sans-serif" font-size="14" lengthAdjust="spacing" textLength="188" x="1564.5" y="655.8535">:OperationRequestRepository</text><rect fill="#E3E3E3" height="49.2188" rx="2.5" ry="2.5" style="stroke:#181818;stroke-width:0.5;" width="115" x="1769.5" y="61.2188"/><text fill="#000000" font-family="sans-serif" font-size="14" font-style="italic" lengthAdjust="spacing" textLength="71" x="1791.5" y="82.752">&#171;interface&#187;</text><text fill="#000000" font-family="sans-serif" font-size="14" lengthAdjust="spacing" textLength="101" x="1776.5" y="100.3613">:StaffRepository</text><rect fill="#E3E3E3" height="49.2188" rx="2.5" ry="2.5" style="stroke:#181818;stroke-width:0.5;" width="115" x="1769.5" y="616.7109"/><text fill="#000000" font-family="sans-serif" font-size="14" font-style="italic" lengthAdjust="spacing" textLength="71" x="1791.5" y="638.2441">&#171;interface&#187;</text><text fill="#000000" font-family="sans-serif" font-size="14" lengthAdjust="spacing" textLength="101" x="1776.5" y="655.8535">:StaffRepository</text><rect fill="#FFFFFF" height="455.9219" style="stroke:#181818;stroke-width:1.0;" width="10" x="460" y="143.7891"/><rect fill="#FFFFFF" height="30.3516" style="stroke:#181818;stroke-width:1.0;" width="10" x="772" y="174.1406"/><rect fill="#FFFFFF" height="334.5156" style="stroke:#181818;stroke-width:1.0;" width="10" x="917.5" y="234.8438"/><rect fill="#FFFFFF" height="28" style="stroke:#181818;stroke-width:1.0;" width="10" x="922.5" y="497.0078"/><rect fill="#FFFFFF" height="30.3516" style="stroke:#181818;stroke-width:1.0;" width="10" x="1462.5" y="428.3047"/><rect fill="#FFFFFF" height="30.3516" style="stroke:#181818;stroke-width:1.0;" width="10" x="1653.5" y="325.8984"/><rect fill="#FFFFFF" height="30.3516" style="stroke:#181818;stroke-width:1.0;" width="10" x="1822" y="265.1953"/><polygon fill="#181818" points="448,139.7891,458,143.7891,448,147.7891,452,143.7891" style="stroke:#181818;stroke-width:1.0;"/><line style="stroke:#181818;stroke-width:1.0;stroke-dasharray:2.0,2.0;" x1="0" x2="454" y1="143.7891" y2="143.7891"/><text fill="#000000" font-family="sans-serif" font-size="13" lengthAdjust="spacing" textLength="441" x="7" y="138.9326">GET /api/staff/operation-requests/search/?staffId={{staffId}}&amp;status={{status}}</text><polygon fill="#181818" points="760,170.1406,770,174.1406,760,178.1406,764,174.1406" style="stroke:#181818;stroke-width:1.0;"/><line style="stroke:#181818;stroke-width:1.0;" x1="470" x2="766" y1="174.1406" y2="174.1406"/><text fill="#000000" font-family="sans-serif" font-size="13" lengthAdjust="spacing" textLength="283" x="477" y="169.2842">AuthenticateAsync(operationRequestDTO.staffId)</text><polygon fill="#181818" points="481,200.4922,471,204.4922,481,208.4922,477,204.4922" style="stroke:#181818;stroke-width:1.0;"/><line style="stroke:#181818;stroke-width:1.0;stroke-dasharray:2.0,2.0;" x1="475" x2="776" y1="204.4922" y2="204.4922"/><text fill="#000000" font-family="sans-serif" font-size="13" lengthAdjust="spacing" textLength="90" x="487" y="199.6357">IsAuthenticated</text><polygon fill="#181818" points="905.5,230.8438,915.5,234.8438,905.5,238.8438,909.5,234.8438" style="stroke:#181818;stroke-width:1.0;"/><line style="stroke:#181818;stroke-width:1.0;" x1="470" x2="911.5" y1="234.8438" y2="234.8438"/><text fill="#000000" font-family="sans-serif" font-size="13" lengthAdjust="spacing" textLength="267" x="477" y="229.9873">SearchByStatusAsync(operationRequestDTO)</text><polygon fill="#181818" points="1810,261.1953,1820,265.1953,1810,269.1953,1814,265.1953" style="stroke:#181818;stroke-width:1.0;"/><line style="stroke:#181818;stroke-width:1.0;" x1="927.5" x2="1816" y1="265.1953" y2="265.1953"/><text fill="#000000" font-family="sans-serif" font-size="13" lengthAdjust="spacing" textLength="257" x="934.5" y="260.3389">GetStaffAsync(operationRequestDTO.staffId)</text><polygon fill="#181818" points="938.5,291.5469,928.5,295.5469,938.5,299.5469,934.5,295.5469" style="stroke:#181818;stroke-width:1.0;"/><line style="stroke:#181818;stroke-width:1.0;stroke-dasharray:2.0,2.0;" x1="932.5" x2="1826" y1="295.5469" y2="295.5469"/><text fill="#000000" font-family="sans-serif" font-size="13" lengthAdjust="spacing" textLength="24" x="944.5" y="290.6904">staff</text><polygon fill="#181818" points="1641.5,321.8984,1651.5,325.8984,1641.5,329.8984,1645.5,325.8984" style="stroke:#181818;stroke-width:1.0;"/><line style="stroke:#181818;stroke-width:1.0;" x1="927.5" x2="1647.5" y1="325.8984" y2="325.8984"/><text fill="#000000" font-family="sans-serif" font-size="13" lengthAdjust="spacing" textLength="303" x="934.5" y="321.042">GetStatusAsync(staff, operationRequestDTO.status)</text><polygon fill="#181818" points="938.5,352.25,928.5,356.25,938.5,360.25,934.5,356.25" style="stroke:#181818;stroke-width:1.0;"/><line style="stroke:#181818;stroke-width:1.0;stroke-dasharray:2.0,2.0;" x1="932.5" x2="1657.5" y1="356.25" y2="356.25"/><text fill="#000000" font-family="sans-serif" font-size="13" lengthAdjust="spacing" textLength="223" x="944.5" y="351.3936">lisDTO = new List&lt;OperationRequest&gt;</text><path d="M824,371.25 L897,371.25 L897,379.6016 L887,389.6016 L824,389.6016 L824,371.25 " fill="#EEEEEE" style="stroke:#000000;stroke-width:1.5;"/><rect fill="none" height="168.7578" style="stroke:#000000;stroke-width:1.5;" width="733.5" x="824" y="371.25"/><text fill="#000000" font-family="sans-serif" font-size="13" font-weight="bold" lengthAdjust="spacing" textLength="28" x="839" y="385.7451">loop</text><text fill="#000000" font-family="sans-serif" font-size="11" font-weight="bold" lengthAdjust="spacing" textLength="87" x="912" y="384.6689">[through all list]</text><polygon fill="#181818" points="1450.5,424.3047,1460.5,428.3047,1450.5,432.3047,1454.5,428.3047" style="stroke:#181818;stroke-width:1.0;"/><line style="stroke:#181818;stroke-width:1.0;" x1="927.5" x2="1456.5" y1="428.3047" y2="428.3047"/><text fill="#000000" font-family="sans-serif" font-size="13" lengthAdjust="spacing" textLength="394" x="934.5" y="407.0967">new OperationRequestDTO(operationRequest[i].operationRequestID,</text><text fill="#000000" font-family="sans-serif" font-size="13" lengthAdjust="spacing" textLength="516" x="934.5" y="423.4482">operationRequest[i].patientName, operationRequest[i].priority, operationRequest[i].status)</text><polygon fill="#181818" points="938.5,454.6563,928.5,458.6563,938.5,462.6563,934.5,458.6563" style="stroke:#181818;stroke-width:1.0;"/><line style="stroke:#181818;stroke-width:1.0;stroke-dasharray:2.0,2.0;" x1="932.5" x2="1466.5" y1="458.6563" y2="458.6563"/><text fill="#000000" font-family="sans-serif" font-size="13" lengthAdjust="spacing" textLength="127" x="944.5" y="453.7998">operationRequestDTO</text><line style="stroke:#181818;stroke-width:1.0;" x1="932.5" x2="974.5" y1="489.0078" y2="489.0078"/><line style="stroke:#181818;stroke-width:1.0;" x1="974.5" x2="974.5" y1="489.0078" y2="502.0078"/><line style="stroke:#181818;stroke-width:1.0;" x1="933.5" x2="974.5" y1="502.0078" y2="502.0078"/><polygon fill="#181818" points="943.5,498.0078,933.5,502.0078,943.5,506.0078,939.5,502.0078" style="stroke:#181818;stroke-width:1.0;"/><text fill="#000000" font-family="sans-serif" font-size="13" lengthAdjust="spacing" textLength="205" x="939.5" y="484.1514">listDTO.Add(operationRequestDTO)</text><polygon fill="#181818" points="481,565.3594,471,569.3594,481,573.3594,477,569.3594" style="stroke:#181818;stroke-width:1.0;"/><line style="stroke:#181818;stroke-width:1.0;stroke-dasharray:2.0,2.0;" x1="475" x2="921.5" y1="569.3594" y2="569.3594"/><text fill="#000000" font-family="sans-serif" font-size="13" lengthAdjust="spacing" textLength="43" x="487" y="564.5029">listDTO</text><polygon fill="#181818" points="11,595.7109,1,599.7109,11,603.7109,7,599.7109" style="stroke:#181818;stroke-width:1.0;"/><line style="stroke:#181818;stroke-width:1.0;stroke-dasharray:2.0,2.0;" x1="5" x2="464" y1="599.7109" y2="599.7109"/><text fill="#000000" font-family="sans-serif" font-size="13" lengthAdjust="spacing" textLength="150" x="17" y="594.8545">return 200 OK={message}</text><!--SRC=[bLLTRzCm57tFhx3wW3PfMGjlL6bHMH6gG5HQjYV6WqbkMsk97UoRJL7L_uxjjC5n70HvQMoVSy-v7t7LC-CLbRGafU0YEqXH0a5PGwIwaufcptGFAJO540aPKhulN80wq5oyChudEreeY29agA5fen1AaiAl6dW6PCteti2lqdHzJMBoU3Tx-_w9fq1bTY0_6v8YnLf5EYYoZ5MK8zbM82aomUzD58LtWgCKHG6IK4MSLP9atMAvxCMOp5Sr7bAGBoo3YU4vQqrKxPl7yfKlU4t_N-hwOMjevYT9SXG3VpxX7YgX60hPMBj_bfhFE8BSqO7ePAxBjzjvL6_FuqTnl7IAE2UVFpsGAQtOL1dUL5nynR8rfgRATclwmG8s-U9uFB-TJc-KxL-xfLzEfuXco5ueWYCI4VquZTCEd7RCxGAuJalJLghXsPKOblFsB7fjetKgJY1xO1wtrtww6-MgvHqdXs38WFNETZl57vjsXaUDUuOlnZhbpkdIRvrk3g3T-yUgz8NwmJg0rVHc97RpiY5xSASuFZCAvJ5CeIkG3Nv3HbBHi40c8qcC-I-OCj_TWd1u9L-PmiJ_s9PZsOqe5K9K1FLDMUyFX1Q5aS0UmYk0rfzR-S2zC6ZZT_RZrj_Rh6-UU0XOwGqzlTze2SCgMe1aGZ9imgT-ZGUrrWO7X-On5UrLET318D6fRWZYJh_JG3iGgpmV_w22xlsRO6o80p3W-N2KlSlZR2pwIqXxbiHnZoS1Qyd9kzcCRByiZYKefVzTJ-qTu0HnhipV]--></g></svg>