<?xml version="1.0" encoding="us-ascii" standalone="no"?><svg xmlns="http://www.w3.org/2000/svg" xmlns:xlink="http://www.w3.org/1999/xlink" contentStyleType="text/css" height="4410px" preserveAspectRatio="none" style="width:1145px;height:4410px;background:#FFFFFF;" version="1.1" viewBox="0 0 1145 4410" width="1145px" zoomAndPan="magnify"><defs/><g><!--cluster Healthcare Management System--><g id="cluster_Healthcare Management System"><rect fill="none" height="4033" rx="2.5" ry="2.5" style="stroke:#181818;stroke-width:1.0;" width="956" x="183" y="7"/><text fill="#000000" font-family="sans-serif" font-size="14" font-weight="bold" lengthAdjust="spacing" textLength="225" x="548.5" y="23.5332">Healthcare Management System</text></g><!--cluster IAM System--><g id="cluster_IAM System"><rect fill="none" height="340" rx="2.5" ry="2.5" style="stroke:#181818;stroke-width:1.0;" width="308" x="507" y="4064"/><text fill="#000000" font-family="sans-serif" font-size="14" font-weight="bold" lengthAdjust="spacing" textLength="80" x="621" y="4080.5332">IAM System</text></g><g id="elem_Register Backoffice Users"><ellipse cx="661.0042" cy="688.0008" fill="#F1F1F1" rx="100.5042" ry="22.5008" style="stroke:#181818;stroke-width:0.5;"/><text fill="#000000" font-family="sans-serif" font-size="14" lengthAdjust="spacing" textLength="162" x="580.0042" y="691.7293">Register Backoffice Users</text></g><g id="elem_Create Patient Profile"><ellipse cx="661.1756" cy="766.1351" fill="#F1F1F1" rx="88.6756" ry="20.1351" style="stroke:#181818;stroke-width:0.5;"/><text fill="#000000" font-family="sans-serif" font-size="14" lengthAdjust="spacing" textLength="135" x="593.6756" y="769.8636">Create Patient Profile</text></g><g id="elem_Edit Patient Profile"><ellipse cx="661.1887" cy="840.0377" fill="#F1F1F1" rx="80.6887" ry="18.5377" style="stroke:#181818;stroke-width:0.5;"/><text fill="#000000" font-family="sans-serif" font-size="14" lengthAdjust="spacing" textLength="116" x="602.5015" y="843.9661">Edit Patient Profile</text></g><g id="elem_Delete Patient Profile"><ellipse cx="660.8193" cy="913.9639" fill="#F1F1F1" rx="87.8193" ry="19.9639" style="stroke:#181818;stroke-width:0.5;"/><text fill="#000000" font-family="sans-serif" font-size="14" lengthAdjust="spacing" textLength="133" x="594.3193" y="917.6924">Delete Patient Profile</text></g><g id="elem_List/Search Patient Profiles"><ellipse cx="661.0894" cy="992.2179" fill="#F1F1F1" rx="104.0894" ry="23.2179" style="stroke:#181818;stroke-width:0.5;"/><text fill="#000000" font-family="sans-serif" font-size="14" lengthAdjust="spacing" textLength="170" x="576.0894" y="995.9464">List/Search Patient Profiles</text></g><g id="elem_Create Staff Profile"><ellipse cx="660.8351" cy="1068.867" fill="#F1F1F1" rx="82.3351" ry="18.867" style="stroke:#181818;stroke-width:0.5;"/><text fill="#000000" font-family="sans-serif" font-size="14" lengthAdjust="spacing" textLength="120" x="600.8351" y="1072.5955">Create Staff Profile</text></g><g id="elem_Edit Staff Profile"><ellipse cx="660.8525" cy="1140.8705" fill="#F1F1F1" rx="74.8525" ry="17.3705" style="stroke:#181818;stroke-width:0.5;"/><text fill="#000000" font-family="sans-serif" font-size="14" lengthAdjust="spacing" textLength="101" x="607.3525" y="1145.3871">Edit Staff Profile</text></g><g id="elem_Deactivate Staff Profile"><ellipse cx="661.066" cy="1214.9132" fill="#F1F1F1" rx="92.566" ry="20.9132" style="stroke:#181818;stroke-width:0.5;"/><text fill="#000000" font-family="sans-serif" font-size="14" lengthAdjust="spacing" textLength="144" x="589.066" y="1218.6417">Deactivate Staff Profile</text></g><g id="elem_List/Search Staff Profiles"><ellipse cx="660.8945" cy="1292.8789" fill="#F1F1F1" rx="97.3945" ry="21.8789" style="stroke:#181818;stroke-width:0.5;"/><text fill="#000000" font-family="sans-serif" font-size="14" lengthAdjust="spacing" textLength="155" x="583.3945" y="1296.6074">List/Search Staff Profiles</text></g><g id="elem_Manage Operation Types"><ellipse cx="661.0583" cy="1372.9117" fill="#F1F1F1" rx="100.0583" ry="22.4117" style="stroke:#181818;stroke-width:0.5;"/><text fill="#000000" font-family="sans-serif" font-size="14" lengthAdjust="spacing" textLength="161" x="580.5583" y="1376.6402">Manage Operation Types</text></g><g id="elem_List/Search Operation Types"><ellipse cx="661.0675" cy="1455.2135" fill="#F1F1F1" rx="109.0675" ry="24.2135" style="stroke:#181818;stroke-width:0.5;"/><text fill="#000000" font-family="sans-serif" font-size="14" lengthAdjust="spacing" textLength="181" x="570.5675" y="1458.942">List/Search Operation Types</text></g><g id="elem_Have information about staff, operation types and operation requests used in the 3D Module to be in sync with entered in the backoffice module"><ellipse cx="661.1155" cy="1608.8231" fill="#F1F1F1" rx="462.1155" ry="94.8231" style="stroke:#181818;stroke-width:0.5;"/><text fill="#000000" font-family="sans-serif" font-size="14" lengthAdjust="spacing" textLength="902" x="210.1155" y="1612.5516">Have information about staff, operation types and operation requests used in the 3D Module to be in sync with entered in the backoffice module</text></g><g id="elem_Have information about staff's availability and operation schedule to be in sync with the planning module"><ellipse cx="660.9017" cy="113.0803" fill="#F1F1F1" rx="338.4017" ry="70.0803" style="stroke:#181818;stroke-width:0.5;"/><text fill="#000000" font-family="sans-serif" font-size="14" lengthAdjust="spacing" textLength="653" x="334.4017" y="116.8089">Have information about staff's availability and operation schedule to be in sync with the planning module</text></g><g id="elem_Obtain better scheduling of operations in a certain room in a specific day"><ellipse cx="661.0965" cy="269.2193" fill="#F1F1F1" rx="241.5965" ry="50.7193" style="stroke:#181818;stroke-width:0.5;"/><text fill="#000000" font-family="sans-serif" font-size="14" lengthAdjust="spacing" textLength="457" x="432.5965" y="272.9478">Obtain better scheduling of operations in a certain room in a specific day</text></g><g id="elem_Know till what dimension in terms of number of surgeries is possible to ask for the better solution"><ellipse cx="661.1303" cy="420.2261" fill="#F1F1F1" rx="314.1303" ry="65.2261" style="stroke:#181818;stroke-width:0.5;"/><text fill="#000000" font-family="sans-serif" font-size="14" lengthAdjust="spacing" textLength="604" x="359.1303" y="423.9546">Know till what dimension in terms of number of surgeries is possible to ask for the better solution</text></g><g id="elem_Obtain a good schedule, not necessarily the better, in useful time to be adopted"><ellipse cx="661.2433" cy="575.1487" fill="#F1F1F1" rx="263.7433" ry="55.1487" style="stroke:#181818;stroke-width:0.5;"/><text fill="#000000" font-family="sans-serif" font-size="14" lengthAdjust="spacing" textLength="502" x="410.2433" y="578.8772">Obtain a good schedule, not necessarily the better, in useful time to be adopted</text></g><g id="elem_Request an Operation"><ellipse cx="660.8297" cy="1760.0659" fill="#F1F1F1" rx="90.8297" ry="20.5659" style="stroke:#181818;stroke-width:0.5;"/><text fill="#000000" font-family="sans-serif" font-size="14" lengthAdjust="spacing" textLength="140" x="590.8297" y="1763.7945">Request an Operation</text></g><g id="elem_Update Operation Requisition"><ellipse cx="660.847" cy="1840.1694" fill="#F1F1F1" rx="111.347" ry="24.6694" style="stroke:#181818;stroke-width:0.5;"/><text fill="#000000" font-family="sans-serif" font-size="14" lengthAdjust="spacing" textLength="186" x="567.847" y="1843.8979">Update Operation Requisition</text></g><g id="elem_Remove Operation Requisition"><ellipse cx="661.0541" cy="1924.8108" fill="#F1F1F1" rx="114.5541" ry="25.3108" style="stroke:#181818;stroke-width:0.5;"/><text fill="#000000" font-family="sans-serif" font-size="14" lengthAdjust="spacing" textLength="193" x="564.5541" y="1928.5393">Remove Operation Requisition</text></g><g id="elem_List/Search Operation Requisitions"><ellipse cx="661.1055" cy="2013.2211" fill="#F1F1F1" rx="126.6055" ry="27.7211" style="stroke:#181818;stroke-width:0.5;"/><text fill="#000000" font-family="sans-serif" font-size="14" lengthAdjust="spacing" textLength="219" x="551.6055" y="2016.9496">List/Search Operation Requisitions</text></g><g id="elem_Update User Profile"><ellipse cx="661.169" cy="3936.0338" fill="#F1F1F1" rx="83.169" ry="19.0338" style="stroke:#181818;stroke-width:0.5;"/><text fill="#000000" font-family="sans-serif" font-size="14" lengthAdjust="spacing" textLength="122" x="600.169" y="3939.7623">Update User Profile</text></g><g id="elem_Delete Account"><ellipse cx="661.0109" cy="4007.0022" fill="#F1F1F1" rx="73.0109" ry="17.0022" style="stroke:#181818;stroke-width:0.5;"/><text fill="#000000" font-family="sans-serif" font-size="14" lengthAdjust="spacing" textLength="96" x="610.0109" y="4011.5188">Delete Account</text></g><g id="elem_Have integrated UI for all modules"><ellipse cx="660.8414" cy="2103.0683" fill="#F1F1F1" rx="123.3414" ry="27.0683" style="stroke:#181818;stroke-width:0.5;"/><text fill="#000000" font-family="sans-serif" font-size="14" lengthAdjust="spacing" textLength="212" x="554.8414" y="2106.7968">Have integrated UI for all modules</text></g><g id="elem_Adjust application menu according to my role"><ellipse cx="660.9505" cy="2199.1901" fill="#F1F1F1" rx="156.4505" ry="33.6901" style="stroke:#181818;stroke-width:0.5;"/><text fill="#000000" font-family="sans-serif" font-size="14" lengthAdjust="spacing" textLength="282" x="519.9505" y="2202.9186">Adjust application menu according to my role</text></g><g id="elem_Have information shown on 3d Module to be in sync with planning module"><ellipse cx="661.071" cy="2409.0142" fill="#F1F1F1" rx="243.071" ry="51.0142" style="stroke:#181818;stroke-width:0.5;"/><text fill="#000000" font-family="sans-serif" font-size="14" lengthAdjust="spacing" textLength="460" x="431.071" y="2412.7427">Have information shown on 3d Module to be in sync with planning module</text></g><g id="elem_See a 3d representation of the hospital floor"><ellipse cx="661.0357" cy="2528.8071" fill="#F1F1F1" rx="154.5357" ry="33.3071" style="stroke:#181818;stroke-width:0.5;"/><text fill="#000000" font-family="sans-serif" font-size="14" lengthAdjust="spacing" textLength="278" x="522.0357" y="2532.5357">See a 3d representation of the hospital floor</text></g><g id="elem_See appropiate textures mapped onto the floor"><ellipse cx="661.2076" cy="2632.8415" fill="#F1F1F1" rx="162.2076" ry="34.8415" style="stroke:#181818;stroke-width:0.5;"/><text fill="#000000" font-family="sans-serif" font-size="14" lengthAdjust="spacing" textLength="294" x="514.2076" y="2636.57">See appropiate textures mapped onto the floor</text></g><g id="elem_See the hospital floor illuminated with ambient and directional light"><ellipse cx="661.0019" cy="2750.0004" fill="#F1F1F1" rx="220.5019" ry="46.5004" style="stroke:#181818;stroke-width:0.5;"/><text fill="#000000" font-family="sans-serif" font-size="14" lengthAdjust="spacing" textLength="414" x="454.0019" y="2753.7289">See the hospital floor illuminated with ambient and directional light</text></g><g id="elem_Control the camera with the mouse"><ellipse cx="661.1055" cy="2295.2211" fill="#F1F1F1" rx="126.6055" ry="27.7211" style="stroke:#181818;stroke-width:0.5;"/><text fill="#000000" font-family="sans-serif" font-size="14" lengthAdjust="spacing" textLength="219" x="551.6055" y="2298.9496">Control the camera with the mouse</text></g><g id="elem_Deplyoment of one of the RFP modules in a DEI VM to be systematic, validating it on a scheduled basis with the test plan"><ellipse cx="661.0088" cy="3018.0018" fill="#F1F1F1" rx="390.5088" ry="80.5018" style="stroke:#181818;stroke-width:0.5;"/><text fill="#000000" font-family="sans-serif" font-size="14" lengthAdjust="spacing" textLength="758" x="282.0088" y="3021.7303">Deplyoment of one of the RFP modules in a DEI VM to be systematic, validating it on a scheduled basis with the test plan</text></g><g id="elem_Only clients on the DEI's internal network - wired or via VPN - are able to access the system"><ellipse cx="660.7888" cy="3195.7578" fill="#F1F1F1" rx="299.2888" ry="62.2578" style="stroke:#181818;stroke-width:0.5;"/><text fill="#000000" font-family="sans-serif" font-size="14" lengthAdjust="spacing" textLength="574" x="373.7888" y="3199.4863">Only clients on the DEI's internal network - wired or via VPN - are able to access the system</text></g><g id="elem_Clients listed in previous requirement can be defined by changing a text file"><ellipse cx="660.9717" cy="3346.1943" fill="#F1F1F1" rx="248.9717" ry="52.1943" style="stroke:#181818;stroke-width:0.5;"/><text fill="#000000" font-family="sans-serif" font-size="14" lengthAdjust="spacing" textLength="472" x="424.9717" y="3349.9228">Clients listed in previous requirement can be defined by changing a text file</text></g><g id="elem_Define the MBCO to propose to stakeholders"><ellipse cx="660.9296" cy="3466.7859" fill="#F1F1F1" rx="156.9296" ry="33.7859" style="stroke:#181818;stroke-width:0.5;"/><text fill="#000000" font-family="sans-serif" font-size="14" lengthAdjust="spacing" textLength="283" x="519.4296" y="3470.5144">Define the MBCO to propose to stakeholders</text></g><g id="elem_Get users with more than 3 failed login attempts"><ellipse cx="661.0928" cy="2866.9186" fill="#F1F1F1" rx="165.0928" ry="35.4186" style="stroke:#181818;stroke-width:0.5;"/><text fill="#000000" font-family="sans-serif" font-size="14" lengthAdjust="spacing" textLength="300" x="511.0928" y="2870.6471">Get users with more than 3 failed login attempts</text></g><g id="elem_Ensure the team has good knowledge of the project and how it can affect patient's personal data"><ellipse cx="661.1153" cy="3816.0231" fill="#F1F1F1" rx="315.6153" ry="65.5231" style="stroke:#181818;stroke-width:0.5;"/><text fill="#000000" font-family="sans-serif" font-size="14" lengthAdjust="spacing" textLength="607" x="357.6153" y="3819.7516">Ensure the team has good knowledge of the project and how it can affect patient's personal data</text></g><g id="elem_Notify both users and the responsible authority in case of a data breach, so that I comply with GDPR's breach notification requirements"><ellipse cx="660.7529" cy="3625.7506" fill="#F1F1F1" rx="434.2529" ry="89.2506" style="stroke:#181818;stroke-width:0.5;"/><text fill="#000000" font-family="sans-serif" font-size="14" lengthAdjust="spacing" textLength="846" x="237.7529" y="3629.4791">Notify both users and the responsible authority in case of a data breach, so that I comply with GDPR's breach notification requirements</text></g><g id="elem_Login to the System"><ellipse cx="660.9267" cy="4297.7853" fill="#F1F1F1" rx="84.4267" ry="19.2853" style="stroke:#181818;stroke-width:0.5;"/><text fill="#000000" font-family="sans-serif" font-size="14" lengthAdjust="spacing" textLength="125" x="598.4267" y="4301.5139">Login to the System</text></g><g id="elem_Reset Password"><ellipse cx="661.2256" cy="4369.9451" fill="#F1F1F1" rx="75.2256" ry="17.4451" style="stroke:#181818;stroke-width:0.5;"/><text fill="#000000" font-family="sans-serif" font-size="14" lengthAdjust="spacing" textLength="102" x="607.2256" y="4374.4617">Reset Password</text></g><g id="elem_Register for the Healthcare Application"><ellipse cx="660.8863" cy="4129.9773" fill="#F1F1F1" rx="137.8863" ry="29.9773" style="stroke:#181818;stroke-width:0.5;"/><text fill="#000000" font-family="sans-serif" font-size="14" lengthAdjust="spacing" textLength="243" x="539.3863" y="4133.7058">Register for the Healthcare Application</text></g><g id="elem_Login using IAM Credentials"><ellipse cx="660.7982" cy="4218.7596" fill="#F1F1F1" rx="106.7982" ry="23.7596" style="stroke:#181818;stroke-width:0.5;"/><text fill="#000000" font-family="sans-serif" font-size="14" lengthAdjust="spacing" textLength="176" x="572.7982" y="4222.4882">Login using IAM Credentials</text></g><!--entity Admin--><g id="elem_Admin"><ellipse cx="72.5" cy="922.5" fill="#F1F1F1" rx="8" ry="8" style="stroke:#181818;stroke-width:0.5;"/><path d="M72.5,930.5 L72.5,957.5 M59.5,938.5 L85.5,938.5 M72.5,957.5 L59.5,972.5 M72.5,957.5 L85.5,972.5 " fill="none" style="stroke:#181818;stroke-width:0.5;"/><text fill="#000000" font-family="sans-serif" font-size="14" lengthAdjust="spacing" textLength="39" x="53" y="988.5332">Admin</text></g><!--entity BackofficeUser--><g id="elem_BackofficeUser"><ellipse cx="72.5" cy="4303.5" fill="#F1F1F1" rx="8" ry="8" style="stroke:#181818;stroke-width:0.5;"/><path d="M72.5,4311.5 L72.5,4338.5 M59.5,4319.5 L85.5,4319.5 M72.5,4338.5 L59.5,4353.5 M72.5,4338.5 L85.5,4353.5 " fill="none" style="stroke:#181818;stroke-width:0.5;"/><text fill="#000000" font-family="sans-serif" font-size="14" lengthAdjust="spacing" textLength="98" x="23.5" y="4369.5332">Backoffice User</text></g><!--entity Patient--><g id="elem_Patient"><ellipse cx="72.5" cy="4038.5" fill="#F1F1F1" rx="8" ry="8" style="stroke:#181818;stroke-width:0.5;"/><path d="M72.5,4046.5 L72.5,4073.5 M59.5,4054.5 L85.5,4054.5 M72.5,4073.5 L59.5,4088.5 M72.5,4073.5 L85.5,4088.5 " fill="none" style="stroke:#181818;stroke-width:0.5;"/><text fill="#000000" font-family="sans-serif" font-size="14" lengthAdjust="spacing" textLength="44" x="50.5" y="4104.5332">Patient</text></g><!--entity Doctor--><g id="elem_Doctor"><ellipse cx="72.5" cy="1852.5" fill="#F1F1F1" rx="8" ry="8" style="stroke:#181818;stroke-width:0.5;"/><path d="M72.5,1860.5 L72.5,1887.5 M59.5,1868.5 L85.5,1868.5 M72.5,1887.5 L59.5,1902.5 M72.5,1887.5 L85.5,1902.5 " fill="none" style="stroke:#181818;stroke-width:0.5;"/><text fill="#000000" font-family="sans-serif" font-size="14" lengthAdjust="spacing" textLength="42" x="51.5" y="1918.5332">Doctor</text></g><!--entity User--><g id="elem_User"><ellipse cx="72.5" cy="2120.5" fill="#F1F1F1" rx="8" ry="8" style="stroke:#181818;stroke-width:0.5;"/><path d="M72.5,2128.5 L72.5,2155.5 M59.5,2136.5 L85.5,2136.5 M72.5,2155.5 L59.5,2170.5 M72.5,2155.5 L85.5,2170.5 " fill="none" style="stroke:#181818;stroke-width:0.5;"/><text fill="#000000" font-family="sans-serif" font-size="14" lengthAdjust="spacing" textLength="29" x="58" y="2186.5332">User</text></g><!--entity Staff--><g id="elem_Staff"><ellipse cx="72.5" cy="2498.5" fill="#F1F1F1" rx="8" ry="8" style="stroke:#181818;stroke-width:0.5;"/><path d="M72.5,2506.5 L72.5,2533.5 M59.5,2514.5 L85.5,2514.5 M72.5,2533.5 L59.5,2548.5 M72.5,2533.5 L85.5,2548.5 " fill="none" style="stroke:#181818;stroke-width:0.5;"/><text fill="#000000" font-family="sans-serif" font-size="14" lengthAdjust="spacing" textLength="29" x="58" y="2564.5332">Staff</text></g><!--entity SystemAdmin--><g id="elem_SystemAdmin"><ellipse cx="72.5" cy="3165.5" fill="#F1F1F1" rx="8" ry="8" style="stroke:#181818;stroke-width:0.5;"/><path d="M72.5,3173.5 L72.5,3200.5 M59.5,3181.5 L85.5,3181.5 M72.5,3200.5 L59.5,3215.5 M72.5,3200.5 L85.5,3215.5 " fill="none" style="stroke:#181818;stroke-width:0.5;"/><text fill="#000000" font-family="sans-serif" font-size="14" lengthAdjust="spacing" textLength="133" x="6" y="3231.5332">System Administrator</text></g><!--entity System--><g id="elem_System"><ellipse cx="72.5" cy="3595.5" fill="#F1F1F1" rx="8" ry="8" style="stroke:#181818;stroke-width:0.5;"/><path d="M72.5,3603.5 L72.5,3630.5 M59.5,3611.5 L85.5,3611.5 M72.5,3630.5 L59.5,3645.5 M72.5,3630.5 L85.5,3645.5 " fill="none" style="stroke:#181818;stroke-width:0.5;"/><text fill="#000000" font-family="sans-serif" font-size="14" lengthAdjust="spacing" textLength="46" x="49.5" y="3661.5332">System</text></g><!--entity Ent--><g id="elem_Ent"><ellipse cx="72.5" cy="3785.5" fill="#F1F1F1" rx="8" ry="8" style="stroke:#181818;stroke-width:0.5;"/><path d="M72.5,3793.5 L72.5,3820.5 M59.5,3801.5 L85.5,3801.5 M72.5,3820.5 L59.5,3835.5 M72.5,3820.5 L85.5,3835.5 " fill="none" style="stroke:#181818;stroke-width:0.5;"/><text fill="#000000" font-family="sans-serif" font-size="14" lengthAdjust="spacing" textLength="35" x="55" y="3851.5332">Entity</text></g><!--link Admin to Register Backoffice Users--><g id="link_Admin_Register Backoffice Users"><path d="M78.91,914 C88.37,862.04 113.21,771.62 175,728 C297.86,641.28 478.4304,654.8308 580.6604,671.7408 " fill="none" id="Admin-to-Register Backoffice Users" style="stroke:#181818;stroke-width:1.0;"/><polygon fill="#181818" points="586.58,672.72,578.3534,667.3049,581.647,671.904,577.0479,675.1976,586.58,672.72" style="stroke:#181818;stroke-width:1.0;"/></g><!--link Admin to Create Patient Profile--><g id="link_Admin_Create Patient Profile"><path d="M88.53,913.77 C104.31,878.47 132.76,828.49 175,804 C305.97,728.06 485.3678,738.9993 584.7278,752.8893 " fill="none" id="Admin-to-Create Patient Profile" style="stroke:#181818;stroke-width:1.0;"/><polygon fill="#181818" points="590.67,753.72,582.3105,748.5125,585.7182,753.0278,581.2029,756.4354,590.67,753.72" style="stroke:#181818;stroke-width:1.0;"/></g><!--link Admin to Edit Patient Profile--><g id="link_Admin_Edit Patient Profile"><path d="M92.01,933.57 C110.92,915.13 142.11,888.44 175,876 C313.21,823.74 483.1143,825.6867 580.5843,832.4167 " fill="none" id="Admin-to-Edit Patient Profile" style="stroke:#181818;stroke-width:1.0;"/><polygon fill="#181818" points="586.57,832.83,577.8669,828.2196,581.5819,832.4856,577.3158,836.2006,586.57,832.83" style="stroke:#181818;stroke-width:1.0;"/></g><!--link Admin to Delete Patient Profile--><g id="link_Admin_Delete Patient Profile"><path d="M92.02,951.77 C165.19,946.9 430.8832,929.2381 570.2932,919.9681 " fill="none" id="Admin-to-Delete Patient Profile" style="stroke:#181818;stroke-width:1.0;"/><polygon fill="#181818" points="576.28,919.57,567.0344,916.1759,571.291,919.9017,567.5652,924.1583,576.28,919.57" style="stroke:#181818;stroke-width:1.0;"/></g><!--link Admin to List/Search Patient Profiles--><g id="link_Admin_List/Search Patient Profiles"><path d="M92.02,954.23 C162.61,958.93 411.9632,975.5017 555.0732,985.0217 " fill="none" id="Admin-to-List/Search Patient Profiles" style="stroke:#181818;stroke-width:1.0;"/><polygon fill="#181818" points="561.06,985.42,552.3453,980.8314,556.071,985.0881,551.8143,988.8138,561.06,985.42" style="stroke:#181818;stroke-width:1.0;"/></g><!--link Admin to Create Staff Profile--><g id="link_Admin_Create Staff Profile"><path d="M92.27,973.28 C111.14,992.17 142.09,1019.28 175,1032 C312.06,1084.96 480.8739,1083.4278 578.7939,1076.7578 " fill="none" id="Admin-to-Create Staff Profile" style="stroke:#181818;stroke-width:1.0;"/><polygon fill="#181818" points="584.78,1076.35,575.529,1072.9709,579.7916,1076.6898,576.0726,1080.9524,584.78,1076.35" style="stroke:#181818;stroke-width:1.0;"/></g><!--link Admin to Edit Staff Profile--><g id="link_Admin_Edit Staff Profile"><path d="M87.84,992.01 C103.36,1028.09 131.83,1079.82 175,1105 C311.02,1184.34 500.3336,1168.1266 596.3236,1152.9566 " fill="none" id="Admin-to-Edit Staff Profile" style="stroke:#181818;stroke-width:1.0;"/><polygon fill="#181818" points="602.25,1152.02,592.7359,1149.4739,597.3113,1152.8005,593.9847,1157.3759,602.25,1152.02" style="stroke:#181818;stroke-width:1.0;"/></g><!--link Admin to Deactivate Staff Profile--><g id="link_Admin_Deactivate Staff Profile"><path d="M79.09,992.12 C88.73,1043.72 113.72,1132.99 175,1176 C300.67,1264.2 486.4487,1247.8481 587.0687,1230.3481 " fill="none" id="Admin-to-Deactivate Staff Profile" style="stroke:#181818;stroke-width:1.0;"/><polygon fill="#181818" points="592.98,1229.32,583.4277,1226.9213,588.0539,1230.1767,584.7985,1234.803,592.98,1229.32" style="stroke:#181818;stroke-width:1.0;"/></g><!--link Admin to List/Search Staff Profiles--><g id="link_Admin_List/Search Staff Profiles"><path d="M73.95,992.04 C77.04,1057.74 93.66,1189.43 175,1253 C296.15,1347.69 484.2847,1329.0762 586.3247,1309.7562 " fill="none" id="Admin-to-List/Search Staff Profiles" style="stroke:#181818;stroke-width:1.0;"/><polygon fill="#181818" points="592.22,1308.64,582.633,1306.3841,587.3073,1309.5702,584.1212,1314.2445,592.22,1308.64" style="stroke:#181818;stroke-width:1.0;"/></g><!--link Admin to Manage Operation Types--><g id="link_Admin_Manage Operation Types"><path d="M78.32,992.21 C89.95,1080 122.56,1288.12 175,1332 C293.11,1430.83 482.9739,1410.8837 585.9539,1390.5237 " fill="none" id="Admin-to-Manage Operation Types" style="stroke:#181818;stroke-width:1.0;"/><polygon fill="#181818" points="591.84,1389.36,582.2351,1387.1815,586.9349,1390.3298,583.7867,1395.0296,591.84,1389.36" style="stroke:#181818;stroke-width:1.0;"/></g><!--link Admin to List/Search Operation Types--><g id="link_Admin_List/Search Operation Types"><path d="M76.33,992.06 C84.47,1092.8 111.59,1357.39 175,1413 C289.21,1513.17 476.2635,1494.5416 581.0635,1473.8616 " fill="none" id="Admin-to-List/Search Operation Types" style="stroke:#181818;stroke-width:1.0;"/><polygon fill="#181818" points="586.95,1472.7,577.3459,1470.518,582.0446,1473.668,578.8946,1478.3667,586.95,1472.7" style="stroke:#181818;stroke-width:1.0;"/></g><!--link Admin to Have information about staff, operation types and operation requests used in the 3D Module to be in sync with entered in the backoffice module--><g id="link_Admin_Have information about staff, operation types and operation requests used in the 3D Module to be in sync with entered in the backoffice module"><path d="M75.41,992.25 C81.68,1104.46 105.38,1423.24 175,1496 C200.63,1522.78 225.887,1541.1098 259.157,1557.4898 " fill="none" id="Admin-to-Have information about staff, operation types and operation requests used in the 3D Module to be in sync with entered in the backoffice module" style="stroke:#181818;stroke-width:1.0;"/><polygon fill="#181818" points="264.54,1560.14,258.2324,1552.576,260.0542,1557.9315,254.6987,1559.7533,264.54,1560.14" style="stroke:#181818;stroke-width:1.0;"/></g><!--link Admin to Have information about staff's availability and operation schedule to be in sync with the planning module--><g id="link_Admin_Have information about staff's availability and operation schedule to be in sync with the planning module"><path d="M72.98,913.64 C71.97,773.89 76.13,304.46 175,201 C214.91,159.24 261.707,134.9791 317.507,119.5491 " fill="none" id="Admin-to-Have information about staff's availability and operation schedule to be in sync with the planning module" style="stroke:#181818;stroke-width:1.0;"/><polygon fill="#181818" points="323.29,117.95,313.5495,116.4934,318.4709,119.2826,315.6816,124.204,323.29,117.95" style="stroke:#181818;stroke-width:1.0;"/></g><!--link Admin to Obtain better scheduling of operations in a certain room in a specific day--><g id="link_Admin_Obtain better scheduling of operations in a certain room in a specific day"><path d="M74.13,913.96 C76.95,791.41 92.31,417.73 175,337 C245.35,268.32 345.0811,247.9264 439.9011,246.0864 " fill="none" id="Admin-to-Obtain better scheduling of operations in a certain room in a specific day" style="stroke:#181818;stroke-width:1.0;"/><polygon fill="#181818" points="445.9,245.97,436.8241,242.1454,440.9009,246.067,436.9793,250.1439,445.9,245.97" style="stroke:#181818;stroke-width:1.0;"/></g><!--link Admin to Know till what dimension in terms of number of surgeries is possible to ask for the better solution--><g id="link_Admin_Know till what dimension in terms of number of surgeries is possible to ask for the better solution"><path d="M76.8,913.9 C85.98,814.99 115.14,558.72 175,502 C221.88,457.58 277.5242,433.512 340.9242,419.872 " fill="none" id="Admin-to-Know till what dimension in terms of number of surgeries is possible to ask for the better solution" style="stroke:#181818;stroke-width:1.0;"/><polygon fill="#181818" points="346.79,418.61,337.15,416.5924,341.9018,419.6616,338.8326,424.4135,346.79,418.61" style="stroke:#181818;stroke-width:1.0;"/></g><!--link Admin to Obtain a good schedule, not necessarily the better, in useful time to be adopted--><g id="link_Admin_Obtain a good schedule, not necessarily the better, in useful time to be adopted"><path d="M74.2,913.91 C77.66,848.02 94.83,715.46 175,648 C238.04,594.96 316.7333,572.221 397.6733,563.661 " fill="none" id="Admin-to-Obtain a good schedule, not necessarily the better, in useful time to be adopted" style="stroke:#181818;stroke-width:1.0;"/><polygon fill="#181818" points="403.64,563.03,394.2692,559.9987,398.6677,563.5559,395.1106,567.9544,403.64,563.03" style="stroke:#181818;stroke-width:1.0;"/></g><!--link Doctor to Request an Operation--><g id="link_Doctor_Request an Operation"><path d="M93.76,1859.25 C112.55,1839.06 142.44,1811.29 175,1798 C307.93,1743.72 472.1942,1744.3581 571.5942,1751.1981 " fill="none" id="Doctor-to-Request an Operation" style="stroke:#181818;stroke-width:1.0;"/><polygon fill="#181818" points="577.58,1751.61,568.8758,1747.0016,572.5918,1751.2667,568.3266,1754.9827,577.58,1751.61" style="stroke:#181818;stroke-width:1.0;"/></g><!--link Doctor to Update Operation Requisition--><g id="link_Doctor_Update Operation Requisition"><path d="M93.69,1881.52 C165.5,1876.26 405.876,1858.6285 548.906,1848.1485 " fill="none" id="Doctor-to-Update Operation Requisition" style="stroke:#181818;stroke-width:1.0;"/><polygon fill="#181818" points="554.89,1847.71,545.6218,1844.3784,549.9034,1848.0754,546.2064,1852.357,554.89,1847.71" style="stroke:#181818;stroke-width:1.0;"/></g><!--link Doctor to Remove Operation Requisition--><g id="link_Doctor_Remove Operation Requisition"><path d="M93.69,1884.45 C164.99,1889.55 402.4353,1906.5511 545.8853,1916.8311 " fill="none" id="Doctor-to-Remove Operation Requisition" style="stroke:#181818;stroke-width:1.0;"/><polygon fill="#181818" points="551.87,1917.26,543.1789,1912.6269,546.8828,1916.9026,542.6071,1920.6065,551.87,1917.26" style="stroke:#181818;stroke-width:1.0;"/></g><!--link Doctor to List/Search Operation Requisitions--><g id="link_Doctor_List/Search Operation Requisitions"><path d="M93.81,1906.64 C112.62,1926.75 142.54,1954.47 175,1968 C292.38,2016.91 433.2019,2024.0424 534.3819,2021.4724 " fill="none" id="Doctor-to-List/Search Operation Requisitions" style="stroke:#181818;stroke-width:1.0;"/><polygon fill="#181818" points="540.38,2021.32,531.2813,2017.5498,535.3816,2021.447,531.4845,2025.5472,540.38,2021.32" style="stroke:#181818;stroke-width:1.0;"/></g><!--link Patient to Update User Profile--><g id="link_Patient_Update User Profile"><path d="M94.85,4039.6 C113.26,4016.79 142.04,3986.66 175,3972 C311.17,3911.45 484.1478,3916.7036 582.1578,3926.1636 " fill="none" id="Patient-to-Update User Profile" style="stroke:#181818;stroke-width:1.0;"/><polygon fill="#181818" points="588.13,3926.74,579.5559,3921.8938,583.1531,3926.2596,578.7873,3929.8568,588.13,3926.74" style="stroke:#181818;stroke-width:1.0;"/></g><!--link Patient to Delete Account--><g id="link_Patient_Delete Account"><path d="M94.72,4066.76 C175.12,4058.26 457.1133,4028.4509 588.2033,4014.5909 " fill="none" id="Patient-to-Delete Account" style="stroke:#181818;stroke-width:1.0;"/><polygon fill="#181818" points="594.17,4013.96,584.7993,4010.9285,589.1977,4014.4857,585.6405,4018.8841,594.17,4013.96" style="stroke:#181818;stroke-width:1.0;"/></g><!--link User to Have integrated UI for all modules--><g id="link_User_Have integrated UI for all modules"><path d="M87.13,2149.88 C147.72,2144.93 390.11,2125.0893 539.21,2112.8893 " fill="none" id="User-to-Have integrated UI for all modules" style="stroke:#181818;stroke-width:1.0;"/><polygon fill="#181818" points="545.19,2112.4,535.8938,2109.1473,540.2067,2112.8078,536.5462,2117.1206,545.19,2112.4" style="stroke:#181818;stroke-width:1.0;"/></g><!--link User to Adjust application menu according to my role--><g id="link_User_Adjust application menu according to my role"><path d="M87.13,2152.12 C143.72,2156.75 358.14,2174.3007 508.47,2186.6007 " fill="none" id="User-to-Adjust application menu according to my role" style="stroke:#181818;stroke-width:1.0;"/><polygon fill="#181818" points="514.45,2187.09,505.8062,2182.3694,509.4667,2186.6823,505.1538,2190.3428,514.45,2187.09" style="stroke:#181818;stroke-width:1.0;"/></g><!--link Staff to Have information shown on 3d Module to be in sync with planning module--><g id="link_Staff_Have information shown on 3d Module to be in sync with planning module"><path d="M87.02,2520.41 C105.92,2508.82 141.69,2488.43 175,2478 C256.87,2452.36 343.5753,2436.9557 425.8053,2426.7957 " fill="none" id="Staff-to-Have information shown on 3d Module to be in sync with planning module" style="stroke:#181818;stroke-width:1.0;"/><polygon fill="#181818" points="431.76,2426.06,422.3374,2423.1938,426.7977,2426.6731,423.3184,2431.1334,431.76,2426.06" style="stroke:#181818;stroke-width:1.0;"/></g><!--link Staff to See a 3d representation of the hospital floor--><g id="link_Staff_See a 3d representation of the hospital floor"><path d="M87.13,2529 C142.69,2529 350.14,2529 500.16,2529 " fill="none" id="Staff-to-See a 3d representation of the hospital floor" style="stroke:#181818;stroke-width:1.0;"/><polygon fill="#181818" points="506.16,2529,497.16,2525,501.16,2529,497.16,2533,506.16,2529" style="stroke:#181818;stroke-width:1.0;"/></g><!--link Staff to See appropiate textures mapped onto the floor--><g id="link_Staff_See appropiate textures mapped onto the floor"><path d="M87.29,2537.95 C106.22,2549.75 141.71,2570.17 175,2580 C280.5,2611.16 397.7896,2624.0107 493.6596,2629.4407 " fill="none" id="Staff-to-See appropiate textures mapped onto the floor" style="stroke:#181818;stroke-width:1.0;"/><polygon fill="#181818" points="499.65,2629.78,490.8906,2625.2775,494.658,2629.4973,490.4382,2633.2647,499.65,2629.78" style="stroke:#181818;stroke-width:1.0;"/></g><!--link Staff to See the hospital floor illuminated with ambient and directional light--><g id="link_Staff_See the hospital floor illuminated with ambient and directional light"><path d="M87.03,2566.36 C102.4,2603.01 131.16,2657.29 175,2685 C254.36,2735.15 349.5808,2753.761 438.9908,2759.121 " fill="none" id="Staff-to-See the hospital floor illuminated with ambient and directional light" style="stroke:#181818;stroke-width:1.0;"/><polygon fill="#181818" points="444.98,2759.48,436.2355,2754.9486,439.989,2759.1808,435.7568,2762.9343,444.98,2759.48" style="stroke:#181818;stroke-width:1.0;"/></g><!--link Staff to Control the camera with the mouse--><g id="link_Staff_Control the camera with the mouse"><path d="M82.75,2489.61 C95.43,2445.16 122.84,2374.56 175,2340 C289.9,2263.86 449.1484,2265.7623 554.0084,2277.6823 " fill="none" id="Staff-to-Control the camera with the mouse" style="stroke:#181818;stroke-width:1.0;"/><polygon fill="#181818" points="559.97,2278.36,551.4794,2273.3691,555.002,2277.7953,550.5758,2281.3179,559.97,2278.36" style="stroke:#181818;stroke-width:1.0;"/></g><!--link SystemAdmin to Deplyoment of one of the RFP modules in a DEI VM to be systematic, validating it on a scheduled basis with the test plan--><g id="link_SystemAdmin_Deplyoment of one of the RFP modules in a DEI VM to be systematic, validating it on a scheduled basis with the test plan"><path d="M114,3156.91 C131.51,3142.01 153.01,3126.18 175,3116 C224.5,3093.09 273.4661,3076.9631 327.8661,3063.4831 " fill="none" id="SystemAdmin-to-Deplyoment of one of the RFP modules in a DEI VM to be systematic, validating it on a scheduled basis with the test plan" style="stroke:#181818;stroke-width:1.0;"/><polygon fill="#181818" points="333.69,3062.04,323.9921,3060.3221,328.8368,3063.2426,325.9163,3068.0873,333.69,3062.04" style="stroke:#181818;stroke-width:1.0;"/></g><!--link SystemAdmin to Only clients on the DEI's internal network - wired or via VPN - are able to access the system--><g id="link_SystemAdmin_Only clients on the DEI's internal network - wired or via VPN - are able to access the system"><path d="M139.07,3196 C194.3,3196 271.49,3196 355.29,3196 " fill="none" id="SystemAdmin-to-Only clients on the DEI's internal network - wired or via VPN - are able to access the system" style="stroke:#181818;stroke-width:1.0;"/><polygon fill="#181818" points="361.29,3196,352.29,3192,356.29,3196,352.29,3200,361.29,3196" style="stroke:#181818;stroke-width:1.0;"/></g><!--link SystemAdmin to Clients listed in previous requirement can be defined by changing a text file--><g id="link_SystemAdmin_Clients listed in previous requirement can be defined by changing a text file"><path d="M113.24,3235.3 C130.79,3250.42 152.53,3266.35 175,3276 C250.05,3308.21 331.0651,3325.3757 410.4551,3335.1657 " fill="none" id="SystemAdmin-to-Clients listed in previous requirement can be defined by changing a text file" style="stroke:#181818;stroke-width:1.0;"/><polygon fill="#181818" points="416.41,3335.9,407.9672,3330.8286,411.4476,3335.2881,406.9881,3338.7684,416.41,3335.9" style="stroke:#181818;stroke-width:1.0;"/></g><!--link SystemAdmin to Define the MBCO to propose to stakeholders--><g id="link_SystemAdmin_Define the MBCO to propose to stakeholders"><path d="M79.65,3235.07 C89.85,3285.63 115.39,3372.28 175,3415 C277.48,3488.44 418.808,3494.514 524.148,3486.344 " fill="none" id="SystemAdmin-to-Define the MBCO to propose to stakeholders" style="stroke:#181818;stroke-width:1.0;"/><polygon fill="#181818" points="530.13,3485.88,520.8476,3482.5879,525.145,3486.2666,521.4663,3490.564,530.13,3485.88" style="stroke:#181818;stroke-width:1.0;"/></g><!--link SystemAdmin to Get users with more than 3 failed login attempts--><g id="link_SystemAdmin_Get users with more than 3 failed login attempts"><path d="M75.51,3156.52 C80.94,3095.13 101,2977.86 175,2920 C273.92,2842.65 414.9417,2836.6006 521.1617,2845.6506 " fill="none" id="SystemAdmin-to-Get users with more than 3 failed login attempts" style="stroke:#181818;stroke-width:1.0;"/><polygon fill="#181818" points="527.14,2846.16,518.5121,2841.4104,522.158,2845.7355,517.8329,2849.3815,527.14,2846.16" style="stroke:#181818;stroke-width:1.0;"/></g><!--link Ent to Ensure the team has good knowledge of the project and how it can affect patient's personal data--><g id="link_Ent_Ensure the team has good knowledge of the project and how it can affect patient's personal data"><path d="M90.11,3816 C129.91,3816 229.61,3816 339.33,3816 " fill="none" id="Ent-to-Ensure the team has good knowledge of the project and how it can affect patient's personal data" style="stroke:#181818;stroke-width:1.0;"/><polygon fill="#181818" points="345.33,3816,336.33,3812,340.33,3816,336.33,3820,345.33,3816" style="stroke:#181818;stroke-width:1.0;"/></g><!--link System to Notify both users and the responsible authority in case of a data breach, so that I comply with GDPR's breach notification requirements--><g id="link_System_Notify both users and the responsible authority in case of a data breach, so that I comply with GDPR's breach notification requirements"><path d="M95.78,3626 C122.14,3626 163.7,3626 220.42,3626 " fill="none" id="System-to-Notify both users and the responsible authority in case of a data breach, so that I comply with GDPR's breach notification requirements" style="stroke:#181818;stroke-width:1.0;"/><polygon fill="#181818" points="226.42,3626,217.42,3622,221.42,3626,217.42,3630,226.42,3626" style="stroke:#181818;stroke-width:1.0;"/></g><!--link BackofficeUser to Login to the System--><g id="link_BackofficeUser_Login to the System"><path d="M121.74,4331.04 C222.31,4324.87 449.2713,4310.9379 573.1513,4303.3279 " fill="none" id="BackofficeUser-to-Login to the System" style="stroke:#181818;stroke-width:1.0;"/><polygon fill="#181818" points="579.14,4302.96,569.9117,4299.5194,574.1494,4303.2666,570.4022,4307.5043,579.14,4302.96" style="stroke:#181818;stroke-width:1.0;"/></g><!--link BackofficeUser to Reset Password--><g id="link_BackofficeUser_Reset Password"><path d="M121.74,4336.96 C224.77,4343.29 460.7713,4357.7726 582.0613,4365.2126 " fill="none" id="BackofficeUser-to-Reset Password" style="stroke:#181818;stroke-width:1.0;"/><polygon fill="#181818" points="588.05,4365.58,579.3118,4361.0365,583.0594,4365.2739,578.822,4369.0215,588.05,4365.58" style="stroke:#181818;stroke-width:1.0;"/></g><!--link Patient to Register for the Healthcare Application--><g id="link_Patient_Register for the Healthcare Application"><path d="M94.72,4071.21 C164.7,4078.49 385.9422,4101.4995 530.1022,4116.4895 " fill="none" id="Patient-to-Register for the Healthcare Application" style="stroke:#181818;stroke-width:1.0;"/><polygon fill="#181818" points="536.07,4117.11,527.532,4112.2006,531.0968,4116.5929,526.7046,4120.1577,536.07,4117.11" style="stroke:#181818;stroke-width:1.0;"/></g><!--link Patient to Login using IAM Credentials--><g id="link_Patient_Login using IAM Credentials"><path d="M94.63,4102.67 C112.62,4128.13 140.93,4161.43 175,4178 C300,4238.8 458.6388,4238.864 560.3388,4230.804 " fill="none" id="Patient-to-Login using IAM Credentials" style="stroke:#181818;stroke-width:1.0;"/><polygon fill="#181818" points="566.32,4230.33,557.0321,4227.0535,561.3356,4230.725,557.6642,4235.0285,566.32,4230.33" style="stroke:#181818;stroke-width:1.0;"/></g><!--SRC=[bLPDRzms4BtlhnZuaXgmaOFl1HolanYfOyEkSwUaqOenHQeajUwYo7_l6r9QQR_ID0T7feSpZs_UFD9m7IawydhLHAgqvp9gPnSBLKRdwRfgjHs-ppweyjNLjIwPNWBxCrA1fZLP6Y8VLTHiu_3Rqib_mo-pgEUewdhC_Rm9aTjSJuVe5LPJWVo7EOwyCcwyjL77JGh5vs8X1r1sPPZEFhCoiIcLPxfNLgsu1QXX-ndzio3yIudfyl9t-ks9LwZCdlRE6Sxt8syygyZZCUdHkreRFWYxhNGy2ABzg2KR_eLaVm3R-sTMlcpsOqy2J0oVhfpm_KVCai6pNlz2jZd0dT13UBaRzD0n-WorqP-R3c4_JRaVl1_xMQsPjAsTRtEOAbmVAGYI2tBRtL5saxBLRCtpNps76AWFN249nORfQadthkeX98n78RafR6n9Rpes1FRPJx75f9WsxVbVyDu1prffemfjeEKzSA5i-1GCgTqPPQssgrEL7ugey5rm56qFsIJUrLEL87aLbUnJi7UkpIkXurBZO5IfpK7gBzQzKTJ6q5kZn3qmO44m2otiso0rRDyMA8olqFiLUmtwTQ3EXQ2BV2mLNWdCP2e7dCxq0kpKSHIjdAksv5oGTP4ibno2yjfiPhak10uwM_S6ODkHI5MvBd9rlaWLiacDHf3aW3vCgXl4EGzxwIePYqcOiay7FS7UJTgwzQdem-J7fJ_R4mRWenVC8ObhxGtgJjXWETTbwNeR4P52qgwvM2ElK1SgVxbBxL5eT1RPC7xJZklgUo-CTPtHPSOABVIaKC9NeZQGtcuWh56XwKVsYUC34XhtPWaVLzLF1l6e-cTfdncTbXIUEyy15EJiaACef76Xqr4Pgerp_lZkhlEkqy9hvBzZZopKOX6yE0j4akRqxiCYX7df8UV4R3g3QelK6vdxxGsCS2Dtya7M6rG5ZIbpgLf8O_A2ra7dWp1c5-VOzSviNBe3PVGjZoGyVNmS-vg7VdbxHz_k1xf3oWFMoWjQAwEXCE4RLuTB1Z5CO0KJ39ZhBPOe8oJjEJyEvy5YIaiZ9m-IIlQWyBkGbEU50ClnpVbNkaHMSLkGjzQAlZr-nP9Swseqa586FwN8S4_Kl1dA6Rdeatj356iDrj8TW2A9dbA9NrB5jRPoCE1iyAQGOwia0fgkw2Cqoww4vVx3pOF04m6va932y5-vSQRQlYiE4dpYA7Rb1ovRvoKR85rHZLi2W8nRIPzWRcqNHoEu7QVxri9eUUY1Qgd1qoYPvIli6jjNsyO3rtUeBGaFqoOzbQD3QhBQPSj0G-0_8IaIlLTprBdWLnTrlQ720Mq6BWcb06QbWrKbdrTzR9oN-mtOInKI2fLIKe7tIjbSmFNbf97kg7Gjr9eP-BHyV0AA72H6BnVIT7CFNGCFFtQUVtVNztkFlTt7wc2qYSjXZdFuO9d7efzW8VAc2m72h4Rdt37NxJDolD5cpz3hoH-F-NB6qWSHcg37Cwx27xKoyZZwiVWN]--></g></svg>