<?xml version="1.0" encoding="us-ascii" standalone="no"?><svg xmlns="http://www.w3.org/2000/svg" xmlns:xlink="http://www.w3.org/1999/xlink" contentStyleType="text/css" height="736px" preserveAspectRatio="none" style="width:1750px;height:736px;background:#FFFFFF;" version="1.1" viewBox="0 0 1750 736" width="1750px" zoomAndPan="magnify"><defs/><g><text fill="#000000" font-family="sans-serif" font-size="14" font-weight="bold" lengthAdjust="spacing" textLength="194" x="771" y="24.5332">Domain Model (DM) - UC020</text><!--cluster OperationTypeAggregate--><g id="cluster_OperationTypeAggregate"><rect fill="none" height="355" rx="2.5" ry="2.5" style="stroke:#000000;stroke-width:1.5;" width="975" x="218" y="115.1094"/><text fill="#000000" font-family="sans-serif" font-size="14" font-weight="bold" lengthAdjust="spacing" textLength="176" x="617.5" y="131.6426">OperationTypeAggregate</text></g><!--class OperationType--><g id="elem_OperationType"><rect codeLine="16" fill="#F1F1F1" height="50.7031" id="OperationType" rx="2.5" ry="2.5" style="stroke:#181818;stroke-width:0.5;" width="101" x="234" y="398.6094"/><text fill="#000000" font-family="sans-serif" font-size="12" font-style="italic" lengthAdjust="spacing" textLength="67" x="251" y="416.0664">&#171;root entity&#187;</text><text fill="#000000" font-family="sans-serif" font-size="14" lengthAdjust="spacing" textLength="95" x="237" y="433.2363">OperationType</text><line style="stroke:#181818;stroke-width:0.5;" x1="235" x2="334" y1="441.3125" y2="441.3125"/></g><!--class OperationTypeID--><g id="elem_OperationTypeID"><rect codeLine="17" fill="#F1F1F1" height="50.7031" id="OperationTypeID" rx="2.5" ry="2.5" style="stroke:#181818;stroke-width:0.5;" width="114" x="487" y="400.6094"/><text fill="#000000" font-family="sans-serif" font-size="12" font-style="italic" lengthAdjust="spacing" textLength="81" x="503.5" y="418.0664">&#171;value object&#187;</text><text fill="#000000" font-family="sans-serif" font-size="14" lengthAdjust="spacing" textLength="108" x="490" y="435.2363">OperationTypeID</text><line style="stroke:#181818;stroke-width:0.5;" x1="488" x2="600" y1="443.3125" y2="443.3125"/></g><g id="elem_GMN5"><path d="M903.5,428.1094 L903.5,435.1194 L601.13,428.1494 L903.5,443.1194 L903.5,454.4609 A0,0 0 0 0 903.5,454.4609 L1014.5,454.4609 A0,0 0 0 0 1014.5,454.4609 L1014.5,438.1094 L1004.5,428.1094 L903.5,428.1094 A0,0 0 0 0 903.5,428.1094 " fill="#FEFFDD" style="stroke:#181818;stroke-width:0.5;"/><path d="M1004.5,428.1094 L1004.5,438.1094 L1014.5,438.1094 L1004.5,428.1094 " fill="#FEFFDD" style="stroke:#181818;stroke-width:0.5;"/><text fill="#000000" font-family="sans-serif" font-size="13" lengthAdjust="spacing" textLength="90" x="909.5" y="446.6045">unique identifier</text></g><!--class RequiredStaff--><g id="elem_RequiredStaff"><rect codeLine="19" fill="#F1F1F1" height="50.7031" id="RequiredStaff" rx="2.5" ry="2.5" style="stroke:#181818;stroke-width:0.5;" width="93" x="497.5" y="314.6094"/><text fill="#000000" font-family="sans-serif" font-size="12" font-style="italic" lengthAdjust="spacing" textLength="81" x="503.5" y="332.0664">&#171;value object&#187;</text><text fill="#000000" font-family="sans-serif" font-size="14" lengthAdjust="spacing" textLength="87" x="500.5" y="349.2363">RequiredStaff</text><line style="stroke:#181818;stroke-width:0.5;" x1="498.5" x2="589.5" y1="357.3125" y2="357.3125"/></g><!--class PhaseDetails--><g id="elem_PhaseDetails"><rect codeLine="20" fill="#F1F1F1" height="50.7031" id="PhaseDetails" rx="2.5" ry="2.5" style="stroke:#181818;stroke-width:0.5;" width="89" x="499.5" y="228.6094"/><text fill="#000000" font-family="sans-serif" font-size="12" font-style="italic" lengthAdjust="spacing" textLength="81" x="503.5" y="246.0664">&#171;value object&#187;</text><text fill="#000000" font-family="sans-serif" font-size="14" lengthAdjust="spacing" textLength="83" x="502.5" y="263.2363">PhaseDetails</text><line style="stroke:#181818;stroke-width:0.5;" x1="500.5" x2="587.5" y1="271.3125" y2="271.3125"/></g><!--class Phase--><g id="elem_Phase"><rect codeLine="21" fill="#F1F1F1" height="68.3125" id="Phase" rx="2.5" ry="2.5" style="stroke:#181818;stroke-width:0.5;" width="436" x="741" y="238.1094"/><text fill="#000000" font-family="sans-serif" font-size="12" font-style="italic" lengthAdjust="spacing" textLength="81" x="918.5" y="255.5664">&#171;value object&#187;</text><text fill="#000000" font-family="sans-serif" font-size="14" lengthAdjust="spacing" textLength="40" x="939" y="272.7363">Phase</text><line style="stroke:#181818;stroke-width:0.5;" x1="742" x2="1176" y1="280.8125" y2="280.8125"/><text fill="#000000" font-family="sans-serif" font-size="14" lengthAdjust="spacing" textLength="424" x="747" y="299.3457">ANAESTHESIA_PREPARATION, SURGERY_PROCESS, CLEANING</text></g><!--class Duration--><g id="elem_Duration"><rect codeLine="24" fill="#F1F1F1" height="50.7031" id="Duration" rx="2.5" ry="2.5" style="stroke:#181818;stroke-width:0.5;" width="83" x="917.5" y="151.6094"/><text fill="#000000" font-family="sans-serif" font-size="12" font-style="italic" lengthAdjust="spacing" textLength="81" x="918.5" y="169.0664">&#171;value object&#187;</text><text fill="#000000" font-family="sans-serif" font-size="14" lengthAdjust="spacing" textLength="54" x="932" y="186.2363">Duration</text><line style="stroke:#181818;stroke-width:0.5;" x1="918.5" x2="999.5" y1="194.3125" y2="194.3125"/></g><!--class Quantity--><g id="elem_Quantity"><rect codeLine="25" fill="#F1F1F1" height="50.7031" id="Quantity" rx="2.5" ry="2.5" style="stroke:#181818;stroke-width:0.5;" width="83" x="917.5" y="341.6094"/><text fill="#000000" font-family="sans-serif" font-size="12" font-style="italic" lengthAdjust="spacing" textLength="81" x="918.5" y="359.0664">&#171;value object&#187;</text><text fill="#000000" font-family="sans-serif" font-size="14" lengthAdjust="spacing" textLength="53" x="932.5" y="376.2363">Quantity</text><line style="stroke:#181818;stroke-width:0.5;" x1="918.5" x2="999.5" y1="384.3125" y2="384.3125"/></g><!--class Admin--><g id="elem_Admin"><rect codeLine="28" fill="#F1F1F1" height="50.7031" id="Admin" rx="2.5" ry="2.5" style="stroke:#181818;stroke-width:0.5;" width="107" x="7" y="398.6094"/><text fill="#000000" font-family="sans-serif" font-size="12" font-style="italic" lengthAdjust="spacing" textLength="105" x="8" y="416.0664">&#171;conceptual class&#187;</text><text fill="#000000" font-family="sans-serif" font-size="14" lengthAdjust="spacing" textLength="39" x="41" y="433.2363">Admin</text><line style="stroke:#181818;stroke-width:0.5;" x1="8" x2="113" y1="441.3125" y2="441.3125"/></g><!--class Name--><g id="elem_Name"><rect codeLine="29" fill="#F1F1F1" height="50.7031" id="Name" rx="2.5" ry="2.5" style="stroke:#181818;stroke-width:0.5;" width="83" x="502.5" y="486.6094"/><text fill="#000000" font-family="sans-serif" font-size="12" font-style="italic" lengthAdjust="spacing" textLength="81" x="503.5" y="504.0664">&#171;value object&#187;</text><text fill="#000000" font-family="sans-serif" font-size="14" lengthAdjust="spacing" textLength="36" x="526" y="521.2363">Name</text><line style="stroke:#181818;stroke-width:0.5;" x1="503.5" x2="584.5" y1="529.3125" y2="529.3125"/></g><!--class Specialization--><g id="elem_Specialization"><rect codeLine="30" fill="#F1F1F1" height="68.3125" id="Specialization" rx="2.5" ry="2.5" style="stroke:#181818;stroke-width:0.5;" width="354" x="782" y="528.1094"/><text fill="#000000" font-family="sans-serif" font-size="12" font-style="italic" lengthAdjust="spacing" textLength="81" x="918.5" y="545.5664">&#171;value object&#187;</text><text fill="#000000" font-family="sans-serif" font-size="14" lengthAdjust="spacing" textLength="86" x="916" y="562.7363">Specialization</text><line style="stroke:#181818;stroke-width:0.5;" x1="783" x2="1135" y1="570.8125" y2="570.8125"/><text fill="#000000" font-family="sans-serif" font-size="14" lengthAdjust="spacing" textLength="342" x="788" y="589.3457">ANAESTHESIOLOGY, CARDIOLOGY, ORTHOPEDICS</text></g><!--class Role--><g id="elem_Role"><rect codeLine="33" fill="#F1F1F1" height="53.2188" id="Role" rx="2.5" ry="2.5" style="stroke:#181818;stroke-width:0.5;" width="330" x="794" y="45.6094"/><text fill="#000000" font-family="sans-serif" font-size="14" lengthAdjust="spacing" textLength="29" x="944.5" y="65.1426">Role</text><line style="stroke:#181818;stroke-width:0.5;" x1="795" x2="1123" y1="73.2188" y2="73.2188"/><text fill="#000000" font-family="sans-serif" font-size="14" lengthAdjust="spacing" textLength="318" x="800" y="91.752">ADMIN, DOCTOR, NURSE, TECHNICIAN, PATIENT</text></g><g id="elem_GMN17"><path d="M1240,59.1094 L1240,68.1094 L1124.22,72.1094 L1240,76.1094 L1240,85.4609 A0,0 0 0 0 1240,85.4609 L1743,85.4609 A0,0 0 0 0 1743,85.4609 L1743,69.1094 L1733,59.1094 L1240,59.1094 A0,0 0 0 0 1240,59.1094 " fill="#FEFFDD" style="stroke:#181818;stroke-width:0.5;"/><path d="M1733,59.1094 L1733,69.1094 L1743,69.1094 L1733,59.1094 " fill="#FEFFDD" style="stroke:#181818;stroke-width:0.5;"/><text fill="#000000" font-family="sans-serif" font-size="13" lengthAdjust="spacing" textLength="482" x="1246" y="77.6045">in this Use Case, only Staff roles are considered (DOCTOR, NURSE, TECHNICIAN)</text></g><!--class Status--><g id="elem_Status"><rect codeLine="37" fill="#F1F1F1" height="68.3125" id="Status" rx="2.5" ry="2.5" style="stroke:#181818;stroke-width:0.5;" width="130" x="479" y="661.1094"/><text fill="#000000" font-family="sans-serif" font-size="12" font-style="italic" lengthAdjust="spacing" textLength="81" x="503.5" y="678.5664">&#171;value object&#187;</text><text fill="#000000" font-family="sans-serif" font-size="14" lengthAdjust="spacing" textLength="40" x="524" y="695.7363">Status</text><line style="stroke:#181818;stroke-width:0.5;" x1="480" x2="608" y1="703.8125" y2="703.8125"/><text fill="#000000" font-family="sans-serif" font-size="14" lengthAdjust="spacing" textLength="118" x="485" y="722.3457">ACTIVE, INACTIVE</text></g><!--link Admin to OperationType--><g id="link_Admin_OperationType"><path codeLine="41" d="M114.11,424.1094 C150.4,424.1094 198.32,424.1094 233.93,424.1094 " fill="none" id="Admin-OperationType" style="stroke:#181818;stroke-width:1.0;"/><polygon fill="#000000" points="154,415.2852,144.9549,412.3462,144.9549,418.2241,154,415.2852" style="stroke:#000000;stroke-width:1.0;"/><text fill="#000000" font-family="sans-serif" font-size="13" lengthAdjust="spacing" textLength="43" x="158" y="420.6045">creates</text><text fill="#000000" font-family="sans-serif" font-size="13" lengthAdjust="spacing" textLength="7" x="122.1411" y="438.7751">1</text><text fill="#000000" font-family="sans-serif" font-size="13" lengthAdjust="spacing" textLength="5" x="221.1353" y="438.8271">*</text></g><!--link OperationType to OperationTypeID--><g id="link_OperationType_OperationTypeID"><path codeLine="43" d="M335.15,424.4994 C378.55,424.8294 441.54,425.3194 486.79,425.6694 " fill="none" id="OperationType-OperationTypeID" style="stroke:#181818;stroke-width:1.0;"/><polygon fill="#000000" points="374.9999,416.3237,365.9777,413.3151,365.9324,419.1928,374.9999,416.3237" style="stroke:#000000;stroke-width:1.0;"/><text fill="#000000" font-family="sans-serif" font-size="13" lengthAdjust="spacing" textLength="69" x="379" y="421.6045">identified by</text><text fill="#000000" font-family="sans-serif" font-size="13" lengthAdjust="spacing" textLength="7" x="343.1033" y="439.2744">1</text><text fill="#000000" font-family="sans-serif" font-size="13" lengthAdjust="spacing" textLength="7" x="472.0115" y="440.1747">1</text></g><!--link OperationType to Name--><g id="link_OperationType_Name"><path codeLine="44" d="M335.08,441.6894 C344.98,445.1694 355.32,448.7694 365,452.1094 C412.02,468.3094 466.18,486.4994 502.3,498.5594 " fill="none" id="OperationType-Name" style="stroke:#181818;stroke-width:1.0;"/><polygon fill="#000000" points="398.7337,444.8951,391.1166,439.2003,389.2241,444.7651,398.7337,444.8951" style="stroke:#000000;stroke-width:1.0;"/><text fill="#000000" font-family="sans-serif" font-size="13" lengthAdjust="spacing" textLength="21" x="403" y="448.6045">has</text><text fill="#000000" font-family="sans-serif" font-size="13" lengthAdjust="spacing" textLength="7" x="343.023" y="458.9892">1</text><text fill="#000000" font-family="sans-serif" font-size="13" lengthAdjust="spacing" textLength="7" x="487.5313" y="511.1563">1</text></g><!--link OperationType to Specialization--><g id="link_OperationType_Specialization"><path codeLine="45" d="M307.64,449.7094 C340.66,485.6494 406.7,549.3494 479,573.1094 C575.71,604.8894 689.41,603.7694 781.77,593.9494 " fill="none" id="OperationType-Specialization" style="stroke:#181818;stroke-width:1.0;"/><polygon fill="#000000" points="535.7835,565.7404,527.9854,560.2961,526.2747,565.9195,535.7835,565.7404" style="stroke:#000000;stroke-width:1.0;"/><text fill="#000000" font-family="sans-serif" font-size="13" lengthAdjust="spacing" textLength="21" x="540" y="569.6045">has</text><text fill="#000000" font-family="sans-serif" font-size="13" lengthAdjust="spacing" textLength="5" x="307.155" y="470.6254">*</text><text fill="#000000" font-family="sans-serif" font-size="13" lengthAdjust="spacing" textLength="7" x="767.1455" y="609.1261">1</text></g><!--link OperationType to RequiredStaff--><g id="link_OperationType_RequiredStaff"><path codeLine="46" d="M335.15,407.9094 C382.06,392.6094 451.85,369.8394 497.39,354.9894 " fill="none" id="OperationType-RequiredStaff" style="stroke:#181818;stroke-width:1.0;"/><polygon fill="#000000" points="391.7535,362.7346,382.243,362.7455,384.0657,368.3336,391.7535,362.7346" style="stroke:#000000;stroke-width:1.0;"/><text fill="#000000" font-family="sans-serif" font-size="13" lengthAdjust="spacing" textLength="35" x="396" y="369.6045">needs</text><text fill="#000000" font-family="sans-serif" font-size="13" lengthAdjust="spacing" textLength="7" x="343.1033" y="420.2477">1</text><text fill="#000000" font-family="sans-serif" font-size="13" lengthAdjust="spacing" textLength="5" x="484.5631" y="372.1827">*</text></g><!--link OperationType to PhaseDetails--><g id="link_OperationType_PhaseDetails"><path codeLine="47" d="M308.24,398.5894 C323.32,382.5694 344.13,362.1794 365,347.1094 C407.68,316.2894 461.94,289.4694 499.27,272.6594 " fill="none" id="OperationType-PhaseDetails" style="stroke:#181818;stroke-width:1.0;"/><polygon fill="#000000" points="398.1746,287.5332,389.0052,290.0578,392.2403,294.9653,398.1746,287.5332" style="stroke:#000000;stroke-width:1.0;"/><text fill="#000000" font-family="sans-serif" font-size="13" lengthAdjust="spacing" textLength="21" x="403" y="295.6045">has</text><text fill="#000000" font-family="sans-serif" font-size="13" lengthAdjust="spacing" textLength="7" x="306.4265" y="387.5781">1</text><text fill="#000000" font-family="sans-serif" font-size="13" lengthAdjust="spacing" textLength="20" x="471.5736" y="289.9337">1..*</text></g><!--link OperationType to Status--><g id="link_OperationType_Status"><path codeLine="48" d="M288.09,449.6894 C293.9,493.6794 311.91,583.8594 365,635.1094 C395.62,664.6694 441.28,679.6794 478.68,687.2994 " fill="none" id="OperationType-Status" style="stroke:#181818;stroke-width:1.0;"/><polygon fill="#000000" points="397.1285,630.1855,393.7615,621.2908,389.1764,624.9686,397.1285,630.1855" style="stroke:#000000;stroke-width:1.0;"/><text fill="#000000" font-family="sans-serif" font-size="13" lengthAdjust="spacing" textLength="21" x="403" y="631.6045">has</text><text fill="#000000" font-family="sans-serif" font-size="13" lengthAdjust="spacing" textLength="5" x="283.3284" y="470.601">*</text><text fill="#000000" font-family="sans-serif" font-size="13" lengthAdjust="spacing" textLength="7" x="464.1528" y="700.8174">1</text></g><!--link RequiredStaff to Role--><g id="link_RequiredStaff_Role"><path codeLine="49" d="M590.79,315.2494 C597.62,309.9794 604.02,303.9194 609,297.1094 C637.14,258.6194 609.58,231.6294 639,194.1094 C677.14,145.4594 737.12,116.2094 794.82,98.6094 " fill="none" id="RequiredStaff-Role" style="stroke:#181818;stroke-width:1.0;"/><polygon fill="#000000" points="665.428,123.6453,657.0872,128.2149,661.3661,132.2448,665.428,123.6453" style="stroke:#000000;stroke-width:1.0;"/><text fill="#000000" font-family="sans-serif" font-size="13" lengthAdjust="spacing" textLength="21" x="671" y="132.6045">has</text><text fill="#000000" font-family="sans-serif" font-size="13" lengthAdjust="spacing" textLength="7" x="598.4907" y="326.2125">1</text><text fill="#000000" font-family="sans-serif" font-size="13" lengthAdjust="spacing" textLength="7" x="779.174" y="113.8868">1</text></g><!--link RequiredStaff to Specialization--><g id="link_RequiredStaff_Specialization"><path codeLine="50" d="M583.06,365.6194 C637.73,402.2094 732.84,465.7194 741,470.1094 C781.28,491.7594 827.74,512.0394 867.31,528.0194 " fill="none" id="RequiredStaff-Specialization" style="stroke:#181818;stroke-width:1.0;"/><polygon fill="#000000" points="666.3414,400.7655,659.9457,393.7267,657.0298,398.8303,666.3414,400.7655" style="stroke:#000000;stroke-width:1.0;"/><text fill="#000000" font-family="sans-serif" font-size="13" lengthAdjust="spacing" textLength="21" x="671" y="403.6045">has</text><text fill="#000000" font-family="sans-serif" font-size="13" lengthAdjust="spacing" textLength="7" x="584.2833" y="386.9387">1</text><text fill="#000000" font-family="sans-serif" font-size="13" lengthAdjust="spacing" textLength="7" x="841.5695" y="517.2319">1</text></g><!--link RequiredStaff to Quantity--><g id="link_RequiredStaff_Quantity"><path codeLine="51" d="M590.78,343.0994 C671.95,348.4094 839.83,359.3794 917.26,364.4494 " fill="none" id="RequiredStaff-Quantity" style="stroke:#181818;stroke-width:1.0;"/><polygon fill="#000000" points="648.9893,338.6114,640.1553,335.0885,639.7718,340.9539,648.9893,338.6114" style="stroke:#000000;stroke-width:1.0;"/><text fill="#000000" font-family="sans-serif" font-size="13" lengthAdjust="spacing" textLength="57" x="653" y="343.6045">this many</text><text fill="#000000" font-family="sans-serif" font-size="13" lengthAdjust="spacing" textLength="7" x="598.4791" y="358.327">1</text><text fill="#000000" font-family="sans-serif" font-size="13" lengthAdjust="spacing" textLength="7" x="902.4844" y="378.918">1</text></g><!--link PhaseDetails to Phase--><g id="link_PhaseDetails_Phase"><path codeLine="52" d="M588.81,256.0194 C626.18,257.6494 682.9,260.1194 740.75,262.6394 " fill="none" id="PhaseDetails-Phase" style="stroke:#181818;stroke-width:1.0;"/><polygon fill="#000000" points="666.9953,250.5028,658.0867,247.1729,657.8308,253.0452,666.9953,250.5028" style="stroke:#000000;stroke-width:1.0;"/><text fill="#000000" font-family="sans-serif" font-size="13" lengthAdjust="spacing" textLength="21" x="671" y="255.6045">has</text><text fill="#000000" font-family="sans-serif" font-size="13" lengthAdjust="spacing" textLength="7" x="596.5094" y="271.1456">1</text><text fill="#000000" font-family="sans-serif" font-size="13" lengthAdjust="spacing" textLength="7" x="725.7809" y="276.0824">1</text></g><!--link PhaseDetails to Duration--><g id="link_PhaseDetails_Duration"><path codeLine="53" d="M588.91,243.8594 C604.67,240.2994 622.6,236.3794 639,233.1094 C738.67,213.2394 856.62,193.5094 917.35,183.6294 " fill="none" id="PhaseDetails-Duration" style="stroke:#181818;stroke-width:1.0;"/><polygon fill="#000000" points="666.918,210.3833,657.4912,209.1241,658.5514,214.9055,666.918,210.3833" style="stroke:#000000;stroke-width:1.0;"/><text fill="#000000" font-family="sans-serif" font-size="13" lengthAdjust="spacing" textLength="21" x="671" y="216.6045">has</text><text fill="#000000" font-family="sans-serif" font-size="13" lengthAdjust="spacing" textLength="7" x="596.6253" y="238.4976">1</text><text fill="#000000" font-family="sans-serif" font-size="13" lengthAdjust="spacing" textLength="7" x="902.5898" y="199.6758">1</text></g><!--SRC=[XPDDRvj048Rl-oj6d9h8YP8UhSWI0fGW9U02hfHJjOOntWPs2RkqSglyzmuVTemT6auhzfcFT_OT_I9anMjUGiNJ5vvZR7O5GesfuJ8laEa3eBSyKx-5p6732utiw2ejkDQsCRLODmRzLCbO_46uOSoe2eo2jJ96bP29Dh5GaXMuCUr5BVAjEVhFjY93I4MTKktkNABPganJAc6eCrULN4XuKXaMyCLzke0hM3atNwdMe02iiCAQj-cINOLsdjUOSuCM_6L0NzSiZ1YukwkLCe2IYkmMYodETudynOi6GQr_Kii3AfN1GOhQd8RCeP7YbK983UNV2AoFyaVusf3wB3Pyi_auUmykjroZYuQBGd_AdG63zlQp0zkBamSlzkqVoyXRsf6T-64mWtWLtNlHC_qC7I-EP-0yUdRW1_TTwDjH3RVf1VwlZsyDxwPvphmnrYDsLees1_abnSeqlEXZYUc1W9VdKXZAfeIumbJmGlpvk951xxlMy36yVoP9TkJkps6KF8HBp_MTcBr1dpPIvB4XrdtoQIfkw2HXD8DW5SNU31BFUGXynxVfQac3yu84ID7O0MsMEP0sinKQLlGU3ZtA39GiTj2_T4s81bwJsPNKP0to0FbvgjZ5eDfmq-X9jKxYVwSmF-XFxQJx6Lkt5bnTWNLfdHX_3ccDj1mQ5eoDh_OnjzRP4inXyUxc3DQxwT3k2LkUR7bANHweazUSuDz5ZBUcnILYDXLmUtrDCQC5-hoZVj9xRbpmI5zdc4-f2NsJ_65vMh8pKSdbZeqa7E7zpk-pJb67hTs3_m00]--></g></svg>