<svg xmlns="http://www.w3.org/2000/svg" xmlns:xlink="http://www.w3.org/1999/xlink" contentStyleType="text/css" height="606px" preserveAspectRatio="none" style="width:745px;height:606px;background:#FFFFFF;" version="1.1" viewBox="0 0 745 606" width="745px" zoomAndPan="magnify"><defs/><g><rect fill="#FFFFFF" height="388.4922" style="stroke:#181818;stroke-width:1.0;" width="10" x="168.2246" y="116.9121"/><rect fill="#FFFFFF" height="325.9102" style="stroke:#181818;stroke-width:1.0;" width="10" x="269.2588" y="148.2031"/><rect fill="#FFFFFF" height="31.291" style="stroke:#181818;stroke-width:1.0;" width="10" x="387.8623" y="179.4941"/><rect fill="#FFFFFF" height="31.291" style="stroke:#181818;stroke-width:1.0;" width="10" x="387.8623" y="380.2402"/><rect fill="#FFFFFF" height="200.7461" style="stroke:#181818;stroke-width:1.0;" width="10" x="559.1621" y="242.0762"/><rect fill="#FFFFFF" height="67.582" style="stroke:#181818;stroke-width:1.0;" width="10" x="564.1621" y="343.9492"/><line style="stroke:#181818;stroke-width:0.5;stroke-dasharray:5.0,5.0;" x1="22" x2="22" y1="83.6211" y2="523.4043"/><line style="stroke:#181818;stroke-width:0.5;stroke-dasharray:5.0,5.0;" x1="173.1074" x2="173.1074" y1="83.6211" y2="523.4043"/><line style="stroke:#181818;stroke-width:0.5;stroke-dasharray:5.0,5.0;" x1="273.3418" x2="273.3418" y1="83.6211" y2="523.4043"/><line style="stroke:#181818;stroke-width:0.5;stroke-dasharray:5.0,5.0;" x1="392.1279" x2="392.1279" y1="83.6211" y2="523.4043"/><line style="stroke:#181818;stroke-width:0.5;stroke-dasharray:5.0,5.0;" x1="563.707" x2="563.707" y1="83.6211" y2="523.4043"/><line style="stroke:#181818;stroke-width:0.5;stroke-dasharray:5.0,5.0;" x1="680.6172" x2="680.6172" y1="83.6211" y2="523.4043"/><text fill="#000000" font-family="sans-serif" font-size="14" lengthAdjust="spacing" textLength="29.5586" x="5" y="80.1074">User</text><ellipse cx="22.7793" cy="13.5" fill="#E2E2F0" rx="8" ry="8" style="stroke:#181818;stroke-width:0.5;"/><path d="M22.7793,21.5 L22.7793,48.5 M9.7793,29.5 L35.7793,29.5 M22.7793,48.5 L9.7793,63.5 M22.7793,48.5 L35.7793,63.5 " fill="none" style="stroke:#181818;stroke-width:0.5;"/><text fill="#000000" font-family="sans-serif" font-size="14" lengthAdjust="spacing" textLength="29.5586" x="5" y="537.5117">User</text><ellipse cx="22.7793" cy="549.5254" fill="#E2E2F0" rx="8" ry="8" style="stroke:#181818;stroke-width:0.5;"/><path d="M22.7793,557.5254 L22.7793,584.5254 M9.7793,565.5254 L35.7793,565.5254 M22.7793,584.5254 L9.7793,599.5254 M22.7793,584.5254 L35.7793,599.5254 " fill="none" style="stroke:#181818;stroke-width:0.5;"/><rect fill="#E2E2F0" height="32.6211" rx="2.5" ry="2.5" style="stroke:#181818;stroke-width:0.5;" width="62.2344" x="142.1074" y="50"/><text fill="#000000" font-family="sans-serif" font-size="14" lengthAdjust="spacing" textLength="48.2344" x="149.1074" y="72.1074">file.html</text><rect fill="#E2E2F0" height="32.6211" rx="2.5" ry="2.5" style="stroke:#181818;stroke-width:0.5;" width="62.2344" x="142.1074" y="522.4043"/><text fill="#000000" font-family="sans-serif" font-size="14" lengthAdjust="spacing" textLength="48.2344" x="149.1074" y="544.5117">file.html</text><rect fill="#E2E2F0" height="32.6211" rx="2.5" ry="2.5" style="stroke:#181818;stroke-width:0.5;" width="119.834" x="214.3418" y="50"/><text fill="#000000" font-family="sans-serif" font-size="14" lengthAdjust="spacing" textLength="105.834" x="221.3418" y="72.1074">file.component.ts</text><rect fill="#E2E2F0" height="32.6211" rx="2.5" ry="2.5" style="stroke:#181818;stroke-width:0.5;" width="119.834" x="214.3418" y="522.4043"/><text fill="#000000" font-family="sans-serif" font-size="14" lengthAdjust="spacing" textLength="105.834" x="221.3418" y="544.5117">file.component.ts</text><rect fill="#E2E2F0" height="32.6211" rx="2.5" ry="2.5" style="stroke:#181818;stroke-width:0.5;" width="89.4688" x="348.1279" y="50"/><text fill="#000000" font-family="sans-serif" font-size="14" lengthAdjust="spacing" textLength="75.4688" x="355.1279" y="72.1074">file-model.ts</text><rect fill="#E2E2F0" height="32.6211" rx="2.5" ry="2.5" style="stroke:#181818;stroke-width:0.5;" width="89.4688" x="348.1279" y="522.4043"/><text fill="#000000" font-family="sans-serif" font-size="14" lengthAdjust="spacing" textLength="75.4688" x="355.1279" y="544.5117">file-model.ts</text><rect fill="#E2E2F0" height="32.6211" rx="2.5" ry="2.5" style="stroke:#181818;stroke-width:0.5;" width="94.9102" x="516.707" y="50"/><text fill="#000000" font-family="sans-serif" font-size="14" lengthAdjust="spacing" textLength="80.9102" x="523.707" y="72.1074">file.service.ts</text><rect fill="#E2E2F0" height="32.6211" rx="2.5" ry="2.5" style="stroke:#181818;stroke-width:0.5;" width="94.9102" x="516.707" y="522.4043"/><text fill="#000000" font-family="sans-serif" font-size="14" lengthAdjust="spacing" textLength="80.9102" x="523.707" y="544.5117">file.service.ts</text><rect fill="#E2E2F0" height="32.6211" rx="2.5" ry="2.5" style="stroke:#181818;stroke-width:0.5;" width="118.2891" x="621.6172" y="50"/><text fill="#000000" font-family="sans-serif" font-size="14" lengthAdjust="spacing" textLength="104.2891" x="628.6172" y="72.1074">Backend Module</text><rect fill="#E2E2F0" height="32.6211" rx="2.5" ry="2.5" style="stroke:#181818;stroke-width:0.5;" width="118.2891" x="621.6172" y="522.4043"/><text fill="#000000" font-family="sans-serif" font-size="14" lengthAdjust="spacing" textLength="104.2891" x="628.6172" y="544.5117">Backend Module</text><rect fill="#FFFFFF" height="388.4922" style="stroke:#181818;stroke-width:1.0;" width="10" x="168.2246" y="116.9121"/><rect fill="#FFFFFF" height="325.9102" style="stroke:#181818;stroke-width:1.0;" width="10" x="269.2588" y="148.2031"/><rect fill="#FFFFFF" height="31.291" style="stroke:#181818;stroke-width:1.0;" width="10" x="387.8623" y="179.4941"/><rect fill="#FFFFFF" height="31.291" style="stroke:#181818;stroke-width:1.0;" width="10" x="387.8623" y="380.2402"/><rect fill="#FFFFFF" height="200.7461" style="stroke:#181818;stroke-width:1.0;" width="10" x="559.1621" y="242.0762"/><rect fill="#FFFFFF" height="67.582" style="stroke:#181818;stroke-width:1.0;" width="10" x="564.1621" y="343.9492"/><polygon fill="#181818" points="156.2246,112.9121,166.2246,116.9121,156.2246,120.9121,160.2246,116.9121" style="stroke:#181818;stroke-width:1.0;"/><line style="stroke:#181818;stroke-width:1.0;" x1="22.7793" x2="162.2246" y1="116.9121" y2="116.9121"/><text fill="#000000" font-family="sans-serif" font-size="13" lengthAdjust="spacing" textLength="126.4453" x="29.7793" y="111.6494">Request for read form</text><polygon fill="#181818" points="257.2588,144.2031,267.2588,148.2031,257.2588,152.2031,261.2588,148.2031" style="stroke:#181818;stroke-width:1.0;"/><line style="stroke:#181818;stroke-width:1.0;" x1="178.2246" x2="263.2588" y1="148.2031" y2="148.2031"/><text fill="#000000" font-family="sans-serif" font-size="13" lengthAdjust="spacing" textLength="60.6899" x="185.2246" y="142.9404">Read form</text><polygon fill="#181818" points="375.8623,175.4941,385.8623,179.4941,375.8623,183.4941,379.8623,179.4941" style="stroke:#181818;stroke-width:1.0;"/><line style="stroke:#181818;stroke-width:1.0;" x1="279.2588" x2="381.8623" y1="179.4941" y2="179.4941"/><text fill="#000000" font-family="sans-serif" font-size="13" lengthAdjust="spacing" textLength="89.6035" x="286.2588" y="174.2314">Read form data</text><polygon fill="#181818" points="290.2588,206.7852,280.2588,210.7852,290.2588,214.7852,286.2588,210.7852" style="stroke:#181818;stroke-width:1.0;"/><line style="stroke:#181818;stroke-width:1.0;stroke-dasharray:2.0,2.0;" x1="284.2588" x2="391.8623" y1="210.7852" y2="210.7852"/><text fill="#000000" font-family="sans-serif" font-size="13" lengthAdjust="spacing" textLength="77.3208" x="296.2588" y="205.5225">Retrieve data</text><polygon fill="#181818" points="547.1621,238.0762,557.1621,242.0762,547.1621,246.0762,551.1621,242.0762" style="stroke:#181818;stroke-width:1.0;"/><line style="stroke:#181818;stroke-width:1.0;" x1="279.2588" x2="553.1621" y1="242.0762" y2="242.0762"/><text fill="#000000" font-family="sans-serif" font-size="13" lengthAdjust="spacing" textLength="59.2744" x="286.2588" y="236.8135">Send data</text><polygon fill="#181818" points="668.7617,269.3672,678.7617,273.3672,668.7617,277.3672,672.7617,273.3672" style="stroke:#181818;stroke-width:1.0;"/><line style="stroke:#181818;stroke-width:1.0;stroke-dasharray:2.0,2.0;" x1="569.1621" x2="674.7617" y1="273.3672" y2="273.3672"/><text fill="#000000" font-family="sans-serif" font-size="13" lengthAdjust="spacing" textLength="77.3271" x="576.1621" y="268.1045">http.get(data)</text><polygon fill="#181818" points="580.1621,300.6582,570.1621,304.6582,580.1621,308.6582,576.1621,304.6582" style="stroke:#181818;stroke-width:1.0;"/><line style="stroke:#181818;stroke-width:1.0;stroke-dasharray:2.0,2.0;" x1="574.1621" x2="679.7617" y1="304.6582" y2="304.6582"/><text fill="#000000" font-family="sans-serif" font-size="13" lengthAdjust="spacing" textLength="86.709" x="586.1621" y="299.3955">Data Retrieved</text><line style="stroke:#181818;stroke-width:1.0;" x1="569.1621" x2="616.1621" y1="330.9492" y2="330.9492"/><line style="stroke:#181818;stroke-width:1.0;" x1="616.1621" x2="616.1621" y1="330.9492" y2="343.9492"/><line style="stroke:#181818;stroke-width:1.0;" x1="575.1621" x2="616.1621" y1="343.9492" y2="343.9492"/><polygon fill="#181818" points="585.1621,339.9492,575.1621,343.9492,585.1621,347.9492,581.1621,343.9492" style="stroke:#181818;stroke-width:1.0;"/><text fill="#000000" font-family="sans-serif" font-size="13" lengthAdjust="spacing" textLength="62.8608" x="581.1621" y="325.6865">data.map()</text><polygon fill="#181818" points="408.8623,376.2402,398.8623,380.2402,408.8623,384.2402,404.8623,380.2402" style="stroke:#181818;stroke-width:1.0;"/><line style="stroke:#181818;stroke-width:1.0;stroke-dasharray:2.0,2.0;" x1="402.8623" x2="563.1621" y1="380.2402" y2="380.2402"/><text fill="#000000" font-family="sans-serif" font-size="13" lengthAdjust="spacing" textLength="56.3608" x="414.8623" y="374.9775">Map Data</text><polygon fill="#181818" points="547.1621,407.5313,557.1621,411.5313,547.1621,415.5313,551.1621,411.5313" style="stroke:#181818;stroke-width:1.0;"/><line style="stroke:#181818;stroke-width:1.0;stroke-dasharray:2.0,2.0;" x1="392.8623" x2="553.1621" y1="411.5313" y2="411.5313"/><text fill="#000000" font-family="sans-serif" font-size="13" lengthAdjust="spacing" textLength="137.2998" x="399.8623" y="406.2686">Mapped Data Retrieved</text><polygon fill="#181818" points="290.2588,438.8223,280.2588,442.8223,290.2588,446.8223,286.2588,442.8223" style="stroke:#181818;stroke-width:1.0;"/><line style="stroke:#181818;stroke-width:1.0;stroke-dasharray:2.0,2.0;" x1="284.2588" x2="563.1621" y1="442.8223" y2="442.8223"/><text fill="#000000" font-family="sans-serif" font-size="13" lengthAdjust="spacing" textLength="137.2998" x="296.2588" y="437.5596">Mapped Data Retrieved</text><polygon fill="#181818" points="189.2246,470.1133,179.2246,474.1133,189.2246,478.1133,185.2246,474.1133" style="stroke:#181818;stroke-width:1.0;"/><line style="stroke:#181818;stroke-width:1.0;stroke-dasharray:2.0,2.0;" x1="183.2246" x2="273.2588" y1="474.1133" y2="474.1133"/><text fill="#000000" font-family="sans-serif" font-size="13" lengthAdjust="spacing" textLength="59.96" x="195.2246" y="468.8506">Form read</text><polygon fill="#181818" points="33.7793,501.4043,23.7793,505.4043,33.7793,509.4043,29.7793,505.4043" style="stroke:#181818;stroke-width:1.0;"/><line style="stroke:#181818;stroke-width:1.0;stroke-dasharray:2.0,2.0;" x1="27.7793" x2="172.2246" y1="505.4043" y2="505.4043"/><text fill="#000000" font-family="sans-serif" font-size="13" lengthAdjust="spacing" textLength="59.96" x="39.7793" y="500.1416">Form read</text><!--SRC=[XLCxKiGm3Erp2irMIv4S80K5C0pDDZ0SG6DhsGpvc4J9-R4SspWVigfa-UdvwMDKtFNmEL0FEC2O6UovKfN1bk5qhMegRjpK9xbyiyxElUeQqxNKSi63mps7m1QSDvscEW0lSjXXj6AcIb60VSp79V09rJUrMZZ6cXpEXx9iXFpHgItXdNv66XYkjiYUK8lJPAYucf1fBWciYIDPKRka1hW0OifVTU0jHeJ0rPGaWqR628qiS-cGc8j0ljR0VKKJBLd4DFt3jL3ZMrTQn_PgNqfeRyhkOqwERsi9DsPJV16VXUTXWHSB4ydJTryiD5QXzzz8uC9SD6ZEM_f3lMlDVWeNDBE23VZECBP3YH8jfo5zLDZXU5QNzvgVxCBzXmzuaws8V-DLrbC-HRP3i5pp-NlOp76TbgIup_GB]--></g></svg>