<svg xmlns="http://www.w3.org/2000/svg" xmlns:xlink="http://www.w3.org/1999/xlink" contentStyleType="text/css" height="606px" preserveAspectRatio="none" style="width:777px;height:606px;background:#FFFFFF;" version="1.1" viewBox="0 0 777 606" width="777px" zoomAndPan="magnify"><defs/><g><rect fill="#FFFFFF" height="388.4922" style="stroke:#181818;stroke-width:1.0;" width="10" x="181.9673" y="116.9121"/><rect fill="#FFFFFF" height="325.9102" style="stroke:#181818;stroke-width:1.0;" width="10" x="296.8999" y="148.2031"/><rect fill="#FFFFFF" height="31.291" style="stroke:#181818;stroke-width:1.0;" width="10" x="426.3452" y="179.4941"/><rect fill="#FFFFFF" height="31.291" style="stroke:#181818;stroke-width:1.0;" width="10" x="426.3452" y="380.2402"/><rect fill="#FFFFFF" height="200.7461" style="stroke:#181818;stroke-width:1.0;" width="10" x="591.1577" y="242.0762"/><rect fill="#FFFFFF" height="67.582" style="stroke:#181818;stroke-width:1.0;" width="10" x="596.1577" y="343.9492"/><line style="stroke:#181818;stroke-width:0.5;stroke-dasharray:5.0,5.0;" x1="22" x2="22" y1="83.6211" y2="523.4043"/><line style="stroke:#181818;stroke-width:0.5;stroke-dasharray:5.0,5.0;" x1="186.8501" x2="186.8501" y1="83.6211" y2="523.4043"/><line style="stroke:#181818;stroke-width:0.5;stroke-dasharray:5.0,5.0;" x1="300.9829" x2="300.9829" y1="83.6211" y2="523.4043"/><line style="stroke:#181818;stroke-width:0.5;stroke-dasharray:5.0,5.0;" x1="430.6108" x2="430.6108" y1="83.6211" y2="523.4043"/><line style="stroke:#181818;stroke-width:0.5;stroke-dasharray:5.0,5.0;" x1="595.7026" x2="595.7026" y1="83.6211" y2="523.4043"/><line style="stroke:#181818;stroke-width:0.5;stroke-dasharray:5.0,5.0;" x1="712.6128" x2="712.6128" y1="83.6211" y2="523.4043"/><text fill="#000000" font-family="sans-serif" font-size="14" lengthAdjust="spacing" textLength="29.5586" x="5" y="80.1074">User</text><ellipse cx="22.7793" cy="13.5" fill="#E2E2F0" rx="8" ry="8" style="stroke:#181818;stroke-width:0.5;"/><path d="M22.7793,21.5 L22.7793,48.5 M9.7793,29.5 L35.7793,29.5 M22.7793,48.5 L9.7793,63.5 M22.7793,48.5 L35.7793,63.5 " fill="none" style="stroke:#181818;stroke-width:0.5;"/><text fill="#000000" font-family="sans-serif" font-size="14" lengthAdjust="spacing" textLength="29.5586" x="5" y="537.5117">User</text><ellipse cx="22.7793" cy="549.5254" fill="#E2E2F0" rx="8" ry="8" style="stroke:#181818;stroke-width:0.5;"/><path d="M22.7793,557.5254 L22.7793,584.5254 M9.7793,565.5254 L35.7793,565.5254 M22.7793,584.5254 L9.7793,599.5254 M22.7793,584.5254 L35.7793,599.5254 " fill="none" style="stroke:#181818;stroke-width:0.5;"/><rect fill="#E2E2F0" height="32.6211" rx="2.5" ry="2.5" style="stroke:#181818;stroke-width:0.5;" width="62.2344" x="155.8501" y="50"/><text fill="#000000" font-family="sans-serif" font-size="14" lengthAdjust="spacing" textLength="48.2344" x="162.8501" y="72.1074">file.html</text><rect fill="#E2E2F0" height="32.6211" rx="2.5" ry="2.5" style="stroke:#181818;stroke-width:0.5;" width="62.2344" x="155.8501" y="522.4043"/><text fill="#000000" font-family="sans-serif" font-size="14" lengthAdjust="spacing" textLength="48.2344" x="162.8501" y="544.5117">file.html</text><rect fill="#E2E2F0" height="32.6211" rx="2.5" ry="2.5" style="stroke:#181818;stroke-width:0.5;" width="119.834" x="241.9829" y="50"/><text fill="#000000" font-family="sans-serif" font-size="14" lengthAdjust="spacing" textLength="105.834" x="248.9829" y="72.1074">file.component.ts</text><rect fill="#E2E2F0" height="32.6211" rx="2.5" ry="2.5" style="stroke:#181818;stroke-width:0.5;" width="119.834" x="241.9829" y="522.4043"/><text fill="#000000" font-family="sans-serif" font-size="14" lengthAdjust="spacing" textLength="105.834" x="248.9829" y="544.5117">file.component.ts</text><rect fill="#E2E2F0" height="32.6211" rx="2.5" ry="2.5" style="stroke:#181818;stroke-width:0.5;" width="89.4688" x="386.6108" y="50"/><text fill="#000000" font-family="sans-serif" font-size="14" lengthAdjust="spacing" textLength="75.4688" x="393.6108" y="72.1074">file-model.ts</text><rect fill="#E2E2F0" height="32.6211" rx="2.5" ry="2.5" style="stroke:#181818;stroke-width:0.5;" width="89.4688" x="386.6108" y="522.4043"/><text fill="#000000" font-family="sans-serif" font-size="14" lengthAdjust="spacing" textLength="75.4688" x="393.6108" y="544.5117">file-model.ts</text><rect fill="#E2E2F0" height="32.6211" rx="2.5" ry="2.5" style="stroke:#181818;stroke-width:0.5;" width="94.9102" x="548.7026" y="50"/><text fill="#000000" font-family="sans-serif" font-size="14" lengthAdjust="spacing" textLength="80.9102" x="555.7026" y="72.1074">file.service.ts</text><rect fill="#E2E2F0" height="32.6211" rx="2.5" ry="2.5" style="stroke:#181818;stroke-width:0.5;" width="94.9102" x="548.7026" y="522.4043"/><text fill="#000000" font-family="sans-serif" font-size="14" lengthAdjust="spacing" textLength="80.9102" x="555.7026" y="544.5117">file.service.ts</text><rect fill="#E2E2F0" height="32.6211" rx="2.5" ry="2.5" style="stroke:#181818;stroke-width:0.5;" width="118.2891" x="653.6128" y="50"/><text fill="#000000" font-family="sans-serif" font-size="14" lengthAdjust="spacing" textLength="104.2891" x="660.6128" y="72.1074">Backend Module</text><rect fill="#E2E2F0" height="32.6211" rx="2.5" ry="2.5" style="stroke:#181818;stroke-width:0.5;" width="118.2891" x="653.6128" y="522.4043"/><text fill="#000000" font-family="sans-serif" font-size="14" lengthAdjust="spacing" textLength="104.2891" x="660.6128" y="544.5117">Backend Module</text><rect fill="#FFFFFF" height="388.4922" style="stroke:#181818;stroke-width:1.0;" width="10" x="181.9673" y="116.9121"/><rect fill="#FFFFFF" height="325.9102" style="stroke:#181818;stroke-width:1.0;" width="10" x="296.8999" y="148.2031"/><rect fill="#FFFFFF" height="31.291" style="stroke:#181818;stroke-width:1.0;" width="10" x="426.3452" y="179.4941"/><rect fill="#FFFFFF" height="31.291" style="stroke:#181818;stroke-width:1.0;" width="10" x="426.3452" y="380.2402"/><rect fill="#FFFFFF" height="200.7461" style="stroke:#181818;stroke-width:1.0;" width="10" x="591.1577" y="242.0762"/><rect fill="#FFFFFF" height="67.582" style="stroke:#181818;stroke-width:1.0;" width="10" x="596.1577" y="343.9492"/><polygon fill="#181818" points="169.9673,112.9121,179.9673,116.9121,169.9673,120.9121,173.9673,116.9121" style="stroke:#181818;stroke-width:1.0;"/><line style="stroke:#181818;stroke-width:1.0;" x1="22.7793" x2="175.9673" y1="116.9121" y2="116.9121"/><text fill="#000000" font-family="sans-serif" font-size="13" lengthAdjust="spacing" textLength="140.188" x="29.7793" y="111.6494">Request for update form</text><polygon fill="#181818" points="284.8999,144.2031,294.8999,148.2031,284.8999,152.2031,288.8999,148.2031" style="stroke:#181818;stroke-width:1.0;"/><line style="stroke:#181818;stroke-width:1.0;" x1="191.9673" x2="290.8999" y1="148.2031" y2="148.2031"/><text fill="#000000" font-family="sans-serif" font-size="13" lengthAdjust="spacing" textLength="71.5317" x="198.9673" y="142.9404">Update form</text><polygon fill="#181818" points="414.3452,175.4941,424.3452,179.4941,414.3452,183.4941,418.3452,179.4941" style="stroke:#181818;stroke-width:1.0;"/><line style="stroke:#181818;stroke-width:1.0;" x1="306.8999" x2="420.3452" y1="179.4941" y2="179.4941"/><text fill="#000000" font-family="sans-serif" font-size="13" lengthAdjust="spacing" textLength="100.4453" x="313.8999" y="174.2314">Update form data</text><polygon fill="#181818" points="317.8999,206.7852,307.8999,210.7852,317.8999,214.7852,313.8999,210.7852" style="stroke:#181818;stroke-width:1.0;"/><line style="stroke:#181818;stroke-width:1.0;stroke-dasharray:2.0,2.0;" x1="311.8999" x2="430.3452" y1="210.7852" y2="210.7852"/><text fill="#000000" font-family="sans-serif" font-size="13" lengthAdjust="spacing" textLength="77.3208" x="323.8999" y="205.5225">Retrieve data</text><polygon fill="#181818" points="579.1577,238.0762,589.1577,242.0762,579.1577,246.0762,583.1577,242.0762" style="stroke:#181818;stroke-width:1.0;"/><line style="stroke:#181818;stroke-width:1.0;" x1="306.8999" x2="585.1577" y1="242.0762" y2="242.0762"/><text fill="#000000" font-family="sans-serif" font-size="13" lengthAdjust="spacing" textLength="59.2744" x="313.8999" y="236.8135">Send data</text><polygon fill="#181818" points="700.7573,269.3672,710.7573,273.3672,700.7573,277.3672,704.7573,273.3672" style="stroke:#181818;stroke-width:1.0;"/><line style="stroke:#181818;stroke-width:1.0;stroke-dasharray:2.0,2.0;" x1="601.1577" x2="706.7573" y1="273.3672" y2="273.3672"/><text fill="#000000" font-family="sans-serif" font-size="13" lengthAdjust="spacing" textLength="77.3271" x="608.1577" y="268.1045">http.put(data)</text><polygon fill="#181818" points="612.1577,300.6582,602.1577,304.6582,612.1577,308.6582,608.1577,304.6582" style="stroke:#181818;stroke-width:1.0;"/><line style="stroke:#181818;stroke-width:1.0;stroke-dasharray:2.0,2.0;" x1="606.1577" x2="711.7573" y1="304.6582" y2="304.6582"/><text fill="#000000" font-family="sans-serif" font-size="13" lengthAdjust="spacing" textLength="80.2217" x="618.1577" y="299.3955">Data Updated</text><line style="stroke:#181818;stroke-width:1.0;" x1="601.1577" x2="648.1577" y1="330.9492" y2="330.9492"/><line style="stroke:#181818;stroke-width:1.0;" x1="648.1577" x2="648.1577" y1="330.9492" y2="343.9492"/><line style="stroke:#181818;stroke-width:1.0;" x1="607.1577" x2="648.1577" y1="343.9492" y2="343.9492"/><polygon fill="#181818" points="617.1577,339.9492,607.1577,343.9492,617.1577,347.9492,613.1577,343.9492" style="stroke:#181818;stroke-width:1.0;"/><text fill="#000000" font-family="sans-serif" font-size="13" lengthAdjust="spacing" textLength="62.8608" x="613.1577" y="325.6865">data.map()</text><polygon fill="#181818" points="447.3452,376.2402,437.3452,380.2402,447.3452,384.2402,443.3452,380.2402" style="stroke:#181818;stroke-width:1.0;"/><line style="stroke:#181818;stroke-width:1.0;stroke-dasharray:2.0,2.0;" x1="441.3452" x2="595.1577" y1="380.2402" y2="380.2402"/><text fill="#000000" font-family="sans-serif" font-size="13" lengthAdjust="spacing" textLength="56.3608" x="453.3452" y="374.9775">Map Data</text><polygon fill="#181818" points="579.1577,407.5313,589.1577,411.5313,579.1577,415.5313,583.1577,411.5313" style="stroke:#181818;stroke-width:1.0;"/><line style="stroke:#181818;stroke-width:1.0;stroke-dasharray:2.0,2.0;" x1="431.3452" x2="585.1577" y1="411.5313" y2="411.5313"/><text fill="#000000" font-family="sans-serif" font-size="13" lengthAdjust="spacing" textLength="130.8125" x="438.3452" y="406.2686">Mapped Data Updated</text><polygon fill="#181818" points="317.8999,438.8223,307.8999,442.8223,317.8999,446.8223,313.8999,442.8223" style="stroke:#181818;stroke-width:1.0;"/><line style="stroke:#181818;stroke-width:1.0;stroke-dasharray:2.0,2.0;" x1="311.8999" x2="595.1577" y1="442.8223" y2="442.8223"/><text fill="#000000" font-family="sans-serif" font-size="13" lengthAdjust="spacing" textLength="123.5825" x="323.8999" y="437.5596">Mapped Data Update</text><polygon fill="#181818" points="202.9673,470.1133,192.9673,474.1133,202.9673,478.1133,198.9673,474.1133" style="stroke:#181818;stroke-width:1.0;"/><line style="stroke:#181818;stroke-width:1.0;stroke-dasharray:2.0,2.0;" x1="196.9673" x2="300.8999" y1="474.1133" y2="474.1133"/><text fill="#000000" font-family="sans-serif" font-size="13" lengthAdjust="spacing" textLength="80.9326" x="208.9673" y="468.8506">Form updated</text><polygon fill="#181818" points="33.7793,501.4043,23.7793,505.4043,33.7793,509.4043,29.7793,505.4043" style="stroke:#181818;stroke-width:1.0;"/><line style="stroke:#181818;stroke-width:1.0;stroke-dasharray:2.0,2.0;" x1="27.7793" x2="185.9673" y1="505.4043" y2="505.4043"/><text fill="#000000" font-family="sans-serif" font-size="13" lengthAdjust="spacing" textLength="80.9326" x="39.7793" y="500.1416">Form updated</text><!--SRC=[ZLDBSiCW3Dtx59giqeLz02-wQ3kTRh999mTWG9amzOVOmkSlmfX2x2JLIeYdfoS9XAH-WDE80uWHR674G5fg8pg2tLatM5seRNPy-UMSZNlPjwRliAEAHezxNm9hSDds2fi5UE331gCJCsc92-nxFkR0Do5_i5FCOHlqk10g2WlbgrTRmn6l5aU2islI6YK8sMqB8KbFVF9DWJDsE2-gh-6K930a9lrr2C5YX2byNrawE4z4SEIP1m29-GYKkOuZqg1nmfo5JU4ThanF663j73UnRIdBa5Fs4FDomd1hk12PobZQCyzBXcTRzbAcTJySD8n3RLT8mCnRjSBir-GFrTug3biu23FNNu6Vh6AzaYZHSHfKzzjwk9gRosU3Jzx1kkn_IPFd4B_69xzBUwC-uSWV-VmzNBBTo4oo_7_w1G00]--></g></svg>