<?xml version="1.0" encoding="us-ascii" standalone="no"?><svg xmlns="http://www.w3.org/2000/svg" xmlns:xlink="http://www.w3.org/1999/xlink" contentStyleType="text/css" height="816px" preserveAspectRatio="none" style="width:1465px;height:816px;background:#FFFFFF;" version="1.1" viewBox="0 0 1465 816" width="1465px" zoomAndPan="magnify"><defs/><g><text fill="#000000" font-family="sans-serif" font-size="14" font-weight="bold" lengthAdjust="spacing" textLength="194" x="628.5" y="24.5332">Domain Model (DM) - UC001</text><!--cluster User Aggregate--><g id="cluster_User Aggregate"><rect fill="none" height="293" rx="2.5" ry="2.5" style="stroke:#000000;stroke-width:1.5;" width="1202.5" x="256.5" y="45.6094"/><text fill="#000000" font-family="sans-serif" font-size="14" font-weight="bold" lengthAdjust="spacing" textLength="110" x="802.75" y="62.1426">User Aggregate</text></g><!--cluster StaffAggregate--><g id="cluster_StaffAggregate"><rect fill="none" height="448" rx="2.5" ry="2.5" style="stroke:#000000;stroke-width:1.5;" width="687.5" x="10" y="362.6094"/><text fill="#000000" font-family="sans-serif" font-size="14" font-weight="bold" lengthAdjust="spacing" textLength="105" x="301.25" y="379.1426">StaffAggregate</text></g><!--class User--><g id="elem_User"><rect codeLine="16" fill="#F1F1F1" height="50.7031" id="User" rx="2.5" ry="2.5" style="stroke:#181818;stroke-width:0.5;" width="69" x="272.5" y="222.1094"/><text fill="#000000" font-family="sans-serif" font-size="12" font-style="italic" lengthAdjust="spacing" textLength="67" x="273.5" y="239.5664">&#171;root entity&#187;</text><text fill="#000000" font-family="sans-serif" font-size="14" lengthAdjust="spacing" textLength="29" x="292.5" y="256.7363">User</text><line style="stroke:#181818;stroke-width:0.5;" x1="273.5" x2="340.5" y1="264.8125" y2="264.8125"/></g><!--class Username--><g id="elem_Username"><rect codeLine="17" fill="#F1F1F1" height="50.7031" id="Username" rx="2.5" ry="2.5" style="stroke:#181818;stroke-width:0.5;" width="83" x="584.5" y="271.1094"/><text fill="#000000" font-family="sans-serif" font-size="12" font-style="italic" lengthAdjust="spacing" textLength="81" x="585.5" y="288.5664">&#171;value object&#187;</text><text fill="#000000" font-family="sans-serif" font-size="14" lengthAdjust="spacing" textLength="64" x="594" y="305.7363">Username</text><line style="stroke:#181818;stroke-width:0.5;" x1="585.5" x2="666.5" y1="313.8125" y2="313.8125"/></g><g id="elem_GMN5"><path d="M1064.5,283.6094 L1064.5,292.6094 L667.76,296.6094 L1064.5,300.6094 L1064.5,309.9609 A0,0 0 0 0 1064.5,309.9609 L1230.5,309.9609 A0,0 0 0 0 1230.5,309.9609 L1230.5,293.6094 L1220.5,283.6094 L1064.5,283.6094 A0,0 0 0 0 1064.5,283.6094 " fill="#FEFFDD" style="stroke:#181818;stroke-width:0.5;"/><path d="M1220.5,283.6094 L1220.5,293.6094 L1230.5,293.6094 L1220.5,283.6094 " fill="#FEFFDD" style="stroke:#181818;stroke-width:0.5;"/><text fill="#000000" font-family="sans-serif" font-size="13" lengthAdjust="spacing" textLength="145" x="1070.5" y="302.1045">same as the user's email</text></g><!--class Email--><g id="elem_Email"><rect codeLine="19" fill="#F1F1F1" height="50.7031" id="Email" rx="2.5" ry="2.5" style="stroke:#181818;stroke-width:0.5;" width="83" x="584.5" y="185.1094"/><text fill="#000000" font-family="sans-serif" font-size="12" font-style="italic" lengthAdjust="spacing" textLength="81" x="585.5" y="202.5664">&#171;value object&#187;</text><text fill="#000000" font-family="sans-serif" font-size="14" lengthAdjust="spacing" textLength="34" x="609" y="219.7363">Email</text><line style="stroke:#181818;stroke-width:0.5;" x1="585.5" x2="666.5" y1="227.8125" y2="227.8125"/></g><!--class Role--><g id="elem_Role"><rect codeLine="20" fill="#F1F1F1" height="68.3125" id="Role" rx="2.5" ry="2.5" style="stroke:#181818;stroke-width:0.5;" width="330" x="461" y="81.6094"/><text fill="#000000" font-family="sans-serif" font-size="12" font-style="italic" lengthAdjust="spacing" textLength="81" x="585.5" y="99.0664">&#171;value object&#187;</text><text fill="#000000" font-family="sans-serif" font-size="14" lengthAdjust="spacing" textLength="29" x="611.5" y="116.2363">Role</text><line style="stroke:#181818;stroke-width:0.5;" x1="462" x2="790" y1="124.3125" y2="124.3125"/><text fill="#000000" font-family="sans-serif" font-size="14" lengthAdjust="spacing" textLength="318" x="467" y="142.8457">ADMIN, DOCTOR, NURSE, TECHNICIAN, PATIENT</text></g><g id="elem_GMN10"><path d="M852,102.6094 L852,111.6094 L791.02,115.6094 L852,119.6094 L852,128.9609 A0,0 0 0 0 852,128.9609 L1443,128.9609 A0,0 0 0 0 1443,128.9609 L1443,112.6094 L1433,102.6094 L852,102.6094 A0,0 0 0 0 852,102.6094 " fill="#FEFFDD" style="stroke:#181818;stroke-width:0.5;"/><path d="M1433,102.6094 L1433,112.6094 L1443,112.6094 L1433,102.6094 " fill="#FEFFDD" style="stroke:#181818;stroke-width:0.5;"/><text fill="#000000" font-family="sans-serif" font-size="13" lengthAdjust="spacing" textLength="570" x="858" y="121.1045">in this Use Case, only Backoffice Roles are considered (ADMIN, DOCTOR, NURSE, TECHNICIAN)</text></g><!--class Staff--><g id="elem_Staff"><rect codeLine="27" fill="#F1F1F1" height="50.7031" id="Staff" rx="2.5" ry="2.5" style="stroke:#181818;stroke-width:0.5;" width="69" x="26" y="528.1094"/><text fill="#000000" font-family="sans-serif" font-size="12" font-style="italic" lengthAdjust="spacing" textLength="67" x="27" y="545.5664">&#171;root entity&#187;</text><text fill="#000000" font-family="sans-serif" font-size="14" lengthAdjust="spacing" textLength="29" x="46" y="562.7363">Staff</text><line style="stroke:#181818;stroke-width:0.5;" x1="27" x2="94" y1="570.8125" y2="570.8125"/></g><!--class StaffID--><g id="elem_StaffID"><rect codeLine="28" fill="#F1F1F1" height="50.7031" id="StaffID" rx="2.5" ry="2.5" style="stroke:#181818;stroke-width:0.5;" width="83" x="265.5" y="743.1094"/><text fill="#000000" font-family="sans-serif" font-size="12" font-style="italic" lengthAdjust="spacing" textLength="81" x="266.5" y="760.5664">&#171;value object&#187;</text><text fill="#000000" font-family="sans-serif" font-size="14" lengthAdjust="spacing" textLength="42" x="286" y="777.7363">StaffID</text><line style="stroke:#181818;stroke-width:0.5;" x1="266.5" x2="347.5" y1="785.8125" y2="785.8125"/></g><g id="elem_GMN16"><path d="M570.5,755.6094 L570.5,764.6094 L348.79,768.6094 L570.5,772.6094 L570.5,781.9609 A0,0 0 0 0 570.5,781.9609 L681.5,781.9609 A0,0 0 0 0 681.5,781.9609 L681.5,765.6094 L671.5,755.6094 L570.5,755.6094 A0,0 0 0 0 570.5,755.6094 " fill="#FEFFDD" style="stroke:#181818;stroke-width:0.5;"/><path d="M671.5,755.6094 L671.5,765.6094 L681.5,765.6094 L671.5,755.6094 " fill="#FEFFDD" style="stroke:#181818;stroke-width:0.5;"/><text fill="#000000" font-family="sans-serif" font-size="13" lengthAdjust="spacing" textLength="90" x="576.5" y="774.1045">unique identifier</text></g><!--class LicenseNumber--><g id="elem_LicenseNumber"><rect codeLine="30" fill="#F1F1F1" height="50.7031" id="LicenseNumber" rx="2.5" ry="2.5" style="stroke:#181818;stroke-width:0.5;" width="104" x="255" y="657.1094"/><text fill="#000000" font-family="sans-serif" font-size="12" font-style="italic" lengthAdjust="spacing" textLength="81" x="266.5" y="674.5664">&#171;value object&#187;</text><text fill="#000000" font-family="sans-serif" font-size="14" lengthAdjust="spacing" textLength="98" x="258" y="691.7363">LicenseNumber</text><line style="stroke:#181818;stroke-width:0.5;" x1="256" x2="358" y1="699.8125" y2="699.8125"/></g><g id="elem_GMN20"><path d="M596.5,669.6094 L596.5,678.6094 L359.28,682.6094 L596.5,686.6094 L596.5,695.9609 A0,0 0 0 0 596.5,695.9609 L655.5,695.9609 A0,0 0 0 0 655.5,695.9609 L655.5,679.6094 L645.5,669.6094 L596.5,669.6094 A0,0 0 0 0 596.5,669.6094 " fill="#FEFFDD" style="stroke:#181818;stroke-width:0.5;"/><path d="M645.5,669.6094 L645.5,679.6094 L655.5,679.6094 L645.5,669.6094 " fill="#FEFFDD" style="stroke:#181818;stroke-width:0.5;"/><text fill="#000000" font-family="sans-serif" font-size="13" lengthAdjust="spacing" textLength="38" x="602.5" y="688.1045">unique</text></g><!--class AvailabilitySlots--><g id="elem_AvailabilitySlots"><rect codeLine="32" fill="#F1F1F1" height="50.7031" id="AvailabilitySlots" rx="2.5" ry="2.5" style="stroke:#181818;stroke-width:0.5;" width="103" x="255.5" y="571.1094"/><text fill="#000000" font-family="sans-serif" font-size="12" font-style="italic" lengthAdjust="spacing" textLength="81" x="266.5" y="588.5664">&#171;value object&#187;</text><text fill="#000000" font-family="sans-serif" font-size="14" lengthAdjust="spacing" textLength="97" x="258.5" y="605.7363">AvailabilitySlots</text><line style="stroke:#181818;stroke-width:0.5;" x1="256.5" x2="357.5" y1="613.8125" y2="613.8125"/></g><!--class AppointmentSlots--><g id="elem_AppointmentSlots"><rect codeLine="33" fill="#F1F1F1" height="50.7031" id="AppointmentSlots" rx="2.5" ry="2.5" style="stroke:#181818;stroke-width:0.5;" width="116" x="249" y="485.1094"/><text fill="#000000" font-family="sans-serif" font-size="12" font-style="italic" lengthAdjust="spacing" textLength="81" x="266.5" y="502.5664">&#171;value object&#187;</text><text fill="#000000" font-family="sans-serif" font-size="14" lengthAdjust="spacing" textLength="110" x="252" y="519.7363">AppointmentSlots</text><line style="stroke:#181818;stroke-width:0.5;" x1="250" x2="364" y1="527.8125" y2="527.8125"/></g><!--class DeactivateTime--><g id="elem_DeactivateTime"><rect codeLine="34" fill="#F1F1F1" height="50.7031" id="DeactivateTime" rx="2.5" ry="2.5" style="stroke:#181818;stroke-width:0.5;" width="104" x="255" y="399.1094"/><text fill="#000000" font-family="sans-serif" font-size="12" font-style="italic" lengthAdjust="spacing" textLength="81" x="266.5" y="416.5664">&#171;value object&#187;</text><text fill="#000000" font-family="sans-serif" font-size="14" lengthAdjust="spacing" textLength="98" x="258" y="433.7363">DeactivateTime</text><line style="stroke:#181818;stroke-width:0.5;" x1="256" x2="358" y1="441.8125" y2="441.8125"/></g><!--class Admin--><g id="elem_Admin"><rect codeLine="37" fill="#F1F1F1" height="50.7031" id="Admin" rx="2.5" ry="2.5" style="stroke:#181818;stroke-width:0.5;" width="107" x="7" y="222.1094"/><text fill="#000000" font-family="sans-serif" font-size="12" font-style="italic" lengthAdjust="spacing" textLength="105" x="8" y="239.5664">&#171;conceptual class&#187;</text><text fill="#000000" font-family="sans-serif" font-size="14" lengthAdjust="spacing" textLength="39" x="41" y="256.7363">Admin</text><line style="stroke:#181818;stroke-width:0.5;" x1="8" x2="113" y1="264.8125" y2="264.8125"/></g><!--link Admin to User--><g id="link_Admin_User"><path codeLine="39" d="M114.25,247.6094 C162.26,247.6094 225.69,247.6094 266.5,247.6094 " fill="none" id="Admin-to-User" style="stroke:#181818;stroke-width:1.0;"/><polygon fill="#181818" points="272.5,247.6094,263.5,243.6094,267.5,247.6094,263.5,251.6094,272.5,247.6094" style="stroke:#181818;stroke-width:1.0;"/><polygon fill="#000000" points="162.5,238.7852,153.4549,235.8462,153.4549,241.7241,162.5,238.7852" style="stroke:#000000;stroke-width:1.0;"/><text fill="#000000" font-family="sans-serif" font-size="13" lengthAdjust="spacing" textLength="43" x="166.5" y="244.1045">creates</text><text fill="#000000" font-family="sans-serif" font-size="13" lengthAdjust="spacing" textLength="7" x="121.943" y="262.2231">1</text><text fill="#000000" font-family="sans-serif" font-size="13" lengthAdjust="spacing" textLength="5" x="259.4063" y="262.9254">*</text></g><!--link User to Username--><g id="link_User_Username"><path codeLine="41" d="M341.83,254.1494 C357.91,257.1794 377.42,260.7294 395,263.6094 C461.08,274.4194 532.223,284.2937 578.263,290.4537 " fill="none" id="User-to-Username" style="stroke:#181818;stroke-width:1.0;"/><polygon fill="#181818" points="584.21,291.2494,575.82,286.0912,579.2542,290.5863,574.759,294.0205,584.21,291.2494" style="stroke:#181818;stroke-width:1.0;"/><polygon fill="#000000" points="404.9421,255.544,396.4478,251.2663,395.5557,257.0761,404.9421,255.544" style="stroke:#000000;stroke-width:1.0;"/><text fill="#000000" font-family="sans-serif" font-size="13" lengthAdjust="spacing" textLength="21" x="409" y="260.1045">has</text><text fill="#000000" font-family="sans-serif" font-size="13" lengthAdjust="spacing" textLength="7" x="349.7356" y="270.7102">1</text><text fill="#000000" font-family="sans-serif" font-size="13" lengthAdjust="spacing" textLength="7" x="569.4258" y="305.254">1</text></g><!--link User to Email--><g id="link_User_Email"><path codeLine="42" d="M341.62,243.6894 C400.26,236.8394 515.0405,223.4453 578.3205,216.0553 " fill="none" id="User-to-Email" style="stroke:#181818;stroke-width:1.0;"/><polygon fill="#181818" points="584.28,215.3594,574.8768,212.4303,579.3138,215.9393,575.8047,220.3763,584.28,215.3594" style="stroke:#181818;stroke-width:1.0;"/><polygon fill="#000000" points="404.9663,224.2054,395.6414,222.3351,396.323,228.1733,404.9663,224.2054" style="stroke:#000000;stroke-width:1.0;"/><text fill="#000000" font-family="sans-serif" font-size="13" lengthAdjust="spacing" textLength="21" x="409" y="230.1045">has</text><text fill="#000000" font-family="sans-serif" font-size="13" lengthAdjust="spacing" textLength="7" x="349.4823" y="238.7929">1</text><text fill="#000000" font-family="sans-serif" font-size="13" lengthAdjust="spacing" textLength="7" x="569.5078" y="231.1016">1</text></g><!--link User to Role--><g id="link_User_Role"><path codeLine="43" d="M341.51,227.9094 C371.98,210.5294 418.52,185.2894 461,167.6094 C476.3,161.2394 487.0034,157.1327 503.2734,151.5627 " fill="none" id="User-to-Role" style="stroke:#181818;stroke-width:1.0;"/><polygon fill="#181818" points="508.95,149.6194,499.1396,148.75,504.2195,151.2388,501.7307,156.3188,508.95,149.6194" style="stroke:#181818;stroke-width:1.0;"/><polygon fill="#000000" points="404.5217,170.6511,395.0875,171.8539,397.5963,177.1694,404.5217,170.6511" style="stroke:#000000;stroke-width:1.0;"/><text fill="#000000" font-family="sans-serif" font-size="13" lengthAdjust="spacing" textLength="21" x="409" y="178.1045">has</text><text fill="#000000" font-family="sans-serif" font-size="13" lengthAdjust="spacing" textLength="5" x="349.6059" y="219.416">*</text><text fill="#000000" font-family="sans-serif" font-size="13" lengthAdjust="spacing" textLength="7" x="478.2167" y="171.3891">1</text></g><!--link Staff to User--><g id="link_Staff_User"><path codeLine="45" d="M78.9,527.7994 C95.17,503.9694 120.45,467.8194 144,437.6094 C191.3,376.9194 246.8919,313.5232 278.9919,277.6032 " fill="none" id="Staff-to-User" style="stroke:#181818;stroke-width:1.0;"/><polygon fill="#181818" points="282.99,273.1294,274.0103,277.1748,279.6583,276.8576,279.9755,282.5055,282.99,273.1294" style="stroke:#181818;stroke-width:1.0;"/><polygon fill="#000000" points="152.1229,335.8803,144.1783,341.1087,148.7688,344.7798,152.1229,335.8803" style="stroke:#000000;stroke-width:1.0;"/><text fill="#000000" font-family="sans-serif" font-size="13" lengthAdjust="spacing" textLength="60" x="158" y="345.1045">references</text></g><!--link Staff to StaffID--><g id="link_Staff_StaffID"><path codeLine="46" d="M74.09,579.2194 C88.24,606.0294 113.28,648.0994 144,676.6094 C180.03,710.0594 224.9189,733.7561 259.8789,749.4961 " fill="none" id="Staff-to-StaffID" style="stroke:#181818;stroke-width:1.0;"/><polygon fill="#181818" points="265.35,751.9594,258.7856,744.6172,260.7908,749.9067,255.5013,751.9119,265.35,751.9594" style="stroke:#181818;stroke-width:1.0;"/><polygon fill="#000000" points="172.1861,671.1635,167.5036,662.8854,163.5322,667.2187,172.1861,671.1635" style="stroke:#000000;stroke-width:1.0;"/><text fill="#000000" font-family="sans-serif" font-size="13" lengthAdjust="spacing" textLength="21" x="177.5" y="673.1045">has</text><text fill="#000000" font-family="sans-serif" font-size="13" lengthAdjust="spacing" textLength="7" x="69.2972" y="600.1376">1</text><text fill="#000000" font-family="sans-serif" font-size="13" lengthAdjust="spacing" textLength="7" x="250.5898" y="764.0235">1</text></g><!--link Staff to LicenseNumber--><g id="link_Staff_LicenseNumber"><path codeLine="47" d="M91.95,579.4094 C106.99,591.3794 125.79,605.2194 144,615.6094 C179.43,635.8094 216.5183,651.1497 249.1983,663.1597 " fill="none" id="Staff-to-LicenseNumber" style="stroke:#181818;stroke-width:1.0;"/><polygon fill="#181818" points="254.83,665.2294,247.7622,658.3704,250.1369,663.5046,245.0026,665.8793,254.83,665.2294" style="stroke:#181818;stroke-width:1.0;"/><polygon fill="#000000" points="172.9131,609.1356,166.3113,602.2897,163.5482,607.4776,172.9131,609.1356" style="stroke:#000000;stroke-width:1.0;"/><text fill="#000000" font-family="sans-serif" font-size="13" lengthAdjust="spacing" textLength="21" x="177.5" y="612.1045">has</text><text fill="#000000" font-family="sans-serif" font-size="13" lengthAdjust="spacing" textLength="7" x="91.0641" y="600.3692">1</text><text fill="#000000" font-family="sans-serif" font-size="13" lengthAdjust="spacing" textLength="7" x="240.0014" y="677.451">1</text></g><!--link Staff to AvailabilitySlots--><g id="link_Staff_AvailabilitySlots"><path codeLine="48" d="M95.26,565.3694 C110.06,570.1294 127.73,575.2694 144,578.6094 C180.87,586.1794 217.1702,590.248 249.3002,592.888 " fill="none" id="Staff-to-AvailabilitySlots" style="stroke:#181818;stroke-width:1.0;"/><polygon fill="#181818" points="255.28,593.3794,246.6378,588.6558,250.2968,592.9699,245.9827,596.6289,255.28,593.3794" style="stroke:#181818;stroke-width:1.0;"/><polygon fill="#000000" points="173.4221,570.6645,165.0348,566.1807,164.0011,571.9669,173.4221,570.6645" style="stroke:#000000;stroke-width:1.0;"/><text fill="#000000" font-family="sans-serif" font-size="13" lengthAdjust="spacing" textLength="21" x="177.5" y="575.1045">has</text><text fill="#000000" font-family="sans-serif" font-size="13" lengthAdjust="spacing" textLength="7" x="103.1511" y="583.0069">1</text><text fill="#000000" font-family="sans-serif" font-size="13" lengthAdjust="spacing" textLength="7" x="240.5147" y="607.5909">1</text></g><!--link Staff to AppointmentSlots--><g id="link_Staff_AppointmentSlots"><path codeLine="49" d="M95.24,547.6794 C134.8,540.7194 195.1107,530.1084 242.7707,521.7284 " fill="none" id="Staff-to-AppointmentSlots" style="stroke:#181818;stroke-width:1.0;"/><polygon fill="#181818" points="248.68,520.6894,239.1233,518.3084,243.7555,521.5552,240.5087,526.1875,248.68,520.6894" style="stroke:#181818;stroke-width:1.0;"/><polygon fill="#000000" points="173.4244,516.9189,164.0069,515.5914,165.0252,521.3804,173.4244,516.9189" style="stroke:#000000;stroke-width:1.0;"/><text fill="#000000" font-family="sans-serif" font-size="13" lengthAdjust="spacing" textLength="21" x="177.5" y="523.1045">has</text><text fill="#000000" font-family="sans-serif" font-size="13" lengthAdjust="spacing" textLength="7" x="103.127" y="561.6683">1</text><text fill="#000000" font-family="sans-serif" font-size="13" lengthAdjust="spacing" textLength="7" x="234.1457" y="536.4275">1</text></g><!--link Staff to DeactivateTime--><g id="link_Staff_DeactivateTime"><path codeLine="50" d="M95,530.6594 C109.75,520.9294 127.46,509.7494 144,500.6094 C180.16,480.6294 216.9965,463.3248 249.3065,448.9748 " fill="none" id="Staff-to-DeactivateTime" style="stroke:#181818;stroke-width:1.0;"/><polygon fill="#181818" points="254.79,446.5394,244.9411,446.5368,250.2204,448.5689,248.1884,453.8482,254.79,446.5394" style="stroke:#181818;stroke-width:1.0;"/><polygon fill="#000000" points="172.919,452.4459,163.5499,454.0802,166.2999,459.2751,172.919,452.4459" style="stroke:#000000;stroke-width:1.0;"/><text fill="#000000" font-family="sans-serif" font-size="13" lengthAdjust="spacing" textLength="21" x="177.5" y="460.1045">has</text><text fill="#000000" font-family="sans-serif" font-size="13" lengthAdjust="spacing" textLength="7" x="102.8375" y="541.1379">1</text><text fill="#000000" font-family="sans-serif" font-size="13" lengthAdjust="spacing" textLength="7" x="239.9558" y="464.289">1</text></g><!--SRC=[ZPDVRzem5CNV_IckyhAs0WbU4KBA2D8Y3Je1_G0ckKcyEdPcEqniwdVVZPFIyAUmF47EpyV7FZVsLQYA6rv2nPDNdkF67II2mSHnbKjazWZOWgVwjr0vP5nQP3qfaTpQq3aZThN3ED5g8_uWZ1XpkWAdOQUTqoMaeZ4MMZ69cMi48_B2zTwpGgG8YJ09xUr_b-WAdLgo4ewIHRhaGi5IfoZX8Le-mX1UvgFHcB7k112yM3GGvhd1d3iCu2y3Udn8yDfqQhHsW8ey3xFPcQnuYOJikQmHzEudHUiOfHrsaNLsP2TWcnNSWYiGQdhxnG9IJDapNZJ_hxksm5hBorsxwCqJHijuDO3eURvzNWzWzRBUB0QmNSo_hU9v79Bq8zp6YzNMhtYxahVPOG9qUQuG_gGmvnO7e9Kym5UwF9rb8a7FMU26Uj3AKWS6KtYuj_yZU_keOEDubXqRE2d0IpSQy7eS_Ky17Jg1MebVX59Kyii4cfxVTpgIihYgovrl_gxhoO9txvvXkASc-Kv8IhwHsjbRhOPLfOLo9GMxoqR8wIFOquLjnRK9fFljJDEIMfnEgPu4ArTpsJeGmrej60Sm7CuWU0hyc4uWCKZ65WZndy2H60UzGIvuGrm0VdXFrQSFjPshLcHjlOtKxcime_cXd8tQYdtdOuNjyalWh8tFi8jIRg1dbNnEdXRoplq3]--></g></svg>