<?xml version="1.0" encoding="us-ascii" standalone="no"?><svg xmlns="http://www.w3.org/2000/svg" xmlns:xlink="http://www.w3.org/1999/xlink" contentStyleType="text/css" height="612px" preserveAspectRatio="none" style="width:840px;height:612px;background:#FFFFFF;" version="1.1" viewBox="0 0 840 612" width="840px" zoomAndPan="magnify"><defs/><g><rect fill="#FFFFFF" height="487.625" style="stroke:#181818;stroke-width:1.0;" width="10" x="143" y="69.9609"/><rect fill="#FFFFFF" height="426.9219" style="stroke:#181818;stroke-width:1.0;" width="10" x="251" y="100.3125"/><rect fill="#FFFFFF" height="366.2188" style="stroke:#181818;stroke-width:1.0;" width="10" x="345" y="130.6641"/><rect fill="#FFFFFF" height="30.3516" style="stroke:#181818;stroke-width:1.0;" width="10" x="439" y="161.0156"/><rect fill="#FFFFFF" height="184.1094" style="stroke:#181818;stroke-width:1.0;" width="10" x="522.5" y="221.7188"/><rect fill="#FFFFFF" height="30.3516" style="stroke:#181818;stroke-width:1.0;" width="10" x="645.5" y="277.4219"/><rect fill="#FFFFFF" height="30.3516" style="stroke:#181818;stroke-width:1.0;" width="10" x="708.5" y="338.125"/><rect fill="#FFFFFF" height="30.3516" style="stroke:#181818;stroke-width:1.0;" width="10" x="785" y="436.1797"/><rect fill="none" height="139.7578" style="stroke:#000000;stroke-width:1.5;" width="259" x="486.5" y="236.7188"/><line style="stroke:#181818;stroke-width:0.5;stroke-dasharray:5.0,5.0;" x1="147.5" x2="147.5" y1="37.6094" y2="575.5859"/><line style="stroke:#181818;stroke-width:0.5;stroke-dasharray:5.0,5.0;" x1="256" x2="256" y1="37.6094" y2="575.5859"/><line style="stroke:#181818;stroke-width:0.5;stroke-dasharray:5.0,5.0;" x1="349.5" x2="349.5" y1="37.6094" y2="575.5859"/><line style="stroke:#181818;stroke-width:0.5;stroke-dasharray:5.0,5.0;" x1="443.5" x2="443.5" y1="37.6094" y2="575.5859"/><line style="stroke:#181818;stroke-width:0.5;stroke-dasharray:5.0,5.0;" x1="527.5" x2="527.5" y1="37.6094" y2="575.5859"/><line style="stroke:#181818;stroke-width:0.5;stroke-dasharray:5.0,5.0;" x1="650.5" x2="650.5" y1="37.6094" y2="575.5859"/><line style="stroke:#181818;stroke-width:0.5;stroke-dasharray:5.0,5.0;" x1="713.5" x2="713.5" y1="37.6094" y2="575.5859"/><line style="stroke:#181818;stroke-width:0.5;stroke-dasharray:5.0,5.0;" x1="789.5" x2="789.5" y1="37.6094" y2="575.5859"/><rect fill="#E2E2F0" height="31.6094" rx="2.5" ry="2.5" style="stroke:#181818;stroke-width:0.5;" width="63" x="116.5" y="5"/><text fill="#000000" font-family="sans-serif" font-size="14" lengthAdjust="spacing" textLength="49" x="123.5" y="26.5332">Routing</text><rect fill="#E2E2F0" height="31.6094" rx="2.5" ry="2.5" style="stroke:#181818;stroke-width:0.5;" width="63" x="116.5" y="574.5859"/><text fill="#000000" font-family="sans-serif" font-size="14" lengthAdjust="spacing" textLength="49" x="123.5" y="596.1191">Routing</text><rect fill="#E2E2F0" height="31.6094" rx="2.5" ry="2.5" style="stroke:#181818;stroke-width:0.5;" width="76" x="218" y="5"/><text fill="#000000" font-family="sans-serif" font-size="14" lengthAdjust="spacing" textLength="62" x="225" y="26.5332">Controller</text><rect fill="#E2E2F0" height="31.6094" rx="2.5" ry="2.5" style="stroke:#181818;stroke-width:0.5;" width="76" x="218" y="574.5859"/><text fill="#000000" font-family="sans-serif" font-size="14" lengthAdjust="spacing" textLength="62" x="225" y="596.1191">Controller</text><rect fill="#E2E2F0" height="31.6094" rx="2.5" ry="2.5" style="stroke:#181818;stroke-width:0.5;" width="61" x="319.5" y="5"/><text fill="#000000" font-family="sans-serif" font-size="14" lengthAdjust="spacing" textLength="47" x="326.5" y="26.5332">Service</text><rect fill="#E2E2F0" height="31.6094" rx="2.5" ry="2.5" style="stroke:#181818;stroke-width:0.5;" width="61" x="319.5" y="574.5859"/><text fill="#000000" font-family="sans-serif" font-size="14" lengthAdjust="spacing" textLength="47" x="326.5" y="596.1191">Service</text><rect fill="#E2E2F0" height="31.6094" rx="2.5" ry="2.5" style="stroke:#181818;stroke-width:0.5;" width="85" x="401.5" y="5"/><text fill="#000000" font-family="sans-serif" font-size="14" lengthAdjust="spacing" textLength="71" x="408.5" y="26.5332">IRepository</text><rect fill="#E2E2F0" height="31.6094" rx="2.5" ry="2.5" style="stroke:#181818;stroke-width:0.5;" width="85" x="401.5" y="574.5859"/><text fill="#000000" font-family="sans-serif" font-size="14" lengthAdjust="spacing" textLength="71" x="408.5" y="596.1191">IRepository</text><rect fill="#E2E2F0" height="31.6094" rx="2.5" ry="2.5" style="stroke:#181818;stroke-width:0.5;" width="62" x="496.5" y="5"/><text fill="#000000" font-family="sans-serif" font-size="14" lengthAdjust="spacing" textLength="48" x="503.5" y="26.5332">Mapper</text><rect fill="#E2E2F0" height="31.6094" rx="2.5" ry="2.5" style="stroke:#181818;stroke-width:0.5;" width="62" x="496.5" y="574.5859"/><text fill="#000000" font-family="sans-serif" font-size="14" lengthAdjust="spacing" textLength="48" x="503.5" y="596.1191">Mapper</text><rect fill="#E2E2F0" height="31.6094" rx="2.5" ry="2.5" style="stroke:#181818;stroke-width:0.5;" width="62" x="619.5" y="5"/><text fill="#000000" font-family="sans-serif" font-size="14" lengthAdjust="spacing" textLength="48" x="626.5" y="26.5332">Domain</text><rect fill="#E2E2F0" height="31.6094" rx="2.5" ry="2.5" style="stroke:#181818;stroke-width:0.5;" width="62" x="619.5" y="574.5859"/><text fill="#000000" font-family="sans-serif" font-size="14" lengthAdjust="spacing" textLength="48" x="626.5" y="596.1191">Domain</text><rect fill="#E2E2F0" height="31.6094" rx="2.5" ry="2.5" style="stroke:#181818;stroke-width:0.5;" width="44" x="691.5" y="5"/><text fill="#000000" font-family="sans-serif" font-size="14" lengthAdjust="spacing" textLength="30" x="698.5" y="26.5332">DTO</text><rect fill="#E2E2F0" height="31.6094" rx="2.5" ry="2.5" style="stroke:#181818;stroke-width:0.5;" width="44" x="691.5" y="574.5859"/><text fill="#000000" font-family="sans-serif" font-size="14" lengthAdjust="spacing" textLength="30" x="698.5" y="596.1191">DTO</text><rect fill="#E2E2F0" height="31.6094" rx="2.5" ry="2.5" style="stroke:#181818;stroke-width:0.5;" width="89" x="745.5" y="5"/><text fill="#000000" font-family="sans-serif" font-size="14" lengthAdjust="spacing" textLength="75" x="752.5" y="26.5332">IUnitOfWork</text><rect fill="#E2E2F0" height="31.6094" rx="2.5" ry="2.5" style="stroke:#181818;stroke-width:0.5;" width="89" x="745.5" y="574.5859"/><text fill="#000000" font-family="sans-serif" font-size="14" lengthAdjust="spacing" textLength="75" x="752.5" y="596.1191">IUnitOfWork</text><rect fill="#FFFFFF" height="487.625" style="stroke:#181818;stroke-width:1.0;" width="10" x="143" y="69.9609"/><rect fill="#FFFFFF" height="426.9219" style="stroke:#181818;stroke-width:1.0;" width="10" x="251" y="100.3125"/><rect fill="#FFFFFF" height="366.2188" style="stroke:#181818;stroke-width:1.0;" width="10" x="345" y="130.6641"/><rect fill="#FFFFFF" height="30.3516" style="stroke:#181818;stroke-width:1.0;" width="10" x="439" y="161.0156"/><rect fill="#FFFFFF" height="184.1094" style="stroke:#181818;stroke-width:1.0;" width="10" x="522.5" y="221.7188"/><rect fill="#FFFFFF" height="30.3516" style="stroke:#181818;stroke-width:1.0;" width="10" x="645.5" y="277.4219"/><rect fill="#FFFFFF" height="30.3516" style="stroke:#181818;stroke-width:1.0;" width="10" x="708.5" y="338.125"/><rect fill="#FFFFFF" height="30.3516" style="stroke:#181818;stroke-width:1.0;" width="10" x="785" y="436.1797"/><polygon fill="#181818" points="131,65.9609,141,69.9609,131,73.9609,135,69.9609" style="stroke:#181818;stroke-width:1.0;"/><line style="stroke:#181818;stroke-width:1.0;" x1="0" x2="137" y1="69.9609" y2="69.9609"/><text fill="#000000" font-family="sans-serif" font-size="13" lengthAdjust="spacing" textLength="124" x="7" y="65.1045">HTTP PUT /api/.../{id}</text><polygon fill="#181818" points="239,96.3125,249,100.3125,239,104.3125,243,100.3125" style="stroke:#181818;stroke-width:1.0;"/><line style="stroke:#181818;stroke-width:1.0;" x1="153" x2="245" y1="100.3125" y2="100.3125"/><text fill="#000000" font-family="sans-serif" font-size="13" lengthAdjust="spacing" textLength="79" x="160" y="95.4561">Update(id, ...)</text><polygon fill="#181818" points="333,126.6641,343,130.6641,333,134.6641,337,130.6641" style="stroke:#181818;stroke-width:1.0;"/><line style="stroke:#181818;stroke-width:1.0;" x1="261" x2="339" y1="130.6641" y2="130.6641"/><text fill="#000000" font-family="sans-serif" font-size="13" lengthAdjust="spacing" textLength="65" x="268" y="125.8076">GetById(id)</text><polygon fill="#181818" points="427,157.0156,437,161.0156,427,165.0156,431,161.0156" style="stroke:#181818;stroke-width:1.0;"/><line style="stroke:#181818;stroke-width:1.0;" x1="355" x2="433" y1="161.0156" y2="161.0156"/><text fill="#000000" font-family="sans-serif" font-size="13" lengthAdjust="spacing" textLength="65" x="362" y="156.1592">GetById(id)</text><polygon fill="#181818" points="366,187.3672,356,191.3672,366,195.3672,362,191.3672" style="stroke:#181818;stroke-width:1.0;"/><line style="stroke:#181818;stroke-width:1.0;stroke-dasharray:2.0,2.0;" x1="360" x2="443" y1="191.3672" y2="191.3672"/><text fill="#000000" font-family="sans-serif" font-size="13" lengthAdjust="spacing" textLength="12" x="372" y="186.5107">...</text><polygon fill="#181818" points="510.5,217.7188,520.5,221.7188,510.5,225.7188,514.5,221.7188" style="stroke:#181818;stroke-width:1.0;"/><line style="stroke:#181818;stroke-width:1.0;" x1="355" x2="516.5" y1="221.7188" y2="221.7188"/><text fill="#000000" font-family="sans-serif" font-size="13" lengthAdjust="spacing" textLength="60" x="362" y="216.8623">ToDTO(...)</text><path d="M486.5,236.7188 L559.5,236.7188 L559.5,245.0703 L549.5,255.0703 L486.5,255.0703 L486.5,236.7188 " fill="#EEEEEE" style="stroke:#000000;stroke-width:1.5;"/><rect fill="none" height="139.7578" style="stroke:#000000;stroke-width:1.5;" width="259" x="486.5" y="236.7188"/><text fill="#000000" font-family="sans-serif" font-size="13" font-weight="bold" lengthAdjust="spacing" textLength="28" x="501.5" y="251.2139">loop</text><text fill="#000000" font-family="sans-serif" font-size="11" font-weight="bold" lengthAdjust="spacing" textLength="106" x="574.5" y="250.1377">[for each attribute:]</text><polygon fill="#181818" points="633.5,273.4219,643.5,277.4219,633.5,281.4219,637.5,277.4219" style="stroke:#181818;stroke-width:1.0;"/><line style="stroke:#181818;stroke-width:1.0;" x1="532.5" x2="639.5" y1="277.4219" y2="277.4219"/><text fill="#000000" font-family="sans-serif" font-size="13" lengthAdjust="spacing" textLength="72" x="539.5" y="272.5654">Get attribute</text><polygon fill="#181818" points="543.5,303.7734,533.5,307.7734,543.5,311.7734,539.5,307.7734" style="stroke:#181818;stroke-width:1.0;"/><line style="stroke:#181818;stroke-width:1.0;stroke-dasharray:2.0,2.0;" x1="537.5" x2="649.5" y1="307.7734" y2="307.7734"/><text fill="#000000" font-family="sans-serif" font-size="13" lengthAdjust="spacing" textLength="89" x="549.5" y="302.917">Return attribute</text><polygon fill="#181818" points="696.5,334.125,706.5,338.125,696.5,342.125,700.5,338.125" style="stroke:#181818;stroke-width:1.0;"/><line style="stroke:#181818;stroke-width:1.0;" x1="532.5" x2="702.5" y1="338.125" y2="338.125"/><text fill="#000000" font-family="sans-serif" font-size="13" lengthAdjust="spacing" textLength="71" x="539.5" y="333.2686">Set attribute</text><polygon fill="#181818" points="543.5,364.4766,533.5,368.4766,543.5,372.4766,539.5,368.4766" style="stroke:#181818;stroke-width:1.0;"/><line style="stroke:#181818;stroke-width:1.0;stroke-dasharray:2.0,2.0;" x1="537.5" x2="712.5" y1="368.4766" y2="368.4766"/><text fill="#000000" font-family="sans-serif" font-size="13" lengthAdjust="spacing" textLength="89" x="549.5" y="363.6201">Return attribute</text><polygon fill="#181818" points="366,401.8281,356,405.8281,366,409.8281,362,405.8281" style="stroke:#181818;stroke-width:1.0;"/><line style="stroke:#181818;stroke-width:1.0;stroke-dasharray:2.0,2.0;" x1="360" x2="526.5" y1="405.8281" y2="405.8281"/><text fill="#000000" font-family="sans-serif" font-size="13" lengthAdjust="spacing" textLength="18" x="372" y="400.9717">dto</text><polygon fill="#181818" points="773,432.1797,783,436.1797,773,440.1797,777,436.1797" style="stroke:#181818;stroke-width:1.0;"/><line style="stroke:#181818;stroke-width:1.0;" x1="355" x2="779" y1="436.1797" y2="436.1797"/><text fill="#000000" font-family="sans-serif" font-size="13" lengthAdjust="spacing" textLength="90" x="362" y="431.3232">CommitAsync()</text><polygon fill="#181818" points="366,462.5313,356,466.5313,366,470.5313,362,466.5313" style="stroke:#181818;stroke-width:1.0;"/><line style="stroke:#181818;stroke-width:1.0;stroke-dasharray:2.0,2.0;" x1="360" x2="789" y1="466.5313" y2="466.5313"/><text fill="#000000" font-family="sans-serif" font-size="13" lengthAdjust="spacing" textLength="22" x="372" y="461.6748">void</text><polygon fill="#181818" points="272,492.8828,262,496.8828,272,500.8828,268,496.8828" style="stroke:#181818;stroke-width:1.0;"/><line style="stroke:#181818;stroke-width:1.0;stroke-dasharray:2.0,2.0;" x1="266" x2="349" y1="496.8828" y2="496.8828"/><text fill="#000000" font-family="sans-serif" font-size="13" lengthAdjust="spacing" textLength="18" x="278" y="492.0264">dto</text><polygon fill="#181818" points="164,523.2344,154,527.2344,164,531.2344,160,527.2344" style="stroke:#181818;stroke-width:1.0;"/><line style="stroke:#181818;stroke-width:1.0;stroke-dasharray:2.0,2.0;" x1="158" x2="255" y1="527.2344" y2="527.2344"/><text fill="#000000" font-family="sans-serif" font-size="13" lengthAdjust="spacing" textLength="43" x="170" y="522.3779">Ok(dto)</text><polygon fill="#181818" points="11,553.5859,1,557.5859,11,561.5859,7,557.5859" style="stroke:#181818;stroke-width:1.0;"/><line style="stroke:#181818;stroke-width:1.0;stroke-dasharray:2.0,2.0;" x1="5" x2="147" y1="557.5859" y2="557.5859"/><text fill="#000000" font-family="sans-serif" font-size="13" lengthAdjust="spacing" textLength="42" x="17" y="552.7295">200 Ok</text><!--SRC=[fLHHQy8m47xlhmW-LLXLzYXZi3dOV1WLhUmvQ-CMr2J4ACZOVz-rITDBQoTZzvHmtttttUKkYch3SwweC6Imb4V3nSU0q0DnvqXXm4mAe-LkntI5QQuXRCNqYUUimhXp29WlcP87RgG-ssJ-6k9UgL8kbps6xYUvfrnKRdjikRFK-hAqbNujk4atRr9lAq1pZQBalYwTJCbBbYt8OfsHCLLyF1gDnb-y-8veRlY96kQR516mEWmOciO0oLeLW8rvSKE0OLXXFGDgOUKe3KK3bsiW43qpytYU5y0qz5XFLFVPUqghOykYV8jxc08sz201eAgpOKe2VL1T02xOLJuaq3umq6GI7YpshUfeSvFGqRMJKf6Dr0JIVX9gZERlHyEcf8CipQM3n7PqR5UQi8j1NeCRjukWqXndWkjQCdFKuae6rBFVSY3rMGhSgpz8Xstermri_nCDx6qt4qKtOrr1C465aNqJTEdLqVGqAmmqCxdVS_DmE8iyxXaYlF9jQOWhb7UIlEZJrqVeDRQ_1LmhukdiCVuDWiyftSR0OUj31EqVvIv9KD3jP0A14LvDzuVz0000]--></g></svg>