<?xml version="1.0" encoding="us-ascii" standalone="no"?><svg xmlns="http://www.w3.org/2000/svg" xmlns:xlink="http://www.w3.org/1999/xlink" contentStyleType="text/css" height="463px" preserveAspectRatio="none" style="width:700px;height:463px;background:#FFFFFF;" version="1.1" viewBox="0 0 700 463" width="700px" zoomAndPan="magnify"><defs/><g><text fill="#000000" font-family="sans-serif" font-size="14" font-weight="bold" lengthAdjust="spacing" textLength="285" x="209.25" y="29.5332">System Sequence Diagram (SSD) - UC023</text><rect fill="#FFFFFF" height="240.4609" style="stroke:#181818;stroke-width:1.0;" width="10" x="37.5" y="131.2188"/><rect fill="#FFFFFF" height="73.7031" style="stroke:#181818;stroke-width:1.0;" width="10" x="484.5" y="153.5703"/><rect fill="#FFFFFF" height="73.7031" style="stroke:#181818;stroke-width:1.0;" width="10" x="484.5" y="282.9766"/><rect fill="none" height="122.4063" style="stroke:#000000;stroke-width:1.5;" width="684.5" x="10" y="242.2734"/><line style="stroke:#181818;stroke-width:0.5;stroke-dasharray:5.0,5.0;" x1="42" x2="42" y1="121.2188" y2="381.6797"/><line style="stroke:#181818;stroke-width:0.5;stroke-dasharray:5.0,5.0;" x1="489.5" x2="489.5" y1="121.2188" y2="381.6797"/><text fill="#000000" font-family="sans-serif" font-size="14" lengthAdjust="spacing" textLength="39" x="20" y="118.1426">Admin</text><ellipse cx="42.5" cy="52.1094" fill="#E2E2F0" rx="8" ry="8" style="stroke:#181818;stroke-width:0.5;"/><path d="M42.5,60.1094 L42.5,87.1094 M29.5,68.1094 L55.5,68.1094 M42.5,87.1094 L29.5,102.1094 M42.5,87.1094 L55.5,102.1094 " fill="none" style="stroke:#181818;stroke-width:0.5;"/><text fill="#000000" font-family="sans-serif" font-size="14" lengthAdjust="spacing" textLength="39" x="20" y="395.2129">Admin</text><ellipse cx="42.5" cy="406.7891" fill="#E2E2F0" rx="8" ry="8" style="stroke:#181818;stroke-width:0.5;"/><path d="M42.5,414.7891 L42.5,441.7891 M29.5,422.7891 L55.5,422.7891 M42.5,441.7891 L29.5,456.7891 M42.5,441.7891 L55.5,456.7891 " fill="none" style="stroke:#181818;stroke-width:0.5;"/><rect fill="#E2E2F0" height="31.6094" rx="2.5" ry="2.5" style="stroke:#181818;stroke-width:0.5;" width="64" x="457.5" y="88.6094"/><text fill="#000000" font-family="sans-serif" font-size="14" lengthAdjust="spacing" textLength="50" x="464.5" y="110.1426">:System</text><rect fill="#E2E2F0" height="31.6094" rx="2.5" ry="2.5" style="stroke:#181818;stroke-width:0.5;" width="64" x="457.5" y="380.6797"/><text fill="#000000" font-family="sans-serif" font-size="14" lengthAdjust="spacing" textLength="50" x="464.5" y="402.2129">:System</text><rect fill="#FFFFFF" height="240.4609" style="stroke:#181818;stroke-width:1.0;" width="10" x="37.5" y="131.2188"/><rect fill="#FFFFFF" height="73.7031" style="stroke:#181818;stroke-width:1.0;" width="10" x="484.5" y="153.5703"/><rect fill="#FFFFFF" height="73.7031" style="stroke:#181818;stroke-width:1.0;" width="10" x="484.5" y="282.9766"/><polygon fill="#181818" points="472.5,149.5703,482.5,153.5703,472.5,157.5703,476.5,153.5703" style="stroke:#181818;stroke-width:1.0;"/><line style="stroke:#181818;stroke-width:1.0;" x1="47.5" x2="478.5" y1="153.5703" y2="153.5703"/><text fill="#000000" font-family="sans-serif" font-size="13" lengthAdjust="spacing" textLength="163" x="54.5" y="148.7139">List existing operation types</text><line style="stroke:#181818;stroke-width:1.0;" x1="494.5" x2="536.5" y1="183.9219" y2="183.9219"/><line style="stroke:#181818;stroke-width:1.0;" x1="536.5" x2="536.5" y1="183.9219" y2="196.9219"/><line style="stroke:#181818;stroke-width:1.0;" x1="495.5" x2="536.5" y1="196.9219" y2="196.9219"/><polygon fill="#181818" points="505.5,192.9219,495.5,196.9219,505.5,200.9219,501.5,196.9219" style="stroke:#181818;stroke-width:1.0;"/><text fill="#000000" font-family="sans-serif" font-size="13" lengthAdjust="spacing" textLength="139" x="501.5" y="179.0654">Retrieve operation types</text><polygon fill="#181818" points="58.5,223.2734,48.5,227.2734,58.5,231.2734,54.5,227.2734" style="stroke:#181818;stroke-width:1.0;"/><line style="stroke:#181818;stroke-width:1.0;stroke-dasharray:2.0,2.0;" x1="52.5" x2="488.5" y1="227.2734" y2="227.2734"/><text fill="#000000" font-family="sans-serif" font-size="13" lengthAdjust="spacing" textLength="125" x="64.5" y="222.417">Show operation types</text><path d="M10,242.2734 L75,242.2734 L75,250.625 L65,260.625 L10,260.625 L10,242.2734 " fill="#EEEEEE" style="stroke:#000000;stroke-width:1.5;"/><rect fill="none" height="122.4063" style="stroke:#000000;stroke-width:1.5;" width="684.5" x="10" y="242.2734"/><text fill="#000000" font-family="sans-serif" font-size="13" font-weight="bold" lengthAdjust="spacing" textLength="20" x="25" y="256.7686">opt</text><text fill="#000000" font-family="sans-serif" font-size="11" font-weight="bold" lengthAdjust="spacing" textLength="214" x="90" y="255.6924">[Admin wants to filter operation types]</text><polygon fill="#181818" points="472.5,278.9766,482.5,282.9766,472.5,286.9766,476.5,282.9766" style="stroke:#181818;stroke-width:1.0;"/><line style="stroke:#181818;stroke-width:1.0;" x1="47.5" x2="478.5" y1="282.9766" y2="282.9766"/><text fill="#000000" font-family="sans-serif" font-size="13" lengthAdjust="spacing" textLength="418" x="54.5" y="278.1201">Filter operation types (by name, specialization or status - active/inactive)</text><line style="stroke:#181818;stroke-width:1.0;" x1="494.5" x2="536.5" y1="313.3281" y2="313.3281"/><line style="stroke:#181818;stroke-width:1.0;" x1="536.5" x2="536.5" y1="313.3281" y2="326.3281"/><line style="stroke:#181818;stroke-width:1.0;" x1="495.5" x2="536.5" y1="326.3281" y2="326.3281"/><polygon fill="#181818" points="505.5,322.3281,495.5,326.3281,505.5,330.3281,501.5,326.3281" style="stroke:#181818;stroke-width:1.0;"/><text fill="#000000" font-family="sans-serif" font-size="13" lengthAdjust="spacing" textLength="181" x="501.5" y="308.4717">Retrieve filtered operation types</text><polygon fill="#181818" points="58.5,352.6797,48.5,356.6797,58.5,360.6797,54.5,356.6797" style="stroke:#181818;stroke-width:1.0;"/><line style="stroke:#181818;stroke-width:1.0;stroke-dasharray:2.0,2.0;" x1="52.5" x2="488.5" y1="356.6797" y2="356.6797"/><text fill="#000000" font-family="sans-serif" font-size="13" lengthAdjust="spacing" textLength="167" x="64.5" y="351.8232">Show filtered operation types</text><!--SRC=[XL91JiCm4Bpx5QEUMeaA1BSSa10L9qvOFC0aIrafiOszRGclnwcJAYA9weCrqkxCpeujB3L1jr6eWQRl0zcIi6Ep3wR1MklT1bkyFz_TFoXJYWjugXgsCB43ofiWNB8tLh0giiogAsQeEWuVZT2vMo6T1B1zx1iAl78Kq4-wsUxXF0KZx2oazHGpuw8nYA8_lUsHsXj9O3hIlD2OaqZ9IG7zvKxptHND3dPU-WnEQUi8SVZaMYXCL8QH5_1lzPTP6jOVBQnfw0RHKyccvjzSJk57CNA8wKNErkYMRGQRwR35rAuabvUXQZd2nHYlKwUP3fR9LagDojr_-GC0]--></g></svg>