<?xml version="1.0" encoding="us-ascii" standalone="no"?><svg xmlns="http://www.w3.org/2000/svg" xmlns:xlink="http://www.w3.org/1999/xlink" contentStyleType="text/css" height="497px" preserveAspectRatio="none" style="width:1921px;height:497px;background:#FFFFFF;" version="1.1" viewBox="0 0 1921 497" width="1921px" zoomAndPan="magnify"><defs/><g><text fill="#000000" font-family="sans-serif" font-size="14" font-weight="bold" lengthAdjust="spacing" textLength="222" x="848.5" y="29.5332">Sequence Diagram (SD) - UC022</text><rect fill="#FFFFFF" height="333.8672" style="stroke:#181818;stroke-width:1.0;" width="10" x="176" y="108.5703"/><rect fill="#FFFFFF" height="273.1641" style="stroke:#181818;stroke-width:1.0;" width="10" x="353.5" y="138.9219"/><rect fill="#FFFFFF" height="30.3516" style="stroke:#181818;stroke-width:1.0;" width="10" x="535.5" y="169.2734"/><rect fill="#FFFFFF" height="30.3516" style="stroke:#181818;stroke-width:1.0;" width="10" x="740" y="229.9766"/><rect fill="#FFFFFF" height="91.0547" style="stroke:#181818;stroke-width:1.0;" width="10" x="883.5" y="290.6797"/><rect fill="#FFFFFF" height="30.3516" style="stroke:#181818;stroke-width:1.0;" width="10" x="1830.5" y="321.0313"/><line style="stroke:#181818;stroke-width:0.5;stroke-dasharray:5.0,5.0;" x1="180.5" x2="180.5" y1="76.2188" y2="460.4375"/><line style="stroke:#181818;stroke-width:0.5;stroke-dasharray:5.0,5.0;" x1="358.5" x2="358.5" y1="76.2188" y2="460.4375"/><line style="stroke:#181818;stroke-width:0.5;stroke-dasharray:5.0,5.0;" x1="540.5" x2="540.5" y1="76.2188" y2="460.4375"/><line style="stroke:#181818;stroke-width:0.5;stroke-dasharray:5.0,5.0;" x1="744.5" x2="744.5" y1="76.2188" y2="460.4375"/><line style="stroke:#181818;stroke-width:0.5;stroke-dasharray:5.0,5.0;" x1="888.5" x2="888.5" y1="76.2188" y2="460.4375"/><line style="stroke:#181818;stroke-width:0.5;stroke-dasharray:5.0,5.0;" x1="1835" x2="1835" y1="76.2188" y2="460.4375"/><rect fill="#E2E2F0" height="31.6094" rx="2.5" ry="2.5" style="stroke:#181818;stroke-width:0.5;" width="175" x="93.5" y="43.6094"/><text fill="#000000" font-family="sans-serif" font-size="14" lengthAdjust="spacing" textLength="161" x="100.5" y="65.1426">:OperationTypeController</text><rect fill="#E2E2F0" height="31.6094" rx="2.5" ry="2.5" style="stroke:#181818;stroke-width:0.5;" width="175" x="93.5" y="459.4375"/><text fill="#000000" font-family="sans-serif" font-size="14" lengthAdjust="spacing" textLength="161" x="100.5" y="480.9707">:OperationTypeController</text><rect fill="#E2E2F0" height="31.6094" rx="2.5" ry="2.5" style="stroke:#181818;stroke-width:0.5;" width="160" x="278.5" y="43.6094"/><text fill="#000000" font-family="sans-serif" font-size="14" lengthAdjust="spacing" textLength="146" x="285.5" y="65.1426">:OperationTypeService</text><rect fill="#E2E2F0" height="31.6094" rx="2.5" ry="2.5" style="stroke:#181818;stroke-width:0.5;" width="160" x="278.5" y="459.4375"/><text fill="#000000" font-family="sans-serif" font-size="14" lengthAdjust="spacing" textLength="146" x="285.5" y="480.9707">:OperationTypeService</text><rect fill="#E2E2F0" height="31.6094" rx="2.5" ry="2.5" style="stroke:#181818;stroke-width:0.5;" width="184" x="448.5" y="43.6094"/><text fill="#000000" font-family="sans-serif" font-size="14" lengthAdjust="spacing" textLength="170" x="455.5" y="65.1426">:IOperationTypeRepository</text><rect fill="#E2E2F0" height="31.6094" rx="2.5" ry="2.5" style="stroke:#181818;stroke-width:0.5;" width="184" x="448.5" y="459.4375"/><text fill="#000000" font-family="sans-serif" font-size="14" lengthAdjust="spacing" textLength="170" x="455.5" y="480.9707">:IOperationTypeRepository</text><rect fill="#E2E2F0" height="31.6094" rx="2.5" ry="2.5" style="stroke:#181818;stroke-width:0.5;" width="205" x="642.5" y="43.6094"/><text fill="#000000" font-family="sans-serif" font-size="14" lengthAdjust="spacing" textLength="191" x="649.5" y="65.1426">operationType:OperationType</text><rect fill="#E2E2F0" height="31.6094" rx="2.5" ry="2.5" style="stroke:#181818;stroke-width:0.5;" width="205" x="642.5" y="459.4375"/><text fill="#000000" font-family="sans-serif" font-size="14" lengthAdjust="spacing" textLength="191" x="649.5" y="480.9707">operationType:OperationType</text><rect fill="#E2E2F0" height="31.6094" rx="2.5" ry="2.5" style="stroke:#181818;stroke-width:0.5;" width="62" x="857.5" y="43.6094"/><text fill="#000000" font-family="sans-serif" font-size="14" lengthAdjust="spacing" textLength="48" x="864.5" y="65.1426">Mapper</text><rect fill="#E2E2F0" height="31.6094" rx="2.5" ry="2.5" style="stroke:#181818;stroke-width:0.5;" width="62" x="857.5" y="459.4375"/><text fill="#000000" font-family="sans-serif" font-size="14" lengthAdjust="spacing" textLength="48" x="864.5" y="480.9707">Mapper</text><rect fill="#E2E2F0" height="31.6094" rx="2.5" ry="2.5" style="stroke:#181818;stroke-width:0.5;" width="159" x="1756" y="43.6094"/><text fill="#000000" font-family="sans-serif" font-size="14" lengthAdjust="spacing" textLength="145" x="1763" y="65.1426">dto: OperationTypeDto</text><rect fill="#E2E2F0" height="31.6094" rx="2.5" ry="2.5" style="stroke:#181818;stroke-width:0.5;" width="159" x="1756" y="459.4375"/><text fill="#000000" font-family="sans-serif" font-size="14" lengthAdjust="spacing" textLength="145" x="1763" y="480.9707">dto: OperationTypeDto</text><rect fill="#FFFFFF" height="333.8672" style="stroke:#181818;stroke-width:1.0;" width="10" x="176" y="108.5703"/><rect fill="#FFFFFF" height="273.1641" style="stroke:#181818;stroke-width:1.0;" width="10" x="353.5" y="138.9219"/><rect fill="#FFFFFF" height="30.3516" style="stroke:#181818;stroke-width:1.0;" width="10" x="535.5" y="169.2734"/><rect fill="#FFFFFF" height="30.3516" style="stroke:#181818;stroke-width:1.0;" width="10" x="740" y="229.9766"/><rect fill="#FFFFFF" height="91.0547" style="stroke:#181818;stroke-width:1.0;" width="10" x="883.5" y="290.6797"/><rect fill="#FFFFFF" height="30.3516" style="stroke:#181818;stroke-width:1.0;" width="10" x="1830.5" y="321.0313"/><polygon fill="#181818" points="164,104.5703,174,108.5703,164,112.5703,168,108.5703" style="stroke:#181818;stroke-width:1.0;"/><line style="stroke:#181818;stroke-width:1.0;" x1="0" x2="170" y1="108.5703" y2="108.5703"/><text fill="#000000" font-family="sans-serif" font-size="13" lengthAdjust="spacing" textLength="157" x="7" y="103.7139">DELETE /api/operationtype</text><polygon fill="#181818" points="341.5,134.9219,351.5,138.9219,341.5,142.9219,345.5,138.9219" style="stroke:#181818;stroke-width:1.0;"/><line style="stroke:#181818;stroke-width:1.0;" x1="186" x2="347.5" y1="138.9219" y2="138.9219"/><text fill="#000000" font-family="sans-serif" font-size="13" lengthAdjust="spacing" textLength="117" x="193" y="134.0654">InactivateAsync(dto)</text><polygon fill="#181818" points="523.5,165.2734,533.5,169.2734,523.5,173.2734,527.5,169.2734" style="stroke:#181818;stroke-width:1.0;"/><line style="stroke:#181818;stroke-width:1.0;" x1="363.5" x2="529.5" y1="169.2734" y2="169.2734"/><text fill="#000000" font-family="sans-serif" font-size="13" lengthAdjust="spacing" textLength="102" x="370.5" y="164.417">GetByIdAsync(id)</text><polygon fill="#181818" points="374.5,195.625,364.5,199.625,374.5,203.625,370.5,199.625" style="stroke:#181818;stroke-width:1.0;"/><line style="stroke:#181818;stroke-width:1.0;stroke-dasharray:2.0,2.0;" x1="368.5" x2="539.5" y1="199.625" y2="199.625"/><text fill="#000000" font-family="sans-serif" font-size="13" lengthAdjust="spacing" textLength="81" x="380.5" y="194.7686">operationType</text><polygon fill="#181818" points="728,225.9766,738,229.9766,728,233.9766,732,229.9766" style="stroke:#181818;stroke-width:1.0;"/><line style="stroke:#181818;stroke-width:1.0;" x1="363.5" x2="734" y1="229.9766" y2="229.9766"/><text fill="#000000" font-family="sans-serif" font-size="13" lengthAdjust="spacing" textLength="124" x="370.5" y="225.1201">SetStatus(INACTIVE)</text><polygon fill="#181818" points="374.5,256.3281,364.5,260.3281,374.5,264.3281,370.5,260.3281" style="stroke:#181818;stroke-width:1.0;"/><line style="stroke:#181818;stroke-width:1.0;stroke-dasharray:2.0,2.0;" x1="368.5" x2="744" y1="260.3281" y2="260.3281"/><text fill="#000000" font-family="sans-serif" font-size="13" lengthAdjust="spacing" textLength="22" x="380.5" y="255.4717">void</text><polygon fill="#181818" points="871.5,286.6797,881.5,290.6797,871.5,294.6797,875.5,290.6797" style="stroke:#181818;stroke-width:1.0;"/><line style="stroke:#181818;stroke-width:1.0;" x1="363.5" x2="877.5" y1="290.6797" y2="290.6797"/><text fill="#000000" font-family="sans-serif" font-size="13" lengthAdjust="spacing" textLength="123" x="370.5" y="285.8232">ToDto(operationType)</text><polygon fill="#181818" points="1818.5,317.0313,1828.5,321.0313,1818.5,325.0313,1822.5,321.0313" style="stroke:#181818;stroke-width:1.0;"/><line style="stroke:#181818;stroke-width:1.0;" x1="893.5" x2="1824.5" y1="321.0313" y2="321.0313"/><text fill="#000000" font-family="sans-serif" font-size="13" lengthAdjust="spacing" textLength="918" x="900.5" y="316.1748">new OperationTypeDto(operationType.Name, operationType.Status, operationType.Specialization, operationType.RequiredStaff, operationType.PhasesDuration)</text><polygon fill="#181818" points="904.5,347.3828,894.5,351.3828,904.5,355.3828,900.5,351.3828" style="stroke:#181818;stroke-width:1.0;"/><line style="stroke:#181818;stroke-width:1.0;stroke-dasharray:2.0,2.0;" x1="898.5" x2="1834.5" y1="351.3828" y2="351.3828"/><text fill="#000000" font-family="sans-serif" font-size="13" lengthAdjust="spacing" textLength="18" x="910.5" y="346.5264">dto</text><polygon fill="#181818" points="374.5,377.7344,364.5,381.7344,374.5,385.7344,370.5,381.7344" style="stroke:#181818;stroke-width:1.0;"/><line style="stroke:#181818;stroke-width:1.0;stroke-dasharray:2.0,2.0;" x1="368.5" x2="887.5" y1="381.7344" y2="381.7344"/><text fill="#000000" font-family="sans-serif" font-size="13" lengthAdjust="spacing" textLength="18" x="380.5" y="376.8779">dto</text><polygon fill="#181818" points="197,408.0859,187,412.0859,197,416.0859,193,412.0859" style="stroke:#181818;stroke-width:1.0;"/><line style="stroke:#181818;stroke-width:1.0;stroke-dasharray:2.0,2.0;" x1="191" x2="357.5" y1="412.0859" y2="412.0859"/><text fill="#000000" font-family="sans-serif" font-size="13" lengthAdjust="spacing" textLength="18" x="203" y="407.2295">dto</text><polygon fill="#181818" points="11,438.4375,1,442.4375,11,446.4375,7,442.4375" style="stroke:#181818;stroke-width:1.0;"/><line style="stroke:#181818;stroke-width:1.0;stroke-dasharray:2.0,2.0;" x1="5" x2="180" y1="442.4375" y2="442.4375"/><text fill="#000000" font-family="sans-serif" font-size="13" lengthAdjust="spacing" textLength="44" x="17" y="437.5811">200 OK</text><!--SRC=[VLFHRfim57ttLrprAKYZZVA8fabPY2gqhPrAjlSxk4cj4jl3Dwdermym0PjqzHC-zvxZutEDVP7AO8r7C5Yyu85oRYg2cWf6TQX8sB71FcEfNwKwm1uhwrSggOWRGs1qrNGRhrPKQEsQkPP_JanPeLKktmYMGh3azgIS_fv85GIfn4D7MEHf137ysYnNAo5Q4PQ5DAWORf97GpMor6hNdhRHYcjTLLJV05gOjX-HSghFig2UCNpFshEW_ucCjf9rtVIKhDk71EstXuVrb5GVKQgGymED6Moxpx1SiauWK4fPEp7MGiHVlCica6w_RtTRk4CZxqOptJY4m8Bb6PdyS0IqQzf3gpO4aK2cBeorRLInQ8r4ZZ0gNKBhqMuDGAVJfvF0FV7N9YkTX2oZgNTKSJcEUBTw26BVJX3jr5tI_tGyBoxsf8KuP-IJNMGFwyqk-xsDnlPhNyEm0cCE2vsTjIpVDJGNy1ovIIUmq-qK5y7TtejeU1Y15OVrr-kUYABNgsSI2jy-u94-XK7UkZokK4E5n4g-zT2y-jJ-fhAcikNkz_FYpsUqPDEJWwBGynGDpoRUXyjkvfTmodcJd-syTed3dqmWu97dSOw3cVrD8z_Z1c_-Snm7XDLo2O_VXF3wlR_j7m00]--></g></svg>