<?xml version="1.0" encoding="us-ascii" standalone="no"?><svg xmlns="http://www.w3.org/2000/svg" xmlns:xlink="http://www.w3.org/1999/xlink" contentStyleType="text/css" height="959px" preserveAspectRatio="none" style="width:1085px;height:959px;background:#FFFFFF;" version="1.1" viewBox="0 0 1085 959" width="1085px" zoomAndPan="magnify"><defs/><g><text fill="#000000" font-family="sans-serif" font-size="14" font-weight="bold" lengthAdjust="spacing" textLength="190" x="440.75" y="24.5332">Class Diagram (CD) - UC022</text><!--class OperationTypeController--><g id="elem_OperationTypeController"><rect codeLine="12" fill="#F1F1F1" height="65.6094" id="OperationTypeController" rx="2.5" ry="2.5" style="stroke:#181818;stroke-width:0.5;" width="412" x="423.5" y="45.6094"/><ellipse cx="546.75" cy="61.6094" fill="#ADD1B2" rx="11" ry="11" style="stroke:#181818;stroke-width:1.0;"/><path d="M549.5156,57.4844 Q549.6719,57.2656 549.8594,57.1563 Q550.0469,57.0469 550.2656,57.0469 Q550.6406,57.0469 550.875,57.3125 Q551.1094,57.5625 551.1094,58.1719 L551.1094,59.625 Q551.1094,60.2344 550.875,60.5 Q550.6406,60.7656 550.2656,60.7656 Q549.9219,60.7656 549.7188,60.5625 Q549.5156,60.375 549.4063,59.8594 Q549.3594,59.5 549.1719,59.3125 Q548.8438,58.9375 548.2344,58.7188 Q547.625,58.5 547,58.5 Q546.2344,58.5 545.5938,58.8281 Q544.9688,59.1563 544.4688,59.9063 Q543.9844,60.6563 543.9844,61.6875 L543.9844,62.7813 Q543.9844,64.0156 544.875,64.8438 Q545.7656,65.6563 547.3594,65.6563 Q548.2969,65.6563 548.9531,65.4063 Q549.3438,65.25 549.7656,64.8125 Q550.0313,64.5469 550.1719,64.4688 Q550.3281,64.3906 550.5313,64.3906 Q550.8594,64.3906 551.1094,64.6563 Q551.375,64.9063 551.375,65.25 Q551.375,65.5938 551.0313,66 Q550.5313,66.5781 549.7344,66.9063 Q548.6563,67.3594 547.3594,67.3594 Q545.8438,67.3594 544.6406,66.7344 Q543.6563,66.2344 542.9688,65.1719 Q542.2813,64.0938 542.2813,62.8125 L542.2813,61.6563 Q542.2813,60.3281 542.8906,59.1875 Q543.5156,58.0313 544.6094,57.4219 Q545.7031,56.7969 546.9375,56.7969 Q547.6719,56.7969 548.3125,56.9688 Q548.9688,57.125 549.5156,57.4844 Z " fill="#000000"/><text fill="#000000" font-family="sans-serif" font-size="14" lengthAdjust="spacing" textLength="157" x="567.25" y="67.3379">OperationTypeController</text><line style="stroke:#181818;stroke-width:0.5;" x1="424.5" x2="834.5" y1="77.6094" y2="77.6094"/><line style="stroke:#181818;stroke-width:0.5;" x1="424.5" x2="834.5" y1="85.6094" y2="85.6094"/><text fill="#000000" font-family="sans-serif" font-size="14" lengthAdjust="spacing" textLength="400" x="429.5" y="104.1426">+SoftDelete(id: Guid): Task&lt;ActionResult&lt;OperationTypeDto&gt;&gt;</text></g><!--class OperationTypeService--><g id="elem_OperationTypeService"><rect codeLine="16" fill="#F1F1F1" height="65.6094" id="OperationTypeService" rx="2.5" ry="2.5" style="stroke:#181818;stroke-width:0.5;" width="425" x="284" y="171.6094"/><ellipse cx="421.25" cy="187.6094" fill="#ADD1B2" rx="11" ry="11" style="stroke:#181818;stroke-width:1.0;"/><path d="M424.0156,183.4844 Q424.1719,183.2656 424.3594,183.1563 Q424.5469,183.0469 424.7656,183.0469 Q425.1406,183.0469 425.375,183.3125 Q425.6094,183.5625 425.6094,184.1719 L425.6094,185.625 Q425.6094,186.2344 425.375,186.5 Q425.1406,186.7656 424.7656,186.7656 Q424.4219,186.7656 424.2188,186.5625 Q424.0156,186.375 423.9063,185.8594 Q423.8594,185.5 423.6719,185.3125 Q423.3438,184.9375 422.7344,184.7188 Q422.125,184.5 421.5,184.5 Q420.7344,184.5 420.0938,184.8281 Q419.4688,185.1563 418.9688,185.9063 Q418.4844,186.6563 418.4844,187.6875 L418.4844,188.7813 Q418.4844,190.0156 419.375,190.8438 Q420.2656,191.6563 421.8594,191.6563 Q422.7969,191.6563 423.4531,191.4063 Q423.8438,191.25 424.2656,190.8125 Q424.5313,190.5469 424.6719,190.4688 Q424.8281,190.3906 425.0313,190.3906 Q425.3594,190.3906 425.6094,190.6563 Q425.875,190.9063 425.875,191.25 Q425.875,191.5938 425.5313,192 Q425.0313,192.5781 424.2344,192.9063 Q423.1563,193.3594 421.8594,193.3594 Q420.3438,193.3594 419.1406,192.7344 Q418.1563,192.2344 417.4688,191.1719 Q416.7813,190.0938 416.7813,188.8125 L416.7813,187.6563 Q416.7813,186.3281 417.3906,185.1875 Q418.0156,184.0313 419.1094,183.4219 Q420.2031,182.7969 421.4375,182.7969 Q422.1719,182.7969 422.8125,182.9688 Q423.4688,183.125 424.0156,183.4844 Z " fill="#000000"/><text fill="#000000" font-family="sans-serif" font-size="14" lengthAdjust="spacing" textLength="142" x="441.75" y="193.3379">OperationTypeService</text><line style="stroke:#181818;stroke-width:0.5;" x1="285" x2="708" y1="203.6094" y2="203.6094"/><line style="stroke:#181818;stroke-width:0.5;" x1="285" x2="708" y1="211.6094" y2="211.6094"/><text fill="#000000" font-family="sans-serif" font-size="14" lengthAdjust="spacing" textLength="413" x="290" y="230.1426">+InactivateAsync(id: OperationTypeId): Task&lt;OperationTypeDto&gt;</text></g><!--class IOperationTypeRepository--><g id="elem_IOperationTypeRepository"><rect codeLine="20" fill="#F1F1F1" height="83.2188" id="IOperationTypeRepository" rx="2.5" ry="2.5" style="stroke:#181818;stroke-width:0.5;" width="403" x="88" y="297.6094"/><ellipse cx="201.75" cy="313.6094" fill="#B4A7E5" rx="11" ry="11" style="stroke:#181818;stroke-width:1.0;"/><path d="M202.7031,310.25 L202.7031,316.9063 L204.4219,316.9063 Q205.0313,316.9063 205.2969,317.1406 Q205.5625,317.375 205.5625,317.7656 Q205.5625,318.1406 205.2969,318.375 Q205.0313,318.6094 204.4219,318.6094 L199.2813,318.6094 Q198.6719,318.6094 198.4063,318.375 Q198.1406,318.1406 198.1406,317.75 Q198.1406,317.375 198.4063,317.1406 Q198.6719,316.9063 199.2813,316.9063 L201,316.9063 L201,310.25 L199.2813,310.25 Q198.6719,310.25 198.4063,310.0156 Q198.1406,309.7813 198.1406,309.3906 Q198.1406,309.0156 198.4063,308.7813 Q198.6719,308.5469 199.2813,308.5469 L204.4219,308.5469 Q205.0313,308.5469 205.2969,308.7813 Q205.5625,309.0156 205.5625,309.3906 Q205.5625,309.7813 205.2969,310.0156 Q205.0313,310.25 204.4219,310.25 L202.7031,310.25 Z " fill="#000000"/><text fill="#000000" font-family="sans-serif" font-size="14" font-style="italic" lengthAdjust="spacing" textLength="167" x="222.25" y="319.3379">IOperationTypeRepository</text><line style="stroke:#181818;stroke-width:0.5;" x1="89" x2="490" y1="329.6094" y2="329.6094"/><line style="stroke:#181818;stroke-width:0.5;" x1="89" x2="490" y1="337.6094" y2="337.6094"/><text fill="#000000" font-family="sans-serif" font-size="14" lengthAdjust="spacing" textLength="381" x="94" y="356.1426">+GetByIdAsync(id: OperationTypeId): Task&lt;OperationType&gt;</text><text fill="#000000" font-family="sans-serif" font-size="14" lengthAdjust="spacing" textLength="391" x="94" y="373.752">+InactivateAsync(id: OperationTypeId): Task&lt;OperationType&gt;</text></g><!--class OperationType--><g id="elem_OperationType"><rect codeLine="25" fill="#F1F1F1" height="241.7031" id="OperationType" rx="2.5" ry="2.5" style="stroke:#181818;stroke-width:0.5;" width="424" x="92.5" y="440.6094"/><ellipse cx="252.75" cy="456.6094" fill="#ADD1B2" rx="11" ry="11" style="stroke:#181818;stroke-width:1.0;"/><path d="M255.5156,452.4844 Q255.6719,452.2656 255.8594,452.1563 Q256.0469,452.0469 256.2656,452.0469 Q256.6406,452.0469 256.875,452.3125 Q257.1094,452.5625 257.1094,453.1719 L257.1094,454.625 Q257.1094,455.2344 256.875,455.5 Q256.6406,455.7656 256.2656,455.7656 Q255.9219,455.7656 255.7188,455.5625 Q255.5156,455.375 255.4063,454.8594 Q255.3594,454.5 255.1719,454.3125 Q254.8438,453.9375 254.2344,453.7188 Q253.625,453.5 253,453.5 Q252.2344,453.5 251.5938,453.8281 Q250.9688,454.1563 250.4688,454.9063 Q249.9844,455.6563 249.9844,456.6875 L249.9844,457.7813 Q249.9844,459.0156 250.875,459.8438 Q251.7656,460.6563 253.3594,460.6563 Q254.2969,460.6563 254.9531,460.4063 Q255.3438,460.25 255.7656,459.8125 Q256.0313,459.5469 256.1719,459.4688 Q256.3281,459.3906 256.5313,459.3906 Q256.8594,459.3906 257.1094,459.6563 Q257.375,459.9063 257.375,460.25 Q257.375,460.5938 257.0313,461 Q256.5313,461.5781 255.7344,461.9063 Q254.6563,462.3594 253.3594,462.3594 Q251.8438,462.3594 250.6406,461.7344 Q249.6563,461.2344 248.9688,460.1719 Q248.2813,459.0938 248.2813,457.8125 L248.2813,456.6563 Q248.2813,455.3281 248.8906,454.1875 Q249.5156,453.0313 250.6094,452.4219 Q251.7031,451.7969 252.9375,451.7969 Q253.6719,451.7969 254.3125,451.9688 Q254.9688,452.125 255.5156,452.4844 Z " fill="#000000"/><text fill="#000000" font-family="sans-serif" font-size="14" lengthAdjust="spacing" textLength="95" x="273.25" y="462.3379">OperationType</text><line style="stroke:#181818;stroke-width:0.5;" x1="93.5" x2="515.5" y1="472.6094" y2="472.6094"/><text fill="#000000" font-family="sans-serif" font-size="14" lengthAdjust="spacing" textLength="135" x="98.5" y="491.1426">+Id: OperationTypeID</text><text fill="#000000" font-family="sans-serif" font-size="14" lengthAdjust="spacing" textLength="88" x="98.5" y="508.752">+Name: Name</text><text fill="#000000" font-family="sans-serif" font-size="14" lengthAdjust="spacing" textLength="83" x="98.5" y="526.3613">+Status: bool</text><text fill="#000000" font-family="sans-serif" font-size="14" lengthAdjust="spacing" textLength="188" x="98.5" y="543.9707">+Specialization: Specialization</text><text fill="#000000" font-family="sans-serif" font-size="14" lengthAdjust="spacing" textLength="228" x="98.5" y="561.5801">+RequiredStaff: List&lt;RequiredStaff&gt;</text><text fill="#000000" font-family="sans-serif" font-size="14" lengthAdjust="spacing" textLength="218" x="98.5" y="579.1895">+PhasesDuration: PhasesDuration</text><line style="stroke:#181818;stroke-width:0.5;" x1="93.5" x2="515.5" y1="586.2656" y2="586.2656"/><text fill="#000000" font-family="sans-serif" font-size="14" lengthAdjust="spacing" textLength="217" x="98.5" y="604.7988">+ChangeName(name: Name): void</text><text fill="#000000" font-family="sans-serif" font-size="14" lengthAdjust="spacing" textLength="215" x="98.5" y="622.4082">+ChangeStatus(status: bool): void</text><text fill="#000000" font-family="sans-serif" font-size="14" lengthAdjust="spacing" textLength="366" x="98.5" y="640.0176">+ChangeSpecialization(specialization: Specialization): void</text><text fill="#000000" font-family="sans-serif" font-size="14" lengthAdjust="spacing" textLength="404" x="98.5" y="657.627">+ChangeRequiredStaff(requiredStaff: List&lt;RequiredStaff&gt;): void</text><text fill="#000000" font-family="sans-serif" font-size="14" lengthAdjust="spacing" textLength="412" x="98.5" y="675.2363">+ChangePhasesDuration(phasesDuration: PhasesDuration): void</text></g><!--class OperationTypeDto--><g id="elem_OperationTypeDto"><rect codeLine="39" fill="#F1F1F1" height="153.6563" id="OperationTypeDto" rx="2.5" ry="2.5" style="stroke:#181818;stroke-width:0.5;" width="240" x="596.5" y="484.6094"/><ellipse cx="653.75" cy="500.6094" fill="#ADD1B2" rx="11" ry="11" style="stroke:#181818;stroke-width:1.0;"/><path d="M656.5156,496.4844 Q656.6719,496.2656 656.8594,496.1563 Q657.0469,496.0469 657.2656,496.0469 Q657.6406,496.0469 657.875,496.3125 Q658.1094,496.5625 658.1094,497.1719 L658.1094,498.625 Q658.1094,499.2344 657.875,499.5 Q657.6406,499.7656 657.2656,499.7656 Q656.9219,499.7656 656.7188,499.5625 Q656.5156,499.375 656.4063,498.8594 Q656.3594,498.5 656.1719,498.3125 Q655.8438,497.9375 655.2344,497.7188 Q654.625,497.5 654,497.5 Q653.2344,497.5 652.5938,497.8281 Q651.9688,498.1563 651.4688,498.9063 Q650.9844,499.6563 650.9844,500.6875 L650.9844,501.7813 Q650.9844,503.0156 651.875,503.8438 Q652.7656,504.6563 654.3594,504.6563 Q655.2969,504.6563 655.9531,504.4063 Q656.3438,504.25 656.7656,503.8125 Q657.0313,503.5469 657.1719,503.4688 Q657.3281,503.3906 657.5313,503.3906 Q657.8594,503.3906 658.1094,503.6563 Q658.375,503.9063 658.375,504.25 Q658.375,504.5938 658.0313,505 Q657.5313,505.5781 656.7344,505.9063 Q655.6563,506.3594 654.3594,506.3594 Q652.8438,506.3594 651.6406,505.7344 Q650.6563,505.2344 649.9688,504.1719 Q649.2813,503.0938 649.2813,501.8125 L649.2813,500.6563 Q649.2813,499.3281 649.8906,498.1875 Q650.5156,497.0313 651.6094,496.4219 Q652.7031,495.7969 653.9375,495.7969 Q654.6719,495.7969 655.3125,495.9688 Q655.9688,496.125 656.5156,496.4844 Z " fill="#000000"/><text fill="#000000" font-family="sans-serif" font-size="14" lengthAdjust="spacing" textLength="117" x="674.25" y="506.3379">OperationTypeDto</text><line style="stroke:#181818;stroke-width:0.5;" x1="597.5" x2="835.5" y1="516.6094" y2="516.6094"/><text fill="#000000" font-family="sans-serif" font-size="14" lengthAdjust="spacing" textLength="135" x="602.5" y="535.1426">+Id: OperationTypeID</text><text fill="#000000" font-family="sans-serif" font-size="14" lengthAdjust="spacing" textLength="88" x="602.5" y="552.752">+Name: Name</text><text fill="#000000" font-family="sans-serif" font-size="14" lengthAdjust="spacing" textLength="83" x="602.5" y="570.3613">+Status: bool</text><text fill="#000000" font-family="sans-serif" font-size="14" lengthAdjust="spacing" textLength="188" x="602.5" y="587.9707">+Specialization: Specialization</text><text fill="#000000" font-family="sans-serif" font-size="14" lengthAdjust="spacing" textLength="228" x="602.5" y="605.5801">+RequiredStaff: List&lt;RequiredStaff&gt;</text><text fill="#000000" font-family="sans-serif" font-size="14" lengthAdjust="spacing" textLength="218" x="602.5" y="623.1895">+PhasesDuration: PhasesDuration</text><line style="stroke:#181818;stroke-width:0.5;" x1="597.5" x2="835.5" y1="630.2656" y2="630.2656"/></g><!--class RequiredStaff--><g id="elem_RequiredStaff"><rect codeLine="48" fill="#F1F1F1" height="65.6094" id="RequiredStaff" rx="2.5" ry="2.5" style="stroke:#181818;stroke-width:0.5;" width="258" x="22.5" y="742.6094"/><ellipse cx="103.75" cy="758.6094" fill="#ADD1B2" rx="11" ry="11" style="stroke:#181818;stroke-width:1.0;"/><path d="M106.5156,754.4844 Q106.6719,754.2656 106.8594,754.1563 Q107.0469,754.0469 107.2656,754.0469 Q107.6406,754.0469 107.875,754.3125 Q108.1094,754.5625 108.1094,755.1719 L108.1094,756.625 Q108.1094,757.2344 107.875,757.5 Q107.6406,757.7656 107.2656,757.7656 Q106.9219,757.7656 106.7188,757.5625 Q106.5156,757.375 106.4063,756.8594 Q106.3594,756.5 106.1719,756.3125 Q105.8438,755.9375 105.2344,755.7188 Q104.625,755.5 104,755.5 Q103.2344,755.5 102.5938,755.8281 Q101.9688,756.1563 101.4688,756.9063 Q100.9844,757.6563 100.9844,758.6875 L100.9844,759.7813 Q100.9844,761.0156 101.875,761.8438 Q102.7656,762.6563 104.3594,762.6563 Q105.2969,762.6563 105.9531,762.4063 Q106.3438,762.25 106.7656,761.8125 Q107.0313,761.5469 107.1719,761.4688 Q107.3281,761.3906 107.5313,761.3906 Q107.8594,761.3906 108.1094,761.6563 Q108.375,761.9063 108.375,762.25 Q108.375,762.5938 108.0313,763 Q107.5313,763.5781 106.7344,763.9063 Q105.6563,764.3594 104.3594,764.3594 Q102.8438,764.3594 101.6406,763.7344 Q100.6563,763.2344 99.9688,762.1719 Q99.2813,761.0938 99.2813,759.8125 L99.2813,758.6563 Q99.2813,757.3281 99.8906,756.1875 Q100.5156,755.0313 101.6094,754.4219 Q102.7031,753.7969 103.9375,753.7969 Q104.6719,753.7969 105.3125,753.9688 Q105.9688,754.125 106.5156,754.4844 Z " fill="#000000"/><text fill="#000000" font-family="sans-serif" font-size="14" lengthAdjust="spacing" textLength="87" x="124.25" y="764.3379">RequiredStaff</text><line style="stroke:#181818;stroke-width:0.5;" x1="23.5" x2="279.5" y1="774.6094" y2="774.6094"/><text fill="#000000" font-family="sans-serif" font-size="14" lengthAdjust="spacing" textLength="246" x="28.5" y="793.1426">-_staff: Dictionary&lt;Role, StaffQuantity&gt;</text><line style="stroke:#181818;stroke-width:0.5;" x1="23.5" x2="279.5" y1="800.2188" y2="800.2188"/></g><g id="elem_GMN8"><path d="M315.5,762.6094 L315.5,771.6094 L280.93,775.6094 L315.5,779.6094 L315.5,788.9609 A0,0 0 0 0 315.5,788.9609 L659.5,788.9609 A0,0 0 0 0 659.5,788.9609 L659.5,772.6094 L649.5,762.6094 L315.5,762.6094 A0,0 0 0 0 315.5,762.6094 " fill="#FEFFDD" style="stroke:#181818;stroke-width:0.5;"/><path d="M649.5,762.6094 L649.5,772.6094 L659.5,772.6094 L649.5,762.6094 " fill="#FEFFDD" style="stroke:#181818;stroke-width:0.5;"/><text fill="#000000" font-family="sans-serif" font-size="13" lengthAdjust="spacing" textLength="323" x="321.5" y="781.1045">Role can only be a staff role: Doctor, Nurse or Assistant</text></g><!--class Quantity--><g id="elem_Quantity"><rect codeLine="55" fill="#F1F1F1" height="65.6094" id="Quantity" rx="2.5" ry="2.5" style="stroke:#181818;stroke-width:0.5;" width="96" x="103.5" y="868.6094"/><ellipse cx="123.45" cy="884.6094" fill="#ADD1B2" rx="11" ry="11" style="stroke:#181818;stroke-width:1.0;"/><path d="M126.2156,880.4844 Q126.3719,880.2656 126.5594,880.1563 Q126.7469,880.0469 126.9656,880.0469 Q127.3406,880.0469 127.575,880.3125 Q127.8094,880.5625 127.8094,881.1719 L127.8094,882.625 Q127.8094,883.2344 127.575,883.5 Q127.3406,883.7656 126.9656,883.7656 Q126.6219,883.7656 126.4188,883.5625 Q126.2156,883.375 126.1063,882.8594 Q126.0594,882.5 125.8719,882.3125 Q125.5438,881.9375 124.9344,881.7188 Q124.325,881.5 123.7,881.5 Q122.9344,881.5 122.2938,881.8281 Q121.6688,882.1563 121.1688,882.9063 Q120.6844,883.6563 120.6844,884.6875 L120.6844,885.7813 Q120.6844,887.0156 121.575,887.8438 Q122.4656,888.6563 124.0594,888.6563 Q124.9969,888.6563 125.6531,888.4063 Q126.0438,888.25 126.4656,887.8125 Q126.7313,887.5469 126.8719,887.4688 Q127.0281,887.3906 127.2313,887.3906 Q127.5594,887.3906 127.8094,887.6563 Q128.075,887.9063 128.075,888.25 Q128.075,888.5938 127.7313,889 Q127.2313,889.5781 126.4344,889.9063 Q125.3563,890.3594 124.0594,890.3594 Q122.5438,890.3594 121.3406,889.7344 Q120.3563,889.2344 119.6688,888.1719 Q118.9813,887.0938 118.9813,885.8125 L118.9813,884.6563 Q118.9813,883.3281 119.5906,882.1875 Q120.2156,881.0313 121.3094,880.4219 Q122.4031,879.7969 123.6375,879.7969 Q124.3719,879.7969 125.0125,879.9688 Q125.6688,880.125 126.2156,880.4844 Z " fill="#000000"/><text fill="#000000" font-family="sans-serif" font-size="14" lengthAdjust="spacing" textLength="53" x="138.55" y="890.3379">Quantity</text><line style="stroke:#181818;stroke-width:0.5;" x1="104.5" x2="198.5" y1="900.6094" y2="900.6094"/><text fill="#000000" font-family="sans-serif" font-size="14" lengthAdjust="spacing" textLength="84" x="109.5" y="919.1426">+Quantity: int</text><line style="stroke:#181818;stroke-width:0.5;" x1="104.5" x2="198.5" y1="926.2188" y2="926.2188"/></g><g id="elem_GMN12"><path d="M448,888.6094 L448,914.9609 L653,914.9609 L653,898.6094 L643,888.6094 L448,888.6094 " fill="#FEFFDD" style="stroke:#181818;stroke-width:0.5;"/><path d="M643,888.6094 L643,898.6094 L653,898.6094 L643,888.6094 " fill="#FEFFDD" style="stroke:#181818;stroke-width:1.0;"/><text fill="#000000" font-family="sans-serif" font-size="13" lengthAdjust="spacing" textLength="184" x="454" y="907.1045">Quantity must be greater than 0</text></g><!--class Specialization--><g id="elem_Specialization"><rect codeLine="62" fill="#F1F1F1" height="65.6094" id="Specialization" rx="2.5" ry="2.5" style="stroke:#181818;stroke-width:0.5;" width="178" x="234.5" y="868.6094"/><ellipse cx="276.5" cy="884.6094" fill="#ADD1B2" rx="11" ry="11" style="stroke:#181818;stroke-width:1.0;"/><path d="M279.2656,880.4844 Q279.4219,880.2656 279.6094,880.1563 Q279.7969,880.0469 280.0156,880.0469 Q280.3906,880.0469 280.625,880.3125 Q280.8594,880.5625 280.8594,881.1719 L280.8594,882.625 Q280.8594,883.2344 280.625,883.5 Q280.3906,883.7656 280.0156,883.7656 Q279.6719,883.7656 279.4688,883.5625 Q279.2656,883.375 279.1563,882.8594 Q279.1094,882.5 278.9219,882.3125 Q278.5938,881.9375 277.9844,881.7188 Q277.375,881.5 276.75,881.5 Q275.9844,881.5 275.3438,881.8281 Q274.7188,882.1563 274.2188,882.9063 Q273.7344,883.6563 273.7344,884.6875 L273.7344,885.7813 Q273.7344,887.0156 274.625,887.8438 Q275.5156,888.6563 277.1094,888.6563 Q278.0469,888.6563 278.7031,888.4063 Q279.0938,888.25 279.5156,887.8125 Q279.7813,887.5469 279.9219,887.4688 Q280.0781,887.3906 280.2813,887.3906 Q280.6094,887.3906 280.8594,887.6563 Q281.125,887.9063 281.125,888.25 Q281.125,888.5938 280.7813,889 Q280.2813,889.5781 279.4844,889.9063 Q278.4063,890.3594 277.1094,890.3594 Q275.5938,890.3594 274.3906,889.7344 Q273.4063,889.2344 272.7188,888.1719 Q272.0313,887.0938 272.0313,885.8125 L272.0313,884.6563 Q272.0313,883.3281 272.6406,882.1875 Q273.2656,881.0313 274.3594,880.4219 Q275.4531,879.7969 276.6875,879.7969 Q277.4219,879.7969 278.0625,879.9688 Q278.7188,880.125 279.2656,880.4844 Z " fill="#000000"/><text fill="#000000" font-family="sans-serif" font-size="14" lengthAdjust="spacing" textLength="86" x="296.5" y="890.3379">Specialization</text><line style="stroke:#181818;stroke-width:0.5;" x1="235.5" x2="411.5" y1="900.6094" y2="900.6094"/><text fill="#000000" font-family="sans-serif" font-size="14" lengthAdjust="spacing" textLength="166" x="240.5" y="919.1426">+Designation: Designation</text><line style="stroke:#181818;stroke-width:0.5;" x1="235.5" x2="411.5" y1="926.2188" y2="926.2188"/></g><!--class PhasesDuration--><g id="elem_PhasesDuration"><rect codeLine="66" fill="#F1F1F1" height="65.6094" id="PhasesDuration" rx="2.5" ry="2.5" style="stroke:#181818;stroke-width:0.5;" width="260" x="694.5" y="742.6094"/><ellipse cx="769.75" cy="758.6094" fill="#ADD1B2" rx="11" ry="11" style="stroke:#181818;stroke-width:1.0;"/><path d="M772.5156,754.4844 Q772.6719,754.2656 772.8594,754.1563 Q773.0469,754.0469 773.2656,754.0469 Q773.6406,754.0469 773.875,754.3125 Q774.1094,754.5625 774.1094,755.1719 L774.1094,756.625 Q774.1094,757.2344 773.875,757.5 Q773.6406,757.7656 773.2656,757.7656 Q772.9219,757.7656 772.7188,757.5625 Q772.5156,757.375 772.4063,756.8594 Q772.3594,756.5 772.1719,756.3125 Q771.8438,755.9375 771.2344,755.7188 Q770.625,755.5 770,755.5 Q769.2344,755.5 768.5938,755.8281 Q767.9688,756.1563 767.4688,756.9063 Q766.9844,757.6563 766.9844,758.6875 L766.9844,759.7813 Q766.9844,761.0156 767.875,761.8438 Q768.7656,762.6563 770.3594,762.6563 Q771.2969,762.6563 771.9531,762.4063 Q772.3438,762.25 772.7656,761.8125 Q773.0313,761.5469 773.1719,761.4688 Q773.3281,761.3906 773.5313,761.3906 Q773.8594,761.3906 774.1094,761.6563 Q774.375,761.9063 774.375,762.25 Q774.375,762.5938 774.0313,763 Q773.5313,763.5781 772.7344,763.9063 Q771.6563,764.3594 770.3594,764.3594 Q768.8438,764.3594 767.6406,763.7344 Q766.6563,763.2344 765.9688,762.1719 Q765.2813,761.0938 765.2813,759.8125 L765.2813,758.6563 Q765.2813,757.3281 765.8906,756.1875 Q766.5156,755.0313 767.6094,754.4219 Q768.7031,753.7969 769.9375,753.7969 Q770.6719,753.7969 771.3125,753.9688 Q771.9688,754.125 772.5156,754.4844 Z " fill="#000000"/><text fill="#000000" font-family="sans-serif" font-size="14" lengthAdjust="spacing" textLength="101" x="790.25" y="764.3379">PhasesDuration</text><line style="stroke:#181818;stroke-width:0.5;" x1="695.5" x2="953.5" y1="774.6094" y2="774.6094"/><text fill="#000000" font-family="sans-serif" font-size="14" lengthAdjust="spacing" textLength="248" x="700.5" y="793.1426">-_phases: Dictionary&lt;Phase, Duration&gt;</text><line style="stroke:#181818;stroke-width:0.5;" x1="695.5" x2="953.5" y1="800.2188" y2="800.2188"/></g><!--class Phase--><g id="elem_Phase"><rect codeLine="70" fill="#F1F1F1" height="65.6094" id="Phase" rx="2.5" ry="2.5" style="stroke:#181818;stroke-width:0.5;" width="260" x="691.5" y="868.6094"/><ellipse cx="797.25" cy="884.6094" fill="#EB937F" rx="11" ry="11" style="stroke:#181818;stroke-width:1.0;"/><path d="M796.1094,885.4063 L796.1094,887.9063 L800.4375,887.9063 L800.4375,886.9844 Q800.4375,886.375 800.6719,886.1094 Q800.9219,885.8438 801.2969,885.8438 Q801.6719,885.8438 801.9063,886.1094 Q802.1406,886.375 802.1406,886.9844 L802.1406,889.6094 L794.1406,889.6094 Q793.5156,889.6094 793.25,889.375 Q793,889.1406 793,888.75 Q793,888.375 793.2656,888.1406 Q793.5313,887.9063 794.1406,887.9063 L794.4063,887.9063 L794.4063,881.25 L794.1406,881.25 Q793.5156,881.25 793.25,881.0156 Q793,880.7813 793,880.3906 Q793,880.0156 793.25,879.7813 Q793.5156,879.5469 794.1406,879.5469 L801.7656,879.5469 L801.7656,882.1406 Q801.7656,882.75 801.5313,883.0156 Q801.3125,883.2656 800.9219,883.2656 Q800.5469,883.2656 800.3125,883.0156 Q800.0781,882.75 800.0781,882.1406 L800.0781,881.25 L796.1094,881.25 L796.1094,883.7031 L797.5938,883.7031 Q797.5938,883.0469 797.7188,882.8594 Q797.9844,882.4531 798.4531,882.4531 Q798.8281,882.4531 799.0625,882.7188 Q799.2969,882.9688 799.2969,883.5781 L799.2969,885.5469 Q799.2969,886.0938 799.1719,886.2813 Q798.9063,886.6719 798.4531,886.6719 Q797.9844,886.6719 797.7188,886.2656 Q797.5938,886.0781 797.5938,885.4063 L796.1094,885.4063 Z " fill="#000000"/><text fill="#000000" font-family="sans-serif" font-size="14" lengthAdjust="spacing" textLength="40" x="817.75" y="890.3379">Phase</text><line style="stroke:#181818;stroke-width:0.5;" x1="692.5" x2="950.5" y1="900.6094" y2="900.6094"/><text fill="#000000" font-family="sans-serif" font-size="14" lengthAdjust="spacing" textLength="248" x="697.5" y="919.1426">PREPARATION, SURGERY, CLEANING</text><line style="stroke:#181818;stroke-width:0.5;" x1="692.5" x2="950.5" y1="926.2188" y2="926.2188"/></g><!--class Duration--><g id="elem_Duration"><rect codeLine="74" fill="#F1F1F1" height="65.6094" id="Duration" rx="2.5" ry="2.5" style="stroke:#181818;stroke-width:0.5;" width="92" x="986.5" y="868.6094"/><ellipse cx="1004.2" cy="884.6094" fill="#ADD1B2" rx="11" ry="11" style="stroke:#181818;stroke-width:1.0;"/><path d="M1006.9656,880.4844 Q1007.1219,880.2656 1007.3094,880.1563 Q1007.4969,880.0469 1007.7156,880.0469 Q1008.0906,880.0469 1008.325,880.3125 Q1008.5594,880.5625 1008.5594,881.1719 L1008.5594,882.625 Q1008.5594,883.2344 1008.325,883.5 Q1008.0906,883.7656 1007.7156,883.7656 Q1007.3719,883.7656 1007.1688,883.5625 Q1006.9656,883.375 1006.8563,882.8594 Q1006.8094,882.5 1006.6219,882.3125 Q1006.2938,881.9375 1005.6844,881.7188 Q1005.075,881.5 1004.45,881.5 Q1003.6844,881.5 1003.0438,881.8281 Q1002.4188,882.1563 1001.9188,882.9063 Q1001.4344,883.6563 1001.4344,884.6875 L1001.4344,885.7813 Q1001.4344,887.0156 1002.325,887.8438 Q1003.2156,888.6563 1004.8094,888.6563 Q1005.7469,888.6563 1006.4031,888.4063 Q1006.7938,888.25 1007.2156,887.8125 Q1007.4813,887.5469 1007.6219,887.4688 Q1007.7781,887.3906 1007.9813,887.3906 Q1008.3094,887.3906 1008.5594,887.6563 Q1008.825,887.9063 1008.825,888.25 Q1008.825,888.5938 1008.4813,889 Q1007.9813,889.5781 1007.1844,889.9063 Q1006.1063,890.3594 1004.8094,890.3594 Q1003.2938,890.3594 1002.0906,889.7344 Q1001.1063,889.2344 1000.4188,888.1719 Q999.7313,887.0938 999.7313,885.8125 L999.7313,884.6563 Q999.7313,883.3281 1000.3406,882.1875 Q1000.9656,881.0313 1002.0594,880.4219 Q1003.1531,879.7969 1004.3875,879.7969 Q1005.1219,879.7969 1005.7625,879.9688 Q1006.4188,880.125 1006.9656,880.4844 Z " fill="#000000"/><text fill="#000000" font-family="sans-serif" font-size="14" lengthAdjust="spacing" textLength="54" x="1018.8" y="890.3379">Duration</text><line style="stroke:#181818;stroke-width:0.5;" x1="987.5" x2="1077.5" y1="900.6094" y2="900.6094"/><text fill="#000000" font-family="sans-serif" font-size="14" lengthAdjust="spacing" textLength="80" x="992.5" y="919.1426">+Minutes: int</text><line style="stroke:#181818;stroke-width:0.5;" x1="987.5" x2="1077.5" y1="926.2188" y2="926.2188"/></g><!--class Role--><g id="elem_Role"><rect fill="#F1F1F1" height="48" id="Role" rx="2.5" ry="2.5" style="stroke:#181818;stroke-width:0.5;" width="61" x="7" y="877.6094"/><ellipse cx="22" cy="893.6094" fill="#ADD1B2" rx="11" ry="11" style="stroke:#181818;stroke-width:1.0;"/><path d="M24.7656,889.4844 Q24.9219,889.2656 25.1094,889.1563 Q25.2969,889.0469 25.5156,889.0469 Q25.8906,889.0469 26.125,889.3125 Q26.3594,889.5625 26.3594,890.1719 L26.3594,891.625 Q26.3594,892.2344 26.125,892.5 Q25.8906,892.7656 25.5156,892.7656 Q25.1719,892.7656 24.9688,892.5625 Q24.7656,892.375 24.6563,891.8594 Q24.6094,891.5 24.4219,891.3125 Q24.0938,890.9375 23.4844,890.7188 Q22.875,890.5 22.25,890.5 Q21.4844,890.5 20.8438,890.8281 Q20.2188,891.1563 19.7188,891.9063 Q19.2344,892.6563 19.2344,893.6875 L19.2344,894.7813 Q19.2344,896.0156 20.125,896.8438 Q21.0156,897.6563 22.6094,897.6563 Q23.5469,897.6563 24.2031,897.4063 Q24.5938,897.25 25.0156,896.8125 Q25.2813,896.5469 25.4219,896.4688 Q25.5781,896.3906 25.7813,896.3906 Q26.1094,896.3906 26.3594,896.6563 Q26.625,896.9063 26.625,897.25 Q26.625,897.5938 26.2813,898 Q25.7813,898.5781 24.9844,898.9063 Q23.9063,899.3594 22.6094,899.3594 Q21.0938,899.3594 19.8906,898.7344 Q18.9063,898.2344 18.2188,897.1719 Q17.5313,896.0938 17.5313,894.8125 L17.5313,893.6563 Q17.5313,892.3281 18.1406,891.1875 Q18.7656,890.0313 19.8594,889.4219 Q20.9531,888.7969 22.1875,888.7969 Q22.9219,888.7969 23.5625,888.9688 Q24.2188,889.125 24.7656,889.4844 Z " fill="#000000"/><text fill="#000000" font-family="sans-serif" font-size="14" lengthAdjust="spacing" textLength="29" x="36" y="899.3379">Role</text><line style="stroke:#181818;stroke-width:0.5;" x1="8" x2="67" y1="909.6094" y2="909.6094"/><line style="stroke:#181818;stroke-width:0.5;" x1="8" x2="67" y1="917.6094" y2="917.6094"/></g><!--link Quantity to GMN12--><g id="link_Quantity_GMN12"><path d="M151.5,934.7694 C151.5,944.5094 151.5,952.6094 151.5,952.6094 C151.5,952.6094 550.5,952.6094 550.5,952.6094 C550.5,952.6094 550.5,929.8494 550.5,914.7394 " fill="none" id="Quantity-GMN12" style="stroke:#181818;stroke-width:1.0;stroke-dasharray:7.0,7.0;"/></g><!--link OperationTypeController to OperationTypeService--><g id="link_OperationTypeController_OperationTypeService"><path codeLine="90" d="M566.25,111.7194 C566.25,130.0894 566.25,146.8794 566.25,165.2894 " fill="none" id="OperationTypeController-to-OperationTypeService" style="stroke:#181818;stroke-width:1.0;stroke-dasharray:7.0,7.0;"/><polygon fill="#181818" points="566.25,171.2894,570.25,162.2894,566.25,166.2894,562.25,162.2894,566.25,171.2894" style="stroke:#181818;stroke-width:1.0;"/><polygon fill="#000000" points="528.25,137.6752,531.1889,128.6301,525.3111,128.6301,528.25,137.6752" style="stroke:#000000;stroke-width:1.0;"/><text fill="#000000" font-family="sans-serif" font-size="13" lengthAdjust="spacing" textLength="28" x="537.25" y="137.9945">uses</text></g><!--link OperationTypeController to OperationTypeDto--><g id="link_OperationTypeController_OperationTypeDto"><path codeLine="91" d="M772.25,111.8094 C772.25,187.9994 772.25,371.0894 772.25,478.2694 " fill="none" id="OperationTypeController-to-OperationTypeDto" style="stroke:#181818;stroke-width:1.0;"/><polygon fill="#181818" points="772.25,484.2694,776.25,475.2694,772.25,479.2694,768.25,475.2694,772.25,484.2694" style="stroke:#181818;stroke-width:1.0;"/><polygon fill="#000000" points="722.25,294.2152,725.1889,285.1701,719.3111,285.1701,722.25,294.2152" style="stroke:#000000;stroke-width:1.0;"/><text fill="#000000" font-family="sans-serif" font-size="13" lengthAdjust="spacing" textLength="40" x="731.25" y="294.5345">returns</text></g><!--link OperationTypeService to IOperationTypeRepository--><g id="link_OperationTypeService_IOperationTypeRepository"><path codeLine="93" d="M387.5,237.8594 C387.5,255.8994 387.5,272.3894 387.5,291.5794 " fill="none" id="OperationTypeService-to-IOperationTypeRepository" style="stroke:#181818;stroke-width:1.0;"/><polygon fill="#181818" points="387.5,297.5794,391.5,288.5794,387.5,292.5794,383.5,288.5794,387.5,297.5794" style="stroke:#181818;stroke-width:1.0;"/><polygon fill="#000000" points="349.5,263.8952,352.4389,254.8501,346.5611,254.8501,349.5,263.8952" style="stroke:#000000;stroke-width:1.0;"/><text fill="#000000" font-family="sans-serif" font-size="13" lengthAdjust="spacing" textLength="28" x="358.5" y="264.2145">uses</text></g><!--link OperationTypeService to OperationType--><g id="link_OperationTypeService_OperationType"><path codeLine="94" d="M503.75,237.8794 C503.75,283.7494 503.75,362.8594 503.75,434.2994 " fill="none" id="OperationTypeService-to-OperationType" style="stroke:#181818;stroke-width:1.0;"/><polygon fill="#181818" points="503.75,440.2994,507.75,431.2994,503.75,435.2994,499.75,431.2994,503.75,440.2994" style="stroke:#181818;stroke-width:1.0;"/><polygon fill="#000000" points="508.75,335.2652,511.6889,326.2201,505.8111,326.2201,508.75,335.2652" style="stroke:#000000;stroke-width:1.0;"/><text fill="#000000" font-family="sans-serif" font-size="13" lengthAdjust="spacing" textLength="46" x="517.75" y="335.5845">updates</text></g><!--link OperationTypeService to OperationTypeDto--><g id="link_OperationTypeService_OperationTypeDto"><path codeLine="95" d="M652.75,237.8794 C652.75,293.6994 652.75,401.6394 652.75,478.3394 " fill="none" id="OperationTypeService-to-OperationTypeDto" style="stroke:#181818;stroke-width:1.0;"/><polygon fill="#181818" points="652.75,484.3394,656.75,475.3394,652.75,479.3394,648.75,475.3394,652.75,484.3394" style="stroke:#181818;stroke-width:1.0;"/><polygon fill="#000000" points="599.75,357.2852,602.6889,348.2401,596.8111,348.2401,599.75,357.2852" style="stroke:#000000;stroke-width:1.0;"/><text fill="#000000" font-family="sans-serif" font-size="13" lengthAdjust="spacing" textLength="43" x="608.75" y="357.6045">creates</text></g><!--link IOperationTypeRepository to OperationType--><g id="link_IOperationTypeRepository_OperationType"><path codeLine="97" d="M291.75,380.6994 C291.75,397.9294 291.75,412.8894 291.75,434.3594 " fill="none" id="IOperationTypeRepository-to-OperationType" style="stroke:#181818;stroke-width:1.0;"/><polygon fill="#181818" points="291.75,440.3594,295.75,431.3594,291.75,435.3594,287.75,431.3594,291.75,440.3594" style="stroke:#181818;stroke-width:1.0;"/><polygon fill="#000000" points="177.75,406.7052,180.6889,397.6601,174.8111,397.6601,177.75,406.7052" style="stroke:#000000;stroke-width:1.0;"/><text fill="#000000" font-family="sans-serif" font-size="13" lengthAdjust="spacing" textLength="104" x="186.75" y="407.0245">saves in database</text></g><!--link OperationType to RequiredStaff--><g id="link_OperationType_RequiredStaff"><path codeLine="102" d="M186.5,682.6794 C186.5,704.6194 186.5,719.7594 186.5,736.3194 " fill="none" id="OperationType-to-RequiredStaff" style="stroke:#181818;stroke-width:1.0;"/><polygon fill="#181818" points="186.5,742.3194,190.5,733.3194,186.5,737.3194,182.5,733.3194,186.5,742.3194" style="stroke:#181818;stroke-width:1.0;"/><polygon fill="#000000" points="155.5,708.6752,158.4389,699.6301,152.5611,699.6301,155.5,708.6752" style="stroke:#000000;stroke-width:1.0;"/><text fill="#000000" font-family="sans-serif" font-size="13" lengthAdjust="spacing" textLength="21" x="164.5" y="708.9945">has</text></g><!--link OperationType to PhasesDuration--><g id="link_OperationType_PhasesDuration"><path codeLine="103" d="M516.76,660.6094 C628.19,660.6094 741.83,660.6094 741.83,660.6094 C741.83,660.6094 741.83,702.3794 741.83,736.3494 " fill="none" id="OperationType-to-PhasesDuration" style="stroke:#181818;stroke-width:1.0;"/><polygon fill="#181818" points="741.83,742.3494,745.83,733.3494,741.83,737.3494,737.83,733.3494,741.83,742.3494" style="stroke:#181818;stroke-width:1.0;"/><polygon fill="#000000" points="643.9089,653.3799,636.2735,647.7096,634.3988,653.2804,643.9089,653.3799" style="stroke:#000000;stroke-width:1.0;"/><text fill="#000000" font-family="sans-serif" font-size="13" lengthAdjust="spacing" textLength="21" x="648.17" y="657.1045">has</text></g><!--link OperationTypeDto to RequiredStaff--><g id="link_OperationTypeDto_RequiredStaff"><path codeLine="109" d="M628,638.7494 C628,691.7594 628,752.6094 628,752.6094 C628,752.6094 427.87,752.6094 286.76,752.6094 " fill="none" id="OperationTypeDto-to-RequiredStaff" style="stroke:#181818;stroke-width:1.0;"/><polygon fill="#181818" points="280.76,752.6094,289.76,756.6094,285.76,752.6094,289.76,748.6094,280.76,752.6094" style="stroke:#181818;stroke-width:1.0;"/><polygon fill="#000000" points="431.5671,745.3677,441.0773,745.2927,439.2169,739.717,431.5671,745.3677" style="stroke:#000000;stroke-width:1.0;"/><text fill="#000000" font-family="sans-serif" font-size="13" lengthAdjust="spacing" textLength="65" x="445.31" y="749.1045">has several</text></g><!--link OperationTypeDto to PhasesDuration--><g id="link_OperationTypeDto_PhasesDuration"><path codeLine="110" d="M789.17,638.8694 C789.17,674.4294 789.17,708.7394 789.17,736.3294 " fill="none" id="OperationTypeDto-to-PhasesDuration" style="stroke:#181818;stroke-width:1.0;"/><polygon fill="#181818" points="789.17,742.3294,793.17,733.3294,789.17,737.3294,785.17,733.3294,789.17,742.3294" style="stroke:#181818;stroke-width:1.0;"/><polygon fill="#000000" points="758.17,686.7752,761.1089,677.7301,755.2311,677.7301,758.17,686.7752" style="stroke:#000000;stroke-width:1.0;"/><text fill="#000000" font-family="sans-serif" font-size="13" lengthAdjust="spacing" textLength="21" x="767.17" y="687.0945">has</text></g><!--link RequiredStaff to Role--><g id="link_RequiredStaff_Role"><path codeLine="112" d="M45.25,808.7194 C45.25,830.2994 45.25,851.9694 45.25,871.4794 " fill="none" id="RequiredStaff-to-Role" style="stroke:#181818;stroke-width:1.0;"/><polygon fill="#181818" points="45.25,877.4794,49.25,868.4794,45.25,872.4794,41.25,868.4794,45.25,877.4794" style="stroke:#181818;stroke-width:1.0;"/><text fill="#000000" font-family="sans-serif" font-size="13" lengthAdjust="spacing" textLength="21" x="23.25" y="839.5945">has</text></g><!--link RequiredStaff to Specialization--><g id="link_RequiredStaff_Specialization"><path codeLine="113" d="M257.5,808.7194 C257.5,827.0894 257.5,843.8794 257.5,862.2894 " fill="none" id="RequiredStaff-to-Specialization" style="stroke:#181818;stroke-width:1.0;"/><polygon fill="#181818" points="257.5,868.2894,261.5,859.2894,257.5,863.2894,253.5,859.2894,257.5,868.2894" style="stroke:#181818;stroke-width:1.0;"/><polygon fill="#000000" points="226.5,834.6752,229.4389,825.6301,223.5611,825.6301,226.5,834.6752" style="stroke:#000000;stroke-width:1.0;"/><text fill="#000000" font-family="sans-serif" font-size="13" lengthAdjust="spacing" textLength="21" x="235.5" y="834.9945">has</text></g><!--link RequiredStaff to Quantity--><g id="link_RequiredStaff_Quantity"><path codeLine="114" d="M151.5,808.7194 C151.5,827.0894 151.5,843.8794 151.5,862.2894 " fill="none" id="RequiredStaff-to-Quantity" style="stroke:#181818;stroke-width:1.0;"/><polygon fill="#181818" points="151.5,868.2894,155.5,859.2894,151.5,863.2894,147.5,859.2894,151.5,868.2894" style="stroke:#181818;stroke-width:1.0;"/><polygon fill="#000000" points="120.5,834.6752,123.4389,825.6301,117.5611,825.6301,120.5,834.6752" style="stroke:#000000;stroke-width:1.0;"/><text fill="#000000" font-family="sans-serif" font-size="13" lengthAdjust="spacing" textLength="21" x="129.5" y="834.9945">has</text></g><!--link PhasesDuration to Phase--><g id="link_PhasesDuration_Phase"><path codeLine="116" d="M823,808.7194 C823,827.0894 823,843.8794 823,862.2894 " fill="none" id="PhasesDuration-to-Phase" style="stroke:#181818;stroke-width:1.0;"/><polygon fill="#181818" points="823,868.2894,827,859.2894,823,863.2894,819,859.2894,823,868.2894" style="stroke:#181818;stroke-width:1.0;"/><polygon fill="#000000" points="792,834.6752,794.9389,825.6301,789.0611,825.6301,792,834.6752" style="stroke:#000000;stroke-width:1.0;"/><text fill="#000000" font-family="sans-serif" font-size="13" lengthAdjust="spacing" textLength="21" x="801" y="834.9945">has</text></g><!--link PhasesDuration to Duration--><g id="link_PhasesDuration_Duration"><path codeLine="117" d="M954.75,775.6094 C996.67,775.6094 1032.5,775.6094 1032.5,775.6094 C1032.5,775.6094 1032.5,825.1694 1032.5,862.4994 " fill="none" id="PhasesDuration-to-Duration" style="stroke:#181818;stroke-width:1.0;"/><polygon fill="#181818" points="1032.5,868.4994,1036.5,859.4994,1032.5,863.4994,1028.5,859.4994,1032.5,868.4994" style="stroke:#181818;stroke-width:1.0;"/><polygon fill="#000000" points="1004.8341,778.0812,1000.9928,769.381,996.6125,773.3005,1004.8341,778.0812" style="stroke:#000000;stroke-width:1.0;"/><text fill="#000000" font-family="sans-serif" font-size="13" lengthAdjust="spacing" textLength="21" x="1010.5" y="779.6745">has</text></g><!--SRC=[rLN1ZjCm4BtdA-P64Ls4E5QhIY6fbaZGNTBkWHFo9jFMsjGEjbDK4F_Es8cpTPCk84xqK2dsU_FUZCTZ_SX5pHJRGysAHxR5bJbM20eBmyIsmaZt0BrZfVp6nHOshDAdEqN5j8wDKVoXCPWLKgpuTuGt9v2A2pJ76a4givDHLE76W96W-7PdeEHMa4iH6LdRvGTfZDoVh4U66_ALM2L8ETlQe9CaVGbNS9-yUVisYfmBkArHCKjPareYXL6ogb31ZmZezsebDoR52WrEU3c3cuQNBsUmPlhnEdPAEUgcCjT1cDJ8-JpwEIgnGdNW1VhucM0Kvi0Cnlee2YSIuBDURo1X5RWmg3QC0cR1VewrrDn8TVHADsZU7RFoxsJc_-RoKX7wx0TnqdPZoVOu0_lV7ODXfj4pEcTPTIir5fnL_BlZpY3yRZ4vVcse8qfYRpOp-C2rkGxMklJkTaoZJXlLnGg_Mqooe_v6wsWYUdEKz47oyXJHEfte4yDZgC3jH3-Rp0W_o6AYVfldI8WmoKdzR0qyV_mugHd_hnFjqmYuNGvNy4MtuLFkhZXJn-jSLZW51_lKC47JvMYRMqY3tKoIcp2QYsLfK301KbH7U41Wu683JHagHoeBkg9JM3PAsr47iTQK4iMFK9HWetkdNjKNsd_FW4R0m8dVTTYUkc-qiIQs2kagAp3K23HrpwN2mdl153NVYgwU9nzFnGoB_5JDjhM2SZhe53pMpGaKpRwDqL7lyiLTdCVhx7P9fR_FRnRvvoaa7nRnCblUFEcUARxwo0KzAzfN9dhHFZYk-GZp0auQKjCZ9BQqTe8xwzydIjQz01xk7BiZzf0u_PYHsVGsMT_cTAxt-MenXVKYUR_CaYochJlAPx5Sjo4kFJwlv-EFnWpcq50jBnAlw3SVNaxBKsWQ9VIPg8zCh8iFoBXgpnmejeIwf1xxOuvtMRZM99SNtOpBQNP0JGSEfCeUg8Vi-OIm0P6ErbAfuqQnhbsU0vpT4myT0iCfSnbtTe4yy5pSrkelal7mv_Bnc7Og_nRr1ubxx6ZkeF50s6gSSgaCOIWNt4rHkpdSks1o2Ep7OozqPg3tr2D600Exlm00]--></g></svg>