<?xml version="1.0" encoding="us-ascii" standalone="no"?><svg xmlns="http://www.w3.org/2000/svg" xmlns:xlink="http://www.w3.org/1999/xlink" contentStyleType="text/css" height="1081px" preserveAspectRatio="none" style="width:1185px;height:1081px;background:#FFFFFF;" version="1.1" viewBox="0 0 1185 1081" width="1185px" zoomAndPan="magnify"><defs/><g><text fill="#000000" font-family="sans-serif" font-size="14" font-weight="bold" lengthAdjust="spacing" textLength="190" x="490.75" y="24.5332">Class Diagram (CD) - UC023</text><!--class OperationTypeController--><g id="elem_OperationTypeController"><rect codeLine="12" fill="#F1F1F1" height="65.6094" id="OperationTypeController" rx="2.5" ry="2.5" style="stroke:#181818;stroke-width:0.5;" width="430" x="525.5" y="45.6094"/><ellipse cx="657.75" cy="61.6094" fill="#ADD1B2" rx="11" ry="11" style="stroke:#181818;stroke-width:1.0;"/><path d="M660.5156,57.4844 Q660.6719,57.2656 660.8594,57.1563 Q661.0469,57.0469 661.2656,57.0469 Q661.6406,57.0469 661.875,57.3125 Q662.1094,57.5625 662.1094,58.1719 L662.1094,59.625 Q662.1094,60.2344 661.875,60.5 Q661.6406,60.7656 661.2656,60.7656 Q660.9219,60.7656 660.7188,60.5625 Q660.5156,60.375 660.4063,59.8594 Q660.3594,59.5 660.1719,59.3125 Q659.8438,58.9375 659.2344,58.7188 Q658.625,58.5 658,58.5 Q657.2344,58.5 656.5938,58.8281 Q655.9688,59.1563 655.4688,59.9063 Q654.9844,60.6563 654.9844,61.6875 L654.9844,62.7813 Q654.9844,64.0156 655.875,64.8438 Q656.7656,65.6563 658.3594,65.6563 Q659.2969,65.6563 659.9531,65.4063 Q660.3438,65.25 660.7656,64.8125 Q661.0313,64.5469 661.1719,64.4688 Q661.3281,64.3906 661.5313,64.3906 Q661.8594,64.3906 662.1094,64.6563 Q662.375,64.9063 662.375,65.25 Q662.375,65.5938 662.0313,66 Q661.5313,66.5781 660.7344,66.9063 Q659.6563,67.3594 658.3594,67.3594 Q656.8438,67.3594 655.6406,66.7344 Q654.6563,66.2344 653.9688,65.1719 Q653.2813,64.0938 653.2813,62.8125 L653.2813,61.6563 Q653.2813,60.3281 653.8906,59.1875 Q654.5156,58.0313 655.6094,57.4219 Q656.7031,56.7969 657.9375,56.7969 Q658.6719,56.7969 659.3125,56.9688 Q659.9688,57.125 660.5156,57.4844 Z " fill="#000000"/><text fill="#000000" font-family="sans-serif" font-size="14" lengthAdjust="spacing" textLength="157" x="678.25" y="67.3379">OperationTypeController</text><line style="stroke:#181818;stroke-width:0.5;" x1="526.5" x2="954.5" y1="77.6094" y2="77.6094"/><line style="stroke:#181818;stroke-width:0.5;" x1="526.5" x2="954.5" y1="85.6094" y2="85.6094"/><text fill="#000000" font-family="sans-serif" font-size="14" lengthAdjust="spacing" textLength="418" x="531.5" y="104.1426">+GetAll(): Task&lt;ActionResult&lt;IEnumerable&lt;OperationTypeDto&gt;&gt;&gt;</text></g><!--class OperationTypeService--><g id="elem_OperationTypeService"><rect codeLine="16" fill="#F1F1F1" height="118.4375" id="OperationTypeService" rx="2.5" ry="2.5" style="stroke:#181818;stroke-width:0.5;" width="581" x="278" y="171.6094"/><ellipse cx="493.25" cy="187.6094" fill="#ADD1B2" rx="11" ry="11" style="stroke:#181818;stroke-width:1.0;"/><path d="M496.0156,183.4844 Q496.1719,183.2656 496.3594,183.1563 Q496.5469,183.0469 496.7656,183.0469 Q497.1406,183.0469 497.375,183.3125 Q497.6094,183.5625 497.6094,184.1719 L497.6094,185.625 Q497.6094,186.2344 497.375,186.5 Q497.1406,186.7656 496.7656,186.7656 Q496.4219,186.7656 496.2188,186.5625 Q496.0156,186.375 495.9063,185.8594 Q495.8594,185.5 495.6719,185.3125 Q495.3438,184.9375 494.7344,184.7188 Q494.125,184.5 493.5,184.5 Q492.7344,184.5 492.0938,184.8281 Q491.4688,185.1563 490.9688,185.9063 Q490.4844,186.6563 490.4844,187.6875 L490.4844,188.7813 Q490.4844,190.0156 491.375,190.8438 Q492.2656,191.6563 493.8594,191.6563 Q494.7969,191.6563 495.4531,191.4063 Q495.8438,191.25 496.2656,190.8125 Q496.5313,190.5469 496.6719,190.4688 Q496.8281,190.3906 497.0313,190.3906 Q497.3594,190.3906 497.6094,190.6563 Q497.875,190.9063 497.875,191.25 Q497.875,191.5938 497.5313,192 Q497.0313,192.5781 496.2344,192.9063 Q495.1563,193.3594 493.8594,193.3594 Q492.3438,193.3594 491.1406,192.7344 Q490.1563,192.2344 489.4688,191.1719 Q488.7813,190.0938 488.7813,188.8125 L488.7813,187.6563 Q488.7813,186.3281 489.3906,185.1875 Q490.0156,184.0313 491.1094,183.4219 Q492.2031,182.7969 493.4375,182.7969 Q494.1719,182.7969 494.8125,182.9688 Q495.4688,183.125 496.0156,183.4844 Z " fill="#000000"/><text fill="#000000" font-family="sans-serif" font-size="14" lengthAdjust="spacing" textLength="142" x="513.75" y="193.3379">OperationTypeService</text><line style="stroke:#181818;stroke-width:0.5;" x1="279" x2="858" y1="203.6094" y2="203.6094"/><line style="stroke:#181818;stroke-width:0.5;" x1="279" x2="858" y1="211.6094" y2="211.6094"/><text fill="#000000" font-family="sans-serif" font-size="14" lengthAdjust="spacing" textLength="304" x="284" y="230.1426">+GetAllAsync(): Task&lt;List&lt;OperationTypeDto&gt;&gt;</text><text fill="#000000" font-family="sans-serif" font-size="14" lengthAdjust="spacing" textLength="382" x="284" y="247.752">+GetByNameAsync(name: Name): Task&lt;OperationTypeDto&gt;</text><text fill="#000000" font-family="sans-serif" font-size="14" lengthAdjust="spacing" textLength="569" x="284" y="265.3613">+GetBySpecializationAsync(specialization: Specialization): Task&lt;List&lt;OperationTypeDto&gt;&gt;</text><text fill="#000000" font-family="sans-serif" font-size="14" lengthAdjust="spacing" textLength="418" x="284" y="282.9707">+GetByStatusAsync(status: bool): Task&lt;List&lt;OperationTypeDto&gt;&gt;</text></g><!--class IOperationTypeRepository--><g id="elem_IOperationTypeRepository"><rect codeLine="23" fill="#F1F1F1" height="118.4375" id="IOperationTypeRepository" rx="2.5" ry="2.5" style="stroke:#181818;stroke-width:0.5;" width="559" x="7" y="349.6094"/><ellipse cx="198.75" cy="365.6094" fill="#B4A7E5" rx="11" ry="11" style="stroke:#181818;stroke-width:1.0;"/><path d="M199.7031,362.25 L199.7031,368.9063 L201.4219,368.9063 Q202.0313,368.9063 202.2969,369.1406 Q202.5625,369.375 202.5625,369.7656 Q202.5625,370.1406 202.2969,370.375 Q202.0313,370.6094 201.4219,370.6094 L196.2813,370.6094 Q195.6719,370.6094 195.4063,370.375 Q195.1406,370.1406 195.1406,369.75 Q195.1406,369.375 195.4063,369.1406 Q195.6719,368.9063 196.2813,368.9063 L198,368.9063 L198,362.25 L196.2813,362.25 Q195.6719,362.25 195.4063,362.0156 Q195.1406,361.7813 195.1406,361.3906 Q195.1406,361.0156 195.4063,360.7813 Q195.6719,360.5469 196.2813,360.5469 L201.4219,360.5469 Q202.0313,360.5469 202.2969,360.7813 Q202.5625,361.0156 202.5625,361.3906 Q202.5625,361.7813 202.2969,362.0156 Q202.0313,362.25 201.4219,362.25 L199.7031,362.25 Z " fill="#000000"/><text fill="#000000" font-family="sans-serif" font-size="14" font-style="italic" lengthAdjust="spacing" textLength="167" x="219.25" y="371.3379">IOperationTypeRepository</text><line style="stroke:#181818;stroke-width:0.5;" x1="8" x2="565" y1="381.6094" y2="381.6094"/><line style="stroke:#181818;stroke-width:0.5;" x1="8" x2="565" y1="389.6094" y2="389.6094"/><text fill="#000000" font-family="sans-serif" font-size="14" lengthAdjust="spacing" textLength="282" x="13" y="408.1426">+GetAllAsync(): Task&lt;List&lt;OperationType&gt;&gt;</text><text fill="#000000" font-family="sans-serif" font-size="14" lengthAdjust="spacing" textLength="360" x="13" y="425.752">+GetByNameAsync(name: Name): Task&lt;OperationType&gt;</text><text fill="#000000" font-family="sans-serif" font-size="14" lengthAdjust="spacing" textLength="547" x="13" y="443.3613">+GetBySpecializationAsync(specialization: Specialization): Task&lt;List&lt;OperationType&gt;&gt;</text><text fill="#000000" font-family="sans-serif" font-size="14" lengthAdjust="spacing" textLength="396" x="13" y="460.9707">+GetByStatusAsync(status: bool): Task&lt;List&lt;OperationType&gt;&gt;</text></g><!--class OperationType--><g id="elem_OperationType"><rect codeLine="30" fill="#F1F1F1" height="241.7031" id="OperationType" rx="2.5" ry="2.5" style="stroke:#181818;stroke-width:0.5;" width="424" x="203.5" y="527.6094"/><ellipse cx="363.75" cy="543.6094" fill="#ADD1B2" rx="11" ry="11" style="stroke:#181818;stroke-width:1.0;"/><path d="M366.5156,539.4844 Q366.6719,539.2656 366.8594,539.1563 Q367.0469,539.0469 367.2656,539.0469 Q367.6406,539.0469 367.875,539.3125 Q368.1094,539.5625 368.1094,540.1719 L368.1094,541.625 Q368.1094,542.2344 367.875,542.5 Q367.6406,542.7656 367.2656,542.7656 Q366.9219,542.7656 366.7188,542.5625 Q366.5156,542.375 366.4063,541.8594 Q366.3594,541.5 366.1719,541.3125 Q365.8438,540.9375 365.2344,540.7188 Q364.625,540.5 364,540.5 Q363.2344,540.5 362.5938,540.8281 Q361.9688,541.1563 361.4688,541.9063 Q360.9844,542.6563 360.9844,543.6875 L360.9844,544.7813 Q360.9844,546.0156 361.875,546.8438 Q362.7656,547.6563 364.3594,547.6563 Q365.2969,547.6563 365.9531,547.4063 Q366.3438,547.25 366.7656,546.8125 Q367.0313,546.5469 367.1719,546.4688 Q367.3281,546.3906 367.5313,546.3906 Q367.8594,546.3906 368.1094,546.6563 Q368.375,546.9063 368.375,547.25 Q368.375,547.5938 368.0313,548 Q367.5313,548.5781 366.7344,548.9063 Q365.6563,549.3594 364.3594,549.3594 Q362.8438,549.3594 361.6406,548.7344 Q360.6563,548.2344 359.9688,547.1719 Q359.2813,546.0938 359.2813,544.8125 L359.2813,543.6563 Q359.2813,542.3281 359.8906,541.1875 Q360.5156,540.0313 361.6094,539.4219 Q362.7031,538.7969 363.9375,538.7969 Q364.6719,538.7969 365.3125,538.9688 Q365.9688,539.125 366.5156,539.4844 Z " fill="#000000"/><text fill="#000000" font-family="sans-serif" font-size="14" lengthAdjust="spacing" textLength="95" x="384.25" y="549.3379">OperationType</text><line style="stroke:#181818;stroke-width:0.5;" x1="204.5" x2="626.5" y1="559.6094" y2="559.6094"/><text fill="#000000" font-family="sans-serif" font-size="14" lengthAdjust="spacing" textLength="135" x="209.5" y="578.1426">+Id: OperationTypeID</text><text fill="#000000" font-family="sans-serif" font-size="14" lengthAdjust="spacing" textLength="88" x="209.5" y="595.752">+Name: Name</text><text fill="#000000" font-family="sans-serif" font-size="14" lengthAdjust="spacing" textLength="83" x="209.5" y="613.3613">+Status: bool</text><text fill="#000000" font-family="sans-serif" font-size="14" lengthAdjust="spacing" textLength="188" x="209.5" y="630.9707">+Specialization: Specialization</text><text fill="#000000" font-family="sans-serif" font-size="14" lengthAdjust="spacing" textLength="228" x="209.5" y="648.5801">+RequiredStaff: List&lt;RequiredStaff&gt;</text><text fill="#000000" font-family="sans-serif" font-size="14" lengthAdjust="spacing" textLength="218" x="209.5" y="666.1895">+PhasesDuration: PhasesDuration</text><line style="stroke:#181818;stroke-width:0.5;" x1="204.5" x2="626.5" y1="673.2656" y2="673.2656"/><text fill="#000000" font-family="sans-serif" font-size="14" lengthAdjust="spacing" textLength="217" x="209.5" y="691.7988">+ChangeName(name: Name): void</text><text fill="#000000" font-family="sans-serif" font-size="14" lengthAdjust="spacing" textLength="215" x="209.5" y="709.4082">+ChangeStatus(status: bool): void</text><text fill="#000000" font-family="sans-serif" font-size="14" lengthAdjust="spacing" textLength="366" x="209.5" y="727.0176">+ChangeSpecialization(specialization: Specialization): void</text><text fill="#000000" font-family="sans-serif" font-size="14" lengthAdjust="spacing" textLength="404" x="209.5" y="744.627">+ChangeRequiredStaff(requiredStaff: List&lt;RequiredStaff&gt;): void</text><text fill="#000000" font-family="sans-serif" font-size="14" lengthAdjust="spacing" textLength="412" x="209.5" y="762.2363">+ChangePhasesDuration(phasesDuration: PhasesDuration): void</text></g><!--class OperationTypeDto--><g id="elem_OperationTypeDto"><rect codeLine="44" fill="#F1F1F1" height="153.6563" id="OperationTypeDto" rx="2.5" ry="2.5" style="stroke:#181818;stroke-width:0.5;" width="240" x="731.5" y="571.6094"/><ellipse cx="788.75" cy="587.6094" fill="#ADD1B2" rx="11" ry="11" style="stroke:#181818;stroke-width:1.0;"/><path d="M791.5156,583.4844 Q791.6719,583.2656 791.8594,583.1563 Q792.0469,583.0469 792.2656,583.0469 Q792.6406,583.0469 792.875,583.3125 Q793.1094,583.5625 793.1094,584.1719 L793.1094,585.625 Q793.1094,586.2344 792.875,586.5 Q792.6406,586.7656 792.2656,586.7656 Q791.9219,586.7656 791.7188,586.5625 Q791.5156,586.375 791.4063,585.8594 Q791.3594,585.5 791.1719,585.3125 Q790.8438,584.9375 790.2344,584.7188 Q789.625,584.5 789,584.5 Q788.2344,584.5 787.5938,584.8281 Q786.9688,585.1563 786.4688,585.9063 Q785.9844,586.6563 785.9844,587.6875 L785.9844,588.7813 Q785.9844,590.0156 786.875,590.8438 Q787.7656,591.6563 789.3594,591.6563 Q790.2969,591.6563 790.9531,591.4063 Q791.3438,591.25 791.7656,590.8125 Q792.0313,590.5469 792.1719,590.4688 Q792.3281,590.3906 792.5313,590.3906 Q792.8594,590.3906 793.1094,590.6563 Q793.375,590.9063 793.375,591.25 Q793.375,591.5938 793.0313,592 Q792.5313,592.5781 791.7344,592.9063 Q790.6563,593.3594 789.3594,593.3594 Q787.8438,593.3594 786.6406,592.7344 Q785.6563,592.2344 784.9688,591.1719 Q784.2813,590.0938 784.2813,588.8125 L784.2813,587.6563 Q784.2813,586.3281 784.8906,585.1875 Q785.5156,584.0313 786.6094,583.4219 Q787.7031,582.7969 788.9375,582.7969 Q789.6719,582.7969 790.3125,582.9688 Q790.9688,583.125 791.5156,583.4844 Z " fill="#000000"/><text fill="#000000" font-family="sans-serif" font-size="14" lengthAdjust="spacing" textLength="117" x="809.25" y="593.3379">OperationTypeDto</text><line style="stroke:#181818;stroke-width:0.5;" x1="732.5" x2="970.5" y1="603.6094" y2="603.6094"/><text fill="#000000" font-family="sans-serif" font-size="14" lengthAdjust="spacing" textLength="135" x="737.5" y="622.1426">+Id: OperationTypeID</text><text fill="#000000" font-family="sans-serif" font-size="14" lengthAdjust="spacing" textLength="88" x="737.5" y="639.752">+Name: Name</text><text fill="#000000" font-family="sans-serif" font-size="14" lengthAdjust="spacing" textLength="83" x="737.5" y="657.3613">+Status: bool</text><text fill="#000000" font-family="sans-serif" font-size="14" lengthAdjust="spacing" textLength="188" x="737.5" y="674.9707">+Specialization: Specialization</text><text fill="#000000" font-family="sans-serif" font-size="14" lengthAdjust="spacing" textLength="228" x="737.5" y="692.5801">+RequiredStaff: List&lt;RequiredStaff&gt;</text><text fill="#000000" font-family="sans-serif" font-size="14" lengthAdjust="spacing" textLength="218" x="737.5" y="710.1895">+PhasesDuration: PhasesDuration</text><line style="stroke:#181818;stroke-width:0.5;" x1="732.5" x2="970.5" y1="717.2656" y2="717.2656"/></g><!--class RequiredStaff--><g id="elem_RequiredStaff"><rect codeLine="53" fill="#F1F1F1" height="100.8281" id="RequiredStaff" rx="2.5" ry="2.5" style="stroke:#181818;stroke-width:0.5;" width="200" x="177.5" y="829.6094"/><ellipse cx="229.75" cy="845.6094" fill="#ADD1B2" rx="11" ry="11" style="stroke:#181818;stroke-width:1.0;"/><path d="M232.5156,841.4844 Q232.6719,841.2656 232.8594,841.1563 Q233.0469,841.0469 233.2656,841.0469 Q233.6406,841.0469 233.875,841.3125 Q234.1094,841.5625 234.1094,842.1719 L234.1094,843.625 Q234.1094,844.2344 233.875,844.5 Q233.6406,844.7656 233.2656,844.7656 Q232.9219,844.7656 232.7188,844.5625 Q232.5156,844.375 232.4063,843.8594 Q232.3594,843.5 232.1719,843.3125 Q231.8438,842.9375 231.2344,842.7188 Q230.625,842.5 230,842.5 Q229.2344,842.5 228.5938,842.8281 Q227.9688,843.1563 227.4688,843.9063 Q226.9844,844.6563 226.9844,845.6875 L226.9844,846.7813 Q226.9844,848.0156 227.875,848.8438 Q228.7656,849.6563 230.3594,849.6563 Q231.2969,849.6563 231.9531,849.4063 Q232.3438,849.25 232.7656,848.8125 Q233.0313,848.5469 233.1719,848.4688 Q233.3281,848.3906 233.5313,848.3906 Q233.8594,848.3906 234.1094,848.6563 Q234.375,848.9063 234.375,849.25 Q234.375,849.5938 234.0313,850 Q233.5313,850.5781 232.7344,850.9063 Q231.6563,851.3594 230.3594,851.3594 Q228.8438,851.3594 227.6406,850.7344 Q226.6563,850.2344 225.9688,849.1719 Q225.2813,848.0938 225.2813,846.8125 L225.2813,845.6563 Q225.2813,844.3281 225.8906,843.1875 Q226.5156,842.0313 227.6094,841.4219 Q228.7031,840.7969 229.9375,840.7969 Q230.6719,840.7969 231.3125,840.9688 Q231.9688,841.125 232.5156,841.4844 Z " fill="#000000"/><text fill="#000000" font-family="sans-serif" font-size="14" lengthAdjust="spacing" textLength="87" x="250.25" y="851.3379">RequiredStaff</text><line style="stroke:#181818;stroke-width:0.5;" x1="178.5" x2="376.5" y1="861.6094" y2="861.6094"/><text fill="#000000" font-family="sans-serif" font-size="14" lengthAdjust="spacing" textLength="74" x="183.5" y="880.1426">+Role: Role</text><text fill="#000000" font-family="sans-serif" font-size="14" lengthAdjust="spacing" textLength="188" x="183.5" y="897.752">+Specialization: Specialization</text><text fill="#000000" font-family="sans-serif" font-size="14" lengthAdjust="spacing" textLength="122" x="183.5" y="915.3613">+Quantity: Quantity</text><line style="stroke:#181818;stroke-width:0.5;" x1="178.5" x2="376.5" y1="922.4375" y2="922.4375"/></g><g id="elem_GMN8"><path d="M412.5,867.1094 L412.5,876.6094 L377.6,880.6094 L412.5,884.6094 L412.5,893.4609 A0,0 0 0 0 412.5,893.4609 L756.5,893.4609 A0,0 0 0 0 756.5,893.4609 L756.5,877.1094 L746.5,867.1094 L412.5,867.1094 A0,0 0 0 0 412.5,867.1094 " fill="#FEFFDD" style="stroke:#181818;stroke-width:0.5;"/><path d="M746.5,867.1094 L746.5,877.1094 L756.5,877.1094 L746.5,867.1094 " fill="#FEFFDD" style="stroke:#181818;stroke-width:0.5;"/><text fill="#000000" font-family="sans-serif" font-size="13" lengthAdjust="spacing" textLength="323" x="418.5" y="885.6045">Role can only be a staff role: Doctor, Nurse or Assistant</text></g><!--class Quantity--><g id="elem_Quantity"><rect codeLine="62" fill="#F1F1F1" height="65.6094" id="Quantity" rx="2.5" ry="2.5" style="stroke:#181818;stroke-width:0.5;" width="96" x="206.5" y="990.6094"/><ellipse cx="226.45" cy="1006.6094" fill="#ADD1B2" rx="11" ry="11" style="stroke:#181818;stroke-width:1.0;"/><path d="M229.2156,1002.4844 Q229.3719,1002.2656 229.5594,1002.1563 Q229.7469,1002.0469 229.9656,1002.0469 Q230.3406,1002.0469 230.575,1002.3125 Q230.8094,1002.5625 230.8094,1003.1719 L230.8094,1004.625 Q230.8094,1005.2344 230.575,1005.5 Q230.3406,1005.7656 229.9656,1005.7656 Q229.6219,1005.7656 229.4188,1005.5625 Q229.2156,1005.375 229.1063,1004.8594 Q229.0594,1004.5 228.8719,1004.3125 Q228.5438,1003.9375 227.9344,1003.7188 Q227.325,1003.5 226.7,1003.5 Q225.9344,1003.5 225.2938,1003.8281 Q224.6688,1004.1563 224.1688,1004.9063 Q223.6844,1005.6563 223.6844,1006.6875 L223.6844,1007.7813 Q223.6844,1009.0156 224.575,1009.8438 Q225.4656,1010.6563 227.0594,1010.6563 Q227.9969,1010.6563 228.6531,1010.4063 Q229.0438,1010.25 229.4656,1009.8125 Q229.7313,1009.5469 229.8719,1009.4688 Q230.0281,1009.3906 230.2313,1009.3906 Q230.5594,1009.3906 230.8094,1009.6563 Q231.075,1009.9063 231.075,1010.25 Q231.075,1010.5938 230.7313,1011 Q230.2313,1011.5781 229.4344,1011.9063 Q228.3563,1012.3594 227.0594,1012.3594 Q225.5438,1012.3594 224.3406,1011.7344 Q223.3563,1011.2344 222.6688,1010.1719 Q221.9813,1009.0938 221.9813,1007.8125 L221.9813,1006.6563 Q221.9813,1005.3281 222.5906,1004.1875 Q223.2156,1003.0313 224.3094,1002.4219 Q225.4031,1001.7969 226.6375,1001.7969 Q227.3719,1001.7969 228.0125,1001.9688 Q228.6688,1002.125 229.2156,1002.4844 Z " fill="#000000"/><text fill="#000000" font-family="sans-serif" font-size="14" lengthAdjust="spacing" textLength="53" x="241.55" y="1012.3379">Quantity</text><line style="stroke:#181818;stroke-width:0.5;" x1="207.5" x2="301.5" y1="1022.6094" y2="1022.6094"/><text fill="#000000" font-family="sans-serif" font-size="14" lengthAdjust="spacing" textLength="84" x="212.5" y="1041.1426">+Quantity: int</text><line style="stroke:#181818;stroke-width:0.5;" x1="207.5" x2="301.5" y1="1048.2188" y2="1048.2188"/></g><g id="elem_GMN12"><path d="M551,1010.6094 L551,1036.9609 L756,1036.9609 L756,1020.6094 L746,1010.6094 L551,1010.6094 " fill="#FEFFDD" style="stroke:#181818;stroke-width:0.5;"/><path d="M746,1010.6094 L746,1020.6094 L756,1020.6094 L746,1010.6094 " fill="#FEFFDD" style="stroke:#181818;stroke-width:1.0;"/><text fill="#000000" font-family="sans-serif" font-size="13" lengthAdjust="spacing" textLength="184" x="557" y="1029.1045">Quantity must be greater than 0</text></g><!--class Specialization--><g id="elem_Specialization"><rect codeLine="69" fill="#F1F1F1" height="65.6094" id="Specialization" rx="2.5" ry="2.5" style="stroke:#181818;stroke-width:0.5;" width="178" x="337.5" y="990.6094"/><ellipse cx="379.5" cy="1006.6094" fill="#ADD1B2" rx="11" ry="11" style="stroke:#181818;stroke-width:1.0;"/><path d="M382.2656,1002.4844 Q382.4219,1002.2656 382.6094,1002.1563 Q382.7969,1002.0469 383.0156,1002.0469 Q383.3906,1002.0469 383.625,1002.3125 Q383.8594,1002.5625 383.8594,1003.1719 L383.8594,1004.625 Q383.8594,1005.2344 383.625,1005.5 Q383.3906,1005.7656 383.0156,1005.7656 Q382.6719,1005.7656 382.4688,1005.5625 Q382.2656,1005.375 382.1563,1004.8594 Q382.1094,1004.5 381.9219,1004.3125 Q381.5938,1003.9375 380.9844,1003.7188 Q380.375,1003.5 379.75,1003.5 Q378.9844,1003.5 378.3438,1003.8281 Q377.7188,1004.1563 377.2188,1004.9063 Q376.7344,1005.6563 376.7344,1006.6875 L376.7344,1007.7813 Q376.7344,1009.0156 377.625,1009.8438 Q378.5156,1010.6563 380.1094,1010.6563 Q381.0469,1010.6563 381.7031,1010.4063 Q382.0938,1010.25 382.5156,1009.8125 Q382.7813,1009.5469 382.9219,1009.4688 Q383.0781,1009.3906 383.2813,1009.3906 Q383.6094,1009.3906 383.8594,1009.6563 Q384.125,1009.9063 384.125,1010.25 Q384.125,1010.5938 383.7813,1011 Q383.2813,1011.5781 382.4844,1011.9063 Q381.4063,1012.3594 380.1094,1012.3594 Q378.5938,1012.3594 377.3906,1011.7344 Q376.4063,1011.2344 375.7188,1010.1719 Q375.0313,1009.0938 375.0313,1007.8125 L375.0313,1006.6563 Q375.0313,1005.3281 375.6406,1004.1875 Q376.2656,1003.0313 377.3594,1002.4219 Q378.4531,1001.7969 379.6875,1001.7969 Q380.4219,1001.7969 381.0625,1001.9688 Q381.7188,1002.125 382.2656,1002.4844 Z " fill="#000000"/><text fill="#000000" font-family="sans-serif" font-size="14" lengthAdjust="spacing" textLength="86" x="399.5" y="1012.3379">Specialization</text><line style="stroke:#181818;stroke-width:0.5;" x1="338.5" x2="514.5" y1="1022.6094" y2="1022.6094"/><text fill="#000000" font-family="sans-serif" font-size="14" lengthAdjust="spacing" textLength="166" x="343.5" y="1041.1426">+Designation: Designation</text><line style="stroke:#181818;stroke-width:0.5;" x1="338.5" x2="514.5" y1="1048.2188" y2="1048.2188"/></g><!--class PhasesDuration--><g id="elem_PhasesDuration"><rect codeLine="73" fill="#F1F1F1" height="65.6094" id="PhasesDuration" rx="2.5" ry="2.5" style="stroke:#181818;stroke-width:0.5;" width="260" x="791.5" y="847.1094"/><ellipse cx="866.75" cy="863.1094" fill="#ADD1B2" rx="11" ry="11" style="stroke:#181818;stroke-width:1.0;"/><path d="M869.5156,858.9844 Q869.6719,858.7656 869.8594,858.6563 Q870.0469,858.5469 870.2656,858.5469 Q870.6406,858.5469 870.875,858.8125 Q871.1094,859.0625 871.1094,859.6719 L871.1094,861.125 Q871.1094,861.7344 870.875,862 Q870.6406,862.2656 870.2656,862.2656 Q869.9219,862.2656 869.7188,862.0625 Q869.5156,861.875 869.4063,861.3594 Q869.3594,861 869.1719,860.8125 Q868.8438,860.4375 868.2344,860.2188 Q867.625,860 867,860 Q866.2344,860 865.5938,860.3281 Q864.9688,860.6563 864.4688,861.4063 Q863.9844,862.1563 863.9844,863.1875 L863.9844,864.2813 Q863.9844,865.5156 864.875,866.3438 Q865.7656,867.1563 867.3594,867.1563 Q868.2969,867.1563 868.9531,866.9063 Q869.3438,866.75 869.7656,866.3125 Q870.0313,866.0469 870.1719,865.9688 Q870.3281,865.8906 870.5313,865.8906 Q870.8594,865.8906 871.1094,866.1563 Q871.375,866.4063 871.375,866.75 Q871.375,867.0938 871.0313,867.5 Q870.5313,868.0781 869.7344,868.4063 Q868.6563,868.8594 867.3594,868.8594 Q865.8438,868.8594 864.6406,868.2344 Q863.6563,867.7344 862.9688,866.6719 Q862.2813,865.5938 862.2813,864.3125 L862.2813,863.1563 Q862.2813,861.8281 862.8906,860.6875 Q863.5156,859.5313 864.6094,858.9219 Q865.7031,858.2969 866.9375,858.2969 Q867.6719,858.2969 868.3125,858.4688 Q868.9688,858.625 869.5156,858.9844 Z " fill="#000000"/><text fill="#000000" font-family="sans-serif" font-size="14" lengthAdjust="spacing" textLength="101" x="887.25" y="868.8379">PhasesDuration</text><line style="stroke:#181818;stroke-width:0.5;" x1="792.5" x2="1050.5" y1="879.1094" y2="879.1094"/><text fill="#000000" font-family="sans-serif" font-size="14" lengthAdjust="spacing" textLength="248" x="797.5" y="897.6426">-_phases: Dictionary&lt;Phase, Duration&gt;</text><line style="stroke:#181818;stroke-width:0.5;" x1="792.5" x2="1050.5" y1="904.7188" y2="904.7188"/></g><!--class Phase--><g id="elem_Phase"><rect codeLine="77" fill="#F1F1F1" height="65.6094" id="Phase" rx="2.5" ry="2.5" style="stroke:#181818;stroke-width:0.5;" width="260" x="791.5" y="990.6094"/><ellipse cx="897.25" cy="1006.6094" fill="#EB937F" rx="11" ry="11" style="stroke:#181818;stroke-width:1.0;"/><path d="M896.1094,1007.4063 L896.1094,1009.9063 L900.4375,1009.9063 L900.4375,1008.9844 Q900.4375,1008.375 900.6719,1008.1094 Q900.9219,1007.8438 901.2969,1007.8438 Q901.6719,1007.8438 901.9063,1008.1094 Q902.1406,1008.375 902.1406,1008.9844 L902.1406,1011.6094 L894.1406,1011.6094 Q893.5156,1011.6094 893.25,1011.375 Q893,1011.1406 893,1010.75 Q893,1010.375 893.2656,1010.1406 Q893.5313,1009.9063 894.1406,1009.9063 L894.4063,1009.9063 L894.4063,1003.25 L894.1406,1003.25 Q893.5156,1003.25 893.25,1003.0156 Q893,1002.7813 893,1002.3906 Q893,1002.0156 893.25,1001.7813 Q893.5156,1001.5469 894.1406,1001.5469 L901.7656,1001.5469 L901.7656,1004.1406 Q901.7656,1004.75 901.5313,1005.0156 Q901.3125,1005.2656 900.9219,1005.2656 Q900.5469,1005.2656 900.3125,1005.0156 Q900.0781,1004.75 900.0781,1004.1406 L900.0781,1003.25 L896.1094,1003.25 L896.1094,1005.7031 L897.5938,1005.7031 Q897.5938,1005.0469 897.7188,1004.8594 Q897.9844,1004.4531 898.4531,1004.4531 Q898.8281,1004.4531 899.0625,1004.7188 Q899.2969,1004.9688 899.2969,1005.5781 L899.2969,1007.5469 Q899.2969,1008.0938 899.1719,1008.2813 Q898.9063,1008.6719 898.4531,1008.6719 Q897.9844,1008.6719 897.7188,1008.2656 Q897.5938,1008.0781 897.5938,1007.4063 L896.1094,1007.4063 Z " fill="#000000"/><text fill="#000000" font-family="sans-serif" font-size="14" lengthAdjust="spacing" textLength="40" x="917.75" y="1012.3379">Phase</text><line style="stroke:#181818;stroke-width:0.5;" x1="792.5" x2="1050.5" y1="1022.6094" y2="1022.6094"/><text fill="#000000" font-family="sans-serif" font-size="14" lengthAdjust="spacing" textLength="248" x="797.5" y="1041.1426">PREPARATION, SURGERY, CLEANING</text><line style="stroke:#181818;stroke-width:0.5;" x1="792.5" x2="1050.5" y1="1048.2188" y2="1048.2188"/></g><!--class Duration--><g id="elem_Duration"><rect codeLine="81" fill="#F1F1F1" height="65.6094" id="Duration" rx="2.5" ry="2.5" style="stroke:#181818;stroke-width:0.5;" width="92" x="1086.5" y="990.6094"/><ellipse cx="1104.2" cy="1006.6094" fill="#ADD1B2" rx="11" ry="11" style="stroke:#181818;stroke-width:1.0;"/><path d="M1106.9656,1002.4844 Q1107.1219,1002.2656 1107.3094,1002.1563 Q1107.4969,1002.0469 1107.7156,1002.0469 Q1108.0906,1002.0469 1108.325,1002.3125 Q1108.5594,1002.5625 1108.5594,1003.1719 L1108.5594,1004.625 Q1108.5594,1005.2344 1108.325,1005.5 Q1108.0906,1005.7656 1107.7156,1005.7656 Q1107.3719,1005.7656 1107.1688,1005.5625 Q1106.9656,1005.375 1106.8563,1004.8594 Q1106.8094,1004.5 1106.6219,1004.3125 Q1106.2938,1003.9375 1105.6844,1003.7188 Q1105.075,1003.5 1104.45,1003.5 Q1103.6844,1003.5 1103.0438,1003.8281 Q1102.4188,1004.1563 1101.9188,1004.9063 Q1101.4344,1005.6563 1101.4344,1006.6875 L1101.4344,1007.7813 Q1101.4344,1009.0156 1102.325,1009.8438 Q1103.2156,1010.6563 1104.8094,1010.6563 Q1105.7469,1010.6563 1106.4031,1010.4063 Q1106.7938,1010.25 1107.2156,1009.8125 Q1107.4813,1009.5469 1107.6219,1009.4688 Q1107.7781,1009.3906 1107.9813,1009.3906 Q1108.3094,1009.3906 1108.5594,1009.6563 Q1108.825,1009.9063 1108.825,1010.25 Q1108.825,1010.5938 1108.4813,1011 Q1107.9813,1011.5781 1107.1844,1011.9063 Q1106.1063,1012.3594 1104.8094,1012.3594 Q1103.2938,1012.3594 1102.0906,1011.7344 Q1101.1063,1011.2344 1100.4188,1010.1719 Q1099.7313,1009.0938 1099.7313,1007.8125 L1099.7313,1006.6563 Q1099.7313,1005.3281 1100.3406,1004.1875 Q1100.9656,1003.0313 1102.0594,1002.4219 Q1103.1531,1001.7969 1104.3875,1001.7969 Q1105.1219,1001.7969 1105.7625,1001.9688 Q1106.4188,1002.125 1106.9656,1002.4844 Z " fill="#000000"/><text fill="#000000" font-family="sans-serif" font-size="14" lengthAdjust="spacing" textLength="54" x="1118.8" y="1012.3379">Duration</text><line style="stroke:#181818;stroke-width:0.5;" x1="1087.5" x2="1177.5" y1="1022.6094" y2="1022.6094"/><text fill="#000000" font-family="sans-serif" font-size="14" lengthAdjust="spacing" textLength="80" x="1092.5" y="1041.1426">+Minutes: int</text><line style="stroke:#181818;stroke-width:0.5;" x1="1087.5" x2="1177.5" y1="1048.2188" y2="1048.2188"/></g><!--class Role--><g id="elem_Role"><rect fill="#F1F1F1" height="48" id="Role" rx="2.5" ry="2.5" style="stroke:#181818;stroke-width:0.5;" width="61" x="110" y="999.6094"/><ellipse cx="125" cy="1015.6094" fill="#ADD1B2" rx="11" ry="11" style="stroke:#181818;stroke-width:1.0;"/><path d="M127.7656,1011.4844 Q127.9219,1011.2656 128.1094,1011.1563 Q128.2969,1011.0469 128.5156,1011.0469 Q128.8906,1011.0469 129.125,1011.3125 Q129.3594,1011.5625 129.3594,1012.1719 L129.3594,1013.625 Q129.3594,1014.2344 129.125,1014.5 Q128.8906,1014.7656 128.5156,1014.7656 Q128.1719,1014.7656 127.9688,1014.5625 Q127.7656,1014.375 127.6563,1013.8594 Q127.6094,1013.5 127.4219,1013.3125 Q127.0938,1012.9375 126.4844,1012.7188 Q125.875,1012.5 125.25,1012.5 Q124.4844,1012.5 123.8438,1012.8281 Q123.2188,1013.1563 122.7188,1013.9063 Q122.2344,1014.6563 122.2344,1015.6875 L122.2344,1016.7813 Q122.2344,1018.0156 123.125,1018.8438 Q124.0156,1019.6563 125.6094,1019.6563 Q126.5469,1019.6563 127.2031,1019.4063 Q127.5938,1019.25 128.0156,1018.8125 Q128.2813,1018.5469 128.4219,1018.4688 Q128.5781,1018.3906 128.7813,1018.3906 Q129.1094,1018.3906 129.3594,1018.6563 Q129.625,1018.9063 129.625,1019.25 Q129.625,1019.5938 129.2813,1020 Q128.7813,1020.5781 127.9844,1020.9063 Q126.9063,1021.3594 125.6094,1021.3594 Q124.0938,1021.3594 122.8906,1020.7344 Q121.9063,1020.2344 121.2188,1019.1719 Q120.5313,1018.0938 120.5313,1016.8125 L120.5313,1015.6563 Q120.5313,1014.3281 121.1406,1013.1875 Q121.7656,1012.0313 122.8594,1011.4219 Q123.9531,1010.7969 125.1875,1010.7969 Q125.9219,1010.7969 126.5625,1010.9688 Q127.2188,1011.125 127.7656,1011.4844 Z " fill="#000000"/><text fill="#000000" font-family="sans-serif" font-size="14" lengthAdjust="spacing" textLength="29" x="139" y="1021.3379">Role</text><line style="stroke:#181818;stroke-width:0.5;" x1="111" x2="170" y1="1031.6094" y2="1031.6094"/><line style="stroke:#181818;stroke-width:0.5;" x1="111" x2="170" y1="1039.6094" y2="1039.6094"/></g><!--link Quantity to GMN12--><g id="link_Quantity_GMN12"><path d="M254.5,1056.7694 C254.5,1066.5094 254.5,1074.6094 254.5,1074.6094 C254.5,1074.6094 653.5,1074.6094 653.5,1074.6094 C653.5,1074.6094 653.5,1051.8494 653.5,1036.7394 " fill="none" id="Quantity-GMN12" style="stroke:#181818;stroke-width:1.0;stroke-dasharray:7.0,7.0;"/></g><!--link OperationTypeController to OperationTypeService--><g id="link_OperationTypeController_OperationTypeService"><path codeLine="97" d="M692.25,111.9694 C692.25,129.4494 692.25,145.3694 692.25,165.5994 " fill="none" id="OperationTypeController-to-OperationTypeService" style="stroke:#181818;stroke-width:1.0;stroke-dasharray:7.0,7.0;"/><polygon fill="#181818" points="692.25,171.5994,696.25,162.5994,692.25,166.5994,688.25,162.5994,692.25,171.5994" style="stroke:#181818;stroke-width:1.0;"/><polygon fill="#000000" points="654.25,137.9652,657.1889,128.9201,651.3111,128.9201,654.25,137.9652" style="stroke:#000000;stroke-width:1.0;"/><text fill="#000000" font-family="sans-serif" font-size="13" lengthAdjust="spacing" textLength="28" x="663.25" y="138.2845">uses</text></g><!--link OperationTypeController to OperationTypeDto--><g id="link_OperationTypeController_OperationTypeDto"><path codeLine="98" d="M907.25,111.7194 C907.25,200.4594 907.25,439.4394 907.25,565.4894 " fill="none" id="OperationTypeController-to-OperationTypeDto" style="stroke:#181818;stroke-width:1.0;"/><polygon fill="#181818" points="907.25,571.4894,911.25,562.4894,907.25,566.4894,903.25,562.4894,907.25,571.4894" style="stroke:#181818;stroke-width:1.0;"/><polygon fill="#000000" points="857.25,337.7752,860.1889,328.7301,854.3111,328.7301,857.25,337.7752" style="stroke:#000000;stroke-width:1.0;"/><text fill="#000000" font-family="sans-serif" font-size="13" lengthAdjust="spacing" textLength="40" x="866.25" y="338.0945">returns</text></g><!--link OperationTypeService to IOperationTypeRepository--><g id="link_OperationTypeService_IOperationTypeRepository"><path codeLine="100" d="M422,289.8794 C422,309.0994 422,324.3994 422,343.5994 " fill="none" id="OperationTypeService-to-IOperationTypeRepository" style="stroke:#181818;stroke-width:1.0;"/><polygon fill="#181818" points="422,349.5994,426,340.5994,422,344.5994,418,340.5994,422,349.5994" style="stroke:#181818;stroke-width:1.0;"/><polygon fill="#000000" points="384,315.9152,386.9389,306.8701,381.0611,306.8701,384,315.9152" style="stroke:#000000;stroke-width:1.0;"/><text fill="#000000" font-family="sans-serif" font-size="13" lengthAdjust="spacing" textLength="28" x="393" y="316.2345">uses</text></g><!--link OperationTypeService to OperationType--><g id="link_OperationTypeService_OperationType"><path codeLine="101" d="M596.75,289.6094 C596.75,351.1594 596.75,443.3894 596.75,521.5494 " fill="none" id="OperationTypeService-to-OperationType" style="stroke:#181818;stroke-width:1.0;"/><polygon fill="#181818" points="596.75,527.5494,600.75,518.5494,596.75,522.5494,592.75,518.5494,596.75,527.5494" style="stroke:#181818;stroke-width:1.0;"/><polygon fill="#000000" points="601.75,404.7552,604.6889,395.7101,598.8111,395.7101,601.75,404.7552" style="stroke:#000000;stroke-width:1.0;"/><text fill="#000000" font-family="sans-serif" font-size="13" lengthAdjust="spacing" textLength="46" x="610.75" y="405.0745">updates</text></g><!--link OperationTypeService to OperationTypeDto--><g id="link_OperationTypeService_OperationTypeDto"><path codeLine="102" d="M795.25,289.6094 C795.25,363.4294 795.25,483.9994 795.25,565.4394 " fill="none" id="OperationTypeService-to-OperationTypeDto" style="stroke:#181818;stroke-width:1.0;"/><polygon fill="#181818" points="795.25,571.4394,799.25,562.4394,795.25,566.4394,791.25,562.4394,795.25,571.4394" style="stroke:#181818;stroke-width:1.0;"/><polygon fill="#000000" points="742.25,426.7052,745.1889,417.6601,739.3111,417.6601,742.25,426.7052" style="stroke:#000000;stroke-width:1.0;"/><text fill="#000000" font-family="sans-serif" font-size="13" lengthAdjust="spacing" textLength="43" x="751.25" y="427.0245">creates</text></g><!--link IOperationTypeRepository to OperationType--><g id="link_IOperationTypeRepository_OperationType"><path codeLine="104" d="M384.75,467.6294 C384.75,485.8094 384.75,500.5394 384.75,521.3094 " fill="none" id="IOperationTypeRepository-to-OperationType" style="stroke:#181818;stroke-width:1.0;"/><polygon fill="#181818" points="384.75,527.3094,388.75,518.3094,384.75,522.3094,380.75,518.3094,384.75,527.3094" style="stroke:#181818;stroke-width:1.0;"/><polygon fill="#000000" points="270.75,493.6452,273.6889,484.6001,267.8111,484.6001,270.75,493.6452" style="stroke:#000000;stroke-width:1.0;"/><text fill="#000000" font-family="sans-serif" font-size="13" lengthAdjust="spacing" textLength="104" x="279.75" y="493.9645">saves in database</text></g><!--link OperationType to RequiredStaff--><g id="link_OperationType_RequiredStaff"><path codeLine="109" d="M290.5,769.7794 C290.5,790.8994 290.5,805.7694 290.5,823.5794 " fill="none" id="OperationType-to-RequiredStaff" style="stroke:#181818;stroke-width:1.0;"/><polygon fill="#181818" points="290.5,829.5794,294.5,820.5794,290.5,824.5794,286.5,820.5794,290.5,829.5794" style="stroke:#181818;stroke-width:1.0;"/><polygon fill="#000000" points="259.5,795.8552,262.4389,786.8101,256.5611,786.8101,259.5,795.8552" style="stroke:#000000;stroke-width:1.0;"/><text fill="#000000" font-family="sans-serif" font-size="13" lengthAdjust="spacing" textLength="21" x="268.5" y="796.1745">has</text></g><!--link OperationType to PhasesDuration--><g id="link_OperationType_PhasesDuration"><path codeLine="110" d="M627.75,747.6094 C738.63,747.6094 851.5,747.6094 851.5,747.6094 C851.5,747.6094 851.5,801.7694 851.5,841.0194 " fill="none" id="OperationType-to-PhasesDuration" style="stroke:#181818;stroke-width:1.0;"/><polygon fill="#181818" points="851.5,847.0194,855.5,838.0194,851.5,842.0194,847.5,838.0194,851.5,847.0194" style="stroke:#181818;stroke-width:1.0;"/><polygon fill="#000000" points="762.9441,740.7114,755.7294,734.5147,753.4649,739.9389,762.9441,740.7114" style="stroke:#000000;stroke-width:1.0;"/><text fill="#000000" font-family="sans-serif" font-size="13" lengthAdjust="spacing" textLength="21" x="767.33" y="744.1045">has</text></g><!--link OperationTypeDto to RequiredStaff--><g id="link_OperationTypeDto_RequiredStaff"><path codeLine="115" d="M744,725.6194 C744,778.2794 744,838.6094 744,838.6094 C744,838.6094 520.65,838.6094 383.58,838.6094 " fill="none" id="OperationTypeDto-to-RequiredStaff" style="stroke:#181818;stroke-width:1.0;"/><polygon fill="#181818" points="377.58,838.6094,386.58,842.6094,382.58,838.6094,386.58,834.6094,377.58,838.6094" style="stroke:#181818;stroke-width:1.0;"/><polygon fill="#000000" points="537.509,831.2809,547.019,831.3795,545.2607,825.7708,537.509,831.2809" style="stroke:#000000;stroke-width:1.0;"/><text fill="#000000" font-family="sans-serif" font-size="13" lengthAdjust="spacing" textLength="65" x="551.28" y="835.1045">has several</text></g><!--link OperationTypeDto to PhasesDuration--><g id="link_OperationTypeDto_PhasesDuration"><path codeLine="116" d="M911.5,725.6994 C911.5,766.8694 911.5,809.4094 911.5,840.9194 " fill="none" id="OperationTypeDto-to-PhasesDuration" style="stroke:#181818;stroke-width:1.0;"/><polygon fill="#181818" points="911.5,846.9194,915.5,837.9194,911.5,841.9194,907.5,837.9194,911.5,846.9194" style="stroke:#181818;stroke-width:1.0;"/><polygon fill="#000000" points="880.5,782.4852,883.4389,773.4401,877.5611,773.4401,880.5,782.4852" style="stroke:#000000;stroke-width:1.0;"/><text fill="#000000" font-family="sans-serif" font-size="13" lengthAdjust="spacing" textLength="21" x="889.5" y="782.8045">has</text></g><!--link RequiredStaff to Role--><g id="link_RequiredStaff_Role"><path codeLine="118" d="M192,930.6994 C192,972.0194 192,1023.6094 192,1023.6094 C192,1023.6094 188.14,1023.6094 177.05,1023.6094 " fill="none" id="RequiredStaff-to-Role" style="stroke:#181818;stroke-width:1.0;"/><polygon fill="#181818" points="171.05,1023.6094,180.05,1027.6094,176.05,1023.6094,180.05,1019.6094,171.05,1023.6094" style="stroke:#181818;stroke-width:1.0;"/><text fill="#000000" font-family="sans-serif" font-size="13" lengthAdjust="spacing" textLength="21" x="170" y="984.1245">has</text></g><!--link RequiredStaff to Specialization--><g id="link_RequiredStaff_Specialization"><path codeLine="119" d="M357.5,930.6994 C357.5,950.5494 357.5,966.7794 357.5,984.5094 " fill="none" id="RequiredStaff-to-Specialization" style="stroke:#181818;stroke-width:1.0;"/><polygon fill="#181818" points="357.5,990.5094,361.5,981.5094,357.5,985.5094,353.5,981.5094,357.5,990.5094" style="stroke:#181818;stroke-width:1.0;"/><polygon fill="#000000" points="326.5,956.7852,329.4389,947.7401,323.5611,947.7401,326.5,956.7852" style="stroke:#000000;stroke-width:1.0;"/><text fill="#000000" font-family="sans-serif" font-size="13" lengthAdjust="spacing" textLength="21" x="335.5" y="957.1045">has</text></g><!--link RequiredStaff to Quantity--><g id="link_RequiredStaff_Quantity"><path codeLine="120" d="M254.5,930.6994 C254.5,950.5494 254.5,966.7794 254.5,984.5094 " fill="none" id="RequiredStaff-to-Quantity" style="stroke:#181818;stroke-width:1.0;"/><polygon fill="#181818" points="254.5,990.5094,258.5,981.5094,254.5,985.5094,250.5,981.5094,254.5,990.5094" style="stroke:#181818;stroke-width:1.0;"/><polygon fill="#000000" points="223.5,956.7852,226.4389,947.7401,220.5611,947.7401,223.5,956.7852" style="stroke:#000000;stroke-width:1.0;"/><text fill="#000000" font-family="sans-serif" font-size="13" lengthAdjust="spacing" textLength="21" x="232.5" y="957.1045">has</text></g><!--link PhasesDuration to Phase--><g id="link_PhasesDuration_Phase"><path codeLine="122" d="M921.5,913.3894 C921.5,936.5794 921.5,961.3594 921.5,984.5094 " fill="none" id="PhasesDuration-to-Phase" style="stroke:#181818;stroke-width:1.0;"/><polygon fill="#181818" points="921.5,990.5094,925.5,981.5094,921.5,985.5094,917.5,981.5094,921.5,990.5094" style="stroke:#181818;stroke-width:1.0;"/><polygon fill="#000000" points="890.5,948.1252,893.4389,939.0801,887.5611,939.0801,890.5,948.1252" style="stroke:#000000;stroke-width:1.0;"/><text fill="#000000" font-family="sans-serif" font-size="13" lengthAdjust="spacing" textLength="21" x="899.5" y="948.4445">has</text></g><!--link PhasesDuration to Duration--><g id="link_PhasesDuration_Duration"><path codeLine="123" d="M1051.53,880.6094 C1094.95,880.6094 1132.5,880.6094 1132.5,880.6094 C1132.5,880.6094 1132.5,942.1994 1132.5,984.4394 " fill="none" id="PhasesDuration-to-Duration" style="stroke:#181818;stroke-width:1.0;"/><polygon fill="#181818" points="1132.5,990.4394,1136.5,981.4394,1132.5,985.4394,1128.5,981.4394,1132.5,990.4394" style="stroke:#181818;stroke-width:1.0;"/><polygon fill="#000000" points="1104.5747,890.158,1101.33,881.218,1096.6949,884.8326,1104.5747,890.158" style="stroke:#000000;stroke-width:1.0;"/><text fill="#000000" font-family="sans-serif" font-size="13" lengthAdjust="spacing" textLength="21" x="1110.5" y="891.5345">has</text></g><!--SRC=[rLNBZjCm5DtdA-wEGNGGWbqrgXIIQeW4dI7jB5WXDtLRQrmxsCwWWlXthfqu4oVfF40iwA9Ad7FkEVTXMzyoKH953b2IufRiwD8SEGL52qF4ZjD8jm2z9nlvdOaTR0dNtIy59rh7nYYshWpD2YcMx0U5Dnq8PuAQOqb1AhENKSJfre2HeDXkRs33h22J8ZAojCjhQOmyTDOZmmpwIgmIf8piRD2p97q9vt2Jl7dxBegS2xWggIAMiaArH0gZ9ETKmSy8yFVgafgOyxENKrWHVNiHk-WvrHKt5zbSL0Tahpcz2CAaHivci-ZNgCQIgZjMq50WraTHj2eVcJOZ4Ll2- -E276ZD4VWq1VlksGDYXxSiQS48PpySe8wWWxKfX9YdUreQOYhTn7JFK-oBv8z5m38nOQZQ4gnA5W1oMahDZ5J7vvNhpshrhmhrbrKwEKc-9jbc6dx8qlh3eistVbzsz9gL1rEgCJdzLk6-sY1xkvs2CnYiDUbTxuccEgrK4ojyhp797ay9QXs5pRYJRDD5r4xx1HgW0hUFzwVF3x8uKu_cEH8YJFAiVB06dZ_UJjmD_rT7spG2hiyXbnojsl-d6_jS4O47zt4A_Wb5X3IqEVVbDjHoB2i11H4W1J_2cW81xOmevo2L1HuW4rXKIjlh16AjCM4C7r6n0HlTv-55VGhtTl206ZXfBLfiIprKsbWJEqK97cfWS4pmPkjBXTbxmPHgjXDDWJelzwKEMz3mpk5hFNX8Okw68kfuuQ0Jy5XtYb2yiUeO3VKwdr_7URpAhXOJMDxab_FyomIIZ_DuaIqkxtLxYgy-CO5Nj_QLYLxKbxeRJSIyWCwuQhpenGxNEhZUTDzJxEXVLhX96hXpx5hi8N7wAKEpwLMokignhpVvSZw1rJpviCYIBCPFrvZFVB6gGvowu5_Fnk_bASoWmbgU99xZRpRSkfQdgAcKq3rH7nbP9w-tSTMMEL2i2UK6P-p97E-oSAE9Ba-w6PVJv8vgR3YWAbdZ3Dd-XB014LjhgJXnerWtBWy1Ull4GuV0y0mwZUjj80_iYzjQFICP3tye7uzvIaeUEveLQ7g7M3vEEPLW6Ce5T-UZ_JZyTiBa4DWUVArGpq3hgKMC00PsVmC0]--></g></svg>