<?xml version="1.0" encoding="us-ascii" standalone="no"?><svg xmlns="http://www.w3.org/2000/svg" xmlns:xlink="http://www.w3.org/1999/xlink" contentStyleType="text/css" height="1419px" preserveAspectRatio="none" style="width:1809px;height:1419px;background:#FFFFFF;" version="1.1" viewBox="0 0 1809 1419" width="1809px" zoomAndPan="magnify"><defs/><g><text fill="#000000" font-family="sans-serif" font-size="14" font-weight="bold" lengthAdjust="spacing" textLength="222" x="795" y="29.5332">Sequence Diagram (SD) - UC023</text><rect fill="#FFFFFF" height="275.1641" style="stroke:#181818;stroke-width:1.0;" width="10" x="277" y="108.5703"/><rect fill="#FFFFFF" height="242.8125" style="stroke:#181818;stroke-width:1.0;" width="10" x="277" y="439.4375"/><rect fill="#FFFFFF" height="275.1641" style="stroke:#181818;stroke-width:1.0;" width="10" x="277" y="744.9531"/><rect fill="#FFFFFF" height="275.1641" style="stroke:#181818;stroke-width:1.0;" width="10" x="277" y="1082.8203"/><rect fill="#FFFFFF" height="214.4609" style="stroke:#181818;stroke-width:1.0;" width="10" x="526" y="138.9219"/><rect fill="#FFFFFF" height="182.1094" style="stroke:#181818;stroke-width:1.0;" width="10" x="526" y="469.7891"/><rect fill="#FFFFFF" height="214.4609" style="stroke:#181818;stroke-width:1.0;" width="10" x="526" y="775.3047"/><rect fill="#FFFFFF" height="214.4609" style="stroke:#181818;stroke-width:1.0;" width="10" x="526" y="1113.1719"/><rect fill="#FFFFFF" height="30.3516" style="stroke:#181818;stroke-width:1.0;" width="10" x="718.5" y="285.6797"/><rect fill="#FFFFFF" height="30.3516" style="stroke:#181818;stroke-width:1.0;" width="10" x="718.5" y="591.1953"/><rect fill="#FFFFFF" height="30.3516" style="stroke:#181818;stroke-width:1.0;" width="10" x="718.5" y="922.0625"/><rect fill="#FFFFFF" height="30.3516" style="stroke:#181818;stroke-width:1.0;" width="10" x="718.5" y="1259.9297"/><rect fill="#FFFFFF" height="1144.0078" style="stroke:#181818;stroke-width:1.0;" width="10" x="909.5" y="229.9766"/><rect fill="#FFFFFF" height="813.1406" style="stroke:#181818;stroke-width:1.0;" width="10" x="914.5" y="560.8438"/><rect fill="#FFFFFF" height="507.625" style="stroke:#181818;stroke-width:1.0;" width="10" x="919.5" y="866.3594"/><rect fill="#FFFFFF" height="169.7578" style="stroke:#181818;stroke-width:1.0;" width="10" x="924.5" y="1204.2266"/><rect fill="#FFFFFF" height="30.3516" style="stroke:#181818;stroke-width:1.0;" width="10" x="1696" y="169.2734"/><rect fill="#FFFFFF" height="30.3516" style="stroke:#181818;stroke-width:1.0;" width="10" x="1696" y="500.1406"/><rect fill="#FFFFFF" height="30.3516" style="stroke:#181818;stroke-width:1.0;" width="10" x="1696" y="805.6563"/><rect fill="#FFFFFF" height="30.3516" style="stroke:#181818;stroke-width:1.0;" width="10" x="1696" y="1143.5234"/><rect fill="none" height="79.0547" style="stroke:#000000;stroke-width:1.5;" width="998" x="611" y="244.9766"/><rect fill="none" height="291.5156" style="stroke:#000000;stroke-width:1.5;" width="1800" x="3" y="398.7344"/><rect fill="none" height="323.8672" style="stroke:#000000;stroke-width:1.5;" width="1800" x="3" y="704.25"/><rect fill="none" height="79.0547" style="stroke:#000000;stroke-width:1.5;" width="998" x="611" y="881.3594"/><rect fill="none" height="323.8672" style="stroke:#000000;stroke-width:1.5;" width="1800" x="3" y="1042.1172"/><rect fill="none" height="79.0547" style="stroke:#000000;stroke-width:1.5;" width="998" x="611" y="1219.2266"/><line style="stroke:#181818;stroke-width:0.5;stroke-dasharray:5.0,5.0;" x1="281.5" x2="281.5" y1="76.2188" y2="1382.9844"/><line style="stroke:#181818;stroke-width:0.5;stroke-dasharray:5.0,5.0;" x1="531" x2="531" y1="76.2188" y2="1382.9844"/><line style="stroke:#181818;stroke-width:0.5;stroke-dasharray:5.0,5.0;" x1="723" x2="723" y1="76.2188" y2="1382.9844"/><line style="stroke:#181818;stroke-width:0.5;stroke-dasharray:5.0,5.0;" x1="914" x2="914" y1="76.2188" y2="1382.9844"/><line style="stroke:#181818;stroke-width:0.5;stroke-dasharray:5.0,5.0;" x1="1521" x2="1521" y1="76.2188" y2="1382.9844"/><line style="stroke:#181818;stroke-width:0.5;stroke-dasharray:5.0,5.0;" x1="1701" x2="1701" y1="76.2188" y2="1382.9844"/><rect fill="#E2E2F0" height="31.6094" rx="2.5" ry="2.5" style="stroke:#181818;stroke-width:0.5;" width="175" x="194.5" y="43.6094"/><text fill="#000000" font-family="sans-serif" font-size="14" lengthAdjust="spacing" textLength="161" x="201.5" y="65.1426">:OperationTypeController</text><rect fill="#E2E2F0" height="31.6094" rx="2.5" ry="2.5" style="stroke:#181818;stroke-width:0.5;" width="175" x="194.5" y="1381.9844"/><text fill="#000000" font-family="sans-serif" font-size="14" lengthAdjust="spacing" textLength="161" x="201.5" y="1403.5176">:OperationTypeController</text><rect fill="#E2E2F0" height="31.6094" rx="2.5" ry="2.5" style="stroke:#181818;stroke-width:0.5;" width="160" x="451" y="43.6094"/><text fill="#000000" font-family="sans-serif" font-size="14" lengthAdjust="spacing" textLength="146" x="458" y="65.1426">:OperationTypeService</text><rect fill="#E2E2F0" height="31.6094" rx="2.5" ry="2.5" style="stroke:#181818;stroke-width:0.5;" width="160" x="451" y="1381.9844"/><text fill="#000000" font-family="sans-serif" font-size="14" lengthAdjust="spacing" textLength="146" x="458" y="1403.5176">:OperationTypeService</text><rect fill="#E2E2F0" height="31.6094" rx="2.5" ry="2.5" style="stroke:#181818;stroke-width:0.5;" width="205" x="621" y="43.6094"/><text fill="#000000" font-family="sans-serif" font-size="14" lengthAdjust="spacing" textLength="191" x="628" y="65.1426">operationType:OperationType</text><rect fill="#E2E2F0" height="31.6094" rx="2.5" ry="2.5" style="stroke:#181818;stroke-width:0.5;" width="205" x="621" y="1381.9844"/><text fill="#000000" font-family="sans-serif" font-size="14" lengthAdjust="spacing" textLength="191" x="628" y="1403.5176">operationType:OperationType</text><rect fill="#E2E2F0" height="31.6094" rx="2.5" ry="2.5" style="stroke:#181818;stroke-width:0.5;" width="157" x="836" y="43.6094"/><text fill="#000000" font-family="sans-serif" font-size="14" lengthAdjust="spacing" textLength="143" x="843" y="65.1426">OperationTypeMapper</text><rect fill="#E2E2F0" height="31.6094" rx="2.5" ry="2.5" style="stroke:#181818;stroke-width:0.5;" width="157" x="836" y="1381.9844"/><text fill="#000000" font-family="sans-serif" font-size="14" lengthAdjust="spacing" textLength="143" x="843" y="1403.5176">OperationTypeMapper</text><rect fill="#E2E2F0" height="31.6094" rx="2.5" ry="2.5" style="stroke:#181818;stroke-width:0.5;" width="155" x="1444" y="43.6094"/><text fill="#000000" font-family="sans-serif" font-size="14" lengthAdjust="spacing" textLength="141" x="1451" y="65.1426">dto:OperationTypeDto</text><rect fill="#E2E2F0" height="31.6094" rx="2.5" ry="2.5" style="stroke:#181818;stroke-width:0.5;" width="155" x="1444" y="1381.9844"/><text fill="#000000" font-family="sans-serif" font-size="14" lengthAdjust="spacing" textLength="141" x="1451" y="1403.5176">dto:OperationTypeDto</text><rect fill="#E2E2F0" height="31.6094" rx="2.5" ry="2.5" style="stroke:#181818;stroke-width:0.5;" width="184" x="1609" y="43.6094"/><text fill="#000000" font-family="sans-serif" font-size="14" lengthAdjust="spacing" textLength="170" x="1616" y="65.1426">:IOperationTypeRepository</text><rect fill="#E2E2F0" height="31.6094" rx="2.5" ry="2.5" style="stroke:#181818;stroke-width:0.5;" width="184" x="1609" y="1381.9844"/><text fill="#000000" font-family="sans-serif" font-size="14" lengthAdjust="spacing" textLength="170" x="1616" y="1403.5176">:IOperationTypeRepository</text><rect fill="#FFFFFF" height="275.1641" style="stroke:#181818;stroke-width:1.0;" width="10" x="277" y="108.5703"/><rect fill="#FFFFFF" height="242.8125" style="stroke:#181818;stroke-width:1.0;" width="10" x="277" y="439.4375"/><rect fill="#FFFFFF" height="275.1641" style="stroke:#181818;stroke-width:1.0;" width="10" x="277" y="744.9531"/><rect fill="#FFFFFF" height="275.1641" style="stroke:#181818;stroke-width:1.0;" width="10" x="277" y="1082.8203"/><rect fill="#FFFFFF" height="214.4609" style="stroke:#181818;stroke-width:1.0;" width="10" x="526" y="138.9219"/><rect fill="#FFFFFF" height="182.1094" style="stroke:#181818;stroke-width:1.0;" width="10" x="526" y="469.7891"/><rect fill="#FFFFFF" height="214.4609" style="stroke:#181818;stroke-width:1.0;" width="10" x="526" y="775.3047"/><rect fill="#FFFFFF" height="214.4609" style="stroke:#181818;stroke-width:1.0;" width="10" x="526" y="1113.1719"/><rect fill="#FFFFFF" height="30.3516" style="stroke:#181818;stroke-width:1.0;" width="10" x="718.5" y="285.6797"/><rect fill="#FFFFFF" height="30.3516" style="stroke:#181818;stroke-width:1.0;" width="10" x="718.5" y="591.1953"/><rect fill="#FFFFFF" height="30.3516" style="stroke:#181818;stroke-width:1.0;" width="10" x="718.5" y="922.0625"/><rect fill="#FFFFFF" height="30.3516" style="stroke:#181818;stroke-width:1.0;" width="10" x="718.5" y="1259.9297"/><rect fill="#FFFFFF" height="1144.0078" style="stroke:#181818;stroke-width:1.0;" width="10" x="909.5" y="229.9766"/><rect fill="#FFFFFF" height="813.1406" style="stroke:#181818;stroke-width:1.0;" width="10" x="914.5" y="560.8438"/><rect fill="#FFFFFF" height="507.625" style="stroke:#181818;stroke-width:1.0;" width="10" x="919.5" y="866.3594"/><rect fill="#FFFFFF" height="169.7578" style="stroke:#181818;stroke-width:1.0;" width="10" x="924.5" y="1204.2266"/><rect fill="#FFFFFF" height="30.3516" style="stroke:#181818;stroke-width:1.0;" width="10" x="1696" y="169.2734"/><rect fill="#FFFFFF" height="30.3516" style="stroke:#181818;stroke-width:1.0;" width="10" x="1696" y="500.1406"/><rect fill="#FFFFFF" height="30.3516" style="stroke:#181818;stroke-width:1.0;" width="10" x="1696" y="805.6563"/><rect fill="#FFFFFF" height="30.3516" style="stroke:#181818;stroke-width:1.0;" width="10" x="1696" y="1143.5234"/><polygon fill="#181818" points="265,104.5703,275,108.5703,265,112.5703,269,108.5703" style="stroke:#181818;stroke-width:1.0;"/><line style="stroke:#181818;stroke-width:1.0;" x1="0" x2="271" y1="108.5703" y2="108.5703"/><text fill="#000000" font-family="sans-serif" font-size="13" lengthAdjust="spacing" textLength="133" x="7" y="103.7139">GET /api/operationtype</text><polygon fill="#181818" points="514,134.9219,524,138.9219,514,142.9219,518,138.9219" style="stroke:#181818;stroke-width:1.0;"/><line style="stroke:#181818;stroke-width:1.0;" x1="287" x2="520" y1="138.9219" y2="138.9219"/><text fill="#000000" font-family="sans-serif" font-size="13" lengthAdjust="spacing" textLength="44" x="294" y="134.0654">GetAll()</text><polygon fill="#181818" points="1684,165.2734,1694,169.2734,1684,173.2734,1688,169.2734" style="stroke:#181818;stroke-width:1.0;"/><line style="stroke:#181818;stroke-width:1.0;" x1="536" x2="1690" y1="169.2734" y2="169.2734"/><text fill="#000000" font-family="sans-serif" font-size="13" lengthAdjust="spacing" textLength="81" x="543" y="164.417">GetAllAsync()</text><polygon fill="#181818" points="547,195.625,537,199.625,547,203.625,543,199.625" style="stroke:#181818;stroke-width:1.0;"/><line style="stroke:#181818;stroke-width:1.0;stroke-dasharray:2.0,2.0;" x1="541" x2="1700" y1="199.625" y2="199.625"/><text fill="#000000" font-family="sans-serif" font-size="13" lengthAdjust="spacing" textLength="88" x="553" y="194.7686">operationTypes</text><polygon fill="#181818" points="897.5,225.9766,907.5,229.9766,897.5,233.9766,901.5,229.9766" style="stroke:#181818;stroke-width:1.0;"/><line style="stroke:#181818;stroke-width:1.0;" x1="536" x2="903.5" y1="229.9766" y2="229.9766"/><text fill="#000000" font-family="sans-serif" font-size="13" lengthAdjust="spacing" textLength="151" x="543" y="225.1201">ToDtoList(operationTypes)</text><path d="M611,244.9766 L684,244.9766 L684,253.3281 L674,263.3281 L611,263.3281 L611,244.9766 " fill="#EEEEEE" style="stroke:#000000;stroke-width:1.5;"/><rect fill="none" height="79.0547" style="stroke:#000000;stroke-width:1.5;" width="998" x="611" y="244.9766"/><text fill="#000000" font-family="sans-serif" font-size="13" font-weight="bold" lengthAdjust="spacing" textLength="28" x="626" y="259.4717">loop</text><text fill="#000000" font-family="sans-serif" font-size="11" font-weight="bold" lengthAdjust="spacing" textLength="303" x="699" y="258.3955">[for each instance of operationType in operationTypes]</text><polygon fill="#181818" points="1509.5,281.6797,1519.5,285.6797,1509.5,289.6797,1513.5,285.6797" style="stroke:#181818;stroke-width:1.0;"/><line style="stroke:#181818;stroke-width:1.0;" x1="919.5" x2="1515.5" y1="285.6797" y2="285.6797"/><text fill="#000000" font-family="sans-serif" font-size="13" lengthAdjust="spacing" textLength="563" x="926.5" y="280.8232">new OperationTypeDto(operationType.Name, operationType.Specialization, operationType.Status)</text><polygon fill="#181818" points="897.5,312.0313,907.5,316.0313,897.5,320.0313,901.5,316.0313" style="stroke:#181818;stroke-width:1.0;"/><line style="stroke:#181818;stroke-width:1.0;stroke-dasharray:2.0,2.0;" x1="723.5" x2="903.5" y1="316.0313" y2="316.0313"/><text fill="#000000" font-family="sans-serif" font-size="13" lengthAdjust="spacing" textLength="18" x="730.5" y="311.1748">dto</text><polygon fill="#181818" points="542,349.3828,532,353.3828,542,357.3828,538,353.3828" style="stroke:#181818;stroke-width:1.0;"/><line style="stroke:#181818;stroke-width:1.0;stroke-dasharray:2.0,2.0;" x1="536" x2="908.5" y1="353.3828" y2="353.3828"/><text fill="#000000" font-family="sans-serif" font-size="13" lengthAdjust="spacing" textLength="39" x="548" y="348.5264">dtoList</text><polygon fill="#181818" points="11,379.7344,1,383.7344,11,387.7344,7,383.7344" style="stroke:#181818;stroke-width:1.0;"/><line style="stroke:#181818;stroke-width:1.0;stroke-dasharray:2.0,2.0;" x1="5" x2="281" y1="383.7344" y2="383.7344"/><text fill="#000000" font-family="sans-serif" font-size="13" lengthAdjust="spacing" textLength="91" x="17" y="378.8779">200 OK, dtoList</text><path d="M3,398.7344 L68,398.7344 L68,407.0859 L58,417.0859 L3,417.0859 L3,398.7344 " fill="#EEEEEE" style="stroke:#000000;stroke-width:1.5;"/><rect fill="none" height="291.5156" style="stroke:#000000;stroke-width:1.5;" width="1800" x="3" y="398.7344"/><text fill="#000000" font-family="sans-serif" font-size="13" font-weight="bold" lengthAdjust="spacing" textLength="20" x="18" y="413.2295">opt</text><text fill="#000000" font-family="sans-serif" font-size="11" font-weight="bold" lengthAdjust="spacing" textLength="174" x="83" y="412.1533">[Admin wants to filter by name]</text><polygon fill="#181818" points="265,435.4375,275,439.4375,265,443.4375,269,439.4375" style="stroke:#181818;stroke-width:1.0;"/><line style="stroke:#181818;stroke-width:1.0;" x1="0" x2="271" y1="439.4375" y2="439.4375"/><text fill="#000000" font-family="sans-serif" font-size="13" lengthAdjust="spacing" textLength="204" x="7" y="434.5811">GET /api/operationtype?filter=name</text><polygon fill="#181818" points="514,465.7891,524,469.7891,514,473.7891,518,469.7891" style="stroke:#181818;stroke-width:1.0;"/><line style="stroke:#181818;stroke-width:1.0;" x1="287" x2="520" y1="469.7891" y2="469.7891"/><text fill="#000000" font-family="sans-serif" font-size="13" lengthAdjust="spacing" textLength="111" x="294" y="464.9326">GetByName(name)</text><polygon fill="#181818" points="1684,496.1406,1694,500.1406,1684,504.1406,1688,500.1406" style="stroke:#181818;stroke-width:1.0;"/><line style="stroke:#181818;stroke-width:1.0;" x1="536" x2="1690" y1="500.1406" y2="500.1406"/><text fill="#000000" font-family="sans-serif" font-size="13" lengthAdjust="spacing" textLength="148" x="543" y="495.2842">GetByNameAsync(name)</text><polygon fill="#181818" points="547,526.4922,537,530.4922,547,534.4922,543,530.4922" style="stroke:#181818;stroke-width:1.0;"/><line style="stroke:#181818;stroke-width:1.0;stroke-dasharray:2.0,2.0;" x1="541" x2="1700" y1="530.4922" y2="530.4922"/><text fill="#000000" font-family="sans-serif" font-size="13" lengthAdjust="spacing" textLength="81" x="553" y="525.6357">operationType</text><polygon fill="#181818" points="902.5,556.8438,912.5,560.8438,902.5,564.8438,906.5,560.8438" style="stroke:#181818;stroke-width:1.0;"/><line style="stroke:#181818;stroke-width:1.0;" x1="536" x2="908.5" y1="560.8438" y2="560.8438"/><text fill="#000000" font-family="sans-serif" font-size="13" lengthAdjust="spacing" textLength="123" x="543" y="555.9873">ToDto(operationType)</text><polygon fill="#181818" points="1509.5,587.1953,1519.5,591.1953,1509.5,595.1953,1513.5,591.1953" style="stroke:#181818;stroke-width:1.0;"/><line style="stroke:#181818;stroke-width:1.0;" x1="924.5" x2="1515.5" y1="591.1953" y2="591.1953"/><text fill="#000000" font-family="sans-serif" font-size="13" lengthAdjust="spacing" textLength="563" x="931.5" y="586.3389">new OperationTypeDto(operationType.Name, operationType.Specialization, operationType.Status)</text><polygon fill="#181818" points="902.5,617.5469,912.5,621.5469,902.5,625.5469,906.5,621.5469" style="stroke:#181818;stroke-width:1.0;"/><line style="stroke:#181818;stroke-width:1.0;stroke-dasharray:2.0,2.0;" x1="723.5" x2="908.5" y1="621.5469" y2="621.5469"/><text fill="#000000" font-family="sans-serif" font-size="13" lengthAdjust="spacing" textLength="18" x="730.5" y="616.6904">dto</text><polygon fill="#181818" points="542,647.8984,532,651.8984,542,655.8984,538,651.8984" style="stroke:#181818;stroke-width:1.0;"/><line style="stroke:#181818;stroke-width:1.0;stroke-dasharray:2.0,2.0;" x1="536" x2="913.5" y1="651.8984" y2="651.8984"/><text fill="#000000" font-family="sans-serif" font-size="13" lengthAdjust="spacing" textLength="18" x="548" y="647.042">dto</text><polygon fill="#181818" points="11,678.25,1,682.25,11,686.25,7,682.25" style="stroke:#181818;stroke-width:1.0;"/><line style="stroke:#181818;stroke-width:1.0;stroke-dasharray:2.0,2.0;" x1="5" x2="281" y1="682.25" y2="682.25"/><text fill="#000000" font-family="sans-serif" font-size="13" lengthAdjust="spacing" textLength="70" x="17" y="677.3936">200 OK, dto</text><path d="M3,704.25 L68,704.25 L68,712.6016 L58,722.6016 L3,722.6016 L3,704.25 " fill="#EEEEEE" style="stroke:#000000;stroke-width:1.5;"/><rect fill="none" height="323.8672" style="stroke:#000000;stroke-width:1.5;" width="1800" x="3" y="704.25"/><text fill="#000000" font-family="sans-serif" font-size="13" font-weight="bold" lengthAdjust="spacing" textLength="20" x="18" y="718.7451">opt</text><text fill="#000000" font-family="sans-serif" font-size="11" font-weight="bold" lengthAdjust="spacing" textLength="218" x="83" y="717.6689">[Admin wants to filter by Specialization]</text><polygon fill="#181818" points="265,740.9531,275,744.9531,265,748.9531,269,744.9531" style="stroke:#181818;stroke-width:1.0;"/><line style="stroke:#181818;stroke-width:1.0;" x1="0" x2="271" y1="744.9531" y2="744.9531"/><text fill="#000000" font-family="sans-serif" font-size="13" lengthAdjust="spacing" textLength="251" x="7" y="740.0967">GET /api/operationtype?filter=specialization</text><polygon fill="#181818" points="514,771.3047,524,775.3047,514,779.3047,518,775.3047" style="stroke:#181818;stroke-width:1.0;"/><line style="stroke:#181818;stroke-width:1.0;" x1="287" x2="520" y1="775.3047" y2="775.3047"/><text fill="#000000" font-family="sans-serif" font-size="13" lengthAdjust="spacing" textLength="220" x="294" y="770.4482">GetAllBySpecialization(specialization)</text><polygon fill="#181818" points="1684,801.6563,1694,805.6563,1684,809.6563,1688,805.6563" style="stroke:#181818;stroke-width:1.0;"/><line style="stroke:#181818;stroke-width:1.0;" x1="536" x2="1690" y1="805.6563" y2="805.6563"/><text fill="#000000" font-family="sans-serif" font-size="13" lengthAdjust="spacing" textLength="257" x="543" y="800.7998">GetAllBySpecializationAsync(specialization)</text><polygon fill="#181818" points="547,832.0078,537,836.0078,547,840.0078,543,836.0078" style="stroke:#181818;stroke-width:1.0;"/><line style="stroke:#181818;stroke-width:1.0;stroke-dasharray:2.0,2.0;" x1="541" x2="1700" y1="836.0078" y2="836.0078"/><text fill="#000000" font-family="sans-serif" font-size="13" lengthAdjust="spacing" textLength="88" x="553" y="831.1514">operationTypes</text><polygon fill="#181818" points="907.5,862.3594,917.5,866.3594,907.5,870.3594,911.5,866.3594" style="stroke:#181818;stroke-width:1.0;"/><line style="stroke:#181818;stroke-width:1.0;" x1="536" x2="913.5" y1="866.3594" y2="866.3594"/><text fill="#000000" font-family="sans-serif" font-size="13" lengthAdjust="spacing" textLength="151" x="543" y="861.5029">ToDtoList(operationTypes)</text><path d="M611,881.3594 L684,881.3594 L684,889.7109 L674,899.7109 L611,899.7109 L611,881.3594 " fill="#EEEEEE" style="stroke:#000000;stroke-width:1.5;"/><rect fill="none" height="79.0547" style="stroke:#000000;stroke-width:1.5;" width="998" x="611" y="881.3594"/><text fill="#000000" font-family="sans-serif" font-size="13" font-weight="bold" lengthAdjust="spacing" textLength="28" x="626" y="895.8545">loop</text><text fill="#000000" font-family="sans-serif" font-size="11" font-weight="bold" lengthAdjust="spacing" textLength="303" x="699" y="894.7783">[for each instance of operationType in operationTypes]</text><polygon fill="#181818" points="1509.5,918.0625,1519.5,922.0625,1509.5,926.0625,1513.5,922.0625" style="stroke:#181818;stroke-width:1.0;"/><line style="stroke:#181818;stroke-width:1.0;" x1="929.5" x2="1515.5" y1="922.0625" y2="922.0625"/><text fill="#000000" font-family="sans-serif" font-size="13" lengthAdjust="spacing" textLength="563" x="936.5" y="917.2061">new OperationTypeDto(operationType.Name, operationType.Specialization, operationType.Status)</text><polygon fill="#181818" points="907.5,948.4141,917.5,952.4141,907.5,956.4141,911.5,952.4141" style="stroke:#181818;stroke-width:1.0;"/><line style="stroke:#181818;stroke-width:1.0;stroke-dasharray:2.0,2.0;" x1="723.5" x2="913.5" y1="952.4141" y2="952.4141"/><text fill="#000000" font-family="sans-serif" font-size="13" lengthAdjust="spacing" textLength="18" x="730.5" y="947.5576">dto</text><polygon fill="#181818" points="542,985.7656,532,989.7656,542,993.7656,538,989.7656" style="stroke:#181818;stroke-width:1.0;"/><line style="stroke:#181818;stroke-width:1.0;stroke-dasharray:2.0,2.0;" x1="536" x2="918.5" y1="989.7656" y2="989.7656"/><text fill="#000000" font-family="sans-serif" font-size="13" lengthAdjust="spacing" textLength="39" x="548" y="984.9092">dtoList</text><polygon fill="#181818" points="11,1016.1172,1,1020.1172,11,1024.1172,7,1020.1172" style="stroke:#181818;stroke-width:1.0;"/><line style="stroke:#181818;stroke-width:1.0;stroke-dasharray:2.0,2.0;" x1="5" x2="281" y1="1020.1172" y2="1020.1172"/><text fill="#000000" font-family="sans-serif" font-size="13" lengthAdjust="spacing" textLength="91" x="17" y="1015.2607">200 OK, dtoList</text><path d="M3,1042.1172 L68,1042.1172 L68,1050.4688 L58,1060.4688 L3,1060.4688 L3,1042.1172 " fill="#EEEEEE" style="stroke:#000000;stroke-width:1.5;"/><rect fill="none" height="323.8672" style="stroke:#000000;stroke-width:1.5;" width="1800" x="3" y="1042.1172"/><text fill="#000000" font-family="sans-serif" font-size="13" font-weight="bold" lengthAdjust="spacing" textLength="20" x="18" y="1056.6123">opt</text><text fill="#000000" font-family="sans-serif" font-size="11" font-weight="bold" lengthAdjust="spacing" textLength="178" x="83" y="1055.5361">[Admin wants to filter by Status]</text><polygon fill="#181818" points="265,1078.8203,275,1082.8203,265,1086.8203,269,1082.8203" style="stroke:#181818;stroke-width:1.0;"/><line style="stroke:#181818;stroke-width:1.0;" x1="0" x2="271" y1="1082.8203" y2="1082.8203"/><text fill="#000000" font-family="sans-serif" font-size="13" lengthAdjust="spacing" textLength="208" x="7" y="1077.9639">GET /api/operationtype?filter=status</text><polygon fill="#181818" points="514,1109.1719,524,1113.1719,514,1117.1719,518,1113.1719" style="stroke:#181818;stroke-width:1.0;"/><line style="stroke:#181818;stroke-width:1.0;" x1="287" x2="520" y1="1113.1719" y2="1113.1719"/><text fill="#000000" font-family="sans-serif" font-size="13" lengthAdjust="spacing" textLength="134" x="294" y="1108.3154">GetAllByStatus(status)</text><polygon fill="#181818" points="1684,1139.5234,1694,1143.5234,1684,1147.5234,1688,1143.5234" style="stroke:#181818;stroke-width:1.0;"/><line style="stroke:#181818;stroke-width:1.0;" x1="536" x2="1690" y1="1143.5234" y2="1143.5234"/><text fill="#000000" font-family="sans-serif" font-size="13" lengthAdjust="spacing" textLength="171" x="543" y="1138.667">GetAllByStatusAsync(status)</text><polygon fill="#181818" points="547,1169.875,537,1173.875,547,1177.875,543,1173.875" style="stroke:#181818;stroke-width:1.0;"/><line style="stroke:#181818;stroke-width:1.0;stroke-dasharray:2.0,2.0;" x1="541" x2="1700" y1="1173.875" y2="1173.875"/><text fill="#000000" font-family="sans-serif" font-size="13" lengthAdjust="spacing" textLength="88" x="553" y="1169.0186">operationTypes</text><polygon fill="#181818" points="912.5,1200.2266,922.5,1204.2266,912.5,1208.2266,916.5,1204.2266" style="stroke:#181818;stroke-width:1.0;"/><line style="stroke:#181818;stroke-width:1.0;" x1="536" x2="918.5" y1="1204.2266" y2="1204.2266"/><text fill="#000000" font-family="sans-serif" font-size="13" lengthAdjust="spacing" textLength="151" x="543" y="1199.3701">ToDtoList(operationTypes)</text><path d="M611,1219.2266 L684,1219.2266 L684,1227.5781 L674,1237.5781 L611,1237.5781 L611,1219.2266 " fill="#EEEEEE" style="stroke:#000000;stroke-width:1.5;"/><rect fill="none" height="79.0547" style="stroke:#000000;stroke-width:1.5;" width="998" x="611" y="1219.2266"/><text fill="#000000" font-family="sans-serif" font-size="13" font-weight="bold" lengthAdjust="spacing" textLength="28" x="626" y="1233.7217">loop</text><text fill="#000000" font-family="sans-serif" font-size="11" font-weight="bold" lengthAdjust="spacing" textLength="303" x="699" y="1232.6455">[for each instance of operationType in operationTypes]</text><polygon fill="#181818" points="1509.5,1255.9297,1519.5,1259.9297,1509.5,1263.9297,1513.5,1259.9297" style="stroke:#181818;stroke-width:1.0;"/><line style="stroke:#181818;stroke-width:1.0;" x1="934.5" x2="1515.5" y1="1259.9297" y2="1259.9297"/><text fill="#000000" font-family="sans-serif" font-size="13" lengthAdjust="spacing" textLength="563" x="941.5" y="1255.0732">new OperationTypeDto(operationType.Name, operationType.Specialization, operationType.Status)</text><polygon fill="#181818" points="912.5,1286.2813,922.5,1290.2813,912.5,1294.2813,916.5,1290.2813" style="stroke:#181818;stroke-width:1.0;"/><line style="stroke:#181818;stroke-width:1.0;stroke-dasharray:2.0,2.0;" x1="723.5" x2="918.5" y1="1290.2813" y2="1290.2813"/><text fill="#000000" font-family="sans-serif" font-size="13" lengthAdjust="spacing" textLength="18" x="730.5" y="1285.4248">dto</text><polygon fill="#181818" points="542,1323.6328,532,1327.6328,542,1331.6328,538,1327.6328" style="stroke:#181818;stroke-width:1.0;"/><line style="stroke:#181818;stroke-width:1.0;stroke-dasharray:2.0,2.0;" x1="536" x2="923.5" y1="1327.6328" y2="1327.6328"/><text fill="#000000" font-family="sans-serif" font-size="13" lengthAdjust="spacing" textLength="39" x="548" y="1322.7764">dtoList</text><polygon fill="#181818" points="11,1353.9844,1,1357.9844,11,1361.9844,7,1357.9844" style="stroke:#181818;stroke-width:1.0;"/><line style="stroke:#181818;stroke-width:1.0;stroke-dasharray:2.0,2.0;" x1="5" x2="281" y1="1357.9844" y2="1357.9844"/><text fill="#000000" font-family="sans-serif" font-size="13" lengthAdjust="spacing" textLength="91" x="17" y="1353.1279">200 OK, dtoList</text><!--SRC=[xPNRRjim38Rl_HH4hroWQOFkBjW1QJCCmGu5blG1L5j9XIgIPZ4DtAUVBDc951_c9W4sODML9P6_A9AVfP-OK2GZAr0aUI9BEiESKyXeWaGiEOtqra0_abHkc5Z2Wd3jxt0cAEQAWf8yBoRUNiA9rcF4Z3siaKuJAMRiXS8mYf2XEMb6VwsfI2XC65aM3l5iSWu3kByTNh-B8YE2B66A28IpqPsY6K4cnToSTYi5Pf9pcfq1qR2RTZdDQFRC4cezok_GNFhMeQzrciWLOIBq2Qo-4wNAaDndQ9kY35KdA9qmoht0fu7TJwgaPYYpt9fFYtaK3Jvw5n_1byzpk2AANMslKTGbYaY2x9aWzRCKWHcxEHYfCYD6X-AOy_ZS6MszgupPrMAK2uMl3QZo7EjS99Lx85763TwmIp3mpm-ge7VcAMqJyY9nQH_1N9gSVcCQur2kAQooL45SN4e52vc1EVGHcD062NE2N8JXcPtMUAlXv8lWJ4WZ47G3-qqG1ddvWwpeHQXxELCqOOIp5xjKsqM2Q_zojKkMlLipA8RRirMeycTQjMxhLQ19ZeeqNAXkxbStTMLnXfvWq5xl1uEWjQ-7GxZxUh5pzXpzhfOAOPokp5qs1YCDA671E9eO7d8G9gjElXSudvpdXvrRAqZTCDtaHJtZGgUf-sfSjRBbX1nUUsf_mgmFQg57EsrTn8MDt1PW4t3_5IaTS3J-xsezqW58ZIolMosXdP24oJi05zqWS20uvYsvoSE0ub3-E9uQz1rShOUS0ZDz2iwwNxPUi9tmXVlhxFRczpKCz-IuzkhrUlcE0Bpn-NmTv3QFXy3jEHu5jTM9zNuz3uRO2fNmDZN96xHlqFxpqFu6]--></g></svg>