<?xml version="1.0" encoding="us-ascii" standalone="no"?><svg xmlns="http://www.w3.org/2000/svg" xmlns:xlink="http://www.w3.org/1999/xlink" contentStyleType="text/css" height="461px" preserveAspectRatio="none" style="width:542px;height:461px;background:#FFFFFF;" version="1.1" viewBox="0 0 542 461" width="542px" zoomAndPan="magnify"><defs/><g><text fill="#000000" font-family="sans-serif" font-size="14" font-weight="bold" lengthAdjust="spacing" textLength="285" x="128" y="29.5332">System Sequence Diagram (SSD) - UC018</text><rect fill="#FFFFFF" height="230.1094" style="stroke:#181818;stroke-width:1.0;" width="10" x="24" y="131.2188"/><rect fill="#FFFFFF" height="216.7578" style="stroke:#181818;stroke-width:1.0;" width="10" x="285" y="153.5703"/><rect fill="#FFFFFF" height="35.3516" style="stroke:#181818;stroke-width:1.0;" width="10" x="290" y="191.9219"/><rect fill="#FFFFFF" height="103.7031" style="stroke:#181818;stroke-width:1.0;" width="10" x="290" y="257.625"/><rect fill="#FFFFFF" height="28" style="stroke:#181818;stroke-width:1.0;" width="10" x="295" y="295.9766"/><line style="stroke:#181818;stroke-width:0.5;stroke-dasharray:5.0,5.0;" x1="29" x2="29" y1="121.2188" y2="379.3281"/><line style="stroke:#181818;stroke-width:0.5;stroke-dasharray:5.0,5.0;" x1="290" x2="290" y1="121.2188" y2="379.3281"/><text fill="#000000" font-family="sans-serif" font-size="14" lengthAdjust="spacing" textLength="42" x="5" y="118.1426">Doctor</text><ellipse cx="29" cy="52.1094" fill="#E3E3E3" rx="8" ry="8" style="stroke:#181818;stroke-width:0.5;"/><path d="M29,60.1094 L29,87.1094 M16,68.1094 L42,68.1094 M29,87.1094 L16,102.1094 M29,87.1094 L42,102.1094 " fill="none" style="stroke:#181818;stroke-width:0.5;"/><text fill="#000000" font-family="sans-serif" font-size="14" lengthAdjust="spacing" textLength="42" x="5" y="392.8613">Doctor</text><ellipse cx="29" cy="404.4375" fill="#E3E3E3" rx="8" ry="8" style="stroke:#181818;stroke-width:0.5;"/><path d="M29,412.4375 L29,439.4375 M16,420.4375 L42,420.4375 M29,439.4375 L16,454.4375 M29,439.4375 L42,454.4375 " fill="none" style="stroke:#181818;stroke-width:0.5;"/><rect fill="#E3E3E3" height="31.6094" rx="2.5" ry="2.5" style="stroke:#181818;stroke-width:0.5;" width="64" x="258" y="88.6094"/><text fill="#000000" font-family="sans-serif" font-size="14" lengthAdjust="spacing" textLength="50" x="265" y="110.1426">:System</text><rect fill="#E3E3E3" height="31.6094" rx="2.5" ry="2.5" style="stroke:#181818;stroke-width:0.5;" width="64" x="258" y="378.3281"/><text fill="#000000" font-family="sans-serif" font-size="14" lengthAdjust="spacing" textLength="50" x="265" y="399.8613">:System</text><rect fill="#FFFFFF" height="230.1094" style="stroke:#181818;stroke-width:1.0;" width="10" x="24" y="131.2188"/><rect fill="#FFFFFF" height="216.7578" style="stroke:#181818;stroke-width:1.0;" width="10" x="285" y="153.5703"/><rect fill="#FFFFFF" height="35.3516" style="stroke:#181818;stroke-width:1.0;" width="10" x="290" y="191.9219"/><rect fill="#FFFFFF" height="103.7031" style="stroke:#181818;stroke-width:1.0;" width="10" x="290" y="257.625"/><rect fill="#FFFFFF" height="28" style="stroke:#181818;stroke-width:1.0;" width="10" x="295" y="295.9766"/><polygon fill="#181818" points="273,149.5703,283,153.5703,273,157.5703,277,153.5703" style="stroke:#181818;stroke-width:1.0;"/><line style="stroke:#181818;stroke-width:1.0;" x1="34" x2="279" y1="153.5703" y2="153.5703"/><text fill="#000000" font-family="sans-serif" font-size="13" lengthAdjust="spacing" textLength="232" x="41" y="148.7139">Requests to delete a Operation Request</text><line style="stroke:#181818;stroke-width:1.0;" x1="295" x2="342" y1="178.9219" y2="178.9219"/><line style="stroke:#181818;stroke-width:1.0;" x1="342" x2="342" y1="178.9219" y2="191.9219"/><line style="stroke:#181818;stroke-width:1.0;" x1="301" x2="342" y1="191.9219" y2="191.9219"/><polygon fill="#181818" points="311,187.9219,301,191.9219,311,195.9219,307,191.9219" style="stroke:#181818;stroke-width:1.0;"/><text fill="#000000" font-family="sans-serif" font-size="13" lengthAdjust="spacing" textLength="205" x="307" y="174.0654">Obtains doctor's operation requests</text><polygon fill="#181818" points="45,223.2734,35,227.2734,45,231.2734,41,227.2734" style="stroke:#181818;stroke-width:1.0;"/><line style="stroke:#181818;stroke-width:1.0;stroke-dasharray:2.0,2.0;" x1="39" x2="284" y1="227.2734" y2="227.2734"/><text fill="#000000" font-family="sans-serif" font-size="13" lengthAdjust="spacing" textLength="154" x="51" y="222.417">Display operation requests</text><polygon fill="#181818" points="278,253.625,288,257.625,278,261.625,282,257.625" style="stroke:#181818;stroke-width:1.0;"/><line style="stroke:#181818;stroke-width:1.0;" x1="34" x2="284" y1="257.625" y2="257.625"/><text fill="#000000" font-family="sans-serif" font-size="13" lengthAdjust="spacing" textLength="220" x="41" y="252.7686">Selects an operation request to delete</text><line style="stroke:#181818;stroke-width:1.0;" x1="305" x2="347" y1="287.9766" y2="287.9766"/><line style="stroke:#181818;stroke-width:1.0;" x1="347" x2="347" y1="287.9766" y2="300.9766"/><line style="stroke:#181818;stroke-width:1.0;" x1="306" x2="347" y1="300.9766" y2="300.9766"/><polygon fill="#181818" points="316,296.9766,306,300.9766,316,304.9766,312,300.9766" style="stroke:#181818;stroke-width:1.0;"/><text fill="#000000" font-family="sans-serif" font-size="13" lengthAdjust="spacing" textLength="223" x="312" y="283.1201">Deletes the selected operation request</text><polygon fill="#181818" points="40,357.3281,30,361.3281,40,365.3281,36,361.3281" style="stroke:#181818;stroke-width:1.0;"/><line style="stroke:#181818;stroke-width:1.0;stroke-dasharray:2.0,2.0;" x1="34" x2="284" y1="361.3281" y2="361.3281"/><text fill="#000000" font-family="sans-serif" font-size="13" lengthAdjust="spacing" textLength="122" x="46" y="356.4717">Confirms the deletion</text><!--SRC=[XP2nReGm38RtF8LrIzlXf7Qh6BeS-qcD-W1ky45qaD3OrugtRmWSe08gGuXY_z__storhiM03JJUULC5tn18k97YgTAYkM99MhgQ890HT6MzRE0A2_zZNGaNh9cK4YknLNSir82chnivGv1RBFlsHwtp9pZ2n-dvvLMX4HyWz-c7FDvK98irjaKdSCW6rA6l3rVLw-mt2jq58-7uDdPayDuRip28Xu9gYhq8vvO2YlNkNfv18ndYDqPVmCwVWjOn5CdcWS5Fe33w9EKV6gJ79J8oXwXPN0YtDNORg5bMq5Q-TAmdrd5A4zNerinv2rivLp5dQ9v4SOiL0IS3AjRu2R07tXzcPpidxousD8DnIXxj_jdBudN0_080]--></g></svg>