<?xml version="1.0" encoding="us-ascii" standalone="no"?><svg xmlns="http://www.w3.org/2000/svg" xmlns:xlink="http://www.w3.org/1999/xlink" contentStyleType="text/css" height="1284px" preserveAspectRatio="none" style="width:598px;height:1284px;background:#FFFFFF;" version="1.1" viewBox="0 0 598 1284" width="598px" zoomAndPan="magnify"><defs/><g><text fill="#000000" font-family="sans-serif" font-size="14" font-weight="bold" lengthAdjust="spacing" textLength="285" x="156" y="29.5332">System Sequence Diagram (SSD) - UC017</text><rect fill="#FFFFFF" height="1062.1641" style="stroke:#181818;stroke-width:1.0;" width="10" x="39" y="131.2188"/><rect fill="#FFFFFF" height="103.7031" style="stroke:#181818;stroke-width:1.0;" width="10" x="357" y="153.5703"/><rect fill="#FFFFFF" height="28" style="stroke:#181818;stroke-width:1.0;" width="10" x="362" y="191.9219"/><rect fill="#FFFFFF" height="57.8789" style="stroke:#181818;stroke-width:1.0;" width="10" x="357" y="287.625"/><rect fill="#FFFFFF" height="193.4063" style="stroke:#181818;stroke-width:1.0;" width="10" x="357" y="428.7344"/><rect fill="#FFFFFF" height="28" style="stroke:#181818;stroke-width:1.0;" width="10" x="362" y="467.0859"/><rect fill="#FFFFFF" height="28" style="stroke:#181818;stroke-width:1.0;" width="10" x="362" y="556.7891"/><rect fill="#FFFFFF" height="103.7031" style="stroke:#181818;stroke-width:1.0;" width="10" x="357" y="652.4922"/><rect fill="#FFFFFF" height="28" style="stroke:#181818;stroke-width:1.0;" width="10" x="362" y="690.8438"/><rect fill="#FFFFFF" height="30.3516" style="stroke:#181818;stroke-width:1.0;" width="10" x="357" y="802.3828"/><rect fill="#FFFFFF" height="103.7031" style="stroke:#181818;stroke-width:1.0;" width="10" x="357" y="863.0859"/><rect fill="#FFFFFF" height="28" style="stroke:#181818;stroke-width:1.0;" width="10" x="362" y="901.4375"/><rect fill="#FFFFFF" height="30.3516" style="stroke:#181818;stroke-width:1.0;" width="10" x="357" y="1012.9766"/><rect fill="#FFFFFF" height="103.7031" style="stroke:#181818;stroke-width:1.0;" width="10" x="357" y="1073.6797"/><rect fill="#FFFFFF" height="28" style="stroke:#181818;stroke-width:1.0;" width="10" x="362" y="1112.0313"/><rect fill="none" height="797.3516" style="stroke:#000000;stroke-width:1.5;" width="542" x="10" y="388.0313"/><line style="stroke:#181818;stroke-width:0.5;stroke-dasharray:5.0,5.0;" x1="44" x2="44" y1="121.2188" y2="1202.3828"/><line style="stroke:#181818;stroke-width:0.5;stroke-dasharray:5.0,5.0;" x1="362" x2="362" y1="121.2188" y2="1202.3828"/><text fill="#000000" font-family="sans-serif" font-size="14" lengthAdjust="spacing" textLength="42" x="20" y="118.1426">Doctor</text><ellipse cx="44" cy="52.1094" fill="#E3E3E3" rx="8" ry="8" style="stroke:#181818;stroke-width:0.5;"/><path d="M44,60.1094 L44,87.1094 M31,68.1094 L57,68.1094 M44,87.1094 L31,102.1094 M44,87.1094 L57,102.1094 " fill="none" style="stroke:#181818;stroke-width:0.5;"/><text fill="#000000" font-family="sans-serif" font-size="14" lengthAdjust="spacing" textLength="42" x="20" y="1215.916">Doctor</text><ellipse cx="44" cy="1227.4922" fill="#E3E3E3" rx="8" ry="8" style="stroke:#181818;stroke-width:0.5;"/><path d="M44,1235.4922 L44,1262.4922 M31,1243.4922 L57,1243.4922 M44,1262.4922 L31,1277.4922 M44,1262.4922 L57,1277.4922 " fill="none" style="stroke:#181818;stroke-width:0.5;"/><rect fill="#E3E3E3" height="31.6094" rx="2.5" ry="2.5" style="stroke:#181818;stroke-width:0.5;" width="64" x="330" y="88.6094"/><text fill="#000000" font-family="sans-serif" font-size="14" lengthAdjust="spacing" textLength="50" x="337" y="110.1426">:System</text><rect fill="#E3E3E3" height="31.6094" rx="2.5" ry="2.5" style="stroke:#181818;stroke-width:0.5;" width="64" x="330" y="1201.3828"/><text fill="#000000" font-family="sans-serif" font-size="14" lengthAdjust="spacing" textLength="50" x="337" y="1222.916">:System</text><rect fill="#FFFFFF" height="1062.1641" style="stroke:#181818;stroke-width:1.0;" width="10" x="39" y="131.2188"/><rect fill="#FFFFFF" height="103.7031" style="stroke:#181818;stroke-width:1.0;" width="10" x="357" y="153.5703"/><rect fill="#FFFFFF" height="28" style="stroke:#181818;stroke-width:1.0;" width="10" x="362" y="191.9219"/><rect fill="#FFFFFF" height="57.8789" style="stroke:#181818;stroke-width:1.0;" width="10" x="357" y="287.625"/><rect fill="#FFFFFF" height="193.4063" style="stroke:#181818;stroke-width:1.0;" width="10" x="357" y="428.7344"/><rect fill="#FFFFFF" height="28" style="stroke:#181818;stroke-width:1.0;" width="10" x="362" y="467.0859"/><rect fill="#FFFFFF" height="28" style="stroke:#181818;stroke-width:1.0;" width="10" x="362" y="556.7891"/><rect fill="#FFFFFF" height="103.7031" style="stroke:#181818;stroke-width:1.0;" width="10" x="357" y="652.4922"/><rect fill="#FFFFFF" height="28" style="stroke:#181818;stroke-width:1.0;" width="10" x="362" y="690.8438"/><rect fill="#FFFFFF" height="30.3516" style="stroke:#181818;stroke-width:1.0;" width="10" x="357" y="802.3828"/><rect fill="#FFFFFF" height="103.7031" style="stroke:#181818;stroke-width:1.0;" width="10" x="357" y="863.0859"/><rect fill="#FFFFFF" height="28" style="stroke:#181818;stroke-width:1.0;" width="10" x="362" y="901.4375"/><rect fill="#FFFFFF" height="30.3516" style="stroke:#181818;stroke-width:1.0;" width="10" x="357" y="1012.9766"/><rect fill="#FFFFFF" height="103.7031" style="stroke:#181818;stroke-width:1.0;" width="10" x="357" y="1073.6797"/><rect fill="#FFFFFF" height="28" style="stroke:#181818;stroke-width:1.0;" width="10" x="362" y="1112.0313"/><polygon fill="#181818" points="345,149.5703,355,153.5703,345,157.5703,349,153.5703" style="stroke:#181818;stroke-width:1.0;"/><line style="stroke:#181818;stroke-width:1.0;" x1="49" x2="351" y1="153.5703" y2="153.5703"/><text fill="#000000" font-family="sans-serif" font-size="13" lengthAdjust="spacing" textLength="243" x="56" y="148.7139">Requests to update an Operation Request</text><line style="stroke:#181818;stroke-width:1.0;" x1="372" x2="414" y1="183.9219" y2="183.9219"/><line style="stroke:#181818;stroke-width:1.0;" x1="414" x2="414" y1="183.9219" y2="196.9219"/><line style="stroke:#181818;stroke-width:1.0;" x1="373" x2="414" y1="196.9219" y2="196.9219"/><polygon fill="#181818" points="383,192.9219,373,196.9219,383,200.9219,379,196.9219" style="stroke:#181818;stroke-width:1.0;"/><text fill="#000000" font-family="sans-serif" font-size="13" lengthAdjust="spacing" textLength="212" x="379" y="179.0654">Find all Doctor's Operation Requests</text><polygon fill="#181818" points="60,253.2734,50,257.2734,60,261.2734,56,257.2734" style="stroke:#181818;stroke-width:1.0;"/><line style="stroke:#181818;stroke-width:1.0;stroke-dasharray:2.0,2.0;" x1="54" x2="361" y1="257.2734" y2="257.2734"/><text fill="#000000" font-family="sans-serif" font-size="13" lengthAdjust="spacing" textLength="230" x="66" y="252.417">Display all Doctor's Operation Requests</text><polygon fill="#181818" points="345,283.625,355,287.625,345,291.625,349,287.625" style="stroke:#181818;stroke-width:1.0;"/><line style="stroke:#181818;stroke-width:1.0;" x1="49" x2="351" y1="287.625" y2="287.625"/><text fill="#000000" font-family="sans-serif" font-size="13" lengthAdjust="spacing" textLength="167" x="56" y="282.7686">Select an Operation Request</text><polygon fill="#181818" points="60,341.5039,50,345.5039,60,349.5039,56,345.5039" style="stroke:#181818;stroke-width:1.0;"/><line style="stroke:#181818;stroke-width:1.0;stroke-dasharray:2.0,2.0;" x1="54" x2="361" y1="345.5039" y2="345.5039"/><text fill="#000000" font-family="sans-serif" font-size="13" lengthAdjust="spacing" textLength="284" x="66" y="340.6475">Display options do update the Operation Request</text><path d="M372,300.625 L372,375.625 L513,375.625 L513,310.625 L503,300.625 L372,300.625 " fill="#FAFAFA" style="stroke:#181818;stroke-width:0.5;"/><path d="M503,300.625 L503,310.625 L513,310.625 L503,300.625 " fill="#FAFAFA" style="stroke:#181818;stroke-width:0.5;"/><text fill="#000000" font-family="sans-serif" font-size="13" lengthAdjust="spacing" textLength="61" x="378" y="319.1201">OPTIONS:</text><text fill="#000000" font-family="sans-serif" font-size="13" lengthAdjust="spacing" textLength="90" x="378" y="335.4717">-operation type;</text><text fill="#000000" font-family="sans-serif" font-size="13" lengthAdjust="spacing" textLength="120" x="378" y="351.8232">-suggested deadline;</text><text fill="#000000" font-family="sans-serif" font-size="13" lengthAdjust="spacing" textLength="47" x="378" y="368.1748">-priority.</text><path d="M10,388.0313 L71,388.0313 L71,396.3828 L61,406.3828 L10,406.3828 L10,388.0313 " fill="#EEEEEE" style="stroke:#000000;stroke-width:1.5;"/><rect fill="none" height="797.3516" style="stroke:#000000;stroke-width:1.5;" width="542" x="10" y="388.0313"/><text fill="#000000" font-family="sans-serif" font-size="13" font-weight="bold" lengthAdjust="spacing" textLength="16" x="25" y="402.5264">alt</text><text fill="#000000" font-family="sans-serif" font-size="11" font-weight="bold" lengthAdjust="spacing" textLength="141" x="86" y="401.4502">[option == operation type]</text><polygon fill="#181818" points="345,424.7344,355,428.7344,345,432.7344,349,428.7344" style="stroke:#181818;stroke-width:1.0;"/><line style="stroke:#181818;stroke-width:1.0;" x1="49" x2="351" y1="428.7344" y2="428.7344"/><text fill="#000000" font-family="sans-serif" font-size="13" lengthAdjust="spacing" textLength="177" x="56" y="423.8779">Selects 'update operation type'</text><line style="stroke:#181818;stroke-width:1.0;" x1="372" x2="414" y1="459.0859" y2="459.0859"/><line style="stroke:#181818;stroke-width:1.0;" x1="414" x2="414" y1="459.0859" y2="472.0859"/><line style="stroke:#181818;stroke-width:1.0;" x1="373" x2="414" y1="472.0859" y2="472.0859"/><polygon fill="#181818" points="383,468.0859,373,472.0859,383,476.0859,379,472.0859" style="stroke:#181818;stroke-width:1.0;"/><text fill="#000000" font-family="sans-serif" font-size="13" lengthAdjust="spacing" textLength="101" x="379" y="454.2295">find Doctor's Role</text><line style="stroke:#181818;stroke-width:1.0;" x1="372" x2="414" y1="548.7891" y2="548.7891"/><line style="stroke:#181818;stroke-width:1.0;" x1="414" x2="414" y1="548.7891" y2="561.7891"/><line style="stroke:#181818;stroke-width:1.0;" x1="373" x2="414" y1="561.7891" y2="561.7891"/><polygon fill="#181818" points="383,557.7891,373,561.7891,383,565.7891,379,561.7891" style="stroke:#181818;stroke-width:1.0;"/><text fill="#000000" font-family="sans-serif" font-size="13" lengthAdjust="spacing" textLength="148" x="379" y="527.5811">Obtain all operation types</text><text fill="#000000" font-family="sans-serif" font-size="13" lengthAdjust="spacing" textLength="105" x="379" y="543.9326">related to that role</text><polygon fill="#181818" points="60,618.1406,50,622.1406,60,626.1406,56,622.1406" style="stroke:#181818;stroke-width:1.0;"/><line style="stroke:#181818;stroke-width:1.0;stroke-dasharray:2.0,2.0;" x1="54" x2="361" y1="622.1406" y2="622.1406"/><text fill="#000000" font-family="sans-serif" font-size="13" lengthAdjust="spacing" textLength="262" x="66" y="617.2842">Display all operation types related to that role</text><polygon fill="#181818" points="345,648.4922,355,652.4922,345,656.4922,349,652.4922" style="stroke:#181818;stroke-width:1.0;"/><line style="stroke:#181818;stroke-width:1.0;" x1="49" x2="351" y1="652.4922" y2="652.4922"/><text fill="#000000" font-family="sans-serif" font-size="13" lengthAdjust="spacing" textLength="141" x="56" y="647.6357">Select an operation type</text><line style="stroke:#181818;stroke-width:1.0;" x1="372" x2="414" y1="682.8438" y2="682.8438"/><line style="stroke:#181818;stroke-width:1.0;" x1="414" x2="414" y1="682.8438" y2="695.8438"/><line style="stroke:#181818;stroke-width:1.0;" x1="373" x2="414" y1="695.8438" y2="695.8438"/><polygon fill="#181818" points="383,691.8438,373,695.8438,383,699.8438,379,695.8438" style="stroke:#181818;stroke-width:1.0;"/><text fill="#000000" font-family="sans-serif" font-size="13" lengthAdjust="spacing" textLength="131" x="379" y="677.9873">Update 'operation type'</text><polygon fill="#181818" points="60,752.1953,50,756.1953,60,760.1953,56,756.1953" style="stroke:#181818;stroke-width:1.0;"/><line style="stroke:#181818;stroke-width:1.0;stroke-dasharray:2.0,2.0;" x1="54" x2="361" y1="756.1953" y2="756.1953"/><text fill="#000000" font-family="sans-serif" font-size="13" lengthAdjust="spacing" textLength="135" x="66" y="751.3389">Operation type updated</text><line style="stroke:#000000;stroke-width:1.0;stroke-dasharray:2.0,2.0;" x1="10" x2="552" y1="765.1953" y2="765.1953"/><text fill="#000000" font-family="sans-serif" font-size="11" font-weight="bold" lengthAdjust="spacing" textLength="171" x="15" y="776.6143">[option == suggested deadline]</text><polygon fill="#181818" points="345,798.3828,355,802.3828,345,806.3828,349,802.3828" style="stroke:#181818;stroke-width:1.0;"/><line style="stroke:#181818;stroke-width:1.0;" x1="49" x2="351" y1="802.3828" y2="802.3828"/><text fill="#000000" font-family="sans-serif" font-size="13" lengthAdjust="spacing" textLength="222" x="56" y="797.5264">Selects to 'update suggested deadline'</text><polygon fill="#181818" points="60,828.7344,50,832.7344,60,836.7344,56,832.7344" style="stroke:#181818;stroke-width:1.0;"/><line style="stroke:#181818;stroke-width:1.0;stroke-dasharray:2.0,2.0;" x1="54" x2="361" y1="832.7344" y2="832.7344"/><text fill="#000000" font-family="sans-serif" font-size="13" lengthAdjust="spacing" textLength="198" x="66" y="827.8779">Requests new suggested deadline</text><polygon fill="#181818" points="345,859.0859,355,863.0859,345,867.0859,349,863.0859" style="stroke:#181818;stroke-width:1.0;"/><line style="stroke:#181818;stroke-width:1.0;" x1="49" x2="351" y1="863.0859" y2="863.0859"/><text fill="#000000" font-family="sans-serif" font-size="13" lengthAdjust="spacing" textLength="189" x="56" y="858.2295">Types a new suggested deadline</text><line style="stroke:#181818;stroke-width:1.0;" x1="372" x2="414" y1="893.4375" y2="893.4375"/><line style="stroke:#181818;stroke-width:1.0;" x1="414" x2="414" y1="893.4375" y2="906.4375"/><line style="stroke:#181818;stroke-width:1.0;" x1="373" x2="414" y1="906.4375" y2="906.4375"/><polygon fill="#181818" points="383,902.4375,373,906.4375,383,910.4375,379,906.4375" style="stroke:#181818;stroke-width:1.0;"/><text fill="#000000" font-family="sans-serif" font-size="13" lengthAdjust="spacing" textLength="161" x="379" y="888.5811">Update 'suggested deadline'</text><polygon fill="#181818" points="60,962.7891,50,966.7891,60,970.7891,56,966.7891" style="stroke:#181818;stroke-width:1.0;"/><line style="stroke:#181818;stroke-width:1.0;stroke-dasharray:2.0,2.0;" x1="54" x2="361" y1="966.7891" y2="966.7891"/><text fill="#000000" font-family="sans-serif" font-size="13" lengthAdjust="spacing" textLength="164" x="66" y="961.9326">Suggested deadline updated</text><line style="stroke:#000000;stroke-width:1.0;stroke-dasharray:2.0,2.0;" x1="10" x2="552" y1="975.7891" y2="975.7891"/><text fill="#000000" font-family="sans-serif" font-size="11" font-weight="bold" lengthAdjust="spacing" textLength="101" x="15" y="987.208">[option == priority]</text><polygon fill="#181818" points="345,1008.9766,355,1012.9766,345,1016.9766,349,1012.9766" style="stroke:#181818;stroke-width:1.0;"/><line style="stroke:#181818;stroke-width:1.0;" x1="49" x2="351" y1="1012.9766" y2="1012.9766"/><text fill="#000000" font-family="sans-serif" font-size="13" lengthAdjust="spacing" textLength="149" x="56" y="1008.1201">Selects to 'update priority'</text><polygon fill="#181818" points="60,1039.3281,50,1043.3281,60,1047.3281,56,1043.3281" style="stroke:#181818;stroke-width:1.0;"/><line style="stroke:#181818;stroke-width:1.0;stroke-dasharray:2.0,2.0;" x1="54" x2="361" y1="1043.3281" y2="1043.3281"/><text fill="#000000" font-family="sans-serif" font-size="13" lengthAdjust="spacing" textLength="152" x="66" y="1038.4717">Display operations' priority</text><polygon fill="#181818" points="345,1069.6797,355,1073.6797,345,1077.6797,349,1073.6797" style="stroke:#181818;stroke-width:1.0;"/><line style="stroke:#181818;stroke-width:1.0;" x1="49" x2="351" y1="1073.6797" y2="1073.6797"/><text fill="#000000" font-family="sans-serif" font-size="13" lengthAdjust="spacing" textLength="164" x="56" y="1068.8232">Select an operation's priority</text><line style="stroke:#181818;stroke-width:1.0;" x1="372" x2="414" y1="1104.0313" y2="1104.0313"/><line style="stroke:#181818;stroke-width:1.0;" x1="414" x2="414" y1="1104.0313" y2="1117.0313"/><line style="stroke:#181818;stroke-width:1.0;" x1="373" x2="414" y1="1117.0313" y2="1117.0313"/><polygon fill="#181818" points="383,1113.0313,373,1117.0313,383,1121.0313,379,1117.0313" style="stroke:#181818;stroke-width:1.0;"/><text fill="#000000" font-family="sans-serif" font-size="13" lengthAdjust="spacing" textLength="88" x="379" y="1099.1748">Update 'priority'</text><polygon fill="#181818" points="60,1173.3828,50,1177.3828,60,1181.3828,56,1177.3828" style="stroke:#181818;stroke-width:1.0;"/><line style="stroke:#181818;stroke-width:1.0;stroke-dasharray:2.0,2.0;" x1="54" x2="361" y1="1177.3828" y2="1177.3828"/><text fill="#000000" font-family="sans-serif" font-size="13" lengthAdjust="spacing" textLength="91" x="66" y="1172.5264">Priority updated</text><!--SRC=[hLMnRjim4Dtr5OSiQWSNwLJ0HRhKAD0b2g9awtALBZ8HcbJ9SmF_VKcBKYLBicd7N6o8lFVk7jyTxQjGDHhSm4OhNQoDtX2msL9YkvqQYrUiAEUT931KCAfAzW_ODPRwJQWANb1QIX8Mx8xcEykqWPp-R4aL12k1bJ_-8SzN7s41pzzlFtz9i61jOANtFsZ3lyGXioX4ZOhXPjb0tVZzvc_YuyHVP6e34d0hm2o-XMDBUFJibYsmXcrT-W1KaDLaa8LMxNuJtc464WWhLDA3_I5K2IXbO4pj6D9suNEmVfLqk3jYTRGDoz99Q6k9ksZc4JhCwPIJT3SxhKsCD1D9wjgZM2WxvNbDC_1-AUsE656jUQ1Gzl3qCxlFbuEF2zt1yAwchyDDkwqgXqob5w2KGXqUg8tGHl3kK_UPt7tw19A8Yq79eJYukuDX9WEUEPajf46HON0wY3vccsbNldXNThvur996GQT0fqi_JPtzPXHgRynXJVQNCYJHNuPhGLuZWxbUOhEPpJJDGMuGbLe4xR66EcAGsCB7UZyt_acF6UWSXlFklQTkDaWWT7gPn6EJUp9wxJJktSYMSbVOTjKOuxBEwfNPlIEAtYRm0PBpr3nHrDFUdJZ3ziunqNhdb4pNcHSJOkPZ_QPy4-sPTfoVxvGsyjt- -F_eXNQmwNHQ4GCbQfYu0J-9VxaTfhMu_gFHK-qXK5uoDbJv3m00]--></g></svg>