<?xml version="1.0" encoding="us-ascii" standalone="no"?><svg xmlns="http://www.w3.org/2000/svg" xmlns:xlink="http://www.w3.org/1999/xlink" contentStyleType="text/css" height="1017px" preserveAspectRatio="none" style="width:1059px;height:1017px;background:#FFFFFF;" version="1.1" viewBox="0 0 1059 1017" width="1059px" zoomAndPan="magnify"><defs/><g><text fill="#000000" font-family="sans-serif" font-size="14" font-weight="bold" lengthAdjust="spacing" textLength="222" x="417.5" y="29.5332">Sequence Diagram (SD) - UC003</text><rect fill="#FFFFFF" height="819.4922" style="stroke:#181818;stroke-width:1.0;" width="10" x="108" y="126.1797"/><rect fill="#FFFFFF" height="30.3516" style="stroke:#181818;stroke-width:1.0;" width="10" x="214.5" y="156.5313"/><rect fill="#FFFFFF" height="698.0859" style="stroke:#181818;stroke-width:1.0;" width="10" x="313.5" y="217.2344"/><rect fill="#FFFFFF" height="30.3516" style="stroke:#181818;stroke-width:1.0;" width="10" x="415" y="247.5859"/><rect fill="#FFFFFF" height="30.3516" style="stroke:#181818;stroke-width:1.0;" width="10" x="415" y="308.2891"/><rect fill="#FFFFFF" height="30.3516" style="stroke:#181818;stroke-width:1.0;" width="10" x="415" y="824.2656"/><rect fill="#FFFFFF" height="30.3516" style="stroke:#181818;stroke-width:1.0;" width="10" x="536" y="368.9922"/><rect fill="#FFFFFF" height="30.3516" style="stroke:#181818;stroke-width:1.0;" width="10" x="536" y="733.2109"/><rect fill="#FFFFFF" height="91.0547" style="stroke:#181818;stroke-width:1.0;" width="10" x="658" y="429.6953"/><rect fill="#FFFFFF" height="91.0547" style="stroke:#181818;stroke-width:1.0;" width="10" x="658" y="793.9141"/><rect fill="#FFFFFF" height="30.3516" style="stroke:#181818;stroke-width:1.0;" width="10" x="767" y="460.0469"/><rect fill="#FFFFFF" height="30.3516" style="stroke:#181818;stroke-width:1.0;" width="10" x="767" y="551.1016"/><rect fill="#FFFFFF" height="30.3516" style="stroke:#181818;stroke-width:1.0;" width="10" x="874" y="611.8047"/><rect fill="#FFFFFF" height="30.3516" style="stroke:#181818;stroke-width:1.0;" width="10" x="995.5" y="672.5078"/><line style="stroke:#181818;stroke-width:0.5;stroke-dasharray:5.0,5.0;" x1="112.5" x2="112.5" y1="93.8281" y2="963.6719"/><line style="stroke:#181818;stroke-width:0.5;stroke-dasharray:5.0,5.0;" x1="219.5" x2="219.5" y1="93.8281" y2="963.6719"/><line style="stroke:#181818;stroke-width:0.5;stroke-dasharray:5.0,5.0;" x1="318.5" x2="318.5" y1="93.8281" y2="963.6719"/><line style="stroke:#181818;stroke-width:0.5;stroke-dasharray:5.0,5.0;" x1="419.5" x2="419.5" y1="93.8281" y2="963.6719"/><line style="stroke:#181818;stroke-width:0.5;stroke-dasharray:5.0,5.0;" x1="540.5" x2="540.5" y1="93.8281" y2="963.6719"/><line style="stroke:#181818;stroke-width:0.5;stroke-dasharray:5.0,5.0;" x1="662.5" x2="662.5" y1="93.8281" y2="963.6719"/><line style="stroke:#181818;stroke-width:0.5;stroke-dasharray:5.0,5.0;" x1="772" x2="772" y1="93.8281" y2="963.6719"/><line style="stroke:#181818;stroke-width:0.5;stroke-dasharray:5.0,5.0;" x1="879" x2="879" y1="93.8281" y2="963.6719"/><line style="stroke:#181818;stroke-width:0.5;stroke-dasharray:5.0,5.0;" x1="1000" x2="1000" y1="93.8281" y2="963.6719"/><rect fill="#E2E2F0" height="49.2188" rx="2.5" ry="2.5" style="stroke:#181818;stroke-width:0.5;" width="109" x="58.5" y="43.6094"/><text fill="#000000" font-family="sans-serif" font-size="14" font-style="italic" lengthAdjust="spacing" textLength="84" x="71" y="65.1426">&#171;application&#187;</text><text fill="#000000" font-family="sans-serif" font-size="14" lengthAdjust="spacing" textLength="95" x="65.5" y="82.752">:UserController</text><rect fill="#E2E2F0" height="49.2188" rx="2.5" ry="2.5" style="stroke:#181818;stroke-width:0.5;" width="109" x="58.5" y="962.6719"/><text fill="#000000" font-family="sans-serif" font-size="14" font-style="italic" lengthAdjust="spacing" textLength="84" x="71" y="984.2051">&#171;application&#187;</text><text fill="#000000" font-family="sans-serif" font-size="14" lengthAdjust="spacing" textLength="95" x="65.5" y="1001.8145">:UserController</text><rect fill="#E2E2F0" height="49.2188" rx="2.5" ry="2.5" style="stroke:#181818;stroke-width:0.5;" width="84" x="177.5" y="43.6094"/><text fill="#000000" font-family="sans-serif" font-size="14" font-style="italic" lengthAdjust="spacing" textLength="60" x="189.5" y="65.1426">&#171;service&#187;</text><text fill="#000000" font-family="sans-serif" font-size="14" lengthAdjust="spacing" textLength="70" x="184.5" y="82.752">IAMService</text><rect fill="#E2E2F0" height="49.2188" rx="2.5" ry="2.5" style="stroke:#181818;stroke-width:0.5;" width="84" x="177.5" y="962.6719"/><text fill="#000000" font-family="sans-serif" font-size="14" font-style="italic" lengthAdjust="spacing" textLength="60" x="189.5" y="984.2051">&#171;service&#187;</text><text fill="#000000" font-family="sans-serif" font-size="14" lengthAdjust="spacing" textLength="70" x="184.5" y="1001.8145">IAMService</text><rect fill="#E2E2F0" height="49.2188" rx="2.5" ry="2.5" style="stroke:#181818;stroke-width:0.5;" width="94" x="271.5" y="43.6094"/><text fill="#000000" font-family="sans-serif" font-size="14" font-style="italic" lengthAdjust="spacing" textLength="60" x="288.5" y="65.1426">&#171;service&#187;</text><text fill="#000000" font-family="sans-serif" font-size="14" lengthAdjust="spacing" textLength="80" x="278.5" y="82.752">:UserService</text><rect fill="#E2E2F0" height="49.2188" rx="2.5" ry="2.5" style="stroke:#181818;stroke-width:0.5;" width="94" x="271.5" y="962.6719"/><text fill="#000000" font-family="sans-serif" font-size="14" font-style="italic" lengthAdjust="spacing" textLength="60" x="288.5" y="984.2051">&#171;service&#187;</text><text fill="#000000" font-family="sans-serif" font-size="14" lengthAdjust="spacing" textLength="80" x="278.5" y="1001.8145">:UserService</text><rect fill="#E2E2F0" height="49.2188" rx="2.5" ry="2.5" style="stroke:#181818;stroke-width:0.5;" width="89" x="375.5" y="43.6094"/><text fill="#000000" font-family="sans-serif" font-size="14" font-style="italic" lengthAdjust="spacing" textLength="62" x="389" y="65.1426">&#171;domain&#187;</text><text fill="#000000" font-family="sans-serif" font-size="14" lengthAdjust="spacing" textLength="75" x="382.5" y="82.752">dto:UserDto</text><rect fill="#E2E2F0" height="49.2188" rx="2.5" ry="2.5" style="stroke:#181818;stroke-width:0.5;" width="89" x="375.5" y="962.6719"/><text fill="#000000" font-family="sans-serif" font-size="14" font-style="italic" lengthAdjust="spacing" textLength="62" x="389" y="984.2051">&#171;domain&#187;</text><text fill="#000000" font-family="sans-serif" font-size="14" lengthAdjust="spacing" textLength="75" x="382.5" y="1001.8145">dto:UserDto</text><rect fill="#E2E2F0" height="49.2188" rx="2.5" ry="2.5" style="stroke:#181818;stroke-width:0.5;" width="133" x="474.5" y="43.6094"/><text fill="#000000" font-family="sans-serif" font-size="14" font-style="italic" lengthAdjust="spacing" textLength="89" x="496.5" y="65.1426">&#171;persistence&#187;</text><text fill="#000000" font-family="sans-serif" font-size="14" lengthAdjust="spacing" textLength="119" x="481.5" y="82.752">:IPatientRepository</text><rect fill="#E2E2F0" height="49.2188" rx="2.5" ry="2.5" style="stroke:#181818;stroke-width:0.5;" width="133" x="474.5" y="962.6719"/><text fill="#000000" font-family="sans-serif" font-size="14" font-style="italic" lengthAdjust="spacing" textLength="89" x="496.5" y="984.2051">&#171;persistence&#187;</text><text fill="#000000" font-family="sans-serif" font-size="14" lengthAdjust="spacing" textLength="119" x="481.5" y="1001.8145">:IPatientRepository</text><rect fill="#E2E2F0" height="49.2188" rx="2.5" ry="2.5" style="stroke:#181818;stroke-width:0.5;" width="91" x="617.5" y="43.6094"/><text fill="#000000" font-family="sans-serif" font-size="14" font-style="italic" lengthAdjust="spacing" textLength="62" x="632" y="65.1426">&#171;domain&#187;</text><text fill="#000000" font-family="sans-serif" font-size="14" lengthAdjust="spacing" textLength="77" x="624.5" y="82.752">UserMapper</text><rect fill="#E2E2F0" height="49.2188" rx="2.5" ry="2.5" style="stroke:#181818;stroke-width:0.5;" width="91" x="617.5" y="962.6719"/><text fill="#000000" font-family="sans-serif" font-size="14" font-style="italic" lengthAdjust="spacing" textLength="62" x="632" y="984.2051">&#171;domain&#187;</text><text fill="#000000" font-family="sans-serif" font-size="14" lengthAdjust="spacing" textLength="77" x="624.5" y="1001.8145">UserMapper</text><rect fill="#E2E2F0" height="49.2188" rx="2.5" ry="2.5" style="stroke:#181818;stroke-width:0.5;" width="76" x="734" y="43.6094"/><text fill="#000000" font-family="sans-serif" font-size="14" font-style="italic" lengthAdjust="spacing" textLength="62" x="741" y="65.1426">&#171;domain&#187;</text><text fill="#000000" font-family="sans-serif" font-size="14" lengthAdjust="spacing" textLength="61" x="741.5" y="82.752">user:User</text><rect fill="#E2E2F0" height="49.2188" rx="2.5" ry="2.5" style="stroke:#181818;stroke-width:0.5;" width="76" x="734" y="962.6719"/><text fill="#000000" font-family="sans-serif" font-size="14" font-style="italic" lengthAdjust="spacing" textLength="62" x="741" y="984.2051">&#171;domain&#187;</text><text fill="#000000" font-family="sans-serif" font-size="14" lengthAdjust="spacing" textLength="61" x="741.5" y="1001.8145">user:User</text><rect fill="#E2E2F0" height="49.2188" rx="2.5" ry="2.5" style="stroke:#181818;stroke-width:0.5;" width="118" x="820" y="43.6094"/><text fill="#000000" font-family="sans-serif" font-size="14" font-style="italic" lengthAdjust="spacing" textLength="89" x="834.5" y="65.1426">&#171;persistence&#187;</text><text fill="#000000" font-family="sans-serif" font-size="14" lengthAdjust="spacing" textLength="104" x="827" y="82.752">:IUserRepository</text><rect fill="#E2E2F0" height="49.2188" rx="2.5" ry="2.5" style="stroke:#181818;stroke-width:0.5;" width="118" x="820" y="962.6719"/><text fill="#000000" font-family="sans-serif" font-size="14" font-style="italic" lengthAdjust="spacing" textLength="89" x="834.5" y="984.2051">&#171;persistence&#187;</text><text fill="#000000" font-family="sans-serif" font-size="14" lengthAdjust="spacing" textLength="104" x="827" y="1001.8145">:IUserRepository</text><rect fill="#E2E2F0" height="49.2188" rx="2.5" ry="2.5" style="stroke:#181818;stroke-width:0.5;" width="105" x="948" y="43.6094"/><text fill="#000000" font-family="sans-serif" font-size="14" font-style="italic" lengthAdjust="spacing" textLength="62" x="969.5" y="65.1426">&#171;domain&#187;</text><text fill="#000000" font-family="sans-serif" font-size="14" lengthAdjust="spacing" textLength="91" x="955" y="82.752">patient:Patient</text><rect fill="#E2E2F0" height="49.2188" rx="2.5" ry="2.5" style="stroke:#181818;stroke-width:0.5;" width="105" x="948" y="962.6719"/><text fill="#000000" font-family="sans-serif" font-size="14" font-style="italic" lengthAdjust="spacing" textLength="62" x="969.5" y="984.2051">&#171;domain&#187;</text><text fill="#000000" font-family="sans-serif" font-size="14" lengthAdjust="spacing" textLength="91" x="955" y="1001.8145">patient:Patient</text><rect fill="#FFFFFF" height="819.4922" style="stroke:#181818;stroke-width:1.0;" width="10" x="108" y="126.1797"/><rect fill="#FFFFFF" height="30.3516" style="stroke:#181818;stroke-width:1.0;" width="10" x="214.5" y="156.5313"/><rect fill="#FFFFFF" height="698.0859" style="stroke:#181818;stroke-width:1.0;" width="10" x="313.5" y="217.2344"/><rect fill="#FFFFFF" height="30.3516" style="stroke:#181818;stroke-width:1.0;" width="10" x="415" y="247.5859"/><rect fill="#FFFFFF" height="30.3516" style="stroke:#181818;stroke-width:1.0;" width="10" x="415" y="308.2891"/><rect fill="#FFFFFF" height="30.3516" style="stroke:#181818;stroke-width:1.0;" width="10" x="415" y="824.2656"/><rect fill="#FFFFFF" height="30.3516" style="stroke:#181818;stroke-width:1.0;" width="10" x="536" y="368.9922"/><rect fill="#FFFFFF" height="30.3516" style="stroke:#181818;stroke-width:1.0;" width="10" x="536" y="733.2109"/><rect fill="#FFFFFF" height="91.0547" style="stroke:#181818;stroke-width:1.0;" width="10" x="658" y="429.6953"/><rect fill="#FFFFFF" height="91.0547" style="stroke:#181818;stroke-width:1.0;" width="10" x="658" y="793.9141"/><rect fill="#FFFFFF" height="30.3516" style="stroke:#181818;stroke-width:1.0;" width="10" x="767" y="460.0469"/><rect fill="#FFFFFF" height="30.3516" style="stroke:#181818;stroke-width:1.0;" width="10" x="767" y="551.1016"/><rect fill="#FFFFFF" height="30.3516" style="stroke:#181818;stroke-width:1.0;" width="10" x="874" y="611.8047"/><rect fill="#FFFFFF" height="30.3516" style="stroke:#181818;stroke-width:1.0;" width="10" x="995.5" y="672.5078"/><polygon fill="#181818" points="96,122.1797,106,126.1797,96,130.1797,100,126.1797" style="stroke:#181818;stroke-width:1.0;"/><line style="stroke:#181818;stroke-width:1.0;" x1="0" x2="102" y1="126.1797" y2="126.1797"/><text fill="#000000" font-family="sans-serif" font-size="13" lengthAdjust="spacing" textLength="89" x="7" y="121.3232">POST /api/user</text><polygon fill="#181818" points="202.5,152.5313,212.5,156.5313,202.5,160.5313,206.5,156.5313" style="stroke:#181818;stroke-width:1.0;"/><line style="stroke:#181818;stroke-width:1.0;" x1="118" x2="208.5" y1="156.5313" y2="156.5313"/><text fill="#000000" font-family="sans-serif" font-size="13" lengthAdjust="spacing" textLength="56" x="125" y="151.6748">Redirect()</text><polygon fill="#181818" points="129,182.8828,119,186.8828,129,190.8828,125,186.8828" style="stroke:#181818;stroke-width:1.0;"/><line style="stroke:#181818;stroke-width:1.0;stroke-dasharray:2.0,2.0;" x1="123" x2="218.5" y1="186.8828" y2="186.8828"/><text fill="#000000" font-family="sans-serif" font-size="13" lengthAdjust="spacing" textLength="32" x="135" y="182.0264">token</text><polygon fill="#181818" points="301.5,213.2344,311.5,217.2344,301.5,221.2344,305.5,217.2344" style="stroke:#181818;stroke-width:1.0;"/><line style="stroke:#181818;stroke-width:1.0;" x1="118" x2="307.5" y1="217.2344" y2="217.2344"/><text fill="#000000" font-family="sans-serif" font-size="13" lengthAdjust="spacing" textLength="86" x="125" y="212.3779">AddAsync(dto)</text><polygon fill="#181818" points="403,243.5859,413,247.5859,403,251.5859,407,247.5859" style="stroke:#181818;stroke-width:1.0;"/><line style="stroke:#181818;stroke-width:1.0;" x1="323.5" x2="409" y1="247.5859" y2="247.5859"/><text fill="#000000" font-family="sans-serif" font-size="13" lengthAdjust="spacing" textLength="55" x="330.5" y="242.7295">GetRole()</text><polygon fill="#181818" points="334.5,273.9375,324.5,277.9375,334.5,281.9375,330.5,277.9375" style="stroke:#181818;stroke-width:1.0;"/><line style="stroke:#181818;stroke-width:1.0;stroke-dasharray:2.0,2.0;" x1="328.5" x2="419" y1="277.9375" y2="277.9375"/><text fill="#000000" font-family="sans-serif" font-size="13" lengthAdjust="spacing" textLength="53" x="340.5" y="273.0811">PATIENT</text><polygon fill="#181818" points="403,304.2891,413,308.2891,403,312.2891,407,308.2891" style="stroke:#181818;stroke-width:1.0;"/><line style="stroke:#181818;stroke-width:1.0;" x1="323.5" x2="409" y1="308.2891" y2="308.2891"/><text fill="#000000" font-family="sans-serif" font-size="13" lengthAdjust="spacing" textLength="62" x="330.5" y="303.4326">GetEmail()</text><polygon fill="#181818" points="334.5,334.6406,324.5,338.6406,334.5,342.6406,330.5,338.6406" style="stroke:#181818;stroke-width:1.0;"/><line style="stroke:#181818;stroke-width:1.0;stroke-dasharray:2.0,2.0;" x1="328.5" x2="419" y1="338.6406" y2="338.6406"/><text fill="#000000" font-family="sans-serif" font-size="13" lengthAdjust="spacing" textLength="31" x="340.5" y="333.7842">email</text><polygon fill="#181818" points="524,364.9922,534,368.9922,524,372.9922,528,368.9922" style="stroke:#181818;stroke-width:1.0;"/><line style="stroke:#181818;stroke-width:1.0;" x1="323.5" x2="530" y1="368.9922" y2="368.9922"/><text fill="#000000" font-family="sans-serif" font-size="13" lengthAdjust="spacing" textLength="146" x="330.5" y="364.1357">GetByEmailAsync(email)</text><polygon fill="#181818" points="334.5,395.3438,324.5,399.3438,334.5,403.3438,330.5,399.3438" style="stroke:#181818;stroke-width:1.0;"/><line style="stroke:#181818;stroke-width:1.0;stroke-dasharray:2.0,2.0;" x1="328.5" x2="540" y1="399.3438" y2="399.3438"/><text fill="#000000" font-family="sans-serif" font-size="13" lengthAdjust="spacing" textLength="39" x="340.5" y="394.4873">patient</text><polygon fill="#181818" points="646,425.6953,656,429.6953,646,433.6953,650,429.6953" style="stroke:#181818;stroke-width:1.0;"/><line style="stroke:#181818;stroke-width:1.0;" x1="323.5" x2="652" y1="429.6953" y2="429.6953"/><text fill="#000000" font-family="sans-serif" font-size="13" lengthAdjust="spacing" textLength="67" x="330.5" y="424.8389">ToUser(dto)</text><polygon fill="#181818" points="755,456.0469,765,460.0469,755,464.0469,759,460.0469" style="stroke:#181818;stroke-width:1.0;"/><line style="stroke:#181818;stroke-width:1.0;" x1="668" x2="761" y1="460.0469" y2="460.0469"/><text fill="#000000" font-family="sans-serif" font-size="13" lengthAdjust="spacing" textLength="80" x="675" y="455.1904">new User(dto)</text><polygon fill="#181818" points="679,486.3984,669,490.3984,679,494.3984,675,490.3984" style="stroke:#181818;stroke-width:1.0;"/><line style="stroke:#181818;stroke-width:1.0;stroke-dasharray:2.0,2.0;" x1="673" x2="771" y1="490.3984" y2="490.3984"/><text fill="#000000" font-family="sans-serif" font-size="13" lengthAdjust="spacing" textLength="25" x="685" y="485.542">user</text><polygon fill="#181818" points="334.5,516.75,324.5,520.75,334.5,524.75,330.5,520.75" style="stroke:#181818;stroke-width:1.0;"/><line style="stroke:#181818;stroke-width:1.0;stroke-dasharray:2.0,2.0;" x1="328.5" x2="662" y1="520.75" y2="520.75"/><text fill="#000000" font-family="sans-serif" font-size="13" lengthAdjust="spacing" textLength="25" x="340.5" y="515.8936">user</text><polygon fill="#181818" points="755,547.1016,765,551.1016,755,555.1016,759,551.1016" style="stroke:#181818;stroke-width:1.0;"/><line style="stroke:#181818;stroke-width:1.0;" x1="323.5" x2="761" y1="551.1016" y2="551.1016"/><text fill="#000000" font-family="sans-serif" font-size="13" lengthAdjust="spacing" textLength="107" x="330.5" y="546.2451">SetRole(PATIENT)</text><polygon fill="#181818" points="334.5,577.4531,324.5,581.4531,334.5,585.4531,330.5,581.4531" style="stroke:#181818;stroke-width:1.0;"/><line style="stroke:#181818;stroke-width:1.0;stroke-dasharray:2.0,2.0;" x1="328.5" x2="771" y1="581.4531" y2="581.4531"/><text fill="#000000" font-family="sans-serif" font-size="13" lengthAdjust="spacing" textLength="22" x="340.5" y="576.5967">void</text><polygon fill="#181818" points="862,607.8047,872,611.8047,862,615.8047,866,611.8047" style="stroke:#181818;stroke-width:1.0;"/><line style="stroke:#181818;stroke-width:1.0;" x1="323.5" x2="868" y1="611.8047" y2="611.8047"/><text fill="#000000" font-family="sans-serif" font-size="13" lengthAdjust="spacing" textLength="93" x="330.5" y="606.9482">AddAsync(user)</text><polygon fill="#181818" points="334.5,638.1563,324.5,642.1563,334.5,646.1563,330.5,642.1563" style="stroke:#181818;stroke-width:1.0;"/><line style="stroke:#181818;stroke-width:1.0;stroke-dasharray:2.0,2.0;" x1="328.5" x2="878" y1="642.1563" y2="642.1563"/><text fill="#000000" font-family="sans-serif" font-size="13" lengthAdjust="spacing" textLength="25" x="340.5" y="637.2998">user</text><polygon fill="#181818" points="983.5,668.5078,993.5,672.5078,983.5,676.5078,987.5,672.5078" style="stroke:#181818;stroke-width:1.0;"/><line style="stroke:#181818;stroke-width:1.0;" x1="323.5" x2="989.5" y1="672.5078" y2="672.5078"/><text fill="#000000" font-family="sans-serif" font-size="13" lengthAdjust="spacing" textLength="100" x="330.5" y="667.6514">SetUserId(userId)</text><polygon fill="#181818" points="334.5,698.8594,324.5,702.8594,334.5,706.8594,330.5,702.8594" style="stroke:#181818;stroke-width:1.0;"/><line style="stroke:#181818;stroke-width:1.0;stroke-dasharray:2.0,2.0;" x1="328.5" x2="999.5" y1="702.8594" y2="702.8594"/><text fill="#000000" font-family="sans-serif" font-size="13" lengthAdjust="spacing" textLength="22" x="340.5" y="698.0029">void</text><polygon fill="#181818" points="524,729.2109,534,733.2109,524,737.2109,528,733.2109" style="stroke:#181818;stroke-width:1.0;"/><line style="stroke:#181818;stroke-width:1.0;" x1="323.5" x2="530" y1="733.2109" y2="733.2109"/><text fill="#000000" font-family="sans-serif" font-size="13" lengthAdjust="spacing" textLength="125" x="330.5" y="728.3545">UpdateAsync(patient)</text><polygon fill="#181818" points="334.5,759.5625,324.5,763.5625,334.5,767.5625,330.5,763.5625" style="stroke:#181818;stroke-width:1.0;"/><line style="stroke:#181818;stroke-width:1.0;stroke-dasharray:2.0,2.0;" x1="328.5" x2="540" y1="763.5625" y2="763.5625"/><text fill="#000000" font-family="sans-serif" font-size="13" lengthAdjust="spacing" textLength="39" x="340.5" y="758.7061">patient</text><polygon fill="#181818" points="646,789.9141,656,793.9141,646,797.9141,650,793.9141" style="stroke:#181818;stroke-width:1.0;"/><line style="stroke:#181818;stroke-width:1.0;" x1="323.5" x2="652" y1="793.9141" y2="793.9141"/><text fill="#000000" font-family="sans-serif" font-size="13" lengthAdjust="spacing" textLength="67" x="330.5" y="789.0576">ToDto(user)</text><polygon fill="#181818" points="436,820.2656,426,824.2656,436,828.2656,432,824.2656" style="stroke:#181818;stroke-width:1.0;"/><line style="stroke:#181818;stroke-width:1.0;" x1="430" x2="657" y1="824.2656" y2="824.2656"/><text fill="#000000" font-family="sans-serif" font-size="13" lengthAdjust="spacing" textLength="107" x="442" y="819.4092">new UserDto(user)</text><polygon fill="#181818" points="646,850.6172,656,854.6172,646,858.6172,650,854.6172" style="stroke:#181818;stroke-width:1.0;"/><line style="stroke:#181818;stroke-width:1.0;stroke-dasharray:2.0,2.0;" x1="420" x2="652" y1="854.6172" y2="854.6172"/><text fill="#000000" font-family="sans-serif" font-size="13" lengthAdjust="spacing" textLength="18" x="427" y="849.7607">dto</text><polygon fill="#181818" points="334.5,880.9688,324.5,884.9688,334.5,888.9688,330.5,884.9688" style="stroke:#181818;stroke-width:1.0;"/><line style="stroke:#181818;stroke-width:1.0;stroke-dasharray:2.0,2.0;" x1="328.5" x2="662" y1="884.9688" y2="884.9688"/><text fill="#000000" font-family="sans-serif" font-size="13" lengthAdjust="spacing" textLength="18" x="340.5" y="880.1123">dto</text><polygon fill="#181818" points="129,911.3203,119,915.3203,129,919.3203,125,915.3203" style="stroke:#181818;stroke-width:1.0;"/><line style="stroke:#181818;stroke-width:1.0;stroke-dasharray:2.0,2.0;" x1="123" x2="317.5" y1="915.3203" y2="915.3203"/><text fill="#000000" font-family="sans-serif" font-size="13" lengthAdjust="spacing" textLength="18" x="135" y="910.4639">dto</text><polygon fill="#181818" points="11,941.6719,1,945.6719,11,949.6719,7,945.6719" style="stroke:#181818;stroke-width:1.0;"/><line style="stroke:#181818;stroke-width:1.0;stroke-dasharray:2.0,2.0;" x1="5" x2="112" y1="945.6719" y2="945.6719"/><text fill="#000000" font-family="sans-serif" font-size="13" lengthAdjust="spacing" textLength="70" x="17" y="940.8154">201 Created</text><!--SRC=[nLLDZzem4BtdLrXxsZr4IzjRX90ehAeSjaK4Ve0RJwb5rdPZmuh- -euT9zZvGBIN-aBYl3VpPlp6w2CNYjRqZIXQ7ka12dEfWDHG6YeE5IIw0-YVbCbtBWxa1wrq-ANY0in50L6okjYN9FXOLbJhfJ4r_tuoa9TI5Fmta5cI66umLG6_JY1A86jE3vRmMAoVI4hsgzdiKv9W4CDBhgWmv27RQwXNKfXQLXNK3uHgSdqbypbLgk8bDLoAnIBcvilN0kepBy7Hy1NnkjdfOrsU4EsVfndCI4TQ6-a8-8jW9jye7oZ9yWqg166seAJcHjONny5TkuCy1RNcsjYszCasoIkMwQjl7YTJdH3jT3cmVRYXodxkIMgtRcjIJJcPBwijnZw7wP9q4PnMHZRVYXrvfee_Mvb9Gal3pzH004eIWYiuOWo19vUHBJ1kJVhur40wBdvjTkooXvpsiXfv1D5060nfSIv_xXbPChRK5r4-ua7tKthGDMth5Wo0FiZ85p1RMK6hDI8ZuBfhbtLE6gRUB7VvozVT5HN8ZjWZQL-mzTK_vWNB_Qkiti0ky-UBozqqpOKQK-4PiP9s3Y8rtcEZUWPH0atDW6Ha9wsNW-EBT3IeM8OVBOnXcHaHy4v6OaHnzheVnIutTsaWvZI01TKCOxHAmdx48G9wlvIW5qqTXNUZzzLOEuOIkX8w0MV9sQY0cDnBt_YZcoPRnPI0eJ6ws-Y-JWo3n5vrTvPjXmNcp8d9sOHDO_DvcxeRxhwk34ACpSrUCSGshV66_zzJWxC-UKgtfyRTGUtGZ8IvVHs5LrAhXlL1KtVIrD140UwPcTv_HySFkD7jFq_JYF1nze6iQa0SkY8W1VzmVm00]--></g></svg>