<?xml version="1.0" encoding="us-ascii" standalone="no"?><svg xmlns="http://www.w3.org/2000/svg" xmlns:xlink="http://www.w3.org/1999/xlink" contentStyleType="text/css" height="760px" preserveAspectRatio="none" style="width:1506px;height:760px;background:#FFFFFF;" version="1.1" viewBox="0 0 1506 760" width="1506px" zoomAndPan="magnify"><defs/><g><text fill="#000000" font-family="sans-serif" font-size="14" font-weight="bold" lengthAdjust="spacing" textLength="190" x="651.25" y="24.5332">Class Diagram (CD) - UC003</text><!--class UserController--><g id="elem_UserController"><rect codeLine="9" fill="#F1F1F1" height="65.6094" id="UserController" rx="2.5" ry="2.5" style="stroke:#181818;stroke-width:0.5;" width="407" x="822" y="45.6094"/><ellipse cx="975.75" cy="61.6094" fill="#ADD1B2" rx="11" ry="11" style="stroke:#181818;stroke-width:1.0;"/><path d="M978.5156,57.4844 Q978.6719,57.2656 978.8594,57.1563 Q979.0469,57.0469 979.2656,57.0469 Q979.6406,57.0469 979.875,57.3125 Q980.1094,57.5625 980.1094,58.1719 L980.1094,59.625 Q980.1094,60.2344 979.875,60.5 Q979.6406,60.7656 979.2656,60.7656 Q978.9219,60.7656 978.7188,60.5625 Q978.5156,60.375 978.4063,59.8594 Q978.3594,59.5 978.1719,59.3125 Q977.8438,58.9375 977.2344,58.7188 Q976.625,58.5 976,58.5 Q975.2344,58.5 974.5938,58.8281 Q973.9688,59.1563 973.4688,59.9063 Q972.9844,60.6563 972.9844,61.6875 L972.9844,62.7813 Q972.9844,64.0156 973.875,64.8438 Q974.7656,65.6563 976.3594,65.6563 Q977.2969,65.6563 977.9531,65.4063 Q978.3438,65.25 978.7656,64.8125 Q979.0313,64.5469 979.1719,64.4688 Q979.3281,64.3906 979.5313,64.3906 Q979.8594,64.3906 980.1094,64.6563 Q980.375,64.9063 980.375,65.25 Q980.375,65.5938 980.0313,66 Q979.5313,66.5781 978.7344,66.9063 Q977.6563,67.3594 976.3594,67.3594 Q974.8438,67.3594 973.6406,66.7344 Q972.6563,66.2344 971.9688,65.1719 Q971.2813,64.0938 971.2813,62.8125 L971.2813,61.6563 Q971.2813,60.3281 971.8906,59.1875 Q972.5156,58.0313 973.6094,57.4219 Q974.7031,56.7969 975.9375,56.7969 Q976.6719,56.7969 977.3125,56.9688 Q977.9688,57.125 978.5156,57.4844 Z " fill="#000000"/><text fill="#000000" font-family="sans-serif" font-size="14" lengthAdjust="spacing" textLength="91" x="996.25" y="67.3379">UserController</text><line style="stroke:#181818;stroke-width:0.5;" x1="823" x2="1228" y1="77.6094" y2="77.6094"/><line style="stroke:#181818;stroke-width:0.5;" x1="823" x2="1228" y1="85.6094" y2="85.6094"/><text fill="#000000" font-family="sans-serif" font-size="14" lengthAdjust="spacing" textLength="395" x="828" y="104.1426">+Create(dto: CreatingUserDto): Task&lt;ActionResult&lt;UserDto&gt;&gt;</text></g><!--class UserService--><g id="elem_UserService"><rect codeLine="13" fill="#F1F1F1" height="65.6094" id="UserService" rx="2.5" ry="2.5" style="stroke:#181818;stroke-width:0.5;" width="332" x="549.5" y="198.1094"/><ellipse cx="673.25" cy="214.1094" fill="#ADD1B2" rx="11" ry="11" style="stroke:#181818;stroke-width:1.0;"/><path d="M676.0156,209.9844 Q676.1719,209.7656 676.3594,209.6563 Q676.5469,209.5469 676.7656,209.5469 Q677.1406,209.5469 677.375,209.8125 Q677.6094,210.0625 677.6094,210.6719 L677.6094,212.125 Q677.6094,212.7344 677.375,213 Q677.1406,213.2656 676.7656,213.2656 Q676.4219,213.2656 676.2188,213.0625 Q676.0156,212.875 675.9063,212.3594 Q675.8594,212 675.6719,211.8125 Q675.3438,211.4375 674.7344,211.2188 Q674.125,211 673.5,211 Q672.7344,211 672.0938,211.3281 Q671.4688,211.6563 670.9688,212.4063 Q670.4844,213.1563 670.4844,214.1875 L670.4844,215.2813 Q670.4844,216.5156 671.375,217.3438 Q672.2656,218.1563 673.8594,218.1563 Q674.7969,218.1563 675.4531,217.9063 Q675.8438,217.75 676.2656,217.3125 Q676.5313,217.0469 676.6719,216.9688 Q676.8281,216.8906 677.0313,216.8906 Q677.3594,216.8906 677.6094,217.1563 Q677.875,217.4063 677.875,217.75 Q677.875,218.0938 677.5313,218.5 Q677.0313,219.0781 676.2344,219.4063 Q675.1563,219.8594 673.8594,219.8594 Q672.3438,219.8594 671.1406,219.2344 Q670.1563,218.7344 669.4688,217.6719 Q668.7813,216.5938 668.7813,215.3125 L668.7813,214.1563 Q668.7813,212.8281 669.3906,211.6875 Q670.0156,210.5313 671.1094,209.9219 Q672.2031,209.2969 673.4375,209.2969 Q674.1719,209.2969 674.8125,209.4688 Q675.4688,209.625 676.0156,209.9844 Z " fill="#000000"/><text fill="#000000" font-family="sans-serif" font-size="14" lengthAdjust="spacing" textLength="76" x="693.75" y="219.8379">UserService</text><line style="stroke:#181818;stroke-width:0.5;" x1="550.5" x2="880.5" y1="230.1094" y2="230.1094"/><line style="stroke:#181818;stroke-width:0.5;" x1="550.5" x2="880.5" y1="238.1094" y2="238.1094"/><text fill="#000000" font-family="sans-serif" font-size="14" lengthAdjust="spacing" textLength="320" x="555.5" y="256.6426">+AddAsync(dto: CreatingUserDto): Task&lt;UserDto&gt;</text></g><!--class IAMService--><g id="elem_IAMService"><rect codeLine="17" fill="#F1F1F1" height="65.6094" id="IAMService" rx="2.5" ry="2.5" style="stroke:#181818;stroke-width:0.5;" width="326" x="1173.5" y="198.1094"/><ellipse cx="1297.25" cy="214.1094" fill="#ADD1B2" rx="11" ry="11" style="stroke:#181818;stroke-width:1.0;"/><path d="M1300.0156,209.9844 Q1300.1719,209.7656 1300.3594,209.6563 Q1300.5469,209.5469 1300.7656,209.5469 Q1301.1406,209.5469 1301.375,209.8125 Q1301.6094,210.0625 1301.6094,210.6719 L1301.6094,212.125 Q1301.6094,212.7344 1301.375,213 Q1301.1406,213.2656 1300.7656,213.2656 Q1300.4219,213.2656 1300.2188,213.0625 Q1300.0156,212.875 1299.9063,212.3594 Q1299.8594,212 1299.6719,211.8125 Q1299.3438,211.4375 1298.7344,211.2188 Q1298.125,211 1297.5,211 Q1296.7344,211 1296.0938,211.3281 Q1295.4688,211.6563 1294.9688,212.4063 Q1294.4844,213.1563 1294.4844,214.1875 L1294.4844,215.2813 Q1294.4844,216.5156 1295.375,217.3438 Q1296.2656,218.1563 1297.8594,218.1563 Q1298.7969,218.1563 1299.4531,217.9063 Q1299.8438,217.75 1300.2656,217.3125 Q1300.5313,217.0469 1300.6719,216.9688 Q1300.8281,216.8906 1301.0313,216.8906 Q1301.3594,216.8906 1301.6094,217.1563 Q1301.875,217.4063 1301.875,217.75 Q1301.875,218.0938 1301.5313,218.5 Q1301.0313,219.0781 1300.2344,219.4063 Q1299.1563,219.8594 1297.8594,219.8594 Q1296.3438,219.8594 1295.1406,219.2344 Q1294.1563,218.7344 1293.4688,217.6719 Q1292.7813,216.5938 1292.7813,215.3125 L1292.7813,214.1563 Q1292.7813,212.8281 1293.3906,211.6875 Q1294.0156,210.5313 1295.1094,209.9219 Q1296.2031,209.2969 1297.4375,209.2969 Q1298.1719,209.2969 1298.8125,209.4688 Q1299.4688,209.625 1300.0156,209.9844 Z " fill="#000000"/><text fill="#000000" font-family="sans-serif" font-size="14" lengthAdjust="spacing" textLength="70" x="1317.75" y="219.8379">IAMService</text><line style="stroke:#181818;stroke-width:0.5;" x1="1174.5" x2="1498.5" y1="230.1094" y2="230.1094"/><line style="stroke:#181818;stroke-width:0.5;" x1="1174.5" x2="1498.5" y1="238.1094" y2="238.1094"/><text fill="#000000" font-family="sans-serif" font-size="14" lengthAdjust="spacing" textLength="314" x="1179.5" y="256.6426">+Redirect(): Task&lt;ActionResult&lt;RegisterToken&gt;&gt;</text></g><!--class RegisterToken--><g id="elem_RegisterToken"><rect codeLine="21" fill="#F1F1F1" height="65.6094" id="RegisterToken" rx="2.5" ry="2.5" style="stroke:#181818;stroke-width:0.5;" width="125" x="1274" y="368.1094"/><ellipse cx="1289" cy="384.1094" fill="#ADD1B2" rx="11" ry="11" style="stroke:#181818;stroke-width:1.0;"/><path d="M1291.7656,379.9844 Q1291.9219,379.7656 1292.1094,379.6563 Q1292.2969,379.5469 1292.5156,379.5469 Q1292.8906,379.5469 1293.125,379.8125 Q1293.3594,380.0625 1293.3594,380.6719 L1293.3594,382.125 Q1293.3594,382.7344 1293.125,383 Q1292.8906,383.2656 1292.5156,383.2656 Q1292.1719,383.2656 1291.9688,383.0625 Q1291.7656,382.875 1291.6563,382.3594 Q1291.6094,382 1291.4219,381.8125 Q1291.0938,381.4375 1290.4844,381.2188 Q1289.875,381 1289.25,381 Q1288.4844,381 1287.8438,381.3281 Q1287.2188,381.6563 1286.7188,382.4063 Q1286.2344,383.1563 1286.2344,384.1875 L1286.2344,385.2813 Q1286.2344,386.5156 1287.125,387.3438 Q1288.0156,388.1563 1289.6094,388.1563 Q1290.5469,388.1563 1291.2031,387.9063 Q1291.5938,387.75 1292.0156,387.3125 Q1292.2813,387.0469 1292.4219,386.9688 Q1292.5781,386.8906 1292.7813,386.8906 Q1293.1094,386.8906 1293.3594,387.1563 Q1293.625,387.4063 1293.625,387.75 Q1293.625,388.0938 1293.2813,388.5 Q1292.7813,389.0781 1291.9844,389.4063 Q1290.9063,389.8594 1289.6094,389.8594 Q1288.0938,389.8594 1286.8906,389.2344 Q1285.9063,388.7344 1285.2188,387.6719 Q1284.5313,386.5938 1284.5313,385.3125 L1284.5313,384.1563 Q1284.5313,382.8281 1285.1406,381.6875 Q1285.7656,380.5313 1286.8594,379.9219 Q1287.9531,379.2969 1289.1875,379.2969 Q1289.9219,379.2969 1290.5625,379.4688 Q1291.2188,379.625 1291.7656,379.9844 Z " fill="#000000"/><text fill="#000000" font-family="sans-serif" font-size="14" lengthAdjust="spacing" textLength="93" x="1303" y="389.8379">RegisterToken</text><line style="stroke:#181818;stroke-width:0.5;" x1="1275" x2="1398" y1="400.1094" y2="400.1094"/><text fill="#000000" font-family="sans-serif" font-size="14" lengthAdjust="spacing" textLength="84" x="1280" y="418.6426">+Email: Email</text><line style="stroke:#181818;stroke-width:0.5;" x1="1275" x2="1398" y1="425.7188" y2="425.7188"/></g><!--class IPatientRepository--><g id="elem_IPatientRepository"><rect codeLine="26" fill="#F1F1F1" height="83.2188" id="IPatientRepository" rx="2.5" ry="2.5" style="stroke:#181818;stroke-width:0.5;" width="315" x="7" y="359.6094"/><ellipse cx="102.25" cy="375.6094" fill="#B4A7E5" rx="11" ry="11" style="stroke:#181818;stroke-width:1.0;"/><path d="M103.2031,372.25 L103.2031,378.9063 L104.9219,378.9063 Q105.5313,378.9063 105.7969,379.1406 Q106.0625,379.375 106.0625,379.7656 Q106.0625,380.1406 105.7969,380.375 Q105.5313,380.6094 104.9219,380.6094 L99.7813,380.6094 Q99.1719,380.6094 98.9063,380.375 Q98.6406,380.1406 98.6406,379.75 Q98.6406,379.375 98.9063,379.1406 Q99.1719,378.9063 99.7813,378.9063 L101.5,378.9063 L101.5,372.25 L99.7813,372.25 Q99.1719,372.25 98.9063,372.0156 Q98.6406,371.7813 98.6406,371.3906 Q98.6406,371.0156 98.9063,370.7813 Q99.1719,370.5469 99.7813,370.5469 L104.9219,370.5469 Q105.5313,370.5469 105.7969,370.7813 Q106.0625,371.0156 106.0625,371.3906 Q106.0625,371.7813 105.7969,372.0156 Q105.5313,372.25 104.9219,372.25 L103.2031,372.25 Z " fill="#000000"/><text fill="#000000" font-family="sans-serif" font-size="14" font-style="italic" lengthAdjust="spacing" textLength="116" x="122.75" y="381.3379">IPatientRepository</text><line style="stroke:#181818;stroke-width:0.5;" x1="8" x2="321" y1="391.6094" y2="391.6094"/><line style="stroke:#181818;stroke-width:0.5;" x1="8" x2="321" y1="399.6094" y2="399.6094"/><text fill="#000000" font-family="sans-serif" font-size="14" lengthAdjust="spacing" textLength="303" x="13" y="418.1426">+GetByEmailAsync(email: Email): Task&lt;Patient&gt;</text><text fill="#000000" font-family="sans-serif" font-size="14" lengthAdjust="spacing" textLength="295" x="13" y="435.752">+UpdateAsync(patient: Patient): Task&lt;Patient&gt;</text></g><!--class IUserRepository--><g id="elem_IUserRepository"><rect codeLine="31" fill="#F1F1F1" height="65.6094" id="IUserRepository" rx="2.5" ry="2.5" style="stroke:#181818;stroke-width:0.5;" width="310" x="584.5" y="368.1094"/><ellipse cx="684.25" cy="384.1094" fill="#B4A7E5" rx="11" ry="11" style="stroke:#181818;stroke-width:1.0;"/><path d="M685.2031,380.75 L685.2031,387.4063 L686.9219,387.4063 Q687.5313,387.4063 687.7969,387.6406 Q688.0625,387.875 688.0625,388.2656 Q688.0625,388.6406 687.7969,388.875 Q687.5313,389.1094 686.9219,389.1094 L681.7813,389.1094 Q681.1719,389.1094 680.9063,388.875 Q680.6406,388.6406 680.6406,388.25 Q680.6406,387.875 680.9063,387.6406 Q681.1719,387.4063 681.7813,387.4063 L683.5,387.4063 L683.5,380.75 L681.7813,380.75 Q681.1719,380.75 680.9063,380.5156 Q680.6406,380.2813 680.6406,379.8906 Q680.6406,379.5156 680.9063,379.2813 Q681.1719,379.0469 681.7813,379.0469 L686.9219,379.0469 Q687.5313,379.0469 687.7969,379.2813 Q688.0625,379.5156 688.0625,379.8906 Q688.0625,380.2813 687.7969,380.5156 Q687.5313,380.75 686.9219,380.75 L685.2031,380.75 Z " fill="#000000"/><text fill="#000000" font-family="sans-serif" font-size="14" font-style="italic" lengthAdjust="spacing" textLength="102" x="704.75" y="389.8379">IUserRepository</text><line style="stroke:#181818;stroke-width:0.5;" x1="585.5" x2="893.5" y1="400.1094" y2="400.1094"/><line style="stroke:#181818;stroke-width:0.5;" x1="585.5" x2="893.5" y1="408.1094" y2="408.1094"/><text fill="#000000" font-family="sans-serif" font-size="14" lengthAdjust="spacing" textLength="298" x="590.5" y="426.6426">+AddAsync(dto: CreatingUserDto): Task&lt;User&gt;</text></g><!--class CreatingUserDto--><g id="elem_CreatingUserDto"><rect codeLine="35" fill="#F1F1F1" height="100.8281" id="CreatingUserDto" rx="2.5" ry="2.5" style="stroke:#181818;stroke-width:0.5;" width="192" x="357.5" y="350.6094"/><ellipse cx="397.25" cy="366.6094" fill="#ADD1B2" rx="11" ry="11" style="stroke:#181818;stroke-width:1.0;"/><path d="M400.0156,362.4844 Q400.1719,362.2656 400.3594,362.1563 Q400.5469,362.0469 400.7656,362.0469 Q401.1406,362.0469 401.375,362.3125 Q401.6094,362.5625 401.6094,363.1719 L401.6094,364.625 Q401.6094,365.2344 401.375,365.5 Q401.1406,365.7656 400.7656,365.7656 Q400.4219,365.7656 400.2188,365.5625 Q400.0156,365.375 399.9063,364.8594 Q399.8594,364.5 399.6719,364.3125 Q399.3438,363.9375 398.7344,363.7188 Q398.125,363.5 397.5,363.5 Q396.7344,363.5 396.0938,363.8281 Q395.4688,364.1563 394.9688,364.9063 Q394.4844,365.6563 394.4844,366.6875 L394.4844,367.7813 Q394.4844,369.0156 395.375,369.8438 Q396.2656,370.6563 397.8594,370.6563 Q398.7969,370.6563 399.4531,370.4063 Q399.8438,370.25 400.2656,369.8125 Q400.5313,369.5469 400.6719,369.4688 Q400.8281,369.3906 401.0313,369.3906 Q401.3594,369.3906 401.6094,369.6563 Q401.875,369.9063 401.875,370.25 Q401.875,370.5938 401.5313,371 Q401.0313,371.5781 400.2344,371.9063 Q399.1563,372.3594 397.8594,372.3594 Q396.3438,372.3594 395.1406,371.7344 Q394.1563,371.2344 393.4688,370.1719 Q392.7813,369.0938 392.7813,367.8125 L392.7813,366.6563 Q392.7813,365.3281 393.3906,364.1875 Q394.0156,363.0313 395.1094,362.4219 Q396.2031,361.7969 397.4375,361.7969 Q398.1719,361.7969 398.8125,361.9688 Q399.4688,362.125 400.0156,362.4844 Z " fill="#000000"/><text fill="#000000" font-family="sans-serif" font-size="14" lengthAdjust="spacing" textLength="105" x="416.75" y="372.3379">CreatingUserDto</text><line style="stroke:#181818;stroke-width:0.5;" x1="358.5" x2="548.5" y1="382.6094" y2="382.6094"/><text fill="#000000" font-family="sans-serif" font-size="14" lengthAdjust="spacing" textLength="84" x="363.5" y="401.1426">+Email: Email</text><line style="stroke:#181818;stroke-width:0.5;" x1="358.5" x2="548.5" y1="408.2188" y2="408.2188"/><text fill="#000000" font-family="sans-serif" font-size="14" lengthAdjust="spacing" textLength="114" x="363.5" y="426.752">+getEmail(): Email</text><text fill="#000000" font-family="sans-serif" font-size="14" lengthAdjust="spacing" textLength="180" x="363.5" y="444.3613">+setEmail(email: Email): void</text></g><!--class User--><g id="elem_User"><rect codeLine="41" fill="#F1F1F1" height="136.0469" id="User" rx="2.5" ry="2.5" style="stroke:#181818;stroke-width:0.5;" width="166" x="656.5" y="573.6094"/><ellipse cx="720.75" cy="589.6094" fill="#ADD1B2" rx="11" ry="11" style="stroke:#181818;stroke-width:1.0;"/><path d="M723.5156,585.4844 Q723.6719,585.2656 723.8594,585.1563 Q724.0469,585.0469 724.2656,585.0469 Q724.6406,585.0469 724.875,585.3125 Q725.1094,585.5625 725.1094,586.1719 L725.1094,587.625 Q725.1094,588.2344 724.875,588.5 Q724.6406,588.7656 724.2656,588.7656 Q723.9219,588.7656 723.7188,588.5625 Q723.5156,588.375 723.4063,587.8594 Q723.3594,587.5 723.1719,587.3125 Q722.8438,586.9375 722.2344,586.7188 Q721.625,586.5 721,586.5 Q720.2344,586.5 719.5938,586.8281 Q718.9688,587.1563 718.4688,587.9063 Q717.9844,588.6563 717.9844,589.6875 L717.9844,590.7813 Q717.9844,592.0156 718.875,592.8438 Q719.7656,593.6563 721.3594,593.6563 Q722.2969,593.6563 722.9531,593.4063 Q723.3438,593.25 723.7656,592.8125 Q724.0313,592.5469 724.1719,592.4688 Q724.3281,592.3906 724.5313,592.3906 Q724.8594,592.3906 725.1094,592.6563 Q725.375,592.9063 725.375,593.25 Q725.375,593.5938 725.0313,594 Q724.5313,594.5781 723.7344,594.9063 Q722.6563,595.3594 721.3594,595.3594 Q719.8438,595.3594 718.6406,594.7344 Q717.6563,594.2344 716.9688,593.1719 Q716.2813,592.0938 716.2813,590.8125 L716.2813,589.6563 Q716.2813,588.3281 716.8906,587.1875 Q717.5156,586.0313 718.6094,585.4219 Q719.7031,584.7969 720.9375,584.7969 Q721.6719,584.7969 722.3125,584.9688 Q722.9688,585.125 723.5156,585.4844 Z " fill="#000000"/><text fill="#000000" font-family="sans-serif" font-size="14" lengthAdjust="spacing" textLength="29" x="741.25" y="595.3379">User</text><line style="stroke:#181818;stroke-width:0.5;" x1="657.5" x2="821.5" y1="605.6094" y2="605.6094"/><text fill="#000000" font-family="sans-serif" font-size="14" lengthAdjust="spacing" textLength="96" x="662.5" y="624.1426">+UserId: UserId</text><text fill="#000000" font-family="sans-serif" font-size="14" lengthAdjust="spacing" textLength="144" x="662.5" y="641.752">+Username: Username</text><text fill="#000000" font-family="sans-serif" font-size="14" lengthAdjust="spacing" textLength="84" x="662.5" y="659.3613">+Email: Email</text><text fill="#000000" font-family="sans-serif" font-size="14" lengthAdjust="spacing" textLength="74" x="662.5" y="676.9707">+Role: Role</text><text fill="#000000" font-family="sans-serif" font-size="14" lengthAdjust="spacing" textLength="154" x="662.5" y="694.5801">+UserStatus: UserStatus</text><line style="stroke:#181818;stroke-width:0.5;" x1="657.5" x2="821.5" y1="701.6563" y2="701.6563"/></g><!--class UserDto--><g id="elem_UserDto"><rect codeLine="49" fill="#F1F1F1" height="100.8281" id="UserDto" rx="2.5" ry="2.5" style="stroke:#181818;stroke-width:0.5;" width="166" x="929.5" y="350.6094"/><ellipse cx="982.75" cy="366.6094" fill="#ADD1B2" rx="11" ry="11" style="stroke:#181818;stroke-width:1.0;"/><path d="M985.5156,362.4844 Q985.6719,362.2656 985.8594,362.1563 Q986.0469,362.0469 986.2656,362.0469 Q986.6406,362.0469 986.875,362.3125 Q987.1094,362.5625 987.1094,363.1719 L987.1094,364.625 Q987.1094,365.2344 986.875,365.5 Q986.6406,365.7656 986.2656,365.7656 Q985.9219,365.7656 985.7188,365.5625 Q985.5156,365.375 985.4063,364.8594 Q985.3594,364.5 985.1719,364.3125 Q984.8438,363.9375 984.2344,363.7188 Q983.625,363.5 983,363.5 Q982.2344,363.5 981.5938,363.8281 Q980.9688,364.1563 980.4688,364.9063 Q979.9844,365.6563 979.9844,366.6875 L979.9844,367.7813 Q979.9844,369.0156 980.875,369.8438 Q981.7656,370.6563 983.3594,370.6563 Q984.2969,370.6563 984.9531,370.4063 Q985.3438,370.25 985.7656,369.8125 Q986.0313,369.5469 986.1719,369.4688 Q986.3281,369.3906 986.5313,369.3906 Q986.8594,369.3906 987.1094,369.6563 Q987.375,369.9063 987.375,370.25 Q987.375,370.5938 987.0313,371 Q986.5313,371.5781 985.7344,371.9063 Q984.6563,372.3594 983.3594,372.3594 Q981.8438,372.3594 980.6406,371.7344 Q979.6563,371.2344 978.9688,370.1719 Q978.2813,369.0938 978.2813,367.8125 L978.2813,366.6563 Q978.2813,365.3281 978.8906,364.1875 Q979.5156,363.0313 980.6094,362.4219 Q981.7031,361.7969 982.9375,361.7969 Q983.6719,361.7969 984.3125,361.9688 Q984.9688,362.125 985.5156,362.4844 Z " fill="#000000"/><text fill="#000000" font-family="sans-serif" font-size="14" lengthAdjust="spacing" textLength="51" x="1003.25" y="372.3379">UserDto</text><line style="stroke:#181818;stroke-width:0.5;" x1="930.5" x2="1094.5" y1="382.6094" y2="382.6094"/><text fill="#000000" font-family="sans-serif" font-size="14" lengthAdjust="spacing" textLength="84" x="935.5" y="401.1426">+Email: Email</text><text fill="#000000" font-family="sans-serif" font-size="14" lengthAdjust="spacing" textLength="74" x="935.5" y="418.752">+Role: Role</text><text fill="#000000" font-family="sans-serif" font-size="14" lengthAdjust="spacing" textLength="154" x="935.5" y="436.3613">+UserStatus: UserStatus</text><line style="stroke:#181818;stroke-width:0.5;" x1="930.5" x2="1094.5" y1="443.4375" y2="443.4375"/></g><!--class UserMapper--><g id="elem_UserMapper"><rect codeLine="55" fill="#F1F1F1" height="83.2188" id="UserMapper" rx="2.5" ry="2.5" style="stroke:#181818;stroke-width:0.5;" width="222" x="916.5" y="189.6094"/><ellipse cx="984.75" cy="205.6094" fill="#ADD1B2" rx="11" ry="11" style="stroke:#181818;stroke-width:1.0;"/><path d="M987.5156,201.4844 Q987.6719,201.2656 987.8594,201.1563 Q988.0469,201.0469 988.2656,201.0469 Q988.6406,201.0469 988.875,201.3125 Q989.1094,201.5625 989.1094,202.1719 L989.1094,203.625 Q989.1094,204.2344 988.875,204.5 Q988.6406,204.7656 988.2656,204.7656 Q987.9219,204.7656 987.7188,204.5625 Q987.5156,204.375 987.4063,203.8594 Q987.3594,203.5 987.1719,203.3125 Q986.8438,202.9375 986.2344,202.7188 Q985.625,202.5 985,202.5 Q984.2344,202.5 983.5938,202.8281 Q982.9688,203.1563 982.4688,203.9063 Q981.9844,204.6563 981.9844,205.6875 L981.9844,206.7813 Q981.9844,208.0156 982.875,208.8438 Q983.7656,209.6563 985.3594,209.6563 Q986.2969,209.6563 986.9531,209.4063 Q987.3438,209.25 987.7656,208.8125 Q988.0313,208.5469 988.1719,208.4688 Q988.3281,208.3906 988.5313,208.3906 Q988.8594,208.3906 989.1094,208.6563 Q989.375,208.9063 989.375,209.25 Q989.375,209.5938 989.0313,210 Q988.5313,210.5781 987.7344,210.9063 Q986.6563,211.3594 985.3594,211.3594 Q983.8438,211.3594 982.6406,210.7344 Q981.6563,210.2344 980.9688,209.1719 Q980.2813,208.0938 980.2813,206.8125 L980.2813,205.6563 Q980.2813,204.3281 980.8906,203.1875 Q981.5156,202.0313 982.6094,201.4219 Q983.7031,200.7969 984.9375,200.7969 Q985.6719,200.7969 986.3125,200.9688 Q986.9688,201.125 987.5156,201.4844 Z " fill="#000000"/><text fill="#000000" font-family="sans-serif" font-size="14" lengthAdjust="spacing" textLength="77" x="1005.25" y="211.3379">UserMapper</text><line style="stroke:#181818;stroke-width:0.5;" x1="917.5" x2="1137.5" y1="221.6094" y2="221.6094"/><line style="stroke:#181818;stroke-width:0.5;" x1="917.5" x2="1137.5" y1="229.6094" y2="229.6094"/><text fill="#000000" font-family="sans-serif" font-size="14" lengthAdjust="spacing" textLength="180" x="922.5" y="248.1426">+ToUser(dto: UserDto): User</text><text fill="#000000" font-family="sans-serif" font-size="14" lengthAdjust="spacing" textLength="210" x="922.5" y="265.752">+ToUserDto(user: User): UserDto</text></g><!--class Patient--><g id="elem_Patient"><rect codeLine="60" fill="#F1F1F1" height="224.0938" id="Patient" rx="2.5" ry="2.5" style="stroke:#181818;stroke-width:0.5;" width="314" x="153.5" y="529.6094"/><ellipse cx="284.25" cy="545.6094" fill="#ADD1B2" rx="11" ry="11" style="stroke:#181818;stroke-width:1.0;"/><path d="M287.0156,541.4844 Q287.1719,541.2656 287.3594,541.1563 Q287.5469,541.0469 287.7656,541.0469 Q288.1406,541.0469 288.375,541.3125 Q288.6094,541.5625 288.6094,542.1719 L288.6094,543.625 Q288.6094,544.2344 288.375,544.5 Q288.1406,544.7656 287.7656,544.7656 Q287.4219,544.7656 287.2188,544.5625 Q287.0156,544.375 286.9063,543.8594 Q286.8594,543.5 286.6719,543.3125 Q286.3438,542.9375 285.7344,542.7188 Q285.125,542.5 284.5,542.5 Q283.7344,542.5 283.0938,542.8281 Q282.4688,543.1563 281.9688,543.9063 Q281.4844,544.6563 281.4844,545.6875 L281.4844,546.7813 Q281.4844,548.0156 282.375,548.8438 Q283.2656,549.6563 284.8594,549.6563 Q285.7969,549.6563 286.4531,549.4063 Q286.8438,549.25 287.2656,548.8125 Q287.5313,548.5469 287.6719,548.4688 Q287.8281,548.3906 288.0313,548.3906 Q288.3594,548.3906 288.6094,548.6563 Q288.875,548.9063 288.875,549.25 Q288.875,549.5938 288.5313,550 Q288.0313,550.5781 287.2344,550.9063 Q286.1563,551.3594 284.8594,551.3594 Q283.3438,551.3594 282.1406,550.7344 Q281.1563,550.2344 280.4688,549.1719 Q279.7813,548.0938 279.7813,546.8125 L279.7813,545.6563 Q279.7813,544.3281 280.3906,543.1875 Q281.0156,542.0313 282.1094,541.4219 Q283.2031,540.7969 284.4375,540.7969 Q285.1719,540.7969 285.8125,540.9688 Q286.4688,541.125 287.0156,541.4844 Z " fill="#000000"/><text fill="#000000" font-family="sans-serif" font-size="14" lengthAdjust="spacing" textLength="44" x="304.75" y="551.3379">Patient</text><line style="stroke:#181818;stroke-width:0.5;" x1="154.5" x2="466.5" y1="561.6094" y2="561.6094"/><text fill="#000000" font-family="sans-serif" font-size="14" lengthAdjust="spacing" textLength="126" x="159.5" y="580.1426">+PatientId: PatientId</text><text fill="#000000" font-family="sans-serif" font-size="14" lengthAdjust="spacing" textLength="96" x="159.5" y="597.752">+UserId: UserId</text><text fill="#000000" font-family="sans-serif" font-size="14" lengthAdjust="spacing" textLength="182" x="159.5" y="615.3613">note right of Patient: optional</text><text fill="#000000" font-family="sans-serif" font-size="14" lengthAdjust="spacing" textLength="134" x="159.5" y="632.9707">+FullName: FullName</text><text fill="#000000" font-family="sans-serif" font-size="14" lengthAdjust="spacing" textLength="164" x="159.5" y="650.5801">+DateOfBirth: DateOfBirth</text><text fill="#000000" font-family="sans-serif" font-size="14" lengthAdjust="spacing" textLength="112" x="159.5" y="668.1895">+Gender: Gender</text><text fill="#000000" font-family="sans-serif" font-size="14" lengthAdjust="spacing" textLength="302" x="159.5" y="685.7988">+MedicalRecordNumber: MedicalRecordNumber</text><text fill="#000000" font-family="sans-serif" font-size="14" lengthAdjust="spacing" textLength="254" x="159.5" y="703.4082">+ContactInformation: ContactInformation</text><text fill="#000000" font-family="sans-serif" font-size="14" lengthAdjust="spacing" textLength="232" x="159.5" y="721.0176">+MedicalCondition: MedicalCondition</text><text fill="#000000" font-family="sans-serif" font-size="14" lengthAdjust="spacing" textLength="256" x="159.5" y="738.627">+EmergencyContact: EmergencyContact</text><line style="stroke:#181818;stroke-width:0.5;" x1="154.5" x2="466.5" y1="745.7031" y2="745.7031"/></g><!--link UserController to UserService--><g id="link_UserController_UserService"><path codeLine="146" d="M959.38,111.7094 C906.92,137.1794 839.3473,169.9785 786.9173,195.4385 " fill="none" id="UserController-to-UserService" style="stroke:#181818;stroke-width:1.0;stroke-dasharray:7.0,7.0;"/><polygon fill="#181818" points="781.52,198.0594,791.3632,197.7262,786.0177,195.8753,787.8687,190.5298,781.52,198.0594" style="stroke:#181818;stroke-width:1.0;"/><polygon fill="#000000" points="890.0021,152.9689,899.4225,151.6623,896.8554,146.3747,890.0021,152.9689" style="stroke:#000000;stroke-width:1.0;"/><text fill="#000000" font-family="sans-serif" font-size="13" lengthAdjust="spacing" textLength="28" x="903.5" y="156.1045">uses</text></g><!--link UserController to IAMService--><g id="link_UserController_IAMService"><path codeLine="147" d="M1091.84,111.7094 C1144.46,137.1794 1212.2694,169.9853 1264.8694,195.4453 " fill="none" id="UserController-to-IAMService" style="stroke:#181818;stroke-width:1.0;stroke-dasharray:7.0,7.0;"/><polygon fill="#181818" points="1270.27,198.0594,1263.9118,190.5379,1265.7695,195.881,1260.4264,197.7387,1270.27,198.0594" style="stroke:#181818;stroke-width:1.0;"/><polygon fill="#000000" points="1200.0007,152.9632,1193.1391,146.3776,1190.5786,151.6685,1200.0007,152.9632" style="stroke:#000000;stroke-width:1.0;"/><text fill="#000000" font-family="sans-serif" font-size="13" lengthAdjust="spacing" textLength="28" x="1204.5" y="156.1045">uses</text></g><!--link UserService to IUserRepository--><g id="link_UserService_IUserRepository"><path codeLine="152" d="M720.13,264.4994 C724.39,294.3494 729.8306,332.4398 734.0806,362.1598 " fill="none" id="UserService-to-IUserRepository" style="stroke:#181818;stroke-width:1.0;"/><polygon fill="#181818" points="734.93,368.0994,737.6157,358.6238,734.2222,363.1497,729.6962,359.7563,734.93,368.0994" style="stroke:#181818;stroke-width:1.0;"/><polygon fill="#000000" points="733.2071,316.7349,734.8374,307.3651,729.0186,308.1963,733.2071,316.7349" style="stroke:#000000;stroke-width:1.0;"/><text fill="#000000" font-family="sans-serif" font-size="13" lengthAdjust="spacing" textLength="28" x="741.5" y="317.1045">uses</text></g><!--link UserService to IPatientRepository--><g id="link_UserService_IPatientRepository"><path codeLine="153" d="M610.24,264.1994 C521.29,291.3194 399.1491,328.5594 303.1591,357.8294 " fill="none" id="UserService-to-IPatientRepository" style="stroke:#181818;stroke-width:1.0;"/><polygon fill="#181818" points="297.42,359.5794,307.1953,360.7804,302.2026,358.121,304.862,353.1283,297.42,359.5794" style="stroke:#181818;stroke-width:1.0;"/><polygon fill="#000000" points="473.7174,313.2434,483.2264,313.4166,481.5121,307.7943,473.7174,313.2434" style="stroke:#000000;stroke-width:1.0;"/><text fill="#000000" font-family="sans-serif" font-size="13" lengthAdjust="spacing" textLength="28" x="487.5" y="317.1045">uses</text></g><!--link UserService to CreatingUserDto--><g id="link_UserService_CreatingUserDto"><path codeLine="155" d="M665.29,264.2994 C627.26,288.6894 579.3611,319.4111 535.9211,347.2611 " fill="none" id="UserService-to-CreatingUserDto" style="stroke:#181818;stroke-width:1.0;"/><polygon fill="#181818" points="530.87,350.4994,540.6055,349.0093,535.0792,347.8008,536.2877,342.2745,530.87,350.4994" style="stroke:#181818;stroke-width:1.0;"/><polygon fill="#000000" points="601.2911,314.4842,610.4916,312.0755,607.3186,307.1276,601.2911,314.4842" style="stroke:#000000;stroke-width:1.0;"/><text fill="#000000" font-family="sans-serif" font-size="13" lengthAdjust="spacing" textLength="47" x="614.5" y="317.1045">receives</text></g><!--link UserService to UserDto--><g id="link_UserService_UserDto"><path codeLine="156" d="M772.41,264.2994 C816.88,289.4594 874.0973,321.8258 924.1573,350.1358 " fill="none" id="UserService-to-UserDto" style="stroke:#181818;stroke-width:1.0;"/><polygon fill="#181818" points="929.38,353.0894,923.515,345.1773,925.0278,350.6281,919.5769,352.1409,929.38,353.0894" style="stroke:#181818;stroke-width:1.0;"/><polygon fill="#000000" points="873.852,314.2469,867.4261,307.2355,864.5322,312.3516,873.852,314.2469" style="stroke:#000000;stroke-width:1.0;"/><text fill="#000000" font-family="sans-serif" font-size="13" lengthAdjust="spacing" textLength="40" x="878.5" y="317.1045">returns</text></g><!--link IAMService to RegisterToken--><g id="link_IAMService_RegisterToken"><path codeLine="158" d="M1336.5,264.4994 C1336.5,294.3494 1336.5,332.3794 1336.5,362.0994 " fill="none" id="IAMService-to-RegisterToken" style="stroke:#181818;stroke-width:1.0;"/><polygon fill="#181818" points="1336.5,368.0994,1340.5,359.0994,1336.5,363.0994,1332.5,359.0994,1336.5,368.0994" style="stroke:#181818;stroke-width:1.0;"/><polygon fill="#000000" points="1341.5,316.7852,1344.4389,307.7401,1338.5611,307.7401,1341.5,316.7852" style="stroke:#000000;stroke-width:1.0;"/><text fill="#000000" font-family="sans-serif" font-size="13" lengthAdjust="spacing" textLength="40" x="1350.5" y="317.1045">returns</text></g><!--link UserMapper to User--><g id="link_UserMapper_User"><path codeLine="160" d="M1064.8,272.9894 C1101.73,318.6794 1148.01,393.8094 1112.5,451.6094 C1049.61,553.9794 917.9682,601.5538 828.6382,623.4038 " fill="none" id="UserMapper-to-User" style="stroke:#181818;stroke-width:1.0;"/><polygon fill="#181818" points="822.81,624.8294,832.5027,626.5765,827.6668,623.6414,830.6019,618.8056,822.81,624.8294" style="stroke:#181818;stroke-width:1.0;"/><polygon fill="#000000" points="1127.7056,405.4314,1135.1978,399.5733,1130.3236,396.2883,1127.7056,405.4314" style="stroke:#000000;stroke-width:1.0;"/><text fill="#000000" font-family="sans-serif" font-size="13" lengthAdjust="spacing" textLength="32" x="1139.5" y="406.6045">maps</text></g><!--link UserMapper to UserDto--><g id="link_UserMapper_UserDto"><path codeLine="161" d="M1023.87,272.7794 C1021.78,296.1794 1019.6734,319.7831 1017.4634,344.5431 " fill="none" id="UserMapper-to-UserDto" style="stroke:#181818;stroke-width:1.0;"/><polygon fill="#181818" points="1016.93,350.5194,1021.7143,341.9106,1017.3745,345.5392,1013.746,341.1994,1016.93,350.5194" style="stroke:#181818;stroke-width:1.0;"/><polygon fill="#000000" points="1026.0554,316.7654,1029.787,308.0174,1023.9324,307.4948,1026.0554,316.7654" style="stroke:#000000;stroke-width:1.0;"/><text fill="#000000" font-family="sans-serif" font-size="13" lengthAdjust="spacing" textLength="32" x="1035.5" y="317.1045">maps</text></g><!--link IUserRepository to User--><g id="link_IUserRepository_User"><path codeLine="163" d="M739.5,434.2794 C739.5,469.7494 739.5,521.8294 739.5,567.3494 " fill="none" id="IUserRepository-to-User" style="stroke:#181818;stroke-width:1.0;"/><polygon fill="#181818" points="739.5,573.3494,743.5,564.3494,739.5,568.3494,735.5,564.3494,739.5,573.3494" style="stroke:#181818;stroke-width:1.0;"/><polygon fill="#000000" points="744.5,495.7852,747.4389,486.7401,741.5611,486.7401,744.5,495.7852" style="stroke:#000000;stroke-width:1.0;"/><text fill="#000000" font-family="sans-serif" font-size="13" lengthAdjust="spacing" textLength="33" x="753.5" y="496.1045">saves</text></g><!--link IPatientRepository to Patient--><g id="link_IPatientRepository_Patient"><path codeLine="164" d="M189.43,442.8394 C204.13,466.8494 220.3879,493.4018 239.3179,524.3318 " fill="none" id="IPatientRepository-to-Patient" style="stroke:#181818;stroke-width:1.0;"/><polygon fill="#181818" points="242.45,529.4494,241.1636,519.6849,239.8399,525.1847,234.3401,523.861,242.45,529.4494" style="stroke:#181818;stroke-width:1.0;"/><polygon fill="#000000" points="228.1106,495.0495,225.8946,485.8007,220.8815,488.8696,228.1106,495.0495" style="stroke:#000000;stroke-width:1.0;"/><text fill="#000000" font-family="sans-serif" font-size="13" lengthAdjust="spacing" textLength="33" x="234.5" y="496.1045">saves</text></g><!--link Patient to User--><g id="link_Patient_User"><path codeLine="168" d="M467.5,641.6094 C531.5,641.6094 596.87,641.6094 650.44,641.6094 " fill="none" id="Patient-to-User" style="stroke:#181818;stroke-width:1.0;"/><polygon fill="#181818" points="656.44,641.6094,647.44,637.6094,651.44,641.6094,647.44,645.6094,656.44,641.6094" style="stroke:#181818;stroke-width:1.0;"/><polygon fill="#000000" points="519,629.7852,509.9549,626.8462,509.9549,632.7241,519,629.7852" style="stroke:#000000;stroke-width:1.0;"/><text fill="#000000" font-family="sans-serif" font-size="13" lengthAdjust="spacing" textLength="91" x="523" y="635.1045">creates his own</text><text fill="#000000" font-family="sans-serif" font-size="13" lengthAdjust="spacing" textLength="7" x="475.2742" y="638.7232">1</text><text fill="#000000" font-family="sans-serif" font-size="13" lengthAdjust="spacing" textLength="7" x="641.4603" y="638.381">1</text></g><!--SRC=[dLPBR-Cs4BxhLmnoST8yaBOt8p7WoCwkq5W9R6U17Xc9aOd8b2fI2ToY_xr3aPH8IV46zS4YPpuEvyqHRuoNf29xA4doHZAwaOUSGaKJINYMqq2q0B4ZQV71U0Ql91SqS5X9JeIOIrcnbrhIA2duXlrDuJe899CeBbHyM32IAVHfk3Y3ItWEhwz_3uBcB3mBMeK5brMHvxI2VmB0ttbOKIBfQIgBAJHhl5qX5x8ucyAMYBURUI9PmTTKrBcyCRpPBFZN5RoXrJjBg9KwJzEvEF3ag5mhgfCKpLSzGMkQCkMfqr5brZHZGj9gMxnHxghaCQoivPwmV0hDfw5CK7wHqoceVtMOSJppIl3ww0arfbokQLa89elgOALye_BkqCZG5b97gbNI79xf4yzbYYxMw59pfc0WWnE-5if5GnM-x5t78ptKfpuvpwXiTihZ3bbOSi_UzuAbVYfOqMeTfLFGtux6oPvggbfzfeOJcFRaHX9P2trMh_sRZzhrVmIkI5bs1cqBHTDExvojLYuVgQSrVZNdh8LsaasihLYpLQvgbvzwa1SIMmVBTXAALukVGb6ggY36rFiwp-F6otQbwGjCmyVNErR9tHISZKridYgrzLVJLbX-2SdND2cgDAxtBmemGZIz1BiBIMJ4NujgJvH6c9q3cYSPsIdJo3x51f9M6UN9mGXICVKfmKGNHLaMM3bxzCTth7qiboaCQIeA4-WYh58G0z68WFDtajVejGrsMPuXqG4tcTGXIPfML8W-bl9wt-HOYvmlLb5irel7SFkuDfluURrPclLs6NwFep2QM-JJV1ijusqZTj8Bkavana7kM6C4X4JG2oXuVcXpgr8w81lV2S4md3HjrUkIlLCot4O_h39Hx6sVbl4YYh-PtTt3O_Z7SZ6gc5jH7plikmHCkmDL48qwpMkJNW2J0eHM0idcmjRPDcqxVz-pIaYTqqq-6_83wL6TYCLV3QrJ2GEyueqQwzNIlXOINgWE2aMhXMpThSkf5RoQFomlu7wflhuQ8sLrJFs-GgEbgeiE9u4_yRTQyUO7fse7jt2WfBg0rGgNUwobtGKOm2q8-bUDWMCa1zx8EkiK7PPqf-VJhk3KtkviBD_hovxv3hWJzwDdjcapDKunMFufLVsbtLY-lHuhVzHJdewjXyx3C8JO_d22mkqjrayZ7hyfbbZ7leLIIJ7EmUFgqSvmbJKPNc4U40xNdjTQHJlxj0tZ_SRlSbzoiJglZmyxdnLWK-a1oJSER1PCy7XlIBowcddZtHHcgfR56CuPtbeONjb3NbxE1hE8WkEGHzax7XazuIDbNN6XTRKtAb1_MlAKzO33uQxJk0y-gcmVFAgdunY5yMVJWKLcvh3I6i2Ub6ACQQzg-47VVejI246KkYE6Ar0xHbWS1g5ljiAPujqH0RCWi4_DoQydW4prqRVf9Yz0FK_51rVO2NXe0tSc7orp7DQDCyTGNaCU07_fW7REEIPij9aUEp0s-WpmrrTNLW-z70v12NQD7SRWK-s7yv2zPZAcrzXKPE8t6MlaNdZSHcDl-SaPFqKcmpRsamlmIFlujz3VJi2Dl_ACyrZuON2UXXRTr94BiuErDMeKmBsK6q0yIotV2PGUqpvbkyEI1lq7]--></g></svg>