<svg xmlns="http://www.w3.org/2000/svg" xmlns:xlink="http://www.w3.org/1999/xlink" contentStyleType="text/css" height="581px" preserveAspectRatio="none" style="width:763px;height:581px;background:#FFFFFF;" version="1.1" viewBox="0 0 763 581" width="763px" zoomAndPan="magnify"><defs/><g><rect fill="#FFFFFF" height="363.2012" style="stroke:#181818;stroke-width:1.0;" width="10" x="177.6255" y="116.9121"/><rect fill="#FFFFFF" height="300.6191" style="stroke:#181818;stroke-width:1.0;" width="10" x="288.2163" y="148.2031"/><rect fill="#FFFFFF" height="31.291" style="stroke:#181818;stroke-width:1.0;" width="10" x="402.8677" y="354.9492"/><rect fill="#FFFFFF" height="238.0371" style="stroke:#181818;stroke-width:1.0;" width="10" x="563.3384" y="179.4941"/><rect fill="#FFFFFF" height="67.582" style="stroke:#181818;stroke-width:1.0;" width="10" x="568.3384" y="318.6582"/><line style="stroke:#181818;stroke-width:0.5;stroke-dasharray:5.0,5.0;" x1="22" x2="22" y1="83.6211" y2="498.1133"/><line style="stroke:#181818;stroke-width:0.5;stroke-dasharray:5.0,5.0;" x1="182.5083" x2="182.5083" y1="83.6211" y2="498.1133"/><line style="stroke:#181818;stroke-width:0.5;stroke-dasharray:5.0,5.0;" x1="292.2993" x2="292.2993" y1="83.6211" y2="498.1133"/><line style="stroke:#181818;stroke-width:0.5;stroke-dasharray:5.0,5.0;" x1="407.1333" x2="407.1333" y1="83.6211" y2="498.1133"/><line style="stroke:#181818;stroke-width:0.5;stroke-dasharray:5.0,5.0;" x1="567.8833" x2="567.8833" y1="83.6211" y2="498.1133"/><line style="stroke:#181818;stroke-width:0.5;stroke-dasharray:5.0,5.0;" x1="691.8691" x2="691.8691" y1="83.6211" y2="498.1133"/><text fill="#000000" font-family="sans-serif" font-size="14" lengthAdjust="spacing" textLength="29.5586" x="5" y="80.1074">User</text><ellipse cx="22.7793" cy="13.5" fill="#E2E2F0" rx="8" ry="8" style="stroke:#181818;stroke-width:0.5;"/><path d="M22.7793,21.5 L22.7793,48.5 M9.7793,29.5 L35.7793,29.5 M22.7793,48.5 L9.7793,63.5 M22.7793,48.5 L35.7793,63.5 " fill="none" style="stroke:#181818;stroke-width:0.5;"/><text fill="#000000" font-family="sans-serif" font-size="14" lengthAdjust="spacing" textLength="29.5586" x="5" y="512.2207">User</text><ellipse cx="22.7793" cy="524.2344" fill="#E2E2F0" rx="8" ry="8" style="stroke:#181818;stroke-width:0.5;"/><path d="M22.7793,532.2344 L22.7793,559.2344 M9.7793,540.2344 L35.7793,540.2344 M22.7793,559.2344 L9.7793,574.2344 M22.7793,559.2344 L35.7793,574.2344 " fill="none" style="stroke:#181818;stroke-width:0.5;"/><rect fill="#E2E2F0" height="32.6211" rx="2.5" ry="2.5" style="stroke:#181818;stroke-width:0.5;" width="62.2344" x="151.5083" y="50"/><text fill="#000000" font-family="sans-serif" font-size="14" lengthAdjust="spacing" textLength="48.2344" x="158.5083" y="72.1074">file.html</text><rect fill="#E2E2F0" height="32.6211" rx="2.5" ry="2.5" style="stroke:#181818;stroke-width:0.5;" width="62.2344" x="151.5083" y="497.1133"/><text fill="#000000" font-family="sans-serif" font-size="14" lengthAdjust="spacing" textLength="48.2344" x="158.5083" y="519.2207">file.html</text><rect fill="#E2E2F0" height="32.6211" rx="2.5" ry="2.5" style="stroke:#181818;stroke-width:0.5;" width="119.834" x="233.2993" y="50"/><text fill="#000000" font-family="sans-serif" font-size="14" lengthAdjust="spacing" textLength="105.834" x="240.2993" y="72.1074">file.component.ts</text><rect fill="#E2E2F0" height="32.6211" rx="2.5" ry="2.5" style="stroke:#181818;stroke-width:0.5;" width="119.834" x="233.2993" y="497.1133"/><text fill="#000000" font-family="sans-serif" font-size="14" lengthAdjust="spacing" textLength="105.834" x="240.2993" y="519.2207">file.component.ts</text><rect fill="#E2E2F0" height="32.6211" rx="2.5" ry="2.5" style="stroke:#181818;stroke-width:0.5;" width="89.4688" x="363.1333" y="50"/><text fill="#000000" font-family="sans-serif" font-size="14" lengthAdjust="spacing" textLength="75.4688" x="370.1333" y="72.1074">file-model.ts</text><rect fill="#E2E2F0" height="32.6211" rx="2.5" ry="2.5" style="stroke:#181818;stroke-width:0.5;" width="89.4688" x="363.1333" y="497.1133"/><text fill="#000000" font-family="sans-serif" font-size="14" lengthAdjust="spacing" textLength="75.4688" x="370.1333" y="519.2207">file-model.ts</text><rect fill="#E2E2F0" height="32.6211" rx="2.5" ry="2.5" style="stroke:#181818;stroke-width:0.5;" width="94.9102" x="520.8833" y="50"/><text fill="#000000" font-family="sans-serif" font-size="14" lengthAdjust="spacing" textLength="80.9102" x="527.8833" y="72.1074">file.service.ts</text><rect fill="#E2E2F0" height="32.6211" rx="2.5" ry="2.5" style="stroke:#181818;stroke-width:0.5;" width="94.9102" x="520.8833" y="497.1133"/><text fill="#000000" font-family="sans-serif" font-size="14" lengthAdjust="spacing" textLength="80.9102" x="527.8833" y="519.2207">file.service.ts</text><rect fill="#E2E2F0" height="32.6211" rx="2.5" ry="2.5" style="stroke:#181818;stroke-width:0.5;" width="118.2891" x="632.8691" y="50"/><text fill="#000000" font-family="sans-serif" font-size="14" lengthAdjust="spacing" textLength="104.2891" x="639.8691" y="72.1074">Backend Module</text><rect fill="#E2E2F0" height="32.6211" rx="2.5" ry="2.5" style="stroke:#181818;stroke-width:0.5;" width="118.2891" x="632.8691" y="497.1133"/><text fill="#000000" font-family="sans-serif" font-size="14" lengthAdjust="spacing" textLength="104.2891" x="639.8691" y="519.2207">Backend Module</text><rect fill="#FFFFFF" height="363.2012" style="stroke:#181818;stroke-width:1.0;" width="10" x="177.6255" y="116.9121"/><rect fill="#FFFFFF" height="300.6191" style="stroke:#181818;stroke-width:1.0;" width="10" x="288.2163" y="148.2031"/><rect fill="#FFFFFF" height="31.291" style="stroke:#181818;stroke-width:1.0;" width="10" x="402.8677" y="354.9492"/><rect fill="#FFFFFF" height="238.0371" style="stroke:#181818;stroke-width:1.0;" width="10" x="563.3384" y="179.4941"/><rect fill="#FFFFFF" height="67.582" style="stroke:#181818;stroke-width:1.0;" width="10" x="568.3384" y="318.6582"/><polygon fill="#181818" points="165.6255,112.9121,175.6255,116.9121,165.6255,120.9121,169.6255,116.9121" style="stroke:#181818;stroke-width:1.0;"/><line style="stroke:#181818;stroke-width:1.0;" x1="22.7793" x2="171.6255" y1="116.9121" y2="116.9121"/><text fill="#000000" font-family="sans-serif" font-size="13" lengthAdjust="spacing" textLength="135.8462" x="29.7793" y="111.6494">Request for delete form</text><polygon fill="#181818" points="276.2163,144.2031,286.2163,148.2031,276.2163,152.2031,280.2163,148.2031" style="stroke:#181818;stroke-width:1.0;"/><line style="stroke:#181818;stroke-width:1.0;" x1="187.6255" x2="282.2163" y1="148.2031" y2="148.2031"/><text fill="#000000" font-family="sans-serif" font-size="13" lengthAdjust="spacing" textLength="67.1899" x="194.6255" y="142.9404">Delete form</text><polygon fill="#181818" points="551.3384,175.4941,561.3384,179.4941,551.3384,183.4941,555.3384,179.4941" style="stroke:#181818;stroke-width:1.0;"/><line style="stroke:#181818;stroke-width:1.0;" x1="298.2163" x2="557.3384" y1="179.4941" y2="179.4941"/><text fill="#000000" font-family="sans-serif" font-size="13" lengthAdjust="spacing" textLength="59.2744" x="305.2163" y="174.2314">Send data</text><path d="M578,192.4941 L578,219.4941 L756,219.4941 L756,202.4941 L746,192.4941 L578,192.4941 " fill="#FEFFDD" style="stroke:#181818;stroke-width:0.5;"/><path d="M746,192.4941 L746,202.4941 L756,202.4941 L746,192.4941 " fill="#FEFFDD" style="stroke:#181818;stroke-width:0.5;"/><text fill="#000000" font-family="sans-serif" font-size="13" lengthAdjust="spacing" textLength="157.5044" x="584" y="211.5225">The service receives the ID</text><polygon fill="#181818" points="680.0137,244.0762,690.0137,248.0762,680.0137,252.0762,684.0137,248.0762" style="stroke:#181818;stroke-width:1.0;"/><line style="stroke:#181818;stroke-width:1.0;stroke-dasharray:2.0,2.0;" x1="573.3384" x2="686.0137" y1="248.0762" y2="248.0762"/><text fill="#000000" font-family="sans-serif" font-size="13" lengthAdjust="spacing" textLength="94.6753" x="580.3384" y="242.8135">http.delete(data)</text><polygon fill="#181818" points="584.3384,275.3672,574.3384,279.3672,584.3384,283.3672,580.3384,279.3672" style="stroke:#181818;stroke-width:1.0;"/><line style="stroke:#181818;stroke-width:1.0;stroke-dasharray:2.0,2.0;" x1="578.3384" x2="691.0137" y1="279.3672" y2="279.3672"/><text fill="#000000" font-family="sans-serif" font-size="13" lengthAdjust="spacing" textLength="75.8799" x="590.3384" y="274.1045">Data Deleted</text><line style="stroke:#181818;stroke-width:1.0;" x1="573.3384" x2="620.3384" y1="305.6582" y2="305.6582"/><line style="stroke:#181818;stroke-width:1.0;" x1="620.3384" x2="620.3384" y1="305.6582" y2="318.6582"/><line style="stroke:#181818;stroke-width:1.0;" x1="579.3384" x2="620.3384" y1="318.6582" y2="318.6582"/><polygon fill="#181818" points="589.3384,314.6582,579.3384,318.6582,589.3384,322.6582,585.3384,318.6582" style="stroke:#181818;stroke-width:1.0;"/><text fill="#000000" font-family="sans-serif" font-size="13" lengthAdjust="spacing" textLength="62.8608" x="585.3384" y="300.3955">data.map()</text><polygon fill="#181818" points="423.8677,350.9492,413.8677,354.9492,423.8677,358.9492,419.8677,354.9492" style="stroke:#181818;stroke-width:1.0;"/><line style="stroke:#181818;stroke-width:1.0;stroke-dasharray:2.0,2.0;" x1="417.8677" x2="567.3384" y1="354.9492" y2="354.9492"/><text fill="#000000" font-family="sans-serif" font-size="13" lengthAdjust="spacing" textLength="56.3608" x="429.8677" y="349.6865">Map Data</text><polygon fill="#181818" points="551.3384,382.2402,561.3384,386.2402,551.3384,390.2402,555.3384,386.2402" style="stroke:#181818;stroke-width:1.0;"/><line style="stroke:#181818;stroke-width:1.0;stroke-dasharray:2.0,2.0;" x1="407.8677" x2="557.3384" y1="386.2402" y2="386.2402"/><text fill="#000000" font-family="sans-serif" font-size="13" lengthAdjust="spacing" textLength="126.4707" x="414.8677" y="380.9775">Mapped Data Deleted</text><polygon fill="#181818" points="309.2163,413.5313,299.2163,417.5313,309.2163,421.5313,305.2163,417.5313" style="stroke:#181818;stroke-width:1.0;"/><line style="stroke:#181818;stroke-width:1.0;stroke-dasharray:2.0,2.0;" x1="303.2163" x2="567.3384" y1="417.5313" y2="417.5313"/><text fill="#000000" font-family="sans-serif" font-size="13" lengthAdjust="spacing" textLength="126.4707" x="315.2163" y="412.2686">Mapped Data Deleted</text><polygon fill="#181818" points="198.6255,444.8223,188.6255,448.8223,198.6255,452.8223,194.6255,448.8223" style="stroke:#181818;stroke-width:1.0;"/><line style="stroke:#181818;stroke-width:1.0;stroke-dasharray:2.0,2.0;" x1="192.6255" x2="292.2163" y1="448.8223" y2="448.8223"/><text fill="#000000" font-family="sans-serif" font-size="13" lengthAdjust="spacing" textLength="76.5908" x="204.6255" y="443.5596">Form deleted</text><polygon fill="#181818" points="33.7793,476.1133,23.7793,480.1133,33.7793,484.1133,29.7793,480.1133" style="stroke:#181818;stroke-width:1.0;"/><line style="stroke:#181818;stroke-width:1.0;stroke-dasharray:2.0,2.0;" x1="27.7793" x2="181.6255" y1="480.1133" y2="480.1133"/><text fill="#000000" font-family="sans-serif" font-size="13" lengthAdjust="spacing" textLength="76.5908" x="39.7793" y="474.8506">Form deleted</text><!--SRC=[XLExSeGm3Epv2irLbm8-W295SfD9Yclo-02FqGLFU3WW-Fv8nlZCuBke4jPgfTKiIbC_mDU80wWHfiogWOmsLdK4XujfiAYfRGvIVEKaKTTzQ_iEEofeTBZdzM4Fpjk-mcO5dkKZmSZBp4RZ2ljOFhV09wL_iAk4OshGuVnJbasGFxfjItZ7tmb7WWkBv658A6cRAKrcLlpbH0679D8NjY_X53K893HT5OAFy28KVk6I4zwmKgG2Bb2iejP2IBgUguFvhWdwomucyLaZ-1F1W1hDZ2CGFxwT0au62zEUNyApGixB-gkLK1FPOhdHKNP-sBH8h3VFOuqdXlfBLUaX4LXuYrRPuvxyvcLIIpldb71MTfc_0syO5v-b8AworSES5glRiYGglCCT5LDIOXcHr_uRUuSrybxm_GjxrXl-oXDnR1syU9-RfqHdrEL-bZy0]--></g></svg>