<svg xmlns="http://www.w3.org/2000/svg" xmlns:xlink="http://www.w3.org/1999/xlink" contentStyleType="text/css" height="342px" preserveAspectRatio="none" style="width:482px;height:342px;background:#FFFFFF;" version="1.1" viewBox="0 0 482 342" width="482px" zoomAndPan="magnify"><defs/><g><rect fill="#FFFFFF" height="151.5527" style="stroke:#181818;stroke-width:1.0;" width="10" x="18.1826" y="91.4883"/><rect fill="#FFFFFF" height="130.2422" style="stroke:#181818;stroke-width:1.0;" width="10" x="257.8179" y="112.7988"/><rect fill="#FFFFFF" height="29.3105" style="stroke:#181818;stroke-width:1.0;" width="10" x="400.167" y="184.4199"/><line style="stroke:#181818;stroke-width:0.5;stroke-dasharray:5.0,5.0;" x1="23" x2="23" y1="81.4883" y2="261.041"/><line style="stroke:#181818;stroke-width:0.5;stroke-dasharray:5.0,5.0;" x1="262.769" x2="262.769" y1="81.4883" y2="261.041"/><line style="stroke:#181818;stroke-width:0.5;stroke-dasharray:5.0,5.0;" x1="404.9434" x2="404.9434" y1="81.4883" y2="261.041"/><text fill="#000000" font-family="sans-serif" font-size="14" lengthAdjust="spacing" textLength="30.3652" x="5" y="78.5352">User</text><ellipse cx="23.1826" cy="13.5" fill="#E2E2F0" rx="8" ry="8" style="stroke:#181818;stroke-width:0.5;"/><path d="M23.1826,21.5 L23.1826,48.5 M10.1826,29.5 L36.1826,29.5 M23.1826,48.5 L10.1826,63.5 M23.1826,48.5 L36.1826,63.5 " fill="none" style="stroke:#181818;stroke-width:0.5;"/><text fill="#000000" font-family="sans-serif" font-size="14" lengthAdjust="spacing" textLength="30.3652" x="5" y="273.5762">User</text><ellipse cx="23.1826" cy="285.0293" fill="#E2E2F0" rx="8" ry="8" style="stroke:#181818;stroke-width:0.5;"/><path d="M23.1826,293.0293 L23.1826,320.0293 M10.1826,301.0293 L36.1826,301.0293 M23.1826,320.0293 L10.1826,335.0293 M23.1826,320.0293 L36.1826,335.0293 " fill="none" style="stroke:#181818;stroke-width:0.5;"/><rect fill="#E2E2F0" height="30.4883" rx="2.5" ry="2.5" style="stroke:#181818;stroke-width:0.5;" width="62.0977" x="231.769" y="50"/><text fill="#000000" font-family="sans-serif" font-size="14" lengthAdjust="spacing" textLength="48.0977" x="238.769" y="70.5352">System</text><rect fill="#E2E2F0" height="30.4883" rx="2.5" ry="2.5" style="stroke:#181818;stroke-width:0.5;" width="62.0977" x="231.769" y="260.041"/><text fill="#000000" font-family="sans-serif" font-size="14" lengthAdjust="spacing" textLength="48.0977" x="238.769" y="280.5762">System</text><rect fill="#E2E2F0" height="30.4883" rx="2.5" ry="2.5" style="stroke:#181818;stroke-width:0.5;" width="142.4473" x="333.9434" y="50"/><text fill="#000000" font-family="sans-serif" font-size="14" lengthAdjust="spacing" textLength="128.4473" x="340.9434" y="70.5352">AzureSQLDatabase</text><rect fill="#E2E2F0" height="30.4883" rx="2.5" ry="2.5" style="stroke:#181818;stroke-width:0.5;" width="142.4473" x="333.9434" y="260.041"/><text fill="#000000" font-family="sans-serif" font-size="14" lengthAdjust="spacing" textLength="128.4473" x="340.9434" y="280.5762">AzureSQLDatabase</text><rect fill="#FFFFFF" height="151.5527" style="stroke:#181818;stroke-width:1.0;" width="10" x="18.1826" y="91.4883"/><rect fill="#FFFFFF" height="130.2422" style="stroke:#181818;stroke-width:1.0;" width="10" x="257.8179" y="112.7988"/><rect fill="#FFFFFF" height="29.3105" style="stroke:#181818;stroke-width:1.0;" width="10" x="400.167" y="184.4199"/><polygon fill="#181818" points="245.8179,108.7988,255.8179,112.7988,245.8179,116.7988,249.8179,112.7988" style="stroke:#181818;stroke-width:1.0;"/><line style="stroke:#181818;stroke-width:1.0;" x1="28.1826" x2="251.8179" y1="112.7988" y2="112.7988"/><text fill="#000000" font-family="sans-serif" font-size="13" font-weight="bold" lengthAdjust="spacing" textLength="8.5757" x="35.1826" y="108.0566">1</text><text fill="#000000" font-family="sans-serif" font-size="13" lengthAdjust="spacing" textLength="198.0596" x="47.7583" y="108.0566">Request Delete (include Object)</text><line style="stroke:#181818;stroke-width:1.0;" x1="267.8179" x2="309.8179" y1="142.1094" y2="142.1094"/><line style="stroke:#181818;stroke-width:1.0;" x1="309.8179" x2="309.8179" y1="142.1094" y2="155.1094"/><line style="stroke:#181818;stroke-width:1.0;" x1="268.8179" x2="309.8179" y1="155.1094" y2="155.1094"/><polygon fill="#181818" points="278.8179,151.1094,268.8179,155.1094,278.8179,159.1094,274.8179,155.1094" style="stroke:#181818;stroke-width:1.0;"/><text fill="#000000" font-family="sans-serif" font-size="13" font-weight="bold" lengthAdjust="spacing" textLength="8.5757" x="274.8179" y="137.3672">2</text><text fill="#000000" font-family="sans-serif" font-size="13" lengthAdjust="spacing" textLength="95.7734" x="287.3936" y="137.3672">Validate Object</text><polygon fill="#181818" points="388.167,180.4199,398.167,184.4199,388.167,188.4199,392.167,184.4199" style="stroke:#181818;stroke-width:1.0;"/><line style="stroke:#181818;stroke-width:1.0;" x1="267.8179" x2="394.167" y1="184.4199" y2="184.4199"/><text fill="#000000" font-family="sans-serif" font-size="13" font-weight="bold" lengthAdjust="spacing" textLength="8.5757" x="274.8179" y="179.6777">3</text><text fill="#000000" font-family="sans-serif" font-size="13" lengthAdjust="spacing" textLength="85.1982" x="287.3936" y="179.6777">Delete Object</text><polygon fill="#181818" points="278.8179,209.7305,268.8179,213.7305,278.8179,217.7305,274.8179,213.7305" style="stroke:#181818;stroke-width:1.0;"/><line style="stroke:#181818;stroke-width:1.0;stroke-dasharray:2.0,2.0;" x1="272.8179" x2="404.167" y1="213.7305" y2="213.7305"/><text fill="#000000" font-family="sans-serif" font-size="13" font-weight="bold" lengthAdjust="spacing" textLength="8.5757" x="284.8179" y="208.9883">4</text><text fill="#000000" font-family="sans-serif" font-size="13" lengthAdjust="spacing" textLength="84.7793" x="297.3936" y="208.9883">Return object</text><polygon fill="#181818" points="34.1826,239.041,24.1826,243.041,34.1826,247.041,30.1826,243.041" style="stroke:#181818;stroke-width:1.0;"/><line style="stroke:#181818;stroke-width:1.0;stroke-dasharray:2.0,2.0;" x1="28.1826" x2="261.8179" y1="243.041" y2="243.041"/><text fill="#000000" font-family="sans-serif" font-size="13" font-weight="bold" lengthAdjust="spacing" textLength="8.5757" x="40.1826" y="238.2988">5</text><text fill="#000000" font-family="sans-serif" font-size="13" lengthAdjust="spacing" textLength="191.6802" x="52.7583" y="238.2988">Return success/error message</text><!--SRC=[XP71QiCm38RlVGhTrXwot7iO37eSZBMiTyKHhOVjP9PSw9v-Sc92qWocWv65ll-NxAUhIC_xkkuT1adUFPlErqpVYOAXghLuYUWt6qpIXUGRYfeRwI9yikOzHh76zih2wSv2Vb5w_KcHJXzl1nHia6bWxGs5HXmqSWBLIy5X3yTipW87SgIDMnkCIot1U_D5HdO3DCaKqrmRZXn5QQvvHcVRt3-AJAr_C8ypArqcUM2d6LPRmYmMbvLsjLnSKWpGBMrQ-jzejORAvdUTD3aPGymrnQXVvpN5ouZFvCjRpYfPunS0]--></g></svg>