<?xml version="1.0" encoding="us-ascii" standalone="no"?><svg xmlns="http://www.w3.org/2000/svg" xmlns:xlink="http://www.w3.org/1999/xlink" contentStyleType="text/css" height="796px" preserveAspectRatio="none" style="width:1498px;height:796px;background:#FFFFFF;" version="1.1" viewBox="0 0 1498 796" width="1498px" zoomAndPan="magnify"><defs/><g><text fill="#000000" font-family="sans-serif" font-size="14" font-weight="bold" lengthAdjust="spacing" textLength="190" x="647" y="24.5332">Class Diagram (CD) - UC001</text><!--class UserController--><g id="elem_UserController"><rect codeLine="9" fill="#F1F1F1" height="65.6094" id="UserController" rx="2.5" ry="2.5" style="stroke:#181818;stroke-width:0.5;" width="407" x="813.5" y="45.6094"/><ellipse cx="967.25" cy="61.6094" fill="#ADD1B2" rx="11" ry="11" style="stroke:#181818;stroke-width:1.0;"/><path d="M970.0156,57.4844 Q970.1719,57.2656 970.3594,57.1563 Q970.5469,57.0469 970.7656,57.0469 Q971.1406,57.0469 971.375,57.3125 Q971.6094,57.5625 971.6094,58.1719 L971.6094,59.625 Q971.6094,60.2344 971.375,60.5 Q971.1406,60.7656 970.7656,60.7656 Q970.4219,60.7656 970.2188,60.5625 Q970.0156,60.375 969.9063,59.8594 Q969.8594,59.5 969.6719,59.3125 Q969.3438,58.9375 968.7344,58.7188 Q968.125,58.5 967.5,58.5 Q966.7344,58.5 966.0938,58.8281 Q965.4688,59.1563 964.9688,59.9063 Q964.4844,60.6563 964.4844,61.6875 L964.4844,62.7813 Q964.4844,64.0156 965.375,64.8438 Q966.2656,65.6563 967.8594,65.6563 Q968.7969,65.6563 969.4531,65.4063 Q969.8438,65.25 970.2656,64.8125 Q970.5313,64.5469 970.6719,64.4688 Q970.8281,64.3906 971.0313,64.3906 Q971.3594,64.3906 971.6094,64.6563 Q971.875,64.9063 971.875,65.25 Q971.875,65.5938 971.5313,66 Q971.0313,66.5781 970.2344,66.9063 Q969.1563,67.3594 967.8594,67.3594 Q966.3438,67.3594 965.1406,66.7344 Q964.1563,66.2344 963.4688,65.1719 Q962.7813,64.0938 962.7813,62.8125 L962.7813,61.6563 Q962.7813,60.3281 963.3906,59.1875 Q964.0156,58.0313 965.1094,57.4219 Q966.2031,56.7969 967.4375,56.7969 Q968.1719,56.7969 968.8125,56.9688 Q969.4688,57.125 970.0156,57.4844 Z " fill="#000000"/><text fill="#000000" font-family="sans-serif" font-size="14" lengthAdjust="spacing" textLength="91" x="987.75" y="67.3379">UserController</text><line style="stroke:#181818;stroke-width:0.5;" x1="814.5" x2="1219.5" y1="77.6094" y2="77.6094"/><line style="stroke:#181818;stroke-width:0.5;" x1="814.5" x2="1219.5" y1="85.6094" y2="85.6094"/><text fill="#000000" font-family="sans-serif" font-size="14" lengthAdjust="spacing" textLength="395" x="819.5" y="104.1426">+Create(dto: CreatingUserDto): Task&lt;ActionResult&lt;UserDto&gt;&gt;</text></g><!--class UserService--><g id="elem_UserService"><rect codeLine="13" fill="#F1F1F1" height="65.6094" id="UserService" rx="2.5" ry="2.5" style="stroke:#181818;stroke-width:0.5;" width="332" x="541" y="198.1094"/><ellipse cx="664.75" cy="214.1094" fill="#ADD1B2" rx="11" ry="11" style="stroke:#181818;stroke-width:1.0;"/><path d="M667.5156,209.9844 Q667.6719,209.7656 667.8594,209.6563 Q668.0469,209.5469 668.2656,209.5469 Q668.6406,209.5469 668.875,209.8125 Q669.1094,210.0625 669.1094,210.6719 L669.1094,212.125 Q669.1094,212.7344 668.875,213 Q668.6406,213.2656 668.2656,213.2656 Q667.9219,213.2656 667.7188,213.0625 Q667.5156,212.875 667.4063,212.3594 Q667.3594,212 667.1719,211.8125 Q666.8438,211.4375 666.2344,211.2188 Q665.625,211 665,211 Q664.2344,211 663.5938,211.3281 Q662.9688,211.6563 662.4688,212.4063 Q661.9844,213.1563 661.9844,214.1875 L661.9844,215.2813 Q661.9844,216.5156 662.875,217.3438 Q663.7656,218.1563 665.3594,218.1563 Q666.2969,218.1563 666.9531,217.9063 Q667.3438,217.75 667.7656,217.3125 Q668.0313,217.0469 668.1719,216.9688 Q668.3281,216.8906 668.5313,216.8906 Q668.8594,216.8906 669.1094,217.1563 Q669.375,217.4063 669.375,217.75 Q669.375,218.0938 669.0313,218.5 Q668.5313,219.0781 667.7344,219.4063 Q666.6563,219.8594 665.3594,219.8594 Q663.8438,219.8594 662.6406,219.2344 Q661.6563,218.7344 660.9688,217.6719 Q660.2813,216.5938 660.2813,215.3125 L660.2813,214.1563 Q660.2813,212.8281 660.8906,211.6875 Q661.5156,210.5313 662.6094,209.9219 Q663.7031,209.2969 664.9375,209.2969 Q665.6719,209.2969 666.3125,209.4688 Q666.9688,209.625 667.5156,209.9844 Z " fill="#000000"/><text fill="#000000" font-family="sans-serif" font-size="14" lengthAdjust="spacing" textLength="76" x="685.25" y="219.8379">UserService</text><line style="stroke:#181818;stroke-width:0.5;" x1="542" x2="872" y1="230.1094" y2="230.1094"/><line style="stroke:#181818;stroke-width:0.5;" x1="542" x2="872" y1="238.1094" y2="238.1094"/><text fill="#000000" font-family="sans-serif" font-size="14" lengthAdjust="spacing" textLength="320" x="547" y="256.6426">+AddAsync(dto: CreatingUserDto): Task&lt;UserDto&gt;</text></g><!--class IAMService--><g id="elem_IAMService"><rect codeLine="17" fill="#F1F1F1" height="65.6094" id="IAMService" rx="2.5" ry="2.5" style="stroke:#181818;stroke-width:0.5;" width="326" x="1165" y="198.1094"/><ellipse cx="1288.75" cy="214.1094" fill="#ADD1B2" rx="11" ry="11" style="stroke:#181818;stroke-width:1.0;"/><path d="M1291.5156,209.9844 Q1291.6719,209.7656 1291.8594,209.6563 Q1292.0469,209.5469 1292.2656,209.5469 Q1292.6406,209.5469 1292.875,209.8125 Q1293.1094,210.0625 1293.1094,210.6719 L1293.1094,212.125 Q1293.1094,212.7344 1292.875,213 Q1292.6406,213.2656 1292.2656,213.2656 Q1291.9219,213.2656 1291.7188,213.0625 Q1291.5156,212.875 1291.4063,212.3594 Q1291.3594,212 1291.1719,211.8125 Q1290.8438,211.4375 1290.2344,211.2188 Q1289.625,211 1289,211 Q1288.2344,211 1287.5938,211.3281 Q1286.9688,211.6563 1286.4688,212.4063 Q1285.9844,213.1563 1285.9844,214.1875 L1285.9844,215.2813 Q1285.9844,216.5156 1286.875,217.3438 Q1287.7656,218.1563 1289.3594,218.1563 Q1290.2969,218.1563 1290.9531,217.9063 Q1291.3438,217.75 1291.7656,217.3125 Q1292.0313,217.0469 1292.1719,216.9688 Q1292.3281,216.8906 1292.5313,216.8906 Q1292.8594,216.8906 1293.1094,217.1563 Q1293.375,217.4063 1293.375,217.75 Q1293.375,218.0938 1293.0313,218.5 Q1292.5313,219.0781 1291.7344,219.4063 Q1290.6563,219.8594 1289.3594,219.8594 Q1287.8438,219.8594 1286.6406,219.2344 Q1285.6563,218.7344 1284.9688,217.6719 Q1284.2813,216.5938 1284.2813,215.3125 L1284.2813,214.1563 Q1284.2813,212.8281 1284.8906,211.6875 Q1285.5156,210.5313 1286.6094,209.9219 Q1287.7031,209.2969 1288.9375,209.2969 Q1289.6719,209.2969 1290.3125,209.4688 Q1290.9688,209.625 1291.5156,209.9844 Z " fill="#000000"/><text fill="#000000" font-family="sans-serif" font-size="14" lengthAdjust="spacing" textLength="70" x="1309.25" y="219.8379">IAMService</text><line style="stroke:#181818;stroke-width:0.5;" x1="1166" x2="1490" y1="230.1094" y2="230.1094"/><line style="stroke:#181818;stroke-width:0.5;" x1="1166" x2="1490" y1="238.1094" y2="238.1094"/><text fill="#000000" font-family="sans-serif" font-size="14" lengthAdjust="spacing" textLength="314" x="1171" y="256.6426">+Redirect(): Task&lt;ActionResult&lt;RegisterToken&gt;&gt;</text></g><!--class RegisterToken--><g id="elem_RegisterToken"><rect codeLine="21" fill="#F1F1F1" height="65.6094" id="RegisterToken" rx="2.5" ry="2.5" style="stroke:#181818;stroke-width:0.5;" width="125" x="1265.5" y="394.6094"/><ellipse cx="1280.5" cy="410.6094" fill="#ADD1B2" rx="11" ry="11" style="stroke:#181818;stroke-width:1.0;"/><path d="M1283.2656,406.4844 Q1283.4219,406.2656 1283.6094,406.1563 Q1283.7969,406.0469 1284.0156,406.0469 Q1284.3906,406.0469 1284.625,406.3125 Q1284.8594,406.5625 1284.8594,407.1719 L1284.8594,408.625 Q1284.8594,409.2344 1284.625,409.5 Q1284.3906,409.7656 1284.0156,409.7656 Q1283.6719,409.7656 1283.4688,409.5625 Q1283.2656,409.375 1283.1563,408.8594 Q1283.1094,408.5 1282.9219,408.3125 Q1282.5938,407.9375 1281.9844,407.7188 Q1281.375,407.5 1280.75,407.5 Q1279.9844,407.5 1279.3438,407.8281 Q1278.7188,408.1563 1278.2188,408.9063 Q1277.7344,409.6563 1277.7344,410.6875 L1277.7344,411.7813 Q1277.7344,413.0156 1278.625,413.8438 Q1279.5156,414.6563 1281.1094,414.6563 Q1282.0469,414.6563 1282.7031,414.4063 Q1283.0938,414.25 1283.5156,413.8125 Q1283.7813,413.5469 1283.9219,413.4688 Q1284.0781,413.3906 1284.2813,413.3906 Q1284.6094,413.3906 1284.8594,413.6563 Q1285.125,413.9063 1285.125,414.25 Q1285.125,414.5938 1284.7813,415 Q1284.2813,415.5781 1283.4844,415.9063 Q1282.4063,416.3594 1281.1094,416.3594 Q1279.5938,416.3594 1278.3906,415.7344 Q1277.4063,415.2344 1276.7188,414.1719 Q1276.0313,413.0938 1276.0313,411.8125 L1276.0313,410.6563 Q1276.0313,409.3281 1276.6406,408.1875 Q1277.2656,407.0313 1278.3594,406.4219 Q1279.4531,405.7969 1280.6875,405.7969 Q1281.4219,405.7969 1282.0625,405.9688 Q1282.7188,406.125 1283.2656,406.4844 Z " fill="#000000"/><text fill="#000000" font-family="sans-serif" font-size="14" lengthAdjust="spacing" textLength="93" x="1294.5" y="416.3379">RegisterToken</text><line style="stroke:#181818;stroke-width:0.5;" x1="1266.5" x2="1389.5" y1="426.6094" y2="426.6094"/><text fill="#000000" font-family="sans-serif" font-size="14" lengthAdjust="spacing" textLength="84" x="1271.5" y="445.1426">+Email: Email</text><line style="stroke:#181818;stroke-width:0.5;" x1="1266.5" x2="1389.5" y1="452.2188" y2="452.2188"/></g><!--class IStaffRepository--><g id="elem_IStaffRepository"><rect codeLine="26" fill="#F1F1F1" height="83.2188" id="IStaffRepository" rx="2.5" ry="2.5" style="stroke:#181818;stroke-width:0.5;" width="300" x="14" y="386.1094"/><ellipse cx="109.25" cy="402.1094" fill="#B4A7E5" rx="11" ry="11" style="stroke:#181818;stroke-width:1.0;"/><path d="M110.2031,398.75 L110.2031,405.4063 L111.9219,405.4063 Q112.5313,405.4063 112.7969,405.6406 Q113.0625,405.875 113.0625,406.2656 Q113.0625,406.6406 112.7969,406.875 Q112.5313,407.1094 111.9219,407.1094 L106.7813,407.1094 Q106.1719,407.1094 105.9063,406.875 Q105.6406,406.6406 105.6406,406.25 Q105.6406,405.875 105.9063,405.6406 Q106.1719,405.4063 106.7813,405.4063 L108.5,405.4063 L108.5,398.75 L106.7813,398.75 Q106.1719,398.75 105.9063,398.5156 Q105.6406,398.2813 105.6406,397.8906 Q105.6406,397.5156 105.9063,397.2813 Q106.1719,397.0469 106.7813,397.0469 L111.9219,397.0469 Q112.5313,397.0469 112.7969,397.2813 Q113.0625,397.5156 113.0625,397.8906 Q113.0625,398.2813 112.7969,398.5156 Q112.5313,398.75 111.9219,398.75 L110.2031,398.75 Z " fill="#000000"/><text fill="#000000" font-family="sans-serif" font-size="14" font-style="italic" lengthAdjust="spacing" textLength="101" x="129.75" y="407.8379">IStaffRepository</text><line style="stroke:#181818;stroke-width:0.5;" x1="15" x2="313" y1="418.1094" y2="418.1094"/><line style="stroke:#181818;stroke-width:0.5;" x1="15" x2="313" y1="426.1094" y2="426.1094"/><text fill="#000000" font-family="sans-serif" font-size="14" lengthAdjust="spacing" textLength="288" x="20" y="444.6426">+GetByEmailAsync(email: Email): Task&lt;Staff&gt;</text><text fill="#000000" font-family="sans-serif" font-size="14" lengthAdjust="spacing" textLength="249" x="20" y="462.252">+UpdateAsync(staff: Staff): Task&lt;Staff&gt;</text></g><!--class IUserRepository--><g id="elem_IUserRepository"><rect codeLine="31" fill="#F1F1F1" height="65.6094" id="IUserRepository" rx="2.5" ry="2.5" style="stroke:#181818;stroke-width:0.5;" width="310" x="576" y="394.6094"/><ellipse cx="675.75" cy="410.6094" fill="#B4A7E5" rx="11" ry="11" style="stroke:#181818;stroke-width:1.0;"/><path d="M676.7031,407.25 L676.7031,413.9063 L678.4219,413.9063 Q679.0313,413.9063 679.2969,414.1406 Q679.5625,414.375 679.5625,414.7656 Q679.5625,415.1406 679.2969,415.375 Q679.0313,415.6094 678.4219,415.6094 L673.2813,415.6094 Q672.6719,415.6094 672.4063,415.375 Q672.1406,415.1406 672.1406,414.75 Q672.1406,414.375 672.4063,414.1406 Q672.6719,413.9063 673.2813,413.9063 L675,413.9063 L675,407.25 L673.2813,407.25 Q672.6719,407.25 672.4063,407.0156 Q672.1406,406.7813 672.1406,406.3906 Q672.1406,406.0156 672.4063,405.7813 Q672.6719,405.5469 673.2813,405.5469 L678.4219,405.5469 Q679.0313,405.5469 679.2969,405.7813 Q679.5625,406.0156 679.5625,406.3906 Q679.5625,406.7813 679.2969,407.0156 Q679.0313,407.25 678.4219,407.25 L676.7031,407.25 Z " fill="#000000"/><text fill="#000000" font-family="sans-serif" font-size="14" font-style="italic" lengthAdjust="spacing" textLength="102" x="696.25" y="416.3379">IUserRepository</text><line style="stroke:#181818;stroke-width:0.5;" x1="577" x2="885" y1="426.6094" y2="426.6094"/><line style="stroke:#181818;stroke-width:0.5;" x1="577" x2="885" y1="434.6094" y2="434.6094"/><text fill="#000000" font-family="sans-serif" font-size="14" lengthAdjust="spacing" textLength="298" x="582" y="453.1426">+AddAsync(dto: CreatingUserDto): Task&lt;User&gt;</text></g><!--class CreatingUserDto--><g id="elem_CreatingUserDto"><rect codeLine="35" fill="#F1F1F1" height="153.6563" id="CreatingUserDto" rx="2.5" ry="2.5" style="stroke:#181818;stroke-width:0.5;" width="192" x="349" y="350.6094"/><ellipse cx="388.75" cy="366.6094" fill="#ADD1B2" rx="11" ry="11" style="stroke:#181818;stroke-width:1.0;"/><path d="M391.5156,362.4844 Q391.6719,362.2656 391.8594,362.1563 Q392.0469,362.0469 392.2656,362.0469 Q392.6406,362.0469 392.875,362.3125 Q393.1094,362.5625 393.1094,363.1719 L393.1094,364.625 Q393.1094,365.2344 392.875,365.5 Q392.6406,365.7656 392.2656,365.7656 Q391.9219,365.7656 391.7188,365.5625 Q391.5156,365.375 391.4063,364.8594 Q391.3594,364.5 391.1719,364.3125 Q390.8438,363.9375 390.2344,363.7188 Q389.625,363.5 389,363.5 Q388.2344,363.5 387.5938,363.8281 Q386.9688,364.1563 386.4688,364.9063 Q385.9844,365.6563 385.9844,366.6875 L385.9844,367.7813 Q385.9844,369.0156 386.875,369.8438 Q387.7656,370.6563 389.3594,370.6563 Q390.2969,370.6563 390.9531,370.4063 Q391.3438,370.25 391.7656,369.8125 Q392.0313,369.5469 392.1719,369.4688 Q392.3281,369.3906 392.5313,369.3906 Q392.8594,369.3906 393.1094,369.6563 Q393.375,369.9063 393.375,370.25 Q393.375,370.5938 393.0313,371 Q392.5313,371.5781 391.7344,371.9063 Q390.6563,372.3594 389.3594,372.3594 Q387.8438,372.3594 386.6406,371.7344 Q385.6563,371.2344 384.9688,370.1719 Q384.2813,369.0938 384.2813,367.8125 L384.2813,366.6563 Q384.2813,365.3281 384.8906,364.1875 Q385.5156,363.0313 386.6094,362.4219 Q387.7031,361.7969 388.9375,361.7969 Q389.6719,361.7969 390.3125,361.9688 Q390.9688,362.125 391.5156,362.4844 Z " fill="#000000"/><text fill="#000000" font-family="sans-serif" font-size="14" lengthAdjust="spacing" textLength="105" x="408.25" y="372.3379">CreatingUserDto</text><line style="stroke:#181818;stroke-width:0.5;" x1="350" x2="540" y1="382.6094" y2="382.6094"/><text fill="#000000" font-family="sans-serif" font-size="14" lengthAdjust="spacing" textLength="84" x="355" y="401.1426">+Email: Email</text><text fill="#000000" font-family="sans-serif" font-size="14" lengthAdjust="spacing" textLength="74" x="355" y="418.752">+Role: Role</text><text fill="#000000" font-family="sans-serif" font-size="14" lengthAdjust="spacing" textLength="94" x="355" y="436.3613">+getRole: Role</text><line style="stroke:#181818;stroke-width:0.5;" x1="350" x2="540" y1="443.4375" y2="443.4375"/><text fill="#000000" font-family="sans-serif" font-size="14" lengthAdjust="spacing" textLength="114" x="355" y="461.9707">+getEmail(): Email</text><text fill="#000000" font-family="sans-serif" font-size="14" lengthAdjust="spacing" textLength="180" x="355" y="479.5801">+setEmail(email: Email): void</text><text fill="#000000" font-family="sans-serif" font-size="14" lengthAdjust="spacing" textLength="161" x="355" y="497.1895">+setRole(role: Role): void</text></g><!--class User--><g id="elem_User"><rect codeLine="44" fill="#F1F1F1" height="136.0469" id="User" rx="2.5" ry="2.5" style="stroke:#181818;stroke-width:0.5;" width="166" x="950" y="617.6094"/><ellipse cx="1014.25" cy="633.6094" fill="#ADD1B2" rx="11" ry="11" style="stroke:#181818;stroke-width:1.0;"/><path d="M1017.0156,629.4844 Q1017.1719,629.2656 1017.3594,629.1563 Q1017.5469,629.0469 1017.7656,629.0469 Q1018.1406,629.0469 1018.375,629.3125 Q1018.6094,629.5625 1018.6094,630.1719 L1018.6094,631.625 Q1018.6094,632.2344 1018.375,632.5 Q1018.1406,632.7656 1017.7656,632.7656 Q1017.4219,632.7656 1017.2188,632.5625 Q1017.0156,632.375 1016.9063,631.8594 Q1016.8594,631.5 1016.6719,631.3125 Q1016.3438,630.9375 1015.7344,630.7188 Q1015.125,630.5 1014.5,630.5 Q1013.7344,630.5 1013.0938,630.8281 Q1012.4688,631.1563 1011.9688,631.9063 Q1011.4844,632.6563 1011.4844,633.6875 L1011.4844,634.7813 Q1011.4844,636.0156 1012.375,636.8438 Q1013.2656,637.6563 1014.8594,637.6563 Q1015.7969,637.6563 1016.4531,637.4063 Q1016.8438,637.25 1017.2656,636.8125 Q1017.5313,636.5469 1017.6719,636.4688 Q1017.8281,636.3906 1018.0313,636.3906 Q1018.3594,636.3906 1018.6094,636.6563 Q1018.875,636.9063 1018.875,637.25 Q1018.875,637.5938 1018.5313,638 Q1018.0313,638.5781 1017.2344,638.9063 Q1016.1563,639.3594 1014.8594,639.3594 Q1013.3438,639.3594 1012.1406,638.7344 Q1011.1563,638.2344 1010.4688,637.1719 Q1009.7813,636.0938 1009.7813,634.8125 L1009.7813,633.6563 Q1009.7813,632.3281 1010.3906,631.1875 Q1011.0156,630.0313 1012.1094,629.4219 Q1013.2031,628.7969 1014.4375,628.7969 Q1015.1719,628.7969 1015.8125,628.9688 Q1016.4688,629.125 1017.0156,629.4844 Z " fill="#000000"/><text fill="#000000" font-family="sans-serif" font-size="14" lengthAdjust="spacing" textLength="29" x="1034.75" y="639.3379">User</text><line style="stroke:#181818;stroke-width:0.5;" x1="951" x2="1115" y1="649.6094" y2="649.6094"/><text fill="#000000" font-family="sans-serif" font-size="14" lengthAdjust="spacing" textLength="96" x="956" y="668.1426">+UserId: UserId</text><text fill="#000000" font-family="sans-serif" font-size="14" lengthAdjust="spacing" textLength="144" x="956" y="685.752">+Username: Username</text><text fill="#000000" font-family="sans-serif" font-size="14" lengthAdjust="spacing" textLength="84" x="956" y="703.3613">+Email: Email</text><text fill="#000000" font-family="sans-serif" font-size="14" lengthAdjust="spacing" textLength="74" x="956" y="720.9707">+Role: Role</text><text fill="#000000" font-family="sans-serif" font-size="14" lengthAdjust="spacing" textLength="154" x="956" y="738.5801">+UserStatus: UserStatus</text><line style="stroke:#181818;stroke-width:0.5;" x1="951" x2="1115" y1="745.6563" y2="745.6563"/></g><!--class UserDto--><g id="elem_UserDto"><rect codeLine="52" fill="#F1F1F1" height="100.8281" id="UserDto" rx="2.5" ry="2.5" style="stroke:#181818;stroke-width:0.5;" width="166" x="921" y="377.1094"/><ellipse cx="974.25" cy="393.1094" fill="#ADD1B2" rx="11" ry="11" style="stroke:#181818;stroke-width:1.0;"/><path d="M977.0156,388.9844 Q977.1719,388.7656 977.3594,388.6563 Q977.5469,388.5469 977.7656,388.5469 Q978.1406,388.5469 978.375,388.8125 Q978.6094,389.0625 978.6094,389.6719 L978.6094,391.125 Q978.6094,391.7344 978.375,392 Q978.1406,392.2656 977.7656,392.2656 Q977.4219,392.2656 977.2188,392.0625 Q977.0156,391.875 976.9063,391.3594 Q976.8594,391 976.6719,390.8125 Q976.3438,390.4375 975.7344,390.2188 Q975.125,390 974.5,390 Q973.7344,390 973.0938,390.3281 Q972.4688,390.6563 971.9688,391.4063 Q971.4844,392.1563 971.4844,393.1875 L971.4844,394.2813 Q971.4844,395.5156 972.375,396.3438 Q973.2656,397.1563 974.8594,397.1563 Q975.7969,397.1563 976.4531,396.9063 Q976.8438,396.75 977.2656,396.3125 Q977.5313,396.0469 977.6719,395.9688 Q977.8281,395.8906 978.0313,395.8906 Q978.3594,395.8906 978.6094,396.1563 Q978.875,396.4063 978.875,396.75 Q978.875,397.0938 978.5313,397.5 Q978.0313,398.0781 977.2344,398.4063 Q976.1563,398.8594 974.8594,398.8594 Q973.3438,398.8594 972.1406,398.2344 Q971.1563,397.7344 970.4688,396.6719 Q969.7813,395.5938 969.7813,394.3125 L969.7813,393.1563 Q969.7813,391.8281 970.3906,390.6875 Q971.0156,389.5313 972.1094,388.9219 Q973.2031,388.2969 974.4375,388.2969 Q975.1719,388.2969 975.8125,388.4688 Q976.4688,388.625 977.0156,388.9844 Z " fill="#000000"/><text fill="#000000" font-family="sans-serif" font-size="14" lengthAdjust="spacing" textLength="51" x="994.75" y="398.8379">UserDto</text><line style="stroke:#181818;stroke-width:0.5;" x1="922" x2="1086" y1="409.1094" y2="409.1094"/><text fill="#000000" font-family="sans-serif" font-size="14" lengthAdjust="spacing" textLength="84" x="927" y="427.6426">+Email: Email</text><text fill="#000000" font-family="sans-serif" font-size="14" lengthAdjust="spacing" textLength="74" x="927" y="445.252">+Role: Role</text><text fill="#000000" font-family="sans-serif" font-size="14" lengthAdjust="spacing" textLength="154" x="927" y="462.8613">+UserStatus: UserStatus</text><line style="stroke:#181818;stroke-width:0.5;" x1="922" x2="1086" y1="469.9375" y2="469.9375"/></g><!--class UserMapper--><g id="elem_UserMapper"><rect codeLine="58" fill="#F1F1F1" height="83.2188" id="UserMapper" rx="2.5" ry="2.5" style="stroke:#181818;stroke-width:0.5;" width="222" x="908" y="189.6094"/><ellipse cx="976.25" cy="205.6094" fill="#ADD1B2" rx="11" ry="11" style="stroke:#181818;stroke-width:1.0;"/><path d="M979.0156,201.4844 Q979.1719,201.2656 979.3594,201.1563 Q979.5469,201.0469 979.7656,201.0469 Q980.1406,201.0469 980.375,201.3125 Q980.6094,201.5625 980.6094,202.1719 L980.6094,203.625 Q980.6094,204.2344 980.375,204.5 Q980.1406,204.7656 979.7656,204.7656 Q979.4219,204.7656 979.2188,204.5625 Q979.0156,204.375 978.9063,203.8594 Q978.8594,203.5 978.6719,203.3125 Q978.3438,202.9375 977.7344,202.7188 Q977.125,202.5 976.5,202.5 Q975.7344,202.5 975.0938,202.8281 Q974.4688,203.1563 973.9688,203.9063 Q973.4844,204.6563 973.4844,205.6875 L973.4844,206.7813 Q973.4844,208.0156 974.375,208.8438 Q975.2656,209.6563 976.8594,209.6563 Q977.7969,209.6563 978.4531,209.4063 Q978.8438,209.25 979.2656,208.8125 Q979.5313,208.5469 979.6719,208.4688 Q979.8281,208.3906 980.0313,208.3906 Q980.3594,208.3906 980.6094,208.6563 Q980.875,208.9063 980.875,209.25 Q980.875,209.5938 980.5313,210 Q980.0313,210.5781 979.2344,210.9063 Q978.1563,211.3594 976.8594,211.3594 Q975.3438,211.3594 974.1406,210.7344 Q973.1563,210.2344 972.4688,209.1719 Q971.7813,208.0938 971.7813,206.8125 L971.7813,205.6563 Q971.7813,204.3281 972.3906,203.1875 Q973.0156,202.0313 974.1094,201.4219 Q975.2031,200.7969 976.4375,200.7969 Q977.1719,200.7969 977.8125,200.9688 Q978.4688,201.125 979.0156,201.4844 Z " fill="#000000"/><text fill="#000000" font-family="sans-serif" font-size="14" lengthAdjust="spacing" textLength="77" x="996.75" y="211.3379">UserMapper</text><line style="stroke:#181818;stroke-width:0.5;" x1="909" x2="1129" y1="221.6094" y2="221.6094"/><line style="stroke:#181818;stroke-width:0.5;" x1="909" x2="1129" y1="229.6094" y2="229.6094"/><text fill="#000000" font-family="sans-serif" font-size="14" lengthAdjust="spacing" textLength="180" x="914" y="248.1426">+ToUser(dto: UserDto): User</text><text fill="#000000" font-family="sans-serif" font-size="14" lengthAdjust="spacing" textLength="210" x="914" y="265.752">+ToUserDto(user: User): UserDto</text></g><!--class Staff--><g id="elem_Staff"><rect codeLine="63" fill="#F1F1F1" height="206.4844" id="Staff" rx="2.5" ry="2.5" style="stroke:#181818;stroke-width:0.5;" width="314" x="7" y="582.6094"/><ellipse cx="145.25" cy="598.6094" fill="#ADD1B2" rx="11" ry="11" style="stroke:#181818;stroke-width:1.0;"/><path d="M148.0156,594.4844 Q148.1719,594.2656 148.3594,594.1563 Q148.5469,594.0469 148.7656,594.0469 Q149.1406,594.0469 149.375,594.3125 Q149.6094,594.5625 149.6094,595.1719 L149.6094,596.625 Q149.6094,597.2344 149.375,597.5 Q149.1406,597.7656 148.7656,597.7656 Q148.4219,597.7656 148.2188,597.5625 Q148.0156,597.375 147.9063,596.8594 Q147.8594,596.5 147.6719,596.3125 Q147.3438,595.9375 146.7344,595.7188 Q146.125,595.5 145.5,595.5 Q144.7344,595.5 144.0938,595.8281 Q143.4688,596.1563 142.9688,596.9063 Q142.4844,597.6563 142.4844,598.6875 L142.4844,599.7813 Q142.4844,601.0156 143.375,601.8438 Q144.2656,602.6563 145.8594,602.6563 Q146.7969,602.6563 147.4531,602.4063 Q147.8438,602.25 148.2656,601.8125 Q148.5313,601.5469 148.6719,601.4688 Q148.8281,601.3906 149.0313,601.3906 Q149.3594,601.3906 149.6094,601.6563 Q149.875,601.9063 149.875,602.25 Q149.875,602.5938 149.5313,603 Q149.0313,603.5781 148.2344,603.9063 Q147.1563,604.3594 145.8594,604.3594 Q144.3438,604.3594 143.1406,603.7344 Q142.1563,603.2344 141.4688,602.1719 Q140.7813,601.0938 140.7813,599.8125 L140.7813,598.6563 Q140.7813,597.3281 141.3906,596.1875 Q142.0156,595.0313 143.1094,594.4219 Q144.2031,593.7969 145.4375,593.7969 Q146.1719,593.7969 146.8125,593.9688 Q147.4688,594.125 148.0156,594.4844 Z " fill="#000000"/><text fill="#000000" font-family="sans-serif" font-size="14" lengthAdjust="spacing" textLength="29" x="165.75" y="604.3379">Staff</text><line style="stroke:#181818;stroke-width:0.5;" x1="8" x2="320" y1="614.6094" y2="614.6094"/><text fill="#000000" font-family="sans-serif" font-size="14" lengthAdjust="spacing" textLength="96" x="13" y="633.1426">+StaffId: StaffId</text><text fill="#000000" font-family="sans-serif" font-size="14" lengthAdjust="spacing" textLength="96" x="13" y="650.752">+UserId: UserId</text><text fill="#000000" font-family="sans-serif" font-size="14" lengthAdjust="spacing" textLength="134" x="13" y="668.3613">+FullName: FullName</text><text fill="#000000" font-family="sans-serif" font-size="14" lengthAdjust="spacing" textLength="164" x="13" y="685.9707">+DateOfBirth: DateOfBirth</text><text fill="#000000" font-family="sans-serif" font-size="14" lengthAdjust="spacing" textLength="112" x="13" y="703.5801">+Gender: Gender</text><text fill="#000000" font-family="sans-serif" font-size="14" lengthAdjust="spacing" textLength="302" x="13" y="721.1895">+MedicalRecordNumber: MedicalRecordNumber</text><text fill="#000000" font-family="sans-serif" font-size="14" lengthAdjust="spacing" textLength="254" x="13" y="738.7988">+ContactInformation: ContactInformation</text><text fill="#000000" font-family="sans-serif" font-size="14" lengthAdjust="spacing" textLength="232" x="13" y="756.4082">+MedicalCondition: MedicalCondition</text><text fill="#000000" font-family="sans-serif" font-size="14" lengthAdjust="spacing" textLength="256" x="13" y="774.0176">+EmergencyContact: EmergencyContact</text><line style="stroke:#181818;stroke-width:0.5;" x1="8" x2="320" y1="781.0938" y2="781.0938"/></g><!--class Admin--><g id="elem_Admin"><rect codeLine="76" fill="#F1F1F1" height="58.7031" id="Admin" rx="2.5" ry="2.5" style="stroke:#181818;stroke-width:0.5;" width="133" x="724.5" y="656.1094"/><ellipse cx="739.5" cy="677.4609" fill="#ADD1B2" rx="11" ry="11" style="stroke:#181818;stroke-width:1.0;"/><path d="M742.2656,673.3359 Q742.4219,673.1172 742.6094,673.0078 Q742.7969,672.8984 743.0156,672.8984 Q743.3906,672.8984 743.625,673.1641 Q743.8594,673.4141 743.8594,674.0234 L743.8594,675.4766 Q743.8594,676.0859 743.625,676.3516 Q743.3906,676.6172 743.0156,676.6172 Q742.6719,676.6172 742.4688,676.4141 Q742.2656,676.2266 742.1563,675.7109 Q742.1094,675.3516 741.9219,675.1641 Q741.5938,674.7891 740.9844,674.5703 Q740.375,674.3516 739.75,674.3516 Q738.9844,674.3516 738.3438,674.6797 Q737.7188,675.0078 737.2188,675.7578 Q736.7344,676.5078 736.7344,677.5391 L736.7344,678.6328 Q736.7344,679.8672 737.625,680.6953 Q738.5156,681.5078 740.1094,681.5078 Q741.0469,681.5078 741.7031,681.2578 Q742.0938,681.1016 742.5156,680.6641 Q742.7813,680.3984 742.9219,680.3203 Q743.0781,680.2422 743.2813,680.2422 Q743.6094,680.2422 743.8594,680.5078 Q744.125,680.7578 744.125,681.1016 Q744.125,681.4453 743.7813,681.8516 Q743.2813,682.4297 742.4844,682.7578 Q741.4063,683.2109 740.1094,683.2109 Q738.5938,683.2109 737.3906,682.5859 Q736.4063,682.0859 735.7188,681.0234 Q735.0313,679.9453 735.0313,678.6641 L735.0313,677.5078 Q735.0313,676.1797 735.6406,675.0391 Q736.2656,673.8828 737.3594,673.2734 Q738.4531,672.6484 739.6875,672.6484 Q740.4219,672.6484 741.0625,672.8203 Q741.7188,672.9766 742.2656,673.3359 Z " fill="#000000"/><text fill="#000000" font-family="sans-serif" font-size="12" font-style="italic" lengthAdjust="spacing" textLength="105" x="751.5" y="673.5664">&#171;conceptual class&#187;</text><text fill="#000000" font-family="sans-serif" font-size="14" lengthAdjust="spacing" textLength="39" x="784.5" y="690.7363">Admin</text><line style="stroke:#181818;stroke-width:0.5;" x1="725.5" x2="856.5" y1="698.8125" y2="698.8125"/><line style="stroke:#181818;stroke-width:0.5;" x1="725.5" x2="856.5" y1="706.8125" y2="706.8125"/></g><!--link UserController to UserService--><g id="link_UserController_UserService"><path codeLine="78" d="M950.88,111.7094 C898.42,137.1794 830.8473,169.9785 778.4173,195.4385 " fill="none" id="UserController-to-UserService" style="stroke:#181818;stroke-width:1.0;stroke-dasharray:7.0,7.0;"/><polygon fill="#181818" points="773.02,198.0594,782.8632,197.7262,777.5177,195.8753,779.3687,190.5298,773.02,198.0594" style="stroke:#181818;stroke-width:1.0;"/><polygon fill="#000000" points="881.5021,152.9689,890.9225,151.6623,888.3554,146.3747,881.5021,152.9689" style="stroke:#000000;stroke-width:1.0;"/><text fill="#000000" font-family="sans-serif" font-size="13" lengthAdjust="spacing" textLength="28" x="895" y="156.1045">uses</text></g><!--link UserController to IAMService--><g id="link_UserController_IAMService"><path codeLine="79" d="M1083.34,111.7094 C1135.96,137.1794 1203.7694,169.9853 1256.3694,195.4453 " fill="none" id="UserController-to-IAMService" style="stroke:#181818;stroke-width:1.0;stroke-dasharray:7.0,7.0;"/><polygon fill="#181818" points="1261.77,198.0594,1255.4118,190.5379,1257.2695,195.881,1251.9264,197.7387,1261.77,198.0594" style="stroke:#181818;stroke-width:1.0;"/><polygon fill="#000000" points="1191.5007,152.9632,1184.6391,146.3776,1182.0786,151.6685,1191.5007,152.9632" style="stroke:#000000;stroke-width:1.0;"/><text fill="#000000" font-family="sans-serif" font-size="13" lengthAdjust="spacing" textLength="28" x="1196" y="156.1045">uses</text></g><!--link UserService to IUserRepository--><g id="link_UserService_IUserRepository"><path codeLine="84" d="M710.96,264.2294 C715.41,300.2694 721.8449,352.4346 726.2949,388.4846 " fill="none" id="UserService-to-IUserRepository" style="stroke:#181818;stroke-width:1.0;"/><polygon fill="#181818" points="727.03,394.4394,729.8973,385.0171,726.4175,389.477,721.9575,385.9972,727.03,394.4394" style="stroke:#181818;stroke-width:1.0;"/><polygon fill="#000000" points="723.6124,316.7475,725.4213,307.4106,719.5877,308.1305,723.6124,316.7475" style="stroke:#000000;stroke-width:1.0;"/><text fill="#000000" font-family="sans-serif" font-size="13" lengthAdjust="spacing" textLength="28" x="732" y="317.1045">uses</text></g><!--link UserService to IStaffRepository--><g id="link_UserService_IStaffRepository"><path codeLine="85" d="M592.64,264.2094 C517.49,286.2694 417.43,317.4594 331,350.6094 C303.64,361.0994 279.8233,371.367 253.5633,383.417 " fill="none" id="UserService-to-IStaffRepository" style="stroke:#181818;stroke-width:1.0;"/><polygon fill="#181818" points="248.11,385.9194,257.9582,385.8014,252.6544,383.8341,254.6217,378.5303,248.11,385.9194" style="stroke:#181818;stroke-width:1.0;"/><polygon fill="#000000" points="464.283,313.4435,473.7909,313.2161,471.8414,307.671,464.283,313.4435" style="stroke:#000000;stroke-width:1.0;"/><text fill="#000000" font-family="sans-serif" font-size="13" lengthAdjust="spacing" textLength="28" x="478" y="317.1045">uses</text></g><!--link UserService to CreatingUserDto--><g id="link_UserService_CreatingUserDto"><path codeLine="87" d="M663.74,264.2294 C630.45,288.9394 587.9975,320.4529 545.9175,351.6929 " fill="none" id="UserService-to-CreatingUserDto" style="stroke:#181818;stroke-width:1.0;"/><polygon fill="#181818" points="541.1,355.2694,550.7106,353.1163,545.1146,352.2889,545.942,346.6929,541.1,355.2694" style="stroke:#181818;stroke-width:1.0;"/><polygon fill="#000000" points="608.9853,314.7654,617.9997,311.7339,614.4962,307.0143,608.9853,314.7654" style="stroke:#000000;stroke-width:1.0;"/><text fill="#000000" font-family="sans-serif" font-size="13" lengthAdjust="spacing" textLength="47" x="622" y="317.1045">receives</text></g><!--link UserService to UserDto--><g id="link_UserService_UserDto"><path codeLine="88" d="M763.7,264.3394 C803.36,287.3794 857.21,319.6594 903,350.6094 C915.18,358.8394 923.0787,364.398 935.2287,373.398 " fill="none" id="UserService-to-UserDto" style="stroke:#181818;stroke-width:1.0;"/><polygon fill="#181818" points="940.05,376.9694,935.1989,368.3981,936.0322,373.9932,930.4371,374.8266,940.05,376.9694" style="stroke:#181818;stroke-width:1.0;"/><polygon fill="#000000" points="865.2194,314.4679,859.1633,307.1347,856.0096,312.0949,865.2194,314.4679" style="stroke:#000000;stroke-width:1.0;"/><text fill="#000000" font-family="sans-serif" font-size="13" lengthAdjust="spacing" textLength="40" x="870" y="317.1045">returns</text></g><!--link IAMService to RegisterToken--><g id="link_IAMService_RegisterToken"><path codeLine="90" d="M1328,264.2294 C1328,300.2694 1328,352.3894 1328,388.4394 " fill="none" id="IAMService-to-RegisterToken" style="stroke:#181818;stroke-width:1.0;"/><polygon fill="#181818" points="1328,394.4394,1332,385.4394,1328,389.4394,1324,385.4394,1328,394.4394" style="stroke:#181818;stroke-width:1.0;"/><polygon fill="#000000" points="1333,316.7852,1335.9389,307.7401,1330.0611,307.7401,1333,316.7852" style="stroke:#000000;stroke-width:1.0;"/><text fill="#000000" font-family="sans-serif" font-size="13" lengthAdjust="spacing" textLength="40" x="1342" y="317.1045">returns</text></g><!--link UserMapper to User--><g id="link_UserMapper_User"><path codeLine="92" d="M1057.83,272.6894 C1075.6,294.0694 1094.74,321.8094 1104,350.6094 C1133.08,441.0494 1100.3701,543.658 1070.0101,611.858 " fill="none" id="UserMapper-to-User" style="stroke:#181818;stroke-width:1.0;"/><polygon fill="#181818" points="1067.57,617.3394,1074.8844,610.744,1069.6034,612.7715,1067.5759,607.4905,1067.57,617.3394" style="stroke:#181818;stroke-width:1.0;"/><polygon fill="#000000" points="1120.1794,432.7819,1122.7919,423.6372,1116.9178,423.8482,1120.1794,432.7819" style="stroke:#000000;stroke-width:1.0;"/><text fill="#000000" font-family="sans-serif" font-size="13" lengthAdjust="spacing" textLength="32" x="1129" y="433.1045">maps</text></g><!--link UserMapper to UserDto--><g id="link_UserMapper_UserDto"><path codeLine="93" d="M1015.86,272.8794 C1013.52,303.1794 1010.7819,338.6872 1008.2919,370.9372 " fill="none" id="UserMapper-to-UserDto" style="stroke:#181818;stroke-width:1.0;"/><polygon fill="#181818" points="1007.83,376.9194,1012.511,368.254,1008.2149,371.9342,1004.5347,367.6382,1007.83,376.9194" style="stroke:#181818;stroke-width:1.0;"/><polygon fill="#000000" points="1018.6152,316.7703,1022.2415,307.9782,1016.3811,307.5259,1018.6152,316.7703" style="stroke:#000000;stroke-width:1.0;"/><text fill="#000000" font-family="sans-serif" font-size="13" lengthAdjust="spacing" textLength="32" x="1028" y="317.1045">maps</text></g><!--link IUserRepository to User--><g id="link_IUserRepository_User"><path codeLine="95" d="M768.94,460.7694 C815.12,499.9194 889.7329,563.1699 949.3729,613.7199 " fill="none" id="IUserRepository-to-User" style="stroke:#181818;stroke-width:1.0;"/><polygon fill="#181818" points="953.95,617.5994,949.6707,608.7288,950.1358,614.3665,944.4981,614.8316,953.95,617.5994" style="stroke:#181818;stroke-width:1.0;"/><polygon fill="#000000" points="881.814,547.0183,876.8147,538.9277,873.014,543.4114,881.814,547.0183" style="stroke:#000000;stroke-width:1.0;"/><text fill="#000000" font-family="sans-serif" font-size="13" lengthAdjust="spacing" textLength="33" x="887" y="549.1045">saves</text></g><!--link IStaffRepository to Staff--><g id="link_IStaffRepository_Staff"><path codeLine="96" d="M164,469.1694 C164,499.6294 164,536.7294 164,576.3894 " fill="none" id="IStaffRepository-to-Staff" style="stroke:#181818;stroke-width:1.0;"/><polygon fill="#181818" points="164,582.3894,168,573.3894,164,577.3894,160,573.3894,164,582.3894" style="stroke:#181818;stroke-width:1.0;"/><polygon fill="#000000" points="169,548.7852,171.9389,539.7401,166.0611,539.7401,169,548.7852" style="stroke:#000000;stroke-width:1.0;"/><text fill="#000000" font-family="sans-serif" font-size="13" lengthAdjust="spacing" textLength="33" x="178" y="549.1045">saves</text></g><!--link Admin to User--><g id="link_Admin_User"><path codeLine="100" d="M857.77,685.6094 C886.17,685.6094 913.59,685.6094 943.6,685.6094 " fill="none" id="Admin-to-User" style="stroke:#181818;stroke-width:1.0;"/><polygon fill="#181818" points="949.6,685.6094,940.6,681.6094,944.6,685.6094,940.6,689.6094,949.6,685.6094" style="stroke:#181818;stroke-width:1.0;"/><polygon fill="#000000" points="884.75,673.7852,875.7049,670.8462,875.7049,676.7241,884.75,673.7852" style="stroke:#000000;stroke-width:1.0;"/><text fill="#000000" font-family="sans-serif" font-size="13" lengthAdjust="spacing" textLength="43" x="888.75" y="679.1045">creates</text><text fill="#000000" font-family="sans-serif" font-size="13" lengthAdjust="spacing" textLength="7" x="865.4558" y="682.265">1</text><text fill="#000000" font-family="sans-serif" font-size="13" lengthAdjust="spacing" textLength="5" x="936.9495" y="682.4056">*</text></g><!--SRC=[bPNDRk8m483lUGgB2xIh8hh7225Hs1yExQwWVG0t6S0YiIFROSMkzjrtR6FYEA7jSY3Ep3S_7dicwi1uHIKjIKMp0zt1HfyA818oJVckW4HT0BMdkVZ5-8viQQ4W2LHPGPMQQotPQwrXbGc-OR-1J994Cutk5aPFbepk33rQB6_87NbPJ2RtIM9joOi2kH1SIr4K8CcVXE3lqq82rJ3AjKY9NMDqGowrk4d9CrM7wJpJJF0rgBhGqxDkDal-Xeut88yi0-zrdkTpTUBPctwzgyRJQluOELf3paobHht9h677b0RvB0x0mvHQ2k_hIqbPaHBxi98X-XS5fCJy6sF6qMPBCVnge-bskuPAAAQ5F7aVtq0_dAm7jpy8VFeKhUdCyIzLZkLrh3Bob5XrnBPZcy9qGt-ufa4T8kfg9S8wsFSTQAirTGym5CUaycHKYgDW-OKm-4XUBBswTOLyScQzobFYdesCqnASrAm-kX5xEJNLjNAsRjsE_5-L-OZ3HrfLpOQUXP6vOskEown2FKf7DJwTvkQ2DfxjNV5ExOifqtbnlNPVww9uihNpAoTVuiNyiNrWKkzJ4hpuYyvpaunxEjaZDcD6YpLaGkPFTVbgW1xXURBWhA6PNl6ja2KrNOktjYDhUKPrpXmPI_pnWDm1pqvdH-Qasf9aw9gbgWHsL0bSVyT9W6sKagwigUqyBnadqodErGmgNTF2JLmSAaaqECVZMMlafMH6yE1K7nSCj0k66KRatTsiqwa6ny47x8WclHPjKjUIAvUhZsYWU9Qqacs1yS1hyetHDrEDuTuiWx8OfZsjE_ivTvFtPe6ILgfFwKDPVHBltbE6KDIaszcsGJPkK7i6onzlsL3dKR6dYk0bSHTeS3yWg1hS3YvnClk1jLvS0rl6GFYyTB7pqeSqxNkTQRLoXDqscE_fwuvwE_mwtjVY4JqPZtq6RjbjzOnoj3h2bQoxFUz33BiPzVNz-OI6FUcsR7_k1OTuq-_Oj2_1i9FiUm7Gn1zmWtuUaF34aGaiemEeSIPWi3oaRPU4cFyi-4tr0hnroJf8QwTU7noJ-qvULOUVJGVz0m00]--></g></svg>