<?xml version="1.0" encoding="us-ascii" standalone="no"?><svg xmlns="http://www.w3.org/2000/svg" xmlns:xlink="http://www.w3.org/1999/xlink" contentStyleType="text/css" height="993px" preserveAspectRatio="none" style="width:1277px;height:993px;background:#FFFFFF;" version="1.1" viewBox="0 0 1277 993" width="1277px" zoomAndPan="magnify"><defs/><g><text fill="#000000" font-family="sans-serif" font-size="14" font-weight="bold" lengthAdjust="spacing" textLength="190" x="536.5" y="24.5332">Class Diagram (CD) - UC020</text><!--class OperationTypeController--><g id="elem_OperationTypeController"><rect codeLine="12" fill="#F1F1F1" height="65.6094" id="OperationTypeController" rx="2.5" ry="2.5" style="stroke:#181818;stroke-width:0.5;" width="539" x="106.5" y="45.6094"/><ellipse cx="293.25" cy="61.6094" fill="#ADD1B2" rx="11" ry="11" style="stroke:#181818;stroke-width:1.0;"/><path d="M296.0156,57.4844 Q296.1719,57.2656 296.3594,57.1563 Q296.5469,57.0469 296.7656,57.0469 Q297.1406,57.0469 297.375,57.3125 Q297.6094,57.5625 297.6094,58.1719 L297.6094,59.625 Q297.6094,60.2344 297.375,60.5 Q297.1406,60.7656 296.7656,60.7656 Q296.4219,60.7656 296.2188,60.5625 Q296.0156,60.375 295.9063,59.8594 Q295.8594,59.5 295.6719,59.3125 Q295.3438,58.9375 294.7344,58.7188 Q294.125,58.5 293.5,58.5 Q292.7344,58.5 292.0938,58.8281 Q291.4688,59.1563 290.9688,59.9063 Q290.4844,60.6563 290.4844,61.6875 L290.4844,62.7813 Q290.4844,64.0156 291.375,64.8438 Q292.2656,65.6563 293.8594,65.6563 Q294.7969,65.6563 295.4531,65.4063 Q295.8438,65.25 296.2656,64.8125 Q296.5313,64.5469 296.6719,64.4688 Q296.8281,64.3906 297.0313,64.3906 Q297.3594,64.3906 297.6094,64.6563 Q297.875,64.9063 297.875,65.25 Q297.875,65.5938 297.5313,66 Q297.0313,66.5781 296.2344,66.9063 Q295.1563,67.3594 293.8594,67.3594 Q292.3438,67.3594 291.1406,66.7344 Q290.1563,66.2344 289.4688,65.1719 Q288.7813,64.0938 288.7813,62.8125 L288.7813,61.6563 Q288.7813,60.3281 289.3906,59.1875 Q290.0156,58.0313 291.1094,57.4219 Q292.2031,56.7969 293.4375,56.7969 Q294.1719,56.7969 294.8125,56.9688 Q295.4688,57.125 296.0156,57.4844 Z " fill="#000000"/><text fill="#000000" font-family="sans-serif" font-size="14" lengthAdjust="spacing" textLength="157" x="313.75" y="67.3379">OperationTypeController</text><line style="stroke:#181818;stroke-width:0.5;" x1="107.5" x2="644.5" y1="77.6094" y2="77.6094"/><line style="stroke:#181818;stroke-width:0.5;" x1="107.5" x2="644.5" y1="85.6094" y2="85.6094"/><text fill="#000000" font-family="sans-serif" font-size="14" lengthAdjust="spacing" textLength="527" x="112.5" y="104.1426">+Create(dto: CreatingOperationTypeDto): Task&lt;ActionResult&lt;OperationTypeDto&gt;&gt;</text></g><!--class OperationTypeService--><g id="elem_OperationTypeService"><rect codeLine="16" fill="#F1F1F1" height="65.6094" id="OperationTypeService" rx="2.5" ry="2.5" style="stroke:#181818;stroke-width:0.5;" width="464" x="144" y="171.6094"/><ellipse cx="300.75" cy="187.6094" fill="#ADD1B2" rx="11" ry="11" style="stroke:#181818;stroke-width:1.0;"/><path d="M303.5156,183.4844 Q303.6719,183.2656 303.8594,183.1563 Q304.0469,183.0469 304.2656,183.0469 Q304.6406,183.0469 304.875,183.3125 Q305.1094,183.5625 305.1094,184.1719 L305.1094,185.625 Q305.1094,186.2344 304.875,186.5 Q304.6406,186.7656 304.2656,186.7656 Q303.9219,186.7656 303.7188,186.5625 Q303.5156,186.375 303.4063,185.8594 Q303.3594,185.5 303.1719,185.3125 Q302.8438,184.9375 302.2344,184.7188 Q301.625,184.5 301,184.5 Q300.2344,184.5 299.5938,184.8281 Q298.9688,185.1563 298.4688,185.9063 Q297.9844,186.6563 297.9844,187.6875 L297.9844,188.7813 Q297.9844,190.0156 298.875,190.8438 Q299.7656,191.6563 301.3594,191.6563 Q302.2969,191.6563 302.9531,191.4063 Q303.3438,191.25 303.7656,190.8125 Q304.0313,190.5469 304.1719,190.4688 Q304.3281,190.3906 304.5313,190.3906 Q304.8594,190.3906 305.1094,190.6563 Q305.375,190.9063 305.375,191.25 Q305.375,191.5938 305.0313,192 Q304.5313,192.5781 303.7344,192.9063 Q302.6563,193.3594 301.3594,193.3594 Q299.8438,193.3594 298.6406,192.7344 Q297.6563,192.2344 296.9688,191.1719 Q296.2813,190.0938 296.2813,188.8125 L296.2813,187.6563 Q296.2813,186.3281 296.8906,185.1875 Q297.5156,184.0313 298.6094,183.4219 Q299.7031,182.7969 300.9375,182.7969 Q301.6719,182.7969 302.3125,182.9688 Q302.9688,183.125 303.5156,183.4844 Z " fill="#000000"/><text fill="#000000" font-family="sans-serif" font-size="14" lengthAdjust="spacing" textLength="142" x="321.25" y="193.3379">OperationTypeService</text><line style="stroke:#181818;stroke-width:0.5;" x1="145" x2="607" y1="203.6094" y2="203.6094"/><line style="stroke:#181818;stroke-width:0.5;" x1="145" x2="607" y1="211.6094" y2="211.6094"/><text fill="#000000" font-family="sans-serif" font-size="14" lengthAdjust="spacing" textLength="452" x="150" y="230.1426">+AddAsync(dto: CreatingOperationTypeDto): Task&lt;OperationTypeDto&gt;</text></g><!--class IOperationTypeRepository--><g id="elem_IOperationTypeRepository"><rect codeLine="20" fill="#F1F1F1" height="83.2188" id="IOperationTypeRepository" rx="2.5" ry="2.5" style="stroke:#181818;stroke-width:0.5;" width="463" x="785.5" y="297.6094"/><ellipse cx="929.25" cy="313.6094" fill="#B4A7E5" rx="11" ry="11" style="stroke:#181818;stroke-width:1.0;"/><path d="M930.2031,310.25 L930.2031,316.9063 L931.9219,316.9063 Q932.5313,316.9063 932.7969,317.1406 Q933.0625,317.375 933.0625,317.7656 Q933.0625,318.1406 932.7969,318.375 Q932.5313,318.6094 931.9219,318.6094 L926.7813,318.6094 Q926.1719,318.6094 925.9063,318.375 Q925.6406,318.1406 925.6406,317.75 Q925.6406,317.375 925.9063,317.1406 Q926.1719,316.9063 926.7813,316.9063 L928.5,316.9063 L928.5,310.25 L926.7813,310.25 Q926.1719,310.25 925.9063,310.0156 Q925.6406,309.7813 925.6406,309.3906 Q925.6406,309.0156 925.9063,308.7813 Q926.1719,308.5469 926.7813,308.5469 L931.9219,308.5469 Q932.5313,308.5469 932.7969,308.7813 Q933.0625,309.0156 933.0625,309.3906 Q933.0625,309.7813 932.7969,310.0156 Q932.5313,310.25 931.9219,310.25 L930.2031,310.25 Z " fill="#000000"/><text fill="#000000" font-family="sans-serif" font-size="14" font-style="italic" lengthAdjust="spacing" textLength="167" x="949.75" y="319.3379">IOperationTypeRepository</text><line style="stroke:#181818;stroke-width:0.5;" x1="786.5" x2="1247.5" y1="329.6094" y2="329.6094"/><line style="stroke:#181818;stroke-width:0.5;" x1="786.5" x2="1247.5" y1="337.6094" y2="337.6094"/><text fill="#000000" font-family="sans-serif" font-size="14" lengthAdjust="spacing" textLength="360" x="791.5" y="356.1426">+GetByNameAsync(name: Name): Task&lt;OperationType&gt;</text><text fill="#000000" font-family="sans-serif" font-size="14" lengthAdjust="spacing" textLength="451" x="791.5" y="373.752">+AddAsync(OperationType: OperationTypeDto): Task&lt;OperationType&gt;</text></g><!--class CreatingOperationTypeDto--><g id="elem_CreatingOperationTypeDto"><rect codeLine="25" fill="#F1F1F1" height="259.3125" id="CreatingOperationTypeDto" rx="2.5" ry="2.5" style="stroke:#181818;stroke-width:0.5;" width="393" x="112.5" y="440.6094"/><ellipse cx="219.25" cy="456.6094" fill="#ADD1B2" rx="11" ry="11" style="stroke:#181818;stroke-width:1.0;"/><path d="M222.0156,452.4844 Q222.1719,452.2656 222.3594,452.1563 Q222.5469,452.0469 222.7656,452.0469 Q223.1406,452.0469 223.375,452.3125 Q223.6094,452.5625 223.6094,453.1719 L223.6094,454.625 Q223.6094,455.2344 223.375,455.5 Q223.1406,455.7656 222.7656,455.7656 Q222.4219,455.7656 222.2188,455.5625 Q222.0156,455.375 221.9063,454.8594 Q221.8594,454.5 221.6719,454.3125 Q221.3438,453.9375 220.7344,453.7188 Q220.125,453.5 219.5,453.5 Q218.7344,453.5 218.0938,453.8281 Q217.4688,454.1563 216.9688,454.9063 Q216.4844,455.6563 216.4844,456.6875 L216.4844,457.7813 Q216.4844,459.0156 217.375,459.8438 Q218.2656,460.6563 219.8594,460.6563 Q220.7969,460.6563 221.4531,460.4063 Q221.8438,460.25 222.2656,459.8125 Q222.5313,459.5469 222.6719,459.4688 Q222.8281,459.3906 223.0313,459.3906 Q223.3594,459.3906 223.6094,459.6563 Q223.875,459.9063 223.875,460.25 Q223.875,460.5938 223.5313,461 Q223.0313,461.5781 222.2344,461.9063 Q221.1563,462.3594 219.8594,462.3594 Q218.3438,462.3594 217.1406,461.7344 Q216.1563,461.2344 215.4688,460.1719 Q214.7813,459.0938 214.7813,457.8125 L214.7813,456.6563 Q214.7813,455.3281 215.3906,454.1875 Q216.0156,453.0313 217.1094,452.4219 Q218.2031,451.7969 219.4375,451.7969 Q220.1719,451.7969 220.8125,451.9688 Q221.4688,452.125 222.0156,452.4844 Z " fill="#000000"/><text fill="#000000" font-family="sans-serif" font-size="14" lengthAdjust="spacing" textLength="171" x="239.75" y="462.3379">CreatingOperationTypeDto</text><line style="stroke:#181818;stroke-width:0.5;" x1="113.5" x2="504.5" y1="472.6094" y2="472.6094"/><text fill="#000000" font-family="sans-serif" font-size="14" lengthAdjust="spacing" textLength="88" x="118.5" y="491.1426">+Name: Name</text><text fill="#000000" font-family="sans-serif" font-size="14" lengthAdjust="spacing" textLength="188" x="118.5" y="508.752">+Specialization: Specialization</text><text fill="#000000" font-family="sans-serif" font-size="14" lengthAdjust="spacing" textLength="228" x="118.5" y="526.3613">-_requiredStaff: List&lt;RequiredStaff&gt;</text><text fill="#000000" font-family="sans-serif" font-size="14" lengthAdjust="spacing" textLength="218" x="118.5" y="543.9707">+PhasesDuration: PhasesDuration</text><line style="stroke:#181818;stroke-width:0.5;" x1="113.5" x2="504.5" y1="551.0469" y2="551.0469"/><text fill="#000000" font-family="sans-serif" font-size="14" lengthAdjust="spacing" textLength="118" x="118.5" y="569.5801">+getName(): Name</text><text fill="#000000" font-family="sans-serif" font-size="14" lengthAdjust="spacing" textLength="218" x="118.5" y="587.1895">+getSpecialization(): Specialization</text><text fill="#000000" font-family="sans-serif" font-size="14" lengthAdjust="spacing" textLength="258" x="118.5" y="604.7988">+getRequiredStaff(): List&lt;RequiredStaff&gt;</text><text fill="#000000" font-family="sans-serif" font-size="14" lengthAdjust="spacing" textLength="248" x="118.5" y="622.4082">+getPhasesDuration(): PhasesDuration</text><text fill="#000000" font-family="sans-serif" font-size="14" lengthAdjust="spacing" textLength="186" x="118.5" y="640.0176">+setName(name: Name): void</text><text fill="#000000" font-family="sans-serif" font-size="14" lengthAdjust="spacing" textLength="337" x="118.5" y="657.627">+setSpecialization(Specialization: Specialization): void</text><text fill="#000000" font-family="sans-serif" font-size="14" lengthAdjust="spacing" textLength="373" x="118.5" y="675.2363">+setRequiredStaff(requiredStaff: List&lt;RequiredStaff&gt;): void</text><text fill="#000000" font-family="sans-serif" font-size="14" lengthAdjust="spacing" textLength="381" x="118.5" y="692.8457">+setPhasesDuration(phasesDuration: PhasesDuration): void</text></g><!--class OperationType--><g id="elem_OperationType"><rect codeLine="40" fill="#F1F1F1" height="153.6563" id="OperationType" rx="2.5" ry="2.5" style="stroke:#181818;stroke-width:0.5;" width="240" x="845" y="493.1094"/><ellipse cx="913.25" cy="509.1094" fill="#ADD1B2" rx="11" ry="11" style="stroke:#181818;stroke-width:1.0;"/><path d="M916.0156,504.9844 Q916.1719,504.7656 916.3594,504.6563 Q916.5469,504.5469 916.7656,504.5469 Q917.1406,504.5469 917.375,504.8125 Q917.6094,505.0625 917.6094,505.6719 L917.6094,507.125 Q917.6094,507.7344 917.375,508 Q917.1406,508.2656 916.7656,508.2656 Q916.4219,508.2656 916.2188,508.0625 Q916.0156,507.875 915.9063,507.3594 Q915.8594,507 915.6719,506.8125 Q915.3438,506.4375 914.7344,506.2188 Q914.125,506 913.5,506 Q912.7344,506 912.0938,506.3281 Q911.4688,506.6563 910.9688,507.4063 Q910.4844,508.1563 910.4844,509.1875 L910.4844,510.2813 Q910.4844,511.5156 911.375,512.3438 Q912.2656,513.1563 913.8594,513.1563 Q914.7969,513.1563 915.4531,512.9063 Q915.8438,512.75 916.2656,512.3125 Q916.5313,512.0469 916.6719,511.9688 Q916.8281,511.8906 917.0313,511.8906 Q917.3594,511.8906 917.6094,512.1563 Q917.875,512.4063 917.875,512.75 Q917.875,513.0938 917.5313,513.5 Q917.0313,514.0781 916.2344,514.4063 Q915.1563,514.8594 913.8594,514.8594 Q912.3438,514.8594 911.1406,514.2344 Q910.1563,513.7344 909.4688,512.6719 Q908.7813,511.5938 908.7813,510.3125 L908.7813,509.1563 Q908.7813,507.8281 909.3906,506.6875 Q910.0156,505.5313 911.1094,504.9219 Q912.2031,504.2969 913.4375,504.2969 Q914.1719,504.2969 914.8125,504.4688 Q915.4688,504.625 916.0156,504.9844 Z " fill="#000000"/><text fill="#000000" font-family="sans-serif" font-size="14" lengthAdjust="spacing" textLength="95" x="933.75" y="514.8379">OperationType</text><line style="stroke:#181818;stroke-width:0.5;" x1="846" x2="1084" y1="525.1094" y2="525.1094"/><text fill="#000000" font-family="sans-serif" font-size="14" lengthAdjust="spacing" textLength="135" x="851" y="543.6426">+Id: OperationTypeID</text><text fill="#000000" font-family="sans-serif" font-size="14" lengthAdjust="spacing" textLength="88" x="851" y="561.252">+Name: Name</text><text fill="#000000" font-family="sans-serif" font-size="14" lengthAdjust="spacing" textLength="96" x="851" y="578.8613">+Status: Status</text><text fill="#000000" font-family="sans-serif" font-size="14" lengthAdjust="spacing" textLength="188" x="851" y="596.4707">+Specialization: Specialization</text><text fill="#000000" font-family="sans-serif" font-size="14" lengthAdjust="spacing" textLength="228" x="851" y="614.0801">-_requiredStaff: List&lt;RequiredStaff&gt;</text><text fill="#000000" font-family="sans-serif" font-size="14" lengthAdjust="spacing" textLength="218" x="851" y="631.6895">+PhasesDuration: PhasesDuration</text><line style="stroke:#181818;stroke-width:0.5;" x1="846" x2="1084" y1="638.7656" y2="638.7656"/></g><!--class OperationTypeDto--><g id="elem_OperationTypeDto"><rect codeLine="49" fill="#F1F1F1" height="153.6563" id="OperationTypeDto" rx="2.5" ry="2.5" style="stroke:#181818;stroke-width:0.5;" width="240" x="541" y="493.1094"/><ellipse cx="598.25" cy="509.1094" fill="#ADD1B2" rx="11" ry="11" style="stroke:#181818;stroke-width:1.0;"/><path d="M601.0156,504.9844 Q601.1719,504.7656 601.3594,504.6563 Q601.5469,504.5469 601.7656,504.5469 Q602.1406,504.5469 602.375,504.8125 Q602.6094,505.0625 602.6094,505.6719 L602.6094,507.125 Q602.6094,507.7344 602.375,508 Q602.1406,508.2656 601.7656,508.2656 Q601.4219,508.2656 601.2188,508.0625 Q601.0156,507.875 600.9063,507.3594 Q600.8594,507 600.6719,506.8125 Q600.3438,506.4375 599.7344,506.2188 Q599.125,506 598.5,506 Q597.7344,506 597.0938,506.3281 Q596.4688,506.6563 595.9688,507.4063 Q595.4844,508.1563 595.4844,509.1875 L595.4844,510.2813 Q595.4844,511.5156 596.375,512.3438 Q597.2656,513.1563 598.8594,513.1563 Q599.7969,513.1563 600.4531,512.9063 Q600.8438,512.75 601.2656,512.3125 Q601.5313,512.0469 601.6719,511.9688 Q601.8281,511.8906 602.0313,511.8906 Q602.3594,511.8906 602.6094,512.1563 Q602.875,512.4063 602.875,512.75 Q602.875,513.0938 602.5313,513.5 Q602.0313,514.0781 601.2344,514.4063 Q600.1563,514.8594 598.8594,514.8594 Q597.3438,514.8594 596.1406,514.2344 Q595.1563,513.7344 594.4688,512.6719 Q593.7813,511.5938 593.7813,510.3125 L593.7813,509.1563 Q593.7813,507.8281 594.3906,506.6875 Q595.0156,505.5313 596.1094,504.9219 Q597.2031,504.2969 598.4375,504.2969 Q599.1719,504.2969 599.8125,504.4688 Q600.4688,504.625 601.0156,504.9844 Z " fill="#000000"/><text fill="#000000" font-family="sans-serif" font-size="14" lengthAdjust="spacing" textLength="117" x="618.75" y="514.8379">OperationTypeDto</text><line style="stroke:#181818;stroke-width:0.5;" x1="542" x2="780" y1="525.1094" y2="525.1094"/><text fill="#000000" font-family="sans-serif" font-size="14" lengthAdjust="spacing" textLength="135" x="547" y="543.6426">+Id: OperationTypeID</text><text fill="#000000" font-family="sans-serif" font-size="14" lengthAdjust="spacing" textLength="88" x="547" y="561.252">+Name: Name</text><text fill="#000000" font-family="sans-serif" font-size="14" lengthAdjust="spacing" textLength="96" x="547" y="578.8613">+Status: Status</text><text fill="#000000" font-family="sans-serif" font-size="14" lengthAdjust="spacing" textLength="188" x="547" y="596.4707">+Specialization: Specialization</text><text fill="#000000" font-family="sans-serif" font-size="14" lengthAdjust="spacing" textLength="228" x="547" y="614.0801">-_requiredStaff: List&lt;RequiredStaff&gt;</text><text fill="#000000" font-family="sans-serif" font-size="14" lengthAdjust="spacing" textLength="218" x="547" y="631.6895">+PhasesDuration: PhasesDuration</text><line style="stroke:#181818;stroke-width:0.5;" x1="542" x2="780" y1="638.7656" y2="638.7656"/></g><!--class RequiredStaff--><g id="elem_RequiredStaff"><rect codeLine="58" fill="#F1F1F1" height="100.8281" id="RequiredStaff" rx="2.5" ry="2.5" style="stroke:#181818;stroke-width:0.5;" width="200" x="391" y="759.6094"/><ellipse cx="443.25" cy="775.6094" fill="#ADD1B2" rx="11" ry="11" style="stroke:#181818;stroke-width:1.0;"/><path d="M446.0156,771.4844 Q446.1719,771.2656 446.3594,771.1563 Q446.5469,771.0469 446.7656,771.0469 Q447.1406,771.0469 447.375,771.3125 Q447.6094,771.5625 447.6094,772.1719 L447.6094,773.625 Q447.6094,774.2344 447.375,774.5 Q447.1406,774.7656 446.7656,774.7656 Q446.4219,774.7656 446.2188,774.5625 Q446.0156,774.375 445.9063,773.8594 Q445.8594,773.5 445.6719,773.3125 Q445.3438,772.9375 444.7344,772.7188 Q444.125,772.5 443.5,772.5 Q442.7344,772.5 442.0938,772.8281 Q441.4688,773.1563 440.9688,773.9063 Q440.4844,774.6563 440.4844,775.6875 L440.4844,776.7813 Q440.4844,778.0156 441.375,778.8438 Q442.2656,779.6563 443.8594,779.6563 Q444.7969,779.6563 445.4531,779.4063 Q445.8438,779.25 446.2656,778.8125 Q446.5313,778.5469 446.6719,778.4688 Q446.8281,778.3906 447.0313,778.3906 Q447.3594,778.3906 447.6094,778.6563 Q447.875,778.9063 447.875,779.25 Q447.875,779.5938 447.5313,780 Q447.0313,780.5781 446.2344,780.9063 Q445.1563,781.3594 443.8594,781.3594 Q442.3438,781.3594 441.1406,780.7344 Q440.1563,780.2344 439.4688,779.1719 Q438.7813,778.0938 438.7813,776.8125 L438.7813,775.6563 Q438.7813,774.3281 439.3906,773.1875 Q440.0156,772.0313 441.1094,771.4219 Q442.2031,770.7969 443.4375,770.7969 Q444.1719,770.7969 444.8125,770.9688 Q445.4688,771.125 446.0156,771.4844 Z " fill="#000000"/><text fill="#000000" font-family="sans-serif" font-size="14" lengthAdjust="spacing" textLength="87" x="463.75" y="781.3379">RequiredStaff</text><line style="stroke:#181818;stroke-width:0.5;" x1="392" x2="590" y1="791.6094" y2="791.6094"/><text fill="#000000" font-family="sans-serif" font-size="14" lengthAdjust="spacing" textLength="74" x="397" y="810.1426">+Role: Role</text><text fill="#000000" font-family="sans-serif" font-size="14" lengthAdjust="spacing" textLength="188" x="397" y="827.752">+Specialization: Specialization</text><text fill="#000000" font-family="sans-serif" font-size="14" lengthAdjust="spacing" textLength="122" x="397" y="845.3613">+Quantity: Quantity</text><line style="stroke:#181818;stroke-width:0.5;" x1="392" x2="590" y1="852.4375" y2="852.4375"/></g><!--class Quantity--><g id="elem_Quantity"><rect codeLine="64" fill="#F1F1F1" height="65.6094" id="Quantity" rx="2.5" ry="2.5" style="stroke:#181818;stroke-width:0.5;" width="96" x="493" y="920.6094"/><ellipse cx="512.95" cy="936.6094" fill="#ADD1B2" rx="11" ry="11" style="stroke:#181818;stroke-width:1.0;"/><path d="M515.7156,932.4844 Q515.8719,932.2656 516.0594,932.1563 Q516.2469,932.0469 516.4656,932.0469 Q516.8406,932.0469 517.075,932.3125 Q517.3094,932.5625 517.3094,933.1719 L517.3094,934.625 Q517.3094,935.2344 517.075,935.5 Q516.8406,935.7656 516.4656,935.7656 Q516.1219,935.7656 515.9188,935.5625 Q515.7156,935.375 515.6063,934.8594 Q515.5594,934.5 515.3719,934.3125 Q515.0438,933.9375 514.4344,933.7188 Q513.825,933.5 513.2,933.5 Q512.4344,933.5 511.7938,933.8281 Q511.1688,934.1563 510.6688,934.9063 Q510.1844,935.6563 510.1844,936.6875 L510.1844,937.7813 Q510.1844,939.0156 511.075,939.8438 Q511.9656,940.6563 513.5594,940.6563 Q514.4969,940.6563 515.1531,940.4063 Q515.5438,940.25 515.9656,939.8125 Q516.2313,939.5469 516.3719,939.4688 Q516.5281,939.3906 516.7313,939.3906 Q517.0594,939.3906 517.3094,939.6563 Q517.575,939.9063 517.575,940.25 Q517.575,940.5938 517.2313,941 Q516.7313,941.5781 515.9344,941.9063 Q514.8563,942.3594 513.5594,942.3594 Q512.0438,942.3594 510.8406,941.7344 Q509.8563,941.2344 509.1688,940.1719 Q508.4813,939.0938 508.4813,937.8125 L508.4813,936.6563 Q508.4813,935.3281 509.0906,934.1875 Q509.7156,933.0313 510.8094,932.4219 Q511.9031,931.7969 513.1375,931.7969 Q513.8719,931.7969 514.5125,931.9688 Q515.1688,932.125 515.7156,932.4844 Z " fill="#000000"/><text fill="#000000" font-family="sans-serif" font-size="14" lengthAdjust="spacing" textLength="53" x="528.05" y="942.3379">Quantity</text><line style="stroke:#181818;stroke-width:0.5;" x1="494" x2="588" y1="952.6094" y2="952.6094"/><text fill="#000000" font-family="sans-serif" font-size="14" lengthAdjust="spacing" textLength="84" x="499" y="971.1426">+Quantity: int</text><line style="stroke:#181818;stroke-width:0.5;" x1="494" x2="588" y1="978.2188" y2="978.2188"/></g><g id="elem_GMN10"><path d="M624.5,940.6094 L624.5,949.6094 L589.38,953.6094 L624.5,957.6094 L624.5,966.9609 A0,0 0 0 0 624.5,966.9609 L829.5,966.9609 A0,0 0 0 0 829.5,966.9609 L829.5,950.6094 L819.5,940.6094 L624.5,940.6094 A0,0 0 0 0 624.5,940.6094 " fill="#FEFFDD" style="stroke:#181818;stroke-width:0.5;"/><path d="M819.5,940.6094 L819.5,950.6094 L829.5,950.6094 L819.5,940.6094 " fill="#FEFFDD" style="stroke:#181818;stroke-width:0.5;"/><text fill="#000000" font-family="sans-serif" font-size="13" lengthAdjust="spacing" textLength="184" x="630.5" y="959.1045">Quantity must be greater than 0</text></g><!--class Specialization--><g id="elem_Specialization"><rect codeLine="71" fill="#F1F1F1" height="65.6094" id="Specialization" rx="2.5" ry="2.5" style="stroke:#181818;stroke-width:0.5;" width="354" x="7" y="920.6094"/><ellipse cx="136.75" cy="936.6094" fill="#EB937F" rx="11" ry="11" style="stroke:#181818;stroke-width:1.0;"/><path d="M135.6094,937.4063 L135.6094,939.9063 L139.9375,939.9063 L139.9375,938.9844 Q139.9375,938.375 140.1719,938.1094 Q140.4219,937.8438 140.7969,937.8438 Q141.1719,937.8438 141.4063,938.1094 Q141.6406,938.375 141.6406,938.9844 L141.6406,941.6094 L133.6406,941.6094 Q133.0156,941.6094 132.75,941.375 Q132.5,941.1406 132.5,940.75 Q132.5,940.375 132.7656,940.1406 Q133.0313,939.9063 133.6406,939.9063 L133.9063,939.9063 L133.9063,933.25 L133.6406,933.25 Q133.0156,933.25 132.75,933.0156 Q132.5,932.7813 132.5,932.3906 Q132.5,932.0156 132.75,931.7813 Q133.0156,931.5469 133.6406,931.5469 L141.2656,931.5469 L141.2656,934.1406 Q141.2656,934.75 141.0313,935.0156 Q140.8125,935.2656 140.4219,935.2656 Q140.0469,935.2656 139.8125,935.0156 Q139.5781,934.75 139.5781,934.1406 L139.5781,933.25 L135.6094,933.25 L135.6094,935.7031 L137.0938,935.7031 Q137.0938,935.0469 137.2188,934.8594 Q137.4844,934.4531 137.9531,934.4531 Q138.3281,934.4531 138.5625,934.7188 Q138.7969,934.9688 138.7969,935.5781 L138.7969,937.5469 Q138.7969,938.0938 138.6719,938.2813 Q138.4063,938.6719 137.9531,938.6719 Q137.4844,938.6719 137.2188,938.2656 Q137.0938,938.0781 137.0938,937.4063 L135.6094,937.4063 Z " fill="#000000"/><text fill="#000000" font-family="sans-serif" font-size="14" lengthAdjust="spacing" textLength="86" x="157.25" y="942.3379">Specialization</text><line style="stroke:#181818;stroke-width:0.5;" x1="8" x2="360" y1="952.6094" y2="952.6094"/><text fill="#000000" font-family="sans-serif" font-size="14" lengthAdjust="spacing" textLength="342" x="13" y="971.1426">ANAESTHESIOLOGY, CARDIOLOGY, ORTHOPEDICS</text><line style="stroke:#181818;stroke-width:0.5;" x1="8" x2="360" y1="978.2188" y2="978.2188"/></g><!--class PhasesDuration--><g id="elem_PhasesDuration"><rect codeLine="75" fill="#F1F1F1" height="65.6094" id="PhasesDuration" rx="2.5" ry="2.5" style="stroke:#181818;stroke-width:0.5;" width="260" x="835" y="777.1094"/><ellipse cx="910.25" cy="793.1094" fill="#ADD1B2" rx="11" ry="11" style="stroke:#181818;stroke-width:1.0;"/><path d="M913.0156,788.9844 Q913.1719,788.7656 913.3594,788.6563 Q913.5469,788.5469 913.7656,788.5469 Q914.1406,788.5469 914.375,788.8125 Q914.6094,789.0625 914.6094,789.6719 L914.6094,791.125 Q914.6094,791.7344 914.375,792 Q914.1406,792.2656 913.7656,792.2656 Q913.4219,792.2656 913.2188,792.0625 Q913.0156,791.875 912.9063,791.3594 Q912.8594,791 912.6719,790.8125 Q912.3438,790.4375 911.7344,790.2188 Q911.125,790 910.5,790 Q909.7344,790 909.0938,790.3281 Q908.4688,790.6563 907.9688,791.4063 Q907.4844,792.1563 907.4844,793.1875 L907.4844,794.2813 Q907.4844,795.5156 908.375,796.3438 Q909.2656,797.1563 910.8594,797.1563 Q911.7969,797.1563 912.4531,796.9063 Q912.8438,796.75 913.2656,796.3125 Q913.5313,796.0469 913.6719,795.9688 Q913.8281,795.8906 914.0313,795.8906 Q914.3594,795.8906 914.6094,796.1563 Q914.875,796.4063 914.875,796.75 Q914.875,797.0938 914.5313,797.5 Q914.0313,798.0781 913.2344,798.4063 Q912.1563,798.8594 910.8594,798.8594 Q909.3438,798.8594 908.1406,798.2344 Q907.1563,797.7344 906.4688,796.6719 Q905.7813,795.5938 905.7813,794.3125 L905.7813,793.1563 Q905.7813,791.8281 906.3906,790.6875 Q907.0156,789.5313 908.1094,788.9219 Q909.2031,788.2969 910.4375,788.2969 Q911.1719,788.2969 911.8125,788.4688 Q912.4688,788.625 913.0156,788.9844 Z " fill="#000000"/><text fill="#000000" font-family="sans-serif" font-size="14" lengthAdjust="spacing" textLength="101" x="930.75" y="798.8379">PhasesDuration</text><line style="stroke:#181818;stroke-width:0.5;" x1="836" x2="1094" y1="809.1094" y2="809.1094"/><text fill="#000000" font-family="sans-serif" font-size="14" lengthAdjust="spacing" textLength="248" x="841" y="827.6426">-_phases: Dictionary&lt;Phase, Duration&gt;</text><line style="stroke:#181818;stroke-width:0.5;" x1="836" x2="1094" y1="834.7188" y2="834.7188"/></g><!--class Phase--><g id="elem_Phase"><rect codeLine="79" fill="#F1F1F1" height="65.6094" id="Phase" rx="2.5" ry="2.5" style="stroke:#181818;stroke-width:0.5;" width="260" x="865" y="920.6094"/><ellipse cx="970.75" cy="936.6094" fill="#EB937F" rx="11" ry="11" style="stroke:#181818;stroke-width:1.0;"/><path d="M969.6094,937.4063 L969.6094,939.9063 L973.9375,939.9063 L973.9375,938.9844 Q973.9375,938.375 974.1719,938.1094 Q974.4219,937.8438 974.7969,937.8438 Q975.1719,937.8438 975.4063,938.1094 Q975.6406,938.375 975.6406,938.9844 L975.6406,941.6094 L967.6406,941.6094 Q967.0156,941.6094 966.75,941.375 Q966.5,941.1406 966.5,940.75 Q966.5,940.375 966.7656,940.1406 Q967.0313,939.9063 967.6406,939.9063 L967.9063,939.9063 L967.9063,933.25 L967.6406,933.25 Q967.0156,933.25 966.75,933.0156 Q966.5,932.7813 966.5,932.3906 Q966.5,932.0156 966.75,931.7813 Q967.0156,931.5469 967.6406,931.5469 L975.2656,931.5469 L975.2656,934.1406 Q975.2656,934.75 975.0313,935.0156 Q974.8125,935.2656 974.4219,935.2656 Q974.0469,935.2656 973.8125,935.0156 Q973.5781,934.75 973.5781,934.1406 L973.5781,933.25 L969.6094,933.25 L969.6094,935.7031 L971.0938,935.7031 Q971.0938,935.0469 971.2188,934.8594 Q971.4844,934.4531 971.9531,934.4531 Q972.3281,934.4531 972.5625,934.7188 Q972.7969,934.9688 972.7969,935.5781 L972.7969,937.5469 Q972.7969,938.0938 972.6719,938.2813 Q972.4063,938.6719 971.9531,938.6719 Q971.4844,938.6719 971.2188,938.2656 Q971.0938,938.0781 971.0938,937.4063 L969.6094,937.4063 Z " fill="#000000"/><text fill="#000000" font-family="sans-serif" font-size="14" lengthAdjust="spacing" textLength="40" x="991.25" y="942.3379">Phase</text><line style="stroke:#181818;stroke-width:0.5;" x1="866" x2="1124" y1="952.6094" y2="952.6094"/><text fill="#000000" font-family="sans-serif" font-size="14" lengthAdjust="spacing" textLength="248" x="871" y="971.1426">PREPARATION, SURGERY, CLEANING</text><line style="stroke:#181818;stroke-width:0.5;" x1="866" x2="1124" y1="978.2188" y2="978.2188"/></g><!--class Duration--><g id="elem_Duration"><rect codeLine="83" fill="#F1F1F1" height="65.6094" id="Duration" rx="2.5" ry="2.5" style="stroke:#181818;stroke-width:0.5;" width="92" x="1160" y="920.6094"/><ellipse cx="1177.7" cy="936.6094" fill="#ADD1B2" rx="11" ry="11" style="stroke:#181818;stroke-width:1.0;"/><path d="M1180.4656,932.4844 Q1180.6219,932.2656 1180.8094,932.1563 Q1180.9969,932.0469 1181.2156,932.0469 Q1181.5906,932.0469 1181.825,932.3125 Q1182.0594,932.5625 1182.0594,933.1719 L1182.0594,934.625 Q1182.0594,935.2344 1181.825,935.5 Q1181.5906,935.7656 1181.2156,935.7656 Q1180.8719,935.7656 1180.6688,935.5625 Q1180.4656,935.375 1180.3563,934.8594 Q1180.3094,934.5 1180.1219,934.3125 Q1179.7938,933.9375 1179.1844,933.7188 Q1178.575,933.5 1177.95,933.5 Q1177.1844,933.5 1176.5438,933.8281 Q1175.9188,934.1563 1175.4188,934.9063 Q1174.9344,935.6563 1174.9344,936.6875 L1174.9344,937.7813 Q1174.9344,939.0156 1175.825,939.8438 Q1176.7156,940.6563 1178.3094,940.6563 Q1179.2469,940.6563 1179.9031,940.4063 Q1180.2938,940.25 1180.7156,939.8125 Q1180.9813,939.5469 1181.1219,939.4688 Q1181.2781,939.3906 1181.4813,939.3906 Q1181.8094,939.3906 1182.0594,939.6563 Q1182.325,939.9063 1182.325,940.25 Q1182.325,940.5938 1181.9813,941 Q1181.4813,941.5781 1180.6844,941.9063 Q1179.6063,942.3594 1178.3094,942.3594 Q1176.7938,942.3594 1175.5906,941.7344 Q1174.6063,941.2344 1173.9188,940.1719 Q1173.2313,939.0938 1173.2313,937.8125 L1173.2313,936.6563 Q1173.2313,935.3281 1173.8406,934.1875 Q1174.4656,933.0313 1175.5594,932.4219 Q1176.6531,931.7969 1177.8875,931.7969 Q1178.6219,931.7969 1179.2625,931.9688 Q1179.9188,932.125 1180.4656,932.4844 Z " fill="#000000"/><text fill="#000000" font-family="sans-serif" font-size="14" lengthAdjust="spacing" textLength="54" x="1192.3" y="942.3379">Duration</text><line style="stroke:#181818;stroke-width:0.5;" x1="1161" x2="1251" y1="952.6094" y2="952.6094"/><text fill="#000000" font-family="sans-serif" font-size="14" lengthAdjust="spacing" textLength="80" x="1166" y="971.1426">+Minutes: int</text><line style="stroke:#181818;stroke-width:0.5;" x1="1161" x2="1251" y1="978.2188" y2="978.2188"/></g><!--class OperationTypeRepository--><g id="elem_OperationTypeRepository"><rect fill="#F1F1F1" height="48" id="OperationTypeRepository" rx="2.5" ry="2.5" style="stroke:#181818;stroke-width:0.5;" width="195" x="919.5" y="180.6094"/><ellipse cx="934.5" cy="196.6094" fill="#ADD1B2" rx="11" ry="11" style="stroke:#181818;stroke-width:1.0;"/><path d="M937.2656,192.4844 Q937.4219,192.2656 937.6094,192.1563 Q937.7969,192.0469 938.0156,192.0469 Q938.3906,192.0469 938.625,192.3125 Q938.8594,192.5625 938.8594,193.1719 L938.8594,194.625 Q938.8594,195.2344 938.625,195.5 Q938.3906,195.7656 938.0156,195.7656 Q937.6719,195.7656 937.4688,195.5625 Q937.2656,195.375 937.1563,194.8594 Q937.1094,194.5 936.9219,194.3125 Q936.5938,193.9375 935.9844,193.7188 Q935.375,193.5 934.75,193.5 Q933.9844,193.5 933.3438,193.8281 Q932.7188,194.1563 932.2188,194.9063 Q931.7344,195.6563 931.7344,196.6875 L931.7344,197.7813 Q931.7344,199.0156 932.625,199.8438 Q933.5156,200.6563 935.1094,200.6563 Q936.0469,200.6563 936.7031,200.4063 Q937.0938,200.25 937.5156,199.8125 Q937.7813,199.5469 937.9219,199.4688 Q938.0781,199.3906 938.2813,199.3906 Q938.6094,199.3906 938.8594,199.6563 Q939.125,199.9063 939.125,200.25 Q939.125,200.5938 938.7813,201 Q938.2813,201.5781 937.4844,201.9063 Q936.4063,202.3594 935.1094,202.3594 Q933.5938,202.3594 932.3906,201.7344 Q931.4063,201.2344 930.7188,200.1719 Q930.0313,199.0938 930.0313,197.8125 L930.0313,196.6563 Q930.0313,195.3281 930.6406,194.1875 Q931.2656,193.0313 932.3594,192.4219 Q933.4531,191.7969 934.6875,191.7969 Q935.4219,191.7969 936.0625,191.9688 Q936.7188,192.125 937.2656,192.4844 Z " fill="#000000"/><text fill="#000000" font-family="sans-serif" font-size="14" lengthAdjust="spacing" textLength="163" x="948.5" y="202.3379">OperationTypeRepository</text><line style="stroke:#181818;stroke-width:0.5;" x1="920.5" x2="1113.5" y1="212.6094" y2="212.6094"/><line style="stroke:#181818;stroke-width:0.5;" x1="920.5" x2="1113.5" y1="220.6094" y2="220.6094"/></g><!--class Name--><g id="elem_Name"><rect fill="#F1F1F1" height="48" id="Name" rx="2.5" ry="2.5" style="stroke:#181818;stroke-width:0.5;" width="68" x="275" y="786.1094"/><ellipse cx="290" cy="802.1094" fill="#ADD1B2" rx="11" ry="11" style="stroke:#181818;stroke-width:1.0;"/><path d="M292.7656,797.9844 Q292.9219,797.7656 293.1094,797.6563 Q293.2969,797.5469 293.5156,797.5469 Q293.8906,797.5469 294.125,797.8125 Q294.3594,798.0625 294.3594,798.6719 L294.3594,800.125 Q294.3594,800.7344 294.125,801 Q293.8906,801.2656 293.5156,801.2656 Q293.1719,801.2656 292.9688,801.0625 Q292.7656,800.875 292.6563,800.3594 Q292.6094,800 292.4219,799.8125 Q292.0938,799.4375 291.4844,799.2188 Q290.875,799 290.25,799 Q289.4844,799 288.8438,799.3281 Q288.2188,799.6563 287.7188,800.4063 Q287.2344,801.1563 287.2344,802.1875 L287.2344,803.2813 Q287.2344,804.5156 288.125,805.3438 Q289.0156,806.1563 290.6094,806.1563 Q291.5469,806.1563 292.2031,805.9063 Q292.5938,805.75 293.0156,805.3125 Q293.2813,805.0469 293.4219,804.9688 Q293.5781,804.8906 293.7813,804.8906 Q294.1094,804.8906 294.3594,805.1563 Q294.625,805.4063 294.625,805.75 Q294.625,806.0938 294.2813,806.5 Q293.7813,807.0781 292.9844,807.4063 Q291.9063,807.8594 290.6094,807.8594 Q289.0938,807.8594 287.8906,807.2344 Q286.9063,806.7344 286.2188,805.6719 Q285.5313,804.5938 285.5313,803.3125 L285.5313,802.1563 Q285.5313,800.8281 286.1406,799.6875 Q286.7656,798.5313 287.8594,797.9219 Q288.9531,797.2969 290.1875,797.2969 Q290.9219,797.2969 291.5625,797.4688 Q292.2188,797.625 292.7656,797.9844 Z " fill="#000000"/><text fill="#000000" font-family="sans-serif" font-size="14" lengthAdjust="spacing" textLength="36" x="304" y="807.8379">Name</text><line style="stroke:#181818;stroke-width:0.5;" x1="276" x2="342" y1="818.1094" y2="818.1094"/><line style="stroke:#181818;stroke-width:0.5;" x1="276" x2="342" y1="826.1094" y2="826.1094"/></g><!--class Role--><g id="elem_Role"><rect fill="#F1F1F1" height="48" id="Role" rx="2.5" ry="2.5" style="stroke:#181818;stroke-width:0.5;" width="61" x="396.5" y="929.6094"/><ellipse cx="411.5" cy="945.6094" fill="#ADD1B2" rx="11" ry="11" style="stroke:#181818;stroke-width:1.0;"/><path d="M414.2656,941.4844 Q414.4219,941.2656 414.6094,941.1563 Q414.7969,941.0469 415.0156,941.0469 Q415.3906,941.0469 415.625,941.3125 Q415.8594,941.5625 415.8594,942.1719 L415.8594,943.625 Q415.8594,944.2344 415.625,944.5 Q415.3906,944.7656 415.0156,944.7656 Q414.6719,944.7656 414.4688,944.5625 Q414.2656,944.375 414.1563,943.8594 Q414.1094,943.5 413.9219,943.3125 Q413.5938,942.9375 412.9844,942.7188 Q412.375,942.5 411.75,942.5 Q410.9844,942.5 410.3438,942.8281 Q409.7188,943.1563 409.2188,943.9063 Q408.7344,944.6563 408.7344,945.6875 L408.7344,946.7813 Q408.7344,948.0156 409.625,948.8438 Q410.5156,949.6563 412.1094,949.6563 Q413.0469,949.6563 413.7031,949.4063 Q414.0938,949.25 414.5156,948.8125 Q414.7813,948.5469 414.9219,948.4688 Q415.0781,948.3906 415.2813,948.3906 Q415.6094,948.3906 415.8594,948.6563 Q416.125,948.9063 416.125,949.25 Q416.125,949.5938 415.7813,950 Q415.2813,950.5781 414.4844,950.9063 Q413.4063,951.3594 412.1094,951.3594 Q410.5938,951.3594 409.3906,950.7344 Q408.4063,950.2344 407.7188,949.1719 Q407.0313,948.0938 407.0313,946.8125 L407.0313,945.6563 Q407.0313,944.3281 407.6406,943.1875 Q408.2656,942.0313 409.3594,941.4219 Q410.4531,940.7969 411.6875,940.7969 Q412.4219,940.7969 413.0625,940.9688 Q413.7188,941.125 414.2656,941.4844 Z " fill="#000000"/><text fill="#000000" font-family="sans-serif" font-size="14" lengthAdjust="spacing" textLength="29" x="425.5" y="951.3379">Role</text><line style="stroke:#181818;stroke-width:0.5;" x1="397.5" x2="456.5" y1="961.6094" y2="961.6094"/><line style="stroke:#181818;stroke-width:0.5;" x1="397.5" x2="456.5" y1="969.6094" y2="969.6094"/></g><!--link OperationTypeController to OperationTypeService--><g id="link_OperationTypeController_OperationTypeService"><path codeLine="106" d="M376,111.7194 C376,130.0894 376,146.8794 376,165.2894 " fill="none" id="OperationTypeController-to-OperationTypeService" style="stroke:#181818;stroke-width:1.0;stroke-dasharray:7.0,7.0;"/><polygon fill="#181818" points="376,171.2894,380,162.2894,376,166.2894,372,162.2894,376,171.2894" style="stroke:#181818;stroke-width:1.0;"/><polygon fill="#000000" points="338,137.6752,340.9389,128.6301,335.0611,128.6301,338,137.6752" style="stroke:#000000;stroke-width:1.0;"/><text fill="#000000" font-family="sans-serif" font-size="13" lengthAdjust="spacing" textLength="28" x="347" y="137.9945">uses</text></g><!--link OperationTypeController to CreatingOperationTypeDto--><g id="link_OperationTypeController_CreatingOperationTypeDto"><path codeLine="107" d="M128.25,111.6194 C128.25,177.7494 128.25,323.6194 128.25,434.5094 " fill="none" id="OperationTypeController-to-CreatingOperationTypeDto" style="stroke:#181818;stroke-width:1.0;"/><polygon fill="#181818" points="128.25,440.5094,132.25,431.5094,128.25,435.5094,124.25,431.5094,128.25,440.5094" style="stroke:#181818;stroke-width:1.0;"/><polygon fill="#000000" points="71.25,272.2452,74.1889,263.2001,68.3111,263.2001,71.25,272.2452" style="stroke:#000000;stroke-width:1.0;"/><text fill="#000000" font-family="sans-serif" font-size="13" lengthAdjust="spacing" textLength="47" x="80.25" y="272.5645">receives</text></g><!--link OperationTypeController to OperationTypeDto--><g id="link_OperationTypeController_OperationTypeDto"><path codeLine="108" d="M626.75,111.6194 C626.75,188.9994 626.75,377.7594 626.75,486.9094 " fill="none" id="OperationTypeController-to-OperationTypeDto" style="stroke:#181818;stroke-width:1.0;"/><polygon fill="#181818" points="626.75,492.9094,630.75,483.9094,626.75,487.9094,622.75,483.9094,626.75,492.9094" style="stroke:#181818;stroke-width:1.0;"/><polygon fill="#000000" points="576.75,298.4452,579.6889,289.4001,573.8111,289.4001,576.75,298.4452" style="stroke:#000000;stroke-width:1.0;"/><text fill="#000000" font-family="sans-serif" font-size="13" lengthAdjust="spacing" textLength="40" x="585.75" y="298.7645">returns</text></g><!--link OperationTypeService to OperationTypeRepository--><g id="link_OperationTypeService_OperationTypeRepository"><path codeLine="110" d="M608.32,204.6094 C715.45,204.6094 830.83,204.6094 913.28,204.6094 " fill="none" id="OperationTypeService-to-OperationTypeRepository" style="stroke:#181818;stroke-width:1.0;"/><polygon fill="#181818" points="919.28,204.6094,910.28,200.6094,914.28,204.6094,910.28,208.6094,919.28,204.6094" style="stroke:#181818;stroke-width:1.0;"/><polygon fill="#000000" points="730.8,195.7852,721.7549,192.8462,721.7549,198.7241,730.8,195.7852" style="stroke:#000000;stroke-width:1.0;"/><text fill="#000000" font-family="sans-serif" font-size="13" lengthAdjust="spacing" textLength="28" x="734.8" y="201.1045">uses</text></g><!--link OperationTypeService to CreatingOperationTypeDto--><g id="link_OperationTypeService_CreatingOperationTypeDto"><path codeLine="111" d="M324.75,237.6894 C324.75,283.2894 324.75,362.0594 324.75,434.5794 " fill="none" id="OperationTypeService-to-CreatingOperationTypeDto" style="stroke:#181818;stroke-width:1.0;"/><polygon fill="#181818" points="324.75,440.5794,328.75,431.5794,324.75,435.5794,320.75,431.5794,324.75,440.5794" style="stroke:#181818;stroke-width:1.0;"/><polygon fill="#000000" points="286.75,335.3152,289.6889,326.2701,283.8111,326.2701,286.75,335.3152" style="stroke:#000000;stroke-width:1.0;"/><text fill="#000000" font-family="sans-serif" font-size="13" lengthAdjust="spacing" textLength="28" x="295.75" y="335.6345">uses</text></g><!--link OperationTypeService to OperationType--><g id="link_OperationTypeService_OperationType"><path codeLine="112" d="M585.67,237.7094 C585.67,295.9394 585.67,410.6094 585.67,410.6094 C585.67,410.6094 925,410.6094 925,410.6094 C925,410.6094 925,446.0594 925,486.6994 " fill="none" id="OperationTypeService-to-OperationType" style="stroke:#181818;stroke-width:1.0;"/><polygon fill="#181818" points="925,492.6994,929,483.6994,925,487.6994,921,483.6994,925,492.6994" style="stroke:#181818;stroke-width:1.0;"/><polygon fill="#000000" points="660.9612,404.7431,655.4073,397.0226,651.9301,401.7616,660.9612,404.7431" style="stroke:#000000;stroke-width:1.0;"/><text fill="#000000" font-family="sans-serif" font-size="13" lengthAdjust="spacing" textLength="43" x="665.93" y="407.1045">creates</text></g><!--link OperationTypeService to OperationTypeDto--><g id="link_OperationTypeService_OperationTypeDto"><path codeLine="113" d="M563.33,237.6894 C563.33,294.9794 563.33,408.0794 563.33,487.0494 " fill="none" id="OperationTypeService-to-OperationTypeDto" style="stroke:#181818;stroke-width:1.0;"/><polygon fill="#181818" points="563.33,493.0494,567.33,484.0494,563.33,488.0494,559.33,484.0494,563.33,493.0494" style="stroke:#181818;stroke-width:1.0;"/><polygon fill="#000000" points="510.33,361.5452,513.2689,352.5001,507.3911,352.5001,510.33,361.5452" style="stroke:#000000;stroke-width:1.0;"/><text fill="#000000" font-family="sans-serif" font-size="13" lengthAdjust="spacing" textLength="43" x="519.33" y="361.8645">creates</text></g><!--link OperationTypeRepository to IOperationTypeRepository--><g id="link_OperationTypeRepository_IOperationTypeRepository"><path codeLine="115" d="M1017,228.6594 C1017,247.7694 1017,268.9694 1017,291.5894 " fill="none" id="OperationTypeRepository-to-IOperationTypeRepository" style="stroke:#181818;stroke-width:1.0;"/><polygon fill="#181818" points="1017,297.5894,1021,288.5894,1017,292.5894,1013,288.5894,1017,297.5894" style="stroke:#181818;stroke-width:1.0;"/><polygon fill="#000000" points="940,259.2952,942.9389,250.2501,937.0611,250.2501,940,259.2952" style="stroke:#000000;stroke-width:1.0;"/><text fill="#000000" font-family="sans-serif" font-size="13" lengthAdjust="spacing" textLength="67" x="949" y="259.6145">implements</text></g><!--link OperationTypeRepository to OperationType--><g id="link_OperationTypeRepository_OperationType"><path codeLine="116" d="M1114.82,204.6094 C1186.01,204.6094 1270,204.6094 1270,204.6094 C1270,204.6094 1270,570.6094 1270,570.6094 C1270,570.6094 1176.46,570.6094 1091.11,570.6094 " fill="none" id="OperationTypeRepository-to-OperationType" style="stroke:#181818;stroke-width:1.0;"/><polygon fill="#181818" points="1085.11,570.6094,1094.11,574.6094,1090.11,570.6094,1094.11,566.6094,1085.11,570.6094" style="stroke:#181818;stroke-width:1.0;"/><polygon fill="#000000" points="1155.6768,398.6347,1159.1943,389.7985,1153.3287,389.4185,1155.6768,398.6347" style="stroke:#000000;stroke-width:1.0;"/><text fill="#000000" font-family="sans-serif" font-size="13" lengthAdjust="spacing" textLength="104" x="1165" y="398.9645">saves in database</text></g><!--link IOperationTypeRepository to OperationType--><g id="link_IOperationTypeRepository_OperationType"><path codeLine="118" d="M1005,380.6694 C1005,411.8494 1005,449.4194 1005,486.9194 " fill="none" id="IOperationTypeRepository-to-OperationType" style="stroke:#181818;stroke-width:1.0;"/><polygon fill="#181818" points="1005,492.9194,1009,483.9194,1005,487.9194,1001,483.9194,1005,492.9194" style="stroke:#181818;stroke-width:1.0;"/><polygon fill="#000000" points="891,432.9752,893.9389,423.9301,888.0611,423.9301,891,432.9752" style="stroke:#000000;stroke-width:1.0;"/><text fill="#000000" font-family="sans-serif" font-size="13" lengthAdjust="spacing" textLength="104" x="900" y="433.2945">saves in database</text></g><!--link CreatingOperationTypeDto to Name--><g id="link_CreatingOperationTypeDto_Name"><path codeLine="120" d="M309,699.9394 C309,732.8594 309,758.7794 309,779.7094 " fill="none" id="CreatingOperationTypeDto-to-Name" style="stroke:#181818;stroke-width:1.0;"/><polygon fill="#181818" points="309,785.7094,313,776.7094,309,780.7094,305,776.7094,309,785.7094" style="stroke:#181818;stroke-width:1.0;"/><polygon fill="#000000" points="278,739.0052,280.9389,729.9601,275.0611,729.9601,278,739.0052" style="stroke:#000000;stroke-width:1.0;"/><text fill="#000000" font-family="sans-serif" font-size="13" lengthAdjust="spacing" textLength="21" x="287" y="739.3245">has</text></g><!--link CreatingOperationTypeDto to Specialization--><g id="link_CreatingOperationTypeDto_Specialization"><path codeLine="121" d="M193.75,699.6794 C193.75,777.9294 193.75,865.6794 193.75,914.4494 " fill="none" id="CreatingOperationTypeDto-to-Specialization" style="stroke:#181818;stroke-width:1.0;"/><polygon fill="#181818" points="193.75,920.4494,197.75,911.4494,193.75,915.4494,189.75,911.4494,193.75,920.4494" style="stroke:#181818;stroke-width:1.0;"/><polygon fill="#000000" points="162.75,806.2352,165.6889,797.1901,159.8111,797.1901,162.75,806.2352" style="stroke:#000000;stroke-width:1.0;"/><text fill="#000000" font-family="sans-serif" font-size="13" lengthAdjust="spacing" textLength="21" x="171.75" y="806.5545">has</text></g><!--link CreatingOperationTypeDto to RequiredStaff--><g id="link_CreatingOperationTypeDto_RequiredStaff"><path codeLine="122" d="M448.25,699.9394 C448.25,721.0394 448.25,735.7294 448.25,753.3694 " fill="none" id="CreatingOperationTypeDto-to-RequiredStaff" style="stroke:#181818;stroke-width:1.0;"/><polygon fill="#181818" points="448.25,759.3694,452.25,750.3694,448.25,754.3694,444.25,750.3694,448.25,759.3694" style="stroke:#181818;stroke-width:1.0;"/><polygon fill="#000000" points="417.25,725.8352,420.1889,716.7901,414.3111,716.7901,417.25,725.8352" style="stroke:#000000;stroke-width:1.0;"/><text fill="#000000" font-family="sans-serif" font-size="13" lengthAdjust="spacing" textLength="21" x="426.25" y="726.1545">has</text></g><!--link CreatingOperationTypeDto to PhasesDuration--><g id="link_CreatingOperationTypeDto_PhasesDuration"><path codeLine="123" d="M505.73,673.6094 C656.3,673.6094 838.33,673.6094 838.33,673.6094 C838.33,673.6094 838.33,730.6694 838.33,771.0694 " fill="none" id="CreatingOperationTypeDto-to-PhasesDuration" style="stroke:#181818;stroke-width:1.0;"/><polygon fill="#181818" points="838.33,777.0694,842.33,768.0694,838.33,772.0694,834.33,768.0694,838.33,777.0694" style="stroke:#181818;stroke-width:1.0;"/><polygon fill="#000000" points="697.5582,666.1912,689.7046,660.8273,688.0517,666.468,697.5582,666.1912" style="stroke:#000000;stroke-width:1.0;"/><text fill="#000000" font-family="sans-serif" font-size="13" lengthAdjust="spacing" textLength="21" x="701.76" y="670.1045">has</text></g><!--link OperationType to RequiredStaff--><g id="link_OperationType_RequiredStaff"><path codeLine="129" d="M925,647.1394 C925,702.9394 925,768.6094 925,768.6094 C925,768.6094 725.28,768.6094 597.11,768.6094 " fill="none" id="OperationType-to-RequiredStaff" style="stroke:#181818;stroke-width:1.0;"/><polygon fill="#181818" points="591.11,768.6094,600.11,772.6094,596.11,768.6094,600.11,764.6094,591.11,768.6094" style="stroke:#181818;stroke-width:1.0;"/><polygon fill="#000000" points="783.1014,761.5221,792.6041,761.1358,790.5622,755.624,783.1014,761.5221" style="stroke:#000000;stroke-width:1.0;"/><text fill="#000000" font-family="sans-serif" font-size="13" lengthAdjust="spacing" textLength="21" x="796.79" y="765.1045">has</text></g><!--link OperationType to PhasesDuration--><g id="link_OperationType_PhasesDuration"><path codeLine="130" d="M1005,647.3694 C1005,691.0794 1005,737.4994 1005,770.7994 " fill="none" id="OperationType-to-PhasesDuration" style="stroke:#181818;stroke-width:1.0;"/><polygon fill="#181818" points="1005,776.7994,1009,767.7994,1005,771.7994,1001,767.7994,1005,776.7994" style="stroke:#181818;stroke-width:1.0;"/><polygon fill="#000000" points="974,708.2652,976.9389,699.2201,971.0611,699.2201,974,708.2652" style="stroke:#000000;stroke-width:1.0;"/><text fill="#000000" font-family="sans-serif" font-size="13" lengthAdjust="spacing" textLength="21" x="983" y="708.5845">has</text></g><!--link OperationTypeDto to RequiredStaff--><g id="link_OperationTypeDto_RequiredStaff"><path codeLine="136" d="M566,647.3694 C566,684.0894 566,720.9594 566,753.4794 " fill="none" id="OperationTypeDto-to-RequiredStaff" style="stroke:#181818;stroke-width:1.0;"/><polygon fill="#181818" points="566,759.4794,570,750.4794,566,754.4794,562,750.4794,566,759.4794" style="stroke:#181818;stroke-width:1.0;"/><polygon fill="#000000" points="491,717.5952,493.9389,708.5501,488.0611,708.5501,491,717.5952" style="stroke:#000000;stroke-width:1.0;"/><text fill="#000000" font-family="sans-serif" font-size="13" lengthAdjust="spacing" textLength="65" x="500" y="717.9145">has several</text></g><!--link OperationTypeDto to PhasesDuration--><g id="link_OperationTypeDto_PhasesDuration"><path codeLine="137" d="M781,570.6094 C814.37,570.6094 841.67,570.6094 841.67,570.6094 C841.67,570.6094 841.67,704.9994 841.67,770.8094 " fill="none" id="OperationTypeDto-to-PhasesDuration" style="stroke:#181818;stroke-width:1.0;"/><polygon fill="#181818" points="841.67,776.8094,845.67,767.8094,841.67,771.8094,837.67,767.8094,841.67,776.8094" style="stroke:#181818;stroke-width:1.0;"/><polygon fill="#000000" points="812.1201,639.3403,812.3094,629.8316,806.6842,631.5363,812.1201,639.3403" style="stroke:#000000;stroke-width:1.0;"/><text fill="#000000" font-family="sans-serif" font-size="13" lengthAdjust="spacing" textLength="21" x="819.67" y="639.8745">has</text></g><!--link RequiredStaff to Role--><g id="link_RequiredStaff_Role"><path codeLine="139" d="M427,860.6994 C427,884.0994 427,904.7994 427,923.5494 " fill="none" id="RequiredStaff-to-Role" style="stroke:#181818;stroke-width:1.0;"/><polygon fill="#181818" points="427,929.5494,431,920.5494,427,924.5494,423,920.5494,427,929.5494" style="stroke:#181818;stroke-width:1.0;"/><text fill="#000000" font-family="sans-serif" font-size="13" lengthAdjust="spacing" textLength="21" x="405" y="891.6245">has</text></g><!--link RequiredStaff to Specialization--><g id="link_RequiredStaff_Specialization"><path codeLine="140" d="M390.72,847.6094 C368.8,847.6094 352,847.6094 352,847.6094 C352,847.6094 352,883.2794 352,914.3594 " fill="none" id="RequiredStaff-to-Specialization" style="stroke:#181818;stroke-width:1.0;"/><polygon fill="#181818" points="352,920.3594,356,911.3594,352,915.3594,348,911.3594,352,920.3594" style="stroke:#181818;stroke-width:1.0;"/><polygon fill="#000000" points="329.4912,860.1302,336.5719,853.7808,331.4875,850.8315,329.4912,860.1302" style="stroke:#000000;stroke-width:1.0;"/><text fill="#000000" font-family="sans-serif" font-size="13" lengthAdjust="spacing" textLength="10" x="341" y="861.1245">of</text></g><!--link RequiredStaff to Quantity--><g id="link_RequiredStaff_Quantity"><path codeLine="141" d="M541,860.6994 C541,880.5494 541,896.7794 541,914.5094 " fill="none" id="RequiredStaff-to-Quantity" style="stroke:#181818;stroke-width:1.0;"/><polygon fill="#181818" points="541,920.5094,545,911.5094,541,915.5094,537,911.5094,541,920.5094" style="stroke:#181818;stroke-width:1.0;"/><polygon fill="#000000" points="474,886.7852,476.9389,877.7401,471.0611,877.7401,474,886.7852" style="stroke:#000000;stroke-width:1.0;"/><text fill="#000000" font-family="sans-serif" font-size="13" lengthAdjust="spacing" textLength="57" x="483" y="887.1045">this many</text></g><!--link PhasesDuration to Phase--><g id="link_PhasesDuration_Phase"><path codeLine="143" d="M980,843.3894 C980,866.5794 980,891.3594 980,914.5094 " fill="none" id="PhasesDuration-to-Phase" style="stroke:#181818;stroke-width:1.0;"/><polygon fill="#181818" points="980,920.5094,984,911.5094,980,915.5094,976,911.5094,980,920.5094" style="stroke:#181818;stroke-width:1.0;"/><polygon fill="#000000" points="949,878.1252,951.9389,869.0801,946.0611,869.0801,949,878.1252" style="stroke:#000000;stroke-width:1.0;"/><text fill="#000000" font-family="sans-serif" font-size="13" lengthAdjust="spacing" textLength="21" x="958" y="878.4445">has</text></g><!--link PhasesDuration to Duration--><g id="link_PhasesDuration_Duration"><path codeLine="144" d="M1095.13,810.6094 C1151.24,810.6094 1204.25,810.6094 1204.25,810.6094 C1204.25,810.6094 1204.25,872.1994 1204.25,914.4394 " fill="none" id="PhasesDuration-to-Duration" style="stroke:#181818;stroke-width:1.0;"/><polygon fill="#181818" points="1204.25,920.4394,1208.25,911.4394,1204.25,915.4394,1200.25,911.4394,1204.25,920.4394" style="stroke:#181818;stroke-width:1.0;"/><polygon fill="#000000" points="1176.8722,805.5918,1172.3454,797.2277,1168.2937,801.4859,1176.8722,805.5918" style="stroke:#000000;stroke-width:1.0;"/><text fill="#000000" font-family="sans-serif" font-size="13" lengthAdjust="spacing" textLength="21" x="1182.25" y="807.4645">has</text></g><!--SRC=[rLPTRxCs5BxdLvoxjcewLRkCgaWCeXIfByc0JjhLv8AJM2LsPfjEUQVzznqRd0219DCkfkMYDVXvpddEXuzHduplYIGxs9FyasnegWyb1KbpJVYcf9uw0jIM5E8FnZUm9gLgx-GbKShNMhAFIjCe5pnbtoayjo0burGVzXI4r5lXUILTQz029DjiDHJCE6I2UrhipUiFeRNOjTvxccdK5HXF43AoCKRlW_01dk0zUFxnsVEi2bZkgII6ag6tG70jHLbI2NzwWB_7G5AYwNsXnHJi6kFfK48j7gQG4VNvublN2LLLgL_weDdC-slGPqhb5ykfS-WNXQyEFB_DvPaNuuHnJUMQeCseiv_GlL1C2tbmpXPK_tI8oOxMBZckfc2U1-tFUWexcrEuIMCh2sEnEN7nKKtzdEvfpaZ9lblm5BhF5lC4lqdwUuLTKAIQhDTJU6DAloJjTqqKgorHL8MLRAnrdslCXchZ_lwXBGDVTZsRxG4j1jXnR72ZSX3SLM3GGvfKewbJgo_1YkDsJztbjFN9NSNNazddzuBONyoo8myV3DS7KT7hhIWSQH1DTAKmGll_FsYQuJXQBVq_3AN3TN4aeaIvvk_DqXv_hWZ7eNoOWbkTdBWtplu9YxCCOLnesen-iJxn3VP8tLLAmmU5ZPtO4lIMSBnIA2_0q3rSLRkUiiQV7_lpD7kTfz7oRRduTGA1duHklKoor-Lg7aP1UXBSpLPZ1hDVz_iKRnnx5n1vUB7G2JYi7O1MYjregAjall8JFukMyGJIzsGnJuoCjxaVH_7YvBVdyV4RutY3AfSdxww-Msqd8UOEMjsbyBxb6tpNmlMQyKGndRgey6msSAlO5Fm8ySDl4OeDbq6sJ2OGloVfV0BPF7YDeo3oSMk5ySpZp9guWsuDRU_KXYAEjM8AtZ4RWSsLD7voB9_WvS7KbA1uqtxIzbqeShp4q6KbbVb0W8pcMywmhjmgTGLlLDTdwAGxoA9VK6aKrwiwmh7FW1zcmxVr56PGOQb7YK_ucutVSOQFtogKVLsrCSBLbUIg9zofwxDQD_-my2FngkWhtEu4DuJSdiURESwFetbZWHXcT2bAjjkNT4UvLXTjd2jM18k29meAeia7TgJdHV_QmcXIZGLxN0qHHy9bP6z-tSJfZl2RABtvvZXuLhh1deMFCyI1Xx2TG8S0pM6z21bEmJbmEEvpt8t1kjpS6EzWRKSmbwE-KllRQmwAVY6szFvHpRkch74xXitc-Tw0IB4Um1tlROEmytz7-C7pUYgEmevw1W1dcly6]--></g></svg>