<?xml version="1.0" encoding="us-ascii" standalone="no"?><svg xmlns="http://www.w3.org/2000/svg" xmlns:xlink="http://www.w3.org/1999/xlink" contentStyleType="text/css" height="557px" preserveAspectRatio="none" style="width:1520px;height:557px;background:#FFFFFF;" version="1.1" viewBox="0 0 1520 557" width="1520px" zoomAndPan="magnify"><defs/><g><text fill="#000000" font-family="sans-serif" font-size="14" font-weight="bold" lengthAdjust="spacing" textLength="222" x="648" y="29.5332">Sequence Diagram (SD) - UC020</text><rect fill="#FFFFFF" height="394.5703" style="stroke:#181818;stroke-width:1.0;" width="10" x="161" y="108.5703"/><rect fill="#FFFFFF" height="333.8672" style="stroke:#181818;stroke-width:1.0;" width="10" x="338.5" y="138.9219"/><rect fill="#FFFFFF" height="30.3516" style="stroke:#181818;stroke-width:1.0;" width="10" x="559.5" y="169.2734"/><rect fill="#FFFFFF" height="30.3516" style="stroke:#181818;stroke-width:1.0;" width="10" x="792.5" y="229.9766"/><rect fill="#FFFFFF" height="30.3516" style="stroke:#181818;stroke-width:1.0;" width="10" x="792.5" y="351.3828"/><rect fill="#FFFFFF" height="30.3516" style="stroke:#181818;stroke-width:1.0;" width="10" x="1074.5" y="290.6797"/><rect fill="#FFFFFF" height="30.3516" style="stroke:#181818;stroke-width:1.0;" width="10" x="1265.5" y="412.0859"/><line style="stroke:#181818;stroke-width:0.5;stroke-dasharray:5.0,5.0;" x1="165.5" x2="165.5" y1="76.2188" y2="521.1406"/><line style="stroke:#181818;stroke-width:0.5;stroke-dasharray:5.0,5.0;" x1="343.5" x2="343.5" y1="76.2188" y2="521.1406"/><line style="stroke:#181818;stroke-width:0.5;stroke-dasharray:5.0,5.0;" x1="564.5" x2="564.5" y1="76.2188" y2="521.1406"/><line style="stroke:#181818;stroke-width:0.5;stroke-dasharray:5.0,5.0;" x1="797.5" x2="797.5" y1="76.2188" y2="521.1406"/><line style="stroke:#181818;stroke-width:0.5;stroke-dasharray:5.0,5.0;" x1="1079" x2="1079" y1="76.2188" y2="521.1406"/><line style="stroke:#181818;stroke-width:0.5;stroke-dasharray:5.0,5.0;" x1="1270" x2="1270" y1="76.2188" y2="521.1406"/><line style="stroke:#181818;stroke-width:0.5;stroke-dasharray:5.0,5.0;" x1="1436" x2="1436" y1="76.2188" y2="521.1406"/><rect fill="#E2E2F0" height="31.6094" rx="2.5" ry="2.5" style="stroke:#181818;stroke-width:0.5;" width="175" x="78.5" y="43.6094"/><text fill="#000000" font-family="sans-serif" font-size="14" lengthAdjust="spacing" textLength="161" x="85.5" y="65.1426">:OperationTypeController</text><rect fill="#E2E2F0" height="31.6094" rx="2.5" ry="2.5" style="stroke:#181818;stroke-width:0.5;" width="175" x="78.5" y="520.1406"/><text fill="#000000" font-family="sans-serif" font-size="14" lengthAdjust="spacing" textLength="161" x="85.5" y="541.6738">:OperationTypeController</text><rect fill="#E2E2F0" height="31.6094" rx="2.5" ry="2.5" style="stroke:#181818;stroke-width:0.5;" width="160" x="263.5" y="43.6094"/><text fill="#000000" font-family="sans-serif" font-size="14" lengthAdjust="spacing" textLength="146" x="270.5" y="65.1426">:OperationTypeService</text><rect fill="#E2E2F0" height="31.6094" rx="2.5" ry="2.5" style="stroke:#181818;stroke-width:0.5;" width="160" x="263.5" y="520.1406"/><text fill="#000000" font-family="sans-serif" font-size="14" lengthAdjust="spacing" textLength="146" x="270.5" y="541.6738">:OperationTypeService</text><rect fill="#E2E2F0" height="31.6094" rx="2.5" ry="2.5" style="stroke:#181818;stroke-width:0.5;" width="262" x="433.5" y="43.6094"/><text fill="#000000" font-family="sans-serif" font-size="14" lengthAdjust="spacing" textLength="248" x="440.5" y="65.1426">creatingDto:CreatingOperationTypeDto</text><rect fill="#E2E2F0" height="31.6094" rx="2.5" ry="2.5" style="stroke:#181818;stroke-width:0.5;" width="262" x="433.5" y="520.1406"/><text fill="#000000" font-family="sans-serif" font-size="14" lengthAdjust="spacing" textLength="248" x="440.5" y="541.6738">creatingDto:CreatingOperationTypeDto</text><rect fill="#E2E2F0" height="31.6094" rx="2.5" ry="2.5" style="stroke:#181818;stroke-width:0.5;" width="184" x="705.5" y="43.6094"/><text fill="#000000" font-family="sans-serif" font-size="14" lengthAdjust="spacing" textLength="170" x="712.5" y="65.1426">:IOperationTypeRepository</text><rect fill="#E2E2F0" height="31.6094" rx="2.5" ry="2.5" style="stroke:#181818;stroke-width:0.5;" width="184" x="705.5" y="520.1406"/><text fill="#000000" font-family="sans-serif" font-size="14" lengthAdjust="spacing" textLength="170" x="712.5" y="541.6738">:IOperationTypeRepository</text><rect fill="#E2E2F0" height="31.6094" rx="2.5" ry="2.5" style="stroke:#181818;stroke-width:0.5;" width="205" x="977" y="43.6094"/><text fill="#000000" font-family="sans-serif" font-size="14" lengthAdjust="spacing" textLength="191" x="984" y="65.1426">operationType:OperationType</text><rect fill="#E2E2F0" height="31.6094" rx="2.5" ry="2.5" style="stroke:#181818;stroke-width:0.5;" width="205" x="977" y="520.1406"/><text fill="#000000" font-family="sans-serif" font-size="14" lengthAdjust="spacing" textLength="191" x="984" y="541.6738">operationType:OperationType</text><rect fill="#E2E2F0" height="31.6094" rx="2.5" ry="2.5" style="stroke:#181818;stroke-width:0.5;" width="157" x="1192" y="43.6094"/><text fill="#000000" font-family="sans-serif" font-size="14" lengthAdjust="spacing" textLength="143" x="1199" y="65.1426">OperationTypeMapper</text><rect fill="#E2E2F0" height="31.6094" rx="2.5" ry="2.5" style="stroke:#181818;stroke-width:0.5;" width="157" x="1192" y="520.1406"/><text fill="#000000" font-family="sans-serif" font-size="14" lengthAdjust="spacing" textLength="143" x="1199" y="541.6738">OperationTypeMapper</text><rect fill="#E2E2F0" height="31.6094" rx="2.5" ry="2.5" style="stroke:#181818;stroke-width:0.5;" width="155" x="1359" y="43.6094"/><text fill="#000000" font-family="sans-serif" font-size="14" lengthAdjust="spacing" textLength="141" x="1366" y="65.1426">dto:OperationTypeDto</text><rect fill="#E2E2F0" height="31.6094" rx="2.5" ry="2.5" style="stroke:#181818;stroke-width:0.5;" width="155" x="1359" y="520.1406"/><text fill="#000000" font-family="sans-serif" font-size="14" lengthAdjust="spacing" textLength="141" x="1366" y="541.6738">dto:OperationTypeDto</text><rect fill="#FFFFFF" height="394.5703" style="stroke:#181818;stroke-width:1.0;" width="10" x="161" y="108.5703"/><rect fill="#FFFFFF" height="333.8672" style="stroke:#181818;stroke-width:1.0;" width="10" x="338.5" y="138.9219"/><rect fill="#FFFFFF" height="30.3516" style="stroke:#181818;stroke-width:1.0;" width="10" x="559.5" y="169.2734"/><rect fill="#FFFFFF" height="30.3516" style="stroke:#181818;stroke-width:1.0;" width="10" x="792.5" y="229.9766"/><rect fill="#FFFFFF" height="30.3516" style="stroke:#181818;stroke-width:1.0;" width="10" x="792.5" y="351.3828"/><rect fill="#FFFFFF" height="30.3516" style="stroke:#181818;stroke-width:1.0;" width="10" x="1074.5" y="290.6797"/><rect fill="#FFFFFF" height="30.3516" style="stroke:#181818;stroke-width:1.0;" width="10" x="1265.5" y="412.0859"/><polygon fill="#181818" points="149,104.5703,159,108.5703,149,112.5703,153,108.5703" style="stroke:#181818;stroke-width:1.0;"/><line style="stroke:#181818;stroke-width:1.0;" x1="0" x2="155" y1="108.5703" y2="108.5703"/><text fill="#000000" font-family="sans-serif" font-size="13" lengthAdjust="spacing" textLength="142" x="7" y="103.7139">POST /api/operationtype</text><polygon fill="#181818" points="326.5,134.9219,336.5,138.9219,326.5,142.9219,330.5,138.9219" style="stroke:#181818;stroke-width:1.0;"/><line style="stroke:#181818;stroke-width:1.0;" x1="171" x2="332.5" y1="138.9219" y2="138.9219"/><text fill="#000000" font-family="sans-serif" font-size="13" lengthAdjust="spacing" textLength="134" x="178" y="134.0654">AddAsync(creatingDto)</text><polygon fill="#181818" points="547.5,165.2734,557.5,169.2734,547.5,173.2734,551.5,169.2734" style="stroke:#181818;stroke-width:1.0;"/><line style="stroke:#181818;stroke-width:1.0;" x1="348.5" x2="553.5" y1="169.2734" y2="169.2734"/><text fill="#000000" font-family="sans-serif" font-size="13" lengthAdjust="spacing" textLength="60" x="355.5" y="164.417">getName()</text><polygon fill="#181818" points="359.5,195.625,349.5,199.625,359.5,203.625,355.5,199.625" style="stroke:#181818;stroke-width:1.0;"/><line style="stroke:#181818;stroke-width:1.0;stroke-dasharray:2.0,2.0;" x1="353.5" x2="563.5" y1="199.625" y2="199.625"/><text fill="#000000" font-family="sans-serif" font-size="13" lengthAdjust="spacing" textLength="32" x="365.5" y="194.7686">name</text><polygon fill="#181818" points="780.5,225.9766,790.5,229.9766,780.5,233.9766,784.5,229.9766" style="stroke:#181818;stroke-width:1.0;"/><line style="stroke:#181818;stroke-width:1.0;" x1="348.5" x2="786.5" y1="229.9766" y2="229.9766"/><text fill="#000000" font-family="sans-serif" font-size="13" lengthAdjust="spacing" textLength="148" x="355.5" y="225.1201">GetByNameAsync(name)</text><polygon fill="#181818" points="359.5,256.3281,349.5,260.3281,359.5,264.3281,355.5,260.3281" style="stroke:#181818;stroke-width:1.0;"/><line style="stroke:#181818;stroke-width:1.0;stroke-dasharray:2.0,2.0;" x1="353.5" x2="796.5" y1="260.3281" y2="260.3281"/><text fill="#000000" font-family="sans-serif" font-size="13" lengthAdjust="spacing" textLength="20" x="365.5" y="255.4717">null</text><polygon fill="#181818" points="1062.5,286.6797,1072.5,290.6797,1062.5,294.6797,1066.5,290.6797" style="stroke:#181818;stroke-width:1.0;"/><line style="stroke:#181818;stroke-width:1.0;" x1="348.5" x2="1068.5" y1="290.6797" y2="290.6797"/><text fill="#000000" font-family="sans-serif" font-size="13" lengthAdjust="spacing" textLength="707" x="355.5" y="285.8232">new OperationType(creatingDto.Name, creatingDto.Specialization, creatingDto.RequiredStaff, creatingDto.PhasesDuration)</text><polygon fill="#181818" points="359.5,317.0313,349.5,321.0313,359.5,325.0313,355.5,321.0313" style="stroke:#181818;stroke-width:1.0;"/><line style="stroke:#181818;stroke-width:1.0;stroke-dasharray:2.0,2.0;" x1="353.5" x2="1078.5" y1="321.0313" y2="321.0313"/><text fill="#000000" font-family="sans-serif" font-size="13" lengthAdjust="spacing" textLength="81" x="365.5" y="316.1748">operationType</text><polygon fill="#181818" points="780.5,347.3828,790.5,351.3828,780.5,355.3828,784.5,351.3828" style="stroke:#181818;stroke-width:1.0;"/><line style="stroke:#181818;stroke-width:1.0;" x1="348.5" x2="786.5" y1="351.3828" y2="351.3828"/><text fill="#000000" font-family="sans-serif" font-size="13" lengthAdjust="spacing" textLength="149" x="355.5" y="346.5264">AddAsync(operationType)</text><polygon fill="#181818" points="359.5,377.7344,349.5,381.7344,359.5,385.7344,355.5,381.7344" style="stroke:#181818;stroke-width:1.0;"/><line style="stroke:#181818;stroke-width:1.0;stroke-dasharray:2.0,2.0;" x1="353.5" x2="796.5" y1="381.7344" y2="381.7344"/><text fill="#000000" font-family="sans-serif" font-size="13" lengthAdjust="spacing" textLength="81" x="365.5" y="376.8779">operationType</text><polygon fill="#181818" points="1253.5,408.0859,1263.5,412.0859,1253.5,416.0859,1257.5,412.0859" style="stroke:#181818;stroke-width:1.0;"/><line style="stroke:#181818;stroke-width:1.0;" x1="348.5" x2="1259.5" y1="412.0859" y2="412.0859"/><text fill="#000000" font-family="sans-serif" font-size="13" lengthAdjust="spacing" textLength="123" x="355.5" y="407.2295">ToDto(operationType)</text><polygon fill="#181818" points="359.5,438.4375,349.5,442.4375,359.5,446.4375,355.5,442.4375" style="stroke:#181818;stroke-width:1.0;"/><line style="stroke:#181818;stroke-width:1.0;stroke-dasharray:2.0,2.0;" x1="353.5" x2="1269.5" y1="442.4375" y2="442.4375"/><text fill="#000000" font-family="sans-serif" font-size="13" lengthAdjust="spacing" textLength="18" x="365.5" y="437.5811">dto</text><polygon fill="#181818" points="182,468.7891,172,472.7891,182,476.7891,178,472.7891" style="stroke:#181818;stroke-width:1.0;"/><line style="stroke:#181818;stroke-width:1.0;stroke-dasharray:2.0,2.0;" x1="176" x2="342.5" y1="472.7891" y2="472.7891"/><text fill="#000000" font-family="sans-serif" font-size="13" lengthAdjust="spacing" textLength="18" x="188" y="467.9326">dto</text><polygon fill="#181818" points="11,499.1406,1,503.1406,11,507.1406,7,503.1406" style="stroke:#181818;stroke-width:1.0;"/><line style="stroke:#181818;stroke-width:1.0;stroke-dasharray:2.0,2.0;" x1="5" x2="165" y1="503.1406" y2="503.1406"/><text fill="#000000" font-family="sans-serif" font-size="13" lengthAdjust="spacing" textLength="70" x="17" y="498.2842">201 Created</text><!--SRC=[dLFBRjim4BphAnOvsK3Tk3aAHG7N0WeVsWIH-m5RQgqGeKcMf1CeNrzIL2LIKHEWF96xCylPbttaKgF1CsXaZzXIxJf1O8WvbAsWmeu0-u2DUkQoXHCActe4b-GwJQ2LwC8ZyJ61rkwSC_pNnT61ALdp5u9jKJZk_4yr_RwGP0GLnpOGLdMrXWtyt6zlFCW7SPnnZTB1LNchoQ3ZIXxzRtibdL52aBa2j30ztoBLP9uuevunt7CuC-J1igsSAlV3FOlW7V6_2JZxy93XxqahovqoNKyxX7TEK2aybzjJAdL6BdDEXlgEMWzLYDSSs_XK5bC8qelDbwHq9TpTraUuHislHrcXjKM1pF4dT9GMkW1_fZVuM4DHIzWrpSvsagsIYguZOmprjmEzDPp1408bzIsX9VS3pxHQJz19JzA8qTiBcnomIQL97sg2DlHsg4HJtxmIlf7xsWKzCS4GRabOR7KcgJVDn5o4M1GpeoSoua1uAZr3rjYqrX-3m0-GMcfDZAFWBpqXzztxFUI6cjhXwPIxxXxGagqkyP-bJ8S9pLADjZpNRD8Navv7UbtySQwoOFzV__Sr_RiHSTjAE2fVf_S53SkPAOgsN5AJZbyYPCuVbSnsUEGdt6pLFcys6U5c-odEFZL5aUx3jEf_0000]--></g></svg>